<?xml version="1.0" standalone="no"?>
<!DOCTYPE svg PUBLIC "-//W3C//DTD SVG 20010904//EN"
 "http://www.w3.org/TR/2001/REC-SVG-20010904/DTD/svg10.dtd">
<svg version="1.0" xmlns="http://www.w3.org/2000/svg"
 width="1500.000000pt" height="1500.000000pt" viewBox="0 0 1500.000000 1500.000000"
 preserveAspectRatio="xMidYMid meet">
<metadata>
Created by potrace 1.16, written by Peter Selinger 2001-2019
</metadata>
<g transform="translate(0.000000,1500.000000) scale(0.100000,-0.100000)"
fill="none" stroke="#000000">
<path d="M1860 11705 c-134 -38 -237 -121 -295 -239 -44 -88 -51 -130 -66
-353 -45 -686 115 -1410 416 -1888 115 -183 277 -374 422 -496 l53 -45 -31
-79 c-73 -192 -144 -478 -176 -715 -16 -117 -18 -211 -18 -705 0 -490 3 -590
18 -715 61 -489 163 -836 353 -1199 218 -419 567 -801 994 -1090 639 -432
1491 -706 2570 -826 1071 -119 2394 -90 3337 75 1307 228 2227 712 2790 1467
357 479 551 1040 603 1748 13 181 13 898 -1 1084 -19 271 -79 556 -173 826
l-45 130 52 44 c121 103 279 281 377 425 329 488 503 1218 460 1936 -6 108
-17 227 -25 264 -57 271 -349 433 -607 336 -30 -11 -116 -64 -192 -118 -279
-200 -826 -516 -1514 -875 l-183 -96 -65 40 c-573 350 -1595 601 -2954 726
-232 21 -670 24 -865 5 -570 -55 -775 -80 -1148 -143 -788 -132 -1461 -345
-1864 -589 l-63 -39 -193 101 c-792 415 -1197 652 -1595 933 -34 24 -86 52
-115 60 -77 24 -191 28 -257 10z m140 -470 c7 -8 72 -55 144 -104 327 -220
876 -531 1626 -921 140 -73 258 -135 262 -139 4 -4 -25 -31 -65 -61 -203 -155
-491 -435 -650 -635 -98 -123 -266 -369 -312 -458 -20 -39 -35 -55 -44 -52 -8
3 -49 26 -91 51 -480 286 -776 787 -881 1493 -32 215 -39 841 -9 841 4 0 13
-7 20 -15z m11035 -102 c11 -164 -1 -555 -20 -692 -101 -728 -408 -1249 -904
-1535 -46 -26 -84 -46 -85 -44 -1 2 -34 57 -73 124 -202 341 -537 719 -866
979 -108 85 -124 102 -111 112 9 6 84 46 167 89 748 380 1566 848 1804 1030
37 29 71 53 75 53 3 1 9 -52 13 -116z m-5135 -228 c769 -67 1460 -185 1981
-335 424 -124 710 -255 1002 -462 736 -522 1256 -1257 1427 -2018 57 -251 63
-337 64 -895 1 -468 -1 -524 -21 -685 -48 -379 -122 -650 -254 -930 -444 -933
-1434 -1507 -2984 -1729 -516 -74 -957 -102 -1615 -102 -605 0 -986 21 -1470
82 -1198 150 -2086 508 -2647 1067 -459 457 -696 1024 -753 1797 -13 179 -13
795 0 988 49 715 382 1399 965 1983 380 381 759 634 1185 792 532 198 1351
360 2205 437 99 9 225 20 280 25 129 11 413 5 635 -15z"/>
<path d="M5155 9060 c-454 -39 -865 -346 -1090 -815 -70 -147 -146 -383 -144
-450 0 -11 11 25 24 80 107 456 391 848 753 1038 157 82 351 137 483 137 32 0
61 5 64 10 3 6 5 9 3 9 -2 -1 -43 -5 -93 -9z"/>
<path d="M9435 9024 c-439 -121 -810 -499 -971 -991 -43 -131 -74 -286 -79
-393 l-4 -85 9 83 c78 734 560 1308 1180 1405 18 3 15 4 -10 5 -19 0 -75 -11
-125 -24z"/>
<path d="M10136 8986 c332 -121 605 -376 783 -732 75 -150 156 -412 162 -524
1 -18 3 -20 6 -7 6 25 -22 163 -58 280 -145 472 -477 843 -887 991 -40 14 -79
26 -85 26 -7 -1 29 -16 79 -34z"/>
<path d="M5180 8744 c-14 -2 -56 -9 -95 -15 -442 -71 -814 -492 -905 -1024
-102 -598 174 -1208 653 -1440 380 -183 797 -113 1114 188 485 461 546 1304
134 1855 -159 211 -383 363 -616 415 -72 17 -240 29 -285 21z m-205 -439 c122
-58 234 -207 264 -353 53 -254 -60 -513 -266 -613 -62 -31 -76 -34 -163 -34
-88 0 -101 3 -164 34 -170 84 -276 269 -276 483 0 237 132 440 327 502 77 25
204 16 278 -19z"/>
<path d="M9622 8740 c-220 -31 -403 -123 -579 -294 -367 -353 -497 -939 -323
-1457 66 -200 156 -353 287 -490 126 -132 229 -204 380 -264 124 -51 220 -69
358 -68 199 0 368 53 539 167 442 294 654 911 511 1487 -91 366 -322 671 -620
819 -169 84 -386 123 -553 100z m-157 -439 c338 -167 367 -713 49 -931 -285
-197 -654 50 -658 440 -1 161 44 285 141 390 98 106 180 141 314 137 74 -3 96
-8 154 -36z"/>
<path d="M11091 7260 c-6 -156 -84 -428 -177 -613 -106 -213 -295 -440 -464
-559 -187 -131 -393 -208 -603 -227 -73 -7 -81 -9 -37 -10 122 -2 303 45 455
118 382 186 673 566 789 1029 31 122 49 240 43 272 -3 20 -5 17 -6 -10z"/>
<path d="M6601 7217 c-3 -61 -44 -237 -81 -348 -172 -516 -560 -891 -1025
-989 -49 -10 -79 -19 -65 -19 14 -1 61 8 106 19 448 107 837 495 997 995 42
129 80 307 74 344 -4 26 -4 26 -6 -2z"/>
<path d="M3911 7172 c-2 -40 40 -212 75 -316 137 -396 401 -713 732 -880 95
-48 262 -103 332 -110 54 -6 54 -6 -15 10 -270 60 -487 183 -682 387 -206 216
-353 503 -418 817 -13 63 -24 105 -24 92z"/>
<path d="M8421 7039 c-2 -31 60 -221 103 -318 182 -414 519 -726 899 -831 39
-11 78 -20 87 -19 8 0 -23 11 -70 24 -466 128 -836 525 -990 1060 -16 55 -29
93 -29 84z"/>
<path d="M7219 6980 c-245 -81 -441 -226 -567 -419 -125 -191 -180 -390 -187
-676 l-4 -160 9 153 c9 163 20 241 51 364 90 358 355 625 732 739 51 15 83 28
72 28 -11 0 -59 -13 -106 -29z"/>
<path d="M8521 5695 c-8 -231 -102 -594 -225 -866 -173 -382 -449 -771 -682
-958 -95 -77 -110 -81 -171 -45 -58 34 -235 210 -327 324 -163 204 -353 525
-449 760 -101 245 -167 514 -190 775 l-4 40 -1 -42 c-3 -64 25 -245 57 -379
121 -496 397 -990 746 -1339 77 -78 149 -141 178 -155 l47 -25 48 25 c27 14
100 78 172 150 363 362 660 908 764 1409 30 142 49 294 43 341 -3 29 -4 26 -6
-15z"/>
</g>
</svg>
