<?xml version="1.0" standalone="no"?>
<!DOCTYPE svg PUBLIC "-//W3C//DTD SVG 20010904//EN"
 "http://www.w3.org/TR/2001/REC-SVG-20010904/DTD/svg10.dtd">
<svg version="1.0" xmlns="http://www.w3.org/2000/svg"
 width="1500.000000pt" height="1500.000000pt" viewBox="0 0 1500.000000 1500.000000"
 preserveAspectRatio="xMidYMid meet">
<metadata>
Created by potrace 1.16, written by Peter Selinger 2001-2019
</metadata>
<g transform="translate(0.000000,1500.000000) scale(0.100000,-0.100000)"
fill="none" stroke="#000000">
<path d="M8145 12339 c-1052 -57 -2011 -315 -2800 -754 -585 -325 -1115 -764
-1329 -1099 -55 -87 -51 -84 55 29 357 383 591 580 985 828 352 221 660 375
1014 507 609 227 1164 346 1920 412 196 17 1039 17 1260 0 503 -39 1036 -104
1495 -182 183 -31 687 -127 720 -136 13 -4 16 -3 10 3 -43 42 -504 152 -945
227 -801 136 -1729 200 -2385 165z"/>
<path d="M9270 11529 c-190 -40 -391 -138 -497 -241 -56 -55 -68 -83 -53 -122
16 -43 37 -47 155 -26 60 11 141 20 181 20 144 0 324 -49 499 -137 127 -64
165 -92 292 -216 108 -105 114 -109 146 -103 57 11 90 64 108 175 53 319 -206
613 -581 660 -111 14 -138 13 -250 -10z"/>
<path d="M6235 11082 c-192 -65 -299 -170 -419 -409 -68 -135 -106 -257 -106
-338 0 -85 11 -105 54 -105 42 0 64 24 132 145 77 137 225 266 368 320 36 13
132 41 213 61 154 37 274 85 307 123 30 33 25 76 -15 117 -72 76 -191 114
-350 114 -87 0 -117 -5 -184 -28z"/>
<path d="M12340 10934 c-588 -73 -1420 -402 -1973 -779 -48 -33 -97 -66 -110
-73 -20 -13 -33 -7 -157 69 -477 291 -956 465 -1480 536 -192 26 -695 26 -895
0 -486 -63 -871 -175 -1247 -362 -272 -136 -441 -255 -633 -449 -144 -144
-238 -264 -357 -454 -88 -141 -201 -360 -244 -472 -15 -41 -28 -76 -29 -77 0
-1 -25 4 -55 12 -71 18 -232 40 -445 60 -93 9 -309 34 -480 55 -595 76 -859
72 -977 -13 -37 -27 -65 -98 -73 -187 -4 -41 -20 -129 -36 -195 -92 -375 -45
-820 130 -1229 170 -395 405 -627 737 -725 156 -46 463 -66 639 -40 171 24
222 23 365 -9 173 -39 285 -51 540 -58 l205 -6 47 -30 c51 -32 109 -91 131
-135 58 -111 51 -348 -19 -662 -76 -338 -274 -941 -494 -1500 -38 -97 -76
-204 -86 -238 l-17 -62 -34 29 c-19 17 -57 42 -86 56 -64 33 -155 36 -214 8
-101 -50 -95 -204 12 -323 21 -23 36 -43 34 -45 -2 -2 -23 -13 -46 -25 -53
-27 -82 -68 -90 -128 -9 -78 11 -129 76 -193 67 -67 145 -107 344 -176 147
-50 167 -62 167 -98 0 -44 33 -118 69 -156 81 -86 199 -70 272 37 30 42 31 43
72 36 23 -5 121 -8 217 -8 196 0 297 17 503 82 310 97 753 312 1083 524 69 44
158 98 198 120 l74 40 143 -15 c339 -35 905 -66 1214 -66 516 0 850 62 1128
207 99 52 198 129 316 246 367 363 625 860 732 1412 24 120 35 294 20 315 -17
25 -81 15 -161 -25 -105 -53 -302 -116 -595 -191 -11 -3 12 14 50 37 307 186
515 437 587 708 27 101 28 282 4 401 -21 97 -65 226 -106 312 -16 32 -26 58
-23 58 13 0 165 -113 242 -180 123 -108 146 -123 170 -111 24 13 66 98 85 174
55 212 53 517 -5 827 -48 257 -164 591 -296 853 l-35 71 58 50 c112 94 450
442 546 561 212 265 365 504 499 780 128 265 189 448 189 566 0 169 -86 249
-274 254 -50 2 -107 1 -126 -1z m227 -168 c24 -21 27 -30 26 -77 -2 -99 -100
-362 -215 -579 -188 -355 -447 -686 -799 -1020 -101 -96 -191 -181 -199 -189
-12 -12 -16 -11 -25 4 -5 10 -58 87 -117 172 -60 85 -108 157 -107 161 0 4 32
27 71 52 152 97 541 433 742 641 69 71 168 182 220 247 144 180 299 427 321
512 10 39 -63 -43 -214 -243 -274 -363 -416 -512 -879 -917 l-297 -261 -24 28
c-197 233 -449 474 -649 621 -39 30 -72 57 -72 61 0 11 279 180 439 266 572
308 1277 537 1673 544 68 1 80 -2 105 -23z m-4032 -216 c546 -61 1149 -286
1590 -593 283 -197 637 -507 801 -702 151 -178 282 -381 405 -627 l60 -121
-67 38 c-327 183 -562 258 -854 271 -308 15 -607 -58 -868 -212 -59 -35 -108
-61 -110 -60 -1 2 18 39 44 82 125 211 185 426 185 669 1 270 -73 484 -233
675 -64 76 -190 176 -279 220 -194 98 -484 120 -733 55 -393 -102 -732 -376
-982 -792 -168 -279 -231 -589 -169 -828 40 -156 157 -329 301 -446 72 -59
222 -159 299 -200 25 -13 45 -26 45 -29 0 -3 -58 -6 -128 -7 -158 -3 -251 -17
-368 -54 -91 -29 -140 -59 -96 -59 11 0 58 9 104 20 129 30 288 43 439 37 195
-9 329 -41 448 -108 30 -17 72 -37 93 -45 35 -12 38 -12 38 6 0 25 -49 62
-145 106 l-80 37 135 18 c431 55 712 198 964 492 51 60 70 73 159 116 389 185
616 240 937 228 273 -10 462 -64 771 -218 l196 -99 40 -102 c126 -320 192
-661 193 -988 0 -120 -13 -283 -25 -317 -2 -7 -33 16 -72 54 -89 86 -213 178
-320 238 -106 60 -133 83 -240 208 -92 106 -148 150 -185 145 -48 -7 -34 -40
92 -215 133 -185 254 -413 309 -580 73 -222 80 -416 22 -575 -72 -194 -242
-387 -487 -550 -71 -49 -135 -88 -141 -88 -6 0 -13 21 -17 47 -8 64 -79 269
-126 369 -100 209 -312 471 -374 462 -41 -6 -31 -25 82 -160 49 -59 133 -208
172 -307 l21 -54 -102 -96 c-226 -212 -433 -344 -679 -431 -139 -50 -226 -67
-397 -80 -145 -10 -173 -15 -173 -31 0 -46 251 -35 472 22 46 11 124 34 175
50 l91 29 74 -19 c112 -30 254 -44 458 -44 324 0 641 52 970 158 61 20 114 34
117 31 9 -9 -47 -257 -83 -362 -108 -323 -297 -643 -615 -1039 -130 -162 -205
-231 -318 -289 -182 -94 -350 -135 -686 -166 -162 -15 -704 -12 -980 5 -132 8
-319 19 -415 25 -96 6 -218 15 -270 21 l-95 10 -165 -87 c-91 -47 -221 -117
-290 -154 -732 -395 -1086 -512 -1472 -485 l-106 7 -7 56 c-8 69 -25 111 -54
137 -33 29 -41 7 -41 -123 0 -139 -13 -194 -52 -227 -34 -29 -92 -33 -125 -10
-38 27 -46 84 -38 272 4 94 4 181 0 192 -11 36 -44 26 -65 -22 -11 -23 -20
-52 -20 -64 0 -30 -22 -39 -110 -47 -210 -20 -425 105 -384 222 24 69 138 87
319 49 66 -14 126 -22 133 -18 20 11 -59 59 -201 122 -100 44 -125 60 -167
106 -78 86 -90 171 -27 201 61 29 125 -14 232 -158 37 -50 72 -89 77 -88 13 5
252 578 353 848 259 693 377 1202 379 1640 l1 185 -29 53 c-28 51 -81 107
-122 130 -27 15 -18 18 61 25 l70 6 36 -47 c92 -119 128 -241 136 -454 12
-323 -37 -520 -327 -1298 -38 -102 -81 -226 -95 -275 -32 -108 -44 -260 -26
-332 38 -152 187 -249 345 -223 137 22 264 105 456 299 153 154 272 301 400
491 423 631 742 1503 869 2374 11 76 22 140 24 142 2 2 57 -39 123 -91 122
-96 198 -145 210 -133 26 27 -53 124 -178 219 -154 115 -301 186 -487 236 -53
13 -122 38 -154 54 -67 34 -77 35 -77 11 0 -40 78 -86 203 -123 l77 -22 -22
-25 c-13 -14 -63 -59 -113 -100 -249 -209 -529 -342 -981 -465 -635 -174
-1132 -192 -1523 -55 -282 98 -436 273 -535 606 l-15 53 52 22 c218 88 494
254 680 409 253 211 357 400 357 651 l0 74 278 10 c451 17 615 7 842 -53 134
-35 203 -45 189 -28 -19 23 -79 57 -139 78 -32 12 -58 24 -59 29 -1 4 31 36
72 72 236 206 496 590 587 865 33 100 38 240 12 326 -38 123 -103 199 -219
258 -125 62 -302 76 -468 37 -116 -27 -283 -110 -398 -197 -266 -200 -496
-521 -568 -794 -31 -115 -31 -290 0 -404 11 -44 20 -81 18 -82 -7 -7 -155 40
-212 66 -33 16 -77 44 -98 62 l-37 33 48 105 c136 296 336 584 562 810 459
459 1159 728 2085 799 134 11 393 6 530 -9z m479 -384 c346 -88 560 -355 607
-757 45 -388 -93 -778 -375 -1062 -253 -255 -606 -399 -1013 -414 l-152 -6
-163 106 c-196 128 -283 200 -362 301 -130 167 -177 295 -177 481 0 161 35
301 119 474 139 287 395 572 653 725 278 166 590 221 863 152z m-2076 -81
c131 -31 216 -95 274 -207 31 -60 33 -68 33 -168 -1 -99 -3 -110 -39 -192 -93
-214 -362 -606 -578 -842 l-53 -59 -140 18 c-101 13 -220 19 -425 21 l-284 2
-14 48 c-7 27 -16 108 -19 179 -4 111 -2 143 16 220 74 309 389 707 696 880
177 100 375 137 533 100z m-2873 -1180 c602 -109 945 -222 1092 -359 32 -30
56 -57 53 -60 -8 -7 -123 20 -474 113 -520 137 -631 153 -898 131 -175 -14
-274 -4 -330 34 -69 46 -41 110 64 148 47 16 74 18 228 14 97 -2 215 -12 265
-21z m-817 -451 c7 -14 28 -67 47 -118 112 -300 414 -698 650 -858 118 -80
252 -113 373 -90 49 9 53 8 56 -12 43 -222 104 -355 227 -498 27 -31 49 -58
49 -61 0 -10 -100 -46 -174 -62 -103 -23 -296 -16 -410 14 -421 112 -703 458
-811 995 -33 164 -45 297 -45 491 0 212 10 262 38 199z m4488 -1111 c42 -21
79 -43 81 -51 7 -17 -29 -262 -68 -462 -88 -453 -239 -934 -426 -1360 -62
-141 -274 -549 -285 -550 -5 0 -8 31 -8 68 0 92 -22 164 -61 196 -76 64 -181
9 -401 -210 l-140 -139 6 50 c32 267 12 339 -98 337 -60 0 -120 -34 -188 -106
l-58 -61 36 85 c242 574 269 1113 69 1391 l-35 48 38 10 c20 5 65 17 99 26
174 44 579 198 778 295 230 113 426 267 520 409 22 33 46 61 52 61 7 0 47 -17
89 -37z m2721 -1563 c19 -65 36 -211 26 -221 -11 -11 -308 -32 -393 -27 l-65
3 72 43 c82 48 203 138 278 206 28 25 54 44 60 42 5 -1 15 -22 22 -46z m-4319
-1335 c2 -1 -21 -36 -51 -78 -48 -67 -115 -212 -103 -224 6 -6 58 75 115 177
23 41 50 86 60 99 l18 23 46 -20 c68 -30 147 -110 182 -183 l30 -61 -45 -40
c-57 -51 -159 -102 -232 -118 -135 -27 -254 39 -288 159 -11 40 -13 172 -4
219 6 28 12 32 58 42 78 16 107 18 161 13 28 -3 51 -6 53 -8z"/>
<path d="M7600 7694 c-88 -15 -153 -39 -182 -65 -17 -16 -29 -32 -26 -34 3 -3
38 2 79 11 108 23 255 29 346 14 264 -42 555 -199 768 -416 90 -91 117 -102
123 -51 5 41 -33 91 -131 174 -286 242 -545 356 -836 367 -64 3 -127 3 -141 0z"/>
<path d="M8189 9807 c-86 -36 -121 -61 -196 -140 -114 -120 -204 -283 -239
-434 -22 -95 -16 -243 13 -298 45 -85 114 -126 223 -133 197 -11 374 121 486
364 55 118 77 229 72 360 -4 102 -7 118 -37 178 -45 93 -88 120 -190 124 -62
2 -87 -2 -132 -21z m179 -141 c31 -97 -71 -316 -148 -316 -29 0 -88 64 -99
107 -20 75 17 150 109 221 35 27 50 32 84 30 38 -3 42 -6 54 -42z"/>
<path d="M6435 9832 c-159 -47 -310 -172 -381 -317 -34 -68 -39 -90 -42 -159
-3 -73 -1 -86 25 -135 52 -100 158 -152 271 -133 93 15 163 55 241 137 125
132 176 259 169 419 -3 83 -7 98 -31 130 -54 70 -143 90 -252 58z m120 -75
c57 -43 -105 -216 -205 -219 -59 -2 -77 40 -39 93 32 45 175 137 215 139 5 0
18 -6 29 -13z"/>
<path d="M1655 8179 c-38 -5 -87 -15 -110 -21 -38 -11 -34 -12 80 -20 377 -23
542 -50 749 -118 65 -22 157 -61 205 -86 47 -26 103 -55 124 -66 50 -27 70
-19 55 22 -28 81 -307 208 -582 266 -137 28 -398 40 -521 23z"/>
<path d="M2615 7464 c-250 -35 -452 -130 -639 -301 -32 -29 -55 -53 -51 -53 4
0 50 26 104 58 247 149 432 212 625 212 97 0 140 11 151 38 11 29 -20 44 -92
47 -37 2 -81 1 -98 -1z"/>
</g>
</svg>
