<?xml version="1.0" standalone="no"?>
<!DOCTYPE svg PUBLIC "-//W3C//DTD SVG 20010904//EN"
 "http://www.w3.org/TR/2001/REC-SVG-20010904/DTD/svg10.dtd">
<svg version="1.0" xmlns="http://www.w3.org/2000/svg"
 width="1500.000000pt" height="1979.000000pt" viewBox="0 0 1500.000000 1979.000000"
 preserveAspectRatio="xMidYMid meet">
<metadata>
Created by potrace 1.16, written by Peter Selinger 2001-2019
</metadata>
<g transform="translate(0.000000,1979.000000) scale(0.100000,-0.100000)"
fill="#000000" stroke="none">
<path d="M4265 19780 c-392 -61 -767 -346 -945 -716 -83 -171 -120 -374 -101
-544 21 -192 77 -317 196 -436 131 -131 263 -186 495 -204 155 -11 212 -34
299 -116 225 -212 442 -657 568 -1164 57 -229 43 -266 -158 -422 -125 -97
-397 -342 -438 -395 -13 -15 -60 -67 -104 -114 -45 -47 -99 -106 -119 -131
-25 -31 -48 -49 -70 -53 -29 -7 -36 -4 -68 32 -19 22 -61 82 -93 134 -122 197
-311 433 -502 625 -440 441 -966 738 -1580 890 -290 72 -489 94 -666 75 -491
-53 -807 -349 -935 -875 -66 -276 -56 -738 26 -1126 126 -598 434 -1163 890
-1633 212 -220 398 -360 615 -467 303 -148 589 -213 945 -214 207 0 181 -4
495 68 61 14 133 26 160 28 49 3 50 2 69 -36 10 -21 25 -86 32 -145 8 -58 39
-243 69 -411 126 -704 170 -974 215 -1340 169 -1379 69 -2690 -305 -3980 -101
-348 -236 -722 -410 -1135 -264 -625 -436 -1142 -526 -1574 -85 -411 -90 -868
-14 -1246 54 -268 126 -478 255 -740 175 -358 394 -663 702 -981 326 -335 657
-583 1028 -769 176 -88 287 -133 506 -205 104 -34 227 -78 274 -97 441 -183
905 -305 1310 -344 142 -13 159 -14 1225 -7 822 5 906 9 1260 58 1184 166
2164 647 2946 1446 532 544 829 1127 921 1809 27 197 29 555 4 760 -65 535
-214 1027 -574 1895 -201 488 -282 707 -386 1054 -350 1163 -476 2372 -375
3601 37 455 114 989 258 1785 38 212 75 420 81 462 14 89 38 135 75 144 16 4
55 -2 98 -14 220 -65 488 -98 722 -89 429 16 751 143 1125 442 370 296 640
603 850 968 295 514 427 1135 380 1782 -29 396 -123 640 -324 841 -266 265
-640 351 -1108 255 -599 -124 -1063 -338 -1513 -697 -269 -215 -586 -576 -778
-886 -44 -70 -126 -159 -144 -157 -5 0 -51 48 -103 105 -162 178 -469 474
-600 578 -224 179 -240 201 -220 307 28 148 127 482 191 642 124 311 325 614
467 706 73 46 126 61 257 72 226 18 341 64 465 188 64 63 86 93 124 173 185
380 65 861 -298 1206 -176 166 -380 276 -601 324 -97 20 -315 15 -408 -10
-195 -53 -362 -186 -445 -352 -54 -109 -72 -180 -79 -310 -12 -236 69 -481
235 -713 53 -73 66 -100 70 -137 4 -45 1 -52 -82 -173 -260 -383 -489 -671
-694 -869 -226 -219 -353 -256 -640 -183 -207 52 -301 66 -487 72 -205 7 -373
-12 -574 -63 -168 -43 -229 -43 -376 -4 -60 16 -173 39 -250 51 -121 18 -168
21 -340 16 -206 -6 -301 -20 -505 -77 -166 -46 -296 -35 -434 38 -87 45 -229
179 -395 372 -196 227 -542 702 -563 772 -16 54 0 96 71 196 112 157 184 326
216 506 72 413 -141 763 -525 860 -79 20 -253 28 -335 16z m403 -1731 c17 -18
54 -66 83 -108 303 -441 578 -772 818 -985 l111 -99 -327 -178 c-181 -98 -330
-179 -333 -179 -3 0 -16 46 -29 103 -34 150 -114 411 -167 545 -113 286 -246
512 -441 751 l-27 33 29 24 c46 37 207 123 231 124 12 0 35 -14 52 -31z m5846
-24 c41 -25 87 -60 100 -78 l25 -32 -24 -30 c-281 -346 -432 -660 -575 -1194
-28 -101 -51 -185 -52 -186 -3 -2 -448 233 -582 307 -33 18 -61 38 -62 43 -1
6 41 48 94 95 223 198 495 524 781 938 62 89 125 169 139 177 38 21 68 13 156
-40z m-9235 -996 c46 -5 143 -23 215 -40 807 -181 1453 -609 1947 -1289 143
-196 189 -308 189 -459 0 -48 -7 -114 -15 -146 -21 -80 -72 -189 -102 -217
l-24 -22 -27 34 c-487 628 -1102 1078 -1667 1220 -411 104 -716 69 -886 -101
-68 -68 -121 -169 -145 -275 -23 -105 -15 -366 16 -509 102 -473 383 -924 819
-1312 329 -294 748 -453 1316 -501 55 -5 132 -7 171 -4 68 4 72 3 92 -23 45
-57 20 -124 -56 -149 -71 -23 -236 -63 -342 -82 -138 -26 -477 -26 -615 0
-444 82 -856 344 -1213 771 -394 470 -626 970 -713 1535 -30 194 -38 582 -15
738 39 264 128 461 274 608 122 123 274 195 482 227 53 9 219 7 299 -4z
m12731 1 c441 -47 699 -321 775 -827 20 -131 23 -440 5 -593 -61 -538 -257
-1036 -592 -1502 -391 -545 -794 -826 -1353 -945 -119 -25 -149 -27 -355 -27
-249 -1 -305 7 -500 70 -121 39 -167 64 -180 99 -10 27 -1 64 21 82 8 6 88 15
178 22 708 48 1176 244 1571 658 218 228 450 590 565 882 105 266 142 596 90
810 -47 196 -180 334 -370 386 -152 41 -421 28 -650 -30 -504 -129 -1094 -532
-1507 -1030 -162 -194 -189 -225 -197 -225 -15 0 -212 348 -218 384 -7 42 17
86 143 276 510 764 1179 1250 1998 1450 257 62 404 78 576 60z m-8020 -351
c16 -23 41 -80 56 -128 55 -183 157 -327 272 -385 29 -15 97 -38 150 -52 193
-50 286 -114 366 -253 49 -86 107 -144 171 -172 82 -36 242 -53 500 -54 376 0
511 30 609 135 25 26 56 71 71 100 35 69 118 156 177 186 25 13 88 33 139 44
137 30 208 67 293 153 80 81 123 154 181 313 39 108 63 144 97 144 81 0 619
-269 635 -317 7 -20 -44 -61 -132 -106 -108 -56 -254 -200 -308 -304 -80 -155
-98 -327 -52 -508 34 -134 237 -725 276 -803 69 -137 200 -211 587 -333 162
-50 290 -76 435 -88 148 -11 241 -1 324 38 123 58 162 118 294 453 41 103 77
188 80 188 10 0 158 -315 204 -436 113 -295 162 -541 172 -849 11 -346 -21
-617 -152 -1320 -84 -447 -115 -641 -115 -719 0 -215 -107 -365 -300 -420 -30
-8 -104 -20 -165 -26 -170 -16 -240 -59 -301 -188 -50 -105 -108 -557 -85
-669 15 -75 52 -136 106 -173 55 -38 222 -101 370 -141 113 -30 144 -46 179
-93 19 -24 21 -44 24 -186 4 -183 -5 -231 -45 -250 -16 -7 -96 -17 -183 -22
-168 -9 -542 -51 -657 -73 -122 -23 -212 -82 -277 -180 -78 -117 -187 -403
-251 -659 -31 -123 -36 -160 -33 -229 4 -103 25 -148 122 -262 51 -58 77 -99
86 -130 7 -25 11 -47 9 -49 -2 -3 -123 22 -269 55 -764 170 -1185 243 -1675
291 -168 16 -759 16 -930 0 -364 -34 -680 -81 -1065 -158 -163 -33 -833 -179
-872 -190 -15 -4 -18 1 -18 30 0 31 10 47 68 109 137 149 176 282 137 472 -23
108 -159 504 -212 615 -81 169 -201 262 -379 295 -123 23 -424 54 -584 61
-176 7 -211 15 -244 55 -25 30 -26 33 -25 196 0 242 0 242 210 298 296 79 438
163 470 277 16 59 -4 437 -30 564 -50 240 -122 297 -460 364 -174 34 -222 52
-255 91 -39 46 -54 101 -92 344 -19 127 -67 408 -104 625 -100 572 -137 800
-154 930 -60 463 1 933 178 1373 92 229 159 347 197 347 4 0 46 -98 93 -217
97 -244 136 -310 217 -365 80 -54 151 -71 294 -70 213 2 454 57 730 165 336
132 340 137 466 499 214 615 234 707 194 900 -40 195 -199 390 -401 491 -28
14 -65 38 -83 53 -25 21 -29 29 -20 40 20 25 189 125 304 181 93 45 324 139
347 142 5 1 21 -18 38 -40z m1765 -8669 c460 -34 908 -103 1620 -251 585 -122
1018 -248 1370 -398 267 -113 518 -231 589 -275 203 -127 308 -277 402 -573
67 -213 155 -448 327 -874 200 -493 266 -672 326 -884 118 -410 169 -780 158
-1143 -12 -395 -94 -697 -309 -1127 -386 -776 -996 -1350 -1813 -1709 -158
-69 -724 -285 -893 -340 -247 -81 -587 -159 -877 -203 -97 -14 -180 -18 -430
-17 -273 0 -324 3 -425 22 -323 60 -286 58 -444 28 -219 -40 -269 -47 -440
-55 -524 -27 -1055 79 -1861 371 -534 194 -992 441 -1360 734 -138 110 -416
387 -521 519 -301 379 -517 817 -644 1310 -60 230 -74 346 -74 590 1 583 156
1140 644 2310 108 259 191 480 249 660 74 232 117 273 466 448 660 329 1372
538 2455 721 555 94 746 118 1085 139 118 8 270 6 400 -3z"/>
<path d="M5937 14068 c-43 -4 -147 -26 -230 -47 -496 -127 -895 -350 -1237
-691 -144 -143 -219 -244 -252 -337 -24 -71 -16 -108 31 -140 66 -45 97 -29
178 94 118 180 254 324 428 453 176 131 342 217 655 343 234 94 322 118 456
124 141 7 230 -11 349 -72 48 -25 96 -45 107 -45 11 0 33 13 49 29 102 102
-75 258 -331 291 -86 11 -96 11 -203 -2z"/>
<path d="M8795 14054 c-131 -27 -264 -111 -280 -177 -9 -35 1 -73 25 -97 39
-39 62 -36 184 26 108 54 121 58 200 62 159 8 512 -85 782 -207 376 -170 665
-409 907 -753 52 -74 79 -88 128 -68 65 27 75 89 33 194 -29 74 -107 170 -251
313 -355 350 -808 591 -1313 698 -140 29 -301 33 -415 9z"/>
<path d="M5970 13289 c-162 -14 -292 -56 -470 -151 -515 -276 -892 -671 -1106
-1160 -65 -149 -84 -225 -84 -338 1 -136 38 -205 133 -245 47 -19 80 -11 112
27 33 39 32 76 -5 141 -56 99 -42 169 79 412 231 467 583 801 1081 1027 137
62 213 78 370 78 199 0 330 -39 431 -129 40 -35 43 -40 32 -63 -10 -23 -19
-26 -95 -32 -209 -18 -370 -98 -535 -267 -158 -161 -261 -339 -329 -565 -39
-129 -46 -344 -15 -465 12 -46 33 -108 48 -138 69 -136 210 -234 369 -255 97
-14 266 40 391 125 223 150 431 432 523 708 151 449 68 854 -223 1091 -118 97
-324 180 -482 195 -117 11 -141 12 -225 4z"/>
<path d="M8771 13290 c-96 -14 -195 -46 -296 -98 -73 -37 -109 -65 -186 -142
-189 -187 -259 -387 -246 -695 17 -399 184 -727 507 -998 277 -231 500 -257
721 -83 70 55 120 131 155 232 53 153 43 424 -22 607 -130 363 -440 638 -821
728 -48 11 -101 24 -118 28 l-30 7 80 63 c167 133 319 172 527 136 124 -21
209 -50 343 -115 340 -164 679 -462 897 -787 114 -171 195 -360 205 -486 6
-63 4 -70 -26 -118 -41 -67 -46 -90 -26 -129 19 -37 76 -65 114 -55 72 18 146
113 157 202 27 216 -154 609 -429 929 -363 423 -778 695 -1157 758 -124 20
-269 27 -349 16z"/>
<path d="M5487 6260 c-325 -51 -603 -195 -807 -418 -38 -42 -87 -108 -107
-147 -31 -60 -37 -82 -41 -150 -3 -64 0 -91 18 -137 29 -79 94 -148 172 -184
60 -28 69 -29 208 -29 160 0 238 12 375 57 197 66 354 165 510 322 190 192
234 329 159 496 -42 93 -122 155 -229 178 -77 16 -194 22 -258 12z"/>
<path d="M9360 6264 c-87 -14 -141 -29 -187 -50 -151 -71 -218 -265 -144 -419
50 -107 145 -218 283 -330 103 -84 214 -147 339 -194 157 -59 249 -75 424 -75
187 -1 236 15 314 99 64 71 86 133 85 242 0 74 -4 89 -38 159 -64 128 -260
309 -446 411 -180 99 -501 179 -630 157z"/>
</g>
</svg>
