<?xml version="1.0" standalone="no"?>
<!DOCTYPE svg PUBLIC "-//W3C//DTD SVG 20010904//EN"
 "http://www.w3.org/TR/2001/REC-SVG-20010904/DTD/svg10.dtd">
<svg version="1.0" xmlns="http://www.w3.org/2000/svg"
 width="1500.000000pt" height="1500.000000pt" viewBox="0 0 1500.000000 1500.000000"
 preserveAspectRatio="xMidYMid meet">
<metadata>
Created by potrace 1.16, written by Peter Selinger 2001-2019
</metadata>
<g transform="translate(0.000000,1500.000000) scale(0.100000,-0.100000)"
fill="none" stroke="#000000">
<path d="M10023 13365 c-1282 -247 -2070 -619 -2733 -1289 -116 -117 -128
-126 -175 -135 -27 -6 -111 -22 -185 -36 -696 -135 -1327 -397 -2065 -858
-468 -292 -791 -527 -985 -713 l-55 -53 -123 84 c-239 162 -396 213 -534 175
-134 -38 -273 -200 -464 -543 -129 -232 -209 -433 -191 -481 10 -24 74 -50
207 -81 63 -15 116 -29 117 -30 2 -1 -4 -33 -12 -73 -30 -142 -45 -326 -45
-542 0 -302 20 -471 85 -725 26 -100 31 -133 22 -142 -7 -7 -156 -80 -332
-163 -570 -269 -826 -419 -967 -566 -72 -76 -92 -122 -96 -229 -5 -111 20
-226 79 -364 23 -53 47 -127 54 -166 7 -38 21 -109 29 -157 45 -247 171 -523
333 -733 190 -245 416 -445 868 -769 346 -247 438 -302 583 -346 40 -12 72
-24 72 -26 0 -2 -9 -26 -20 -54 -25 -63 -27 -105 -4 -96 9 3 17 6 19 6 2 0 20
21 39 46 l35 45 11 -43 c44 -163 139 -328 284 -491 72 -82 120 -119 153 -119
32 0 45 18 40 60 -1 17 -1 32 2 32 2 0 38 -22 80 -49 252 -161 475 -219 810
-209 151 4 182 12 202 49 14 28 -9 62 -73 105 l-45 31 130 12 c209 19 379 55
947 198 740 187 1266 312 1320 315 16 1 259 -169 380 -266 229 -184 352 -366
353 -522 1 -80 -40 -168 -118 -252 -70 -76 -110 -104 -241 -172 -141 -74 -182
-118 -155 -169 26 -48 63 -56 256 -56 229 1 410 28 553 82 32 13 -76 -127
-177 -228 -112 -111 -202 -178 -339 -249 -45 -23 -91 -54 -102 -68 -41 -51
-17 -122 46 -138 45 -11 263 4 379 26 239 46 409 96 523 154 28 14 53 26 56
26 6 0 -32 -110 -79 -230 -52 -132 -118 -260 -179 -349 -42 -63 -51 -83 -51
-119 0 -51 29 -82 76 -82 71 0 274 110 577 312 1009 675 1931 1736 2487 2863
164 333 330 748 409 1025 109 383 196 885 227 1318 15 212 6 768 -15 957 -33
287 -92 602 -142 747 l-25 73 78 71 c212 194 468 522 646 825 72 123 213 403
272 544 223 522 405 1210 405 1526 0 101 -16 127 -103 167 -259 121 -857 122
-1387 2 -313 -71 -551 -161 -912 -343 l-277 -140 -53 17 c-29 9 -89 22 -133
28 -44 6 -86 12 -92 14 -7 2 22 38 66 81 89 88 120 142 128 219 5 49 4 55 -25
83 -36 37 -78 40 -218 16 -169 -30 -341 -100 -549 -223 -55 -33 -102 -58 -104
-56 -2 2 37 68 86 146 216 344 328 588 384 834 31 140 32 343 1 467 -35 141
-73 198 -132 196 -14 0 -103 -16 -197 -34z m166 -159 c7 -8 17 -55 24 -105 33
-262 -64 -569 -323 -1024 -100 -177 -153 -252 -176 -251 -10 1 -105 18 -211
38 -514 96 -928 136 -1411 136 -245 0 -628 -19 -704 -36 -16 -3 -28 -2 -28 3
0 22 184 183 350 305 529 391 1081 638 1825 817 66 16 583 121 636 130 4 1 12
-5 18 -13z m2986 -1265 c50 -11 108 -26 130 -34 38 -13 40 -16 43 -63 8 -115
-50 -413 -140 -729 -175 -617 -430 -1144 -768 -1590 -110 -146 -169 -214 -325
-374 -245 -252 -448 -399 -698 -506 -48 -21 -86 -40 -83 -42 6 -6 122 16 201
38 92 27 269 113 373 182 98 65 85 78 131 -129 28 -131 84 -484 77 -491 -1 -2
-47 4 -102 13 -136 22 -453 29 -600 15 -429 -44 -919 -206 -1329 -439 -168
-96 -460 -302 -438 -309 6 -2 94 23 195 57 374 125 562 172 893 224 560 89
902 94 1275 20 69 -14 129 -29 134 -34 5 -5 11 -61 14 -126 5 -112 4 -117 -14
-110 -58 22 -239 68 -351 87 -171 31 -526 34 -703 6 -371 -58 -731 -182 -1075
-369 -128 -70 -250 -147 -243 -153 2 -2 75 14 163 35 491 118 786 155 1205
154 365 -1 608 -33 885 -116 l110 -33 3 -94 c3 -86 1 -93 -15 -88 -10 2 -58
17 -108 31 -49 15 -155 39 -235 53 -137 25 -163 27 -465 27 -329 0 -485 -12
-745 -60 -136 -25 -320 -84 -320 -104 0 -15 156 -30 412 -40 317 -13 708 -51
774 -77 36 -13 121 -231 154 -391 19 -96 45 -360 36 -369 -3 -3 -40 25 -83 61
-43 36 -82 66 -86 66 -5 0 -5 -46 -2 -102 16 -245 -46 -487 -181 -709 l-36
-60 -35 57 c-39 66 -83 124 -92 124 -3 0 -17 -28 -30 -62 -13 -35 -43 -103
-68 -151 -138 -280 -302 -413 -691 -563 -64 -25 -155 -61 -200 -80 -46 -19
-87 -34 -90 -34 -4 0 -8 53 -9 117 -1 65 -5 129 -8 143 -7 24 -7 24 -32 -15
-44 -70 -163 -319 -169 -354 -6 -28 -3 -38 16 -53 12 -10 31 -18 42 -18 25 0
268 81 528 177 208 76 376 153 440 201 77 57 184 171 222 235 22 37 45 70 50
73 4 3 16 -4 26 -15 47 -56 99 -29 181 93 118 176 228 404 257 534 11 45 22
82 26 82 5 0 8 -6 8 -14 0 -8 12 -28 26 -45 30 -35 72 -41 100 -14 39 39 48
83 52 253 7 279 -23 487 -96 670 -20 51 -26 76 -18 78 14 3 388 -106 398 -116
11 -11 -38 -270 -92 -487 -92 -373 -266 -848 -431 -1178 -72 -143 -274 -494
-387 -672 -509 -802 -1138 -1480 -1912 -2056 -177 -132 -405 -279 -433 -279
-3 0 16 46 43 103 27 57 67 157 90 222 43 124 113 386 124 465 6 44 6 45 -10
22 -23 -31 -115 -102 -184 -140 -79 -45 -185 -87 -306 -121 -113 -33 -363 -86
-370 -79 -2 3 33 34 79 71 253 200 407 461 442 752 l8 60 -60 -57 c-146 -138
-310 -206 -570 -236 -40 -5 -73 -6 -73 -2 0 3 13 13 28 22 48 29 161 145 202
210 120 185 87 390 -98 613 -103 124 -289 266 -524 397 l-111 62 29 12 c43 18
422 90 619 118 384 55 661 75 1153 83 210 3 382 9 382 13 0 8 -160 25 -385 41
-219 15 -873 6 -1070 -15 -220 -24 -460 -60 -741 -111 -498 -91 -643 -122
-1274 -280 -603 -151 -797 -194 -1135 -253 l-160 -28 -50 23 c-28 12 -63 23
-78 23 -63 0 -39 -59 59 -149 l67 -61 -94 0 c-161 0 -336 37 -474 99 -33 15
-139 87 -235 159 -96 73 -180 132 -188 132 -21 0 -26 -29 -15 -89 6 -31 9 -57
8 -59 -2 -2 -33 43 -70 99 -63 95 -212 367 -204 373 2 1 31 10 64 20 33 10 95
32 138 49 42 16 79 28 81 26 2 -2 18 -33 36 -69 57 -113 150 -235 199 -260 22
-11 27 -10 42 9 10 12 21 47 24 79 11 91 33 176 86 340 37 113 56 156 72 166
108 65 348 201 412 234 326 162 747 286 1190 349 100 14 191 18 395 18 359 0
363 -1 808 -160 228 -81 384 -45 423 97 27 102 -16 214 -117 307 -305 279
-965 278 -1681 -3 -283 -110 -476 -206 -1023 -509 -179 -98 -352 -194 -385
-212 -264 -145 -667 -328 -771 -350 -132 -28 -229 18 -473 223 -34 28 -176
137 -314 241 -295 221 -430 335 -584 495 -212 218 -333 407 -426 666 -67 188
-69 178 15 115 40 -30 110 -74 155 -97 71 -35 93 -42 162 -46 l79 -4 53 -77
c80 -116 257 -352 293 -389 35 -38 76 -62 105 -62 34 0 76 46 146 159 37 59
109 160 160 222 75 93 96 114 116 112 13 -1 56 -5 94 -9 51 -5 88 -2 135 10
235 59 512 301 608 529 35 85 38 210 4 278 -86 176 -416 333 -822 394 -207 31
-915 30 -1145 -1 -38 -5 -39 -5 -20 11 33 27 135 76 430 205 154 67 361 161
460 209 174 84 235 120 595 338 91 55 291 167 445 248 547 289 616 330 691
414 l48 53 -34 -7 c-38 -8 -134 -39 -177 -57 l-28 -11 24 -6 24 -7 -26 -17
c-26 -17 -191 -92 -281 -128 l-49 -20 7 23 c24 83 37 142 46 207 6 41 12 77
14 79 3 2 34 -22 71 -53 80 -68 99 -68 132 -5 41 81 162 472 207 671 14 61
-205 313 -518 597 l-139 126 49 44 c61 54 318 256 444 349 463 340 1044 676
1505 868 420 175 904 305 1340 360 245 30 338 36 660 42 438 7 783 -12 1175
-68 172 -24 598 -109 724 -143 l89 -25 66 43 c134 88 373 193 500 221 l33 7
-38 -34 c-53 -46 -149 -120 -272 -208 -56 -41 -99 -77 -95 -81 5 -4 116 -34
248 -67 132 -34 238 -64 236 -69 -3 -4 -68 -62 -145 -129 -162 -139 -262 -242
-344 -352 -53 -71 -127 -201 -151 -264 -6 -15 75 59 192 176 203 202 338 316
534 448 597 400 1283 645 1943 692 138 10 446 -3 535 -23z m-9784 -1605 c162
-70 402 -235 680 -466 160 -133 387 -349 425 -405 l21 -30 -91 -297 c-50 -164
-93 -298 -97 -298 -3 0 -37 28 -75 61 -88 78 -351 277 -486 366 -345 231 -624
368 -893 438 -61 16 -89 28 -87 37 9 37 89 213 129 283 85 149 165 245 262
314 60 42 111 42 212 -3z m-345 -1086 c21 -13 21 -15 7 -54 -8 -23 -26 -88
-40 -146 -33 -142 -43 -419 -19 -557 25 -147 69 -267 138 -382 50 -83 59 -105
47 -112 -8 -4 -33 -20 -57 -34 l-42 -26 -14 33 c-40 95 -89 322 -106 493 -14
131 -13 472 0 655 14 178 13 177 43 158 12 -8 32 -21 43 -28z m173 -134 c12
-21 10 -33 -14 -92 -15 -38 -35 -111 -43 -161 -14 -84 -14 -100 1 -173 42
-213 171 -352 377 -405 36 -10 72 -19 80 -22 13 -4 -68 -52 -275 -164 -49 -27
-93 -49 -96 -49 -12 0 -77 155 -108 255 -62 203 -88 410 -71 570 8 77 53 285
67 308 6 10 67 -38 82 -67z m619 -246 c40 -11 91 -32 112 -45 34 -22 40 -30
40 -60 0 -75 -103 -138 -197 -120 -71 13 -140 61 -169 117 -17 32 -18 91 -3
120 10 19 17 20 78 14 36 -3 99 -15 139 -26z m382 -4257 c0 -8 -59 -277 -67
-303 -2 -8 -33 36 -68 100 -35 63 -63 115 -61 117 6 6 181 92 189 92 4 1 7 -2
7 -6z"/>
<path d="M9319 12675 c-213 -44 -597 -242 -800 -411 -69 -58 -138 -138 -127
-149 2 -2 47 24 99 59 53 35 159 102 237 149 133 80 211 121 482 250 116 56
188 101 173 109 -4 3 -33 -1 -64 -7z"/>
<path d="M9280 12526 c-47 -40 -115 -105 -152 -144 -75 -80 -171 -203 -163
-210 16 -16 332 276 385 355 29 45 38 73 23 73 -5 0 -46 -33 -93 -74z"/>
<path d="M12210 11049 c-41 -11 -129 -46 -195 -78 -223 -108 -432 -263 -734
-544 -267 -248 -420 -422 -465 -531 -15 -35 -8 -30 95 65 293 273 504 452 747
636 284 214 405 285 570 337 126 39 172 32 172 -26 0 -84 -192 -422 -626
-1100 -138 -216 -237 -378 -229 -378 20 0 251 277 438 525 241 321 433 626
508 803 44 105 52 213 18 256 -12 16 -37 35 -55 42 -47 20 -156 16 -244 -7z"/>
<path d="M5774 10442 c-232 -280 -359 -456 -468 -651 -121 -215 -207 -451
-165 -451 26 0 77 79 168 260 110 220 233 424 426 710 144 213 191 290 178
290 -4 0 -67 -71 -139 -158z"/>
<path d="M8485 10544 c-335 -52 -968 -239 -1525 -452 -317 -121 -618 -254
-950 -418 -266 -131 -601 -310 -612 -327 -24 -37 -114 -606 -124 -782 -6 -96
-5 -112 10 -124 33 -27 204 6 566 109 206 60 768 210 782 210 5 0 8 -13 8 -29
0 -50 48 -219 82 -289 90 -184 275 -282 513 -268 118 6 193 25 295 73 128 61
253 203 289 330 l9 31 -81 11 c-171 25 -276 70 -362 157 -30 31 -55 60 -55 65
0 4 15 10 33 13 17 3 75 13 127 21 181 29 265 63 298 118 25 43 48 51 232 76
80 12 203 30 273 41 151 24 465 67 522 72 l40 3 29 -110 c28 -103 30 -121 30
-295 -1 -167 -3 -195 -26 -281 -69 -257 -183 -440 -368 -592 -526 -431 -1241
-421 -1681 24 -179 181 -274 369 -319 634 -10 65 -21 120 -24 122 -10 10 -26
-105 -26 -186 0 -119 27 -220 99 -366 115 -233 301 -419 541 -540 183 -92 382
-132 615 -122 172 8 295 33 437 91 282 115 522 295 658 495 57 85 134 249 160
341 73 261 65 480 -27 773 -5 15 4 17 104 17 l110 0 32 -102 c78 -254 106
-449 98 -686 -14 -388 -141 -673 -380 -853 -273 -205 -834 -336 -1357 -315
-815 33 -1608 339 -1896 731 -26 36 -49 63 -52 61 -9 -10 72 -147 123 -207
185 -220 584 -433 1020 -543 300 -75 584 -109 920 -110 371 0 644 38 920 129
428 140 642 358 745 759 42 164 54 282 47 470 -9 239 -52 426 -139 600 -22 43
-34 76 -26 73 262 -111 399 -157 470 -157 47 0 82 30 96 83 19 67 10 88 -161
378 -203 347 -274 453 -405 619 -160 200 -336 346 -480 396 -67 23 -196 37
-257 28z m176 -153 c163 -62 370 -272 587 -597 74 -111 233 -379 248 -418 4
-10 -34 4 -112 43 -243 119 -342 147 -494 137 -213 -13 -879 -117 -1263 -196
-823 -170 -1805 -499 -2191 -734 -32 -20 -60 -35 -62 -33 -2 2 5 62 16 133 10
71 33 224 50 339 17 116 33 217 36 226 2 8 48 35 102 59 53 24 270 130 482
235 527 261 847 396 1305 551 398 135 773 233 1070 278 60 9 171 -3 226 -23z"/>
<path d="M5163 10008 c-211 -286 -383 -604 -383 -708 0 -98 39 -37 250 384
101 201 181 368 178 372 -4 3 -24 -18 -45 -48z"/>
<path d="M5210 7943 c-209 -109 -398 -220 -570 -334 -190 -126 -427 -304 -502
-377 -46 -45 -85 -108 -74 -119 8 -8 177 105 379 254 92 68 312 219 490 337
310 204 397 268 397 287 0 14 -7 11 -120 -48z"/>
<path d="M11313 4707 c-16 -17 -73 -97 -125 -177 -233 -358 -472 -643 -928
-1105 -319 -324 -408 -420 -398 -431 3 -2 51 31 108 75 407 317 962 939 1236
1386 67 109 149 273 142 281 -3 2 -18 -11 -35 -29z"/>
<path d="M10980 4543 c-45 -49 -188 -220 -316 -381 -263 -328 -313 -387 -450
-534 -102 -109 -130 -145 -121 -155 10 -10 129 82 217 169 240 236 561 633
718 887 28 47 52 89 52 93 0 21 -25 1 -100 -79z"/>
</g>
</svg>
