<?xml version="1.0" standalone="no"?>
<!DOCTYPE svg PUBLIC "-//W3C//DTD SVG 20010904//EN"
 "http://www.w3.org/TR/2001/REC-SVG-20010904/DTD/svg10.dtd">
<svg version="1.0" xmlns="http://www.w3.org/2000/svg"
 width="1500.000000pt" height="1967.000000pt" viewBox="0 0 1500.000000 1967.000000"
 preserveAspectRatio="xMidYMid meet">
<metadata>
Created by potrace 1.16, written by Peter Selinger 2001-2019
</metadata>
<g transform="translate(0.000000,1967.000000) scale(0.100000,-0.100000)"
fill="#000000" stroke="none">
<path d="M3615 19360 c-3 -5 3 -26 14 -47 31 -62 59 -156 66 -227 7 -64 -9
-191 -25 -201 -4 -2 -19 27 -33 66 -37 101 -111 219 -190 305 -38 40 -73 74
-78 74 -23 0 -18 -31 10 -71 103 -141 107 -439 11 -814 -48 -189 -108 -354
-222 -615 -463 -1054 -715 -2151 -779 -3390 -13 -254 -7 -1042 10 -1260 104
-1337 381 -2559 846 -3734 l47 -119 -85 -176 c-47 -97 -97 -203 -110 -236 -75
-181 -142 -413 -172 -595 -35 -209 -25 -630 15 -638 10 -2 34 31 70 97 30 55
58 101 62 101 7 0 -23 -143 -47 -228 -43 -148 -153 -348 -264 -479 -97 -115
-77 -124 65 -32 52 34 97 60 99 57 6 -6 -73 -247 -125 -381 -107 -277 -244
-479 -422 -621 -131 -105 -288 -177 -423 -194 -90 -11 -84 -28 36 -91 108 -57
110 -64 27 -74 -151 -20 -402 -124 -546 -226 -150 -107 -266 -239 -189 -217
128 38 181 47 262 44 l88 -3 -84 -34 c-335 -134 -664 -374 -946 -691 -127
-143 -125 -163 7 -99 l83 40 -86 -90 c-174 -184 -284 -388 -349 -651 -29 -116
-39 -439 -14 -459 13 -11 17 -10 25 10 5 13 14 57 20 98 31 203 146 423 304
582 38 39 70 69 72 67 2 -2 -10 -43 -26 -92 -33 -102 -72 -270 -91 -396 -8
-53 -13 -178 -13 -335 0 -216 3 -267 23 -378 42 -234 93 -400 184 -602 53
-117 166 -315 180 -315 21 0 16 33 -16 131 -61 180 -85 390 -67 568 12 109 48
281 59 281 4 0 25 -53 47 -117 21 -64 74 -187 116 -272 291 -586 794 -1062
1389 -1314 194 -82 473 -164 501 -146 22 13 -1 28 -67 45 -185 48 -371 191
-476 367 -41 68 -90 198 -103 270 l-6 39 67 -74 c424 -461 781 -651 1564 -833
508 -117 1122 -231 1655 -305 809 -114 933 -139 1165 -242 185 -82 242 -104
336 -131 178 -51 256 -62 459 -61 170 0 202 3 302 26 142 34 281 89 401 161
268 159 636 220 1847 307 470 34 576 46 820 95 574 115 1196 375 1489 622 42
35 76 60 76 56 0 -4 -11 -51 -25 -103 -27 -104 -31 -140 -15 -140 35 0 237
124 385 235 129 97 334 294 432 415 136 170 255 379 328 580 41 115 42 103 10
-161 -30 -245 -59 -432 -87 -552 -29 -129 -13 -136 63 -27 353 502 559 1161
547 1753 -2 86 0 157 4 157 7 0 28 -57 63 -172 36 -117 48 -224 42 -362 -6
-142 -30 -242 -88 -366 -37 -79 -43 -110 -20 -110 13 0 112 168 157 266 119
261 174 519 174 811 -1 514 -167 977 -465 1292 l-60 64 75 -6 c284 -24 602
-180 721 -354 17 -24 34 -41 40 -38 45 28 -110 401 -248 595 -88 123 -263 297
-383 382 -183 130 -434 237 -641 274 -131 23 -133 25 -49 41 125 24 119 34
-50 90 -502 164 -924 557 -1132 1053 -37 89 -102 299 -95 307 2 2 23 -20 46
-47 80 -95 268 -217 293 -192 8 8 4 27 -14 69 -99 223 -164 446 -293 1003 -98
424 -154 619 -234 819 l-22 53 55 132 c383 922 685 2063 820 3101 61 469 85
817 93 1335 8 556 -11 925 -72 1445 -106 891 -353 1803 -709 2616 -144 331
-204 500 -250 709 -40 186 -49 269 -43 428 5 165 24 237 78 305 28 35 33 67
10 67 -5 0 -41 -35 -81 -77 -82 -88 -147 -192 -186 -299 -15 -41 -30 -71 -34
-69 -5 3 -14 38 -21 78 -16 97 -1 203 45 310 63 145 30 134 -158 -55 -169
-170 -265 -292 -327 -415 l-42 -81 -51 71 c-56 77 -96 113 -119 104 -12 -5
-13 -13 -6 -44 14 -64 10 -184 -11 -268 -35 -146 -104 -292 -335 -706 -359
-642 -506 -947 -747 -1549 -369 -922 -740 -1964 -1355 -3809 l-298 -893 -70 6
c-38 4 -72 11 -75 16 -4 6 -12 51 -18 101 -27 199 -114 474 -212 669 -143 283
-374 568 -619 760 -113 89 -130 99 -140 82 -6 -9 10 -43 45 -99 56 -90 102
-198 137 -323 18 -64 21 -104 21 -275 1 -213 -6 -264 -61 -438 l-24 -79 -29
39 c-36 48 -111 106 -202 153 l-70 37 -198 589 c-560 1664 -902 2625 -1198
3364 -279 696 -408 967 -800 1670 -297 534 -352 674 -339 879 2 47 6 92 8 100
7 27 -29 22 -65 -9 -19 -17 -53 -59 -75 -92 l-41 -60 -24 54 c-63 137 -211
324 -388 493 -108 101 -130 116 -143 95z m311 -333 c106 -126 182 -249 209
-342 15 -48 37 -56 54 -18 7 15 34 57 59 93 l47 65 6 -110 c12 -204 73 -345
397 -927 193 -346 359 -667 449 -868 370 -823 829 -2075 1544 -4209 127 -380
137 -413 116 -408 -12 2 -74 18 -137 35 -198 52 -399 79 -407 55 -2 -6 37 -33
87 -59 202 -106 357 -270 469 -492 42 -83 92 -220 83 -226 -4 -2 -52 -9 -107
-16 -284 -34 -625 -104 -904 -186 -223 -66 -531 -183 -683 -260 -26 -13 -51
-24 -57 -24 -5 0 -9 228 -9 563 -1 1054 -48 1870 -148 2577 -62 441 -117 695
-224 1030 -416 1304 -675 2375 -767 3170 -12 102 -26 94 -130 -82 -585 -988
-929 -2031 -1052 -3193 -39 -364 -46 -512 -46 -975 1 -547 22 -877 91 -1390
126 -941 419 -2059 757 -2888 l26 -63 -89 -127 c-49 -70 -122 -182 -162 -249
-40 -67 -76 -122 -79 -123 -13 0 -173 434 -287 781 -342 1038 -538 2081 -602
3204 -13 224 -13 873 0 1106 53 943 213 1799 489 2609 85 249 165 457 304 780
151 353 225 593 262 841 19 131 19 302 1 389 -8 36 -13 66 -11 68 4 5 65 -94
94 -154 27 -57 53 -130 65 -186 21 -96 106 86 106 226 0 37 -20 146 -36 200
-8 28 128 -104 222 -217z m7649 173 c-25 -94 -29 -188 -11 -263 19 -80 52
-150 69 -144 7 2 18 23 25 48 29 94 63 174 103 241 22 38 43 68 45 65 2 -2 -1
-28 -6 -58 -16 -80 -13 -280 5 -404 35 -237 113 -484 252 -804 217 -497 348
-869 478 -1346 218 -803 320 -1562 332 -2460 8 -627 -17 -1068 -98 -1685 -131
-1007 -454 -2210 -834 -3104 l-16 -39 -83 169 c-45 93 -113 219 -149 280 -37
61 -67 115 -67 120 0 6 16 50 36 99 47 118 169 453 232 640 446 1318 672 2759
624 3986 -18 461 -49 774 -118 1177 -161 956 -476 1818 -966 2649 -92 156
-112 183 -128 167 -4 -5 -16 -70 -25 -144 -21 -175 -86 -558 -131 -780 -123
-611 -277 -1186 -574 -2145 -131 -422 -133 -429 -165 -580 -113 -525 -188
-1149 -230 -1915 -23 -418 -38 -1197 -30 -1554 6 -264 4 -318 -7 -313 -7 3
-88 39 -180 81 -352 158 -693 266 -1109 351 -134 28 -417 70 -531 80 -43 4
-78 10 -78 14 0 4 148 450 329 991 576 1725 903 2647 1264 3565 266 677 404
967 805 1690 287 518 339 643 351 839 l6 111 36 -50 c20 -28 46 -69 58 -92 12
-24 28 -43 35 -43 8 0 21 23 31 53 40 123 153 285 318 455 61 61 112 111 113
109 2 -2 -3 -27 -11 -57z m-7600 -822 c17 -176 100 -649 169 -966 124 -564
343 -1357 585 -2115 110 -344 165 -586 221 -972 99 -690 145 -1500 149 -2621
l2 -602 -98 -52 c-469 -252 -918 -626 -1241 -1032 -42 -53 -80 -97 -83 -97 -4
-1 -36 77 -72 172 -367 969 -623 2015 -732 2987 -49 448 -59 625 -59 1125 -1
464 5 616 40 945 116 1117 444 2160 967 3070 135 235 131 230 138 230 4 0 10
-33 14 -72z m7451 -86 c951 -1635 1255 -3531 918 -5722 -90 -587 -249 -1245
-451 -1875 -80 -250 -285 -810 -302 -828 -4 -4 -34 30 -66 75 -309 431 -767
828 -1262 1093 l-73 39 0 571 c0 1025 40 1823 126 2495 65 517 116 753 258
1206 323 1031 492 1661 620 2309 41 207 99 554 116 698 7 53 15 97 19 97 3 0
47 -71 97 -158z m-4020 -5355 c225 -234 397 -521 499 -831 42 -127 91 -339 97
-421 l3 -40 -280 4 c-158 1 -369 -3 -485 -10 -113 -7 -225 -13 -248 -14 l-44
0 -33 92 c-85 238 -257 468 -438 588 -31 21 -56 40 -54 42 9 9 231 -42 339
-77 196 -65 327 -149 377 -244 15 -26 31 -49 36 -49 28 -1 93 195 119 358 38
242 21 440 -54 647 -16 44 -41 100 -55 125 -14 25 -25 48 -25 50 0 12 163
-133 246 -220z m684 -1342 c885 -67 1620 -283 2290 -673 595 -346 1084 -861
1388 -1459 177 -350 260 -595 387 -1148 106 -461 179 -725 253 -907 22 -54 36
-98 32 -98 -4 0 -33 17 -66 38 -71 46 -159 139 -210 222 -61 99 -75 76 -45
-74 127 -632 599 -1178 1205 -1392 90 -31 89 -32 -54 -59 -159 -30 -150 -48
30 -64 211 -19 392 -68 575 -155 305 -146 583 -420 735 -726 38 -75 90 -201
90 -216 0 -3 -25 16 -56 41 -123 99 -283 175 -467 221 -117 28 -310 44 -321
25 -5 -7 27 -46 79 -99 168 -170 286 -369 370 -624 113 -344 137 -703 70
-1035 -21 -105 -82 -310 -104 -351 -4 -7 -5 52 -3 130 5 166 -10 264 -63 424
-41 122 -104 254 -121 254 -11 0 -12 -42 -7 -222 14 -520 -80 -951 -307 -1413
-84 -170 -197 -365 -212 -365 -3 0 -2 15 2 32 36 129 119 800 127 1027 6 147
5 153 -13 149 -16 -3 -21 -18 -32 -108 -39 -329 -163 -636 -367 -910 -95 -127
-280 -318 -408 -421 -157 -127 -387 -275 -387 -249 0 6 16 74 35 150 19 76 35
141 35 144 0 4 -9 6 -20 6 -11 0 -20 -4 -20 -9 0 -6 -25 -37 -56 -70 -264
-286 -1014 -604 -1684 -714 -187 -31 -264 -39 -805 -77 -1090 -77 -1481 -146
-1745 -307 -127 -76 -248 -124 -411 -159 -127 -28 -426 -26 -567 4 -146 32
-248 66 -401 134 -301 135 -410 160 -1156 264 -718 99 -1410 230 -1960 371
-616 156 -979 370 -1350 793 -49 55 -95 100 -103 100 -12 0 -14 -12 -9 -68 17
-203 130 -419 288 -551 33 -28 56 -51 50 -51 -20 0 -246 101 -351 157 -482
257 -903 690 -1147 1178 -61 121 -134 302 -164 408 -29 102 -45 100 -81 -9
-61 -189 -80 -462 -44 -663 9 -52 15 -96 12 -98 -7 -8 -99 214 -142 344 -87
265 -120 498 -111 802 8 269 49 495 133 719 53 142 27 142 -120 2 -126 -119
-235 -287 -292 -450 l-23 -65 0 41 c-1 52 24 186 50 277 62 209 179 406 336
563 73 73 203 174 265 205 39 20 51 49 20 49 -10 0 -86 -34 -170 -75 -83 -41
-152 -71 -152 -67 0 13 262 268 345 337 184 153 443 302 665 385 60 22 105 44
105 52 0 25 -93 39 -220 35 -66 -3 -129 -8 -140 -12 -33 -11 74 82 155 136
143 95 305 160 479 193 46 9 100 16 120 16 21 0 46 6 56 14 18 13 17 15 -15
35 -19 12 -68 38 -107 59 -40 20 -73 39 -73 42 0 3 33 14 72 24 148 38 319
144 451 280 168 173 288 404 417 804 70 216 69 231 -13 179 -82 -52 -81 -52
-72 -36 5 8 26 39 46 69 121 178 210 429 225 633 7 83 6 89 -11 85 -12 -2 -44
-47 -84 -118 l-66 -115 -7 45 c-10 69 -9 294 2 395 61 536 368 1196 815 1755
519 649 1186 1105 2010 1375 445 146 979 241 1500 268 188 10 641 5 815 -8z"/>
<path d="M7123 9288 c-6 -7 -95 -188 -198 -403 -103 -214 -189 -392 -191 -394
-7 -8 -12 26 -30 172 -15 127 -20 147 -35 147 -21 0 -21 2 -58 -190 -70 -361
-96 -607 -87 -835 16 -437 97 -823 243 -1153 85 -192 166 -322 189 -300 3 3
29 149 60 324 30 176 58 327 62 337 5 13 27 -26 83 -150 58 -127 80 -168 94
-168 16 0 24 33 67 250 26 138 52 258 56 268 7 18 16 -8 135 -413 31 -102 48
-146 59 -148 21 -4 17 -17 84 328 l58 295 12 -50 c7 -27 52 -229 101 -449 86
-387 100 -433 124 -395 14 22 75 213 103 324 62 248 87 457 86 745 -1 589
-149 1115 -454 1606 -125 202 -132 198 -111 -67 8 -107 15 -210 14 -229 0 -21
-31 74 -79 238 -43 151 -83 279 -89 285 -7 7 -14 8 -21 1 -5 -5 -51 -152 -101
-326 -51 -175 -94 -316 -96 -315 -1 2 -12 149 -24 328 -11 178 -22 330 -24
337 -3 6 -8 12 -13 12 -5 0 -14 -6 -19 -12z m21 -418 c21 -359 25 -400 42
-400 7 0 15 4 18 9 3 5 49 157 101 337 52 181 98 336 101 344 3 8 50 -140 105
-329 54 -189 103 -349 109 -355 29 -29 30 15 10 282 -12 150 -20 283 -18 297
6 49 195 -296 281 -516 249 -629 279 -1341 85 -1981 -18 -60 -35 -108 -38
-108 -3 0 -19 66 -37 148 -94 432 -173 766 -183 776 -8 8 -13 7 -20 -3 -4 -8
-34 -147 -65 -310 -31 -163 -59 -303 -62 -311 -2 -8 -43 116 -91 275 -47 160
-90 293 -96 297 -6 4 -15 3 -19 -1 -5 -5 -33 -132 -63 -281 -30 -150 -55 -275
-57 -277 -2 -2 -35 66 -74 151 -79 175 -97 206 -111 191 -9 -9 -122 -633 -122
-675 0 -11 -3 -20 -8 -20 -24 0 -145 259 -206 440 -146 437 -198 945 -141
1360 20 148 64 409 72 435 4 12 14 -37 24 -114 10 -73 20 -136 23 -138 16 -17
49 43 221 400 126 261 192 389 197 378 3 -9 14 -144 22 -301z"/>
<path d="M9441 8835 c-138 -31 -255 -81 -376 -160 -70 -46 -234 -206 -292
-285 -193 -266 -338 -645 -419 -1098 -13 -75 -24 -143 -23 -151 0 -9 20 61 45
154 178 687 413 1108 736 1319 107 70 174 100 298 134 84 24 112 27 240 26
127 -1 156 -4 234 -28 220 -66 380 -168 587 -375 148 -148 289 -325 400 -503
30 -47 56 -85 57 -83 7 7 -112 213 -193 335 -155 235 -365 450 -553 567 -86
54 -220 113 -312 138 -89 24 -340 30 -429 10z"/>
<path d="M5025 8699 c-377 -53 -706 -303 -970 -737 -31 -52 -54 -96 -52 -99 3
-2 33 38 67 89 312 465 659 698 1040 698 331 0 639 -197 898 -573 166 -242
265 -498 317 -825 15 -92 21 -112 34 -110 13 3 16 19 14 103 -5 336 -188 763
-457 1066 -262 297 -574 433 -891 388z"/>
<path d="M9565 8359 c-117 -8 -169 -20 -285 -66 -452 -182 -722 -627 -827
-1363 -26 -182 -26 -757 0 -950 43 -315 130 -524 281 -675 112 -111 237 -178
395 -211 84 -17 274 -20 361 -5 30 5 57 7 59 5 2 -2 -21 -28 -50 -59 l-54 -55
-90 15 c-149 25 -405 35 -633 25 -114 -6 -216 -12 -227 -14 -16 -4 -26 7 -52
63 -75 158 -254 276 -528 345 -428 108 -821 104 -1165 -10 -215 -71 -458 -228
-531 -342 -13 -21 -17 -22 -77 -12 -35 6 -119 12 -188 13 -68 1 -124 4 -124 7
0 3 12 13 28 22 99 59 280 280 365 445 156 302 222 699 186 1120 -35 421 -173
859 -358 1135 -168 250 -414 413 -726 479 -89 19 -342 16 -438 -5 -272 -60
-497 -186 -707 -396 -127 -127 -202 -227 -290 -383 -295 -531 -400 -1082 -299
-1580 11 -54 31 -128 44 -164 14 -36 24 -67 23 -68 -2 -1 -31 -9 -66 -18 -63
-17 -205 -77 -199 -83 2 -2 35 7 74 20 106 36 205 50 348 50 303 0 568 -107
793 -319 l82 -77 -6 49 c-4 26 -16 79 -29 116 l-22 68 30 -7 c98 -21 281 -113
394 -198 69 -52 190 -176 229 -236 41 -61 41 -39 1 27 -31 50 -34 58 -19 61
18 3 287 -59 332 -76 28 -11 28 -11 -70 -37 -36 -9 -112 -39 -169 -66 l-103
-49 -147 44 c-431 131 -858 208 -1431 258 -175 16 -1016 16 -1135 1 -62 -8
-17 -9 205 -5 825 14 1689 -91 2348 -285 l122 -36 -83 -78 c-66 -61 -132 -141
-163 -197 -2 -2 -76 12 -166 32 -559 120 -969 164 -1448 153 -411 -10 -737
-55 -1026 -142 -123 -38 -278 -95 -272 -100 2 -2 51 12 108 31 585 196 1343
233 2160 108 146 -22 610 -111 617 -117 1 -2 -9 -36 -23 -76 -14 -41 -31 -114
-37 -163 l-11 -89 -216 7 c-505 15 -944 -60 -1345 -231 -135 -57 -276 -132
-373 -197 -79 -54 -267 -202 -278 -220 -4 -7 30 18 77 54 447 348 994 530
1669 554 96 4 241 4 321 -1 l146 -7 17 -91 c9 -51 19 -105 23 -121 3 -18 2
-27 -4 -23 -5 3 -40 11 -77 17 -84 13 -170 0 -239 -38 -49 -26 -100 -77 -95
-94 2 -5 50 -28 108 -51 395 -159 938 -637 1404 -1237 102 -131 273 -383 346
-510 58 -99 150 -288 185 -375 238 -608 462 -910 740 -998 140 -44 348 -20
514 58 217 103 385 294 606 690 67 119 275 536 275 551 0 11 228 458 295 579
333 595 664 1047 915 1248 77 62 198 127 236 127 12 0 27 6 33 14 9 10 0 24
-41 63 -70 66 -130 99 -216 121 l-72 18 31 30 30 29 262 -1 c289 -1 434 -15
677 -64 441 -89 808 -259 1140 -527 l55 -45 -54 51 c-240 230 -622 428 -1026
531 -269 69 -594 105 -875 99 -83 -2 -150 -3 -150 -2 0 1 12 25 27 55 40 80
44 212 8 299 -5 14 11 20 107 38 945 176 1780 154 2428 -63 57 -19 106 -34
108 -32 5 6 -154 65 -273 101 -187 56 -396 95 -685 127 -181 20 -756 17 -965
-5 -207 -22 -463 -59 -621 -91 -66 -13 -119 -23 -119 -22 0 0 -18 27 -39 59
-52 77 -129 145 -207 184 -39 20 -58 34 -49 37 44 16 264 69 390 95 586 121
1242 179 1880 169 223 -4 268 -3 205 5 -44 6 -287 11 -545 11 -475 0 -612 -7
-960 -50 -331 -41 -744 -123 -980 -195 -56 -17 -71 -18 -112 -7 -26 6 -48 15
-48 19 0 4 49 53 110 110 281 262 577 464 912 623 179 85 434 185 475 186 7 0
-2 -24 -22 -55 -19 -30 -35 -58 -35 -62 0 -5 12 -16 27 -25 l27 -16 77 72
c108 103 211 161 369 207 100 29 106 27 65 -27 -20 -26 -42 -58 -49 -73 -11
-21 -66 -184 -66 -195 0 -2 35 31 78 73 86 85 185 143 312 182 62 20 97 24
200 24 130 0 216 -18 315 -67 37 -18 38 -18 17 0 -36 28 -157 72 -247 89 -155
30 -346 -1 -482 -76 -61 -34 -67 -28 -20 16 45 44 109 74 170 82 50 6 52 7 55
38 3 30 1 32 -35 35 -75 6 -259 -11 -333 -31 -41 -11 -78 -21 -81 -21 -3 0 -9
75 -12 168 -17 462 -128 899 -316 1244 -175 321 -443 591 -725 732 -231 116
-446 161 -691 145z m298 -54 c413 -72 793 -354 1046 -776 209 -350 331 -804
348 -1296 l6 -181 -72 -36 c-70 -36 -71 -36 -55 -11 l16 25 -29 -6 -30 -6 -6
131 c-20 389 -96 692 -252 1006 -156 313 -348 539 -606 713 -107 72 -269 148
-386 179 -85 23 -117 27 -248 27 -135 0 -159 -3 -239 -28 -50 -15 -129 -47
-177 -72 -281 -145 -497 -425 -625 -808 -24 -72 -43 -127 -44 -122 0 5 11 64
25 132 71 351 232 678 424 862 144 137 342 243 511 272 79 14 303 11 393 -5z
m-4583 -70 c376 -57 651 -268 841 -647 109 -217 184 -450 230 -713 30 -165 37
-517 14 -699 -9 -76 -19 -146 -23 -156 -4 -11 -7 79 -7 198 0 226 -8 306 -52
516 -50 241 -141 510 -226 666 -341 629 -877 830 -1447 545 -508 -254 -826
-741 -930 -1425 -22 -139 -40 -424 -34 -520 9 -140 10 -180 3 -173 -4 5 -17
53 -29 108 -27 130 -37 389 -21 540 54 499 282 1025 582 1340 241 251 489 380
829 429 61 8 183 5 270 -9z m4477 -210 c412 -78 806 -412 1041 -880 152 -303
231 -622 248 -998 l7 -142 -94 -29 c-112 -35 -326 -119 -426 -169 -40 -19 -73
-32 -73 -28 0 4 11 40 25 80 13 40 36 123 49 184 172 776 -150 1584 -724 1820
-220 90 -469 79 -685 -30 -89 -45 -142 -82 -235 -163 -72 -62 -74 -63 -40 -20
117 150 293 279 470 344 124 46 295 58 437 31z m-4456 -14 c151 -39 292 -115
414 -226 l50 -45 -95 44 c-138 64 -211 80 -360 79 -138 0 -226 -18 -341 -71
-474 -214 -786 -866 -731 -1528 19 -226 77 -465 148 -606 13 -26 24 -49 24
-51 0 -11 -95 6 -157 27 -135 47 -217 60 -385 59 l-156 0 -6 41 c-73 499 38
1155 260 1540 182 316 453 556 777 688 167 68 403 89 558 49z m4393 -211 c233
-59 444 -235 602 -502 139 -236 207 -511 207 -838 0 -221 -21 -358 -84 -544
-66 -197 -67 -199 -194 -276 -199 -120 -377 -256 -551 -423 l-105 -100 -77 -5
c-256 -14 -551 162 -735 439 -150 228 -232 476 -258 785 -28 333 52 701 209
971 166 284 416 471 687 514 71 11 212 2 299 -21z m-4189 -55 c194 -51 388
-192 529 -385 64 -87 87 -135 136 -280 105 -313 162 -663 140 -857 -47 -421
-221 -773 -490 -986 -72 -57 -236 -147 -269 -147 -9 0 -85 16 -170 36 -141 33
-156 38 -179 67 -138 172 -357 307 -599 370 l-88 23 -42 80 c-52 98 -105 257
-135 406 -20 99 -23 141 -22 348 0 205 3 248 23 340 118 553 450 937 866 1004
56 9 240 -3 300 -19z m3068 -2030 c73 -169 169 -310 301 -439 92 -90 88 -95
-15 -25 -76 51 -165 150 -218 244 -43 75 -103 235 -115 305 -7 40 -5 37 47
-85z m-1008 -276 c122 -13 315 -53 417 -85 253 -80 398 -198 449 -366 54 -176
-24 -337 -185 -387 -34 -11 -122 -24 -196 -31 -294 -25 -375 -65 -493 -240
-44 -66 -106 -129 -152 -153 -30 -16 -57 -21 -110 -21 -139 0 -259 84 -381
269 -46 69 -65 89 -80 87 -188 -34 -345 16 -479 152 -89 90 -126 157 -133 241
-4 52 -1 72 17 109 42 87 184 197 366 286 278 135 594 181 960 139z m-1425
-427 l45 -7 -3 -65 c-5 -84 21 -155 89 -244 120 -159 295 -244 481 -233 l87 4
50 -76 c175 -269 423 -354 601 -205 17 15 61 66 96 114 121 165 181 201 370
220 283 28 323 37 408 97 83 58 133 175 123 285 -5 53 -3 58 16 63 51 12 445
21 596 13 145 -7 307 -27 365 -44 13 -4 -34 -26 -140 -63 -205 -74 -371 -145
-548 -233 -149 -74 -333 -176 -340 -187 -3 -4 95 43 217 104 237 119 484 221
741 305 l159 51 58 -21 c86 -33 177 -100 231 -172 27 -35 48 -65 48 -68 0 -3
-89 -27 -197 -54 -350 -85 -703 -193 -1076 -331 -86 -32 -156 -59 -154 -61 1
-2 104 31 227 72 227 76 496 156 714 214 205 55 500 120 507 112 32 -36 38
-192 11 -257 -41 -96 -48 -103 -126 -110 -305 -27 -622 -86 -926 -171 -152
-43 -403 -124 -398 -129 2 -2 64 14 138 36 354 105 769 189 1060 214 36 3 85
8 110 11 l45 4 -44 -39 c-25 -22 -41 -44 -37 -50 4 -6 31 -11 61 -11 75 0 171
-33 238 -80 58 -42 70 -60 41 -60 -34 0 -157 -75 -246 -150 -351 -294 -857
-1074 -1228 -1890 -90 -198 -236 -482 -318 -617 -230 -380 -435 -547 -734
-599 -105 -18 -172 -14 -269 15 -136 42 -284 169 -396 339 -84 127 -207 373
-289 577 -38 94 -90 213 -117 265 -321 630 -990 1392 -1550 1764 -92 61 -301
176 -321 176 -2 0 -17 5 -32 10 -25 10 -26 11 -10 29 10 11 41 29 69 42 65 28
175 30 265 4 34 -10 65 -15 69 -12 3 4 -3 35 -15 70 -25 75 -47 195 -38 204 7
8 245 -21 406 -48 242 -41 496 -101 735 -173 82 -25 151 -43 153 -41 12 12
-508 166 -713 210 -196 43 -514 95 -577 95 -17 0 -2 145 23 220 28 85 36 100
57 100 57 0 656 -171 976 -279 99 -34 181 -59 183 -57 14 13 -691 249 -962
322 -99 26 -183 50 -187 54 -14 11 112 157 182 213 l69 55 43 -13 c214 -65
578 -221 838 -360 123 -65 106 -47 -25 27 -156 89 -434 221 -600 286 -88 35
-171 68 -185 74 -24 10 -21 13 58 50 97 46 242 85 362 98 85 9 295 4 380 -8z"/>
<path d="M9435 7330 c-83 -12 -98 -19 -91 -43 26 -97 9 -227 -46 -337 -42 -85
-171 -216 -250 -254 -45 -22 -68 -27 -114 -25 -54 3 -59 1 -65 -22 -16 -57
-10 -102 19 -132 24 -25 27 -36 27 -97 0 -56 -4 -74 -23 -100 -27 -37 -25 -66
15 -195 79 -251 248 -444 442 -506 133 -42 299 -22 416 52 345 215 480 778
294 1225 -121 291 -379 470 -624 434z"/>
<path d="M5205 7267 c-33 -9 -49 -18 -47 -27 12 -52 13 -149 3 -202 -22 -110
-74 -203 -165 -294 -99 -98 -155 -128 -246 -130 l-65 -1 -8 -62 c-8 -59 -8
-63 17 -82 51 -40 56 -137 10 -205 -23 -34 -23 -36 -9 -102 78 -368 331 -622
620 -622 147 0 261 53 387 180 76 77 93 101 142 201 62 129 89 223 107 370 49
423 -164 851 -478 960 -73 25 -201 33 -268 16z"/>
<path d="M7245 3608 c-2 -7 -11 -42 -20 -78 -50 -198 -200 -372 -408 -475
-181 -89 -420 -124 -657 -95 -141 17 -144 17 -147 0 -2 -9 20 -28 58 -50 76
-43 240 -211 329 -337 193 -273 348 -586 480 -967 109 -316 220 -476 388 -558
62 -31 73 -33 172 -33 102 0 108 1 185 39 64 31 97 56 165 125 108 110 143
171 269 466 123 288 278 606 356 730 121 193 250 342 405 471 44 36 80 70 80
76 0 12 -27 9 -194 -26 -623 -130 -1119 72 -1359 554 -29 58 -57 120 -64 138
-11 32 -30 42 -38 20z m165 -338 c61 -83 196 -212 273 -263 134 -89 312 -154
484 -177 122 -17 386 -7 511 18 50 10 92 18 92 17 0 -2 -41 -42 -91 -91 -162
-158 -302 -360 -438 -632 l-72 -143 -35 70 c-42 84 -111 158 -175 189 -144 69
-343 45 -447 -54 -38 -37 -47 -42 -55 -29 -21 38 -70 83 -119 111 -50 27 -60
29 -163 29 -98 0 -116 -3 -166 -26 -31 -15 -75 -43 -98 -64 -45 -41 -105 -152
-116 -215 l-7 -41 -92 183 c-153 304 -315 540 -478 694 l-74 71 127 -5 c272
-10 497 48 685 175 124 85 248 246 291 380 l17 53 48 -91 c26 -50 70 -122 98
-159z m-128 -1002 c56 -16 133 -88 154 -143 18 -48 39 -58 49 -24 10 32 74 98
114 119 55 27 148 43 214 36 153 -16 269 -119 317 -281 11 -39 9 -45 -90 -275
-132 -307 -144 -331 -213 -422 -68 -90 -137 -149 -227 -192 -59 -28 -74 -31
-165 -31 -91 0 -105 3 -154 29 -109 57 -228 200 -294 351 -51 118 -167 452
-167 481 0 16 7 56 15 87 48 183 160 275 339 276 38 1 87 -4 108 -11z"/>
<path d="M7199 6020 c-313 -30 -583 -145 -759 -324 -76 -78 -71 -88 8 -15 147
134 347 230 574 274 116 23 362 31 484 15 273 -34 479 -126 661 -295 65 -60
73 -64 87 -49 15 14 15 18 -1 46 -10 17 -51 61 -90 98 -81 76 -200 143 -329
185 -167 55 -446 83 -635 65z"/>
<path d="M7305 5794 c-233 -35 -472 -123 -693 -255 -103 -62 -97 -57 -89 -65
3 -3 32 10 64 29 162 97 375 181 564 222 310 67 626 20 882 -130 78 -46 97
-49 97 -17 0 23 -111 96 -203 134 -140 60 -246 80 -427 83 -91 2 -178 1 -195
-1z"/>
</g>
</svg>
