<?xml version="1.0" standalone="no"?>
<!DOCTYPE svg PUBLIC "-//W3C//DTD SVG 20010904//EN"
 "http://www.w3.org/TR/2001/REC-SVG-20010904/DTD/svg10.dtd">
<svg version="1.0" xmlns="http://www.w3.org/2000/svg"
 width="1500.000000pt" height="1500.000000pt" viewBox="0 0 1500.000000 1500.000000"
 preserveAspectRatio="xMidYMid meet">
<metadata>
Created by potrace 1.16, written by Peter Selinger 2001-2019
</metadata>
<g transform="translate(0.000000,1500.000000) scale(0.100000,-0.100000)"
fill="#000000" stroke="none">
<path d="M7755 13935 c-337 -77 -616 -330 -766 -692 l-40 -98 5 140 c3 77 14
196 25 265 11 68 18 126 16 128 -10 10 -120 -52 -163 -92 -85 -79 -123 -171
-161 -385 -12 -63 -26 -120 -32 -127 -12 -15 -18 -17 -226 -75 -173 -48 -145
-53 -263 46 -315 263 -757 344 -1150 211 -337 -116 -623 -365 -815 -709 l-38
-69 -47 144 c-81 244 -177 407 -326 549 -118 112 -233 180 -389 229 -90 28
-294 39 -398 20 -339 -60 -616 -319 -709 -665 -92 -344 7 -746 256 -1036 111
-130 229 -214 441 -315 195 -92 382 -148 540 -160 44 -3 85 -7 91 -9 14 -4
-216 -458 -296 -585 -217 -347 -362 -540 -565 -755 -140 -149 -182 -201 -277
-340 -292 -426 -459 -864 -535 -1395 -26 -183 -26 -795 0 -995 62 -474 177
-865 363 -1237 35 -70 64 -141 64 -157 0 -15 -11 -82 -25 -147 -45 -218 -55
-573 -24 -864 106 -1011 762 -1993 1789 -2677 934 -623 1892 -944 3055 -1024
219 -15 758 -6 955 16 909 100 1764 385 2509 834 963 581 1650 1361 1926 2187
102 304 144 565 152 934 6 271 -3 430 -32 591 -34 185 -37 160 53 342 184 368
310 835 357 1327 19 195 19 572 0 756 -64 608 -291 1181 -641 1619 -44 55
-144 166 -222 247 -129 133 -242 280 -242 314 0 7 -66 111 -146 231 -81 120
-174 261 -207 313 -75 118 -259 474 -250 483 3 4 34 7 67 7 331 0 738 182 999
446 211 213 307 456 307 778 0 260 -71 456 -234 649 -97 115 -267 224 -418
268 -105 30 -288 37 -398 15 -336 -68 -574 -251 -715 -547 -38 -83 -125 -342
-125 -376 0 -29 -18 -7 -71 85 -159 274 -366 482 -599 601 -463 237 -956 186
-1339 -140 -116 -99 -104 -93 -148 -66 -52 32 -157 74 -235 92 -49 11 -247 34
-300 35 -25 0 15 37 217 197 l225 178 -39 17 c-84 38 -161 51 -266 45 -217
-12 -450 -115 -660 -293 l-70 -59 36 50 c20 28 100 145 177 260 140 210 246
344 318 402 22 17 36 35 32 39 -15 14 -310 14 -373 -1z m-4500 -810 c196 -42
402 -208 520 -420 47 -83 98 -226 120 -335 9 -47 30 -110 46 -140 16 -30 29
-68 29 -85 0 -56 -86 -380 -101 -380 -14 0 -131 267 -220 505 -59 157 -115
273 -165 341 -55 75 -170 176 -240 210 -223 110 -445 -63 -444 -346 1 -178
121 -405 284 -535 146 -115 322 -185 586 -229 l165 -29 -2 -38 c-3 -47 -29
-84 -69 -98 -42 -14 -266 8 -394 39 -537 131 -849 485 -827 939 10 214 81 360
238 487 92 75 234 127 354 128 28 0 81 -6 120 -14z m8700 0 c205 -43 397 -220
467 -430 19 -59 23 -90 23 -205 -1 -185 -34 -305 -124 -443 -154 -235 -464
-425 -789 -483 -125 -22 -322 -30 -351 -15 -19 11 -78 118 -69 126 2 1 94 21
206 44 249 51 313 71 424 128 155 79 279 204 364 365 99 190 106 316 25 476
-84 166 -245 204 -447 107 -142 -68 -240 -221 -354 -550 -45 -129 -174 -405
-215 -462 -13 -17 -14 -17 -23 7 -5 14 -29 107 -53 206 l-43 181 89 219 c141
353 205 467 315 567 95 86 218 143 358 167 73 12 121 11 197 -5z m-6322 -129
c168 -50 318 -145 460 -294 130 -138 180 -231 267 -500 47 -144 69 -187 85
-170 3 3 15 84 27 181 13 98 25 177 28 177 3 0 24 -44 47 -98 61 -142 77 -235
70 -406 -7 -187 -33 -262 -121 -345 -20 -19 -36 -38 -36 -41 0 -4 69 14 153
40 540 167 1056 187 1549 60 114 -29 314 -97 373 -128 l29 -15 -33 39 c-58 69
-121 172 -149 241 -24 63 -27 79 -27 213 0 112 5 159 19 205 26 86 107 256
120 252 10 -3 18 -41 61 -279 10 -54 21 -98 26 -98 12 0 25 34 60 165 77 285
184 466 356 606 189 151 449 239 673 226 298 -18 645 -242 850 -549 112 -168
144 -243 276 -654 142 -442 193 -573 337 -863 157 -314 201 -378 388 -561 81
-80 162 -162 180 -183 l33 -39 -40 17 c-199 86 -342 134 -491 164 -127 26
-213 27 -242 4 -19 -16 -20 -22 -11 -50 13 -36 34 -51 105 -78 68 -25 284
-133 391 -196 574 -337 905 -735 1110 -1333 75 -219 125 -440 156 -696 17
-141 17 -676 0 -839 -60 -560 -226 -1075 -505 -1571 -456 -810 -1090 -1433
-1891 -1862 -548 -293 -1341 -564 -1950 -668 -324 -54 -458 -65 -846 -65 -560
0 -924 46 -1420 180 -471 126 -1195 423 -1569 642 -482 282 -924 668 -1323
1154 -277 338 -468 670 -659 1147 -148 369 -230 705 -265 1087 -22 238 -15
703 14 896 83 545 261 993 531 1329 70 87 229 248 319 322 172 141 429 298
667 406 226 102 239 109 258 141 l18 30 -28 14 c-24 13 -44 13 -138 1 -175
-21 -259 -41 -440 -103 -93 -32 -178 -62 -187 -66 -34 -14 -18 14 34 62 284
261 340 342 599 863 143 289 193 381 204 376 17 -6 16 -12 44 191 105 756 518
1250 1126 1347 74 11 241 -3 328 -28z m-2734 -8157 c233 -332 361 -489 546
-674 205 -206 408 -367 716 -571 835 -551 1857 -909 2899 -1016 190 -19 691
-16 870 5 294 36 918 149 1173 213 326 82 877 297 1217 476 592 311 1189 771
1492 1151 72 90 180 249 412 606 86 132 96 127 66 -41 -83 -476 -196 -764
-446 -1139 -352 -527 -844 -977 -1447 -1323 -715 -410 -1504 -675 -2263 -760
-751 -84 -1651 14 -2431 265 -740 238 -1513 697 -2023 1200 -499 493 -844
1101 -959 1694 -17 88 -34 170 -36 183 -3 12 -2 22 2 22 5 0 100 -131 212
-291z"/>
<path d="M5137 12675 c-206 -39 -397 -158 -512 -320 -93 -129 -171 -330 -194
-499 -14 -96 -14 -308 -1 -399 12 -84 35 -128 97 -191 150 -151 389 -229 607
-200 26 4 45 12 43 17 -2 6 -43 18 -93 28 -350 67 -488 239 -471 584 6 127 31
223 84 328 82 165 185 275 311 335 179 85 353 82 539 -10 70 -34 106 -60 174
-128 74 -73 93 -99 132 -180 46 -96 73 -192 101 -353 25 -143 0 -252 -78 -336
-17 -19 -24 -32 -16 -29 110 40 161 72 184 116 44 85 65 366 37 497 -65 309
-259 574 -503 684 -136 62 -299 83 -441 56z"/>
<path d="M9575 12675 c-189 -41 -363 -155 -484 -315 -149 -198 -207 -409 -200
-726 4 -136 6 -156 25 -181 20 -26 118 -72 130 -61 3 3 0 34 -5 69 -19 117 42
423 117 582 71 152 155 244 282 311 95 50 171 69 275 70 170 0 300 -58 428
-194 87 -92 134 -163 173 -258 50 -124 59 -177 59 -347 0 -204 -15 -247 -114
-345 -59 -58 -82 -73 -218 -135 -139 -63 -189 -97 -130 -89 322 46 458 104
603 256 l61 64 7 134 c25 478 -126 840 -436 1046 -174 116 -387 160 -573 119z"/>
<path d="M5362 12263 c45 -49 71 -112 76 -190 4 -60 1 -79 -18 -118 -36 -74
-130 -133 -215 -134 -114 -2 -225 118 -242 261 l-6 52 -54 -59 c-97 -107 -152
-261 -139 -393 13 -131 96 -293 198 -387 102 -95 210 -133 399 -142 129 -6
193 4 274 45 129 64 162 108 225 292 81 236 37 436 -134 605 -89 89 -155 128
-281 169 -103 34 -116 33 -83 -1z m217 -624 c33 -31 43 -65 31 -109 -26 -95
-151 -109 -215 -24 -30 40 -12 100 41 135 40 26 113 26 143 -2z"/>
<path d="M9515 12271 c-147 -43 -247 -125 -308 -252 -55 -115 -88 -239 -94
-354 -7 -123 9 -193 70 -308 37 -72 50 -87 105 -124 95 -64 152 -78 307 -77
217 2 341 49 464 179 164 173 205 416 107 631 -25 54 -104 164 -118 164 -5 0
-8 -11 -8 -24 0 -13 -9 -53 -20 -88 -32 -104 -111 -169 -223 -184 -126 -18
-257 102 -257 233 0 40 32 131 64 182 l26 41 -27 -1 c-16 0 -55 -8 -88 -18z
m46 -606 c37 -20 69 -70 69 -110 -1 -95 -117 -150 -190 -89 -61 52 -75 112
-38 159 40 51 105 67 159 40z"/>
<path d="M7325 11423 c-340 -14 -767 -99 -1143 -227 -276 -95 -448 -176 -581
-275 l-54 -40 -136 6 c-361 16 -666 -103 -926 -362 -154 -153 -234 -269 -447
-654 -65 -119 -129 -227 -141 -240 -28 -30 -77 -51 -120 -51 -128 0 -460 -97
-657 -192 -92 -44 -116 -62 -190 -137 -63 -63 -94 -104 -119 -155 -85 -179
-93 -359 -23 -511 l29 -60 6 120 c17 310 127 527 348 690 212 156 437 191 688
108 71 -24 261 -113 289 -135 24 -20 13 11 -17 44 -35 41 -51 71 -51 96 0 30
58 198 90 262 47 94 180 250 194 228 1 -2 15 -45 30 -97 56 -192 102 -251 273
-349 129 -73 206 -103 288 -109 l60 -4 -70 33 c-38 19 -101 47 -140 62 -38 16
-88 36 -110 45 -100 41 -159 130 -174 265 -25 220 41 428 179 565 111 110 302
210 473 247 93 20 280 20 372 0 291 -63 514 -228 693 -511 85 -135 89 -137
113 -42 35 140 -53 359 -204 510 -65 65 -168 135 -260 177 l-61 27 42 27 c175
110 678 235 1202 297 222 26 618 36 797 20 336 -31 686 -110 1078 -245 251
-86 255 -87 255 -95 0 -4 -24 -18 -52 -32 -203 -93 -385 -278 -446 -453 -21
-60 -24 -84 -20 -166 3 -81 7 -100 29 -132 l25 -37 50 101 c55 115 127 210
235 314 124 118 234 184 386 231 80 24 103 27 248 27 173 0 239 -11 363 -61
244 -97 425 -309 476 -555 19 -91 20 -129 5 -200 -40 -188 -187 -313 -449
-384 -99 -26 -99 -37 0 -31 112 8 226 45 327 107 124 77 175 151 237 349 15
46 30 90 35 99 6 11 30 -18 94 -114 47 -71 107 -169 134 -219 43 -81 48 -96
48 -155 0 -46 -5 -74 -18 -93 -9 -15 -15 -27 -13 -27 2 0 45 20 95 45 276 137
480 149 696 40 158 -79 299 -218 384 -376 66 -123 83 -193 90 -369 l6 -155 26
45 c15 25 32 63 39 85 17 51 17 212 0 290 -50 239 -256 447 -537 544 -81 27
-133 39 -277 61 -146 23 -227 59 -286 128 -22 26 -82 117 -133 202 -115 192
-174 280 -297 445 -183 245 -337 384 -525 476 -143 69 -234 89 -431 94 -205 5
-249 16 -445 115 -286 145 -503 228 -779 299 -377 98 -793 141 -1195 124z"/>
<path d="M4280 11250 c35 -121 160 -240 318 -303 42 -17 152 -24 152 -9 0 4
-46 31 -103 61 -148 78 -233 137 -309 213 -58 59 -65 64 -58 38z"/>
<path d="M10626 11180 c-105 -95 -193 -148 -328 -195 -43 -15 -78 -32 -78 -36
0 -14 99 -10 169 6 91 22 171 68 236 136 49 51 115 163 103 174 -2 3 -48 -36
-102 -85z"/>
<path d="M6633 10791 c-70 -18 -125 -67 -139 -123 -5 -23 0 -34 28 -62 75 -75
225 -75 306 1 30 28 34 37 28 65 -9 47 -31 75 -75 98 -47 23 -104 32 -148 21z"/>
<path d="M8315 10791 c-77 -19 -155 -89 -155 -140 0 -56 84 -102 190 -104 51
-1 74 4 101 20 109 68 112 155 6 208 -51 25 -87 29 -142 16z"/>
<path d="M5180 10299 c-74 -12 -171 -61 -209 -105 -17 -19 -44 -61 -60 -92
-94 -187 -41 -336 170 -475 117 -78 281 -115 425 -97 109 14 139 24 259 85 59
31 110 53 112 51 3 -3 -6 -57 -20 -120 -23 -107 -23 -116 -8 -116 83 0 105
247 41 441 -63 190 -226 353 -410 410 -75 24 -219 32 -300 18z"/>
<path d="M9576 10294 c-111 -27 -184 -70 -282 -169 -76 -75 -99 -106 -132
-176 -22 -46 -45 -108 -51 -137 -14 -66 -14 -235 -1 -283 9 -32 60 -95 60 -73
0 5 -7 56 -15 114 -7 57 -13 105 -12 106 1 1 31 -15 66 -37 215 -130 489 -140
727 -24 153 74 217 171 217 330 0 179 -98 303 -278 350 -73 19 -219 18 -299
-1z"/>
<path d="M9618 9180 c-111 -33 -171 -130 -117 -189 98 -105 322 11 269 140
-21 50 -82 70 -152 49z"/>
<path d="M5303 9165 c-13 -9 -28 -33 -34 -54 -34 -115 128 -218 232 -148 63
42 64 107 3 162 -56 52 -156 71 -201 40z"/>
<path d="M11340 9129 c-214 -19 -348 -116 -484 -351 l-28 -47 94 43 c155 73
273 106 386 106 l62 0 -6 -27 c-9 -36 -52 -139 -97 -233 -191 -401 -526 -705
-922 -838 -169 -57 -270 -73 -500 -79 -198 -5 -223 -3 -430 26 -218 32 -622
110 -908 176 -356 82 -633 115 -961 115 -376 0 -621 -35 -1302 -185 -160 -36
-345 -74 -410 -85 -642 -111 -1164 -34 -1569 231 -102 66 -294 258 -363 364
-100 150 -222 426 -222 501 l0 34 53 0 c104 0 236 -45 368 -126 33 -20 62 -35
64 -32 2 2 -6 30 -17 63 -52 154 -186 281 -347 329 -71 21 -274 22 -351 1
-102 -27 -218 -93 -294 -170 -79 -78 -118 -142 -141 -230 -49 -190 34 -418
193 -527 36 -25 44 -27 37 -12 -49 113 -69 193 -69 284 0 101 12 139 72 218
24 32 106 98 130 104 7 2 27 -40 51 -107 21 -60 82 -203 135 -317 204 -440
246 -622 391 -1663 138 -995 200 -1284 340 -1605 247 -565 710 -1028 1330
-1330 361 -176 771 -291 1320 -369 860 -123 1944 65 2635 457 634 359 1052
880 1245 1552 89 308 149 659 245 1430 71 572 198 1209 269 1347 16 32 65 125
109 207 45 82 102 201 128 265 26 64 50 119 54 124 11 12 113 -88 147 -144 68
-114 78 -239 28 -362 -13 -33 -22 -63 -20 -65 3 -3 33 25 69 60 150 154 181
338 90 529 -115 241 -333 362 -604 338z m-7168 -1435 c112 -67 145 -97 158
-144 6 -19 51 -265 100 -547 98 -555 142 -783 190 -968 118 -452 304 -812 560
-1079 184 -192 371 -326 645 -461 378 -187 740 -284 1285 -347 178 -20 737
-17 920 6 1066 131 1773 544 2129 1245 155 306 294 797 386 1366 52 325 126
767 132 792 8 37 51 71 154 123 86 43 99 47 99 31 0 -11 -16 -131 -35 -268
-19 -136 -50 -367 -70 -513 -160 -1200 -285 -1641 -588 -2088 -260 -384 -668
-703 -1162 -907 -583 -242 -1350 -334 -2082 -250 -531 62 -945 183 -1318 387
-669 366 -1074 870 -1248 1553 -89 350 -185 889 -303 1709 -53 375 -58 416
-49 416 2 0 46 -25 97 -56z m5098 -228 c353 -64 634 -67 883 -11 56 13 103 22
105 20 6 -6 -91 -181 -134 -241 -92 -130 -189 -192 -353 -226 -189 -39 -325
-10 -435 92 -74 70 -105 123 -151 265 -40 122 -41 128 -17 121 9 -3 55 -12
102 -20z m-3420 -33 c-1 -188 -130 -355 -319 -413 -77 -24 -239 -27 -321 -5
-136 36 -268 135 -355 264 -43 65 -100 180 -92 187 1 2 28 -3 59 -12 234 -61
593 -59 893 5 138 29 135 30 135 -26z m1037 -758 c114 -22 214 -56 377 -127
111 -49 150 -72 197 -115 l58 -55 33 38 c109 125 221 181 478 238 339 75 589
59 852 -54 155 -67 369 -225 384 -284 7 -29 -49 -319 -92 -471 -81 -286 -266
-532 -514 -679 -197 -117 -487 -220 -765 -271 -120 -23 -477 -31 -616 -16
-466 54 -888 233 -1152 489 -181 176 -260 347 -362 779 -41 174 -46 206 -36
230 10 23 48 46 209 125 246 122 381 166 582 192 68 8 286 -3 367 -19z m2717
-1055 c34 -31 61 -76 115 -186 75 -152 83 -191 56 -243 -15 -30 -476 -444
-500 -449 -38 -9 -24 123 40 383 37 151 113 391 147 462 19 41 56 72 86 73 7
0 32 -18 56 -40z m-4086 14 c36 -25 67 -108 159 -429 68 -238 86 -314 87 -370
1 -59 -2 -70 -15 -69 -27 2 -348 261 -446 360 -68 67 -93 100 -93 118 0 32 46
179 72 231 31 61 74 110 125 144 52 35 78 38 111 15z m623 -842 c311 -128 667
-218 1014 -258 166 -19 548 -21 710 -5 346 35 806 146 1084 261 41 16 75 30
77 30 1 0 8 -25 15 -55 18 -79 2 -97 -137 -158 -338 -147 -650 -209 -1142
-228 -658 -26 -1155 43 -1602 222 -149 59 -173 76 -173 116 0 38 35 124 48
119 6 -2 53 -22 106 -44z"/>
<path d="M4840 9020 c-107 -25 -107 -165 0 -238 30 -20 44 -23 94 -20 53 4 62
8 92 41 40 44 45 94 14 144 -33 55 -128 90 -200 73z"/>
<path d="M10042 8999 c-96 -47 -114 -100 -56 -169 71 -84 168 -80 234 12 54
74 36 147 -43 177 -43 17 -67 13 -135 -20z"/>
<path d="M9388 8720 c-81 -24 -135 -86 -123 -140 13 -60 112 -118 182 -107 83
14 148 94 133 163 -11 46 -34 72 -79 84 -42 12 -75 12 -113 0z"/>
<path d="M5501 8686 c-83 -46 -60 -164 43 -215 44 -22 53 -23 95 -12 58 14
111 68 111 110 0 38 -43 89 -95 112 -47 22 -120 24 -154 5z"/>
<path d="M4901 8491 c-61 -32 -77 -90 -41 -149 49 -80 192 -83 259 -6 34 39
38 61 16 103 -32 63 -161 91 -234 52z"/>
<path d="M9967 8500 c-143 -36 -135 -171 14 -219 132 -42 264 125 159 200 -30
22 -121 31 -173 19z"/>
<path d="M9605 13831 c-152 -44 -245 -138 -245 -249 l0 -38 73 19 c105 28 298
34 411 13 112 -22 225 -57 340 -108 50 -22 96 -42 103 -45 16 -6 -7 79 -38
144 -32 64 -140 171 -214 210 -133 70 -302 91 -430 54z"/>
<path d="M5205 13830 c-181 -27 -352 -124 -436 -246 -29 -42 -48 -88 -63 -146
-9 -38 7 -37 102 11 94 47 219 92 327 117 112 26 330 25 434 -3 l73 -20 -6 39
c-4 22 -17 61 -30 86 -47 91 -123 141 -246 161 -72 12 -82 12 -155 1z"/>
</g>
</svg>
