<?xml version="1.0" standalone="no"?>
<!DOCTYPE svg PUBLIC "-//W3C//DTD SVG 20010904//EN"
 "http://www.w3.org/TR/2001/REC-SVG-20010904/DTD/svg10.dtd">
<svg version="1.0" xmlns="http://www.w3.org/2000/svg"
 width="1500.000000pt" height="1500.000000pt" viewBox="0 0 1500.000000 1500.000000"
 preserveAspectRatio="xMidYMid meet">
<metadata>
Created by potrace 1.16, written by Peter Selinger 2001-2019
</metadata>
<g transform="translate(0.000000,1500.000000) scale(0.100000,-0.100000)"
fill="#000000" stroke="none">
<path d="M2680 14549 c-95 -26 -219 -84 -312 -146 -449 -301 -895 -1163 -1104
-2133 -232 -1081 -130 -2096 305 -3022 211 -450 549 -909 894 -1217 64 -57
117 -105 117 -106 0 -1 -15 -36 -34 -76 -111 -245 -222 -554 -281 -786 -37
-144 -89 -402 -83 -408 9 -10 113 71 193 149 48 46 84 77 81 69 -16 -41 -58
-225 -72 -311 -35 -226 -28 -564 16 -810 21 -115 68 -292 95 -357 l17 -39 13
30 c7 17 32 62 56 100 31 49 45 63 46 49 37 -360 96 -582 233 -870 90 -190
195 -353 310 -480 45 -50 50 -53 54 -32 3 12 12 67 22 122 9 55 18 104 21 108
2 4 47 -77 98 -180 205 -412 463 -729 752 -924 41 -28 77 -49 79 -46 3 3 8 73
12 157 l7 153 75 -99 c84 -112 307 -340 420 -430 117 -94 264 -195 399 -275
l124 -74 57 -120 c31 -66 98 -203 148 -305 53 -108 119 -262 157 -370 128
-359 210 -531 336 -701 289 -391 709 -631 1254 -715 152 -23 470 -23 620 0
470 73 841 253 1111 539 209 221 341 463 485 884 38 114 93 251 120 303 106
204 141 280 178 385 l39 110 158 88 c369 205 649 421 835 645 40 48 78 93 84
100 14 16 4 -75 -24 -213 -10 -49 -18 -91 -16 -92 1 -2 35 20 76 48 296 204
623 620 815 1036 29 64 56 110 58 102 17 -48 46 -168 46 -191 0 -16 4 -28 9
-28 12 0 183 250 271 395 175 291 282 582 311 845 19 171 16 169 83 57 33 -54
62 -94 66 -90 8 9 72 239 89 318 40 194 48 516 17 730 -20 140 -59 321 -86
400 -10 30 -18 55 -17 55 1 0 47 -44 102 -98 55 -54 115 -108 133 -121 l33
-23 -7 44 c-27 188 -91 464 -151 658 -37 118 -134 367 -196 502 l-36 77 42 34
c23 19 98 90 166 158 702 701 1133 1607 1235 2594 81 790 -47 1644 -366 2440
-80 201 -228 500 -326 663 -312 514 -658 761 -1037 739 -544 -33 -1411 -670
-2021 -1487 -246 -328 -463 -705 -624 -1080 -35 -80 -64 -147 -66 -149 -2 -2
-58 8 -125 23 -220 49 -329 58 -599 53 -187 -4 -274 -10 -369 -26 -235 -41
-469 -103 -683 -183 l-107 -40 -183 61 c-229 75 -328 103 -493 135 -368 73
-766 75 -1100 6 -180 -38 -153 -48 -204 82 -141 360 -363 765 -599 1092 -552
766 -1354 1404 -1912 1521 -101 21 -248 18 -340 -6z m332 -245 c84 -21 207
-75 351 -154 319 -173 598 -390 899 -696 169 -172 267 -286 413 -479 197 -262
332 -479 475 -764 74 -148 190 -425 190 -453 0 -7 -62 -42 -137 -78 -246 -116
-477 -261 -667 -418 -50 -42 -161 -145 -247 -229 -85 -84 -158 -153 -162 -153
-4 0 -7 15 -7 33 0 41 -42 311 -70 447 -102 496 -305 955 -589 1334 -344 458
-794 816 -1253 996 -60 24 -108 46 -108 50 0 21 175 245 249 320 96 96 177
155 285 206 133 63 238 74 378 38z m9332 -28 c105 -40 221 -123 327 -233 102
-107 239 -298 223 -312 -5 -4 -52 -25 -104 -45 -131 -52 -357 -170 -476 -249
-235 -157 -537 -435 -717 -662 -390 -490 -620 -1042 -697 -1669 -12 -94 -23
-186 -26 -205 l-5 -34 -127 128 c-244 245 -515 453 -787 603 -92 50 -246 121
-317 145 -15 5 -10 23 42 142 265 605 612 1116 1061 1564 464 462 878 740
1254 842 103 27 256 21 349 -15z m-10047 -752 c166 -82 373 -215 528 -338 157
-125 406 -381 522 -536 255 -342 425 -701 538 -1133 61 -237 112 -548 116
-713 l2 -82 -55 -78 c-30 -44 -95 -135 -145 -204 -216 -300 -378 -615 -608
-1185 -51 -126 -104 -263 -119 -302 l-28 -73 -99 51 c-215 110 -432 272 -624
464 -497 498 -813 1176 -885 1904 -17 173 -12 451 10 628 67 520 299 1209 560
1660 l30 53 53 -21 c28 -11 120 -54 204 -95z m10687 73 c59 -77 255 -520 343
-772 95 -276 202 -722 235 -980 16 -127 16 -461 -1 -585 -109 -840 -568 -1665
-1167 -2096 -121 -87 -460 -253 -477 -233 -3 2 -28 69 -57 149 -235 654 -453
1078 -793 1544 l-79 109 11 146 c91 1146 664 2064 1621 2597 111 61 307 154
327 154 7 0 23 -15 37 -33z m-6484 -1927 c244 -26 479 -81 730 -173 254 -92
299 -91 570 13 373 144 799 200 1182 155 864 -101 1656 -693 2214 -1657 84
-145 227 -438 292 -598 28 -69 96 -251 152 -405 136 -371 198 -515 345 -795
176 -336 245 -478 303 -620 51 -126 122 -325 122 -340 0 -5 -33 16 -72 46 -66
50 -257 152 -317 169 l-25 7 22 -33 c55 -84 141 -256 194 -385 85 -210 138
-404 173 -630 18 -116 31 -423 21 -479 l-8 -39 -47 91 c-58 111 -111 183 -215
291 -71 73 -213 192 -230 192 -4 0 7 -24 24 -52 150 -257 216 -467 227 -724
13 -295 -64 -593 -235 -913 -68 -127 -80 -135 -81 -53 -1 47 -29 176 -53 247
-29 85 -78 179 -136 260 -57 81 -147 180 -137 150 53 -150 67 -197 81 -272 23
-121 23 -287 0 -388 -55 -238 -175 -493 -367 -775 -73 -109 -202 -272 -218
-278 -5 -1 -11 62 -14 140 -7 169 -31 292 -92 474 -40 122 -137 344 -149 344
-3 0 -2 -10 3 -23 5 -12 19 -72 32 -132 31 -145 33 -385 6 -485 -77 -274 -316
-575 -667 -839 -112 -85 -308 -211 -326 -211 -6 0 -5 42 3 103 17 149 15 246
-8 492 -35 371 -18 552 72 773 66 162 184 336 333 490 115 120 196 182 480
372 337 225 510 372 665 563 245 302 355 613 418 1177 26 241 24 693 -6 912
-34 256 -100 498 -176 648 -47 91 -55 90 -29 -3 120 -427 147 -1034 73 -1617
-74 -583 -208 -885 -532 -1196 -137 -133 -243 -214 -506 -388 -238 -157 -355
-250 -476 -377 -230 -241 -393 -552 -437 -831 -7 -43 -15 -78 -18 -78 -3 0
-16 28 -29 62 -34 88 -162 345 -228 458 -130 221 -290 437 -508 685 -156 177
-285 342 -378 481 -285 430 -459 900 -507 1379 -6 60 -13 111 -15 113 -10 10
-17 -174 -12 -313 15 -419 138 -812 358 -1150 85 -131 151 -217 359 -470 418
-508 560 -722 714 -1080 190 -443 235 -790 155 -1190 -131 -658 -489 -1071
-1003 -1160 -166 -28 -276 -18 -598 55 -119 28 -261 55 -315 62 -54 7 -101 17
-105 23 -4 5 -8 40 -8 77 0 62 2 68 23 72 12 3 64 12 115 21 269 46 479 162
691 380 185 191 310 402 371 625 21 78 47 142 80 200 120 212 135 266 135 495
0 125 -5 193 -18 255 -59 283 -190 557 -400 835 -135 179 -364 413 -587 599
-150 125 -158 123 -33 -9 341 -364 596 -714 738 -1012 132 -276 193 -555 167
-771 -12 -105 -51 -248 -67 -246 -6 0 -23 24 -39 53 -40 74 -136 173 -225 232
-315 209 -773 310 -1216 269 -382 -36 -656 -139 -849 -321 -88 -83 -136 -154
-171 -251 l-22 -62 -17 71 c-38 169 -49 274 -43 433 4 131 10 173 36 273 90
342 321 725 669 1111 232 257 282 316 268 316 -20 0 -242 -195 -397 -350 -393
-391 -582 -695 -681 -1095 -19 -79 -22 -116 -22 -310 0 -214 1 -223 31 -335
79 -297 258 -664 428 -875 227 -284 496 -447 848 -514 l90 -17 4 -76 5 -76
-59 -7 c-121 -13 -203 -28 -353 -65 -231 -58 -310 -70 -440 -70 -172 0 -317
34 -465 110 -402 207 -680 656 -736 1190 -15 141 -6 433 16 580 78 501 284
874 841 1522 84 97 187 223 230 279 373 493 564 1069 528 1596 l-8 118 -21
-155 c-92 -654 -320 -1150 -790 -1720 -421 -510 -513 -630 -627 -822 -86 -146
-138 -257 -199 -422 l-47 -129 -12 74 c-44 272 -121 483 -244 669 -129 193
-243 294 -636 562 -294 201 -382 269 -521 408 -359 355 -559 859 -601 1513
-24 373 26 827 136 1229 37 134 30 134 -39 -3 -84 -166 -149 -401 -188 -684
-31 -226 -30 -649 1 -865 56 -380 172 -701 349 -970 186 -282 391 -471 778
-720 226 -146 366 -253 470 -361 196 -203 291 -391 342 -674 12 -71 16 -185
19 -550 2 -253 8 -490 12 -527 5 -38 5 -68 1 -68 -13 0 -242 155 -339 230
-113 87 -322 293 -408 403 -150 190 -269 404 -293 525 -12 64 -8 257 7 297 5
15 4 17 -5 9 -16 -15 -76 -165 -105 -266 -28 -97 -54 -260 -57 -358 -5 -125
-6 -125 -80 -30 -268 345 -406 585 -521 907 -41 115 -42 121 -42 243 0 139 18
211 95 380 l39 85 -46 -50 c-100 -111 -196 -279 -243 -425 -25 -77 -51 -194
-51 -232 0 -52 -17 -37 -67 60 -169 326 -254 725 -223 1047 26 271 102 516
217 698 13 21 22 41 20 43 -3 3 -38 -22 -78 -55 -117 -93 -212 -213 -333 -416
l-71 -120 -8 75 c-13 115 -1 378 24 520 40 234 103 421 244 718 42 90 75 166
72 168 -9 10 -92 -18 -157 -52 -36 -19 -101 -61 -145 -93 -44 -33 -81 -58 -83
-57 -1 2 14 47 33 101 110 304 248 598 374 798 172 273 209 350 336 712 323
921 647 1496 1110 1974 362 373 731 614 1145 749 165 54 317 84 530 105 78 8
331 6 420 -3z m-5079 -917 c6 -16 30 -94 55 -174 229 -757 777 -1438 1427
-1774 53 -27 97 -56 97 -62 0 -20 -57 -158 -109 -262 -35 -72 -170 -296 -197
-330 -6 -7 -148 129 -248 237 -447 483 -762 1061 -927 1701 -33 128 -93 449
-103 551 -4 36 -9 82 -12 103 -7 44 2 49 17 10z m12159 -110 c-14 -116 -66
-378 -109 -550 -174 -688 -540 -1322 -1059 -1836 l-119 -119 -25 44 c-92 157
-288 563 -288 595 0 4 36 23 80 41 43 19 137 67 207 108 586 342 1045 950
1274 1686 23 76 44 136 47 134 2 -2 -2 -48 -8 -103z m-5745 -6833 c285 -60
562 -191 678 -320 98 -109 103 -258 15 -467 -32 -76 -48 -92 -48 -48 0 63 -63
139 -145 177 -44 20 -65 23 -170 23 -100 -1 -129 -5 -177 -23 -112 -45 -179
-119 -186 -207 -4 -45 0 -61 22 -98 70 -121 271 -175 443 -119 l63 20 -33 -46
c-93 -131 -279 -278 -423 -333 -138 -54 -236 -73 -379 -73 -312 -1 -558 122
-766 380 -27 34 -49 64 -49 67 0 2 19 -5 43 -17 35 -18 60 -21 152 -21 100 0
116 3 170 28 102 48 145 102 145 182 0 91 -51 157 -160 209 -56 26 -79 31
-167 34 -79 3 -115 0 -159 -14 -80 -25 -137 -81 -159 -156 -9 -32 -18 -58 -20
-58 -2 0 -23 35 -48 78 -61 106 -82 171 -82 262 1 63 6 86 31 140 112 238 416
375 934 424 110 10 376 -3 475 -24z m452 -804 c35 -18 53 -59 36 -84 -28 -45
-164 -77 -261 -62 -102 17 -144 76 -84 119 70 50 238 65 309 27z m-1350 -11
c60 -18 103 -49 103 -75 0 -51 -164 -76 -301 -46 -102 23 -109 28 -83 63 49
67 167 92 281 58z m2119 -1380 c-112 -223 -199 -349 -330 -481 -170 -171 -351
-280 -601 -363 -367 -122 -768 -133 -1150 -31 -442 117 -795 398 -989 788 -51
102 -109 242 -103 249 2 2 29 -13 58 -32 114 -76 289 -146 439 -176 83 -17
365 -17 450 0 36 7 139 30 229 52 264 64 327 72 486 66 108 -5 168 -13 265
-37 419 -103 527 -116 750 -85 190 25 366 89 505 184 36 25 62 36 64 29 2 -6
-31 -80 -73 -163z"/>
<path d="M5832 11209 c6 -19 41 -64 77 -100 100 -100 254 -166 324 -140 32 12
42 31 33 66 -22 87 -209 188 -373 202 l-73 6 12 -34z"/>
<path d="M8996 11220 c-192 -52 -335 -188 -258 -247 56 -44 244 35 353 149 49
51 67 87 54 107 -9 16 -71 12 -149 -9z"/>
<path d="M8389 10476 c-111 -48 -162 -89 -208 -166 -27 -46 -27 -85 1 -104 31
-22 44 -20 116 14 87 41 176 112 217 173 42 62 44 90 10 105 -38 17 -52 15
-136 -22z"/>
<path d="M6476 10476 c-9 -38 35 -116 97 -172 105 -94 275 -148 292 -93 15 47
-5 91 -69 153 -76 75 -175 126 -256 133 -55 5 -57 5 -64 -21z"/>
<path d="M8120 9650 c-146 -76 -281 -236 -240 -285 47 -57 257 56 339 183 42
66 41 99 -4 118 -41 17 -29 19 -95 -16z"/>
<path d="M6791 9642 c-19 -46 2 -96 68 -163 67 -67 147 -114 218 -130 87 -20
107 19 54 103 -48 75 -222 203 -293 214 -31 6 -36 3 -47 -24z"/>
<path d="M6938 8814 c-60 -31 -38 -99 58 -177 58 -48 225 -137 255 -137 9 0
24 9 34 20 17 18 16 21 -5 65 -27 55 -122 153 -184 190 -73 43 -126 56 -158
39z"/>
<path d="M7935 8798 c-107 -57 -250 -224 -232 -271 3 -9 18 -19 33 -23 52 -13
247 101 311 183 61 77 65 110 17 131 -39 18 -64 14 -129 -20z"/>
<path d="M5151 8174 c-221 -37 -450 -144 -630 -295 -59 -49 -204 -209 -197
-216 2 -2 34 18 72 43 162 109 395 205 592 245 126 26 371 36 483 20 289 -41
570 -140 778 -275 39 -25 71 -43 71 -39 0 14 -118 149 -188 213 -268 252 -629
363 -981 304z"/>
<path d="M9440 8161 c-160 -35 -290 -91 -425 -180 -79 -52 -233 -201 -285
-276 l-35 -50 46 27 c52 31 264 137 324 163 241 104 540 158 746 135 282 -31
514 -116 748 -273 83 -56 83 -52 -7 55 -162 194 -362 321 -617 390 -106 30
-380 34 -495 9z"/>
<path d="M5300 7457 c-218 -65 -412 -242 -534 -485 -43 -86 -48 -71 78 -257
154 -227 252 -327 391 -396 114 -56 201 -72 355 -65 248 11 605 132 709 240
30 31 33 39 28 75 -7 53 -118 292 -197 425 -221 370 -541 549 -830 463z m-32
-264 c-72 -87 -87 -110 -98 -149 -18 -62 -8 -180 19 -232 55 -108 149 -167
266 -166 94 0 160 30 224 100 90 99 110 227 53 348 -24 51 -27 64 -14 57 34
-19 91 -87 118 -141 24 -48 28 -67 28 -150 1 -86 -2 -101 -30 -160 -38 -80
-101 -145 -174 -179 -48 -23 -68 -26 -155 -26 -94 0 -105 2 -169 34 -141 69
-245 217 -283 403 l-17 88 34 36 c42 43 187 154 202 154 7 0 5 -7 -4 -17z
m801 -399 c59 -138 61 -125 -15 -162 l-67 -33 7 33 c17 85 27 186 22 227 -7
61 6 44 53 -65z"/>
<path d="M9412 7461 c-40 -10 -112 -38 -160 -61 -74 -37 -103 -59 -192 -149
-112 -113 -142 -158 -261 -386 -122 -234 -141 -310 -92 -359 69 -70 258 -156
445 -205 201 -52 423 -55 562 -7 158 54 282 158 439 369 96 129 120 167 137
220 12 37 11 41 -26 94 -52 75 -271 301 -347 359 -171 128 -330 167 -505 125z
m361 -284 c79 -41 151 -111 178 -171 56 -127 -31 -334 -182 -435 -214 -143
-476 -91 -587 117 -39 73 -56 171 -43 250 13 79 24 104 68 153 33 36 103 89
118 89 3 0 -11 -21 -30 -46 -71 -93 -81 -207 -28 -311 67 -133 211 -198 349
-158 137 40 216 145 217 289 0 98 -40 175 -127 238 -51 38 -19 31 67 -15z
m-770 -379 c3 -51 13 -115 22 -141 10 -26 15 -51 12 -54 -3 -3 -36 11 -73 32
-62 35 -66 39 -60 66 9 45 77 199 86 194 4 -2 10 -46 13 -97z"/>
</g>
</svg>
