<?xml version="1.0" standalone="no"?>
<!DOCTYPE svg PUBLIC "-//W3C//DTD SVG 20010904//EN"
 "http://www.w3.org/TR/2001/REC-SVG-20010904/DTD/svg10.dtd">
<svg version="1.0" xmlns="http://www.w3.org/2000/svg"
 width="5715.000000pt" height="4309.000000pt" viewBox="0 0 5715.000000 4309.000000"
 preserveAspectRatio="xMidYMid meet">
<metadata>
Created by potrace 1.16, written by Peter Selinger 2001-2019
</metadata>
<g transform="translate(0.000000,4309.000000) scale(0.100000,-0.100000)"
fill="#000000" stroke="none">
<path d="M47860 42008 c-3 -3 -88 -8 -190 -12 -102 -4 -264 -14 -360 -22 -96
-9 -182 -16 -190 -16 -8 0 -51 -4 -95 -9 -44 -5 -105 -11 -135 -14 -30 -3 -86
-10 -125 -15 -38 -5 -90 -12 -115 -15 -25 -3 -76 -11 -115 -16 -38 -6 -88 -13
-110 -16 -22 -3 -128 -21 -235 -39 -107 -19 -208 -37 -225 -40 -78 -13 -287
-57 -450 -94 -99 -23 -191 -44 -205 -46 -14 -3 -59 -14 -100 -25 -41 -11 -86
-22 -100 -25 -21 -4 -70 -18 -215 -58 -5 -2 -23 -6 -40 -11 -338 -86 -921
-277 -1400 -458 -312 -118 -472 -183 -780 -317 -173 -75 -264 -117 -443 -201
-45 -21 -85 -39 -88 -39 -7 0 -766 -379 -779 -389 -5 -5 -48 -28 -95 -53 -959
-506 -2073 -1219 -3031 -1939 -108 -81 -224 -162 -259 -179 l-63 -32 -121 56
c-161 73 -267 118 -406 172 -63 25 -124 49 -135 55 -52 25 -449 160 -585 199
-41 12 -86 26 -100 31 -114 41 -678 163 -850 184 -25 3 -52 7 -60 10 -8 2 -40
6 -70 9 -69 6 -157 16 -189 21 -14 3 -43 22 -65 43 -23 21 -86 81 -142 133
-533 504 -1367 1089 -2184 1533 -128 70 -590 301 -715 358 -60 28 -138 63
-172 79 -35 15 -102 45 -150 65 -49 20 -107 45 -130 55 -90 40 -429 171 -568
219 -49 17 -110 40 -135 49 -71 29 -547 182 -606 196 -11 2 -73 20 -139 40
-66 19 -129 37 -140 40 -11 2 -47 12 -80 21 -33 9 -68 18 -77 20 -21 5 -51 12
-75 19 -57 15 -302 75 -323 79 -14 3 -65 14 -115 25 -49 11 -126 28 -170 37
-44 8 -98 20 -120 25 -22 5 -53 11 -70 14 -16 3 -102 19 -190 34 -88 16 -173
31 -190 34 -122 20 -228 37 -275 42 -30 4 -57 8 -60 10 -3 2 -34 6 -70 10 -36
3 -76 8 -90 10 -331 45 -619 73 -940 91 -58 3 -110 7 -117 9 -30 10 -556 20
-933 19 -355 -2 -622 -10 -876 -29 -33 -2 -102 -7 -154 -10 -52 -4 -111 -8
-130 -10 -19 -2 -96 -9 -170 -15 -123 -10 -450 -46 -510 -55 -14 -2 -52 -7
-85 -10 -33 -4 -121 -16 -195 -27 -74 -10 -148 -21 -163 -23 -15 -2 -47 -7
-70 -10 -48 -7 -259 -42 -297 -50 -14 -3 -45 -8 -70 -11 -25 -3 -47 -8 -50 -9
-3 -2 -26 -6 -50 -10 -81 -12 -601 -118 -642 -131 -10 -3 -30 -7 -45 -10 -16
-3 -41 -9 -58 -14 -16 -5 -46 -12 -65 -15 -19 -3 -147 -35 -285 -70 -137 -36
-257 -67 -266 -69 -64 -17 -249 -68 -269 -76 -14 -4 -52 -16 -85 -26 -33 -9
-87 -25 -120 -36 -33 -11 -67 -21 -75 -23 -51 -11 -527 -170 -660 -220 -36
-13 -109 -40 -162 -59 -217 -80 -546 -210 -683 -271 -16 -8 -77 -34 -135 -58
-58 -25 -140 -61 -183 -81 -43 -20 -80 -36 -82 -36 -2 0 -84 -38 -181 -85 -97
-47 -179 -85 -183 -85 -3 0 -23 -11 -44 -25 -64 -44 -56 -65 80 -196 364 -349
844 -709 1294 -967 480 -276 895 -464 1442 -652 109 -37 194 -71 189 -74 -5
-3 -40 -8 -78 -11 -59 -5 -145 -15 -254 -31 -14 -1 -50 -6 -80 -9 -54 -6 -220
-31 -270 -40 -14 -3 -45 -8 -70 -11 -25 -3 -52 -7 -60 -9 -8 -3 -33 -7 -55
-10 -39 -6 -191 -33 -230 -41 -11 -3 -58 -11 -104 -20 -46 -8 -87 -16 -90 -18
-4 -3 -27 -7 -51 -11 -25 -3 -71 -12 -103 -20 -32 -8 -71 -17 -85 -20 -142
-25 -665 -157 -832 -210 -245 -78 -413 -135 -507 -171 -61 -24 -118 -44 -126
-44 -7 0 -22 9 -32 20 -10 12 -24 19 -31 16 -7 -3 -14 4 -17 14 -2 10 -39 41
-80 68 -42 28 -118 86 -169 129 -562 478 -1512 1133 -2233 1538 -27 16 -79 45
-115 65 -107 60 -279 155 -380 210 -115 62 -797 402 -895 447 -38 17 -115 53
-170 78 -125 59 -515 227 -615 266 -41 16 -84 34 -95 38 -11 5 -40 18 -65 29
-25 11 -56 23 -70 27 -14 4 -52 19 -85 33 -228 95 -845 311 -1305 456 -141 44
-481 142 -524 150 -11 3 -66 16 -121 31 -143 38 -402 100 -505 121 -14 2 -43
9 -65 14 -113 25 -365 73 -475 90 -132 21 -182 30 -215 36 -22 4 -206 30 -275
39 -25 3 -76 10 -115 15 -38 5 -99 12 -135 15 -36 3 -81 8 -100 10 -109 14
-373 34 -550 42 -213 10 -869 10 -1075 0 -155 -7 -474 -33 -525 -42 -14 -2
-54 -7 -90 -11 -36 -3 -72 -7 -80 -9 -8 -1 -42 -6 -75 -9 -200 -23 -510 -80
-920 -171 -138 -31 -353 -113 -551 -210 -522 -257 -1004 -671 -1511 -1301
-314 -388 -713 -981 -963 -1429 -192 -344 -446 -837 -584 -1135 -68 -147 -214
-475 -238 -535 -11 -27 -26 -63 -33 -80 -59 -132 -265 -643 -265 -658 0 -4 -8
-27 -19 -50 -85 -190 -515 -1455 -546 -1605 -2 -9 -8 -29 -14 -45 -6 -15 -13
-38 -16 -50 -2 -12 -16 -60 -30 -107 -36 -122 -113 -391 -124 -436 -5 -22 -21
-82 -36 -134 -14 -52 -27 -101 -29 -110 -3 -16 -12 -52 -51 -195 -13 -49 -27
-101 -30 -115 -2 -14 -20 -90 -40 -169 -19 -79 -37 -156 -40 -170 -2 -14 -11
-52 -20 -83 -8 -32 -17 -70 -20 -85 -6 -33 -5 -29 -44 -198 -16 -71 -32 -143
-35 -160 -6 -35 -13 -70 -20 -93 -3 -9 -7 -34 -11 -56 -3 -21 -7 -41 -9 -45
-2 -3 -7 -28 -10 -55 -4 -27 -9 -52 -11 -55 -1 -3 -6 -22 -9 -41 -3 -19 -8
-44 -10 -55 -22 -96 -77 -391 -100 -530 -3 -16 -12 -68 -20 -115 -8 -47 -17
-103 -21 -125 -3 -22 -10 -65 -15 -95 -5 -30 -12 -73 -15 -95 -3 -22 -8 -53
-10 -70 -3 -16 -7 -46 -9 -65 -3 -19 -14 -96 -24 -170 -11 -74 -23 -166 -27
-203 -3 -37 -8 -78 -11 -90 -5 -23 -39 -321 -49 -417 -3 -30 -9 -98 -15 -150
-5 -52 -12 -135 -15 -185 -4 -49 -8 -110 -10 -135 -2 -25 -6 -85 -9 -135 -4
-49 -9 -121 -11 -160 -21 -286 -14 -1152 10 -1425 3 -30 7 -89 10 -130 8 -113
36 -368 51 -460 3 -19 8 -51 10 -70 4 -37 11 -79 19 -120 3 -14 8 -41 11 -60
4 -29 21 -112 50 -249 53 -255 164 -599 282 -876 64 -151 201 -408 297 -555
135 -210 756 -999 1174 -1495 875 -1035 1993 -2185 3157 -3247 405 -369 1058
-929 1396 -1198 59 -47 107 -90 108 -97 0 -16 -280 -284 -460 -439 -253 -217
-580 -452 -820 -589 -361 -206 -769 -332 -1197 -370 -58 -6 -76 -11 -94 -31
-19 -20 -21 -29 -13 -51 5 -15 20 -33 34 -39 20 -10 197 -56 260 -68 8 -1 35
-8 60 -15 25 -7 104 -28 175 -47 72 -19 141 -39 155 -44 14 -5 59 -18 100 -31
140 -41 662 -219 745 -253 17 -7 46 -19 65 -26 19 -7 49 -18 65 -25 17 -7 75
-31 130 -53 356 -140 946 -433 1230 -609 11 -7 45 -27 75 -45 183 -107 492
-324 685 -479 188 -152 569 -519 515 -497 -8 4 -62 27 -120 53 -116 51 -323
128 -403 150 -29 7 -92 25 -142 39 -49 14 -101 27 -115 30 -45 10 -115 25
-135 30 -147 34 -359 70 -475 81 -36 3 -72 8 -80 10 -8 2 -55 7 -105 10 -49 4
-92 8 -95 10 -16 10 -363 20 -657 20 l-331 0 -26 -24 c-35 -33 -34 -73 2 -101
15 -11 61 -42 102 -69 127 -80 328 -248 491 -411 411 -409 708 -859 959 -1455
23 -55 50 -118 60 -140 15 -34 76 -190 112 -288 6 -15 9 -30 7 -32 -9 -8 -423
-195 -519 -234 -58 -24 -114 -47 -125 -52 -106 -46 -509 -158 -630 -175 -16
-2 -41 -6 -55 -9 -14 -3 -52 -7 -85 -10 -33 -3 -70 -8 -83 -11 -33 -7 -332 -7
-373 0 -19 4 -50 8 -69 11 -19 2 -53 7 -76 11 -35 5 -44 3 -63 -17 -11 -12
-21 -31 -21 -42 0 -17 162 -268 311 -482 798 -1146 2090 -2500 3259 -3415 80
-62 197 -155 260 -205 326 -260 700 -527 1095 -781 859 -555 1944 -1103 3045
-1539 135 -53 252 -100 260 -104 8 -4 152 -59 320 -121 168 -62 319 -118 335
-125 17 -7 48 -18 70 -25 22 -6 49 -15 60 -20 64 -28 896 -309 1200 -405 77
-24 205 -65 285 -90 122 -39 372 -115 815 -250 44 -13 134 -40 200 -59 599
-174 746 -218 785 -230 43 -15 319 -94 350 -102 8 -1 69 -19 135 -39 138 -41
463 -135 485 -141 26 -6 280 -81 385 -113 55 -17 188 -55 295 -85 107 -30 409
-116 670 -191 261 -75 482 -138 490 -140 8 -2 53 -15 100 -29 47 -15 110 -34
140 -43 30 -9 73 -22 95 -29 22 -7 123 -39 225 -70 178 -54 736 -239 870 -288
274 -99 727 -278 870 -343 197 -89 459 -228 674 -357 158 -94 181 -112 340
-262 826 -781 1554 -1252 2411 -1559 203 -73 538 -162 750 -200 151 -27 196
-35 235 -39 525 -65 1003 -59 1455 20 50 9 104 18 120 21 17 2 59 11 95 19 36
9 76 18 90 20 115 22 483 131 585 173 11 4 92 36 180 71 155 61 493 221 625
296 556 315 1087 723 1645 1265 130 126 151 142 285 218 169 95 526 273 655
326 50 20 104 43 120 50 17 7 120 48 230 90 110 42 223 85 250 96 164 63 908
309 983 325 13 2 40 11 60 18 20 8 55 19 77 25 22 6 87 24 145 42 206 61 235
69 270 79 43 12 273 76 320 90 96 28 336 94 420 116 52 14 149 41 215 60 66
20 129 38 140 40 11 2 67 18 125 34 58 17 116 33 129 36 14 3 28 7 33 10 4 3
17 7 29 9 11 2 91 24 177 49 87 25 398 113 692 196 294 83 546 155 560 161 14
5 36 12 50 14 14 3 95 25 180 51 85 25 200 58 255 74 55 16 132 38 170 49 39
12 79 24 90 26 11 3 88 25 170 50 83 26 158 48 168 50 17 4 148 43 237 71 25
8 48 14 52 14 4 1 27 8 50 16 24 9 52 17 63 20 11 2 40 10 65 19 50 16 202 63
385 120 255 78 516 162 915 295 586 196 623 208 642 220 10 5 22 10 28 10 11
0 500 175 545 196 17 7 53 21 80 30 28 9 64 22 80 29 17 6 66 26 110 43 308
118 435 167 470 183 22 9 110 45 195 80 191 76 219 89 525 232 269 126 784
392 1087 563 717 403 1435 882 2071 1382 1472 1155 2696 2491 3561 3886 126
202 128 208 94 242 l-26 27 -89 -12 c-161 -20 -419 -14 -628 15 -56 8 -247 51
-335 75 -41 12 -79 22 -85 23 -101 21 -484 171 -730 286 -33 15 -87 40 -120
55 -33 16 -61 29 -63 30 -3 2 122 345 166 455 302 755 732 1336 1302 1757 93
69 209 143 242 156 9 3 24 17 34 31 21 33 12 70 -23 93 -25 17 -63 18 -453 18
-371 0 -654 -8 -732 -20 -40 -6 -163 -19 -169 -17 -4 1 -33 -3 -65 -8 -33 -6
-81 -13 -109 -16 -54 -6 -301 -54 -405 -79 -36 -8 -76 -18 -90 -21 -47 -10
-255 -73 -355 -108 -55 -19 -101 -33 -103 -32 -6 7 236 232 355 331 340 283
698 524 1128 758 158 86 612 307 630 307 2 0 28 11 57 24 376 175 1066 410
1698 581 130 35 210 61 218 72 17 24 15 67 -5 86 -10 8 -45 18 -78 22 -33 4
-71 9 -85 11 -157 26 -210 37 -300 59 -890 219 -1703 829 -2484 1865 -165 219
-388 536 -402 573 -3 8 25 38 69 74 130 107 934 996 1618 1788 590 684 1372
1632 1925 2335 49 63 124 158 165 210 131 165 389 497 564 725 93 121 196 256
230 300 279 362 824 1094 890 1195 149 230 259 441 369 713 65 162 163 450
181 532 2 11 19 81 38 155 29 112 50 207 49 217 -1 2 4 17 9 35 8 27 36 173
44 228 1 8 5 31 9 50 8 48 14 85 21 139 4 25 9 62 11 81 10 66 14 96 33 275
11 99 23 230 26 290 4 61 9 126 11 145 24 264 24 1231 -1 1485 -2 22 -6 85
-10 140 -7 117 -14 204 -20 260 -3 22 -7 69 -10 105 -3 36 -7 83 -10 105 -3
22 -7 65 -11 95 -3 30 -12 107 -19 170 -8 63 -17 135 -20 160 -3 25 -8 61 -11
80 -3 19 -8 53 -10 75 -4 34 -25 174 -39 255 -2 14 -6 39 -9 55 -14 86 -47
286 -52 307 -2 13 -7 39 -10 58 -3 19 -12 69 -20 110 -9 41 -18 89 -20 107 -2
17 -11 62 -19 100 -8 37 -24 112 -35 166 -10 54 -21 101 -24 105 -2 4 -7 25
-10 47 -6 38 -27 130 -46 205 -5 19 -31 127 -58 240 -57 237 -114 457 -142
550 -11 36 -35 121 -55 190 -58 203 -166 545 -230 730 -112 323 -150 432 -170
485 -13 33 -44 116 -70 185 -49 129 -51 134 -103 260 -110 269 -161 389 -221
523 -211 471 -419 882 -664 1312 -629 1103 -1425 2052 -2218 2645 -268 200
-585 360 -965 486 -73 24 -142 46 -155 48 -13 3 -49 12 -79 20 -94 25 -178 45
-212 51 -18 3 -49 10 -68 15 -19 5 -46 11 -60 14 -67 13 -139 26 -175 31 -22
3 -47 7 -55 10 -8 2 -36 6 -62 9 -26 3 -76 10 -111 16 -100 16 -393 48 -497
55 -52 3 -122 8 -155 11 -87 7 -909 17 -915 12z m-20605 -392 c44 -3 132 -8
195 -11 63 -4 131 -8 150 -10 19 -2 76 -7 125 -10 50 -3 137 -11 195 -16 58
-6 119 -12 135 -14 103 -9 173 -16 195 -20 14 -3 48 -7 75 -9 99 -10 299 -36
530 -71 62 -10 317 -53 345 -59 14 -4 43 -8 66 -12 35 -4 349 -67 394 -78 8
-2 62 -14 120 -26 189 -39 792 -194 860 -220 14 -6 34 -12 45 -14 123 -26 852
-272 1040 -352 17 -7 107 -43 200 -80 94 -37 190 -76 215 -87 58 -25 96 -42
255 -112 250 -111 647 -311 980 -495 583 -323 1278 -806 1812 -1261 111 -94
114 -96 195 -113 223 -47 627 -151 748 -192 25 -9 52 -17 61 -19 26 -5 272
-84 294 -94 11 -5 52 -19 90 -31 39 -13 84 -28 100 -35 17 -7 71 -27 120 -45
50 -18 104 -38 120 -45 17 -7 84 -34 150 -60 66 -26 138 -55 160 -65 315 -136
478 -212 790 -366 406 -200 584 -295 961 -509 241 -138 693 -408 859 -513 44
-28 111 -70 148 -92 328 -200 1263 -838 1495 -1021 42 -34 86 -65 98 -69 12
-5 63 -38 115 -74 51 -37 100 -65 108 -64 7 2 19 11 25 21 11 19 -8 41 -118
136 -33 28 -37 36 -28 50 72 101 131 268 153 426 17 128 17 114 18 515 1 321
-8 618 -24 805 -14 175 -33 358 -40 405 -3 14 -11 72 -20 130 -13 87 -41 248
-59 335 -118 575 -347 1099 -640 1465 -41 52 -76 98 -76 101 0 9 693 347 930
454 118 53 224 100 235 105 11 5 54 24 95 43 41 19 165 71 275 116 110 46 214
89 231 97 240 107 1106 417 1494 534 41 13 93 29 115 36 80 26 258 75 262 71
2 -2 -7 -65 -21 -138 -14 -74 -28 -165 -31 -204 -13 -146 -7 -583 10 -675 2
-14 7 -47 10 -75 3 -27 7 -61 10 -75 5 -24 10 -53 19 -110 2 -14 12 -58 21
-99 9 -40 18 -78 19 -85 1 -6 5 -20 9 -31 3 -11 8 -31 11 -45 8 -51 82 -269
136 -405 91 -230 251 -525 356 -657 163 -203 356 -250 532 -131 72 49 118 106
263 323 431 648 742 1035 1188 1480 328 327 556 517 895 744 143 97 190 125
346 216 65 37 400 201 450 220 19 7 55 22 80 33 58 26 312 113 325 112 113
-12 405 -61 515 -87 47 -11 96 -22 110 -24 69 -14 259 -68 375 -108 500 -171
799 -363 1300 -834 952 -895 1814 -2302 2470 -4032 88 -231 145 -390 145 -403
0 -7 4 -17 9 -22 5 -6 19 -41 31 -80 12 -38 38 -115 57 -169 20 -55 36 -105
37 -110 2 -6 35 -112 75 -236 118 -370 137 -433 216 -715 41 -148 81 -292 89
-320 8 -27 18 -61 21 -75 3 -14 41 -166 85 -339 43 -173 81 -326 83 -340 3
-14 12 -55 20 -91 22 -87 64 -267 71 -305 8 -39 11 -52 35 -169 12 -54 23
-108 25 -120 3 -11 14 -61 25 -111 11 -49 22 -103 24 -120 3 -16 8 -41 11 -55
7 -30 8 -37 46 -270 56 -339 69 -425 76 -480 8 -70 11 -91 18 -137 4 -21 9
-60 12 -88 2 -27 7 -63 9 -80 18 -151 22 -182 34 -300 6 -55 13 -127 16 -160
3 -33 7 -82 10 -110 3 -27 7 -84 10 -125 2 -41 8 -133 12 -205 4 -71 8 -348 8
-615 -1 -441 -5 -566 -31 -800 -3 -25 -7 -70 -10 -100 -4 -49 -14 -132 -28
-230 -3 -19 -10 -71 -16 -115 -6 -44 -15 -96 -20 -115 -5 -19 -12 -56 -15 -82
-4 -26 -20 -103 -36 -170 -17 -68 -32 -134 -35 -148 -33 -167 -147 -478 -281
-770 -50 -109 -204 -357 -327 -525 -966 -1331 -2011 -2598 -3898 -4727 -216
-244 -478 -540 -583 -658 -104 -118 -298 -333 -429 -480 -131 -146 -266 -299
-299 -340 -33 -41 -62 -76 -66 -78 -7 -3 -160 250 -259 428 -152 275 -349 677
-472 965 -23 55 -53 124 -66 153 -13 29 -24 57 -24 62 0 5 -11 33 -24 62 -13
29 -38 91 -56 138 -18 47 -36 94 -41 105 -9 21 -49 130 -99 273 l-29 82 232
194 c1101 918 2246 2043 3076 3021 553 651 1105 1412 1453 2000 153 260 368
671 473 905 26 58 55 123 65 145 106 238 263 722 316 980 18 88 56 336 62 405
10 118 9 560 -2 770 -9 193 -10 200 -25 350 -6 58 -13 130 -15 160 -3 30 -8
71 -10 90 -3 19 -7 53 -10 75 -2 22 -11 85 -20 140 -8 55 -17 118 -20 140 -3
22 -9 65 -15 95 -6 30 -13 71 -15 90 -3 19 -16 94 -30 165 -14 72 -27 141 -30
155 -3 14 -9 45 -14 70 -6 25 -15 68 -21 95 -22 103 -89 375 -135 550 -124
468 -328 1084 -519 1570 -140 354 -239 593 -339 815 -11 25 -47 106 -80 180
-72 162 -75 169 -248 530 -116 244 -187 381 -363 700 -74 134 -273 469 -372
625 -450 712 -905 1222 -1358 1524 -296 198 -590 315 -892 358 -139 19 -466
13 -599 -12 -119 -22 -150 -33 -366 -131 -360 -163 -671 -337 -1037 -580 -423
-281 -768 -562 -1152 -939 -537 -527 -980 -1095 -1381 -1770 -117 -196 -374
-694 -449 -870 -24 -55 -49 -113 -56 -130 -32 -73 -128 -342 -168 -470 -52
-168 -127 -464 -141 -560 -3 -22 -8 -51 -11 -65 -12 -63 -16 -89 -21 -140 -3
-30 -9 -84 -14 -120 -5 -36 -10 -100 -10 -142 0 -43 -3 -78 -7 -78 -5 0 -46
30 -93 67 -252 196 -532 393 -560 393 -32 0 -60 -30 -60 -65 0 -29 8 -40 68
-86 661 -520 1270 -1150 1767 -1824 200 -272 493 -723 630 -970 15 -27 61
-109 101 -182 83 -149 245 -470 294 -583 18 -41 52 -115 75 -165 23 -49 65
-148 94 -220 30 -71 61 -148 71 -170 9 -22 39 -98 65 -170 26 -71 55 -150 65
-175 32 -83 173 -522 214 -670 51 -182 147 -572 160 -645 2 -16 14 -70 25
-120 11 -49 23 -112 27 -140 3 -27 8 -52 9 -55 8 -13 75 -433 90 -562 9 -81
16 -140 25 -218 5 -41 12 -111 15 -155 3 -44 8 -91 10 -105 11 -75 25 -316 30
-543 4 -141 8 -279 10 -305 2 -26 6 -94 10 -152 4 -58 8 -132 11 -165 6 -95
34 -387 39 -415 2 -14 7 -56 11 -95 8 -95 11 -118 24 -210 10 -75 16 -116 25
-182 20 -152 77 -478 114 -658 11 -55 22 -111 25 -125 6 -33 72 -315 122 -520
75 -310 332 -1106 415 -1287 10 -24 19 -45 19 -49 0 -14 188 -454 262 -614 56
-119 230 -463 296 -585 260 -479 543 -922 825 -1290 560 -732 1134 -1260 1749
-1611 104 -59 298 -157 378 -189 36 -15 79 -33 95 -40 150 -65 435 -148 625
-182 106 -18 119 -20 150 -22 47 -3 4 -18 -190 -67 -72 -18 -258 -72 -355
-103 -282 -91 -451 -148 -513 -172 -66 -26 -84 -29 -195 -29 -167 0 -501 -18
-742 -40 -66 -6 -145 -13 -175 -15 -30 -3 -66 -7 -80 -10 -14 -2 -56 -7 -95
-11 -93 -9 -93 -9 -305 -39 -102 -15 -196 -28 -210 -30 -14 -2 -36 -6 -50 -9
-14 -3 -41 -8 -60 -10 -19 -3 -82 -14 -140 -25 -58 -11 -118 -22 -135 -25 -41
-6 -398 -84 -416 -90 -8 -3 -25 -8 -39 -10 -112 -22 -523 -143 -719 -213 -69
-25 -137 -48 -151 -53 -149 -49 -553 -236 -765 -355 -739 -413 -1330 -1008
-1658 -1670 -30 -60 -60 -128 -66 -150 -48 -176 79 -345 261 -345 27 0 90 9
141 20 50 11 106 22 122 25 44 7 74 14 93 19 9 3 33 7 52 10 19 3 46 8 60 11
38 9 330 62 370 68 19 3 49 8 65 11 25 5 84 14 255 41 206 33 476 67 744 95
137 14 194 19 266 25 36 2 88 7 115 10 56 5 124 10 401 25 182 11 1132 8 1239
-3 28 -3 91 -8 140 -12 95 -6 188 -16 192 -20 2 -1 -15 -35 -36 -76 -138 -261
-257 -609 -306 -894 -22 -126 -16 -119 -82 -89 -71 32 -264 100 -357 126 -69
19 -262 55 -346 64 -274 30 -342 32 -715 28 -387 -4 -439 -6 -545 -17 -30 -4
-93 -9 -140 -13 -169 -12 -174 -20 -20 -27 196 -10 287 -15 405 -24 55 -4 103
-6 107 -5 20 5 484 -39 553 -52 11 -2 42 -7 69 -10 170 -23 394 -74 551 -125
194 -63 217 -73 660 -297 606 -307 1030 -433 1446 -428 171 2 250 10 337 34
17 4 32 6 32 3 0 -15 -385 -477 -627 -753 -248 -283 -550 -606 -858 -918 -292
-296 -251 -271 -380 -231 -33 10 -125 39 -205 63 -80 25 -289 90 -465 145
-176 55 -345 107 -375 116 -30 10 -82 26 -115 36 -198 63 -868 254 -992 283
-10 2 -74 18 -143 36 -125 32 -147 37 -185 45 -11 3 -72 16 -135 31 -138 31
-121 27 -250 53 -234 48 -651 114 -850 136 -30 3 -71 8 -90 10 -19 3 -73 7
-120 11 -47 3 -103 8 -125 10 -86 8 -864 11 -935 4 -41 -5 -104 -11 -140 -14
-167 -14 -327 -35 -545 -71 -48 -8 -186 -38 -255 -55 -41 -10 -86 -21 -100
-24 -116 -23 -460 -137 -630 -208 -137 -58 -173 -88 -217 -183 -23 -50 -27
-74 -28 -140 0 -68 4 -89 28 -138 32 -64 32 -64 332 -303 771 -614 1285 -1130
1657 -1665 162 -231 353 -580 451 -819 57 -141 126 -347 162 -485 30 -114 32
-131 19 -142 -21 -15 -726 -369 -844 -422 -52 -24 -153 -68 -225 -98 -71 -30
-148 -63 -170 -73 -109 -48 -811 -325 -1080 -425 -49 -18 -146 -54 -215 -80
-139 -52 -246 -91 -525 -190 -104 -37 -244 -87 -310 -111 -156 -56 -1534 -512
-1825 -604 -432 -136 -515 -162 -555 -175 -22 -7 -94 -30 -160 -50 -66 -20
-137 -43 -158 -51 -20 -8 -39 -14 -42 -13 -3 0 -72 -21 -153 -46 -81 -25 -210
-65 -287 -89 -77 -24 -207 -65 -290 -91 -82 -25 -184 -57 -225 -70 -210 -66
-374 -116 -455 -140 -49 -15 -126 -38 -170 -52 -44 -14 -87 -27 -95 -29 -19
-4 -353 -107 -435 -133 -33 -11 -134 -43 -225 -71 -313 -97 -1033 -332 -1075
-350 -11 -5 -132 -50 -270 -99 -529 -190 -1055 -411 -1424 -599 -181 -92 -183
-93 -151 -55 153 181 329 402 460 578 291 391 328 455 262 455 -22 0 -52 -27
-172 -157 -207 -225 -745 -762 -945 -943 -408 -370 -743 -640 -1115 -897 -194
-134 -477 -314 -630 -403 -195 -112 -639 -326 -750 -361 -14 -4 -50 -17 -80
-29 -67 -26 -295 -102 -370 -124 -30 -8 -87 -25 -126 -36 -40 -11 -91 -24
-115 -29 -24 -5 -78 -16 -119 -24 -41 -9 -88 -19 -105 -22 -16 -4 -100 -17
-185 -30 -143 -21 -192 -26 -385 -41 -110 -9 -438 -9 -570 -1 -218 14 -566 62
-705 97 -19 5 -102 26 -185 46 -373 90 -723 219 -1120 413 -406 199 -728 394
-1120 679 -594 433 -1231 1037 -1783 1690 -123 145 -150 172 -173 172 -57 0
-44 -31 105 -260 195 -300 406 -584 615 -830 30 -36 62 -73 70 -84 9 -10 -22
4 -69 31 -121 71 -316 172 -450 233 -63 29 -142 65 -175 80 -200 91 -598 249
-943 374 -243 88 -1056 361 -1102 371 -15 3 -85 25 -280 87 -52 17 -99 31
-105 32 -40 9 -723 214 -755 226 -14 6 -34 12 -45 15 -36 8 -116 31 -335 99
-118 37 -224 69 -235 71 -11 3 -40 12 -65 20 -25 8 -128 40 -230 71 -185 55
-304 91 -540 164 -69 21 -201 62 -295 90 -93 28 -197 60 -230 71 -33 10 -186
58 -340 105 -154 47 -464 144 -690 216 -225 72 -426 136 -445 142 -55 17
-1144 384 -1250 421 -52 18 -126 45 -165 60 -38 14 -102 36 -140 49 -102 35
-734 271 -845 316 -52 21 -171 68 -265 105 -93 37 -183 73 -200 80 -16 7 -104
43 -195 80 -276 113 -371 157 -810 377 -195 98 -361 182 -368 186 -27 18 73
393 170 637 317 800 858 1486 1803 2287 179 152 574 465 587 465 7 0 63 3 123
7 61 3 157 9 215 12 224 13 1435 16 1845 4 231 -7 427 -12 435 -12 14 0 307
-10 665 -24 83 -4 157 -6 165 -6 19 0 615 -26 740 -33 52 -3 219 -12 370 -21
151 -8 313 -17 360 -20 111 -5 713 -42 810 -49 226 -16 384 -26 455 -30 44 -3
103 -7 130 -10 28 -2 95 -7 150 -11 55 -3 101 -8 103 -9 2 -2 -10 -59 -27
-127 -17 -67 -38 -170 -45 -227 -8 -57 -16 -105 -18 -106 -4 -5 -94 -16 -228
-30 -39 -4 -345 -43 -400 -51 -19 -3 -66 -9 -105 -14 -38 -5 -135 -18 -215
-29 -80 -12 -165 -23 -190 -26 -25 -3 -54 -7 -65 -9 -25 -5 -87 -14 -140 -21
-23 -3 -52 -8 -65 -10 -14 -3 -70 -12 -125 -21 -55 -8 -136 -22 -180 -29 -44
-8 -93 -16 -110 -19 -94 -14 -175 -27 -215 -36 -40 -8 -166 -31 -245 -45 -36
-6 -73 -13 -100 -19 -11 -3 -96 -20 -190 -40 -166 -34 -250 -52 -445 -95 -281
-63 -817 -209 -1121 -307 -242 -77 -620 -218 -794 -294 -454 -200 -772 -376
-1060 -584 -138 -99 -192 -143 -330 -266 -146 -131 -211 -206 -195 -225 10
-12 31 3 123 88 341 314 774 587 1292 814 44 20 100 44 124 55 75 34 411 164
511 198 52 18 104 36 115 41 55 24 569 183 626 194 11 2 23 6 27 9 12 7 509
137 617 161 33 8 121 28 195 45 133 31 521 113 590 124 19 3 51 10 70 14 19 5
40 10 45 10 81 14 106 18 195 36 41 8 89 16 105 19 17 3 46 8 65 11 19 3 49 8
65 11 17 3 109 18 205 34 96 17 193 32 215 35 22 4 51 8 65 11 14 2 45 7 70
10 25 3 56 7 70 10 61 11 220 35 275 41 33 3 69 8 80 10 11 2 58 9 105 14 47
6 99 13 115 15 147 21 257 36 295 39 25 3 89 10 143 17 53 7 99 10 101 8 2 -2
6 -92 9 -199 6 -192 15 -284 41 -421 l13 -69 -86 -26 c-397 -120 -945 -327
-1351 -512 -373 -169 -892 -447 -1235 -662 -497 -311 -986 -681 -1397 -1057
-277 -253 -650 -645 -877 -921 -41 -50 -50 -88 -17 -80 7 2 78 75 157 163 681
757 1561 1460 2494 1996 437 250 973 510 1410 684 94 37 179 71 190 76 65 29
699 249 717 249 9 0 25 -37 32 -73 5 -26 102 -323 115 -352 5 -11 21 -46 35
-78 14 -32 26 -60 26 -63 0 -22 178 -358 246 -465 l42 -66 -114 -92 c-400
-323 -776 -714 -1019 -1061 -263 -376 -450 -789 -539 -1190 -3 -13 2 -21 15
-25 11 -4 21 -5 23 -3 1 1 15 44 31 93 148 463 426 931 818 1378 112 128 349
368 487 492 140 127 350 305 360 305 3 0 30 -35 60 -77 411 -577 1005 -1090
1617 -1397 255 -127 622 -260 808 -292 17 -3 47 -10 67 -15 20 -5 56 -12 80
-15 24 -3 50 -7 58 -10 8 -3 37 -8 65 -11 27 -2 100 -11 160 -18 111 -13 604
-13 690 0 22 3 90 13 150 21 297 41 654 139 892 245 24 10 44 19 47 19 2 0 24
-36 49 -79 117 -201 317 -382 552 -499 74 -37 275 -116 321 -127 27 -6 252
-52 294 -60 19 -4 132 -8 250 -10 191 -2 231 0 355 22 77 13 145 25 150 27 6
2 24 6 40 10 17 5 68 22 115 38 371 134 628 362 745 664 22 54 40 100 40 102
1 1 49 -20 106 -47 311 -146 612 -242 930 -295 190 -33 208 -35 427 -46 809
-42 1584 196 2303 706 487 346 931 830 1242 1356 47 78 91 155 98 170 15 34 0
41 239 -117 720 -477 1219 -960 1572 -1523 67 -105 218 -395 251 -480 17 -43
23 -47 44 -34 14 9 -5 76 -62 216 -118 292 -274 553 -491 826 -126 158 -476
512 -646 653 -217 180 -606 460 -780 561 -27 15 -48 34 -48 40 0 7 13 39 29
72 69 139 148 341 200 505 23 75 69 294 76 366 10 95 16 133 23 133 4 0 25 -5
47 -10 22 -6 56 -13 75 -16 27 -4 246 -53 405 -89 11 -3 83 -21 160 -40 77
-20 149 -38 161 -40 36 -8 337 -95 379 -109 22 -8 81 -26 130 -41 394 -119
921 -322 1330 -510 959 -442 1823 -1008 2559 -1676 207 -188 204 -186 222
-167 13 12 -2 30 -113 139 -493 481 -1048 906 -1691 1296 -112 68 -205 123
-207 123 -2 0 -50 27 -108 59 -339 193 -994 496 -1332 616 -27 10 -54 22 -60
27 -5 4 -15 8 -23 8 -8 0 -28 6 -45 14 -147 65 -894 294 -1116 342 -14 3 -79
18 -145 34 -67 16 -188 43 -271 61 -163 34 -158 33 -260 49 -109 18 -108 17
-101 54 14 74 -29 511 -60 610 -6 18 4 19 392 12 219 -4 401 -9 404 -11 3 -2
91 -6 195 -9 105 -4 215 -9 245 -11 30 -2 105 -6 165 -10 129 -6 392 -23 485
-30 315 -24 466 -37 650 -56 58 -5 128 -12 155 -15 28 -2 88 -9 135 -15 47 -6
103 -12 125 -15 22 -3 54 -7 70 -9 17 -3 46 -7 65 -9 19 -3 58 -8 85 -12 28
-4 52 -7 55 -6 3 0 51 -6 105 -14 55 -7 120 -16 145 -19 25 -4 101 -15 170
-26 69 -11 141 -22 160 -25 70 -10 292 -48 380 -65 30 -6 69 -13 85 -15 17 -3
46 -9 65 -14 19 -5 53 -12 75 -15 32 -5 184 -38 280 -61 11 -2 40 -9 65 -14
25 -5 72 -16 105 -25 33 -9 67 -18 76 -20 186 -41 690 -207 910 -298 376 -157
726 -358 978 -559 47 -38 88 -68 92 -68 3 0 12 6 18 14 10 12 -4 29 -79 92
-159 135 -334 254 -572 386 -98 55 -302 158 -313 158 -2 0 -41 17 -87 38 -46
21 -110 49 -143 61 -33 13 -69 27 -80 31 -45 20 -287 104 -390 137 -121 38
-485 142 -525 149 -14 3 -59 13 -100 24 -159 40 -557 125 -640 136 -19 2 -42
7 -50 9 -8 3 -33 7 -55 11 -22 3 -92 14 -155 25 -63 11 -133 22 -155 25 -22 3
-50 7 -63 10 -12 2 -44 7 -70 10 -26 3 -76 10 -112 15 -91 15 -107 17 -180 24
-36 3 -72 8 -80 10 -8 2 -40 7 -70 10 -30 3 -116 12 -190 20 -74 8 -160 17
-190 20 -30 3 -75 8 -100 10 -72 8 -556 44 -660 50 -52 3 -126 7 -165 10 -222
16 -762 33 -1292 41 l-442 7 -36 116 c-20 64 -53 153 -72 199 -35 80 -36 94
-10 98 7 1 82 14 167 29 85 14 166 28 180 30 14 2 171 29 350 58 179 30 343
57 365 60 22 3 110 16 195 30 85 14 171 28 190 31 19 3 118 19 220 35 102 16
203 32 225 36 22 3 78 12 125 20 47 7 105 16 130 19 25 3 54 8 65 10 26 5 91
15 130 21 17 2 86 13 155 24 69 11 141 22 160 25 19 2 80 11 135 20 150 23
148 23 470 70 165 25 323 47 350 50 28 4 64 8 80 11 51 8 408 56 515 69 19 3
91 12 160 20 69 9 143 18 165 21 22 2 96 11 165 20 69 8 158 17 199 21 41 3
81 7 90 9 9 1 45 6 81 9 36 4 81 9 100 11 35 5 202 20 315 30 33 3 76 8 95 10
19 2 78 7 130 10 52 4 102 8 110 10 8 2 67 7 130 10 63 3 132 8 153 10 20 2
112 8 205 14 632 39 1162 51 1417 31 321 -25 315 -25 315 -1 0 11 -3 21 -7 22
-5 0 -21 2 -38 4 -43 6 -335 33 -435 40 -165 12 -228 14 -585 14 -395 1 -581
-6 -1180 -44 -143 -9 -322 -23 -385 -30 -25 -3 -76 -8 -115 -11 -38 -3 -86 -8
-105 -9 -51 -5 -428 -44 -475 -50 -52 -6 -476 -54 -535 -60 -25 -3 -58 -7 -75
-10 -16 -2 -52 -7 -80 -10 -27 -3 -63 -8 -80 -10 -16 -3 -48 -7 -70 -9 -40 -4
-176 -22 -535 -72 -146 -20 -819 -119 -940 -138 -316 -51 -627 -102 -745 -122
-82 -14 -161 -27 -175 -29 -52 -8 -216 -36 -240 -41 -14 -2 -89 -16 -168 -29
-79 -14 -153 -27 -165 -30 -12 -2 -38 -7 -57 -10 -19 -2 -46 -7 -60 -10 -14
-3 -38 -7 -55 -10 -49 -8 -77 -13 -135 -24 -30 -6 -71 -13 -90 -16 -19 -3 -69
-13 -110 -21 -41 -8 -113 -21 -160 -30 -47 -9 -116 -22 -155 -29 -38 -8 -89
-17 -111 -20 l-42 -6 -48 93 c-230 449 -654 932 -1139 1298 -137 102 -289 206
-416 282 -96 59 -257 148 -265 148 -4 0 31 -25 77 -57 509 -344 980 -786 1277
-1200 170 -238 375 -603 338 -603 -4 0 -118 -21 -236 -44 -156 -30 -914 -187
-1020 -211 -36 -8 -79 -17 -97 -20 -92 -15 -138 -32 -141 -54 -4 -24 -8 -24
133 4 39 8 135 25 215 39 80 15 181 33 225 41 44 8 97 17 119 20 21 3 41 7 45
9 3 2 29 7 56 10 28 3 61 8 75 11 14 3 52 10 85 16 33 5 71 12 85 15 32 5 188
32 265 45 33 5 71 12 85 14 76 14 153 25 155 23 1 -2 21 -52 43 -113 48 -134
78 -253 66 -264 -5 -5 -193 -12 -419 -16 -225 -4 -441 -9 -479 -11 -38 -1
-142 -6 -230 -9 -89 -4 -177 -8 -196 -10 -19 -2 -56 -4 -82 -4 -42 -1 -46 -3
-41 -22 6 -21 8 -21 197 -15 425 13 1273 19 1279 9 19 -31 39 -211 44 -400 5
-185 4 -213 -9 -218 -9 -4 -53 -1 -99 5 -124 17 -121 17 -325 39 -411 45 -609
58 -1005 68 -270 6 -276 6 -281 -14 -5 -19 1 -20 176 -27 222 -9 319 -14 416
-21 103 -8 376 -35 402 -40 12 -3 53 -7 92 -10 39 -3 78 -8 86 -10 14 -4 27
-6 135 -20 28 -3 106 -15 175 -27 69 -11 141 -22 160 -24 54 -8 60 -11 60 -38
0 -38 -46 -255 -71 -338 -12 -40 -24 -81 -26 -91 -2 -10 -12 -40 -22 -65 -11
-26 -32 -81 -46 -122 -35 -95 -152 -340 -163 -340 -4 0 -66 32 -138 71 -158
87 -460 239 -609 307 -118 54 -212 96 -260 117 -155 69 -597 242 -780 305
-311 107 -305 106 -305 72 0 -12 23 -25 83 -46 45 -16 100 -37 122 -46 22 -10
83 -34 135 -55 52 -21 113 -46 135 -56 22 -10 85 -36 140 -60 55 -23 127 -54
160 -69 33 -16 121 -56 195 -90 244 -112 881 -447 1047 -550 21 -13 20 -15
-44 -119 -280 -454 -717 -945 -1098 -1232 -239 -180 -479 -321 -752 -439 -175
-77 -495 -181 -626 -204 -15 -3 -35 -7 -45 -10 -25 -8 -149 -31 -222 -41 -14
-2 -56 -8 -95 -14 -247 -36 -663 -34 -896 4 -14 3 -41 7 -60 9 -71 10 -115 17
-139 22 -14 3 -36 8 -50 11 -62 11 -189 43 -229 58 -25 8 -58 18 -74 21 -89
15 -369 132 -597 248 -418 213 -804 485 -1187 835 l-63 58 2 749 3 749 75 11
c99 16 140 22 170 29 14 3 54 12 90 19 197 41 570 130 645 154 17 6 55 18 85
27 518 157 1021 417 1415 731 132 105 355 326 448 444 321 404 484 826 534
1380 9 96 10 405 1 490 -38 391 -187 758 -423 1040 -86 104 -249 257 -349 330
l-82 59 -33 128 c-34 130 -99 332 -146 457 -14 38 -33 95 -42 125 -8 31 -22
79 -30 106 -8 28 -19 64 -23 80 -5 17 -15 53 -24 80 -63 209 -71 242 -142 565
-66 301 -108 540 -139 795 -4 28 -8 61 -10 75 -6 36 -33 272 -33 290 0 8 -5
60 -11 115 -20 200 -38 470 -52 785 -11 249 -8 1053 5 1290 13 239 24 414 31
500 3 30 10 114 15 185 11 132 17 196 25 250 2 17 7 62 10 100 5 60 16 159 30
270 2 17 11 89 20 160 23 190 79 557 125 820 23 127 43 244 46 260 3 17 14 75
25 130 11 55 23 114 25 130 3 17 15 71 26 120 24 107 32 152 25 145 -6 -7
-114 -450 -133 -548 -3 -13 -16 -76 -30 -140 -42 -196 -121 -618 -150 -802
-46 -294 -87 -590 -104 -745 -6 -55 -12 -118 -15 -140 -8 -65 -24 -225 -30
-295 -3 -36 -8 -83 -10 -105 -3 -22 -7 -76 -10 -120 -3 -44 -10 -141 -15 -215
-30 -416 -44 -1188 -28 -1515 3 -77 9 -196 12 -265 8 -178 33 -478 56 -665 10
-88 21 -178 24 -200 5 -43 34 -243 42 -285 2 -14 7 -43 10 -65 3 -22 9 -58 14
-80 5 -22 11 -53 14 -70 9 -70 99 -454 145 -620 89 -324 206 -646 327 -903 29
-61 51 -112 48 -112 -2 0 -23 12 -46 26 -82 52 -265 139 -423 203 -299 119
-758 229 -1110 266 -33 4 -71 8 -85 10 -43 6 -189 17 -345 24 -215 11 -1560 1
-1810 -14 -54 -3 -170 -14 -325 -31 -74 -8 -357 -49 -409 -59 -231 -46 -545
-136 -693 -199 -21 -9 -41 -16 -46 -16 -5 0 8 71 30 157 45 182 43 173 96 443
55 278 116 646 128 775 2 22 10 99 19 172 19 164 42 439 50 598 4 66 8 147 10
180 5 85 6 836 1 843 -2 4 -7 90 -11 192 -4 102 -9 199 -10 215 -2 17 -6 62
-9 100 -8 88 -35 357 -42 410 -3 22 -7 58 -9 80 -4 36 -9 69 -20 145 -2 14
-13 84 -24 155 -12 72 -23 144 -26 160 -3 25 -17 104 -39 215 -105 541 -237
1021 -421 1540 -109 305 -130 347 -69 138 19 -68 37 -127 38 -133 1 -5 10 -35
20 -65 24 -80 136 -486 146 -534 5 -23 15 -68 24 -102 8 -34 17 -72 20 -85 2
-13 11 -53 20 -89 8 -36 17 -78 20 -95 3 -16 8 -41 11 -55 13 -57 46 -242 59
-330 8 -52 26 -167 40 -255 14 -88 30 -198 35 -245 6 -47 15 -123 21 -170 9
-77 21 -204 35 -365 36 -412 49 -886 35 -1305 -6 -190 -13 -356 -15 -370 -2
-14 -7 -72 -10 -130 -3 -58 -8 -121 -10 -140 -2 -19 -7 -69 -10 -110 -5 -64
-27 -256 -40 -355 -2 -16 -6 -55 -10 -85 -3 -30 -10 -84 -16 -120 -6 -36 -13
-83 -15 -105 -3 -22 -19 -116 -35 -210 -17 -93 -32 -183 -35 -200 -4 -26 -23
-122 -30 -150 -1 -5 -5 -26 -9 -45 -3 -19 -13 -64 -21 -100 -9 -36 -18 -76
-20 -90 -10 -57 -47 -210 -66 -275 -11 -38 -22 -79 -24 -91 -2 -11 -13 -49
-24 -84 -11 -34 -20 -81 -20 -104 0 -40 -2 -42 -62 -75 -288 -158 -582 -416
-731 -641 -66 -101 -113 -186 -171 -310 -70 -153 -141 -442 -161 -660 -7 -72
-7 -373 0 -430 18 -147 28 -216 46 -310 103 -523 322 -932 704 -1316 158 -160
281 -262 457 -382 282 -191 636 -365 998 -490 80 -27 161 -55 180 -62 19 -7
49 -16 65 -20 17 -5 86 -24 155 -43 175 -49 490 -121 620 -142 19 -3 71 -12
115 -19 195 -35 269 -41 473 -41 l212 0 0 -741 0 -741 -107 -96 c-290 -256
-558 -457 -831 -621 -149 -90 -440 -239 -577 -296 -44 -18 -89 -36 -100 -41
-93 -39 -406 -133 -507 -153 -13 -2 -57 -11 -98 -20 -231 -48 -377 -61 -680
-61 -248 0 -355 6 -510 31 -788 123 -1519 514 -2106 1127 -159 166 -392 449
-433 525 -9 17 7 32 127 119 432 314 1007 669 1552 958 102 54 231 122 287
152 74 39 101 58 96 68 -3 8 -11 15 -18 15 -11 0 -194 -78 -350 -150 -501
-230 -1133 -601 -1649 -968 l-119 -84 -18 23 c-100 130 -373 661 -438 852
l-41 118 28 10 c57 23 605 166 697 183 17 3 116 23 220 45 105 21 209 42 230
45 22 4 47 8 55 11 8 2 31 7 50 9 19 3 67 10 105 17 39 6 77 12 85 13 8 2 29
5 45 9 17 3 50 9 75 12 274 36 295 40 298 63 3 19 0 22 -20 18 -13 -3 -59 -7
-103 -10 -143 -10 -671 -82 -820 -112 -11 -3 -35 -7 -54 -10 -40 -7 -58 -10
-91 -18 -14 -3 -36 -8 -50 -10 -14 -2 -43 -9 -65 -14 -22 -6 -53 -13 -70 -16
-16 -3 -39 -7 -50 -10 -11 -3 -76 -18 -145 -34 -69 -16 -187 -46 -264 -67
-164 -43 -176 -46 -177 -37 0 4 -3 14 -5 22 -41 140 -74 614 -43 625 8 2 82
11 164 20 83 8 168 17 190 20 22 2 74 7 115 10 41 4 84 8 95 10 19 3 100 10
215 20 25 2 200 17 390 34 190 16 389 32 443 36 89 6 97 9 97 27 0 20 -3 20
-192 14 -106 -4 -211 -9 -233 -11 -22 -2 -101 -7 -175 -10 -74 -4 -155 -8
-180 -10 -25 -2 -117 -9 -205 -15 -201 -14 -279 -19 -330 -25 -22 -2 -71 -7
-110 -10 -69 -6 -85 -7 -218 -21 l-69 -7 6 44 c3 24 8 67 12 94 10 84 53 278
63 288 9 9 297 -4 416 -18 17 -2 73 -7 125 -10 52 -4 113 -8 135 -10 22 -2 74
-6 115 -9 41 -4 102 -8 135 -11 91 -7 182 -14 260 -20 131 -10 210 -16 325
-26 244 -21 292 -22 301 -8 5 8 9 17 9 20 0 5 -80 16 -260 34 -25 3 -63 7 -85
10 -76 9 -441 49 -555 61 -25 3 -110 12 -190 20 -80 9 -162 17 -182 19 -115 9
-205 18 -218 20 -34 6 -189 20 -260 23 -29 2 -40 6 -40 17 0 9 16 60 36 113
173 462 425 833 864 1273 251 251 489 450 760 634 63 43 120 83 125 88 30 29
-234 -129 -410 -246 -620 -413 -1094 -911 -1381 -1453 -56 -105 -156 -330
-167 -376 -7 -26 -10 -27 -60 -23 -28 2 -86 7 -127 10 -163 12 -437 35 -480
40 -25 2 -86 7 -135 10 -50 3 -112 8 -140 10 -27 3 -84 7 -125 10 -41 3 -172
12 -290 20 -118 8 -251 17 -295 20 -44 3 -111 8 -150 10 -38 3 -106 8 -150 10
-44 3 -118 7 -165 10 -193 12 -269 16 -345 20 -92 4 -269 13 -400 20 -879 47
-2338 66 -2990 40 -49 -2 -153 -6 -230 -10 -77 -3 -209 -10 -294 -16 -84 -6
-155 -8 -157 -6 -2 2 3 24 12 48 51 145 -18 323 -154 393 -80 41 -437 172
-552 201 -370 96 -480 118 -835 169 -51 7 -230 24 -360 34 -251 18 -932 5
-1178 -23 -38 -5 -170 -20 -257 -30 -25 -3 -72 -10 -105 -15 -33 -5 -78 -11
-100 -15 -22 -3 -71 -10 -110 -16 -38 -5 -77 -12 -86 -15 -10 -2 -30 -6 -45
-9 -16 -2 -49 -8 -74 -13 -25 -6 -61 -13 -80 -16 -37 -6 -58 -10 -100 -20 -14
-3 -36 -8 -50 -10 -137 -23 -854 -202 -1100 -276 -36 -10 -96 -28 -135 -38
-38 -11 -117 -34 -174 -52 -57 -17 -111 -33 -120 -35 -15 -4 -181 -55 -516
-159 -77 -24 -207 -65 -290 -91 -82 -25 -184 -58 -226 -71 -41 -13 -84 -27
-95 -29 -10 -2 -90 -27 -177 -54 l-157 -49 -209 217 c-312 324 -537 572 -813
897 -262 309 -677 839 -665 850 3 3 39 -1 79 -9 57 -13 125 -15 318 -12 135 2
265 8 290 13 25 6 61 13 81 16 114 18 464 123 584 176 22 10 92 39 155 66 63
27 237 110 385 185 149 74 308 151 355 169 47 18 99 39 115 45 28 12 188 60
231 70 10 2 46 11 79 19 33 8 74 17 90 20 17 2 64 11 105 19 41 8 98 18 125
21 170 21 301 35 380 40 50 4 122 9 160 11 87 6 253 12 540 20 262 7 281 9
288 35 10 38 -4 41 -268 55 -66 4 -140 8 -165 10 -82 5 -754 5 -825 0 -111 -8
-285 -25 -345 -35 -30 -5 -72 -11 -92 -14 -21 -3 -57 -10 -80 -15 -24 -6 -55
-12 -70 -15 -38 -6 -246 -66 -293 -83 -22 -8 -84 -33 -138 -56 -53 -22 -99
-38 -101 -36 -2 2 -7 31 -10 64 -26 255 -141 630 -277 905 -31 63 -55 116 -54
118 2 2 81 10 177 18 350 30 1239 29 1636 -1 26 -2 90 -6 142 -10 52 -3 133
-10 180 -15 47 -5 114 -12 150 -15 57 -5 184 -19 275 -30 17 -2 57 -7 90 -10
33 -3 103 -12 155 -20 52 -8 115 -17 140 -20 25 -3 72 -10 105 -15 33 -5 78
-12 100 -15 46 -7 199 -33 235 -40 13 -2 42 -7 65 -11 39 -5 316 -57 365 -68
14 -3 41 -9 60 -12 19 -3 109 -21 200 -40 153 -31 169 -33 215 -20 73 19 108
40 153 91 47 54 67 117 63 200 -2 50 -13 80 -68 190 -114 229 -215 387 -392
616 -112 144 -361 403 -516 537 -478 413 -1056 730 -1775 972 -47 16 -321 100
-340 105 -8 2 -114 29 -235 59 -121 31 -229 58 -240 60 -11 2 -67 14 -125 26
-58 12 -116 23 -130 26 -14 2 -48 9 -76 15 -110 21 -441 76 -544 88 -47 6 -94
13 -105 15 -11 2 -47 7 -80 10 -33 4 -73 9 -90 11 -37 6 -428 41 -545 50 -134
11 -162 12 -400 19 -124 4 -250 9 -280 12 -31 2 -176 46 -335 100 -154 53
-287 97 -295 99 -8 2 -78 22 -155 45 -184 54 -265 78 -350 100 -38 10 -68 19
-65 20 6 2 29 6 132 24 321 57 660 186 998 380 1369 789 2474 2179 3236 4074
285 707 548 1614 680 2342 2 14 7 36 9 50 3 14 7 36 10 50 2 14 9 52 15 85 16
93 34 207 55 350 4 22 8 51 10 65 3 14 7 50 10 80 4 30 8 62 10 70 3 8 7 40
10 70 3 30 10 98 15 150 20 186 25 244 35 400 8 141 24 542 30 760 6 230 12
360 22 470 4 41 6 78 5 83 -1 4 2 47 7 95 5 48 12 116 16 152 6 66 32 269 39
305 2 11 7 43 10 70 4 28 8 61 11 75 3 14 7 41 10 60 11 69 27 157 46 255 11
55 23 111 25 125 3 14 7 33 10 42 3 10 8 30 10 45 3 16 10 46 15 68 5 22 12
51 15 65 3 14 14 59 25 100 22 82 27 101 33 128 35 154 180 600 286 877 171
446 365 860 615 1310 603 1087 1474 2144 2446 2971 221 188 218 185 212 217
-6 29 -37 57 -64 57 -35 0 -391 -260 -640 -468 -250 -209 -457 -399 -722 -663
-136 -136 -249 -244 -251 -241 -2 4 -7 48 -11 97 -8 106 -9 109 -30 245 -19
122 -45 252 -82 400 -14 58 -26 110 -27 115 -16 82 -173 549 -222 662 -8 17
-14 34 -14 37 0 20 -122 288 -260 571 -207 423 -408 772 -685 1190 -212 319
-404 578 -624 840 -739 882 -1597 1559 -2521 1989 -261 122 -308 139 -415 152
-27 3 -76 9 -108 13 -64 9 -293 6 -372 -4 -113 -14 -258 -49 -395 -95 -949
-320 -1922 -1440 -2810 -3235 -87 -176 -199 -412 -250 -525 -51 -113 -100
-223 -110 -245 -240 -527 -597 -1534 -822 -2320 -11 -38 -24 -81 -29 -95 -5
-14 -11 -34 -14 -45 -2 -11 -18 -72 -35 -135 -16 -63 -55 -214 -85 -335 -31
-121 -58 -229 -61 -240 -15 -58 -121 -561 -130 -620 -3 -16 -14 -79 -24 -140
-11 -60 -22 -125 -25 -143 -6 -38 -42 -302 -51 -372 -3 -25 -7 -61 -10 -80 -3
-19 -7 -60 -9 -90 -3 -30 -10 -111 -16 -180 -17 -193 -19 -790 -3 -949 18
-189 22 -226 28 -252 3 -13 7 -43 10 -66 3 -22 8 -52 10 -65 3 -12 8 -34 10
-48 24 -142 88 -364 151 -525 5 -11 21 -54 37 -95 295 -753 829 -1591 1548
-2430 322 -375 926 -995 1325 -1360 694 -635 1508 -1293 2293 -1856 365 -260
599 -423 919 -635 125 -84 232 -156 237 -160 13 -11 -27 -101 -194 -444 -376
-771 -784 -1401 -1274 -1963 -59 -67 -111 -122 -115 -122 -7 0 -289 290 -936
960 -1199 1243 -2420 2602 -3175 3535 -478 591 -800 1007 -1154 1494 -238 326
-262 362 -346 531 -206 412 -383 994 -444 1460 -3 19 -9 67 -15 105 -5 39 -13
93 -16 120 -3 28 -8 66 -11 85 -6 47 -32 321 -32 340 1 8 -2 49 -6 90 -41 475
-45 1207 -11 1810 11 179 26 407 30 445 3 22 7 83 10 135 3 52 8 106 10 120 2
14 7 61 10 105 3 44 10 114 15 155 5 41 12 104 15 140 8 89 28 253 39 325 3
17 8 62 11 100 4 39 20 160 36 270 16 110 32 218 35 240 4 34 23 145 39 235 2
14 15 93 29 175 14 83 28 164 31 180 17 83 47 244 51 275 3 19 12 62 19 95 8
33 21 98 30 145 10 47 42 193 72 325 80 352 99 433 117 500 9 33 34 130 56
215 22 85 45 168 50 185 5 16 24 82 41 145 17 63 37 133 44 155 7 22 22 72 33
110 129 434 324 1009 462 1365 29 74 63 162 75 195 32 85 63 162 86 211 10 24
19 45 19 48 0 9 174 414 248 576 201 444 462 964 660 1315 168 298 477 778
690 1070 520 713 1073 1220 1622 1490 118 58 359 154 426 170 10 3 44 12 74
20 110 32 345 80 515 106 39 6 110 17 159 25 49 8 103 14 119 14 35 0 234
-101 412 -210 935 -570 1722 -1377 2536 -2602 78 -117 163 -240 190 -274 122
-154 273 -217 432 -180 155 36 291 177 459 471 67 117 160 307 202 410 20 50
41 99 46 110 20 45 81 227 109 325 57 199 94 374 116 545 9 66 20 143 24 171
15 99 13 611 -3 734 -8 63 -14 116 -13 116 10 8 423 -118 777 -236 279 -94
452 -157 850 -310 92 -35 261 -104 315 -129 22 -10 51 -22 65 -26 24 -7 261
-109 373 -159 28 -13 72 -33 97 -44 179 -80 256 -115 335 -152 167 -78 670
-322 675 -326 2 -3 -2 -15 -10 -27 -60 -96 -189 -346 -248 -482 -97 -222 -212
-575 -267 -815 -32 -139 -65 -293 -80 -375 -4 -22 -9 -49 -11 -60 -6 -33 -62
-436 -68 -491 -13 -119 -35 -390 -44 -552 -13 -243 -9 -1215 6 -1327 40 -305
151 -552 292 -650 33 -23 45 -26 81 -20 102 17 241 109 469 310 63 56 142 123
175 150 79 64 319 223 370 245 45 19 440 261 665 406 117 75 441 275 640 394
222 133 233 139 535 307 232 129 619 310 870 408 239 93 203 91 320 22 403
-241 1047 -528 1485 -662 30 -9 84 -26 120 -37 58 -17 259 -74 350 -99 34 -9
138 -34 190 -45 260 -56 526 -106 635 -119 42 -5 113 -16 133 -20 10 -1 46 -6
82 -9 36 -4 81 -9 100 -11 213 -28 463 -40 840 -40 409 0 547 9 865 54 116 17
144 21 309 52 87 16 160 28 162 26 2 -2 -12 -50 -30 -108 -68 -208 -113 -432
-136 -669 -20 -211 -9 -588 24 -805 2 -16 9 -65 16 -107 14 -101 12 -90 58
-273 23 -88 43 -171 46 -185 25 -124 75 -279 151 -475 13 -33 33 -87 45 -120
57 -155 314 -782 385 -940 13 -27 89 -198 170 -380 80 -181 164 -368 186 -413
21 -46 39 -86 39 -87 0 -2 18 -43 41 -92 23 -48 68 -149 101 -223 33 -74 75
-168 94 -208 19 -40 34 -75 34 -77 0 -4 28 -69 75 -170 12 -27 44 -99 70 -160
25 -60 50 -119 55 -130 126 -286 343 -837 430 -1090 103 -302 218 -663 235
-740 2 -11 9 -36 14 -55 17 -61 50 -194 55 -220 2 -14 16 -81 30 -150 86 -427
95 -951 21 -1310 -2 -14 -10 -50 -15 -80 -30 -153 -110 -387 -191 -555 -79
-165 -150 -280 -262 -427 -73 -96 -84 -135 -46 -161 26 -19 46 -13 181 49 218
103 547 288 795 450 557 362 1192 913 1574 1364 610 721 1037 1548 1228 2380
88 379 121 672 122 1063 0 203 -2 267 -17 397 -8 75 11 27 70 -178 72 -248
179 -676 200 -797 6 -36 13 -71 20 -93 3 -9 8 -35 11 -57 3 -23 8 -52 11 -65
13 -62 33 -169 38 -205 3 -22 14 -98 25 -170 24 -159 48 -367 56 -495 4 -52 9
-106 11 -120 10 -53 13 -633 4 -775 -26 -404 -95 -816 -194 -1155 -9 -30 -18
-63 -20 -72 -10 -38 -106 -317 -125 -362 -23 -53 -27 -106 -9 -124 28 -28 70
-13 162 57 585 446 1151 1065 1610 1761 136 205 131 196 247 400 167 290 304
569 429 871 28 68 55 133 60 144 12 29 73 195 113 310 40 114 121 384 167 559
32 118 36 138 46 186 3 14 16 75 29 135 23 110 60 307 70 381 3 21 8 49 10 61
3 12 7 41 10 65 3 24 12 99 20 168 21 183 24 213 32 340 15 224 7 1035 -11
1092 -3 7 -7 47 -10 88 -3 41 -11 112 -17 158 -6 46 -9 85 -8 87 13 13 457
-553 651 -830 531 -757 900 -1427 1202 -2185 54 -135 104 -258 111 -275 7 -16
36 -86 65 -155 64 -156 113 -260 168 -364 24 -45 53 -103 65 -129 37 -83 70
-76 188 42 117 118 243 305 315 467 14 32 34 77 44 99 63 139 231 687 256 835
2 14 11 57 19 95 20 97 35 183 40 225 3 19 7 49 10 65 6 39 12 86 20 160 4 32
9 68 11 79 25 128 24 875 -1 1016 -2 14 -9 66 -15 115 -9 75 -43 296 -55 354
-5 25 -13 58 -60 256 -9 40 -22 86 -57 200 -44 141 -57 186 -86 285 -17 55
-88 232 -152 375 -10 22 -45 101 -77 175 -49 112 -99 204 -221 414 -13 22 281
-165 402 -257 379 -286 663 -622 816 -964 l48 -108 39 -3 c55 -4 66 13 64 96
-1 37 -4 83 -6 102 -2 19 -6 62 -10 95 -11 101 -14 118 -41 256 -26 133 -29
150 -39 189 -3 11 -7 28 -9 39 -10 43 -90 292 -118 366 -228 601 -524 1080
-956 1552 -317 345 -805 701 -1287 938 -150 73 -426 195 -443 195 -3 0 81 -44
188 -98 331 -166 557 -305 825 -507 346 -261 639 -555 881 -885 130 -177 142
-195 238 -355 174 -289 315 -601 431 -955 69 -212 165 -580 150 -580 -2 0 -18
24 -36 52 -100 157 -356 434 -529 574 -188 152 -388 286 -608 405 l-122 66
-91 133 c-109 160 -448 612 -416 555 3 -5 80 -134 172 -285 189 -310 265 -447
265 -477 0 -11 8 -27 17 -34 15 -13 46 -74 180 -359 27 -58 62 -141 77 -185
16 -44 32 -89 37 -100 10 -22 76 -205 89 -245 5 -14 20 -56 34 -95 44 -116
132 -477 161 -655 3 -19 8 -42 10 -50 2 -8 7 -40 11 -70 9 -79 11 -95 18 -127
3 -15 8 -59 12 -98 3 -38 7 -72 9 -75 18 -29 27 -724 12 -935 -15 -225 -61
-516 -128 -810 -51 -222 -122 -441 -244 -750 -99 -252 -134 -343 -150 -393
-10 -29 -21 -54 -25 -57 -4 -3 -11 23 -15 58 -17 151 -70 360 -149 592 -71
211 -85 248 -141 370 -15 33 -34 78 -43 100 -28 71 -197 399 -288 557 -420
735 -1052 1525 -1673 2089 l-104 95 -13 80 c-7 43 -15 90 -18 104 -2 14 -9 48
-15 75 -36 180 -114 497 -175 705 -43 149 -147 455 -159 467 -28 28 -94 15
-103 -21 -6 -25 -3 -40 25 -148 11 -43 27 -108 35 -145 8 -38 26 -120 39 -183
14 -63 29 -133 32 -155 10 -55 12 -66 34 -185 20 -111 55 -344 67 -445 3 -33
7 -67 9 -75 1 -8 6 -49 10 -90 4 -41 9 -86 10 -100 55 -517 56 -1144 4 -1585
-13 -112 -15 -126 -23 -200 -7 -60 -60 -388 -71 -435 -3 -14 -10 -45 -14 -70
-26 -134 -36 -180 -77 -345 -25 -99 -49 -193 -54 -210 -6 -16 -19 -64 -31
-105 -11 -41 -42 -142 -69 -225 -44 -137 -75 -225 -158 -450 -146 -395 -424
-961 -690 -1405 -169 -282 -457 -699 -657 -952 -198 -251 -521 -625 -531 -615
-2 2 8 30 22 63 78 175 164 446 214 674 17 80 33 156 35 170 2 14 13 90 25
170 31 215 35 298 35 715 -1 335 -7 516 -20 565 -2 8 -6 50 -10 93 -4 43 -8
88 -10 100 -3 12 -6 38 -9 57 -4 38 -16 116 -20 140 -2 8 -6 38 -10 65 -4 28
-9 59 -11 70 -3 20 -83 416 -90 445 -2 8 -18 71 -35 140 -18 69 -33 130 -34
135 -2 6 -8 30 -15 55 -8 25 -14 50 -15 55 -10 46 -130 427 -181 575 -67 191
-191 507 -269 685 -80 179 -252 528 -337 681 -113 203 -113 203 -164 190 -48
-12 -49 -35 -11 -199 19 -84 42 -190 50 -237 8 -47 20 -110 25 -140 6 -30 13
-71 16 -90 3 -19 7 -46 10 -60 2 -14 7 -47 10 -75 3 -27 7 -59 9 -70 2 -11 6
-45 10 -75 3 -30 10 -95 16 -145 12 -107 25 -396 25 -550 0 -166 -16 -483 -30
-585 -2 -19 -7 -60 -10 -90 -13 -110 -48 -325 -72 -435 -8 -38 -21 -100 -28
-137 -26 -126 -147 -537 -184 -623 -5 -11 -26 -65 -46 -120 -21 -55 -46 -118
-56 -140 -9 -22 -32 -74 -49 -115 -79 -183 -281 -562 -397 -745 -304 -474
-575 -809 -1007 -1241 -326 -326 -567 -536 -906 -793 -184 -139 -394 -291
-403 -291 -4 0 23 48 60 108 64 103 127 223 172 327 12 28 26 59 31 70 44 97
127 379 146 495 2 14 6 34 9 46 23 102 36 324 35 604 0 151 -2 286 -4 300 -2
14 -7 61 -11 105 -3 44 -8 96 -10 115 -3 19 -7 54 -9 76 -3 23 -12 84 -20 135
-8 52 -17 110 -20 129 -9 59 -66 329 -92 435 -87 355 -321 1063 -450 1362 -8
17 -14 34 -14 37 0 3 -23 61 -51 129 -27 67 -71 172 -95 232 -25 61 -57 134
-70 163 -13 29 -24 57 -24 62 0 6 -4 18 -10 28 -19 35 -250 582 -307 727 -19
50 -41 104 -48 120 -8 17 -55 127 -105 245 -51 118 -101 234 -111 257 -10 23
-19 44 -19 46 0 3 -17 43 -39 89 -21 45 -53 117 -70 158 -18 41 -44 100 -58
130 -116 252 -311 750 -409 1047 -64 192 -162 557 -178 663 -3 19 -8 46 -11
60 -43 193 -67 425 -66 663 0 114 2 211 5 215 2 4 7 34 10 67 8 76 14 123 21
157 4 15 8 40 10 57 8 61 54 238 93 356 188 568 544 1041 1029 1365 117 78
128 88 131 118 8 77 -47 81 -190 15 -289 -133 -531 -304 -750 -531 -190 -197
-359 -441 -470 -679 -38 -81 -40 -83 -76 -85 -20 -1 -48 -3 -62 -3 -208 -13
-271 -18 -300 -21 -51 -6 -683 -6 -760 0 -36 3 -110 8 -165 11 -289 15 -420
27 -630 56 -44 6 -98 12 -120 15 -136 15 -350 50 -490 80 -11 2 -36 7 -55 10
-19 3 -43 7 -52 10 -10 3 -30 8 -45 10 -157 28 -757 179 -881 220 -26 9 -51
17 -57 19 -94 19 -545 169 -920 305 -107 39 -381 148 -439 174 -31 14 -59 26
-62 26 -3 0 -20 6 -37 14 -18 8 -60 26 -94 40 -35 15 -86 37 -115 50 -29 13
-86 38 -126 56 -40 17 -134 60 -209 96 -74 35 -139 64 -143 64 -5 0 -12 6 -16
13 -4 6 -4 9 0 5 4 -3 29 0 54 7 26 8 58 16 72 19 14 3 63 14 110 24 47 11
137 32 200 47 63 14 178 41 255 60 77 19 154 36 170 39 17 3 66 15 110 26 44
11 121 30 170 41 50 11 97 22 105 24 21 6 230 55 255 60 11 2 29 6 40 9 52 13
325 76 346 80 13 2 62 13 109 24 47 11 99 23 115 26 50 9 112 23 275 60 85 19
169 37 185 40 17 3 39 8 50 10 68 16 632 136 705 150 14 2 88 18 165 35 l140
30 125 -30 c69 -16 141 -34 160 -39 19 -5 53 -12 75 -15 22 -4 60 -11 85 -17
25 -5 56 -12 70 -14 14 -3 50 -9 80 -15 30 -6 64 -12 75 -14 52 -10 344 -53
405 -61 19 -2 49 -6 65 -9 17 -2 62 -7 100 -10 39 -3 77 -8 85 -10 8 -2 53 -6
100 -10 47 -3 144 -10 215 -16 72 -5 307 -12 523 -15 365 -5 395 -5 413 12 22
20 25 62 6 87 -15 21 -21 22 -232 42 -33 3 -73 8 -90 10 -16 2 -59 7 -95 10
-459 42 -1120 155 -1580 270 -58 14 -112 28 -120 30 -8 1 -42 10 -75 19 -33 9
-71 19 -85 22 -14 2 -32 7 -40 10 -8 3 -40 12 -70 20 -50 13 -121 35 -285 85
-346 106 -884 305 -1109 409 -35 17 -66 30 -69 30 -3 0 -40 16 -84 36 -43 20
-132 61 -198 92 -251 116 -720 362 -882 463 -34 22 -64 39 -67 39 -15 0 -454
277 -644 407 -137 93 -152 106 -135 117 30 20 1121 376 1261 412 9 2 87 25
172 50 138 41 232 69 325 94 17 5 62 18 100 29 39 12 79 23 90 25 11 2 61 16
110 31 80 23 532 142 574 150 9 2 79 19 156 38 77 20 223 54 325 77 102 23
212 47 245 55 33 8 175 37 315 65 322 63 347 68 390 75 19 3 51 10 70 15 19 5
78 16 130 25 52 8 106 17 120 20 24 5 228 38 300 49 110 16 321 46 355 50 22
3 101 12 175 21 205 24 211 24 430 45 113 10 264 22 335 26 72 3 132 8 135 9
3 2 100 6 215 10 116 4 212 10 215 12 6 6 1095 -4 1205 -11z m21215 -41 c47
-3 164 -13 260 -21 96 -9 185 -16 198 -15 39 1 24 -14 -40 -38 -35 -13 -96
-39 -136 -57 -41 -19 -76 -34 -79 -34 -15 0 -320 -160 -439 -231 -866 -513
-1593 -1253 -2352 -2394 -81 -120 -170 -243 -199 -271 -65 -66 -144 -98 -203
-85 -98 22 -178 98 -289 274 -59 92 -187 336 -218 412 -7 17 -23 55 -36 85
-69 158 -168 496 -191 655 -4 22 -8 47 -11 55 -2 8 -7 35 -10 60 -3 25 -10 72
-15 105 -17 100 -24 547 -11 665 26 235 69 410 101 410 9 0 44 9 78 19 33 11
73 22 88 25 16 3 53 12 82 20 28 8 52 12 52 10 0 -3 8 0 18 5 9 5 31 11 47 14
17 3 58 12 93 21 34 9 82 21 105 25 23 5 117 25 209 45 92 19 207 42 255 51
137 25 424 73 468 79 22 3 85 12 140 20 55 8 129 18 165 21 36 4 72 8 80 10 8
1 47 6 85 9 39 4 106 11 150 16 44 5 127 12 185 16 58 3 107 7 110 9 3 2 95 6
205 10 110 4 202 10 205 12 6 6 736 -4 850 -12z m-38760 -180 c58 -2 137 -7
175 -10 249 -17 363 -27 385 -30 14 -2 54 -7 90 -10 36 -3 101 -10 145 -16 44
-6 98 -12 120 -15 22 -2 72 -9 110 -15 39 -6 86 -12 105 -15 19 -2 46 -6 60
-9 14 -3 43 -7 65 -10 22 -3 65 -10 95 -16 30 -5 73 -12 95 -15 66 -9 531
-103 645 -130 294 -71 400 -96 446 -110 l51 -15 11 -82 c41 -294 39 -607 -3
-917 -39 -281 -79 -451 -167 -715 -164 -492 -444 -973 -615 -1056 -110 -53
-200 -30 -306 79 -35 37 -123 156 -197 267 -347 522 -636 905 -981 1300 -143
164 -526 548 -684 686 -344 301 -712 566 -1053 759 -51 29 -92 53 -90 55 6 6
441 37 623 45 181 8 652 6 875 -5z m31238 -1895 c137 -161 349 -520 418 -705
10 -27 24 -61 31 -75 7 -14 13 -32 13 -40 0 -9 4 -20 9 -25 31 -33 162 -514
201 -740 11 -66 23 -131 25 -145 3 -14 14 -88 24 -165 18 -131 24 -186 36
-325 2 -30 10 -122 17 -205 17 -213 17 -1054 0 -1160 -20 -118 -48 -217 -82
-288 -54 -112 -43 -111 -167 -16 -59 46 -198 156 -308 244 -194 156 -524 410
-711 547 -314 230 -1209 808 -1559 1008 -286 163 -497 277 -698 378 -110 54
-135 71 -124 80 7 6 69 47 138 90 68 43 220 147 338 231 452 324 1102 727
1766 1096 28 15 88 49 135 75 47 26 144 78 215 115 72 38 144 77 160 87 17 10
37 17 45 16 8 -2 43 -37 78 -78z m8412 60 c48 -12 70 -17 109 -25 14 -2 82
-23 153 -46 242 -78 535 -245 803 -459 159 -127 532 -498 679 -674 292 -354
566 -755 836 -1226 193 -337 488 -950 635 -1320 21 -52 43 -108 50 -125 91
-210 318 -879 404 -1190 42 -150 51 -183 67 -235 11 -39 48 -180 60 -232 2
-10 6 -27 9 -38 42 -170 108 -456 119 -520 3 -14 16 -79 29 -145 14 -66 27
-133 30 -150 3 -16 12 -68 21 -115 8 -47 18 -105 21 -130 3 -25 8 -52 10 -60
6 -20 42 -261 51 -335 10 -90 12 -104 23 -185 6 -41 13 -104 16 -140 5 -61 9
-101 20 -195 4 -39 10 -107 20 -235 25 -316 33 -917 15 -1055 -6 -44 -14 -100
-16 -125 -3 -25 -12 -76 -20 -115 -8 -38 -19 -97 -25 -130 -41 -248 -229 -825
-364 -1120 -12 -27 -46 -102 -75 -165 -114 -254 -361 -707 -555 -1020 -555
-893 -1318 -1854 -2335 -2940 -234 -251 -989 -1008 -1310 -1314 -304 -291
-687 -649 -698 -653 -7 -3 -26 57 -108 332 -71 237 -74 249 -79 274 -2 13 -11
45 -19 70 -16 49 -100 386 -115 461 -5 25 -16 77 -24 115 -9 39 -18 82 -21 95
-2 14 -11 57 -19 95 -9 39 -18 84 -20 100 -3 17 -19 109 -35 205 -17 96 -33
191 -36 210 -3 19 -12 78 -20 130 -8 52 -17 118 -21 145 -21 181 -33 282 -32
295 0 18 -13 155 -18 190 -2 14 -7 70 -10 125 -3 55 -8 123 -10 150 -4 58 -13
188 -20 295 -3 41 -9 134 -15 205 -5 72 -12 168 -15 214 -2 47 -9 130 -14 185
-6 56 -13 130 -16 166 -8 90 -43 366 -60 475 -8 50 -16 108 -19 130 -6 45 -86
444 -110 545 -8 36 -17 76 -20 90 -3 14 -19 81 -36 150 -17 69 -33 133 -35
144 -5 21 -72 254 -112 386 -32 107 -157 475 -188 555 -249 643 -436 1040
-732 1558 -46 81 -83 154 -81 161 6 28 278 336 448 507 396 398 687 603 1115
784 44 19 216 74 247 79 71 12 93 55 57 113 -27 43 -212 211 -337 305 -269
202 -609 371 -977 483 -66 20 -129 38 -140 41 -11 2 -76 17 -145 34 -69 16
-206 41 -305 55 -191 28 -202 29 -335 41 -120 10 -109 10 -382 12 -146 1 -248
6 -248 11 0 19 264 183 420 260 146 73 407 173 510 195 14 3 74 16 135 29 107
22 110 24 118 54 8 27 4 39 -38 104 -151 234 -366 423 -707 623 -316 185 -682
270 -980 227 -32 -4 -58 -6 -58 -5 0 1 31 67 68 146 137 287 312 593 530 923
358 544 698 961 1177 1441 480 481 932 847 1420 1149 61 37 127 78 147 91 21
13 40 24 44 24 3 0 18 8 32 18 105 73 497 264 787 383 34 14 106 31 190 45 94
16 414 11 485 -6z m-33162 -145 c409 -208 1059 -566 1607 -888 284 -167 924
-553 966 -583 26 -19 51 -34 56 -34 5 0 25 -12 44 -26 33 -25 251 -159 290
-179 27 -14 24 -20 -18 -40 -21 -9 -56 -25 -78 -35 -22 -10 -64 -26 -93 -36
-57 -18 -82 -44 -82 -85 0 -33 1 -33 229 -190 159 -109 171 -119 149 -128 -13
-5 -67 -29 -120 -54 -53 -25 -120 -52 -150 -62 -29 -9 -67 -23 -85 -31 -17 -8
-35 -14 -40 -14 -14 0 -237 -101 -362 -164 -405 -204 -934 -531 -1344 -833
-275 -202 -428 -308 -597 -415 -348 -220 -396 -255 -615 -448 -161 -142 -263
-219 -334 -253 l-44 -21 -47 51 c-25 27 -63 85 -84 129 -41 82 -91 266 -100
362 -3 31 -9 82 -13 112 -4 30 -8 262 -7 515 0 430 11 719 35 980 6 61 12 137
15 170 8 98 43 361 65 490 11 66 23 134 25 150 3 17 10 47 15 67 5 20 12 56
15 79 5 37 87 365 113 454 76 258 170 501 281 724 66 135 164 301 176 301 2 0
62 -29 132 -65z m-7754 -409 c133 -22 469 -173 814 -365 1032 -576 1983 -1489
2758 -2646 147 -221 350 -549 403 -652 25 -50 33 -48 -109 -29 -85 11 -299 12
-390 2 -167 -19 -436 -90 -557 -146 -24 -11 -45 -20 -48 -20 -13 0 -225 -109
-290 -150 -107 -66 -246 -172 -330 -252 -113 -106 -118 -127 -37 -148 142 -39
394 -158 562 -267 256 -166 505 -413 769 -762 31 -42 61 -81 64 -88 4 -7 -30
5 -75 27 -232 108 -489 175 -813 212 -204 23 -579 15 -845 -17 -40 -5 -195
-34 -296 -55 -231 -49 -576 -167 -806 -275 -94 -44 -96 -51 -39 -169 52 -107
132 -217 263 -363 475 -528 1027 -917 1703 -1203 11 -4 37 -15 58 -25 53 -23
92 -17 92 15 0 22 -18 34 -155 103 -390 197 -714 405 -1002 642 -162 134 -552
521 -750 745 -81 91 -145 166 -144 168 2 1 89 18 193 37 105 19 201 36 214 39
13 3 38 8 54 10 55 9 140 24 165 30 14 3 41 8 60 11 19 2 76 11 125 19 423 69
611 85 990 81 251 -2 322 -6 435 -24 74 -13 151 -25 170 -28 19 -3 94 -20 167
-39 112 -28 182 -53 384 -137 45 -18 58 -5 48 48 -27 145 -247 462 -485 701
-285 286 -643 508 -966 598 -32 9 -58 18 -58 20 0 5 157 98 270 161 138 77
348 176 475 225 11 4 34 13 50 20 122 50 358 112 515 135 108 15 345 19 414 7
35 -6 42 -13 73 -72 19 -36 58 -110 87 -165 282 -530 514 -1173 610 -1685 26
-142 29 -158 47 -312 l12 -97 -105 -118 c-468 -527 -888 -1111 -1238 -1722
-155 -272 -385 -734 -487 -981 -19 -47 -41 -98 -48 -115 -109 -251 -274 -738
-364 -1075 -43 -159 -101 -398 -107 -440 -3 -19 -9 -51 -14 -70 -21 -84 -93
-509 -105 -625 -27 -249 -32 -308 -40 -425 -2 -41 -7 -115 -10 -165 -3 -49
-13 -247 -21 -440 -20 -456 -22 -506 -29 -595 -3 -41 -8 -111 -10 -155 -3 -44
-8 -91 -10 -105 -2 -14 -7 -63 -10 -110 -4 -47 -10 -114 -15 -150 -5 -36 -12
-92 -15 -125 -4 -33 -13 -107 -21 -165 -9 -58 -18 -125 -20 -150 -5 -37 -25
-159 -81 -485 -2 -16 -14 -73 -25 -125 -11 -52 -22 -108 -25 -125 -2 -16 -14
-70 -25 -120 -24 -108 -36 -161 -44 -195 -2 -14 -31 -128 -64 -255 -104 -407
-248 -859 -405 -1270 -15 -38 -37 -97 -50 -131 -48 -129 -149 -364 -156 -364
-24 0 -934 714 -1394 1095 -660 546 -1161 990 -1720 1525 -1222 1170 -1972
2067 -2538 3035 -132 226 -318 603 -380 770 -86 232 -159 466 -181 585 -2 14
-11 57 -20 95 -8 39 -17 93 -20 120 -4 28 -8 61 -11 75 -26 134 -29 628 -6
890 6 63 13 144 16 180 6 69 31 292 39 350 3 19 12 86 21 148 9 62 18 122 20
133 2 11 9 53 14 92 10 68 53 314 65 367 3 13 8 42 11 65 8 55 61 298 115 530
17 72 33 141 36 155 3 14 10 43 16 65 6 22 13 49 15 60 2 11 10 43 18 70 8 28
37 136 65 240 29 105 63 228 78 275 14 47 27 91 28 99 2 8 19 67 40 130 20 64
54 172 76 241 48 151 175 527 187 555 5 11 19 47 30 80 11 33 32 92 46 130 14
39 30 81 34 95 5 14 17 48 29 75 11 28 39 100 62 160 55 144 178 445 230 560
5 11 43 98 85 193 165 377 364 776 570 1147 257 461 601 985 859 1305 660 821
1218 1204 1841 1264 62 6 226 -3 319 -18z m36348 -3757 c348 -63 678 -256
1138 -665 l144 -128 -42 -13 c-23 -6 -55 -14 -70 -17 -174 -31 -520 -183 -774
-339 -170 -105 -365 -250 -380 -282 -15 -33 3 -73 34 -79 13 -3 124 -10 248
-16 358 -18 695 -56 930 -106 128 -27 362 -84 435 -106 39 -11 71 -20 72 -20
6 2 241 -81 350 -124 165 -65 476 -220 613 -306 148 -93 270 -178 270 -188 0
-4 -12 -11 -27 -15 -57 -14 -261 -98 -363 -149 -417 -210 -815 -546 -1254
-1058 -60 -70 -112 -126 -116 -123 -4 2 -33 46 -65 97 -255 406 -602 866 -947
1255 -179 202 -569 587 -770 762 l-166 145 4 55 c4 51 37 287 47 336 6 30 18
94 18 100 0 2 5 19 10 37 5 18 12 47 15 63 31 174 132 487 260 807 l39 97 45
4 c76 5 190 -3 302 -24z m-37112 -17954 c52 -3 127 -8 165 -11 39 -4 77 -6 85
-6 18 0 279 -25 347 -33 42 -5 159 -20 233 -30 14 -2 52 -7 85 -10 33 -4 62
-8 65 -10 3 -2 30 -6 60 -10 30 -3 96 -13 145 -22 50 -8 104 -17 120 -19 17
-3 53 -9 80 -15 28 -5 66 -12 85 -15 31 -5 157 -32 445 -94 50 -11 155 -38
235 -61 80 -22 183 -51 230 -64 131 -37 510 -168 535 -185 6 -4 28 -13 50 -20
99 -32 468 -207 630 -300 22 -12 60 -34 85 -48 95 -54 389 -254 479 -326 392
-314 706 -665 925 -1036 85 -143 164 -300 171 -338 15 -88 -81 -175 -167 -152
-18 5 -49 12 -68 15 -19 3 -87 16 -150 30 -101 21 -161 33 -260 51 -14 2 -59
11 -100 18 -67 13 -109 20 -175 31 -11 2 -49 9 -85 15 -36 7 -77 14 -93 16
-15 1 -89 13 -165 24 -158 25 -182 28 -237 35 -22 3 -92 12 -155 20 -175 22
-456 53 -545 60 -44 3 -93 8 -110 10 -16 2 -73 7 -125 10 -52 3 -117 8 -145
10 -216 17 -670 27 -1015 21 -217 -3 -408 -8 -425 -10 -16 -3 -75 -7 -130 -10
-115 -7 -214 -15 -267 -21 -35 -5 -37 -4 -79 63 -73 117 -233 323 -346 447
-180 196 -435 408 -627 520 -47 28 -85 54 -86 58 0 5 100 6 223 3 250 -6 319
-11 497 -32 69 -8 145 -17 170 -19 25 -3 56 -7 70 -10 14 -3 43 -7 65 -10 39
-6 176 -30 225 -40 14 -3 39 -8 55 -11 26 -4 211 -46 255 -58 505 -134 903
-338 1192 -613 36 -34 72 -64 80 -64 7 -1 20 -2 28 -3 23 -2 68 22 80 43 28
53 11 89 -136 281 -282 369 -663 737 -1049 1011 -185 132 -564 379 -581 379
-2 0 -23 12 -47 27 -150 94 -589 318 -842 430 -211 92 -214 94 -140 88 33 -3
103 -7 155 -10z m43045 5 c-3 -5 -11 -10 -16 -10 -6 0 -29 -9 -52 -19 -23 -11
-96 -43 -162 -71 -66 -29 -223 -103 -350 -164 -908 -443 -1626 -997 -2131
-1647 -147 -189 -157 -206 -152 -269 5 -49 9 -58 47 -91 47 -42 68 -48 126
-36 31 6 60 28 135 100 301 292 787 525 1376 662 136 31 328 67 429 80 70 8
118 15 146 20 72 13 308 34 434 39 77 4 187 9 245 12 l105 6 -134 -90 c-374
-250 -662 -538 -920 -919 l-62 -92 -62 5 c-34 3 -77 7 -94 9 -18 2 -90 6 -160
10 -71 4 -139 9 -153 11 -14 3 -200 7 -415 11 -439 7 -833 -6 -1285 -42 -56
-5 -467 -47 -570 -59 -277 -32 -789 -113 -1115 -176 -55 -11 -113 -22 -130
-25 -16 -2 -104 -21 -194 -40 l-163 -35 -42 19 c-50 22 -86 73 -86 123 0 41
82 212 182 377 274 456 688 880 1179 1209 214 143 544 319 820 438 161 68 470
184 561 209 29 8 82 23 118 35 99 32 499 137 588 154 15 3 56 12 92 20 70 15
196 41 245 50 124 23 438 75 475 79 25 3 77 10 115 16 124 18 369 46 490 56
44 4 98 8 120 10 50 5 303 24 370 28 28 2 51 4 53 5 2 1 0 -2 -3 -8z m-21315
-2575 c102 -3 196 -7 208 -10 12 -2 61 -7 110 -10 83 -6 329 -38 382 -50 14
-3 43 -8 65 -11 87 -12 278 -57 430 -100 740 -211 1252 -585 1505 -1099 76
-154 138 -352 155 -490 3 -27 10 -79 14 -115 10 -71 7 -415 -3 -495 -14 -108
-37 -249 -47 -293 -16 -71 -24 -104 -34 -139 -2 -10 -9 -36 -14 -58 -10 -41
-52 -157 -76 -210 -8 -16 -27 -59 -43 -95 -16 -36 -57 -112 -92 -170 -257
-426 -638 -766 -1180 -1052 -72 -38 -131 -66 -295 -138 -213 -95 -699 -250
-781 -250 -25 0 -26 2 -20 48 4 26 8 63 10 82 15 121 66 291 121 400 87 175
265 375 443 500 181 127 436 245 657 304 55 15 114 31 130 36 38 11 229 47
320 59 57 8 39 9 -95 6 -91 -3 -176 -7 -190 -9 -14 -3 -59 -10 -100 -16 -662
-98 -1174 -442 -1383 -932 -49 -113 -107 -342 -114 -446 -3 -47 -11 -85 -17
-87 -6 -2 -24 -6 -41 -9 -16 -2 -50 -9 -75 -14 -25 -6 -62 -13 -82 -16 -21 -3
-57 -10 -80 -15 -24 -5 -65 -12 -92 -16 -27 -3 -52 -8 -55 -10 -3 -1 -40 -6
-81 -9 -41 -4 -86 -8 -100 -10 -14 -2 -74 -7 -135 -11 -134 -8 -273 4 -570 50
-11 1 -42 6 -70 10 -27 4 -68 11 -90 15 -22 5 -56 11 -75 15 -19 3 -60 11 -90
17 -30 6 -59 12 -64 12 -5 1 -10 35 -11 76 -4 149 -60 356 -143 525 -131 268
-378 502 -692 660 -97 49 -340 139 -406 151 -14 3 -56 12 -93 20 -36 9 -82 18
-101 20 -19 2 -44 6 -55 8 -76 17 -351 33 -420 25 -34 -4 -40 -6 -19 -7 142
-8 536 -105 689 -171 11 -5 49 -21 85 -36 223 -94 481 -274 616 -431 188 -218
281 -432 313 -716 l7 -68 -25 5 c-14 3 -51 12 -81 20 -30 9 -64 18 -75 20 -63
14 -251 76 -415 136 -709 260 -1244 658 -1579 1173 -82 127 -132 227 -194 386
-72 187 -135 419 -153 560 -3 30 -8 66 -11 80 -12 66 -15 395 -4 481 23 193
30 225 82 394 132 429 454 817 879 1059 59 34 102 55 240 118 168 77 623 215
795 241 17 3 84 14 150 26 129 22 327 46 465 56 47 3 121 9 165 12 88 7 1284
21 1380 16 33 -1 143 -5 245 -8z m-15455 -2929 c72 -8 153 -18 180 -21 28 -3
77 -10 110 -15 33 -5 78 -12 100 -15 105 -15 374 -72 475 -101 157 -45 202
-59 285 -86 272 -91 361 -130 406 -178 77 -83 73 -171 -12 -252 -33 -33 -58
-48 -76 -49 -16 0 -37 -2 -48 -4 -11 -2 -69 -8 -130 -15 -130 -13 -137 -14
-285 -35 -63 -9 -137 -20 -165 -25 -27 -6 -66 -12 -85 -14 -31 -4 -104 -18
-165 -30 -123 -26 -231 -49 -233 -51 -1 -1 1 -10 4 -20 9 -21 43 -18 264 24
170 32 390 57 670 76 90 7 103 23 -130 -165 -759 -616 -1255 -1134 -1623
-1695 -173 -265 -349 -605 -433 -837 -72 -198 -117 -349 -146 -480 -13 -60
-27 -108 -33 -108 -5 0 -23 8 -40 18 -30 19 -70 41 -180 102 -622 343 -1356
822 -1990 1299 -376 283 -951 756 -1265 1040 -316 286 -687 637 -680 643 3 3
88 30 190 61 102 30 309 94 460 141 151 48 307 96 345 108 39 11 117 36 175
55 58 18 118 36 134 39 16 2 36 9 45 13 24 13 783 231 851 245 14 3 104 26
200 50 96 25 186 47 200 49 14 3 72 16 130 30 109 26 141 33 200 42 19 3 51
10 70 15 19 5 53 11 75 15 22 3 56 10 75 15 19 4 54 11 77 14 22 3 52 7 65 10
12 3 37 7 53 10 17 2 57 9 90 15 33 5 85 13 115 17 30 3 64 8 75 9 133 20 341
41 525 55 183 13 922 4 1075 -14z m31390 14 c223 -16 287 -22 395 -35 8 -1 44
-5 80 -10 36 -4 74 -9 85 -11 11 -2 43 -6 70 -9 28 -3 61 -8 75 -10 14 -3 41
-7 60 -10 56 -8 161 -26 215 -37 28 -5 66 -12 85 -15 113 -16 531 -110 830
-188 316 -81 373 -97 665 -184 297 -88 351 -104 440 -132 33 -10 134 -42 225
-70 91 -28 237 -73 325 -100 88 -28 250 -78 359 -112 l199 -61 -69 -65 c-1312
-1224 -2550 -2146 -3898 -2903 -77 -43 -140 -77 -141 -76 -1 2 -14 53 -30 113
-41 164 -115 380 -188 550 -51 121 -231 462 -310 588 -235 375 -461 652 -846
1038 -332 331 -609 574 -1060 929 -194 152 -220 183 -221 258 0 50 38 120 80
148 61 40 413 171 565 209 17 5 35 10 40 11 24 8 285 73 311 78 16 3 76 14
134 25 58 11 130 23 160 26 30 4 64 9 75 10 11 2 40 6 65 9 25 4 56 9 70 11
14 2 61 7 105 11 44 3 121 9 170 14 136 11 721 11 880 0z m-16328 -4012 c287
-324 652 -626 1029 -852 l102 -61 -46 -70 c-57 -89 -196 -227 -292 -292 -162
-109 -354 -186 -569 -229 -68 -13 -126 -22 -128 -20 -2 2 -21 0 -41 -5 -38 -9
-349 -12 -412 -4 -19 3 -55 7 -80 10 -179 22 -331 62 -505 132 -117 47 -200
92 -308 166 -83 56 -237 196 -237 214 0 5 26 21 58 37 255 125 617 378 884
620 109 98 336 329 403 409 21 26 42 47 45 47 4 0 47 -46 97 -102z"/>
<path d="M38005 29124 c-51 -5 -314 -43 -340 -48 -18 -4 -211 -51 -245 -60
-80 -21 -340 -118 -470 -176 -931 -410 -1882 -1240 -2741 -2390 -185 -248
-399 -569 -399 -600 0 -33 31 -62 64 -62 17 0 197 137 618 474 892 713 1088
862 1493 1131 729 485 1428 802 1921 871 111 16 380 19 464 5 30 -5 73 -11 95
-14 145 -22 375 -101 522 -181 420 -228 827 -647 1233 -1268 122 -187 139
-203 189 -175 26 15 26 17 26 134 0 66 -3 143 -7 170 -4 28 -9 73 -12 100 -3
28 -10 75 -15 105 -6 30 -13 69 -16 86 -3 18 -17 76 -31 130 -193 733 -669
1321 -1289 1591 -174 76 -315 119 -485 148 -52 9 -106 18 -120 21 -33 7 -404
13 -455 8z"/>
<path d="M18320 27677 c-3 -2 -50 -7 -105 -11 -189 -11 -420 -55 -601 -115
-686 -225 -1213 -834 -1402 -1621 -57 -237 -73 -379 -73 -640 1 -228 2 -237
32 -420 14 -81 22 -96 53 -104 41 -10 73 9 86 51 7 21 46 115 86 208 328 769
667 1242 1089 1520 314 207 620 295 1024 293 145 0 203 -4 346 -23 102 -13
236 -39 370 -71 55 -14 111 -27 125 -30 14 -2 36 -9 50 -13 14 -5 39 -12 55
-16 109 -22 697 -220 730 -245 6 -4 28 -13 50 -20 63 -20 391 -163 615 -267
237 -111 672 -331 986 -499 121 -64 262 -139 314 -166 52 -28 113 -61 135 -73
22 -12 83 -45 135 -72 52 -28 152 -80 221 -117 161 -84 204 -86 214 -9 3 25
-23 55 -248 278 -360 357 -654 612 -1032 895 -336 251 -561 400 -905 598 -142
81 -516 272 -595 304 -22 9 -65 27 -96 41 -193 89 -675 244 -849 273 -14 2
-47 9 -75 15 -27 6 -70 13 -95 15 -25 3 -51 7 -59 10 -8 2 -46 7 -85 10 -39 3
-78 8 -86 10 -21 7 -404 17 -410 11z"/>
<path d="M20710 24161 c0 -14 9 -21 33 -26 46 -10 268 -91 344 -126 35 -16 66
-29 68 -29 28 0 392 -192 565 -298 614 -377 1171 -926 1622 -1598 116 -172
276 -440 358 -599 156 -301 192 -365 205 -365 7 0 15 5 17 11 4 11 -76 252
-126 381 -179 466 -459 937 -797 1343 -109 130 -387 409 -514 514 -124 103
-308 237 -440 321 -109 69 -405 223 -500 260 -33 13 -64 26 -70 30 -32 23
-404 133 -536 158 -237 47 -229 46 -229 23z"/>
<path d="M36540 24165 c-41 -7 -91 -15 -110 -18 -123 -20 -403 -108 -565 -177
-733 -311 -1352 -833 -1822 -1537 -168 -252 -334 -561 -427 -794 -75 -189
-182 -495 -178 -507 10 -32 37 0 103 126 39 75 97 184 127 242 136 260 327
566 500 800 649 877 1467 1503 2353 1801 100 34 129 48 129 61 0 21 -6 21
-110 3z"/>
<path d="M19105 23420 c-102 -10 -166 -17 -210 -25 -17 -2 -43 -7 -60 -9 -16
-2 -52 -9 -80 -15 -27 -6 -61 -13 -75 -15 -61 -12 -224 -58 -318 -91 -560
-193 -1054 -574 -1433 -1103 -160 -223 -339 -546 -449 -807 -50 -119 -67 -159
-86 -203 -8 -18 -14 -37 -14 -43 0 -6 -6 -25 -14 -42 -27 -58 -149 -463 -181
-597 -42 -179 -108 -520 -120 -622 -3 -23 -14 -110 -25 -193 -25 -199 -28
-232 -35 -350 -3 -55 -8 -129 -11 -165 -8 -82 -8 -760 0 -820 3 -25 8 -98 11
-162 3 -65 8 -125 9 -135 2 -10 7 -49 11 -88 3 -38 8 -83 10 -100 3 -16 12
-84 20 -150 13 -96 63 -417 80 -510 8 -45 49 -239 58 -275 4 -14 15 -61 26
-105 11 -44 27 -107 36 -140 10 -33 18 -67 20 -76 8 -42 122 -367 167 -479 65
-160 150 -337 226 -470 32 -58 58 -106 57 -108 -2 -2 -143 53 -210 83 -16 7
-82 34 -145 60 -63 26 -133 55 -155 65 -22 10 -74 33 -115 50 -77 33 -253 131
-327 181 -69 48 -123 32 -123 -36 0 -40 14 -50 205 -161 66 -38 172 -105 235
-149 364 -254 832 -509 1395 -760 255 -114 802 -316 1145 -424 91 -29 185 -59
210 -67 56 -18 280 -84 300 -89 8 -2 42 -11 75 -20 63 -17 157 -42 189 -50 11
-2 74 -18 140 -34 190 -47 428 -103 461 -108 17 -2 68 -13 115 -23 47 -10 101
-22 120 -25 19 -3 109 -20 200 -36 166 -30 325 -57 390 -64 19 -3 49 -7 65
-10 78 -12 405 -55 475 -61 30 -3 91 -9 135 -14 44 -5 116 -12 160 -15 44 -3
100 -8 125 -10 55 -6 150 -12 295 -20 61 -3 137 -8 170 -10 33 -3 170 -7 305
-10 329 -7 573 -16 583 -22 4 -3 111 -5 237 -5 252 -1 260 1 260 57 0 53 -14
57 -201 63 -168 5 -171 5 -166 26 10 39 15 61 72 281 49 188 83 328 100 410
12 55 52 238 87 390 38 168 116 541 143 685 8 41 16 86 19 100 3 14 10 54 16
90 5 36 12 76 14 90 14 78 53 342 61 410 5 42 11 90 20 150 5 27 42 365 50
445 58 601 65 1346 19 1835 -10 112 -34 336 -39 365 -3 17 -7 46 -9 65 -9 76
-69 420 -90 515 -6 27 -25 110 -37 160 -120 509 -347 1079 -587 1477 -199 329
-364 542 -620 802 -456 461 -985 785 -1658 1016 -82 28 -156 53 -164 55 -8 1
-42 11 -75 21 -33 10 -65 19 -72 20 -6 1 -27 7 -45 13 -45 14 -387 87 -508
107 -211 36 -652 53 -865 34z m610 -681 c147 -15 159 -16 285 -39 63 -11 124
-22 135 -24 269 -45 690 -173 930 -281 150 -68 238 -111 326 -160 124 -70 333
-204 327 -210 -3 -3 -27 -1 -54 4 -64 13 -748 7 -839 -7 -38 -5 -95 -13 -125
-16 -63 -7 -63 -7 -265 -46 -186 -36 -251 -53 -480 -126 -205 -66 -299 -104
-525 -213 -205 -98 -292 -148 -485 -276 -281 -186 -477 -347 -705 -581 -522
-535 -888 -1182 -1071 -1894 -6 -25 -11 -46 -11 -47 1 -2 -4 -17 -9 -35 -5
-18 -16 -64 -24 -103 -8 -38 -17 -81 -19 -95 -14 -61 -46 -297 -57 -415 -13
-134 -16 -586 -5 -710 11 -128 17 -179 31 -270 8 -49 16 -107 19 -127 3 -21
17 -89 31 -152 13 -63 26 -125 29 -138 19 -95 122 -414 186 -573 106 -266 263
-558 438 -813 85 -125 219 -300 276 -360 l31 -33 -130 47 c-71 25 -148 53
-170 61 -22 7 -49 17 -60 22 -11 5 -60 24 -110 41 -128 46 -560 214 -613 238
-25 11 -40 29 -57 66 -12 28 -33 74 -45 101 -51 111 -149 399 -175 512 -2 10
-18 72 -35 138 -49 196 -116 564 -135 745 -4 30 -8 62 -10 70 -2 8 -6 51 -10
95 -4 44 -9 100 -11 125 -27 271 -36 557 -31 935 3 209 8 403 11 430 3 28 7
91 11 140 3 50 7 101 10 115 2 14 7 59 10 100 3 41 11 111 16 155 6 44 12 100
15 125 3 25 9 70 14 100 5 30 12 73 15 95 3 22 9 54 12 70 7 32 7 33 18 105 6
38 56 275 86 405 5 22 12 51 15 65 27 123 182 612 224 704 10 22 39 92 65 154
140 335 355 688 582 952 225 263 518 489 811 626 94 45 356 137 417 148 17 3
50 10 75 16 85 21 235 40 360 47 69 3 126 7 128 8 6 5 223 -6 327 -16z m3127
-1941 c100 -173 214 -402 278 -558 12 -30 29 -70 37 -89 31 -70 143 -391 137
-391 -3 0 0 -9 6 -19 17 -32 139 -495 154 -581 3 -19 8 -46 11 -60 10 -42 45
-231 56 -302 l10 -67 -57 -83 c-265 -382 -623 -697 -1004 -886 -74 -37 -160
-77 -190 -90 -181 -72 -382 -120 -539 -128 -53 -3 -101 -7 -108 -9 -28 -9
-246 16 -335 39 -128 32 -283 109 -381 187 -207 166 -345 438 -363 712 -3 51
-7 97 -9 104 -4 12 10 196 20 268 13 96 80 340 115 423 61 140 169 344 236
444 356 531 897 936 1438 1078 64 16 133 33 152 36 20 3 46 8 58 10 11 3 66 9
121 13 55 5 105 9 110 10 6 0 27 -27 47 -61z m-3728 -3633 c158 -28 286 -95
402 -210 230 -229 283 -576 133 -866 -45 -86 -115 -173 -191 -236 -54 -45
-213 -129 -258 -137 -14 -2 -45 -9 -70 -15 -65 -15 -223 -13 -304 4 -91 19
-237 91 -307 152 -154 131 -250 308 -265 483 -3 36 -7 71 -9 78 -9 25 17 179
41 252 66 199 218 361 419 448 39 17 88 33 110 37 22 4 58 11 80 15 66 12 127
11 219 -5z"/>
<path d="M37580 23409 c-241 -27 -433 -66 -805 -163 -230 -61 -617 -212 -877
-343 -401 -202 -720 -433 -1039 -752 -333 -334 -588 -697 -800 -1136 -183
-382 -320 -783 -419 -1235 -12 -52 -23 -102 -24 -110 -22 -99 -91 -549 -101
-665 -3 -27 -7 -70 -10 -95 -51 -459 -51 -1456 0 -1915 2 -22 14 -130 25 -240
22 -219 29 -287 35 -325 10 -67 25 -179 29 -215 5 -39 63 -421 71 -460 2 -11
19 -105 39 -210 52 -284 158 -785 195 -923 10 -40 19 -75 20 -77 4 -26 44
-190 60 -245 6 -19 12 -46 15 -60 6 -30 60 -232 81 -303 8 -28 15 -56 15 -62
0 -9 -49 -14 -170 -17 -116 -3 -174 -9 -185 -18 -19 -16 -20 -74 -1 -89 10 -9
81 -12 243 -13 125 0 230 1 233 2 28 9 113 13 660 31 336 10 391 13 595 29 72
6 155 12 185 15 30 2 127 11 215 20 88 9 176 18 195 20 19 2 51 6 70 9 19 3
58 8 85 11 135 16 644 91 745 111 14 3 50 9 80 14 67 12 55 10 270 54 214 44
378 81 486 107 45 11 88 21 95 23 8 1 23 5 34 9 11 3 31 8 45 11 47 9 65 14
300 81 581 164 1148 364 1585 560 516 231 938 461 1352 736 73 49 203 129 290
180 212 123 213 123 213 164 0 38 -22 65 -52 65 -11 0 -87 -40 -169 -89 -102
-60 -216 -117 -357 -176 -114 -48 -220 -93 -237 -100 -97 -43 -258 -106 -261
-103 -2 2 13 31 33 63 66 111 169 319 231 468 108 258 241 687 278 892 3 17 9
46 15 66 8 31 19 85 34 164 8 41 64 392 69 430 3 22 12 92 21 155 59 445 74
1295 30 1680 -2 19 -7 60 -10 90 -8 77 -14 124 -25 205 -6 39 -12 86 -14 105
-9 78 -49 295 -83 450 -19 91 -36 170 -37 175 -1 6 -5 19 -9 30 -3 11 -8 31
-11 45 -15 83 -127 439 -189 600 -240 624 -530 1086 -918 1466 -192 187 -336
299 -544 423 -249 149 -584 281 -825 327 -14 2 -47 9 -75 15 -58 12 -74 15
-136 23 -25 4 -57 9 -70 11 -172 29 -585 31 -819 4z m580 -665 c52 -4 98 -8
101 -10 4 -2 28 -6 55 -9 169 -19 458 -105 636 -189 452 -212 837 -579 1147
-1094 75 -124 205 -383 256 -507 20 -49 42 -103 50 -120 72 -163 235 -701 269
-890 7 -38 11 -55 30 -135 8 -36 20 -94 25 -130 6 -36 13 -74 15 -85 2 -11 7
-40 11 -65 4 -25 9 -53 11 -62 19 -103 58 -432 69 -575 3 -46 8 -92 10 -103
19 -101 27 -967 11 -1220 -4 -74 -8 -142 -8 -150 0 -13 -7 -90 -23 -265 -8
-76 -34 -282 -40 -315 -3 -14 -8 -45 -11 -70 -3 -25 -14 -90 -24 -145 -11 -55
-21 -113 -25 -130 -38 -206 -127 -540 -187 -700 -45 -121 -109 -275 -132 -319
-22 -40 -34 -47 -231 -121 -33 -12 -138 -53 -234 -89 -226 -87 -635 -236 -647
-236 -3 0 9 17 26 38 282 333 529 740 684 1122 26 63 51 124 56 135 26 59 97
292 135 442 105 412 148 840 125 1257 -14 259 -16 277 -45 456 -8 47 -16 99
-19 115 -24 149 -87 389 -150 580 -292 874 -883 1650 -1649 2164 -230 154
-366 229 -692 381 -53 25 -233 91 -345 128 -238 78 -304 95 -495 132 -204 39
-203 39 -265 45 -30 3 -64 8 -75 10 -75 15 -193 20 -505 20 -195 0 -376 -3
-402 -7 -27 -3 -48 -5 -48 -3 0 5 210 139 290 185 172 100 469 232 695 309
163 55 489 139 610 157 11 1 52 9 90 17 65 14 144 27 205 32 14 1 41 6 61 10
103 20 344 24 579 9z m-3450 -1898 c36 -3 75 -7 86 -10 12 -2 38 -7 58 -10 19
-3 88 -20 152 -36 490 -128 990 -480 1339 -940 129 -171 249 -376 315 -540 12
-30 25 -62 29 -70 15 -28 71 -214 81 -268 5 -30 12 -57 14 -60 20 -32 29 -422
13 -527 -25 -166 -107 -352 -210 -480 -170 -211 -430 -340 -736 -365 -63 -5
-117 -7 -121 -5 -3 2 -37 5 -76 6 -280 7 -640 130 -957 327 -303 187 -620 492
-814 784 l-49 73 12 75 c7 41 15 89 18 105 4 17 9 46 12 65 7 50 43 224 60
295 8 33 17 71 20 85 38 190 196 681 288 895 8 17 26 59 41 95 41 96 138 290
207 412 l60 107 46 -4 c26 -3 76 -7 112 -9z m3755 -3677 c33 -5 74 -13 90 -15
17 -3 62 -19 100 -36 276 -119 454 -380 456 -669 1 -76 -8 -177 -17 -191 -3
-5 -8 -21 -10 -36 -10 -54 -93 -208 -145 -267 -29 -33 -80 -82 -113 -109 -60
-49 -193 -117 -251 -130 -16 -4 -50 -11 -75 -17 -57 -12 -222 -11 -275 3 -22
6 -51 12 -65 14 -45 7 -204 92 -260 138 -203 168 -304 430 -264 686 15 98 22
124 57 202 129 290 473 480 772 427z"/>
</g>
</svg>
