<?xml version="1.0" standalone="no"?>
<!DOCTYPE svg PUBLIC "-//W3C//DTD SVG 20010904//EN"
 "http://www.w3.org/TR/2001/REC-SVG-20010904/DTD/svg10.dtd">
<svg version="1.0" xmlns="http://www.w3.org/2000/svg"
 width="1500.000000pt" height="1500.000000pt" viewBox="0 0 1500.000000 1500.000000"
 preserveAspectRatio="xMidYMid meet">
<metadata>
Created by potrace 1.16, written by Peter Selinger 2001-2019
</metadata>
<g transform="translate(0.000000,1500.000000) scale(0.100000,-0.100000)"
fill="#000000" stroke="none">
<path d="M4380 13273 c-101 -52 -337 -539 -501 -1033 -177 -537 -324 -1176
-373 -1625 -40 -361 -47 -809 -21 -1235 30 -474 119 -1469 165 -1826 64 -498
160 -948 305 -1419 70 -227 72 -241 48 -248 -38 -11 -118 -17 -128 -10 -5 5
-40 53 -77 108 -184 277 -406 483 -575 535 -134 41 -227 22 -383 -81 -50 -33
-102 -59 -116 -59 -33 0 -53 11 -308 168 -369 227 -626 369 -646 357 -20 -13
-7 -34 74 -121 150 -161 477 -426 686 -556 167 -104 243 -102 389 11 106 80
145 101 192 101 82 0 258 -120 375 -256 78 -91 194 -245 194 -258 0 -7 -24
-29 -54 -50 -80 -55 -167 -151 -221 -244 l-48 -82 -41 25 c-23 14 -76 43 -119
65 -198 99 -303 78 -622 -120 -255 -158 -340 -190 -510 -190 -146 0 -220 19
-462 118 -44 18 -53 19 -63 7 -9 -11 0 -25 47 -70 197 -191 413 -272 646 -244
164 20 263 61 480 201 60 38 142 86 183 105 101 48 150 44 279 -21 52 -26 99
-54 106 -62 9 -11 8 -39 -5 -122 -9 -59 -17 -132 -19 -162 l-2 -55 -80 -6
c-158 -12 -243 -79 -385 -304 -173 -274 -252 -311 -456 -215 -93 43 -114 48
-114 26 0 -22 85 -120 137 -159 95 -69 130 -82 223 -82 77 0 92 3 155 34 93
46 154 110 245 256 84 135 140 202 187 221 40 17 88 18 100 2 6 -7 18 -62 27
-121 49 -303 161 -624 302 -865 87 -148 259 -407 333 -502 162 -209 323 -365
557 -541 323 -243 580 -370 899 -444 151 -36 161 -41 208 -104 196 -268 415
-371 847 -401 326 -22 494 38 727 261 34 32 66 59 70 60 4 0 80 2 168 4 823
19 1484 238 2235 738 298 199 500 365 755 621 288 289 525 598 648 844 28 56
55 102 59 102 16 0 48 -20 209 -126 181 -120 257 -158 360 -180 191 -41 364
17 513 170 128 133 114 148 -56 62 -260 -132 -368 -116 -705 106 -73 48 -159
101 -191 117 -33 17 -62 36 -64 43 -3 7 5 63 19 123 17 76 26 156 30 260 5
135 3 159 -17 235 -34 129 -34 132 25 153 35 12 74 16 126 15 72 -3 80 -6 160
-54 217 -133 270 -135 533 -22 290 123 504 236 649 341 63 46 79 68 58 81 -14
9 -352 -93 -561 -169 -298 -109 -361 -128 -420 -129 -49 -1 -63 5 -132 48
-122 76 -167 90 -283 90 -74 0 -121 -6 -180 -23 l-80 -22 -22 28 c-53 67 -54
59 45 366 50 155 103 319 117 363 14 47 32 85 41 88 26 10 150 -14 292 -55
192 -56 238 -53 364 30 130 86 327 260 612 542 218 215 278 279 273 293 -7 17
-10 16 -45 -4 -74 -44 -251 -172 -388 -282 -77 -62 -208 -168 -291 -235 -155
-124 -247 -190 -296 -211 -43 -18 -99 -14 -174 13 -82 29 -227 65 -266 65 -15
0 -30 6 -33 14 -7 19 62 241 251 806 187 558 219 663 374 1205 292 1023 408
1349 861 2410 86 204 182 433 213 510 30 77 98 241 150 365 144 343 256 641
279 743 18 79 19 98 8 136 -40 146 -227 161 -560 46 -579 -201 -1145 -558
-1618 -1019 -78 -77 -83 -80 -105 -66 -12 7 -75 46 -139 86 -64 40 -173 115
-241 168 -189 145 -305 215 -612 366 -279 138 -412 191 -650 259 -355 100
-980 212 -1360 242 -82 7 -328 13 -545 13 -524 1 -734 -17 -1295 -115 -464
-80 -575 -117 -995 -329 -141 -72 -259 -130 -263 -130 -4 0 -28 42 -53 93 -26
50 -66 126 -89 167 -23 41 -118 225 -210 408 -210 419 -253 472 -345 425z
m140 -448 c49 -121 154 -348 232 -503 l143 -284 -40 -35 c-22 -19 -103 -88
-180 -152 -140 -118 -256 -232 -289 -283 -19 -29 -16 -58 7 -58 7 0 83 48 168
106 167 115 416 271 519 327 36 20 142 67 237 106 94 38 221 95 282 126 266
133 431 182 851 253 425 73 559 86 991 102 554 21 913 -9 1539 -126 445 -84
743 -175 1035 -318 321 -156 521 -278 732 -443 56 -44 144 -106 197 -137 53
-32 96 -60 96 -64 0 -4 -48 -63 -106 -131 -123 -145 -177 -216 -201 -266 -16
-33 -16 -37 -1 -51 11 -11 25 -14 42 -10 14 3 119 98 243 219 355 345 620 562
983 804 387 258 651 393 992 507 188 63 255 76 264 53 11 -31 -111 -371 -261
-728 -97 -230 -160 -388 -305 -768 -56 -146 -142 -355 -192 -465 -161 -355
-276 -645 -388 -971 -90 -265 -141 -438 -246 -850 -156 -606 -247 -904 -439
-1430 -48 -132 -136 -386 -195 -565 -92 -278 -111 -327 -131 -336 -13 -7 -62
-26 -109 -44 -148 -57 -299 -159 -479 -325 -71 -66 -87 -76 -110 -71 -350 77
-575 82 -868 20 -193 -41 -181 -40 -189 -10 -7 30 1 235 17 391 43 442 100
763 260 1464 140 613 282 1298 318 1532 68 446 68 831 0 1039 -51 156 -157
340 -241 416 -193 174 -522 122 -925 -146 -551 -366 -964 -978 -1229 -1825
-113 -358 -171 -606 -243 -1040 -103 -615 -113 -728 -113 -1280 0 -461 3 -519
52 -820 11 -66 20 -135 20 -154 l0 -33 -57 7 c-93 11 -251 7 -343 -9 -136 -25
-241 -19 -445 22 l-180 37 -3 58 c-4 81 20 288 78 667 27 179 61 431 75 560
30 274 56 486 90 730 13 96 35 283 50 415 14 132 37 341 50 465 51 457 57 546
62 912 8 506 -10 652 -114 965 -83 251 -132 332 -235 381 -122 60 -344 40
-513 -45 -185 -94 -449 -323 -627 -547 -104 -130 -175 -237 -288 -431 -150
-260 -216 -400 -294 -625 -180 -517 -299 -1377 -282 -2040 13 -515 32 -716
100 -1070 19 -96 33 -176 33 -176 -3 -3 -201 44 -219 51 -25 10 -52 97 -93
305 -9 47 -39 166 -66 265 -169 619 -246 1128 -314 2067 -49 681 -58 938 -52
1403 6 401 17 588 58 910 93 749 339 1644 561 2040 100 179 108 190 124 173 8
-7 54 -113 104 -233z m5031 -2070 c90 -63 188 -247 223 -417 38 -183 38 -491
0 -773 -22 -169 -74 -423 -138 -685 -70 -285 -81 -337 -171 -775 -41 -198 -87
-423 -104 -500 -87 -400 -101 -471 -120 -600 -62 -430 -81 -770 -55 -1006 l7
-57 -54 -17 c-156 -52 -398 -163 -529 -243 -36 -22 -68 -38 -73 -35 -8 5 -3
80 19 288 18 168 33 237 74 341 49 122 37 146 -121 251 -38 25 -69 51 -69 57
0 7 41 30 92 51 92 40 140 72 158 104 5 10 41 204 79 432 39 228 87 498 106
602 48 260 59 359 52 516 -6 162 -27 260 -70 332 -58 96 -159 141 -271 120
-112 -21 -188 -69 -276 -174 -344 -412 -551 -1062 -620 -1947 -13 -173 -28
-891 -22 -1082 2 -82 2 -148 -2 -148 -3 0 -41 24 -84 54 -44 30 -93 57 -110
61 -54 11 -58 25 -86 260 -44 372 -48 458 -41 810 10 530 22 668 101 1140 69
408 123 653 215 971 136 472 325 891 546 1214 262 381 643 706 986 841 95 38
150 49 234 46 72 -2 86 -5 124 -32z m-3328 -109 c18 -7 42 -24 54 -37 53 -58
165 -358 202 -544 36 -179 44 -316 38 -684 -6 -370 -8 -389 -80 -906 -25 -176
-57 -412 -72 -525 -15 -113 -46 -313 -70 -445 -55 -302 -77 -447 -110 -705
-15 -113 -49 -337 -75 -498 -58 -344 -74 -490 -66 -589 3 -40 2 -74 -3 -77 -5
-3 -62 -13 -126 -21 -80 -11 -147 -27 -210 -50 -51 -19 -98 -35 -104 -35 -15
0 -15 435 0 567 6 53 21 139 35 190 49 188 28 233 -133 294 -35 13 -63 27 -63
31 0 4 39 28 88 54 48 26 104 58 125 71 49 31 76 90 77 163 0 30 9 138 20 240
34 323 57 956 40 1100 -20 174 -72 314 -151 403 -115 131 -251 117 -424 -45
-145 -136 -223 -288 -294 -573 -99 -400 -163 -1104 -141 -1544 10 -188 51
-637 69 -751 5 -30 7 -58 4 -62 -2 -4 -36 9 -76 29 -40 20 -115 53 -167 73
l-95 36 -7 95 c-4 52 -16 166 -27 254 -30 243 -39 363 -52 695 -14 374 -8 620
26 940 29 275 30 285 86 570 77 392 147 630 256 880 201 455 402 761 687 1045
261 260 455 371 654 374 29 1 67 -5 85 -13z m4827 -4405 c0 -5 -23 -74 -50
-153 -28 -78 -62 -183 -75 -232 -13 -49 -26 -91 -28 -93 -3 -2 -34 18 -70 46
-37 27 -97 66 -134 87 -37 21 -70 39 -73 42 -16 13 222 208 327 268 77 44 103
53 103 35z m-856 -375 c43 -8 83 -19 87 -23 5 -5 -5 -29 -22 -53 -48 -71 -129
-237 -129 -265 0 -32 33 -65 64 -65 28 0 56 29 149 162 38 53 83 113 102 135
l33 38 106 -54 c155 -78 244 -170 296 -309 l19 -49 -109 -71 c-114 -76 -258
-205 -372 -335 -72 -82 -83 -114 -51 -149 36 -40 86 -16 253 127 131 112 324
248 344 242 6 -2 19 -26 28 -53 24 -70 23 -241 -2 -389 -28 -162 -30 -165
-117 -186 -40 -10 -98 -30 -129 -45 -112 -53 -373 -270 -386 -322 -8 -29 18
-62 48 -62 33 0 67 18 208 112 113 76 227 138 253 138 46 0 -151 -303 -366
-560 -326 -392 -721 -722 -1216 -1018 -523 -312 -985 -477 -1699 -607 -206
-38 -226 -40 -226 -25 0 6 45 70 99 143 166 221 296 446 273 469 -17 17 -83
-43 -272 -247 -245 -264 -385 -388 -564 -500 -143 -89 -257 -109 -498 -86
-206 19 -310 49 -436 122 -105 62 -476 452 -609 642 -30 42 -61 77 -69 77 -36
0 -4 -108 93 -313 31 -64 54 -119 51 -122 -15 -15 -353 140 -507 233 -502 302
-803 596 -1106 1081 -134 214 -193 337 -267 551 -43 127 -94 320 -104 393 -8
56 -10 55 110 30 71 -14 85 -15 111 -2 37 17 53 58 37 93 -13 28 -82 67 -209
116 -77 29 -83 33 -89 66 -7 39 11 213 24 226 5 5 52 -23 108 -63 115 -83 150
-100 182 -88 28 11 46 50 38 83 -8 32 -109 140 -192 207 -41 32 -64 58 -64 71
0 37 63 139 114 185 71 64 152 116 170 110 17 -7 68 -84 120 -182 58 -109 84
-127 126 -85 31 31 26 97 -16 203 -41 102 -41 102 45 113 225 28 661 -114 955
-311 102 -67 288 -212 319 -247 12 -14 17 -37 17 -77 0 -67 23 -153 53 -196
34 -49 200 -236 258 -290 168 -158 497 -317 745 -360 178 -31 263 -14 550 110
319 138 433 204 551 320 39 38 109 98 155 132 45 34 130 105 188 158 225 208
639 490 935 638 295 148 636 260 900 296 95 13 412 5 509 -13z m-3989 -471
c50 -8 152 -28 228 -45 170 -37 273 -39 413 -8 80 18 130 22 259 22 144 -1
169 -3 248 -27 155 -48 268 -115 287 -172 16 -48 3 -117 -29 -159 -49 -65
-245 -234 -380 -330 -60 -43 -420 -212 -540 -254 -66 -23 -91 -26 -196 -26
-118 0 -122 1 -223 42 -266 109 -416 206 -573 370 -121 128 -160 193 -167 278
-5 62 26 176 59 218 25 32 99 71 172 91 71 19 326 19 442 0z"/>
<path d="M4377 12887 c-30 -24 -141 -374 -181 -570 -51 -253 -61 -337 -61
-512 0 -172 13 -251 38 -242 7 2 18 37 26 78 18 99 141 692 186 899 52 235 58
339 21 353 -8 3 -21 0 -29 -6z"/>
<path d="M12626 12055 c-117 -70 -395 -305 -589 -498 -139 -138 -283 -302
-450 -514 -71 -90 -133 -163 -139 -163 -6 0 -36 24 -68 54 -81 74 -185 122
-197 89 -2 -6 24 -45 59 -85 151 -173 234 -290 362 -504 87 -146 317 -482 344
-502 28 -21 92 -11 114 18 10 14 52 124 94 245 41 121 108 306 149 410 40 105
117 314 170 465 53 151 141 395 196 542 110 296 134 377 124 416 -18 72 -78
82 -169 27z m-195 -636 c-165 -430 -324 -862 -407 -1104 -26 -77 -51 -144 -55
-149 -4 -4 -32 25 -61 65 -60 81 -334 482 -349 511 -8 15 0 29 44 76 29 31
143 158 253 282 109 123 260 287 334 364 152 156 389 380 396 374 2 -3 -67
-191 -155 -419z"/>
<path d="M9214 11719 c-432 -52 -969 -515 -1164 -1002 -32 -80 -33 -107 -6
-107 9 0 61 62 117 137 202 272 472 513 712 634 236 120 505 138 764 54 250
-82 425 -233 564 -483 60 -108 152 -323 195 -454 43 -133 74 -112 82 54 8 167
-43 366 -153 593 -59 124 -121 212 -198 281 -74 67 -206 151 -301 191 -185 79
-447 122 -612 102z"/>
<path d="M5880 11604 c-208 -38 -426 -147 -607 -303 -221 -191 -418 -539 -401
-711 2 -26 8 -36 23 -38 16 -2 31 17 75 94 113 201 272 383 435 499 195 139
483 246 664 245 78 0 182 -28 271 -72 68 -33 102 -59 171 -127 47 -47 109
-122 138 -166 75 -114 186 -342 226 -465 26 -82 38 -105 52 -105 23 0 41 65
42 153 3 259 -202 686 -407 847 -141 111 -307 166 -496 164 -61 -1 -145 -7
-186 -15z"/>
<path d="M9194 5327 c-10 -28 37 -271 77 -391 21 -65 39 -120 39 -122 0 -1
-38 -23 -85 -47 -46 -25 -118 -72 -160 -104 -236 -183 -302 -230 -415 -297
-178 -107 -492 -257 -650 -311 -154 -53 -488 -145 -631 -174 -333 -68 -816
-88 -1109 -45 -284 41 -573 128 -820 245 -144 68 -290 150 -520 292 -107 66
-251 147 -319 180 l-124 61 69 60 c136 117 270 261 331 354 61 92 69 122 33
122 -10 0 -76 -50 -147 -110 -183 -158 -417 -341 -648 -506 -110 -79 -215
-156 -234 -172 -46 -39 -38 -62 23 -62 94 0 232 63 409 187 64 45 80 53 93 42
15 -12 393 -558 411 -594 6 -11 14 -76 17 -145 12 -213 73 -448 132 -507 50
-50 117 -11 158 92 13 32 28 61 32 62 5 1 47 -55 94 -125 250 -377 502 -651
744 -810 223 -147 419 -177 623 -95 116 46 228 132 738 563 390 330 527 440
549 440 2 0 25 -31 50 -69 61 -91 167 -204 211 -225 49 -23 93 -17 118 16 18
24 21 50 28 245 7 185 20 328 31 339 159 158 352 363 447 474 213 250 247 285
401 414 82 69 153 126 158 126 5 0 30 -33 55 -74 98 -155 362 -418 478 -477
61 -30 119 -38 119 -16 0 16 -72 106 -210 262 -199 226 -319 400 -417 605
-145 305 -164 336 -179 297z m-4035 -1267 c50 -30 91 -61 91 -68 0 -7 -17 -39
-39 -70 -42 -62 -111 -197 -156 -304 -15 -38 -31 -68 -35 -68 -4 0 -13 26 -20
58 -14 59 -27 510 -16 538 5 14 11 13 45 -8 21 -12 79 -48 130 -78z m3091
-119 c0 -5 -11 -51 -24 -103 -30 -112 -43 -200 -55 -377 -5 -73 -12 -135 -15
-138 -8 -9 -74 89 -115 172 -36 73 -111 296 -111 331 0 18 12 23 170 78 135
47 150 51 150 37z m-1797 -596 c62 -16 151 -58 162 -76 4 -6 -28 -46 -75 -92
-46 -45 -105 -113 -132 -152 -69 -97 -143 -248 -173 -352 -14 -48 -30 -92 -35
-97 -10 -10 -97 37 -180 97 -78 57 -280 258 -280 278 0 29 114 190 177 250 81
78 161 117 293 144 88 18 174 18 243 0z m891 -30 c33 -9 76 -23 98 -33 l39
-17 -78 -59 c-88 -67 -397 -330 -576 -488 -187 -166 -287 -215 -419 -206 -38
3 -74 10 -80 16 -27 27 54 232 147 371 90 136 271 293 417 361 141 66 324 88
452 55z"/>
<path d="M7171 5268 c-39 -15 -77 -43 -137 -100 -74 -71 -89 -81 -158 -102
-108 -34 -150 -62 -258 -175 -53 -56 -109 -106 -123 -111 -15 -6 -73 -13 -129
-17 -83 -5 -112 -2 -155 12 -64 21 -80 12 -57 -33 30 -58 84 -93 245 -157 80
-32 105 -37 170 -37 172 2 397 85 603 223 101 68 170 133 256 242 55 70 62 83
62 124 0 38 -5 50 -32 77 -40 39 -133 76 -191 75 -23 0 -66 -9 -96 -21z"/>
</g>
</svg>
