<?xml version="1.0" standalone="no"?>
<!DOCTYPE svg PUBLIC "-//W3C//DTD SVG 20010904//EN"
 "http://www.w3.org/TR/2001/REC-SVG-20010904/DTD/svg10.dtd">
<svg version="1.0" xmlns="http://www.w3.org/2000/svg"
 width="1500.000000pt" height="1008.000000pt" viewBox="0 0 1500.000000 1008.000000"
 preserveAspectRatio="xMidYMid meet">
<metadata>
Created by potrace 1.16, written by Peter Selinger 2001-2019
</metadata>
<g transform="translate(0.000000,1008.000000) scale(0.100000,-0.100000)"
fill="#000000" stroke="none">
<path d="M7582 9920 c-440 -29 -925 -131 -1220 -256 -432 -183 -798 -379
-1095 -586 l-128 -89 -107 103 c-162 156 -306 243 -480 290 -121 33 -315 31
-446 -5 -325 -89 -650 -341 -914 -707 -409 -568 -624 -833 -868 -1071 -265
-258 -491 -414 -876 -604 -104 -52 -241 -128 -303 -170 -507 -341 -817 -820
-901 -1395 -13 -91 -15 -160 -11 -330 6 -264 31 -416 108 -672 25 -80 49 -92
49 -25 0 72 37 193 87 288 25 49 50 89 55 89 4 0 8 -31 8 -69 0 -37 7 -106 15
-152 66 -381 275 -710 611 -962 91 -68 196 -133 459 -280 358 -201 565 -345
715 -497 216 -219 270 -419 194 -719 -31 -124 -31 -124 9 -116 57 12 258 94
377 154 630 316 1134 895 1366 1567 20 57 38 103 39 102 2 -2 60 -122 130
-268 208 -433 247 -532 306 -775 64 -269 160 -440 335 -604 216 -202 517 -343
1119 -526 388 -118 738 -284 1090 -519 207 -137 336 -239 739 -579 219 -185
459 -298 758 -359 97 -20 142 -23 323 -22 227 0 315 13 490 70 396 130 589
344 677 746 19 89 22 134 23 337 l1 235 82 17 c260 56 587 213 802 386 99 80
250 236 325 336 61 81 83 102 131 128 195 102 341 326 418 641 75 306 75 737
1 1146 -51 280 -120 522 -241 845 -110 294 -156 487 -188 792 -17 160 -40 534
-34 541 5 5 61 -141 115 -301 59 -173 120 -393 173 -624 73 -316 133 -481 252
-692 163 -289 430 -567 723 -754 227 -145 535 -257 825 -301 122 -18 398 -22
479 -7 47 9 64 29 34 40 -10 3 -46 24 -80 45 -117 74 -232 221 -286 368 -46
124 -49 115 46 145 45 15 123 47 172 71 96 47 213 131 199 144 -5 4 -31 13
-59 19 -156 38 -235 164 -235 377 0 187 45 340 177 605 146 293 202 492 206
721 1 65 3 118 5 118 2 0 29 -18 60 -39 64 -44 213 -194 287 -289 29 -37 52
-59 57 -54 20 20 7 394 -18 552 -99 629 -437 1090 -926 1264 -113 41 -158 50
-360 76 -199 25 -308 49 -478 106 -331 110 -630 301 -891 570 -116 120 -211
240 -403 507 -179 249 -257 347 -361 456 -104 108 -218 194 -330 247 -146 69
-195 79 -390 78 -155 0 -178 -2 -258 -27 -169 -52 -326 -147 -468 -284 l-86
-83 -169 84 c-427 213 -865 340 -1349 391 -179 19 -522 26 -693 15z m493 -30
c713 -43 1352 -251 1922 -626 164 -108 299 -219 462 -378 552 -541 879 -1079
1016 -1670 54 -231 78 -441 105 -899 40 -680 78 -897 225 -1285 83 -222 137
-392 185 -587 119 -481 143 -949 69 -1320 -55 -273 -180 -515 -322 -623 -61
-46 -107 -76 -107 -70 0 3 16 39 35 80 76 165 115 360 115 576 0 178 -20 310
-70 462 -120 368 -345 634 -875 1035 -180 137 -451 354 -516 413 l-54 49 65
-9 c177 -27 492 54 679 176 79 51 172 137 154 143 -6 2 -47 -18 -90 -45 -112
-70 -113 -70 -61 -16 170 178 225 482 151 844 -75 371 -349 677 -683 761 -108
27 -281 23 -373 -10 -196 -69 -350 -206 -445 -396 -40 -80 -61 -143 -82 -245
l-17 -85 -18 60 c-121 417 -148 1174 -59 1700 32 191 98 453 139 551 8 20 13
39 10 42 -15 15 -122 -303 -160 -471 -66 -300 -90 -596 -82 -1036 7 -384 26
-547 98 -833 83 -331 252 -672 469 -943 92 -114 297 -322 425 -430 61 -51 189
-152 285 -225 493 -375 706 -584 850 -835 207 -362 246 -800 106 -1187 -56
-155 -58 -160 -114 -239 -163 -233 -422 -444 -715 -584 -246 -117 -397 -157
-607 -159 -139 -1 -163 1 -228 23 -80 26 -160 74 -235 141 -72 64 -73 69 -27
130 56 75 135 233 180 358 21 59 44 110 51 113 8 4 47 19 88 35 236 87 537
388 695 694 88 169 126 306 126 450 0 120 -20 202 -70 299 -138 262 -407 385
-840 384 -235 -1 -465 -46 -795 -153 -343 -113 -623 -306 -716 -495 -32 -66
-34 -75 -34 -175 0 -105 0 -106 46 -200 133 -274 383 -489 827 -710 226 -113
349 -150 496 -150 l76 0 -35 -97 c-110 -307 -237 -464 -460 -573 -264 -129
-581 -187 -964 -177 -353 9 -628 76 -936 229 -271 134 -450 286 -596 508 -92
139 -222 412 -292 615 -30 86 -43 137 -73 283 -4 21 -2 22 63 22 38 -1 86 -7
108 -15 55 -20 82 -19 95 4 16 32 12 48 -19 70 -113 81 -355 19 -489 -123 -58
-62 -104 -140 -118 -200 -12 -49 18 -26 49 38 47 99 150 187 250 214 l37 10 0
-46 c0 -235 150 -656 338 -947 140 -219 336 -385 622 -531 108 -55 131 -71
170 -120 65 -81 300 -307 411 -396 281 -225 586 -381 869 -443 114 -26 367
-31 465 -11 164 34 321 138 406 269 87 135 138 321 142 522 1 99 4 114 17 109
43 -19 151 -43 199 -43 30 -1 83 6 119 15 35 9 66 13 69 10 13 -13 15 -316 3
-416 -34 -299 -152 -539 -331 -675 -119 -90 -317 -172 -523 -217 -86 -19 -131
-22 -311 -22 -179 0 -225 3 -314 22 -311 68 -536 178 -766 378 -158 137 -401
335 -505 411 -418 307 -829 520 -1275 658 -441 136 -574 184 -768 279 -276
136 -467 304 -576 508 -58 107 -78 164 -126 355 -57 224 -95 320 -287 723
-113 237 -158 342 -155 360 2 14 16 81 30 150 35 171 47 291 47 482 0 198 -9
267 -99 758 -114 628 -173 1042 -206 1445 -20 240 -23 672 -6 840 12 113 16
127 67 235 63 132 123 237 207 365 117 176 309 405 340 405 60 0 217 -102 347
-226 l80 -76 31 33 c74 78 115 235 105 399 l-6 95 -61 89 c-33 49 -57 92 -52
95 5 3 54 38 108 77 277 197 643 395 1054 571 468 200 1156 308 1746 273z
m2775 -120 c104 -30 229 -98 334 -182 135 -109 244 -239 532 -638 164 -228
257 -341 380 -464 190 -190 383 -330 609 -441 239 -117 454 -178 780 -220 99
-13 220 -35 269 -50 528 -154 882 -656 971 -1375 8 -69 15 -180 15 -248 l0
-124 -42 54 c-104 133 -309 308 -362 308 -17 0 -18 -6 -12 -70 14 -142 -30
-393 -101 -575 -20 -49 -66 -148 -104 -220 -112 -215 -161 -359 -178 -530 -26
-253 55 -429 221 -486 l51 -17 -44 -32 c-64 -46 -190 -104 -297 -137 l-94 -28
6 -43 c8 -61 60 -185 111 -267 50 -80 146 -181 211 -222 24 -15 44 -31 44 -35
0 -15 -349 -8 -458 8 -498 74 -972 338 -1293 723 -232 277 -377 582 -464 976
-72 326 -172 657 -283 935 -47 118 -50 133 -61 270 -41 495 -132 848 -312
1210 -124 249 -293 502 -493 735 -104 122 -392 412 -491 495 -100 84 -281 215
-386 277 -43 26 -79 53 -79 59 0 17 132 137 215 197 94 67 235 133 347 163 83
22 108 24 238 20 110 -3 163 -9 220 -26z m-6300 -420 c234 -65 487 -259 645
-495 50 -74 54 -86 60 -156 12 -133 -22 -289 -80 -365 l-27 -35 -84 81 c-142
136 -296 220 -403 220 -82 -1 -224 -101 -315 -223 -311 -416 -362 -1204 -161
-2492 32 -203 90 -535 168 -960 29 -161 31 -184 31 -420 1 -269 -12 -379 -70
-600 -216 -830 -863 -1553 -1658 -1849 -54 -21 -100 -35 -102 -33 -3 2 6 44
18 93 28 114 31 311 5 392 -90 288 -327 494 -1022 885 -257 145 -351 207 -475
314 -320 277 -510 665 -510 1046 0 115 -10 122 -63 50 -51 -71 -106 -186 -127
-267 -20 -78 -20 -78 -50 41 -44 179 -62 314 -67 515 -10 352 39 593 178 886
158 334 425 632 759 847 90 58 524 278 516 261 -102 -221 -128 -344 -87 -425
30 -58 73 -83 134 -78 26 2 47 3 47 1 0 -1 -7 -30 -16 -64 -8 -34 -13 -64 -10
-67 12 -13 90 -3 122 16 19 11 34 19 34 17 0 -2 -15 -36 -34 -77 -18 -41 -39
-98 -46 -128 -33 -140 30 -289 142 -335 91 -38 177 -6 283 105 246 257 426
629 475 979 6 41 12 87 15 103 4 25 2 27 -28 27 l-32 0 57 53 c96 88 178 215
178 275 0 44 -31 66 -82 59 -37 -5 -51 -15 -103 -70 -81 -88 -123 -109 -59
-31 56 69 74 109 74 164 0 75 -53 140 -115 140 -39 0 -92 -34 -122 -79 l-23
-34 0 59 1 59 90 105 c126 146 309 383 509 660 221 304 253 344 385 463 242
218 459 339 683 382 101 19 262 12 362 -15z m110 -786 c0 -3 -30 -40 -67 -82
-143 -164 -285 -371 -389 -566 -30 -56 -54 -96 -54 -90 0 7 11 55 25 108 31
121 79 241 135 337 57 97 197 239 271 274 53 24 79 31 79 19z m5811 -1693
c250 -64 463 -248 584 -504 55 -116 78 -203 101 -378 57 -454 -93 -724 -471
-842 -150 -47 -160 -46 -75 10 131 87 210 178 275 316 134 284 79 617 -143
858 -248 268 -648 344 -968 184 -46 -23 -84 -40 -84 -38 0 14 40 78 87 140 50
66 131 140 205 186 128 80 331 108 489 68z m-141 -326 c89 -23 211 -84 292
-145 220 -167 342 -467 295 -725 -43 -236 -184 -428 -393 -533 -103 -52 -163
-65 -236 -52 -85 16 -116 31 -161 78 l-38 39 108 6 c138 6 220 32 321 100 217
148 309 413 231 662 -29 92 -31 94 -75 56 -34 -31 -41 -33 -92 -29 -45 4 -60
10 -79 32 -50 58 -18 158 60 190 l31 12 -54 43 c-70 55 -168 104 -251 125 -65
16 -221 20 -267 7 -23 -6 -22 -7 18 -40 57 -46 90 -118 90 -197 0 -179 -192
-333 -369 -295 -143 30 -200 103 -186 234 9 90 23 168 41 226 13 44 22 56 72
89 105 72 198 110 320 132 68 13 246 4 322 -15z m-170 -2386 c118 -16 229 -47
310 -86 58 -28 94 -56 160 -122 130 -132 181 -253 179 -432 -1 -112 -28 -236
-50 -230 -8 3 -54 5 -104 4 -186 -1 -370 -98 -423 -223 -22 -53 -19 -156 6
-207 34 -65 81 -95 159 -102 l66 -6 -68 -73 c-92 -99 -213 -194 -315 -246
-133 -68 -184 -81 -335 -80 -120 0 -137 2 -225 32 -89 31 -332 145 -409 193
l-35 21 85 33 c205 79 299 155 299 243 0 47 -48 129 -97 167 -173 132 -467
101 -651 -70 l-59 -54 -35 37 c-81 86 -156 207 -189 305 -31 91 -23 193 20
282 89 181 366 368 706 478 432 140 707 177 1005 136z m554 -895 c25 -4 46
-12 46 -18 0 -26 -114 -243 -170 -325 -80 -117 -86 -122 -164 -128 -55 -5 -70
-2 -100 17 -87 53 -106 194 -40 293 42 63 155 125 279 152 72 16 88 17 149 9z
m-1446 -199 c66 -30 116 -74 143 -127 54 -105 -12 -174 -258 -273 -124 -50
-104 -53 -247 44 -88 58 -224 169 -225 183 -2 15 54 70 110 107 61 41 144 76
214 91 72 16 200 4 263 -25z m410 -1354 c34 -38 85 -84 113 -103 l51 -33 -5
-160 c-6 -179 -25 -276 -78 -395 l-32 -71 -32 68 c-70 149 -302 312 -573 402
-52 17 -110 33 -129 37 -34 6 -28 9 88 48 155 52 288 117 421 206 57 38 105
69 108 69 3 1 34 -30 68 -68z m-2057 -167 c290 -104 692 -159 978 -135 77 6
175 18 217 26 74 14 77 14 192 -16 300 -77 578 -249 651 -402 50 -106 50 -106
-27 -185 -124 -126 -278 -182 -501 -182 -359 0 -742 158 -1126 466 -165 133
-472 444 -437 444 5 0 29 -7 53 -16z"/>
<path d="M9979 8614 c-68 -20 -139 -72 -176 -126 -75 -113 -55 -240 38 -239
19 0 96 3 172 7 273 13 480 -63 670 -245 37 -35 67 -59 67 -53 0 23 -52 147
-91 219 -89 161 -237 326 -350 390 -107 61 -229 78 -330 47z"/>
<path d="M6260 8220 c-417 -112 -694 -495 -821 -1134 -16 -82 -28 -150 -26
-152 2 -2 18 31 35 74 137 334 413 648 698 794 167 85 299 118 514 127 144 6
145 6 148 31 11 76 -76 189 -186 242 -61 29 -77 32 -177 35 -86 2 -126 -1
-185 -17z"/>
<path d="M10195 7344 c-201 -45 -390 -163 -516 -321 -33 -42 -57 -78 -54 -81
3 -3 13 5 22 19 32 48 143 149 212 194 82 53 177 95 277 121 101 26 283 24
389 -4 114 -31 267 -111 371 -194 68 -54 91 -68 103 -61 33 21 24 50 -33 106
-96 97 -205 159 -353 203 -114 33 -311 42 -418 18z"/>
<path d="M8427 6896 c-71 -38 -99 -113 -98 -259 1 -152 41 -295 93 -331 30
-21 44 -20 69 5 11 11 21 19 22 17 14 -27 26 -43 39 -52 25 -15 67 18 90 72
19 41 20 59 14 162 -7 137 -28 246 -56 306 -35 71 -118 109 -173 80z"/>
<path d="M6180 6861 c-98 -24 -150 -44 -230 -88 -124 -68 -238 -173 -321 -295
-48 -71 -52 -100 -4 -33 196 277 534 416 855 354 143 -28 268 -88 445 -213 17
-12 45 9 45 34 0 54 -230 196 -380 235 -100 26 -316 29 -410 6z"/>
<path d="M6336 6500 c-413 -51 -751 -355 -863 -775 -24 -90 -27 -117 -26 -270
0 -151 3 -181 26 -267 63 -238 207 -452 396 -592 35 -25 61 -46 58 -46 -15 0
-160 71 -221 109 -50 30 -72 39 -80 31 -8 -8 -4 -17 14 -31 164 -130 365 -219
579 -254 128 -22 385 -17 501 9 262 60 563 205 711 343 44 41 62 73 41 73 -5
0 -55 -34 -113 -75 -57 -41 -147 -96 -199 -124 -93 -48 -214 -101 -233 -101
-5 0 24 22 65 49 173 117 316 282 372 428 38 101 76 283 83 392 15 245 -66
509 -217 710 -210 278 -562 432 -894 391z m304 -47 c170 -34 348 -132 478
-265 185 -188 287 -425 297 -693 4 -92 2 -112 -6 -85 -45 155 -65 205 -105
275 -55 94 -169 212 -264 273 -237 154 -560 173 -808 48 -287 -145 -456 -461
-412 -773 40 -279 198 -497 455 -624 163 -81 340 -107 507 -75 40 8 85 19 101
25 44 17 31 3 -23 -24 -114 -58 -195 -76 -355 -82 -261 -9 -405 28 -584 148
-427 286 -573 864 -335 1332 176 347 535 563 899 540 44 -2 114 -11 155 -20z
m165 -422 c277 -81 492 -302 560 -576 26 -102 24 -258 -4 -360 -75 -269 -289
-469 -563 -526 -113 -23 -190 -24 -299 -3 -235 44 -442 190 -555 390 -251 447
-8 981 496 1090 90 19 273 11 365 -15z"/>
<path d="M6478 5903 l-28 -4 42 -32 c144 -110 125 -336 -37 -443 -134 -89
-300 -75 -395 33 l-39 44 -10 -38 c-34 -130 -17 -272 49 -410 73 -151 213
-269 390 -329 85 -29 292 -27 380 5 319 113 481 444 370 757 -11 31 -22 59
-25 62 -3 3 -18 -7 -35 -23 -34 -33 -109 -44 -150 -23 -38 20 -62 76 -50 119
11 39 52 83 90 94 24 8 24 8 -18 45 -57 51 -185 116 -263 135 -59 14 -205 18
-271 8z"/>
<path d="M11516 5154 c-9 -8 -16 -24 -16 -34 0 -32 -42 -66 -102 -84 -69 -20
-85 -41 -65 -88 18 -42 236 -255 270 -263 58 -15 89 14 70 65 -12 31 -8 60 7
60 5 0 36 -34 70 -75 64 -77 85 -91 120 -80 30 10 25 55 -14 141 -79 169 -242
374 -298 374 -15 0 -34 -7 -42 -16z"/>
<path d="M4821 4830 c-54 -40 -150 -170 -202 -275 -45 -91 -61 -173 -39 -200
16 -19 49 -19 74 0 26 19 33 19 45 -3 7 -13 -3 -57 -40 -168 -54 -165 -59
-200 -29 -232 45 -48 69 -29 179 136 85 130 96 168 57 207 -19 19 -34 26 -52
22 -50 -9 -23 37 76 134 82 79 100 117 86 174 -10 39 -44 68 -71 61 l-24 -6
19 42 c20 43 25 93 14 122 -9 25 -47 19 -93 -14z"/>
</g>
</svg>
