<?xml version="1.0" standalone="no"?>
<!DOCTYPE svg PUBLIC "-//W3C//DTD SVG 20010904//EN"
 "http://www.w3.org/TR/2001/REC-SVG-20010904/DTD/svg10.dtd">
<svg version="1.0" xmlns="http://www.w3.org/2000/svg"
 width="1500.000000pt" height="1500.000000pt" viewBox="0 0 1500.000000 1500.000000"
 preserveAspectRatio="xMidYMid meet">
<metadata>
Created by potrace 1.16, written by Peter Selinger 2001-2019
</metadata>
<g transform="translate(0.000000,1500.000000) scale(0.100000,-0.100000)"
fill="none" stroke="#000000">
<path d="M2500 14840 c-235 -50 -407 -350 -485 -848 -18 -116 -37 -434 -30
-515 2 -28 7 -105 10 -169 22 -442 160 -903 372 -1240 208 -331 439 -546 780
-725 l110 -58 -69 -125 c-38 -69 -117 -219 -175 -335 -58 -115 -128 -243 -156
-285 -90 -133 -315 -339 -441 -402 -58 -29 -76 -47 -76 -78 0 -32 38 -73 90
-100 43 -22 173 -50 231 -50 l42 0 -26 -32 c-163 -204 -282 -454 -341 -719
-36 -162 -42 -235 -23 -282 13 -31 21 -37 46 -37 32 0 119 62 147 105 9 14 18
24 20 22 2 -1 -13 -52 -32 -111 -102 -315 -116 -601 -48 -956 41 -213 85 -334
132 -359 27 -14 65 16 88 69 10 22 19 38 21 36 2 -2 11 -46 18 -99 8 -52 21
-122 29 -155 16 -70 23 -64 -84 -82 -393 -69 -1032 -277 -1350 -440 -120 -62
-156 -88 -82 -60 233 89 605 213 840 281 264 76 696 178 707 167 2 -2 22 -46
45 -98 57 -129 114 -232 168 -299 73 -92 99 -102 124 -52 l14 30 57 -111 c32
-61 56 -112 55 -113 -2 -1 -77 -28 -168 -60 -517 -182 -969 -399 -1352 -651
-151 -100 -311 -219 -353 -264 l-30 -32 60 38 c33 21 134 81 225 134 631 369
1132 603 1546 723 l119 35 86 -132 c160 -243 250 -281 267 -113 l7 67 49 -62
c47 -59 49 -62 30 -75 -366 -255 -561 -508 -1146 -1483 -795 -1324 -1114
-2155 -1220 -3170 -18 -169 -17 -766 0 -925 17 -154 79 -575 87 -597 14 -37
93 -34 120 5 20 29 19 82 -4 202 -44 230 -81 637 -81 900 0 340 59 777 136
1015 3 8 19 -19 35 -60 115 -290 276 -562 543 -920 161 -216 227 -321 330
-520 99 -192 164 -354 213 -532 21 -76 42 -138 46 -138 5 0 6 3 4 8 -3 4 -10
68 -17 142 -21 243 -69 437 -165 666 -66 158 -146 295 -355 614 -330 503 -400
642 -474 935 -42 164 -49 236 -31 313 58 251 273 745 561 1285 99 185 225 407
231 407 8 0 -7 -154 -23 -250 -14 -83 -37 -175 -108 -434 -89 -320 -122 -565
-113 -831 12 -378 108 -717 327 -1160 118 -239 251 -467 381 -652 100 -142
278 -367 279 -352 0 13 -123 275 -280 594 -265 539 -349 742 -419 1016 -50
194 -70 323 -78 519 -11 280 21 505 131 922 83 315 105 484 86 673 -6 64 -18
138 -25 163 l-14 46 46 75 c191 317 576 910 654 1010 17 21 19 21 19 5 0 -11
-13 -86 -30 -169 -49 -252 -55 -318 -54 -630 1 -384 28 -605 108 -896 169
-613 556 -1099 1186 -1489 47 -29 186 -106 310 -172 587 -314 869 -507 1146
-782 251 -250 447 -522 667 -925 84 -153 192 -373 231 -472 9 -23 19 -40 21
-38 6 6 -38 205 -75 344 -152 565 -398 1001 -761 1350 -234 224 -468 382
-1024 692 -425 237 -577 346 -811 578 -316 314 -515 654 -658 1129 -138 452
-176 1100 -95 1586 19 114 19 115 61 154 68 61 212 166 223 163 5 -2 18 -26
28 -53 19 -50 97 -386 97 -417 0 -9 -23 -33 -50 -53 -28 -20 -50 -38 -50 -40
0 -5 42 12 80 31 16 8 31 12 33 7 3 -4 33 -99 67 -212 160 -530 302 -858 495
-1150 268 -406 596 -723 1295 -1254 329 -251 435 -342 760 -660 346 -339 461
-423 657 -478 113 -31 314 -31 432 0 192 52 288 120 581 407 274 269 377 358
680 584 384 286 544 418 849 700 505 468 856 1008 1073 1651 87 258 121 423
134 655 l7 120 48 40 c26 22 77 66 113 99 61 54 68 58 102 52 31 -6 39 -14 59
-59 25 -55 72 -299 102 -522 21 -163 24 -645 5 -810 -71 -615 -235 -1062 -529
-1444 -98 -127 -301 -323 -445 -431 -158 -119 -269 -185 -578 -345 -540 -280
-813 -461 -1064 -705 -376 -366 -621 -797 -747 -1315 -30 -123 -79 -378 -78
-405 0 -8 16 28 34 80 101 277 452 879 680 1165 115 144 322 348 465 459 229
177 401 281 862 524 501 264 669 376 882 582 128 124 205 217 298 360 370 566
510 1329 393 2135 -14 94 -33 207 -44 253 -10 45 -17 82 -15 82 1 0 53 -75
115 -167 62 -93 163 -242 224 -333 141 -207 287 -438 353 -555 l50 -90 -14
-95 c-29 -214 -13 -448 51 -710 122 -503 139 -608 139 -880 0 -285 -32 -502
-118 -803 -73 -254 -154 -442 -383 -896 -221 -435 -325 -658 -295 -626 15 15
193 272 312 451 563 842 759 1468 679 2174 -14 122 -32 211 -109 522 -65 261
-95 419 -103 551 -2 31 -1 57 2 57 8 -1 203 -372 334 -635 155 -311 262 -556
369 -845 100 -269 105 -304 69 -487 -50 -258 -170 -517 -405 -876 -198 -305
-293 -470 -376 -661 -96 -218 -170 -460 -204 -666 -7 -42 1 -27 40 75 44 115
165 361 249 505 103 177 167 273 351 521 84 113 180 248 214 300 69 107 170
308 226 452 21 53 41 97 44 97 9 0 48 -172 75 -335 43 -256 50 -354 49 -700 0
-342 -11 -488 -55 -790 -28 -190 -30 -267 -5 -294 49 -54 110 -1 135 116 12
60 46 409 61 628 78 1183 -276 2386 -1118 3800 -217 363 -696 1091 -907 1379
-92 125 -116 168 -135 242 -14 57 -51 108 -80 113 -18 2 -32 -6 -52 -30 -41
-49 -34 -22 8 31 40 51 94 159 120 240 22 70 24 72 61 60 l31 -11 -34 -81
c-55 -129 -66 -218 -28 -218 27 0 90 69 148 164 45 72 64 95 75 90 9 -3 93
-32 186 -64 629 -213 915 -353 1579 -774 93 -59 170 -105 172 -104 6 7 -261
219 -371 294 -382 262 -923 520 -1460 694 -38 12 -73 24 -76 26 -5 3 95 282
104 291 2 1 3 -34 2 -79 0 -66 3 -83 17 -92 14 -8 24 -7 45 6 65 38 205 249
285 428 20 47 42 86 47 88 12 4 126 -20 261 -55 426 -109 886 -267 1239 -424
84 -38 157 -69 160 -69 20 0 -123 82 -275 158 -284 142 -536 244 -810 327
-122 37 -389 104 -502 126 -60 11 -63 13 -58 38 9 44 24 153 32 231 7 70 8 73
17 40 50 -188 65 -218 105 -206 34 11 96 174 131 346 68 325 40 679 -83 1038
-19 56 -31 102 -27 102 4 0 18 -11 31 -25 34 -36 102 -60 130 -45 50 27 62
121 35 286 -38 236 -173 509 -344 696 -34 36 -61 69 -61 72 0 3 26 6 58 6 164
1 352 95 326 165 -6 14 -90 80 -249 195 -79 57 -131 112 -220 235 -134 183
-310 493 -398 701 l-35 81 41 23 c85 47 295 184 384 252 357 268 580 612 722
1117 175 618 125 1490 -112 1935 -44 83 -106 147 -179 187 -63 34 -64 34 -193
34 -117 0 -139 -3 -215 -29 -192 -65 -316 -134 -840 -466 -848 -538 -1104
-656 -1600 -740 -189 -32 -235 -27 -405 48 -347 151 -710 235 -1285 294 -170
18 -928 18 -1110 0 -587 -57 -1072 -176 -1463 -359 l-97 -46 -80 21 c-179 48
-649 233 -906 357 -298 143 -480 252 -938 559 -301 202 -494 307 -638 346 -89
24 -223 33 -288 20z m9981 -161 c119 -60 230 -311 294 -669 124 -686 -10
-1412 -356 -1931 -97 -145 -292 -348 -424 -440 -113 -80 -365 -223 -374 -213
-4 5 -29 41 -56 79 -112 161 -279 338 -520 550 -277 244 -369 363 -443 570
-30 86 -41 270 -22 368 59 302 328 608 855 969 137 94 552 355 648 408 141 76
240 105 308 88 85 -22 178 -179 263 -444 61 -191 67 -202 60 -134 -18 178 -73
415 -122 521 -58 129 -120 173 -242 172 -135 -1 -225 -39 -573 -245 -482 -284
-761 -491 -1007 -744 -247 -254 -335 -455 -335 -759 1 -164 14 -225 80 -360
65 -133 128 -211 329 -405 580 -562 595 -581 821 -1031 238 -471 401 -711 567
-836 29 -21 79 -59 111 -82 31 -24 57 -49 57 -57 0 -37 -242 -31 -363 10 -79
26 -127 33 -127 17 0 -21 88 -136 190 -246 172 -185 276 -356 344 -560 27 -82
56 -205 56 -239 0 -14 -28 7 -97 76 -206 201 -327 234 -243 66 174 -347 269
-711 270 -1022 0 -120 -22 -324 -39 -354 -5 -8 -16 10 -33 51 -54 136 -201
349 -246 355 -19 3 -22 -1 -22 -31 0 -19 9 -64 20 -99 28 -92 40 -186 39 -328
0 -115 -21 -348 -33 -368 -2 -4 -71 2 -153 14 -314 46 -475 58 -781 59 -160 0
-292 1 -292 2 0 3 36 66 121 210 259 439 450 932 523 1350 107 613 8 1375
-248 1909 -110 228 -228 386 -393 524 -134 112 -143 115 -82 23 237 -349 379
-701 463 -1138 134 -705 81 -1347 -160 -1939 -111 -271 -308 -601 -508 -851
-93 -116 -98 -120 -144 -128 -26 -4 -103 -21 -172 -37 -193 -45 -172 -53 -192
70 -44 261 -144 474 -331 710 -68 86 -415 431 -495 492 -66 51 -81 43 -53 -31
30 -79 100 -186 266 -406 260 -344 307 -426 369 -641 36 -128 63 -261 54 -270
-4 -3 -68 -21 -145 -40 -415 -105 -819 -245 -1013 -351 -79 -44 -180 -113
-180 -124 0 -10 135 36 287 99 198 82 566 198 907 286 76 20 146 36 155 36 13
0 21 -24 39 -112 28 -143 45 -258 39 -265 -3 -2 -104 -17 -224 -33 -441 -57
-713 -114 -959 -201 -107 -38 -279 -117 -272 -125 3 -3 91 15 194 40 345 82
657 141 1059 201 94 14 178 25 188 25 15 0 17 -11 17 -97 0 -54 -3 -114 -6
-134 l-6 -36 -112 -6 c-123 -6 -219 -31 -224 -59 -5 -26 92 -42 211 -35 53 4
97 4 97 1 0 -10 -43 -90 -79 -147 l-36 -58 -45 4 c-25 3 -133 17 -240 30 -271
36 -499 51 -665 44 -135 -5 -290 -29 -309 -47 -5 -6 65 -9 167 -9 185 -1 401
-17 672 -52 194 -24 358 -48 362 -53 2 -2 -27 -32 -64 -66 -168 -156 -244
-190 -420 -190 -225 0 -477 80 -641 202 l-53 39 26 -51 c70 -137 252 -233 510
-269 42 -6 101 -11 131 -11 30 0 54 -3 54 -8 0 -22 -216 -136 -345 -182 -165
-58 -259 -73 -460 -73 -254 -1 -424 32 -796 155 l-186 61 -7 90 c-8 111 -6
306 2 370 l7 48 91 38 c51 21 114 54 140 73 50 37 68 55 314 322 132 143 152
161 225 198 183 93 237 146 314 309 27 57 74 141 105 187 77 116 96 172 96
282 0 142 -30 254 -143 530 -102 249 -138 397 -167 675 -22 215 -25 228 -46
263 -12 18 -18 20 -34 12 -58 -31 -62 -305 -9 -563 28 -133 85 -305 154 -462
97 -223 115 -273 124 -343 10 -83 -1 -163 -34 -237 -25 -59 -35 -65 -56 -39
-23 28 -83 61 -139 78 -111 33 -222 17 -488 -69 -92 -30 -234 -71 -317 -91
-138 -34 -158 -36 -250 -31 -72 4 -137 16 -230 42 -288 82 -379 104 -469 115
-168 22 -294 -15 -380 -111 -24 -27 -46 -49 -49 -49 -2 0 -15 35 -28 78 -20
65 -24 97 -23 202 1 151 16 203 135 472 90 201 118 291 147 468 45 270 48 444
7 506 -45 69 -69 3 -100 -280 -27 -244 -67 -388 -188 -686 -84 -204 -125 -395
-112 -511 13 -111 17 -133 34 -182 10 -29 42 -90 70 -136 28 -46 51 -89 51
-95 0 -30 71 -155 104 -183 42 -38 67 -52 196 -108 179 -77 286 -165 390 -320
114 -170 224 -266 366 -324 59 -24 70 -32 75 -57 4 -16 7 -131 8 -256 l1 -227
-142 -46 c-213 -69 -420 -124 -546 -145 -152 -27 -361 -27 -503 -1 -175 31
-413 121 -551 207 l-48 30 123 11 c229 22 433 102 555 218 38 35 81 87 96 115
l28 51 -82 -56 c-150 -102 -331 -181 -505 -221 -111 -25 -297 -25 -384 1 -83
24 -192 96 -265 175 l-59 64 29 8 c54 15 329 58 434 68 156 15 500 30 710 30
114 0 180 4 175 9 -18 18 -210 51 -349 60 -154 10 -383 0 -571 -24 -117 -15
-362 -57 -438 -74 -43 -10 -44 -10 -97 123 -47 120 -56 112 131 108 162 -4
249 2 249 18 0 26 -193 60 -346 60 -65 0 -83 3 -88 15 -3 9 -9 65 -12 125 l-7
109 49 -4 c293 -29 680 -87 959 -145 155 -32 335 -60 385 -60 l45 1 -40 21
c-193 102 -593 183 -1220 246 l-170 17 -4 30 c-3 33 59 435 70 448 18 22 244
-60 668 -243 283 -121 422 -173 496 -185 l40 -6 -70 46 c-199 131 -667 337
-1003 441 l-122 38 6 36 c26 140 119 391 195 525 100 176 189 280 417 483 115
103 141 162 73 162 -88 0 -276 -114 -413 -250 -183 -183 -297 -420 -381 -799
-14 -62 -28 -115 -30 -117 -2 -2 -62 5 -134 16 -72 10 -182 22 -244 26 l-112
7 -50 53 c-142 153 -297 375 -401 574 -181 348 -285 692 -342 1135 -25 187
-25 639 0 830 58 457 164 793 398 1258 72 142 128 260 125 263 -2 3 -44 -32
-92 -77 -314 -298 -561 -840 -639 -1407 -27 -190 -37 -464 -26 -664 39 -673
201 -1204 553 -1808 47 -80 83 -147 81 -149 -2 -2 -103 -8 -225 -12 -122 -5
-312 -18 -424 -29 -247 -24 -232 -24 -240 0 -9 28 -29 25 -62 -9 -23 -24 -43
-32 -117 -46 -48 -9 -90 -15 -91 -13 -9 10 -37 178 -45 273 -15 173 5 330 64
490 15 39 21 115 11 115 -50 0 -151 -133 -238 -312 -34 -69 -65 -127 -68 -127
-6 -1 -34 170 -50 313 -7 59 -9 167 -6 265 9 269 46 403 187 690 104 211 111
231 81 231 -44 0 -169 -80 -307 -197 -28 -24 -54 -43 -57 -43 -3 0 5 39 18 88
68 254 166 453 303 622 25 30 101 110 171 177 86 83 123 125 116 132 -7 7 -37
4 -95 -10 -47 -11 -107 -25 -135 -30 -72 -14 -248 -13 -275 1 -21 11 -21 12
-3 32 10 11 52 43 93 71 105 71 281 245 345 342 29 44 112 197 183 340 153
304 233 440 359 608 127 171 258 312 487 526 281 262 376 374 452 534 90 190
98 406 24 606 -84 222 -250 437 -522 674 -526 458 -1043 761 -1337 784 -169
12 -245 -52 -310 -262 -50 -161 -92 -414 -90 -543 1 -78 6 -63 34 103 36 217
130 449 219 541 61 63 77 66 197 34 251 -66 564 -249 959 -559 362 -285 565
-501 675 -721 135 -268 124 -467 -38 -714 -63 -95 -217 -256 -489 -509 -142
-132 -225 -225 -367 -409 -45 -60 -87 -108 -93 -108 -19 0 -206 101 -289 157
-286 191 -478 421 -650 778 -194 401 -290 898 -260 1341 28 408 133 781 260
926 25 28 61 54 93 68 46 20 64 22 148 17 180 -10 325 -76 659 -301 437 -296
658 -430 949 -575 254 -127 562 -255 885 -367 43 -15 74 -30 70 -34 -4 -4 -53
-43 -108 -87 -56 -44 -113 -97 -129 -117 l-28 -37 133 70 c556 291 1180 478
1834 548 242 26 907 26 1145 0 681 -74 1187 -216 1676 -472 78 -40 174 -94
215 -119 41 -24 75 -43 78 -41 5 6 -70 90 -121 134 -24 21 -78 64 -121 95 -45
32 -73 58 -65 60 7 3 31 7 53 11 22 3 99 20 170 36 431 101 753 261 1473 733
451 295 703 425 899 460 86 16 130 12 184 -15z m-8301 -7384 c124 -141 245
-242 355 -298 51 -25 165 -57 207 -57 42 0 93 21 101 42 3 7 6 -29 6 -79 l1
-93 -122 0 c-189 0 -556 -19 -707 -35 -115 -13 -206 -27 -397 -62 -29 -5 -33
-2 -43 30 -18 52 -36 64 -55 35 -9 -13 -19 -38 -22 -55 -6 -29 -11 -33 -57
-43 -29 -6 -62 -13 -74 -16 -19 -5 -27 3 -57 64 -70 139 -112 282 -140 473
-21 143 -23 136 27 143 87 12 648 49 833 55 l52 1 92 -105z m4223 94 c22 -6
55 -25 74 -43 69 -63 52 -179 -38 -260 -35 -32 -45 -36 -95 -36 -30 0 -87 5
-125 11 -179 28 -246 -41 -319 -321 -39 -153 -76 -225 -151 -294 -53 -49 -163
-107 -224 -118 -24 -4 -30 26 -40 225 -12 216 -20 223 -33 27 -7 -96 -15 -194
-18 -217 l-6 -42 -42 21 c-146 74 -195 130 -305 347 -149 291 -210 344 -423
361 -69 6 -119 15 -134 25 -36 23 -64 87 -64 146 0 44 4 55 33 84 75 75 189
69 618 -36 140 -34 286 -64 324 -66 94 -7 202 14 475 94 371 108 409 116 493
92z m-3718 -24 c174 -23 215 -34 215 -59 0 -24 -38 -247 -43 -252 -13 -14
-332 260 -358 308 -9 16 -5 18 33 18 24 0 92 -7 153 -15z m7013 -6 c106 -12
130 -20 98 -32 -9 -4 -15 -34 -19 -109 -3 -64 -13 -130 -26 -173 -23 -74 -168
-375 -181 -375 -4 0 -52 14 -106 30 -278 86 -688 140 -1064 140 l-175 0 135
88 c177 116 297 218 394 336 44 53 89 99 100 101 75 17 682 13 844 -6z m390
-64 c5 -5 -38 -107 -64 -151 -30 -51 -44 -56 -44 -16 0 50 -31 123 -71 165
-22 22 -39 41 -39 42 0 3 214 -36 218 -40z m-1668 14 c0 -14 -285 -299 -300
-299 -7 0 -10 38 -8 122 l3 122 140 32 c162 37 165 38 165 23z m440 -574 c191
-22 470 -73 502 -92 15 -8 -163 -295 -209 -336 -19 -16 -22 -16 -74 2 -181 62
-478 113 -774 132 l-187 13 6 44 c3 25 6 91 6 148 l0 103 58 4 c115 9 541 -2
672 -18z m-6022 -12 c5 -10 12 -49 15 -88 3 -38 9 -91 13 -116 l6 -46 -78 -7
c-253 -23 -515 -74 -782 -153 l-123 -36 -50 49 c-70 69 -120 136 -170 228 -33
61 -39 80 -28 86 37 23 319 64 544 80 221 15 255 16 462 18 165 2 183 0 191
-15z m76 -406 c16 -45 40 -103 53 -130 17 -35 20 -48 11 -51 -195 -61 -395
-135 -547 -200 l-84 -36 -41 24 c-60 36 -167 124 -264 217 -95 91 -96 86 10
119 218 66 603 134 783 139 l50 1 29 -83z m5451 38 c124 -9 380 -48 564 -86
l154 -33 -44 -39 c-75 -67 -149 -121 -282 -205 l-127 -82 -98 39 c-121 48
-306 110 -437 146 -55 16 -103 31 -108 35 -5 5 70 165 109 232 4 6 102 4 269
-7z m-5236 -377 c47 -46 104 -95 126 -109 22 -15 139 -91 260 -171 121 -80
255 -164 297 -188 85 -48 80 -37 93 -182 6 -62 5 -68 -12 -68 -36 0 -320 61
-448 96 -165 45 -296 94 -408 151 -113 58 -172 106 -205 167 -15 27 -32 51
-39 53 -16 5 -47 -58 -63 -126 l-13 -55 -34 40 c-19 21 -68 90 -109 152 -41
61 -77 112 -81 112 -4 0 -17 -10 -30 -22 -22 -21 -23 -21 -43 -3 -11 10 -17
22 -13 26 10 9 344 130 453 164 47 15 96 30 110 35 56 19 71 12 159 -72z
m4963 41 c153 -37 393 -106 454 -129 27 -11 26 -11 -49 -63 -89 -62 -244 -193
-258 -219 -12 -22 -29 -24 -29 -3 0 13 -45 123 -54 132 -2 2 -37 -31 -77 -73
-90 -93 -160 -142 -293 -204 -166 -79 -339 -127 -604 -169 l-112 -18 0 29 c0
16 5 59 11 97 l11 67 136 69 c237 119 469 287 627 452 39 40 71 73 72 73 1 0
75 -18 165 -41z m-5675 -346 c172 -188 267 -284 302 -305 66 -41 123 -17 137
58 3 19 8 34 11 34 2 0 37 -20 76 -44 188 -113 496 -213 862 -279 l130 -24 8
-44 c41 -223 100 -427 158 -541 92 -183 227 -316 357 -354 52 -15 55 -15 82 4
27 20 28 20 44 3 47 -52 184 -103 314 -116 70 -8 70 -8 47 68 -8 26 -12 47 -9
47 2 0 33 -14 67 -31 198 -100 428 -132 644 -90 100 20 247 67 316 103 22 11
41 17 43 15 2 -2 -4 -32 -15 -66 -22 -71 -29 -67 95 -46 96 17 177 49 233 93
65 50 73 53 94 26 25 -33 70 -31 143 6 141 71 240 181 329 365 75 156 134 354
160 538 3 26 11 47 16 47 6 0 70 9 144 20 314 48 602 146 840 286 l42 24 24
-60 c13 -32 31 -69 39 -81 16 -21 18 -20 98 73 107 125 241 251 334 315 105
73 108 74 108 27 0 -106 -64 -356 -151 -593 -177 -476 -459 -899 -884 -1326
-237 -238 -364 -346 -876 -746 -200 -157 -377 -312 -639 -564 -211 -202 -321
-289 -435 -345 -95 -46 -147 -59 -235 -60 -225 -1 -396 115 -910 615 -264 257
-282 273 -835 726 -426 350 -688 599 -833 792 -146 194 -283 443 -385 702 -76
193 -275 792 -265 800 7 6 64 34 70 35 4 0 51 -48 105 -107z m3178 -129 c163
-61 277 -97 385 -124 220 -55 291 -64 505 -65 197 0 275 8 409 41 32 9 60 13
63 11 2 -3 -8 -85 -22 -183 -64 -443 -137 -641 -295 -807 l-67 -71 -7 78 c-4
42 -11 88 -16 102 -10 25 -10 24 -58 -33 -74 -88 -186 -189 -270 -244 -41 -27
-77 -47 -79 -45 -3 2 9 53 26 113 16 59 34 126 40 147 l10 40 -67 -66 c-37
-36 -95 -84 -130 -106 -212 -136 -517 -193 -760 -143 -194 40 -350 120 -467
238 -36 36 -65 62 -65 57 0 -22 41 -176 60 -228 12 -31 20 -59 18 -62 -6 -6
-166 105 -227 157 -29 24 -76 74 -105 111 -61 76 -59 78 -72 -49 -3 -40 -9
-73 -13 -73 -14 1 -129 154 -172 229 -51 89 -109 252 -140 395 -22 97 -71 438
-64 444 2 2 43 -5 92 -17 232 -53 495 -55 738 -3 146 32 390 100 535 151 105
37 127 37 215 5z"/>
<path d="M7419 13676 c-14 -14 -372 -83 -602 -117 -324 -46 -405 -61 -557 -99
-543 -135 -1158 -532 -1475 -951 -69 -92 -155 -245 -155 -276 0 -8 42 23 93
69 525 474 986 749 1470 878 62 16 243 52 402 79 443 77 622 117 795 180 l80
30 142 -45 c163 -50 311 -84 658 -149 135 -25 299 -59 365 -75 558 -138 1070
-428 1544 -875 85 -80 158 -145 163 -145 10 0 -75 144 -159 272 -299 451 -803
797 -1446 992 -149 45 -315 78 -587 116 -124 17 -316 51 -426 76 -176 38 -291
54 -305 40z"/>
<path d="M7376 13184 c-184 -194 -413 -320 -672 -368 -44 -8 -157 -20 -250
-25 -373 -24 -480 -52 -629 -164 -33 -25 -83 -74 -111 -109 -51 -63 -120 -175
-112 -183 2 -2 49 30 103 71 177 133 355 204 512 204 41 0 138 -7 216 -16 285
-32 521 0 731 99 113 54 185 105 257 186 l55 60 65 -65 c153 -156 372 -254
636 -285 74 -9 143 -8 335 6 196 13 259 14 327 5 160 -22 273 -78 404 -200 86
-81 90 -78 39 30 -31 67 -143 181 -225 229 -132 77 -250 105 -542 126 -287 22
-400 47 -560 127 -164 82 -355 223 -438 322 -21 26 -41 46 -45 45 -4 -1 -47
-43 -96 -95z"/>
<path d="M7454 12745 c-121 -335 -288 -517 -564 -613 -47 -16 -168 -48 -271
-71 -219 -48 -290 -70 -384 -119 -92 -48 -217 -171 -274 -270 -40 -69 -86
-182 -75 -182 3 0 43 34 87 76 152 141 304 226 454 253 32 6 146 15 253 20
214 11 273 22 377 75 142 71 242 164 345 321 33 50 63 91 66 92 4 2 27 -32 51
-75 67 -117 219 -263 337 -325 128 -66 178 -76 434 -92 143 -9 245 -20 280
-30 98 -30 183 -83 306 -190 65 -58 122 -105 126 -105 16 0 7 30 -27 95 -47
92 -126 195 -194 256 -71 64 -228 142 -341 169 -367 87 -432 109 -564 186 -90
53 -213 170 -273 259 -22 33 -58 105 -81 160 -54 128 -59 135 -68 110z"/>
<path d="M7440 12038 c-52 -175 -211 -368 -461 -559 -183 -139 -219 -202 -227
-399 -6 -174 34 -371 106 -509 55 -105 69 -73 46 97 -40 284 21 434 255 631
153 128 222 206 268 302 20 43 40 79 43 79 3 0 25 -37 49 -81 54 -97 128 -180
275 -306 116 -99 165 -153 197 -215 52 -102 63 -253 34 -461 -9 -66 -14 -121
-12 -123 8 -9 58 67 92 138 63 135 80 221 80 413 0 112 -4 182 -13 206 -27 76
-70 128 -169 200 -131 97 -246 201 -331 302 -76 89 -173 237 -194 293 -7 19
-15 34 -18 34 -4 0 -13 -19 -20 -42z"/>
<path d="M9587 11944 c-17 -17 -3 -34 50 -64 98 -55 187 -157 292 -332 l23
-38 -38 0 -38 0 30 -31 c61 -65 224 -195 350 -278 119 -80 379 -219 389 -209
13 12 -115 177 -229 297 -157 164 -215 231 -325 373 -105 136 -166 193 -244
228 -84 37 -243 70 -260 54z"/>
<path d="M5162 11910 c-166 -44 -271 -137 -396 -350 -66 -113 -94 -149 -171
-225 -58 -56 -128 -112 -186 -148 -120 -74 -154 -101 -145 -115 12 -19 94 -14
192 12 117 32 184 62 280 127 79 53 354 314 354 335 0 18 -26 24 -61 14 -18
-5 -35 -8 -37 -6 -6 6 74 122 116 168 44 49 119 104 201 148 36 19 67 41 69
48 6 19 -130 14 -216 -8z"/>
<path d="M9400 11334 c-138 -28 -286 -97 -397 -187 -100 -80 -228 -239 -273
-340 -42 -91 -20 -89 95 9 293 248 570 353 836 315 117 -17 245 -53 449 -126
96 -34 190 -66 209 -70 l34 -7 -19 24 c-33 42 -146 138 -223 191 -178 120
-373 186 -571 192 -63 2 -126 1 -140 -1z"/>
<path d="M5245 11315 c-85 -18 -183 -60 -276 -116 -139 -84 -279 -198 -279
-226 0 -18 27 -11 185 48 354 131 558 146 820 62 174 -56 314 -137 460 -265
124 -110 154 -122 140 -59 -22 100 -236 337 -383 425 -97 57 -226 108 -334
130 -92 19 -250 20 -333 1z"/>
<path d="M4385 10940 c-12 -20 -6 -153 10 -215 52 -194 220 -383 382 -428 68
-19 70 -22 148 -192 60 -130 93 -180 166 -254 134 -135 329 -220 501 -221 32
0 121 7 198 16 163 19 201 13 290 -41 91 -55 122 -99 123 -174 0 -37 -10 -65
-52 -143 -44 -81 -50 -99 -37 -104 50 -19 199 129 272 269 l47 91 -12 61 c-18
91 -145 461 -199 584 -102 228 -229 374 -396 457 -234 115 -472 97 -785 -60
-103 -52 -226 -96 -268 -96 -40 1 -104 32 -151 75 -55 49 -100 120 -158 245
-58 126 -69 146 -79 130z m1018 -427 c-78 -93 -108 -192 -84 -280 29 -107 143
-193 255 -193 200 0 316 198 241 409 -8 24 -13 46 -11 49 8 7 101 -65 141
-109 21 -23 49 -67 64 -98 22 -48 26 -69 26 -146 0 -77 -4 -99 -28 -149 -36
-78 -84 -136 -147 -176 -192 -123 -468 -81 -650 100 -113 113 -150 210 -150
397 0 130 -6 121 122 172 77 31 250 81 257 75 2 -2 -14 -25 -36 -51z m266 -8
c32 -16 41 -33 41 -77 0 -38 -48 -88 -85 -88 -41 0 -85 50 -85 96 0 71 62 104
129 69z"/>
<path d="M10446 10698 c-90 -149 -150 -193 -266 -193 -80 1 -67 -4 -360 125
-133 59 -226 81 -340 82 -114 1 -193 -17 -305 -71 -153 -73 -289 -199 -380
-352 -124 -209 -292 -694 -264 -766 37 -97 156 -257 236 -316 108 -79 142 -54
69 52 -80 116 -88 172 -36 255 29 48 122 113 188 132 50 15 64 15 176 -1 202
-29 327 -12 478 67 188 97 333 273 413 499 l27 77 76 12 c181 28 293 120 342
278 23 74 27 174 7 190 -10 9 -24 -7 -61 -70z m-763 -159 c142 -27 197 -110
184 -277 -11 -136 -59 -244 -155 -344 -98 -103 -203 -154 -342 -165 -202 -15
-376 102 -426 289 -25 96 -10 197 40 277 37 57 148 151 180 151 2 0 -2 -24
-10 -52 -29 -112 -14 -211 44 -278 45 -53 102 -82 177 -88 143 -11 265 104
266 252 1 70 -14 117 -62 190 -22 32 -39 60 -39 63 0 5 73 -4 143 -18z m-214
-46 c42 -52 37 -110 -11 -146 -23 -17 -31 -18 -59 -8 -82 28 -104 97 -50 152
40 39 91 40 120 2z"/>
<path d="M10520 10088 c-10 -24 -32 -77 -49 -119 -49 -118 -127 -236 -216
-325 -145 -147 -279 -218 -575 -309 -211 -64 -377 -139 -409 -184 -12 -16 -18
-32 -14 -34 10 -5 326 18 448 34 312 39 575 167 698 341 93 131 159 301 178
461 19 153 -17 234 -61 135z"/>
<path d="M4413 10048 c-29 -84 -24 -250 11 -353 97 -285 328 -464 687 -529
126 -23 506 -66 524 -60 21 9 19 27 -7 51 -63 55 -204 114 -438 183 -100 29
-214 70 -265 95 -237 117 -367 295 -454 623 -16 57 -35 53 -58 -10z"/>
<path d="M10830 10053 c-6 -21 -15 -94 -21 -163 -27 -336 -84 -497 -243 -682
-90 -104 -205 -191 -395 -298 -83 -47 -151 -91 -151 -99 0 -22 263 -8 360 19
273 78 423 266 487 611 22 121 26 552 5 612 -8 20 -17 37 -22 37 -5 0 -14 -17
-20 -37z"/>
<path d="M4072 9958 c-36 -96 -45 -169 -39 -315 6 -160 28 -254 88 -381 98
-210 247 -349 464 -433 133 -52 317 -83 353 -60 18 11 -14 33 -147 101 -301
154 -522 408 -601 691 -11 41 -32 153 -46 249 -29 204 -42 229 -72 148z"/>
<path d="M10990 9342 c0 -5 -9 -73 -20 -153 -21 -150 -45 -239 -85 -319 -26
-51 -39 -60 -90 -60 -63 0 -62 -71 4 -229 27 -64 50 -125 53 -136 5 -32 23
-24 66 30 118 149 171 366 151 615 -9 118 -31 223 -50 247 -13 14 -29 17 -29
5z"/>
<path d="M3891 9259 c-66 -148 -48 -438 37 -605 70 -139 204 -213 267 -149 47
46 33 86 -80 236 -40 53 -78 106 -85 119 -28 52 -53 144 -75 279 -14 80 -29
149 -35 155 -6 6 -16 -5 -29 -35z"/>
<path d="M10633 8706 c-50 -45 -76 -103 -103 -232 -44 -205 -90 -326 -160
-423 l-33 -45 -13 35 c-96 253 -135 332 -170 346 -26 10 -34 -16 -34 -107 0
-66 10 -125 45 -270 40 -168 60 -283 80 -455 l7 -60 65 70 c165 177 295 394
349 580 62 218 72 509 21 579 -13 18 -16 17 -54 -18z"/>
<path d="M4334 8639 c-63 -117 -78 -183 -77 -324 3 -255 121 -514 290 -635 97
-69 175 -74 223 -13 28 35 25 60 -15 163 -29 74 -35 102 -35 162 1 123 36 187
146 266 35 26 62 47 61 48 -1 1 -29 -2 -62 -8 -121 -19 -224 -84 -290 -184
l-38 -57 -25 49 c-63 123 -104 273 -122 446 -5 55 -15 97 -24 106 -12 13 -16
10 -32 -19z"/>
<path d="M11513 2998 c-28 -46 -105 -191 -172 -323 -125 -249 -214 -396 -318
-525 -99 -123 -322 -331 -532 -498 -108 -85 -261 -207 -341 -271 -184 -146
-444 -405 -530 -528 -133 -190 -242 -419 -288 -608 -20 -81 -35 -175 -28 -175
2 0 37 65 76 145 206 415 417 646 985 1075 452 342 629 511 787 751 108 165
173 309 295 659 102 294 124 361 121 372 -2 4 -26 -29 -55 -74z"/>
<path d="M3504 2905 c5 -148 22 -244 72 -395 96 -290 291 -580 571 -850 147
-142 253 -228 514 -416 260 -186 365 -272 494 -401 219 -218 387 -463 510
-744 l46 -104 -5 66 c-6 79 -50 219 -117 377 -64 149 -124 260 -215 394 -177
262 -341 420 -784 758 -322 245 -506 408 -651 577 -199 231 -325 466 -403 748
-15 55 -29 105 -32 110 -2 6 -2 -48 0 -120z"/>
</g>
</svg>
