<?xml version="1.0" standalone="no"?>
<!DOCTYPE svg PUBLIC "-//W3C//DTD SVG 20010904//EN"
 "http://www.w3.org/TR/2001/REC-SVG-20010904/DTD/svg10.dtd">
<svg version="1.0" xmlns="http://www.w3.org/2000/svg"
 width="1500.000000pt" height="1046.000000pt" viewBox="0 0 1500.000000 1046.000000"
 preserveAspectRatio="xMidYMid meet">
<metadata>
Created by potrace 1.16, written by Peter Selinger 2001-2019
</metadata>
<g transform="translate(0.000000,1046.000000) scale(0.100000,-0.100000)"
fill="#000000" stroke="none">
<path d="M7074 10154 c-16 -111 25 -246 109 -356 l35 -46 -31 10 c-245 79
-378 102 -542 95 -182 -8 -296 -57 -376 -164 -49 -65 -57 -82 -78 -166 -10
-39 -25 -75 -32 -79 -8 -4 -84 -40 -169 -81 -263 -125 -536 -299 -754 -481
l-90 -75 -50 94 c-110 205 -268 386 -437 502 -391 268 -950 349 -1564 227
-348 -69 -754 -250 -1077 -481 -162 -116 -288 -223 -455 -386 -364 -356 -651
-731 -928 -1212 -76 -132 -255 -490 -255 -511 0 -13 6 -14 32 -7 61 15 125 8
166 -20 66 -43 84 -103 102 -335 15 -192 55 -486 91 -665 236 -1173 826 -1997
1637 -2287 l90 -32 50 -75 c90 -137 246 -295 377 -384 295 -199 683 -280 1115
-234 382 40 648 147 814 325 l56 61 128 -128 c365 -369 765 -587 1247 -680 51
-10 154 -17 288 -19 l208 -3 53 -49 c54 -49 159 -110 238 -138 135 -48 460
-83 618 -68 l85 9 88 -128 c594 -870 1218 -1360 2077 -1628 452 -142 1030
-208 1573 -180 133 6 298 18 367 25 l125 13 40 -34 c86 -73 227 -123 350 -123
158 0 295 59 415 180 132 132 197 292 187 460 -7 112 -40 212 -144 439 -95
208 -153 371 -182 512 -22 106 -51 351 -51 429 0 102 -113 320 -203 394 -72
58 -105 71 -182 70 -107 -1 -167 -33 -288 -158 -55 -56 -118 -133 -144 -175
-80 -132 -264 -403 -329 -487 -34 -44 -105 -121 -158 -171 -87 -82 -101 -92
-158 -106 -292 -73 -592 -57 -812 42 -242 110 -474 342 -648 648 -57 100 -188
371 -188 387 0 3 17 14 38 25 58 30 139 97 173 144 30 41 30 41 136 59 389 66
794 312 1026 623 32 44 60 81 61 82 1 1 45 -16 98 -37 212 -85 454 -136 693
-147 433 -19 825 122 1123 402 229 216 368 490 388 764 7 83 8 87 43 116 185
154 341 317 476 500 226 304 337 551 397 885 17 100 15 578 -6 1010 -40 833
-30 1109 45 1204 11 14 29 26 40 26 11 0 99 -41 196 -91 111 -57 179 -87 185
-81 11 11 -358 384 -532 538 -820 722 -1525 1097 -2209 1175 -133 15 -436 7
-556 -15 -445 -81 -818 -314 -1047 -652 -37 -54 -81 -115 -97 -134 l-29 -35
-229 117 c-712 363 -1286 520 -2070 567 -144 9 -173 13 -269 46 -207 69 -337
159 -432 300 -30 44 -58 81 -63 83 -4 2 -11 -18 -15 -44z m144 -176 c116 -124
291 -224 481 -273 64 -16 83 -18 333 -35 561 -37 1137 -182 1699 -426 91 -39
381 -174 388 -181 14 -12 -201 -200 -322 -282 -41 -28 -54 -51 -28 -51 14 0
202 130 276 190 101 83 203 192 270 290 80 116 248 281 365 359 175 117 389
206 604 253 89 20 131 22 361 22 281 1 331 -5 565 -64 583 -147 1219 -524
1920 -1139 117 -102 368 -335 365 -339 -1 -1 -40 19 -86 44 -373 208 -918 423
-1326 524 -487 119 -986 134 -1360 40 -327 -83 -570 -217 -789 -435 -301 -300
-456 -667 -494 -1167 -29 -397 68 -933 227 -1253 44 -86 100 -165 119 -165 20
0 18 5 -17 56 -49 72 -27 62 41 -17 273 -317 390 -778 340 -1339 -26 -280 -80
-480 -191 -705 -172 -349 -441 -614 -794 -781 -86 -41 -294 -115 -362 -129
l-31 -6 4 63 c3 59 3 60 -5 17 -13 -68 -44 -121 -101 -172 -51 -46 -147 -107
-169 -107 -14 0 -29 37 -97 235 -83 241 -105 337 -111 495 -6 161 9 249 62
356 38 77 115 163 164 184 17 7 31 17 31 22 0 5 -22 -3 -50 -18 -103 -56 -193
-177 -237 -319 -14 -48 -18 -94 -18 -230 0 -204 16 -287 106 -558 163 -490
345 -822 581 -1054 175 -173 360 -276 583 -325 90 -19 351 -16 455 5 139 29
249 66 283 95 158 134 272 269 421 499 44 67 83 120 87 117 4 -2 -2 -32 -14
-66 -17 -53 -21 -96 -25 -271 -5 -231 6 -351 45 -527 38 -172 124 -415 145
-408 14 5 14 4 -30 138 -89 270 -115 433 -116 710 0 228 16 330 75 495 75 207
240 365 382 365 125 0 249 -122 332 -325 25 -60 30 -90 36 -210 18 -328 68
-522 216 -840 155 -333 183 -486 122 -651 -72 -192 -236 -339 -424 -379 -89
-19 -109 -19 -203 1 -156 32 -327 156 -432 314 -52 79 -49 75 -56 67 -8 -7 65
-130 115 -192 22 -27 39 -51 37 -52 -1 -2 -124 -7 -272 -12 -581 -20 -1033 21
-1491 134 -749 185 -1403 587 -1905 1172 -245 285 -338 416 -779 1095 -139
214 -234 335 -368 468 -133 133 -222 198 -314 230 -69 24 -157 26 -203 4 -47
-23 -38 -26 19 -7 63 21 118 11 216 -38 202 -101 391 -326 696 -829 65 -107
128 -212 141 -232 l24 -37 -203 3 c-359 7 -560 59 -698 184 -58 52 -86 95
-110 170 -16 53 -18 54 -18 22 0 -30 18 -93 44 -152 6 -16 -1 -18 -86 -18
-320 1 -722 125 -1049 324 -296 181 -611 480 -795 756 -121 182 -211 393 -257
604 -19 86 -22 131 -22 301 1 221 13 302 74 483 33 98 107 262 118 262 4 0 20
-43 36 -96 16 -52 35 -103 42 -112 28 -38 24 4 -10 125 -20 70 -45 172 -56
225 -25 126 -74 462 -94 648 -9 80 -25 231 -36 335 -49 458 -125 776 -245
1032 -202 429 -603 737 -1068 819 -251 45 -708 -8 -1141 -132 -620 -177 -1203
-514 -1598 -922 -54 -56 -98 -99 -98 -97 0 25 241 438 365 625 646 976 1416
1589 2230 1774 414 94 883 84 1207 -24 370 -124 674 -395 842 -750 73 -155
101 -250 152 -517 2 -13 9 -23 16 -23 8 0 9 22 5 75 -10 108 -33 214 -78 349
-22 66 -36 122 -31 125 4 3 53 41 109 83 114 87 257 182 388 258 151 87 491
247 502 236 2 -1 7 -30 11 -62 4 -32 12 -58 17 -56 6 1 16 20 23 42 17 50 97
123 158 144 60 20 192 33 154 14 -126 -60 -156 -77 -200 -116 -106 -92 -135
-199 -85 -309 23 -52 99 -146 107 -132 2 2 16 30 32 62 54 108 173 204 316
253 182 64 388 88 700 82 115 -1 207 -1 205 0 -2 2 -48 10 -102 18 -143 22
-472 30 -585 15 -318 -43 -530 -164 -574 -329 l-12 -47 -24 50 c-17 37 -23 68
-23 115 0 57 4 72 33 118 39 60 119 123 239 188 46 26 82 48 80 51 -3 2 -33 8
-68 13 -126 18 -268 -24 -329 -98 -35 -43 -37 -34 -16 70 39 181 148 292 325
329 91 19 305 6 446 -26 137 -31 333 -95 450 -148 107 -48 185 -70 185 -53 0
7 -55 39 -122 72 -187 90 -265 156 -336 284 -33 59 -62 148 -62 189 0 22 4 19
30 -23 17 -26 52 -70 78 -98z m5412 -1099 c358 -39 798 -154 1205 -317 147
-59 355 -148 363 -157 3 -2 -7 -18 -21 -35 -34 -40 -62 -132 -78 -256 -17
-134 -17 -609 0 -1084 17 -485 11 -827 -18 -959 -31 -143 -76 -273 -145 -416
-134 -279 -307 -516 -565 -773 -118 -119 -131 -124 -131 -56 0 117 -97 339
-207 473 -1 2 -5 2 -8 -1 -3 -3 13 -36 36 -74 121 -199 159 -469 100 -704 -29
-111 -115 -287 -190 -387 -151 -201 -392 -380 -633 -473 -302 -116 -711 -132
-1108 -44 -125 28 -241 62 -253 73 -4 4 10 39 31 77 158 279 242 642 242 1045
0 502 -177 957 -468 1199 -30 25 -62 52 -71 61 -42 38 -133 354 -172 594 -23
143 -37 529 -24 649 8 78 1 73 154 112 309 79 718 78 1081 -3 346 -76 674
-206 1033 -406 75 -42 140 -77 143 -77 30 0 -199 143 -386 242 -628 331 -1286
437 -1819 293 -52 -14 -114 -34 -139 -45 -24 -11 -48 -20 -52 -20 -10 0 22
175 55 294 117 433 385 773 775 984 191 103 479 181 750 202 120 10 380 4 520
-11z m-9330 -669 c418 -80 776 -353 975 -745 76 -149 177 -468 209 -660 l7
-40 -86 3 c-157 6 -301 -30 -443 -110 -105 -59 -269 -221 -352 -348 -240 -367
-380 -929 -404 -1615 -5 -161 3 -123 29 130 42 403 134 816 246 1098 94 236
196 403 333 544 160 166 329 251 545 274 61 6 117 9 124 6 15 -6 32 -113 92
-578 35 -268 88 -571 124 -709 l20 -74 -33 -56 c-96 -159 -157 -314 -197 -500
-19 -87 -23 -137 -23 -295 -1 -215 14 -321 69 -491 55 -167 194 -420 314 -568
17 -21 31 -42 31 -45 0 -12 -154 -109 -239 -151 -257 -127 -513 -182 -861
-183 -186 -1 -217 2 -334 26 -416 88 -735 313 -944 664 -27 46 -60 110 -73
143 -13 33 -30 60 -38 60 -19 0 -10 -40 37 -149 22 -50 39 -91 38 -91 -12 0
-253 137 -331 187 -289 189 -551 448 -744 737 -351 525 -557 1157 -661 2031
-11 88 -27 184 -35 213 -30 99 -123 169 -213 160 l-40 -3 31 39 c44 56 234
224 367 326 588 448 1289 711 2115 794 71 7 248 -5 345 -24z"/>
<path d="M8967 8010 c-77 -13 -188 -49 -235 -77 -24 -13 -42 -26 -40 -28 2 -2
37 4 78 12 47 10 132 16 230 17 153 1 156 0 257 -35 56 -20 141 -60 189 -90
96 -60 256 -210 314 -297 19 -28 38 -52 42 -52 14 0 -33 104 -80 180 -166 268
-471 417 -755 370z"/>
<path d="M6195 7730 c-95 -25 -138 -44 -216 -96 -125 -83 -237 -226 -294 -378
-29 -77 -57 -222 -53 -273 3 -36 5 -32 31 47 114 345 340 576 639 654 51 14
129 30 172 37 108 17 75 28 -84 28 -91 0 -144 -5 -195 -19z"/>
<path d="M9290 6750 c-129 -28 -243 -123 -317 -266 -87 -169 -147 -444 -147
-679 0 -150 9 -211 53 -363 57 -197 135 -344 238 -444 109 -108 187 -147 308
-155 193 -13 358 49 498 185 57 57 145 178 135 188 -3 3 -15 -11 -27 -30 -31
-49 -189 -197 -242 -225 l-44 -23 47 41 c63 55 139 172 176 268 29 76 62 208
62 255 1 22 2 21 22 -7 43 -61 138 -144 195 -174 83 -41 165 -55 248 -40 71
12 100 30 35 22 -58 -8 -156 14 -223 50 -88 46 -158 129 -222 263 -31 64 -55
127 -55 146 -1 18 -6 62 -13 98 l-12 65 59 30 c32 17 66 41 75 54 l16 24 -41
-27 c-58 -38 -100 -48 -119 -30 -24 25 -17 40 25 54 85 28 161 121 186 229 21
87 16 103 -9 30 -41 -122 -113 -194 -206 -206 -36 -5 -39 -3 -50 27 -14 41
-14 40 2 40 37 0 127 100 127 140 -1 8 -8 2 -17 -15 -25 -47 -45 -66 -91 -87
-24 -11 -45 -18 -46 -16 -2 1 -20 30 -40 62 -49 77 -126 157 -194 203 -246
163 -561 91 -736 -168 -20 -29 -36 -51 -36 -47 0 21 64 179 96 237 102 186
224 259 418 249 106 -6 164 -24 258 -82 96 -59 167 -124 237 -216 63 -84 73
-92 45 -37 -76 150 -251 307 -397 357 -71 24 -209 34 -277 20z m211 -350 c208
-65 370 -311 424 -643 47 -287 -15 -557 -166 -728 l-38 -44 33 68 c53 106 71
192 70 332 -2 324 -174 614 -426 716 -76 31 -202 31 -280 1 -95 -38 -193 -142
-242 -257 l-17 -40 6 67 c30 364 340 621 636 528z m-78 -343 c182 -90 315
-285 361 -526 42 -219 -9 -442 -130 -572 -58 -61 -97 -79 -190 -86 -254 -20
-474 198 -569 563 -39 148 -43 235 -15 325 69 228 207 344 398 335 58 -2 86
-10 145 -39z"/>
<path d="M9214 6040 c-45 -18 -104 -124 -104 -187 0 -8 -11 -29 -25 -47 -13
-17 -37 -59 -52 -91 -26 -55 -28 -70 -28 -180 0 -139 20 -214 84 -312 72 -111
163 -172 268 -181 54 -4 70 -1 118 23 142 69 210 271 161 479 -10 43 -11 67
-4 88 42 120 -71 316 -224 388 -65 31 -147 39 -194 20z m184 -46 c148 -72 252
-268 198 -372 -24 -47 -108 -85 -198 -90 -98 -6 -154 13 -201 69 -42 49 -60
105 -59 191 1 206 97 281 260 202z"/>
<path d="M6265 6459 c-221 -25 -414 -208 -505 -479 -11 -34 -19 -67 -17 -74 2
-6 9 7 16 29 19 58 87 181 137 246 154 201 380 284 574 210 101 -39 207 -141
305 -295 l37 -58 -66 56 c-133 112 -279 158 -436 136 -203 -28 -381 -193 -445
-412 -16 -56 -18 -58 -50 -58 -49 0 -84 16 -122 56 -40 42 -43 35 -7 -14 28
-36 93 -71 133 -72 19 0 22 -4 17 -22 -3 -13 -6 -31 -6 -40 0 -15 -9 -18 -53
-18 -98 0 -191 66 -253 180 -14 25 -22 34 -18 20 14 -54 70 -143 115 -184 46
-42 125 -76 175 -76 19 0 24 -5 24 -24 0 -39 -47 -47 -120 -21 -24 8 -45 13
-47 11 -8 -8 102 -56 128 -56 30 0 30 0 44 -160 8 -87 -24 -240 -68 -335 -58
-122 -182 -220 -294 -233 -53 -6 -57 -22 -5 -22 103 0 233 60 303 139 45 50
94 133 104 174 4 15 10 27 14 27 3 0 18 -31 33 -68 62 -151 194 -311 318 -385
68 -41 55 -41 -44 -1 -77 31 -134 65 -202 121 -31 24 -58 43 -60 40 -7 -7 99
-100 161 -141 121 -81 242 -112 393 -103 120 8 181 26 260 76 112 73 199 212
249 398 26 93 27 110 27 333 0 229 -1 237 -28 325 -15 50 -38 115 -51 145 -13
30 -42 98 -65 151 -45 105 -133 247 -199 321 -107 120 -249 175 -406 157z
m221 -328 c202 -39 367 -192 449 -417 l25 -69 -27 35 c-92 119 -207 189 -321
198 -255 18 -471 -216 -513 -557 -30 -234 42 -484 178 -627 24 -24 40 -44 37
-44 -4 0 -28 16 -55 36 -156 114 -274 321 -314 553 -22 121 -19 334 4 449 64
310 284 491 537 443z m201 -296 c111 -33 240 -166 295 -304 20 -51 22 -73 21
-231 0 -156 -3 -186 -26 -272 -65 -244 -208 -398 -397 -429 -76 -12 -131 -1
-191 37 -237 149 -338 551 -218 868 98 261 305 394 516 331z"/>
<path d="M6467 5786 c-90 -33 -171 -115 -218 -221 -33 -74 -38 -198 -10 -253
13 -26 21 -60 21 -94 1 -239 146 -438 319 -438 316 1 439 553 178 797 -28 26
-64 73 -80 105 -48 97 -125 135 -210 104z m112 -30 c69 -36 124 -169 119 -288
-3 -66 -7 -82 -33 -119 -18 -24 -51 -53 -80 -68 -44 -23 -62 -26 -145 -26
-151 0 -194 37 -193 167 0 121 91 270 195 322 59 29 96 33 137 12z"/>
<path d="M8138 5089 c-321 -40 -619 -194 -791 -410 -110 -138 -109 -152 4 -44
211 202 444 319 735 371 243 42 593 9 894 -85 35 -11 66 -18 69 -16 5 6 -107
56 -198 89 -227 82 -513 120 -713 95z"/>
<path d="M8132 4214 c-174 -38 -329 -132 -399 -241 -19 -30 -33 -56 -31 -58 2
-3 44 29 93 70 101 84 204 142 315 177 68 21 93 23 255 22 158 -1 192 -4 278
-26 113 -29 116 -22 7 15 -163 55 -376 72 -518 41z"/>
<path d="M8282 3824 c-102 -30 -178 -68 -259 -128 -55 -42 -143 -134 -143
-150 0 -3 39 23 86 59 162 122 259 171 396 199 137 28 315 14 426 -34 23 -10
42 -15 42 -11 0 12 -119 59 -193 76 -99 23 -256 19 -355 -11z"/>
<path d="M8494 3416 c-128 -24 -236 -67 -334 -131 -58 -38 -154 -125 -138
-125 4 0 43 25 87 55 184 128 318 174 516 182 129 5 183 -4 340 -51 11 -4 1 3
-23 14 -113 55 -319 81 -448 56z"/>
<path d="M8766 2774 c-181 -36 -374 -173 -448 -318 -18 -36 -9 -29 73 54 143
145 239 201 404 237 93 20 263 12 364 -17 40 -11 75 -19 77 -17 8 7 -127 49
-202 62 -97 18 -178 17 -268 -1z"/>
<path d="M9121 2375 c-149 -34 -327 -156 -392 -269 -16 -28 -29 -54 -29 -58 0
-4 37 31 82 78 129 134 258 208 412 235 64 11 193 8 256 -5 14 -3 5 1 -20 10
-66 22 -231 27 -309 9z"/>
<path d="M12182 2339 c-56 -28 -117 -98 -142 -165 -28 -76 -25 -113 4 -43 52
127 137 199 233 199 21 0 65 -12 98 -25 35 -14 63 -21 68 -16 14 14 2 27 -48
50 -61 29 -155 29 -213 0z"/>
<path d="M9465 1993 c-130 -18 -246 -72 -326 -152 -51 -51 -117 -156 -106
-167 3 -3 21 17 41 45 108 146 303 260 447 261 19 0 41 5 49 10 16 10 -42 12
-105 3z"/>
<path d="M12433 1928 c-12 -13 -24 -39 -28 -58 -9 -41 5 -33 21 13 7 21 18 33
33 35 18 3 27 -8 55 -70 32 -69 34 -76 24 -128 -5 -30 -8 -111 -6 -180 3 -137
14 -170 64 -192 21 -10 28 -8 46 9 16 17 20 33 19 82 -2 148 -112 469 -171
501 -27 14 -34 13 -57 -12z"/>
<path d="M12101 1846 c-50 -53 -76 -233 -68 -465 6 -173 18 -223 60 -255 26
-19 29 -19 55 -4 43 26 81 87 82 132 0 41 -14 78 -86 217 -60 119 -70 170 -50
263 9 40 23 82 31 92 14 18 15 18 39 -11 21 -26 25 -28 31 -12 10 25 -21 67
-48 67 -13 0 -34 -11 -46 -24z"/>
<path d="M9782 1689 c-123 -48 -229 -192 -239 -326 -6 -78 7 -77 27 2 34 132
135 265 240 317 64 32 48 36 -28 7z"/>
<path d="M11290 1536 c-59 -133 -67 -313 -17 -416 25 -53 107 -146 107 -123 0
6 -18 45 -40 85 -55 103 -74 183 -67 288 3 47 15 113 25 148 23 72 19 81 -8
18z"/>
<path d="M12212 658 c22 -34 114 -93 174 -112 141 -44 290 -21 363 58 32 34
17 33 -52 -4 -78 -43 -158 -54 -246 -36 -71 15 -153 52 -207 92 -39 30 -51 30
-32 2z"/>
<path d="M10656 7292 c-3 -5 27 -15 67 -22 205 -36 457 -131 652 -247 163 -96
288 -194 431 -337 275 -276 440 -564 620 -1085 2 -8 7 -11 10 -8 11 11 -68
284 -123 421 -65 166 -105 247 -179 367 -207 335 -486 587 -827 749 -185 87
-367 141 -532 155 -38 3 -80 8 -92 11 -12 2 -24 0 -27 -4z"/>
<path d="M3850 7000 c-366 -36 -775 -213 -1100 -475 -130 -105 -238 -207 -331
-312 -118 -133 -119 -145 -3 -31 244 238 492 416 779 558 333 166 657 240 993
227 79 -3 140 -1 135 3 -25 25 -332 44 -473 30z"/>
</g>
</svg>
