<svg viewBox="0 0 200 200" xmlns="http://www.w3.org/2000/svg"><!-- Upper wings (left) --><ellipse cx="70" cy="80" rx="18" ry="24" fill="none" stroke="black" stroke-width="2" transform="rotate(-20 70 80)"/><!-- Upper wings (right) --><ellipse cx="130" cy="80" rx="18" ry="24" fill="none" stroke="black" stroke-width="2" transform="rotate(20 130 80)"/><!-- Lower wings (left) --><ellipse cx="75" cy="125" rx="14" ry="18" fill="none" stroke="black" stroke-width="2" transform="rotate(-25 75 125)"/><!-- Lower wings (right) --><ellipse cx="125" cy="125" rx="14" ry="18" fill="none" stroke="black" stroke-width="2" transform="rotate(25 125 125)"/><!-- Body (thorax and abdomen) --><ellipse cx="100" cy="100" rx="12" ry="28" fill="none" stroke="black" stroke-width="2"/><!-- Head --><circle cx="100" cy="70" r="10" fill="none" stroke="black" stroke-width="2"/><!-- Eyes --><circle cx="93" cy="68" r="2" fill="black"/><circle cx="107" cy="68" r="2" fill="black"/><!-- Antennae --><path d="M95 62 Q85 45 80 35" fill="none" stroke="black" stroke-width="1.5" stroke-linecap="round"/><path d="M105 62 Q115 45 120 35" fill="none" stroke="black" stroke-width="1.5" stroke-linecap="round"/><!-- Wing details (veins) --><path d="M70 80 L90 95" stroke="black" stroke-width="0.5"/><path d="M130 80 L110 95" stroke="black" stroke-width="0.5"/></svg>