<?xml version="1.0" standalone="no"?>
<!DOCTYPE svg PUBLIC "-//W3C//DTD SVG 20010904//EN"
 "http://www.w3.org/TR/2001/REC-SVG-20010904/DTD/svg10.dtd">
<svg version="1.0" xmlns="http://www.w3.org/2000/svg"
 width="1500.000000pt" height="1500.000000pt" viewBox="0 0 1500.000000 1500.000000"
 preserveAspectRatio="xMidYMid meet">
<metadata>
Created by potrace 1.16, written by Peter Selinger 2001-2019
</metadata>
<g transform="translate(0.000000,1500.000000) scale(0.100000,-0.100000)"
fill="none" stroke="#000000">
<path d="M7130 14119 c-317 -22 -767 -86 -1072 -154 -346 -77 -768 -206 -1015
-311 -163 -68 -551 -263 -698 -349 -598 -352 -1142 -811 -1569 -1320 -828
-991 -1389 -2339 -1600 -3850 -120 -860 -98 -1673 64 -2402 70 -315 205 -734
335 -1038 453 -1063 1219 -1980 2189 -2621 202 -133 538 -328 746 -433 1414
-715 3092 -888 4695 -484 1183 297 2227 895 3080 1764 870 887 1399 1916 1600
3116 82 490 97 1130 39 1668 -87 813 -322 1647 -690 2453 -46 101 -84 185 -84
188 0 13 -234 472 -295 579 -582 1023 -1343 1829 -2230 2360 -343 205 -658
347 -1080 487 -851 281 -1661 398 -2415 347z m980 -128 c485 -60 964 -173
1498 -356 643 -218 1221 -553 1762 -1018 136 -118 471 -453 586 -587 294 -342
530 -676 755 -1068 100 -174 340 -650 438 -867 345 -765 568 -1550 660 -2325
64 -528 60 -1121 -10 -1605 -142 -983 -552 -1925 -1178 -2710 -317 -397 -748
-809 -1191 -1137 -1291 -957 -2999 -1408 -4650 -1228 -214 23 -596 87 -805
135 -1528 347 -2905 1273 -3777 2540 -180 261 -409 681 -530 970 -326 780
-484 1616 -465 2450 14 568 111 1263 262 1875 244 986 648 1869 1184 2588 291
391 606 725 956 1013 584 481 1304 865 2045 1090 442 135 874 214 1370 254
265 21 873 13 1090 -14z"/>
<path d="M4930 11721 c-6 -12 -10 -26 -8 -30 2 -5 45 -37 97 -71 236 -158 480
-453 660 -800 30 -58 56 -107 58 -109 1 -2 15 2 29 9 33 18 30 35 -31 179
-107 253 -287 494 -507 677 -180 150 -271 194 -298 145z"/>
<path d="M9560 11691 c-99 -63 -138 -96 -238 -194 -161 -158 -266 -306 -375
-527 -57 -118 -71 -154 -71 -194 -1 -38 3 -51 20 -62 19 -13 23 -8 86 119 187
373 378 611 617 768 87 57 111 78 111 96 0 23 -26 43 -57 43 -10 0 -52 -22
-93 -49z"/>
<path d="M4775 10041 c-326 -53 -586 -308 -680 -669 -112 -428 97 -892 482
-1069 133 -61 314 -87 448 -64 478 84 796 620 674 1140 -70 301 -300 549 -594
640 -78 25 -245 36 -330 22z m195 -273 c35 -9 60 -27 112 -78 59 -59 69 -75
88 -139 61 -199 -42 -386 -240 -437 -227 -58 -428 171 -366 416 25 97 84 177
164 219 34 18 143 40 172 34 14 -2 45 -9 70 -15z"/>
<path d="M9678 10030 c-277 -50 -510 -255 -622 -547 -138 -356 -49 -766 221
-1024 162 -156 335 -230 538 -230 366 0 661 253 777 666 31 109 33 363 4 470
-24 89 -93 247 -134 308 -112 162 -282 285 -464 337 -82 24 -245 34 -320 20z
m161 -285 c199 -109 244 -383 89 -538 -70 -70 -144 -102 -238 -102 -55 0 -87
6 -120 21 -67 32 -135 97 -167 162 -24 49 -28 68 -27 142 1 132 47 227 143
293 94 65 225 73 320 22z"/>
<path d="M7765 7416 c-95 -16 -128 -24 -307 -78 l-136 -40 -164 46 c-215 61
-299 76 -422 76 -208 0 -345 -70 -410 -209 -17 -38 -21 -65 -21 -151 0 -94 3
-111 27 -160 33 -68 138 -175 230 -236 37 -25 129 -74 205 -110 303 -144 381
-184 450 -233 l71 -50 9 -108 c4 -59 8 -181 7 -270 -1 -154 -2 -164 -28 -217
-55 -113 -176 -219 -355 -310 -389 -198 -865 -248 -1317 -137 -145 36 -326
101 -321 116 2 5 64 61 138 123 226 192 322 276 326 289 5 13 -47 43 -74 43
-10 0 -76 -53 -148 -117 -224 -199 -299 -265 -323 -281 -21 -14 -27 -12 -94
34 -84 58 -218 186 -218 208 0 24 92 80 215 131 165 69 219 108 239 173 6 19
4 22 -22 22 -64 0 -178 -51 -377 -169 -65 -39 -124 -70 -130 -68 -13 4 -60 88
-84 152 -36 96 -37 90 20 114 28 11 111 35 183 52 207 50 354 90 370 102 26
20 -1 61 -42 65 -57 6 -410 -84 -530 -133 -19 -8 -38 -15 -42 -15 -4 0 -13 36
-20 81 -13 82 -9 174 10 240 10 34 14 37 58 44 26 4 166 10 312 14 l265 6 3
27 c2 17 -5 35 -19 49 -21 21 -26 22 -168 15 -80 -4 -208 -11 -285 -17 -76 -6
-140 -8 -143 -5 -10 9 66 155 102 194 31 35 44 42 74 42 48 0 158 -20 384 -70
196 -43 217 -43 217 0 0 40 -34 61 -133 85 -136 33 -329 65 -393 65 -29 0 -55
4 -58 9 -9 14 130 138 222 198 100 66 195 111 327 154 55 18 106 37 113 42 6
5 12 22 12 38 0 47 -26 52 -123 24 -395 -115 -705 -385 -827 -722 -12 -35 -30
-65 -39 -67 -9 -3 -81 -12 -161 -21 -264 -29 -597 -87 -862 -150 l-97 -23 -20
52 c-10 28 -31 105 -46 171 -46 207 -84 357 -90 364 -10 9 -34 -29 -46 -74
-19 -67 -4 -159 55 -343 31 -95 56 -178 56 -185 0 -7 -66 -32 -155 -59 -315
-97 -603 -227 -865 -391 -95 -59 -110 -75 -110 -114 0 -21 5 -33 13 -33 8 0
56 23 108 51 152 83 456 233 574 284 135 58 395 145 441 148 l35 2 69 -153
c73 -162 108 -228 174 -331 27 -42 36 -66 28 -69 -18 -6 -232 -144 -338 -218
-373 -260 -710 -595 -934 -930 -93 -139 -101 -174 -40 -174 33 0 31 -2 166
185 246 340 562 643 919 882 120 80 284 175 294 171 5 -2 44 -48 88 -103 44
-55 112 -136 150 -180 l71 -80 -102 -108 c-319 -342 -505 -587 -651 -855 -121
-223 -145 -305 -96 -332 17 -9 26 3 84 113 189 359 431 695 698 970 l134 137
70 -61 c91 -79 226 -181 345 -259 52 -35 99 -66 103 -70 4 -4 -27 -65 -69
-136 -220 -369 -344 -664 -388 -923 -22 -133 -22 -151 7 -151 39 0 53 28 91
171 52 202 117 373 216 574 82 167 219 392 245 401 6 3 49 -16 96 -42 512
-286 1241 -494 1984 -566 205 -20 939 -17 1135 5 704 79 1265 232 1813 494 83
40 141 63 147 57 20 -21 92 -158 135 -259 62 -145 111 -295 185 -565 34 -124
66 -229 72 -235 6 -7 16 -2 29 14 26 32 25 95 -6 249 -46 227 -139 483 -261
721 -40 80 -72 146 -71 146 1 1 36 23 77 50 81 51 381 266 418 299 l23 20 111
-114 c263 -271 501 -621 641 -942 40 -95 43 -98 74 -98 17 0 35 4 38 10 9 15
-51 184 -109 305 -118 247 -290 481 -600 820 l-79 86 39 42 c21 23 71 76 110
117 39 41 102 111 139 155 38 44 72 82 77 83 26 11 381 -238 553 -388 221
-193 502 -510 575 -648 36 -68 92 -125 118 -120 19 3 27 46 18 84 -18 69 -239
360 -408 535 -173 181 -480 428 -758 610 l-24 16 100 154 c99 151 200 327 243
422 16 36 26 47 39 43 323 -93 492 -150 685 -230 120 -50 314 -148 420 -212
107 -65 135 -69 151 -18 9 30 -8 46 -139 125 -254 153 -547 273 -946 384 -74
21 -138 41 -142 45 -5 4 17 83 47 174 33 96 59 193 63 230 l6 63 -39 6 c-21 4
-40 5 -42 3 -2 -2 -23 -76 -47 -164 -46 -166 -91 -292 -105 -292 -4 0 -63 13
-131 30 -263 62 -553 107 -884 135 -99 9 -184 20 -188 24 -5 5 -24 46 -43 91
-121 297 -403 546 -753 665 -99 33 -155 33 -177 0 -9 -14 -15 -27 -13 -29 2
-2 57 -24 121 -49 157 -62 268 -116 358 -175 82 -55 198 -156 189 -166 -3 -3
-84 -21 -180 -40 -198 -39 -315 -78 -324 -107 -10 -29 4 -59 26 -59 11 0 104
20 207 45 103 24 220 50 261 56 l74 12 24 -29 c28 -35 120 -211 113 -217 -3
-3 -102 1 -220 9 -118 8 -252 12 -297 9 -83 -7 -83 -7 -83 -35 0 -54 17 -60
173 -60 139 0 385 -14 440 -26 27 -6 27 -6 27 -89 0 -76 -14 -216 -26 -256 -3
-13 -31 -6 -177 43 -94 31 -223 67 -286 80 l-114 22 -18 -23 c-25 -31 -24 -49
4 -61 12 -6 94 -28 182 -50 164 -41 339 -94 364 -109 11 -7 10 -17 -4 -62 -19
-59 -80 -185 -93 -192 -4 -3 -66 31 -137 74 -193 119 -332 185 -351 166 -3 -3
3 -25 14 -50 24 -55 68 -86 233 -166 68 -33 138 -71 154 -85 l30 -24 -76 -74
c-41 -40 -117 -102 -167 -136 l-92 -63 -143 134 c-172 164 -329 297 -349 297
-13 0 -58 -40 -58 -51 0 -3 64 -61 143 -129 155 -136 297 -269 297 -281 0 -11
-134 -65 -236 -94 -309 -90 -676 -94 -999 -10 -135 35 -208 61 -310 110 -231
111 -394 260 -426 393 -6 20 -10 142 -10 271 1 271 -8 247 118 331 68 46 124
74 413 213 152 72 252 141 333 227 95 100 120 153 125 265 3 74 0 100 -17 146
-39 103 -124 172 -261 214 -75 22 -246 28 -345 11z m2700 -1027 c272 -29 796
-118 818 -139 24 -22 -153 -343 -295 -537 l-38 -52 -73 40 c-129 72 -337 171
-542 255 l-200 83 1 43 c1 44 12 331 13 335 1 4 123 -7 316 -28z m-5885 -141
c0 -90 3 -172 6 -183 5 -18 -3 -23 -53 -39 -124 -39 -391 -149 -569 -236 -103
-49 -191 -87 -195 -83 -36 38 -237 438 -254 506 -6 22 -1 24 132 55 191 44
382 78 601 107 103 13 198 26 212 28 14 2 46 5 73 6 l47 1 0 -162z m55 -370
c15 -40 42 -101 61 -135 l33 -62 -67 -42 c-98 -61 -322 -223 -426 -306 -49
-40 -92 -73 -95 -73 -9 0 -95 90 -163 170 -89 105 -140 178 -133 190 8 14 249
134 380 190 72 31 326 124 382 140 1 0 13 -33 28 -72z m5541 38 c199 -67 694
-302 694 -329 0 -21 -125 -172 -227 -275 l-112 -113 -118 103 c-132 117 -275
231 -375 302 -38 26 -68 51 -68 56 0 8 130 280 134 280 2 0 34 -11 72 -24z
m-5308 -397 c48 -45 122 -109 164 -142 l77 -59 -76 -92 c-41 -50 -131 -165
-200 -256 -69 -91 -130 -164 -135 -162 -6 2 -70 43 -142 92 -136 92 -231 165
-310 238 l-47 43 23 20 c130 112 525 397 551 399 5 0 48 -37 95 -81z m2549 0
c108 -114 254 -218 413 -293 187 -89 381 -137 629 -158 294 -25 690 40 941
154 l65 29 38 -43 c103 -117 357 -463 357 -487 0 -10 -265 -137 -407 -195
-533 -218 -1156 -344 -1851 -377 -329 -16 -735 4 -1072 51 -415 59 -910 192
-1290 347 -152 62 -440 198 -440 208 0 27 261 363 349 449 l50 49 118 -45
c496 -193 1069 -197 1500 -12 181 78 310 163 448 296 49 48 91 87 92 88 1 0
28 -28 60 -61z m2643 -49 c130 -98 339 -271 378 -312 l22 -25 -87 -70 c-83
-67 -384 -280 -409 -290 -6 -2 -38 33 -70 79 -81 117 -196 269 -272 361 -35
43 -63 79 -61 81 2 2 40 31 84 64 44 32 122 96 174 140 58 50 99 78 105 73 6
-4 67 -50 136 -101z"/>
</g>
</svg>
