<?xml version="1.0" standalone="no"?>
<!DOCTYPE svg PUBLIC "-//W3C//DTD SVG 20010904//EN"
 "http://www.w3.org/TR/2001/REC-SVG-20010904/DTD/svg10.dtd">
<svg version="1.0" xmlns="http://www.w3.org/2000/svg"
 width="1500.000000pt" height="1500.000000pt" viewBox="0 0 1500.000000 1500.000000"
 preserveAspectRatio="xMidYMid meet">
<metadata>
Created by potrace 1.16, written by Peter Selinger 2001-2019
</metadata>
<g transform="translate(0.000000,1500.000000) scale(0.100000,-0.100000)"
fill="#000000" stroke="none">
<path d="M6805 12023 c-22 -1 -103 -8 -180 -13 -460 -36 -1039 -151 -1715
-340 -349 -98 -675 -263 -1245 -629 -197 -127 -258 -176 -369 -297 -48 -52
-135 -134 -194 -182 -234 -193 -283 -245 -445 -481 -63 -91 -175 -251 -249
-354 -166 -233 -207 -310 -351 -662 -63 -154 -147 -350 -187 -435 -233 -501
-325 -858 -370 -1434 -16 -207 -13 -1034 5 -1219 38 -402 67 -563 136 -767 53
-157 100 -256 205 -435 56 -93 139 -244 186 -335 110 -214 205 -368 275 -448
31 -35 110 -107 175 -159 65 -52 149 -129 186 -171 121 -137 206 -224 263
-267 52 -40 393 -257 639 -405 117 -71 338 -179 475 -233 149 -59 583 -176
866 -233 146 -29 299 -62 340 -74 41 -11 223 -41 404 -65 182 -25 384 -54 450
-65 403 -65 1003 -96 1810 -92 787 4 1046 17 1425 72 74 11 189 27 255 35 156
20 190 26 445 87 208 48 301 73 590 157 74 22 191 55 260 74 214 60 570 187
672 239 54 27 144 84 200 125 57 41 164 105 240 143 144 72 237 131 359 227
41 32 117 91 169 130 178 133 325 307 584 693 106 158 197 329 250 468 39 102
123 379 160 527 119 479 122 1005 16 2235 -36 415 -50 527 -96 770 -79 417
-126 552 -340 981 -64 129 -134 274 -155 322 -83 191 -177 342 -301 483 -236
268 -458 511 -524 574 -82 77 -497 400 -594 462 -106 68 -477 272 -631 348
-443 217 -693 297 -1474 465 -770 166 -982 186 -1975 183 -333 -1 -623 -3
-645 -5z m1634 -238 c270 -23 475 -56 696 -111 55 -14 244 -54 420 -89 573
-114 813 -194 1259 -417 87 -43 197 -103 245 -132 47 -29 134 -78 192 -109
178 -95 388 -241 616 -430 120 -100 605 -637 716 -792 44 -63 121 -213 368
-723 160 -328 187 -411 268 -803 48 -236 74 -425 96 -699 8 -113 24 -311 35
-440 40 -478 44 -583 44 -960 0 -405 -2 -437 -55 -717 -32 -169 -43 -172 -58
-17 -15 159 -43 355 -77 539 -45 247 -194 946 -229 1075 -46 172 -128 401
-220 615 -42 99 -115 271 -161 383 -134 323 -210 463 -343 631 -85 107 -109
141 -204 286 -80 123 -169 221 -293 320 -52 42 -139 115 -193 163 -122 108
-161 131 -392 236 -218 99 -314 134 -475 172 -107 26 -137 29 -289 28 -203 0
-274 -12 -523 -90 -207 -64 -276 -95 -432 -194 -192 -123 -259 -176 -404 -324
-289 -295 -420 -483 -566 -811 -34 -77 -93 -199 -131 -270 -124 -236 -210
-470 -288 -780 -118 -476 -168 -852 -159 -1208 l6 -198 -32 7 c-17 3 -69 17
-116 31 -67 20 -115 27 -227 30 -156 6 -251 -4 -396 -42 -51 -14 -95 -25 -98
-25 -3 0 -6 147 -6 328 0 333 -7 457 -54 867 -11 99 -26 218 -34 266 -14 81
-168 633 -234 841 -45 138 -166 373 -267 513 -47 66 -114 163 -149 215 -35 52
-93 129 -129 172 -61 70 -258 240 -445 381 -125 95 -483 260 -666 306 -346 89
-676 36 -1120 -179 -83 -41 -129 -73 -270 -192 -241 -203 -351 -312 -483 -478
-64 -80 -150 -188 -192 -240 -42 -52 -95 -123 -119 -158 -68 -100 -465 -895
-505 -1010 -82 -238 -222 -810 -320 -1307 -64 -327 -70 -395 -71 -760 0 -181
3 -382 7 -445 9 -133 6 -133 -63 2 -116 230 -184 543 -209 963 -16 273 -13
983 5 1176 30 318 83 613 152 839 42 140 130 365 188 480 64 129 148 323 190
440 56 156 142 354 195 446 25 44 109 168 186 275 77 107 181 253 231 324 117
166 172 227 297 327 55 45 184 163 286 263 152 149 204 193 295 250 61 38 162
104 225 146 140 93 322 196 530 299 180 90 297 138 430 175 52 15 145 42 205
60 183 54 665 168 850 200 260 45 622 89 825 98 41 3 386 3 765 1 521 -2 735
-7 874 -19z m-3419 -2077 c211 -56 537 -214 705 -340 190 -143 330 -264 387
-335 80 -100 318 -445 375 -544 27 -48 68 -134 91 -192 45 -113 215 -668 262
-857 56 -223 98 -694 107 -1201 l6 -355 -74 -23 c-112 -35 -263 -98 -471 -196
-143 -67 -206 -103 -270 -153 -45 -36 -140 -103 -210 -149 -208 -136 -290
-226 -351 -382 -23 -60 -30 -97 -35 -179 l-5 -102 38 -76 c81 -164 206 -245
475 -305 57 -13 216 -28 480 -45 376 -25 438 -27 1290 -28 808 -1 908 1 1025
17 235 32 285 51 386 149 108 103 121 169 70 338 -59 194 -108 292 -198 402
-51 63 -89 97 -258 230 -38 30 -114 95 -167 144 -122 113 -156 132 -445 265
l-238 108 1 208 c2 434 77 912 220 1398 59 201 99 295 291 690 237 488 277
550 526 820 186 201 203 216 402 348 218 144 254 163 418 216 235 76 473 118
602 106 168 -15 384 -76 581 -163 288 -128 330 -152 464 -272 47 -42 108 -93
135 -115 161 -128 241 -217 336 -375 28 -46 89 -135 136 -199 176 -237 261
-390 363 -661 34 -91 86 -217 115 -280 217 -476 292 -748 480 -1745 79 -425
93 -531 106 -828 l11 -239 -27 -76 c-43 -121 -109 -242 -247 -447 -232 -347
-365 -496 -600 -677 -206 -158 -271 -200 -429 -278 -80 -39 -167 -92 -240
-147 -63 -47 -150 -103 -194 -125 -95 -46 -490 -175 -770 -252 -110 -30 -235
-66 -278 -81 -100 -32 -419 -108 -567 -134 -105 -19 -567 -75 -817 -100 -289
-29 -1452 -43 -1878 -22 -137 6 -341 16 -452 21 -200 10 -286 20 -898 106
-344 49 -476 72 -625 109 -52 13 -171 38 -265 55 -214 39 -654 157 -805 217
-172 68 -348 162 -620 332 -436 273 -429 268 -610 451 -91 92 -210 203 -266
248 -147 117 -201 182 -301 362 -113 202 -129 242 -157 415 -40 247 -50 459
-37 815 11 330 20 399 92 755 82 407 193 858 270 1102 30 95 384 836 470 985
38 64 76 117 283 387 195 254 271 331 566 572 132 107 159 123 350 199 299
120 396 141 630 136 137 -3 181 -8 260 -28z m2751 -3964 c178 -47 265 -80 489
-184 163 -75 206 -104 330 -215 52 -47 137 -115 187 -151 163 -116 255 -228
327 -401 43 -103 58 -166 47 -195 -10 -28 -77 -90 -119 -112 -90 -46 -412 -67
-995 -64 -694 3 -1116 14 -1537 42 -332 21 -398 28 -484 51 -175 46 -238 81
-306 167 -65 81 -65 123 -2 226 56 94 134 167 277 260 72 47 175 119 229 159
120 90 131 95 416 216 222 94 538 206 655 232 33 7 118 14 188 14 122 1 137
-1 298 -45z"/>
<path d="M10658 6875 c-72 -18 -182 -73 -275 -137 -106 -73 -178 -177 -219
-313 -23 -79 -23 -237 0 -325 84 -323 411 -546 771 -527 381 19 647 332 596
701 -23 166 -84 289 -201 406 -87 87 -172 140 -285 177 -100 32 -294 42 -387
18z m112 -222 c45 -46 82 -139 83 -212 1 -49 -1 -56 -35 -86 -44 -41 -123 -60
-209 -50 -102 12 -132 56 -133 200 -1 63 3 87 19 113 29 47 86 72 169 72 66 0
70 -1 106 -37z"/>
<path d="M4350 6854 c-82 -17 -225 -88 -314 -156 -79 -60 -151 -160 -186 -260
-34 -99 -39 -250 -11 -358 53 -204 180 -353 390 -459 100 -51 198 -72 331 -72
207 0 340 51 471 181 120 119 179 261 179 430 -1 204 -83 391 -230 524 -166
149 -416 216 -630 170z m53 -198 c49 -20 84 -69 108 -147 47 -156 -13 -229
-189 -229 -129 0 -171 48 -172 193 0 83 11 116 52 154 41 39 144 53 201 29z"/>
<path d="M12397 5234 c-66 -41 -358 -359 -350 -381 8 -22 54 -15 92 14 110 83
269 261 317 354 30 60 20 62 -59 13z"/>
<path d="M11340 5149 c-130 -71 -228 -150 -320 -257 -60 -70 -71 -102 -35
-102 8 0 64 44 123 98 59 53 153 136 209 185 91 79 126 117 105 117 -4 0 -41
-19 -82 -41z"/>
<path d="M3194 5126 c-64 -48 -257 -241 -292 -292 -23 -33 -20 -44 9 -44 37 0
366 356 347 375 -3 3 -32 -14 -64 -39z"/>
<path d="M11782 5135 c-29 -13 -71 -37 -95 -54 -74 -51 -247 -238 -247 -267 0
-24 34 -24 69 0 20 14 110 97 201 185 171 166 183 188 72 136z"/>
<path d="M3530 5003 c-176 -178 -243 -273 -194 -273 22 0 215 190 278 275 148
196 112 195 -84 -2z"/>
<path d="M3980 5054 c-60 -34 -92 -65 -155 -149 -82 -111 -102 -159 -70 -172
23 -8 45 15 171 181 137 178 141 190 54 140z"/>
</g>
</svg>
