<?xml version="1.0" standalone="no"?>
<!DOCTYPE svg PUBLIC "-//W3C//DTD SVG 20010904//EN"
 "http://www.w3.org/TR/2001/REC-SVG-20010904/DTD/svg10.dtd">
<svg version="1.0" xmlns="http://www.w3.org/2000/svg"
 width="1500.000000pt" height="1529.000000pt" viewBox="0 0 1500.000000 1529.000000"
 preserveAspectRatio="xMidYMid meet">
<metadata>
Created by potrace 1.16, written by Peter Selinger 2001-2019
</metadata>
<g transform="translate(0.000000,1529.000000) scale(0.100000,-0.100000)"
fill="#000000" stroke="none">
<path d="M1110 15275 c-127 -16 -241 -40 -278 -58 -15 -8 -49 -19 -76 -26 -72
-18 -136 -53 -228 -127 -109 -87 -132 -113 -180 -209 -22 -44 -49 -92 -60
-107 -10 -15 -27 -51 -37 -80 -10 -30 -30 -76 -44 -104 -14 -28 -37 -95 -52
-149 -14 -54 -28 -102 -31 -106 -4 -7 -29 -123 -75 -344 -10 -49 -26 -193 -35
-320 -14 -195 -15 -258 -5 -415 6 -102 11 -235 11 -297 0 -62 6 -161 14 -220
8 -59 17 -146 21 -193 3 -47 10 -114 15 -150 5 -36 14 -121 20 -190 7 -69 21
-192 32 -275 10 -82 28 -235 38 -340 38 -380 43 -419 86 -630 8 -38 21 -104
30 -145 41 -201 119 -453 174 -560 10 -19 28 -69 40 -110 12 -41 39 -106 59
-145 21 -38 44 -88 51 -110 23 -73 96 -229 143 -306 25 -42 55 -99 65 -127 11
-28 45 -87 75 -130 30 -43 71 -110 91 -150 33 -65 105 -183 178 -291 17 -26
27 -50 23 -60 -3 -9 -43 -74 -87 -145 -45 -72 -103 -179 -129 -239 -26 -60
-68 -141 -92 -180 -25 -40 -52 -97 -62 -127 -10 -30 -22 -60 -27 -66 -4 -7
-21 -49 -37 -95 -16 -46 -38 -106 -49 -134 -40 -100 -103 -356 -128 -520 -11
-68 -15 -144 -12 -240 l4 -140 54 -120 c30 -66 139 -291 243 -500 379 -763
505 -1021 517 -1060 7 -22 28 -65 46 -95 18 -30 62 -122 98 -205 35 -82 81
-179 101 -215 21 -36 56 -112 80 -170 23 -58 57 -130 75 -160 18 -30 73 -134
123 -230 50 -96 104 -191 121 -212 17 -20 40 -54 51 -75 26 -49 206 -231 309
-310 45 -35 128 -95 186 -135 58 -39 140 -98 183 -130 43 -31 119 -82 170
-112 51 -30 121 -77 155 -105 35 -28 78 -59 95 -68 18 -8 56 -36 85 -62 29
-25 84 -71 122 -101 162 -129 199 -162 236 -207 39 -49 125 -146 251 -284 86
-94 303 -367 354 -445 20 -31 57 -77 81 -102 25 -26 73 -84 107 -129 34 -46
98 -113 146 -153 46 -38 87 -74 90 -80 9 -15 221 -198 298 -258 37 -29 98 -73
136 -97 38 -25 93 -65 122 -91 30 -25 91 -68 136 -95 46 -28 104 -67 131 -88
26 -21 88 -57 137 -80 49 -23 96 -48 105 -55 8 -8 71 -38 140 -67 129 -55 226
-116 427 -266 210 -156 462 -256 783 -307 252 -41 302 -46 445 -46 288 0 667
65 879 151 113 45 285 138 364 196 39 29 105 77 145 107 90 67 173 116 257
151 118 49 304 147 370 195 36 26 103 69 149 96 46 27 113 75 149 106 36 31
93 73 127 92 33 20 89 61 124 92 36 31 83 67 105 81 23 14 79 61 126 105 47
43 111 102 142 131 62 57 200 212 238 267 13 19 44 58 70 85 25 28 74 91 107
140 33 50 71 99 83 110 12 11 45 49 73 85 28 36 78 97 112 135 33 39 94 110
135 159 209 249 552 524 1063 851 52 33 118 81 148 106 30 25 79 62 109 82 30
19 69 49 85 67 17 18 63 57 103 87 108 82 218 233 342 468 34 66 71 131 80
145 9 14 36 68 59 120 57 127 103 225 162 345 27 55 61 134 75 175 25 70 98
216 151 302 13 21 23 42 23 48 0 11 120 276 143 315 6 11 62 121 124 244 62
123 144 285 183 360 38 75 102 206 141 291 40 85 85 176 101 202 32 52 84 185
104 268 23 92 17 223 -17 407 -17 92 -42 208 -56 257 -25 91 -115 348 -154
441 -12 28 -33 82 -48 120 -15 39 -47 104 -70 145 -24 41 -49 90 -57 108 -7
18 -56 102 -109 186 -52 85 -95 160 -95 168 0 19 104 223 133 262 13 17 37 56
52 85 15 30 45 79 67 108 22 29 85 141 140 250 55 109 120 235 144 279 25 45
55 113 69 150 31 90 63 174 117 309 63 156 145 422 172 557 9 42 20 87 25 100
5 13 18 93 30 178 12 85 28 198 36 250 8 52 21 167 30 255 8 88 22 207 30 265
68 476 122 1254 112 1635 -9 356 -31 502 -136 901 -46 172 -140 392 -200 468
-17 21 -31 44 -31 51 0 7 -20 41 -45 74 -100 135 -328 242 -638 298 -154 27
-193 27 -402 -3 -178 -25 -450 -104 -551 -160 -33 -19 -66 -34 -73 -34 -7 0
-31 -9 -54 -21 -23 -11 -71 -32 -107 -46 -36 -13 -92 -42 -125 -63 -33 -21
-107 -64 -165 -95 -58 -32 -121 -70 -140 -85 -19 -15 -135 -93 -258 -174 -122
-81 -242 -164 -266 -185 -24 -21 -61 -48 -82 -61 -22 -13 -65 -48 -97 -77 -32
-29 -84 -71 -115 -92 -31 -22 -79 -63 -107 -91 -27 -29 -69 -65 -92 -80 -23
-15 -83 -65 -133 -111 -318 -294 -452 -421 -580 -549 -80 -80 -190 -184 -245
-231 -55 -48 -113 -101 -130 -119 -16 -18 -55 -51 -85 -73 -30 -22 -84 -66
-120 -97 -36 -32 -92 -74 -125 -95 -33 -20 -71 -48 -85 -61 -14 -13 -70 -48
-125 -78 -55 -29 -133 -72 -174 -95 -41 -22 -79 -41 -85 -41 -6 0 -31 -10 -56
-21 -60 -27 -164 -45 -338 -59 -142 -11 -349 -6 -797 20 -93 6 -226 12 -294
15 -68 3 -153 10 -189 16 -77 14 -573 6 -722 -10 -155 -18 -533 -34 -871 -38
-254 -3 -331 -1 -389 11 -87 18 -314 114 -390 164 -30 20 -111 71 -179 115
-69 43 -141 95 -162 117 -20 21 -65 57 -100 80 -35 24 -102 79 -149 123 -47
44 -134 125 -194 181 -60 55 -137 128 -170 162 -34 33 -110 105 -171 159 -60
54 -175 160 -255 236 -80 76 -179 165 -220 200 -41 34 -107 92 -146 129 -39
37 -100 87 -135 111 -35 24 -91 68 -124 99 -33 30 -78 66 -100 79 -22 14 -73
51 -113 84 -190 155 -772 518 -935 584 -34 14 -66 29 -72 34 -5 5 -17 9 -26 9
-10 0 -34 9 -53 21 -58 34 -196 89 -271 108 -38 10 -110 30 -158 45 -91 26
-335 67 -397 65 -19 -1 -82 -7 -140 -14z m309 -511 c80 -19 180 -48 221 -64
125 -47 252 -99 305 -125 28 -13 68 -31 90 -40 113 -45 650 -380 789 -492 33
-27 84 -64 114 -84 75 -51 331 -260 417 -340 38 -37 90 -79 115 -94 79 -48
637 -602 725 -720 29 -38 70 -86 90 -105 20 -19 75 -88 121 -152 46 -64 105
-140 130 -170 25 -29 64 -84 87 -123 22 -38 57 -91 77 -116 40 -50 102 -170
124 -239 8 -25 26 -76 40 -115 36 -99 34 -151 -7 -211 -44 -64 -82 -88 -167
-108 -70 -15 -73 -15 -182 10 -140 33 -381 146 -478 224 -36 29 -105 76 -155
105 -49 30 -121 80 -160 112 -38 33 -90 73 -115 90 -25 17 -58 45 -75 63 -16
17 -57 48 -90 67 -33 20 -80 51 -105 69 -71 50 -211 97 -295 97 -146 1 -282
-74 -370 -204 -66 -96 -91 -176 -106 -332 -12 -137 -2 -321 26 -442 43 -189
174 -387 320 -485 95 -63 138 -86 215 -111 89 -28 167 -75 185 -109 20 -40 18
-116 -4 -166 -11 -23 -49 -72 -85 -109 -36 -37 -66 -71 -66 -75 0 -4 -66 -49
-147 -100 -82 -52 -161 -104 -177 -118 -16 -13 -84 -50 -150 -82 -67 -32 -157
-81 -202 -108 -44 -27 -123 -69 -175 -94 -123 -59 -423 -262 -560 -379 l-56
-48 -20 22 c-12 12 -28 37 -38 56 -9 18 -32 54 -50 80 -41 58 -70 115 -84 166
-6 23 -29 70 -51 105 -48 77 -160 297 -160 315 0 7 -23 47 -50 89 -54 83 -108
175 -176 303 -24 46 -76 133 -115 194 -87 139 -140 245 -163 329 -10 36 -25
85 -32 109 -8 25 -14 58 -14 75 0 17 -9 58 -19 91 -10 33 -22 87 -26 120 -11
97 -44 331 -65 455 -10 63 -21 176 -25 250 -3 74 -12 187 -20 250 -8 63 -26
274 -41 469 -22 304 -25 395 -21 640 3 157 8 309 12 336 3 28 13 113 21 190 8
77 21 165 29 195 8 30 21 84 29 120 21 97 77 209 157 316 76 102 100 123 164
141 22 6 58 18 80 27 27 10 76 15 154 16 97 0 135 -5 260 -36z m12643 -3 c59
-19 74 -30 135 -95 85 -93 127 -161 169 -279 87 -242 125 -549 124 -1004 0
-298 -11 -505 -55 -993 -8 -96 -20 -236 -26 -310 -5 -74 -17 -156 -25 -182 -9
-26 -13 -51 -10 -56 3 -5 1 -39 -5 -78 -5 -38 -13 -107 -19 -154 -5 -47 -16
-119 -25 -160 -8 -41 -20 -113 -26 -160 -30 -239 -114 -450 -269 -680 -20 -30
-81 -134 -135 -230 -53 -96 -103 -182 -110 -190 -7 -8 -40 -69 -73 -135 -34
-66 -85 -161 -115 -211 -30 -50 -82 -151 -116 -225 -34 -74 -83 -166 -109
-205 l-46 -72 -51 39 c-29 22 -55 39 -60 39 -4 0 -26 16 -49 36 -55 48 -202
151 -251 176 -22 11 -69 41 -105 67 -36 25 -130 80 -210 122 -341 179 -520
279 -589 330 -40 30 -101 74 -134 99 -61 45 -144 138 -174 194 -19 36 -21 108
-4 157 16 48 92 100 196 133 219 69 394 241 480 471 56 148 67 223 66 440 -1
194 -1 203 -31 292 -16 51 -42 112 -57 135 -37 59 -131 151 -179 176 -65 33
-172 51 -254 42 -80 -9 -88 -13 -70 -35 15 -18 15 -19 -29 -34 -39 -13 -53 -8
-22 9 12 6 21 18 21 26 0 12 -6 15 -27 9 -36 -9 -161 -85 -253 -155 -193 -145
-299 -227 -339 -262 -25 -21 -79 -59 -120 -85 -42 -25 -93 -60 -113 -78 -50
-43 -166 -102 -308 -158 -129 -50 -202 -67 -300 -67 -82 0 -153 32 -205 93
-32 37 -35 46 -35 103 0 112 110 383 206 506 25 31 59 83 77 115 75 132 517
666 680 822 32 31 128 124 214 208 86 83 194 182 241 220 47 37 110 91 141
119 31 28 101 86 156 129 55 43 120 97 145 120 25 23 70 57 100 75 30 19 75
50 99 69 25 20 59 45 75 56 17 12 101 69 187 127 85 58 198 129 250 158 52 29
107 62 123 74 44 30 307 152 416 192 52 19 130 49 173 65 42 16 119 40 170 54
83 22 108 24 257 21 137 -2 176 -6 232 -25z m-4302 -2693 c0 -7 -13 -47 -29
-88 -17 -41 -47 -138 -67 -215 -37 -137 -38 -144 -38 -325 -1 -198 2 -218 60
-424 40 -141 92 -234 122 -216 35 20 50 37 101 118 67 103 93 183 95 284 1 87
4 89 63 58 110 -57 454 -47 658 19 111 35 449 162 515 193 144 67 208 96 270
124 35 16 112 55 170 86 66 35 137 65 190 78 46 12 100 28 119 36 33 14 36 13
57 -8 l22 -23 -19 -85 c-38 -174 -76 -299 -101 -332 -14 -18 -52 -47 -84 -64
-96 -50 -225 -131 -289 -182 -33 -27 -98 -70 -144 -97 -101 -60 -190 -145
-228 -217 -26 -49 -28 -62 -28 -168 0 -97 4 -122 22 -162 54 -117 181 -267
307 -362 104 -78 362 -231 506 -299 68 -33 147 -74 175 -91 27 -18 88 -52 135
-75 47 -24 135 -76 195 -116 61 -39 132 -85 158 -100 27 -15 72 -49 100 -75
29 -25 73 -61 100 -79 26 -18 70 -60 99 -94 28 -34 73 -81 100 -106 29 -25 72
-82 103 -136 30 -51 74 -114 98 -141 42 -48 180 -293 226 -404 13 -30 55 -114
93 -186 38 -73 82 -167 98 -210 40 -110 75 -187 120 -264 89 -151 131 -365
114 -577 -10 -121 -14 -135 -64 -253 -29 -69 -56 -130 -61 -136 -5 -6 -57
-105 -115 -220 -59 -115 -162 -317 -230 -449 -68 -132 -166 -328 -219 -435
-53 -107 -107 -215 -120 -240 -13 -25 -31 -67 -40 -94 -9 -26 -29 -69 -45 -95
-15 -25 -47 -90 -70 -144 -83 -192 -350 -708 -421 -814 -118 -177 -269 -344
-374 -416 -33 -22 -83 -62 -112 -88 -29 -25 -82 -63 -118 -83 -36 -20 -116
-71 -178 -115 -61 -43 -144 -97 -183 -119 -77 -45 -282 -203 -378 -292 -182
-170 -315 -304 -369 -370 -33 -41 -75 -87 -93 -102 -18 -16 -51 -58 -74 -95
-24 -38 -64 -90 -89 -118 -26 -27 -71 -86 -100 -130 -30 -44 -80 -109 -111
-145 -32 -36 -75 -90 -96 -120 -44 -63 -167 -220 -170 -217 -1 1 -7 56 -14
122 -6 66 -17 140 -25 165 -7 25 -19 77 -25 115 -16 103 -83 353 -130 485 -22
63 -49 140 -60 170 -10 30 -94 206 -186 390 -91 184 -177 363 -190 397 -13 34
-48 113 -78 175 -29 62 -68 156 -84 208 -50 154 -91 292 -98 330 -3 19 -19 84
-36 143 -16 60 -33 130 -38 155 -5 26 -22 110 -38 188 -69 328 -35 735 74 880
37 50 74 60 142 40 31 -9 79 -21 105 -26 27 -6 65 -17 85 -26 127 -53 421
-104 595 -104 134 0 146 2 276 40 126 36 461 236 532 318 19 21 52 51 74 67
22 16 139 126 260 245 261 257 344 324 426 343 15 4 37 16 50 27 l24 20 -30
-6 c-16 -3 -59 -15 -94 -25 -125 -38 -186 -21 -496 131 -99 49 -191 92 -205
96 -14 3 -42 15 -62 25 -97 49 -376 105 -480 97 -110 -9 -313 -67 -503 -143
-249 -101 -382 -170 -480 -250 -44 -35 -81 -60 -83 -55 -15 43 63 222 126 293
21 23 63 77 95 119 52 71 145 151 286 248 20 14 52 37 71 52 61 46 233 150
297 179 34 16 64 33 67 38 4 5 1 33 -5 62 l-11 52 -82 -6 c-56 -3 -98 -13
-137 -30 -111 -50 -245 -130 -301 -181 -69 -63 -176 -124 -182 -104 -3 7 -7
72 -9 143 -5 142 -24 208 -68 239 -29 20 -33 14 -49 -84 -7 -41 -19 -88 -27
-103 -7 -15 -25 -67 -39 -114 -14 -48 -29 -92 -33 -98 -5 -5 -11 -27 -15 -48
-4 -21 -27 -107 -51 -190 -42 -147 -67 -214 -135 -362 -48 -107 -210 -494
-210 -504 0 -5 -14 -53 -30 -107 -17 -54 -37 -137 -45 -184 -7 -47 -21 -125
-29 -174 -17 -96 -20 -250 -6 -416 9 -125 45 -347 65 -410 8 -25 30 -124 49
-220 19 -96 51 -229 72 -295 37 -121 50 -168 97 -346 14 -53 33 -113 41 -133
9 -21 22 -72 31 -114 9 -42 26 -111 40 -152 32 -102 73 -258 81 -311 6 -40
117 -339 148 -399 7 -14 28 -72 46 -130 17 -58 38 -123 46 -145 27 -75 62
-409 69 -659 11 -360 -19 -547 -104 -649 -22 -26 -178 -149 -242 -190 -82 -54
-311 -110 -521 -128 -107 -10 -141 -9 -220 4 -51 9 -122 19 -158 22 -67 7
-372 75 -425 95 -45 17 -135 90 -135 110 0 28 33 49 96 61 73 13 68 11 244
133 88 61 179 134 232 187 84 83 89 90 103 154 9 36 24 89 34 118 11 29 25 77
31 107 7 30 25 75 41 100 77 124 93 201 69 329 -11 60 -92 235 -145 315 -32
49 -101 112 -197 183 -78 56 -372 136 -566 153 -102 9 -415 -2 -532 -20 -125
-18 -301 -68 -385 -109 -140 -69 -252 -193 -341 -376 -80 -167 -79 -292 2
-442 31 -57 54 -118 73 -195 37 -148 77 -230 159 -324 55 -63 95 -95 225 -179
87 -57 193 -117 235 -135 46 -18 85 -41 96 -57 19 -25 19 -25 -10 -49 -56 -45
-124 -75 -216 -95 -51 -11 -113 -26 -138 -34 -49 -15 -244 -42 -410 -56 -238
-19 -573 59 -750 177 -36 23 -92 71 -126 106 -50 52 -66 78 -93 148 -43 114
-51 179 -50 420 0 399 36 737 95 886 13 33 24 66 24 72 0 6 9 26 20 45 22 38
118 315 156 452 14 50 36 124 49 165 13 41 29 103 35 138 6 35 26 113 45 175
18 62 47 166 64 232 16 66 39 147 51 180 12 33 29 96 40 140 10 44 28 102 39
129 12 26 21 62 21 79 0 18 10 64 21 102 32 104 87 383 104 521 53 449 20 693
-159 1164 -88 232 -112 287 -137 325 -47 71 -163 387 -179 490 -4 28 -12 68
-18 90 -6 22 -18 96 -27 165 -17 135 -36 213 -66 272 -24 48 -37 48 -44 1 -10
-68 -93 -375 -103 -384 -15 -13 -69 12 -118 55 -58 51 -217 153 -314 201 -121
61 -235 72 -300 29 -22 -15 -39 -28 -38 -30 19 -18 170 -120 202 -136 22 -11
82 -49 131 -83 50 -34 113 -74 142 -88 28 -15 80 -56 115 -92 34 -36 87 -82
115 -102 32 -22 68 -60 93 -97 22 -34 60 -86 85 -116 39 -46 115 -182 115
-204 0 -10 -54 -7 -91 6 -19 6 -63 29 -99 51 -114 70 -223 128 -280 147 -30
10 -93 35 -140 55 -171 74 -340 116 -490 122 -100 4 -131 2 -235 -22 -66 -15
-147 -37 -180 -50 -110 -42 -349 -151 -476 -218 -110 -58 -134 -67 -179 -67
-48 0 -126 17 -189 42 -54 21 -33 -22 27 -54 84 -46 191 -136 362 -308 311
-311 466 -437 662 -542 212 -113 426 -169 585 -153 107 11 371 63 453 90 243
80 348 94 394 53 25 -24 48 -87 87 -243 20 -77 23 -117 23 -280 1 -205 -19
-370 -71 -580 -14 -55 -35 -145 -48 -200 -38 -161 -83 -322 -98 -352 -8 -15
-18 -46 -21 -68 -4 -21 -16 -56 -27 -77 -11 -21 -31 -71 -45 -111 -15 -39 -34
-88 -44 -107 -9 -19 -53 -109 -96 -200 -43 -90 -98 -198 -122 -240 -92 -161
-186 -370 -232 -515 -17 -55 -35 -104 -40 -110 -13 -17 -77 -243 -99 -350 -11
-55 -32 -145 -48 -200 -23 -81 -28 -118 -27 -197 1 -54 -2 -98 -6 -98 -27 0
-179 177 -270 314 -26 39 -75 102 -110 140 -34 38 -86 106 -115 150 -29 45
-70 97 -90 116 -21 19 -65 69 -97 110 -79 97 -201 233 -258 284 -24 23 -69 66
-100 97 -30 31 -86 80 -125 109 -38 29 -91 73 -118 96 -26 23 -68 55 -95 70
-26 15 -110 71 -187 124 -77 54 -160 108 -185 120 -25 13 -70 45 -100 72 -30
27 -75 61 -100 76 -25 14 -65 41 -90 61 -82 65 -261 236 -282 270 -12 19 -45
61 -73 92 -29 32 -80 105 -113 162 -89 149 -520 1018 -543 1092 -6 22 -21 52
-31 68 -11 15 -62 114 -113 220 -51 105 -121 237 -154 292 -34 55 -66 118 -72
140 -6 22 -30 74 -54 115 -24 41 -67 125 -95 185 -29 61 -90 185 -136 277
-116 230 -138 302 -148 498 -5 99 -3 113 33 250 38 143 88 275 149 397 18 34
43 90 56 125 31 82 91 206 109 227 8 9 27 44 41 78 42 100 130 274 167 330 19
28 45 71 59 94 165 280 343 479 567 636 69 48 144 103 167 121 23 18 70 46
106 63 66 32 122 63 310 174 58 34 152 85 210 112 323 152 588 353 690 523 59
98 110 226 110 274 0 86 -89 244 -161 286 -24 14 -68 49 -98 78 -31 29 -90 72
-131 94 -41 23 -111 67 -155 98 -44 31 -106 72 -138 90 -138 77 -177 151 -185
348 -4 104 -2 130 13 163 11 23 25 39 35 39 27 0 83 -26 157 -73 37 -24 129
-72 203 -106 74 -35 196 -92 271 -127 74 -36 169 -75 210 -88 70 -23 108 -37
239 -92 293 -122 645 -150 853 -69 l37 15 0 -28 c0 -57 39 -213 68 -274 17
-34 53 -85 79 -113 27 -27 58 -63 69 -79 l21 -29 17 49 c9 27 27 71 41 98 14
27 25 56 25 63 0 7 14 55 31 106 29 86 32 103 36 277 6 225 -6 307 -77 528
-28 84 -50 159 -50 167 0 11 8 11 38 3 20 -5 42 -14 47 -18 23 -19 247 -100
275 -100 16 0 62 -9 102 -20 184 -50 425 -57 1913 -54 1185 2 1442 8 1585 39
36 8 110 23 165 34 99 20 318 97 359 125 26 19 36 19 36 4z m933 -5576 c26 -9
47 -21 47 -28 0 -48 -153 -272 -226 -333 -38 -31 -173 -100 -219 -112 -16 -4
-48 -14 -71 -23 -60 -22 -179 -30 -249 -17 -122 23 -265 98 -331 175 -62 71
-62 79 0 149 30 34 66 76 80 92 l25 30 24 -55 c16 -35 55 -87 106 -142 100
-106 155 -137 263 -145 131 -10 183 19 287 161 58 79 121 195 121 223 0 4 7
19 16 31 18 26 38 25 127 -6z m-6204 -99 c24 -75 33 -89 106 -165 117 -121
137 -136 201 -144 70 -8 147 2 193 26 20 10 85 74 146 144 61 69 113 126 117
126 9 0 160 -59 177 -69 11 -7 11 -15 1 -45 -6 -20 -15 -36 -20 -36 -4 0 -30
-27 -57 -60 -57 -71 -142 -130 -248 -170 -64 -25 -90 -30 -163 -30 -53 1 -103
7 -127 16 -50 19 -114 39 -186 59 -72 19 -120 52 -141 96 -9 20 -46 63 -81 95
-70 64 -113 122 -145 197 l-21 48 111 -3 110 -3 27 -82z m3381 -5643 c175 -20
503 -90 515 -111 13 -20 -232 -74 -420 -93 -331 -34 -462 -38 -683 -21 -241
18 -358 35 -479 70 -84 24 -187 65 -180 72 9 8 384 68 532 84 186 20 534 19
715 -1z"/>
</g>
</svg>
