<?xml version="1.0" standalone="no"?>
<!DOCTYPE svg PUBLIC "-//W3C//DTD SVG 20010904//EN"
 "http://www.w3.org/TR/2001/REC-SVG-20010904/DTD/svg10.dtd">
<svg version="1.0" xmlns="http://www.w3.org/2000/svg"
 width="1500.000000pt" height="1500.000000pt" viewBox="0 0 1500.000000 1500.000000"
 preserveAspectRatio="xMidYMid meet">
<metadata>
Created by potrace 1.16, written by Peter Selinger 2001-2019
</metadata>
<g transform="translate(0.000000,1500.000000) scale(0.100000,-0.100000)"
fill="none" stroke="#000000">
<path d="M7255 10469 c-313 -32 -540 -97 -834 -240 -112 -54 -196 -89 -215
-89 -25 0 -51 16 -121 76 -146 123 -248 164 -410 164 -95 0 -141 -9 -481 -89
-237 -55 -351 -76 -501 -91 -201 -21 -310 -87 -386 -235 -8 -16 -61 -178 -117
-360 -56 -181 -175 -564 -265 -850 -89 -286 -166 -538 -169 -561 -17 -99 45
-199 159 -255 53 -26 75 -31 136 -31 64 0 81 5 153 41 100 50 171 111 229 199
37 54 65 126 151 376 58 170 108 311 110 313 13 13 -4 76 401 -1447 507 -1906
494 -1859 561 -1990 98 -193 286 -389 528 -551 272 -183 468 -248 709 -236
174 9 324 61 440 154 49 40 115 115 144 163 l16 28 35 -47 c148 -197 355 -301
602 -301 165 0 294 35 495 135 333 166 611 445 724 727 17 41 62 192 100 334
37 143 156 581 264 974 107 393 266 976 352 1295 201 746 216 796 228 792 5
-1 43 -99 84 -217 181 -524 200 -566 297 -643 28 -22 85 -56 126 -76 68 -33
83 -36 160 -36 103 0 155 21 229 90 61 57 75 96 68 189 -4 60 -49 199 -285
881 -332 961 -313 909 -362 977 -84 118 -188 165 -405 183 -44 3 -206 31 -360
61 -411 81 -572 106 -630 99 -115 -14 -210 -64 -326 -172 -35 -33 -73 -63 -84
-67 -15 -4 -44 9 -100 45 -244 155 -554 257 -879 288 -125 12 -452 12 -571 0z
m563 -170 c304 -33 573 -126 785 -272 324 -223 764 -768 967 -1200 26 -56 82
-183 123 -282 41 -99 98 -228 126 -287 58 -121 62 -151 31 -261 -80 -282 -577
-2148 -641 -2407 -45 -178 -199 -376 -431 -551 -275 -206 -591 -301 -812 -244
-81 21 -189 80 -251 136 -78 72 -146 215 -131 275 8 31 32 31 92 -1 26 -14 62
-25 81 -25 45 0 178 64 290 139 198 134 319 292 384 501 30 97 33 273 5 364
-67 222 -233 384 -451 440 -296 76 -848 54 -1094 -44 -205 -81 -339 -274 -357
-511 -11 -150 43 -335 140 -481 82 -124 298 -302 461 -379 79 -38 147 -39 199
-4 64 44 83 32 65 -42 -44 -182 -192 -319 -397 -368 -103 -25 -268 -17 -376
19 -212 71 -460 228 -617 392 -137 143 -212 271 -262 444 -95 333 -340 1266
-527 2010 -83 326 -101 413 -96 448 3 24 30 89 60 145 30 56 75 161 101 232
150 416 311 701 579 1025 100 121 307 331 399 403 242 193 557 322 921 377
141 21 479 26 634 9z m-68 -3794 c253 -30 337 -56 420 -131 55 -50 109 -135
138 -218 22 -63 24 -82 19 -166 -11 -174 -75 -318 -197 -441 -87 -88 -135
-122 -259 -185 -101 -50 -153 -57 -159 -19 -2 17 9 26 66 48 127 50 203 98
292 187 130 129 190 261 190 415 0 236 -122 378 -360 419 -307 52 -686 41
-917 -29 -111 -33 -205 -130 -237 -246 -48 -169 19 -400 158 -543 76 -78 144
-123 270 -180 110 -50 121 -58 113 -80 -24 -61 -291 74 -432 218 -84 87 -127
157 -167 273 -85 244 7 503 213 601 58 28 244 73 349 85 91 10 387 6 500 -8z"/>
<path d="M6604 9054 c-44 -43 -26 -75 98 -175 l32 -26 -12 -229 c-15 -274 -33
-409 -73 -528 -85 -254 -231 -404 -482 -493 -60 -22 -95 -26 -212 -30 -77 -3
-146 -10 -152 -15 -21 -17 -15 -67 11 -93 31 -31 78 -39 200 -32 129 7 234 39
344 108 158 97 297 260 388 455 78 167 99 294 110 664 7 227 3 261 -46 327
-32 44 -116 93 -157 93 -13 0 -35 -11 -49 -26z"/>
<path d="M8287 9045 c-55 -37 -84 -73 -108 -135 -18 -48 -20 -68 -14 -160 23
-405 37 -545 61 -645 77 -313 321 -576 609 -656 108 -30 272 -32 330 -3 49 24
66 61 42 97 -15 23 -21 24 -164 29 -125 5 -160 10 -228 33 -241 81 -413 279
-465 537 -11 51 -26 190 -35 308 -8 118 -18 251 -21 295 -6 73 -4 83 18 115
14 21 47 47 83 65 73 37 90 70 58 113 -17 23 -29 27 -74 30 -45 2 -62 -2 -92
-23z"/>
<path d="M5865 8815 c-189 -52 -349 -202 -421 -395 -24 -66 -28 -89 -28 -190
0 -136 17 -196 90 -303 113 -166 310 -277 492 -278 166 -1 282 51 418 186 98
98 151 183 179 291 19 72 20 144 3 144 -28 0 -40 20 -54 91 -47 225 -203 401
-405 454 -67 18 -208 18 -274 0z m207 -136 c182 -38 316 -175 350 -357 13 -70
7 -92 -25 -92 -34 0 -43 16 -51 85 -14 124 -79 214 -195 269 -60 28 -75 31
-166 31 -88 0 -107 -3 -157 -27 -77 -36 -152 -112 -191 -196 -30 -62 -32 -75
-32 -172 0 -96 2 -110 29 -160 15 -30 40 -67 54 -83 24 -25 25 -29 10 -43 -14
-14 -18 -14 -46 0 -17 9 -42 35 -56 59 -79 136 -87 285 -24 417 62 128 171
231 281 265 52 17 149 18 219 4z m-87 -313 c34 -34 41 -71 21 -112 -21 -45
-70 -69 -109 -55 -56 21 -71 122 -26 170 28 30 83 28 114 -3z"/>
<path d="M8845 8806 c-130 -42 -215 -101 -290 -201 -63 -85 -87 -163 -95 -318
0 -4 -11 -12 -25 -17 -21 -8 -25 -16 -25 -52 1 -194 148 -423 330 -512 90 -44
203 -69 285 -64 66 5 200 55 294 110 128 76 234 217 262 348 18 85 7 232 -25
314 -51 133 -168 275 -283 342 -132 78 -287 96 -428 50z m349 -154 c163 -76
278 -279 263 -462 -13 -154 -121 -320 -174 -267 -15 15 -14 19 17 53 120 137
117 370 -8 519 -101 121 -292 159 -444 88 -126 -59 -182 -137 -196 -273 -6
-67 -9 -75 -29 -78 -48 -7 -53 93 -10 208 25 68 119 165 192 199 126 59 280
64 389 13z m-70 -295 c30 -41 27 -104 -8 -134 -92 -79 -203 52 -118 140 36 38
95 35 126 -6z"/>
</g>
</svg>
