<?xml version="1.0" standalone="no"?>
<!DOCTYPE svg PUBLIC "-//W3C//DTD SVG 20010904//EN"
 "http://www.w3.org/TR/2001/REC-SVG-20010904/DTD/svg10.dtd">
<svg version="1.0" xmlns="http://www.w3.org/2000/svg"
 width="1500.000000pt" height="1500.000000pt" viewBox="0 0 1500.000000 1500.000000"
 preserveAspectRatio="xMidYMid meet">
<metadata>
Created by potrace 1.16, written by Peter Selinger 2001-2019
</metadata>
<g transform="translate(0.000000,1500.000000) scale(0.100000,-0.100000)"
fill="none" stroke="#000000">
<path d="M3073 14240 c-73 -44 -122 -187 -145 -425 -16 -170 -16 -677 0 -820
56 -486 186 -899 379 -1200 218 -339 593 -627 983 -753 111 -36 246 -72 272
-72 10 0 18 -5 18 -10 0 -6 -32 -74 -71 -151 -93 -188 -194 -432 -274 -669
-212 -627 -325 -1284 -351 -2045 l-7 -190 -62 -65 c-64 -68 -108 -129 -120
-167 -6 -20 -3 -23 23 -23 28 0 108 36 163 73 l25 17 23 -198 c28 -245 53
-412 87 -567 l27 -120 -63 -125 c-34 -69 -87 -164 -116 -213 -30 -48 -54 -90
-54 -93 0 -2 12 -4 27 -4 49 0 110 47 183 141 38 49 72 91 75 92 4 1 26 -45
49 -103 95 -235 207 -445 344 -645 78 -115 196 -267 230 -298 14 -13 22 -37
26 -85 22 -223 82 -428 182 -620 l53 -103 -59 -412 c-103 -713 -128 -1018
-110 -1338 27 -478 147 -864 378 -1214 402 -611 1044 -1012 1818 -1136 165
-26 492 -36 659 -20 881 85 1642 533 2058 1211 320 522 408 1158 286 2075 -23
175 -117 744 -125 757 -3 4 -5 29 -5 55 -1 38 11 70 55 158 93 186 152 386
176 595 l10 92 69 81 c185 223 351 512 472 827 26 69 51 123 56 120 4 -2 36
-38 69 -80 73 -90 96 -111 149 -139 42 -22 65 -27 65 -13 0 5 -32 61 -70 126
-84 141 -133 236 -150 292 -11 35 -9 54 9 135 31 141 57 310 82 545 l22 212
47 -29 c46 -28 145 -58 156 -46 3 3 3 20 -1 38 -5 21 -38 65 -101 131 -64 67
-96 110 -104 136 -5 20 -10 107 -10 192 -1 612 -132 1332 -355 1949 -87 242
-166 423 -287 664 -55 109 -98 200 -96 201 1 2 48 13 103 26 397 90 764 323
1032 655 226 281 397 699 462 1130 36 234 45 376 45 685 1 478 -25 625 -133
742 -37 40 -54 50 -88 55 -70 9 -91 -3 -197 -111 l-101 -102 -290 -143 c-159
-79 -342 -169 -405 -199 -531 -260 -900 -621 -1171 -1147 -43 -83 -101 -207
-128 -275 l-50 -124 -41 44 c-22 24 -40 51 -40 61 0 25 55 163 86 216 13 23
24 44 24 46 0 3 -22 21 -48 40 -37 26 -63 59 -109 138 -184 315 -406 556 -624
678 -62 35 -60 31 -130 215 -66 171 -112 258 -177 327 -47 51 -119 99 -149 99
-11 0 -50 -124 -89 -285 -27 -112 -80 -271 -93 -279 -4 -3 -25 36 -46 87 -138
330 -294 537 -468 622 -103 49 -121 52 -135 20 -10 -22 -8 -33 12 -73 24 -47
56 -144 56 -169 0 -10 -10 -8 -39 7 -40 20 -130 44 -138 36 -2 -2 21 -45 52
-95 68 -109 127 -227 150 -299 17 -52 36 -212 25 -212 -3 0 -21 28 -40 61 -63
109 -195 226 -335 296 -270 135 -550 120 -729 -38 l-50 -44 30 -6 c16 -4 56
-7 90 -8 126 -2 280 -58 367 -132 51 -44 53 -59 8 -59 -44 0 -213 -37 -299
-65 -186 -62 -415 -194 -576 -333 -149 -129 -303 -330 -386 -504 l-42 -87 -85
142 c-262 436 -487 688 -808 904 -120 81 -236 143 -473 253 -390 181 -518 259
-671 407 -95 92 -97 93 -146 93 -32 0 -61 -7 -82 -20z m4376 -416 c47 -124 55
-194 51 -459 -2 -137 -4 -319 -4 -403 -1 -151 -1 -152 -24 -152 -12 0 -24 6
-27 13 -2 6 -6 131 -9 277 -5 269 -21 482 -56 735 -11 77 -20 144 -20 150 1
16 68 -105 89 -161z m-3854 -7 c548 -255 737 -358 920 -497 93 -71 301 -274
378 -370 210 -263 379 -580 527 -992 l53 -148 51 28 c49 26 101 86 90 103 -3
5 -18 9 -34 9 -25 0 -32 6 -45 37 l-16 37 65 65 64 64 29 -48 c57 -96 174
-243 260 -326 295 -283 633 -438 1028 -470 66 -6 123 -13 127 -17 4 -4 17 -44
29 -87 47 -180 16 -437 -77 -628 -13 -28 -22 -52 -20 -55 11 -11 120 32 176
69 82 55 144 132 265 330 55 90 120 190 145 223 199 265 393 356 860 405 102
10 198 24 213 30 91 36 193 144 266 282 24 46 45 86 47 88 1 2 29 -18 61 -44
32 -27 72 -54 90 -61 43 -19 93 -18 93 0 0 31 73 267 120 386 192 488 530 919
916 1171 194 127 409 240 759 397 308 138 300 135 350 129 177 -19 265 -263
265 -735 0 -312 -38 -565 -125 -827 -103 -313 -250 -566 -450 -773 -217 -226
-463 -377 -758 -466 -62 -19 -144 -39 -184 -46 -100 -16 -119 -5 -226 137 -26
34 -47 64 -47 67 0 3 14 6 31 6 52 0 223 39 316 71 434 154 779 498 932 933
93 263 131 478 138 772 l6 221 -31 34 c-28 32 -34 34 -89 32 -70 -1 -256 -57
-394 -117 -609 -269 -1051 -894 -1075 -1520 l-4 -121 20 42 c11 23 36 102 56
175 59 223 91 313 158 451 143 294 327 516 582 698 174 125 435 238 627 273
l37 7 0 -155 c0 -702 -308 -1292 -809 -1549 -133 -68 -217 -100 -367 -138 -92
-23 -321 -59 -376 -59 -5 0 -8 -11 -8 -25 0 -23 4 -25 43 -25 84 0 185 -71
251 -177 14 -24 26 -47 26 -53 0 -30 -45 2 -137 97 -56 59 -105 104 -108 101
-3 -3 36 -69 87 -146 l93 -140 53 -1 c86 -2 100 -14 179 -163 260 -490 459
-1059 557 -1593 13 -71 27 -156 31 -187 8 -67 11 -61 -127 -256 -192 -270
-320 -408 -449 -483 -93 -55 -149 -106 -149 -137 0 -18 47 -54 95 -72 68 -26
210 -9 330 38 l50 20 140 -143 c77 -78 154 -153 172 -166 l31 -24 -9 -130
c-20 -276 -69 -625 -89 -625 -4 0 -13 14 -21 31 -17 42 -100 124 -152 150 -59
30 -132 30 -181 0 -38 -24 -38 -24 -32 -75 8 -61 61 -173 113 -238 21 -26 73
-85 116 -132 l79 -85 -30 -94 c-66 -205 -172 -411 -350 -682 l-105 -160 -18
120 c-79 535 -361 1031 -789 1385 -65 54 -60 43 19 -42 271 -291 492 -648 596
-963 75 -226 106 -473 86 -677 -13 -138 -56 -335 -96 -448 -153 -421 -518
-776 -940 -913 -147 -48 -228 -60 -400 -60 -363 -1 -720 102 -977 282 -149
105 -164 138 -154 351 8 185 12 202 57 214 436 113 930 414 1146 700 58 77
118 201 134 274 6 30 9 99 7 152 -3 88 -7 104 -40 171 -91 182 -264 302 -598
413 -556 185 -1186 147 -1689 -102 -63 -31 -141 -76 -173 -100 -154 -116 -244
-318 -219 -492 22 -145 123 -314 287 -475 190 -188 438 -334 849 -500 l130
-53 7 -109 c13 -193 -8 -306 -70 -375 -85 -94 -310 -219 -500 -277 -195 -60
-447 -88 -627 -70 -470 47 -909 356 -1134 799 -99 195 -141 350 -161 598 -42
523 163 1092 593 1647 100 129 100 129 -2 30 -398 -387 -659 -943 -693 -1480
l-3 -40 -48 65 c-209 280 -386 600 -467 842 l-22 67 86 116 c47 64 102 144
121 179 42 76 88 195 81 212 -18 48 -151 62 -225 25 -51 -26 -138 -104 -146
-132 -10 -30 -22 -22 -28 19 -31 204 -51 360 -67 518 l-18 189 46 44 c177 167
301 281 307 281 3 0 21 -11 38 -24 56 -41 125 -61 212 -61 92 0 135 19 172 74
l23 34 -66 43 c-205 135 -389 331 -588 628 l-80 118 18 131 c55 404 183 887
342 1290 67 171 244 535 272 560 11 10 40 21 64 24 74 8 95 21 129 82 18 31
50 82 71 114 22 32 37 61 33 65 -3 4 -41 -30 -83 -76 -70 -74 -81 -82 -115
-82 l-37 0 48 78 c27 42 55 87 63 100 12 19 22 22 84 22 78 0 119 15 123 46 3
19 -5 21 -125 32 -578 55 -1029 351 -1272 837 -136 273 -201 562 -201 898 l0
158 48 -7 c340 -49 683 -253 932 -554 199 -241 370 -606 430 -916 22 -116 36
-160 53 -171 18 -11 0 243 -27 367 -132 621 -577 1138 -1141 1328 -108 37
-227 62 -290 62 -62 0 -100 -36 -111 -105 -10 -70 2 -362 21 -485 93 -609 406
-1085 865 -1315 128 -65 440 -155 534 -155 33 0 32 -5 -3 -45 -15 -18 -48 -65
-72 -104 l-44 -71 -55 6 c-77 9 -259 56 -363 94 -242 89 -517 271 -683 453
-217 239 -397 602 -479 967 -50 222 -60 319 -59 590 0 279 20 457 64 573 40
106 149 196 220 181 14 -2 133 -55 265 -117z m4528 -88 c49 -97 63 -174 76
-404 6 -104 15 -203 20 -220 l8 -30 13 30 c21 47 17 187 -9 295 -33 141 -33
142 -21 135 14 -9 44 -69 65 -130 9 -27 27 -129 40 -225 26 -187 42 -255 76
-310 20 -32 22 -33 35 -16 32 44 42 175 24 315 -6 41 -8 77 -5 79 15 16 192
-119 269 -205 l37 -41 -40 -135 c-133 -442 -193 -747 -207 -1042 l-7 -151
-161 -23 c-284 -41 -454 -95 -580 -186 l-75 -53 -5 26 c-34 166 -40 541 -12
767 36 286 103 588 219 985 30 102 83 283 118 403 35 119 68 216 74 214 5 -2
27 -37 48 -78z m-1387 -57 c116 -40 204 -140 304 -347 93 -191 160 -426 194
-670 21 -153 29 -231 23 -225 -2 3 -21 64 -42 135 -130 453 -325 819 -574
1078 l-45 47 44 0 c25 -1 68 -9 96 -18z m-424 -563 c174 -711 340 -1162 567
-1543 39 -65 70 -121 68 -123 -7 -6 -187 17 -261 34 -139 31 -284 101 -365
177 -75 69 -184 231 -256 381 -79 161 -111 244 -211 537 -35 103 -75 217 -88
252 l-25 65 112 84 c62 46 134 99 162 117 66 45 247 140 260 137 5 -2 22 -55
37 -118z m-817 -731 c26 -46 59 -98 73 -117 l25 -34 -49 -43 c-27 -24 -52 -43
-55 -44 -17 -1 -71 126 -76 178 -5 58 11 142 27 142 4 0 29 -37 55 -82z m3627
-265 c38 -41 61 -91 54 -119 -8 -30 -34 -31 -84 -4 -67 35 -66 32 -36 93 16
32 31 57 34 57 4 0 18 -12 32 -27z m-3883 -7631 c110 -108 273 -221 411 -285
88 -41 244 -96 316 -111 28 -6 73 -38 275 -192 143 -110 374 -233 544 -292
390 -133 853 -134 1259 -1 68 22 197 77 292 125 139 69 200 106 321 199 184
139 229 165 362 205 141 43 227 84 351 167 119 80 243 185 343 292 38 40 71
71 74 68 4 -5 43 -238 43 -263 0 -18 -248 -292 -425 -470 -413 -414 -748 -666
-1140 -859 -222 -109 -388 -170 -620 -227 -87 -22 -124 -38 -146 -64 -13 -16
-7 -17 99 -10 376 22 785 142 1202 351 343 172 708 435 997 719 70 68 104 95
107 85 8 -24 35 -268 41 -374 3 -55 8 -117 10 -137 5 -35 0 -44 -76 -130 -270
-309 -616 -625 -924 -843 -455 -323 -904 -524 -1432 -640 -12 -3 -28 -15 -34
-27 l-11 -21 103 6 c118 7 276 29 424 58 659 134 1340 490 1843 964 45 43 85
76 87 73 10 -9 -37 -254 -70 -368 -113 -393 -345 -761 -648 -1031 -460 -408
-1063 -644 -1707 -666 -270 -9 -483 15 -766 87 -194 49 -312 93 -509 190 -552
271 -944 683 -1160 1225 -43 108 -125 405 -141 510 -8 58 -19 63 112 -50 645
-557 1417 -912 2152 -989 70 -7 129 -12 131 -10 7 6 -22 35 -50 50 -16 8 -61
21 -101 29 -235 49 -673 236 -958 409 -411 251 -827 595 -1178 976 l-124 135
6 155 c6 143 33 410 42 419 2 2 45 -36 96 -85 480 -463 1029 -796 1604 -972
233 -72 609 -136 660 -113 37 17 29 27 -33 41 -253 56 -684 241 -978 419 -441
268 -849 629 -1194 1056 -91 112 -92 114 -70 272 18 139 15 134 56 83 20 -25
79 -87 132 -138z m2351 -177 c128 -63 226 -117 218 -119 -51 -17 -179 -38
-288 -48 -141 -13 -316 -2 -453 28 -108 23 -108 23 -32 55 39 16 126 67 195
113 69 47 126 85 127 85 1 1 106 -51 233 -114z m-718 -200 c181 -58 265 -69
518 -70 255 0 298 6 512 67 l107 30 138 -26 c210 -39 258 -45 391 -48 l123 -3
-33 -28 c-107 -92 -362 -232 -528 -292 -219 -78 -441 -115 -688 -115 -441 1
-815 126 -1135 381 l-68 54 123 8 c68 4 195 20 283 36 88 15 165 29 170 29 6
1 45 -9 87 -23z"/>
<path d="M6388 11125 c-62 -42 -76 -132 -34 -220 13 -28 55 -82 94 -122 77
-79 160 -198 217 -313 21 -41 80 -180 131 -308 110 -274 113 -280 115 -232 8
224 -34 465 -137 783 -82 252 -152 375 -237 416 -58 28 -104 27 -149 -4z"/>
<path d="M8183 11110 c-68 -41 -192 -356 -251 -640 -37 -173 -57 -435 -44
-550 l7 -55 54 175 c108 347 175 479 340 674 96 114 132 180 138 255 5 65 -16
109 -69 141 -44 27 -131 27 -175 0z"/>
<path d="M5533 10839 c-70 -12 -201 -61 -279 -104 -128 -72 -263 -196 -358
-330 -58 -80 -103 -160 -85 -149 8 5 39 25 69 45 200 132 485 214 845 244 44
4 95 14 113 23 103 47 113 212 15 250 -75 30 -214 39 -320 21z"/>
<path d="M8960 10841 c-49 -10 -75 -26 -98 -59 -29 -39 -36 -90 -19 -137 23
-66 41 -73 267 -105 412 -59 630 -136 815 -286 l57 -47 -17 34 c-41 79 -131
203 -200 278 -136 144 -274 235 -445 291 -79 27 -113 33 -210 36 -63 1 -131 0
-150 -5z"/>
<path d="M9190 10096 c-133 -29 -302 -157 -422 -320 -152 -207 -253 -495 -288
-818 -9 -91 -15 -488 -6 -488 2 0 20 7 40 15 39 16 169 22 221 10 17 -4 77
-20 135 -36 172 -47 231 -52 352 -30 173 32 279 85 387 194 79 80 113 129 161
232 60 128 75 200 75 355 0 74 -4 155 -8 180 l-9 45 63 -3 c144 -8 290 49 383
148 31 34 56 67 56 74 0 26 -43 35 -80 16 -81 -40 -144 -55 -240 -55 -89 0
-99 2 -156 33 -34 19 -97 65 -140 104 -44 39 -103 87 -132 106 -29 19 -49 38
-45 42 4 4 29 23 55 44 46 36 78 87 78 122 0 14 -12 7 -47 -28 -88 -84 -150
-99 -391 -96 -137 3 -159 5 -145 16 29 22 133 73 202 99 86 32 91 36 56 44
-46 10 -94 9 -155 -5z m397 -544 c103 -99 151 -231 140 -391 -14 -215 -121
-406 -292 -520 -151 -101 -253 -117 -561 -86 -102 10 -211 15 -257 12 l-80 -5
7 80 c8 93 39 284 62 381 l16 68 44 -88 c132 -268 408 -377 650 -258 186 91
310 328 276 530 -6 37 -13 70 -17 73 -3 3 -15 -4 -28 -15 -37 -35 -87 -55
-135 -55 -75 0 -119 48 -130 139 -4 38 -1 46 30 77 39 39 101 59 166 54 43 -3
43 -3 40 24 -6 40 11 35 69 -20z"/>
<path d="M5445 10090 c3 -5 45 -31 93 -56 48 -26 103 -58 122 -72 31 -21 32
-23 10 -19 -84 18 -129 18 -235 2 l-113 -18 -38 23 c-22 13 -67 46 -101 73
-35 27 -63 44 -63 38 0 -11 79 -103 114 -133 19 -16 20 -19 4 -28 -40 -24
-186 -136 -227 -175 -111 -102 -215 -119 -488 -76 -47 7 -53 6 -53 -9 0 -21
44 -88 73 -113 71 -58 196 -97 316 -97 63 0 72 -2 67 -16 -16 -42 -28 -168
-23 -246 8 -124 31 -208 93 -336 48 -99 65 -123 142 -201 73 -74 102 -95 182
-134 177 -88 329 -97 570 -37 191 48 309 49 414 5 18 -8 19 -1 13 226 -8 349
-51 568 -161 819 -125 284 -356 521 -561 575 -66 17 -160 20 -150 5z m-175
-474 c0 -2 -15 -40 -34 -85 -106 -246 -112 -374 -29 -551 48 -100 150 -203
248 -250 61 -30 82 -35 165 -38 78 -3 107 0 160 18 160 53 293 187 349 351
l17 53 22 -104 c20 -92 62 -334 76 -433 4 -34 3 -38 -12 -32 -9 4 -54 12 -98
18 -69 9 -110 7 -260 -11 -259 -32 -312 -29 -444 25 -158 65 -265 171 -341
339 -47 103 -62 183 -56 309 5 126 26 195 83 269 47 62 154 146 154 122z m631
-80 c117 -49 147 -199 51 -258 -95 -59 -220 14 -230 136 -4 45 -1 56 23 84 40
47 99 62 156 38z"/>
<path d="M10115 7725 c-150 -53 -105 -270 67 -320 77 -22 116 -11 145 41 77
135 -70 328 -212 279z"/>
<path d="M4509 7698 c-106 -82 -119 -234 -24 -274 68 -28 152 -7 207 52 58 63
55 165 -6 221 -30 28 -43 33 -85 33 -40 0 -57 -6 -92 -32z"/>
</g>
</svg>
