<?xml version="1.0" standalone="no"?>
<!DOCTYPE svg PUBLIC "-//W3C//DTD SVG 20010904//EN"
 "http://www.w3.org/TR/2001/REC-SVG-20010904/DTD/svg10.dtd">
<svg version="1.0" xmlns="http://www.w3.org/2000/svg"
 width="1500.000000pt" height="1500.000000pt" viewBox="0 0 1500.000000 1500.000000"
 preserveAspectRatio="xMidYMid meet">
<metadata>
Created by potrace 1.16, written by Peter Selinger 2001-2019
</metadata>
<g transform="translate(0.000000,1500.000000) scale(0.100000,-0.100000)"
fill="#000000" stroke="none">
<path d="M3757 12706 c-95 -35 -108 -54 -237 -377 -230 -575 -396 -1199 -457
-1717 -21 -185 -24 -622 -5 -762 69 -494 319 -1022 645 -1359 98 -102 207
-194 295 -248 52 -32 71 -50 68 -62 -9 -34 -36 -220 -46 -321 -87 -880 129
-1747 603 -2422 139 -198 230 -301 547 -623 450 -456 533 -550 1007 -1143 484
-604 673 -823 785 -911 240 -187 580 -232 877 -115 216 86 336 212 1040 1099
340 428 547 661 946 1065 322 327 413 430 552 628 475 677 691 1548 603 2432
-10 100 -36 277 -46 311 -3 12 9 25 39 42 128 76 332 261 452 412 192 241 398
665 470 969 74 311 84 686 29 1106 -63 478 -223 1062 -446 1622 -112 282 -135
323 -207 360 -86 45 -124 40 -279 -36 -341 -168 -784 -443 -1117 -690 -235
-176 -385 -305 -580 -500 -343 -345 -532 -632 -650 -991 -28 -83 -50 -151 -50
-152 0 -1 -47 7 -105 17 -611 109 -1440 107 -2005 -4 -38 -8 -73 -11 -76 -8
-3 4 -28 72 -55 152 -118 355 -314 651 -659 996 -227 228 -423 390 -730 606
-280 197 -692 443 -964 577 -133 65 -171 73 -244 47z m1483 -1020 c412 -335
707 -678 871 -1012 51 -103 153 -373 144 -382 -1 -2 -52 -16 -111 -32 -60 -15
-158 -44 -219 -64 -60 -19 -110 -34 -111 -33 -2 1 -12 44 -23 94 -73 333 -205
566 -476 839 -156 157 -293 271 -482 403 l-111 78 70 69 c38 38 99 106 135
151 l64 83 77 -59 c42 -32 120 -93 172 -135z m4833 112 c36 -46 97 -114 135
-152 l71 -69 -107 -75 c-200 -139 -317 -237 -477 -397 -173 -173 -261 -287
-344 -445 -57 -108 -112 -266 -142 -403 -11 -50 -21 -93 -23 -94 -1 -1 -51 14
-111 33 -61 20 -159 49 -219 64 -59 16 -110 30 -111 32 -2 2 17 62 41 133 156
466 488 879 1080 1345 76 60 140 109 141 110 1 0 31 -37 66 -82z m-5847 -108
c554 -293 1005 -656 1218 -979 88 -134 146 -271 190 -449 43 -174 61 -144
-142 -244 -286 -140 -488 -286 -722 -518 -127 -127 -227 -245 -303 -357 -23
-34 -48 -63 -56 -63 -24 0 -126 60 -197 116 -210 165 -397 489 -455 788 -62
316 -15 732 137 1224 73 234 192 542 210 542 4 0 58 -27 120 -60z m6704 -4
c44 -98 134 -346 178 -491 177 -578 207 -1051 87 -1385 -120 -335 -323 -593
-561 -713 l-52 -26 -35 54 c-20 29 -66 91 -103 137 -280 347 -599 601 -986
783 -146 68 -135 42 -92 217 69 278 175 468 395 702 170 182 485 421 794 603
132 78 325 183 338 183 4 0 21 -29 37 -64z m-7465 -476 c39 -5 112 -12 163
-14 51 -2 95 -6 97 -8 3 -2 -9 -53 -25 -114 -34 -124 -82 -363 -102 -504 -7
-57 -12 -179 -11 -305 1 -255 22 -370 102 -571 139 -347 348 -601 597 -727
l52 -26 -44 -84 c-58 -113 -128 -277 -166 -393 -17 -52 -36 -94 -41 -94 -21 0
-166 118 -254 206 -307 309 -552 808 -620 1260 -24 163 -24 562 0 759 21 168
50 340 83 495 32 151 28 144 67 136 17 -4 64 -11 102 -16z m8232 -85 c32 -143
70 -368 90 -530 24 -199 24 -597 0 -759 -68 -454 -313 -952 -621 -1261 -87
-88 -232 -205 -253 -205 -5 0 -24 45 -42 100 -34 102 -136 339 -183 423 l-27
47 52 27 c148 75 317 231 425 392 119 180 215 407 253 601 19 96 23 147 23
315 1 260 -38 527 -114 799 -17 58 -30 108 -30 110 0 2 51 7 113 11 61 4 144
13 182 20 112 21 106 24 132 -90z m-3817 -866 c739 -44 1375 -227 1825 -523
492 -325 866 -815 1039 -1364 14 -46 26 -87 26 -91 0 -5 -57 -48 -127 -96
-890 -613 -1667 -1324 -2079 -1900 -185 -260 -294 -475 -392 -775 -177 -545
-195 -1022 -61 -1699 22 -112 39 -204 37 -205 -2 -1 -268 2 -592 6 -339 5
-614 5 -648 0 -32 -5 -58 -6 -58 -2 0 4 14 74 30 156 146 713 128 1208 -67
1789 -156 464 -442 883 -958 1400 -402 404 -1024 912 -1532 1253 -51 35 -93
67 -93 72 0 22 64 208 106 308 83 198 202 400 342 582 82 105 320 345 427 430
492 388 1156 605 2015 660 297 18 439 18 760 -1z m-3478 -2291 c584 -419 1000
-769 1403 -1179 325 -331 533 -598 696 -890 218 -393 347 -954 325 -1414 -10
-201 -39 -413 -97 -705 -28 -140 -56 -301 -63 -358 l-11 -104 -250 314 c-518
651 -735 899 -1130 1293 -318 317 -419 434 -572 665 -294 443 -467 936 -535
1525 -16 140 -16 583 1 735 16 154 32 250 42 250 4 0 90 -59 191 -132z m6406
60 c38 -245 50 -691 24 -913 -68 -589 -241 -1082 -535 -1525 -154 -232 -255
-350 -572 -665 -394 -392 -591 -618 -1110 -1269 l-270 -339 -8 83 c-4 46 -30
196 -57 334 -66 331 -87 476 -102 682 -37 523 100 1111 359 1549 320 541 966
1190 1813 1822 190 142 431 313 441 313 3 0 11 -33 17 -72z"/>
<path d="M4796 6795 c4 -8 1 -15 -4 -15 -7 0 -9 -15 -5 -37 31 -220 131 -393
304 -522 106 -80 190 -129 389 -223 368 -176 475 -242 589 -364 69 -74 137
-188 162 -271 7 -24 18 -43 26 -43 8 0 11 5 7 11 -3 6 -2 14 3 18 14 8 -12
129 -46 217 -67 173 -177 290 -436 464 -202 136 -323 280 -370 443 -9 31 -21
57 -26 57 -6 0 -7 -9 -4 -20 4 -11 2 -20 -4 -20 -20 0 -11 -118 16 -204 5 -17
0 -15 -28 8 -93 78 -187 224 -219 340 -9 33 -22 62 -29 64 -9 3 -11 -2 -6 -18
5 -17 4 -21 -6 -15 -19 12 -5 -145 20 -225 11 -35 19 -65 18 -66 -7 -8 -154
125 -192 174 -46 57 -135 222 -135 248 0 8 -7 14 -15 14 -9 0 -12 -6 -9 -15z"/>
<path d="M10157 6741 c-33 -81 -90 -174 -146 -234 -35 -38 -161 -144 -161
-135 0 2 9 32 21 68 25 80 39 237 20 225 -10 -6 -11 -2 -6 15 5 16 3 21 -6 18
-7 -2 -20 -32 -30 -65 -33 -119 -125 -261 -218 -339 -28 -23 -33 -25 -28 -8
27 86 36 204 16 204 -6 0 -8 9 -4 20 3 11 2 20 -4 20 -5 0 -17 -26 -26 -57
-49 -170 -165 -304 -397 -462 -76 -51 -169 -122 -208 -158 -94 -87 -179 -215
-213 -323 -34 -104 -48 -180 -35 -180 6 0 8 -7 4 -15 -3 -9 0 -15 8 -15 7 0
18 19 25 43 29 98 94 200 181 288 125 125 184 161 600 363 218 106 312 162
409 245 90 77 179 207 216 316 26 77 46 198 33 206 -6 4 -7 12 -4 18 4 6 1 11
-6 11 -7 0 -26 -31 -41 -69z"/>
</g>
</svg>
