<?xml version="1.0" standalone="no"?>
<!DOCTYPE svg PUBLIC "-//W3C//DTD SVG 20010904//EN"
 "http://www.w3.org/TR/2001/REC-SVG-20010904/DTD/svg10.dtd">
<svg version="1.0" xmlns="http://www.w3.org/2000/svg"
 width="655.000000pt" height="642.000000pt" viewBox="0 0 655.000000 642.000000"
 preserveAspectRatio="xMidYMid meet">
<metadata>
Created by potrace 1.16, written by Peter Selinger 2001-2019
</metadata>
<g transform="translate(0.000000,642.000000) scale(0.100000,-0.100000)"
fill="none" stroke="#000000">
<path d="M2580 5939 c-141 -18 -241 -68 -345 -173 -91 -92 -131 -170 -147
-287 l-11 -86 -41 23 c-65 36 -162 57 -261 57 -170 0 -304 -52 -416 -163 -108
-108 -156 -230 -147 -380 6 -91 31 -151 88 -214 l43 -46 -30 0 c-41 0 -140
-27 -192 -53 -25 -12 -70 -47 -101 -77 -119 -116 -172 -296 -137 -471 32 -162
119 -285 244 -345 34 -16 62 -32 62 -36 1 -4 -9 -10 -21 -14 -31 -10 -122 -98
-157 -153 -120 -190 -77 -476 99 -651 133 -133 312 -187 490 -149 28 6 53 9
55 7 1 -1 -4 -34 -12 -73 -10 -48 -13 -100 -10 -166 9 -143 51 -245 145 -341
l45 -47 -33 -73 c-18 -40 -87 -183 -152 -318 -151 -309 -164 -355 -134 -468
39 -145 159 -251 285 -252 79 0 130 19 177 66 35 35 48 59 84 168 23 70 44
125 46 123 3 -2 -4 -116 -15 -253 -11 -137 -22 -275 -25 -308 -10 -136 33
-206 168 -271 118 -57 214 -79 296 -66 72 12 89 20 128 65 41 47 49 80 62 286
6 96 14 190 17 208 5 32 8 34 36 28 224 -45 563 -52 791 -18 77 12 141 20 143
18 7 -7 23 -162 28 -287 4 -74 11 -149 17 -167 32 -106 153 -158 299 -128 98
21 250 96 284 141 52 67 55 98 37 359 -9 130 -15 236 -13 236 1 0 25 -19 51
-43 126 -113 322 -157 438 -98 103 53 152 132 152 245 0 39 -7 93 -15 120 -8
27 -15 66 -15 86 l0 36 59 -4 c74 -5 135 21 183 79 76 92 96 108 159 121 l59
12 -27 23 c-16 12 -43 28 -62 34 -33 11 -34 12 -15 26 10 9 34 22 53 30 32 14
33 15 14 28 -32 23 -114 52 -166 59 -119 18 -298 -59 -344 -147 -20 -40 -20
-113 2 -162 12 -27 17 -60 16 -98 -2 -32 3 -95 9 -140 15 -101 4 -151 -46
-207 -42 -47 -89 -64 -158 -58 -125 10 -266 118 -353 270 -24 40 -71 335 -56
348 4 4 78 29 163 55 363 112 597 230 743 375 95 96 122 157 121 275 0 60 -5
102 -16 126 -22 51 -81 114 -129 137 l-40 20 63 33 c150 79 265 246 290 420
10 73 9 99 -4 168 -9 45 -26 102 -38 127 -27 55 -111 148 -164 181 l-39 25 64
31 c288 138 347 584 108 818 -67 67 -139 103 -235 120 -38 7 -71 14 -73 16 -3
2 12 20 32 41 55 56 80 122 85 224 13 261 -176 477 -461 524 -79 13 -111 14
-171 5 -84 -12 -156 -34 -203 -62 l-33 -18 0 33 c0 222 -199 451 -438 506 -76
17 -215 15 -292 -5 -142 -36 -285 -150 -365 -289 -34 -59 -41 -66 -50 -51 -5
10 -31 50 -56 89 -124 194 -340 294 -569 265z m198 -44 c200 -47 331 -177 429
-425 10 -24 10 -24 23 15 65 203 231 365 422 410 127 30 235 16 366 -47 203
-96 326 -313 283 -498 -5 -24 -9 -46 -7 -47 2 -2 20 11 42 28 153 124 387 143
577 48 174 -88 267 -233 267 -418 0 -107 -21 -164 -84 -226 -28 -28 -78 -65
-111 -83 -48 -27 -54 -32 -29 -28 138 23 219 14 320 -33 198 -92 293 -345 219
-580 -51 -162 -165 -262 -335 -293 -33 -6 -60 -15 -60 -19 0 -4 17 -10 37 -14
88 -16 201 -98 250 -182 156 -267 6 -640 -296 -733 -91 -29 -209 -27 -307 4
l-76 24 7 -21 c43 -135 55 -267 36 -369 -26 -133 -121 -258 -241 -316 -149
-72 -365 -64 -523 20 -65 35 -163 128 -193 183 -10 19 -21 35 -24 35 -4 0 -7
-31 -8 -69 -2 -119 -52 -237 -136 -323 -98 -99 -220 -141 -406 -141 -197 0
-309 40 -415 147 -81 80 -125 182 -134 305 l-6 83 -55 -73 c-93 -123 -208
-187 -374 -209 -176 -24 -328 20 -434 127 -138 137 -167 346 -85 605 4 14 -4
14 -71 -8 -139 -44 -292 -28 -414 43 -24 14 -70 52 -103 86 -160 163 -195 413
-85 600 49 85 159 165 249 182 20 4 37 10 37 14 0 4 -27 12 -60 19 -157 29
-273 124 -326 268 -25 69 -29 93 -29 184 0 90 4 116 28 180 47 129 144 224
271 266 55 19 151 23 236 11 l55 -7 -60 32 c-87 47 -157 121 -178 187 -51 159
9 359 141 469 198 166 495 175 686 23 22 -17 40 -30 42 -28 2 1 -2 23 -7 47
-42 180 79 399 272 494 134 65 249 81 377 51z m2394 -3221 c23 -16 56 -52 73
-79 28 -45 30 -56 30 -139 0 -85 -2 -95 -34 -154 -39 -72 -102 -133 -211 -205
-88 -58 -284 -154 -390 -192 -137 -48 -365 -114 -371 -107 -3 4 -16 35 -29 70
-12 34 -25 61 -27 58 -3 -2 2 -37 11 -78 43 -199 127 -1069 112 -1152 -15 -77
-93 -137 -248 -190 -97 -33 -168 -34 -228 -3 -77 39 -82 53 -96 254 -7 98 -15
205 -19 238 l-7 60 49 27 c26 15 66 46 88 69 l40 42 -51 -36 c-62 -44 -108
-62 -231 -87 -155 -32 -303 -43 -498 -37 -256 9 -472 52 -549 110 -55 41 -62
41 -23 0 21 -22 59 -50 84 -63 l45 -23 -5 -51 c-4 -28 -12 -134 -18 -235 -14
-208 -21 -227 -98 -268 -60 -31 -131 -30 -229 3 -152 52 -216 100 -242 179
-25 77 32 675 91 949 22 103 38 190 36 192 -4 5 -68 -173 -173 -481 -76 -223
-79 -229 -123 -271 -77 -76 -207 -65 -298 24 -75 72 -98 129 -97 232 0 84 1
87 66 220 36 74 104 216 152 315 98 205 101 211 113 208 4 -1 36 -14 69 -27
203 -84 465 -38 633 111 34 30 63 54 65 52 2 -2 7 -24 12 -49 8 -36 7 -53 -8
-89 -55 -131 -81 -328 -59 -443 37 -188 184 -344 380 -402 207 -61 512 -31
663 66 101 64 192 190 224 311 28 107 10 297 -42 436 -20 53 -24 76 -18 118 3
29 10 53 13 53 4 0 18 -12 32 -26 39 -43 140 -109 199 -132 344 -132 671 13
755 334 8 32 15 72 15 89 0 47 109 191 163 216 63 30 153 22 209 -17z m-2363
-792 c104 -84 234 -124 406 -124 238 0 406 78 501 233 21 33 41 56 46 51 12
-12 45 -148 57 -234 22 -161 -39 -335 -155 -437 -111 -97 -233 -134 -449 -134
-268 0 -417 64 -524 224 -97 145 -108 297 -40 532 l20 68 49 -73 c26 -40 66
-88 89 -106z m2474 9 l29 -11 -41 -46 c-23 -26 -41 -51 -41 -55 0 -5 18 -9 40
-9 48 0 51 -10 7 -30 -17 -8 -50 -39 -72 -68 -45 -59 -83 -87 -135 -102 -123
-34 -224 118 -152 228 18 28 88 70 157 95 55 19 157 18 208 -2z m-344 -680
c-24 -57 -80 -113 -135 -136 -72 -30 -188 -13 -299 42 -69 35 -162 132 -171
178 -3 20 -5 38 -2 40 2 2 22 -20 45 -50 93 -119 214 -187 338 -189 59 -1 77
3 117 27 61 36 86 72 106 156 l17 70 3 -44 c2 -29 -4 -61 -19 -94z"/>
<path d="M1961 5210 c-139 -50 -238 -170 -261 -318 -32 -193 80 -350 278 -393
31 -7 59 -14 60 -15 2 -1 -17 -37 -42 -78 -57 -94 -68 -121 -171 -426 -102
-301 -109 -336 -102 -493 9 -219 83 -383 244 -539 166 -162 437 -297 738 -368
283 -67 736 -67 1020 0 373 88 702 278 847 491 126 184 172 431 119 640 -20
81 -146 455 -189 565 -11 28 -41 85 -67 128 -26 42 -46 78 -44 80 2 1 28 8 57
14 72 16 155 58 198 101 168 165 89 493 -144 598 -83 37 -187 42 -267 13 -90
-34 -185 -134 -250 -265 -27 -55 -51 -102 -52 -104 -2 -2 -13 1 -26 7 -30 16
-191 57 -307 79 -77 14 -150 17 -385 17 -235 0 -308 -3 -385 -17 -116 -22
-277 -63 -307 -79 -13 -6 -24 -9 -25 -7 -2 2 -25 49 -53 104 -65 130 -160 231
-248 264 -73 27 -163 27 -236 1z m234 -43 c95 -48 176 -141 235 -271 16 -37
30 -70 30 -72 0 -2 -19 -13 -42 -25 -24 -12 -62 -35 -85 -50 l-42 -29 -45 59
c-73 94 -175 151 -248 137 -85 -16 -138 -84 -138 -178 0 -92 54 -149 173 -183
41 -12 56 -20 49 -27 -15 -15 -108 5 -183 38 -158 71 -212 251 -128 428 41 88
146 171 246 195 51 13 129 3 178 -22z m2303 -13 c130 -63 197 -177 196 -329 0
-98 -25 -157 -91 -215 -45 -40 -128 -73 -212 -86 -64 -10 -50 14 22 36 62 19
120 58 138 93 49 91 13 208 -75 248 -55 25 -91 24 -151 -5 -58 -29 -97 -62
-150 -128 l-37 -48 -42 29 c-22 15 -60 38 -83 50 -24 12 -43 24 -43 26 0 3 16
39 35 79 40 86 111 183 157 218 114 87 205 95 336 32z m-958 -260 c63 -8 128
-18 144 -22 l29 -8 -55 -27 c-150 -73 -242 -193 -316 -412 -36 -106 -70 -322
-74 -480 l-3 -110 -50 0 -50 0 -6 150 c-8 178 -30 318 -70 437 -71 217 -166
341 -316 414 -56 28 -56 28 -28 36 31 8 246 35 330 42 84 6 344 -4 465 -20z
m-1441 -33 c40 -21 151 -134 151 -155 0 -6 -31 -40 -70 -74 -76 -69 -77 -69
-170 -30 -124 53 -154 168 -65 247 43 37 96 41 154 12z m2386 -12 c76 -67 66
-174 -21 -225 -25 -15 -67 -33 -94 -41 l-50 -14 -70 62 c-38 35 -70 68 -70 75
0 6 21 36 48 65 100 112 188 138 257 78z m-1794 -23 c80 -24 132 -57 196 -122
143 -146 234 -437 237 -757 l1 -120 -32 -9 c-41 -11 -198 -149 -244 -216 -137
-196 -82 -408 132 -510 84 -40 136 -51 234 -52 239 0 423 134 442 324 6 61
-22 156 -69 229 -41 64 -182 192 -242 220 l-48 22 7 135 c17 338 100 593 240
736 67 68 132 106 215 124 51 11 60 10 125 -15 228 -87 448 -282 555 -496 18
-35 74 -186 125 -336 119 -346 133 -441 94 -623 -17 -74 -67 -189 -116 -261
-211 -315 -763 -539 -1328 -539 -539 0 -1073 205 -1300 500 -123 160 -179 361
-155 558 12 93 152 530 215 668 103 226 322 431 558 525 84 32 96 34 158 15z
m300 -1214 c11 -27 65 -62 99 -62 14 0 46 8 73 17 41 15 53 15 90 4 23 -7 58
-15 77 -18 49 -6 100 29 120 85 l16 43 43 -46 c64 -70 111 -175 111 -250 0
-154 -137 -276 -341 -305 -170 -24 -364 55 -436 178 -24 41 -28 58 -28 127 0
72 3 86 34 143 19 35 52 84 75 109 40 45 40 45 49 22 5 -13 13 -34 18 -47z"/>
<path d="M2625 4301 c-47 -29 -82 -71 -108 -131 -72 -164 -56 -297 46 -367 50
-35 155 -44 209 -19 101 48 149 121 156 236 9 147 -36 249 -125 287 -48 20
-142 17 -178 -6z m210 -57 c17 -7 45 -54 45 -78 0 -8 -12 -28 -26 -45 -42 -50
-109 -40 -134 19 -14 34 0 83 29 100 19 11 62 13 86 4z"/>
<path d="M3630 4309 c-36 -14 -79 -58 -102 -104 -30 -58 -37 -194 -13 -265 20
-61 78 -125 139 -154 59 -28 160 -19 214 18 52 36 71 64 85 132 13 64 -1 149
-38 232 -50 110 -105 152 -200 151 -33 0 -71 -5 -85 -10z m57 -74 c29 -21 38
-66 19 -103 -17 -33 -34 -42 -76 -42 -30 0 -80 48 -80 76 0 21 27 71 42 77 26
11 74 7 95 -8z"/>
<path d="M3184 3419 c-44 -46 -76 -59 -151 -60 -66 -1 -67 -1 -38 -14 44 -21
119 -18 175 6 46 20 49 20 81 4 47 -25 136 -31 179 -12 l35 15 -68 1 c-77 1
-97 9 -148 57 l-35 34 -30 -31z"/>
</g>
</svg>
