<svg viewBox="0 0 200 200" xmlns="http://www.w3.org/2000/svg"><!-- Body --><ellipse cx="100" cy="110" rx="32" ry="42" fill="none" stroke="black" stroke-width="2"/><!-- Head --><circle cx="100" cy="58" r="28" fill="none" stroke="black" stroke-width="2"/><!-- Pointed ears --><path d="M78 35 L70 10 L75 32" fill="none" stroke="black" stroke-width="2" stroke-linejoin="round"/><path d="M122 35 L130 10 L125 32" fill="none" stroke="black" stroke-width="2" stroke-linejoin="round"/><!-- Face --><circle cx="90" cy="50" r="3" fill="black"/><circle cx="110" cy="50" r="3" fill="black"/><!-- Whiskers --><path d="M72 58 L55 55" stroke="black" stroke-width="1.5"/><path d="M72 63 L55 63" stroke="black" stroke-width="1.5"/><path d="M128 58 L145 55" stroke="black" stroke-width="1.5"/><path d="M128 63 L145 63" stroke="black" stroke-width="1.5"/><!-- Mouth --><path d="M100 65 Q95 72 90 70" fill="none" stroke="black" stroke-width="1.5" stroke-linecap="round"/><path d="M100 65 Q105 72 110 70" fill="none" stroke="black" stroke-width="1.5" stroke-linecap="round"/><!-- Front paws --><rect x="82" y="145" width="8" height="35" fill="none" stroke="black" stroke-width="2" rx="4"/><rect x="110" y="145" width="8" height="35" fill="none" stroke="black" stroke-width="2" rx="4"/><!-- Back legs --><ellipse cx="75" cy="140" rx="10" ry="20" fill="none" stroke="black" stroke-width="2"/><ellipse cx="125" cy="140" rx="10" ry="20" fill="none" stroke="black" stroke-width="2"/><!-- Tail --><path d="M75 105 Q45 90 40 60" fill="none" stroke="black" stroke-width="2" stroke-linecap="round"/></svg>