<?xml version="1.0" standalone="no"?>
<!DOCTYPE svg PUBLIC "-//W3C//DTD SVG 20010904//EN"
 "http://www.w3.org/TR/2001/REC-SVG-20010904/DTD/svg10.dtd">
<svg version="1.0" xmlns="http://www.w3.org/2000/svg"
 width="1500.000000pt" height="1500.000000pt" viewBox="0 0 1500.000000 1500.000000"
 preserveAspectRatio="xMidYMid meet">
<metadata>
Created by potrace 1.16, written by Peter Selinger 2001-2019
</metadata>
<g transform="translate(0.000000,1500.000000) scale(0.100000,-0.100000)"
fill="#000000" stroke="none">
<path d="M3420 12309 c-307 -23 -608 -162 -844 -390 -202 -194 -333 -428 -381
-680 -21 -111 -21 -331 0 -435 73 -361 310 -687 640 -881 l83 -48 -63 -90
c-458 -659 -823 -1649 -886 -2400 -15 -179 -6 -652 15 -835 150 -1272 767
-2309 1773 -2978 708 -472 1617 -763 2658 -852 390 -33 1016 -42 1409 -20
1621 91 2869 505 3804 1262 154 125 426 394 548 541 463 562 744 1206 841
1927 25 191 26 692 0 865 -69 467 -247 1087 -449 1559 -122 286 -326 664 -474
879 -30 44 -53 80 -52 82 2 1 32 14 68 29 187 79 392 234 522 394 197 246 288
492 288 782 0 338 -123 623 -380 880 -129 130 -236 205 -391 279 -203 97 -359
132 -577 132 -348 -1 -627 -101 -872 -311 -183 -158 -322 -411 -361 -655 -7
-44 -13 -81 -14 -83 -1 -1 -53 21 -116 49 -426 190 -955 338 -1509 423 -548
84 -1384 131 -1888 107 -740 -36 -1324 -156 -1912 -392 -79 -32 -145 -57 -145
-56 -1 1 -10 30 -19 65 -101 370 -387 661 -770 787 -171 56 -357 78 -546 64z
m385 -137 c386 -83 686 -343 804 -698 46 -138 51 -128 -95 -204 -69 -36 -130
-66 -134 -68 -5 -2 -14 16 -20 40 -140 523 -810 740 -1302 422 -142 -91 -264
-229 -332 -375 -50 -105 -67 -177 -73 -309 -4 -95 -2 -130 16 -202 38 -161
111 -289 235 -414 61 -61 199 -163 238 -176 10 -4 -77 -124 -151 -210 -20 -23
-230 122 -346 237 -148 147 -237 289 -299 475 -65 197 -73 396 -22 593 113
442 533 823 986 897 41 6 82 13 90 15 43 11 323 -6 405 -23z m7931 17 c529
-73 977 -498 1059 -1004 26 -161 15 -316 -36 -480 -103 -334 -393 -639 -736
-774 l-52 -20 -32 42 c-18 23 -64 79 -102 125 -43 52 -63 84 -55 86 7 3 40 12
72 21 129 36 300 142 399 248 183 197 264 446 223 686 -77 444 -518 770 -975
721 -260 -28 -482 -156 -605 -348 -77 -121 -110 -226 -122 -385 -4 -48 -8 -87
-10 -87 -1 0 -47 27 -102 59 -55 33 -128 74 -161 91 -69 34 -71 40 -50 156 78
440 432 780 889 854 41 6 82 13 90 15 39 7 237 4 306 -6z m-4583 -606 c121
-494 148 -976 102 -1838 -23 -431 -24 -400 4 -429 36 -39 89 -36 131 7 114
114 244 348 304 547 39 132 71 312 86 485 20 239 10 1035 -16 1289 l-7 69 114
-7 c232 -14 554 -48 565 -59 12 -12 114 -434 158 -657 48 -239 67 -420 73
-693 l6 -257 29 -25 c32 -27 70 -32 85 -12 6 6 18 102 27 212 10 110 28 295
41 410 36 320 55 550 62 763 3 105 8 192 10 192 2 0 67 -14 146 -30 322 -69
641 -164 937 -280 183 -72 544 -255 718 -365 511 -321 934 -735 1279 -1250 86
-129 238 -384 232 -388 -12 -9 -240 -112 -404 -183 -104 -46 -194 -90 -200
-98 -14 -22 5 -65 37 -84 25 -15 33 -14 195 40 142 47 321 96 448 122 30 7 31
6 84 -111 86 -190 216 -520 255 -650 6 -19 0 -23 -46 -38 -109 -36 -379 -145
-474 -192 -191 -95 -307 -171 -448 -296 -123 -109 -276 -321 -276 -384 0 -35
47 -83 80 -83 11 0 121 41 246 91 512 204 1047 391 1065 371 10 -11 66 -262
88 -399 22 -133 47 -452 38 -475 -4 -13 -112 -63 -429 -202 -45 -19 -58 -30
-58 -46 0 -24 51 -80 73 -80 8 0 97 27 196 60 100 33 188 60 196 60 18 0 20
-53 5 -185 -76 -682 -344 -1330 -768 -1860 -582 -728 -1443 -1260 -2512 -1553
-511 -141 -1021 -222 -1695 -272 -193 -15 -994 -21 -1195 -10 -1777 100 -3064
684 -3863 1754 -433 581 -709 1310 -786 2081 -6 54 -8 101 -6 104 8 7 215 -50
361 -100 78 -27 146 -49 152 -49 22 0 72 52 72 75 0 30 -8 35 -130 87 -58 25
-187 82 -287 128 l-183 82 0 103 c0 240 29 509 81 754 l22 103 36 -7 c45 -8
493 -157 661 -220 69 -25 243 -91 388 -147 266 -101 292 -107 329 -76 20 16
15 56 -9 91 -39 57 -201 218 -279 277 -207 159 -493 297 -911 441 -54 19 -98
39 -98 44 0 19 87 268 138 395 44 109 168 389 177 398 5 6 227 -37 355 -68 67
-17 197 -55 287 -85 158 -53 165 -54 194 -40 35 19 57 60 43 81 -5 8 -94 52
-199 98 -104 45 -272 120 -372 167 l-182 84 31 55 c17 30 66 111 110 180 498
783 1183 1367 2019 1721 190 81 514 188 719 238 176 43 380 85 384 79 2 -1 20
-73 40 -158 137 -573 176 -838 176 -1197 1 -140 4 -203 13 -214 27 -36 85 -50
105 -26 5 6 17 100 26 207 10 107 28 290 41 405 40 348 56 558 62 808 6 231 7
237 27 242 40 9 291 22 462 24 l171 1 36 -147z"/>
<path d="M4718 9551 c-253 -84 -455 -174 -524 -235 -99 -85 -97 -197 3 -253
63 -35 98 -37 214 -9 364 86 707 246 765 357 49 95 -35 206 -163 215 -52 4
-84 -4 -295 -75z"/>
<path d="M9805 9581 c-61 -27 -105 -83 -105 -132 0 -22 7 -53 15 -70 38 -72
259 -195 496 -273 263 -88 387 -111 456 -85 43 16 92 69 99 107 26 136 -133
242 -583 392 -261 86 -307 94 -378 61z"/>
<path d="M4910 8824 c-227 -61 -445 -259 -533 -484 -42 -105 -49 -237 -18
-329 49 -144 162 -262 326 -341 147 -71 211 -85 390 -84 120 1 166 5 230 22
338 91 490 350 416 708 -28 137 -79 231 -176 329 -92 93 -180 144 -301 175
-93 24 -252 26 -334 4z m465 -255 c73 -21 135 -106 135 -188 0 -45 -38 -106
-80 -130 -88 -49 -235 -20 -287 59 -57 84 4 215 119 257 43 15 64 15 113 2z"/>
<path d="M9752 8820 c-226 -59 -402 -236 -463 -467 -29 -106 -31 -283 -5 -368
74 -248 279 -385 601 -402 451 -23 829 283 776 628 -24 151 -88 266 -226 404
-83 83 -116 109 -190 147 -49 25 -118 53 -151 62 -86 22 -249 20 -342 -4z
m544 -275 c96 -57 131 -180 69 -245 -48 -51 -100 -72 -172 -72 -114 1 -173 48
-181 146 -13 158 144 253 284 171z"/>
<path d="M6196 7518 c-9 -12 -16 -28 -16 -35 0 -7 63 -181 140 -388 77 -207
140 -380 140 -384 0 -5 -22 -11 -48 -14 -192 -23 -468 -194 -678 -421 -81 -87
-127 -159 -159 -253 -134 -385 48 -781 490 -1069 151 -98 349 -185 486 -213
l57 -12 6 -59 c18 -156 94 -338 178 -421 68 -68 147 -104 294 -134 418 -85
801 -45 1114 115 162 84 266 198 325 360 23 61 29 97 33 191 l4 115 67 31
c224 106 447 286 561 453 187 275 198 591 30 835 -39 57 -210 204 -330 285
-117 79 -255 145 -347 168 -40 9 -73 21 -73 26 0 5 45 180 100 389 55 209 98
388 95 399 -17 50 -91 60 -119 15 -8 -12 -53 -173 -101 -357 -121 -470 -112
-440 -142 -440 -14 0 -51 16 -83 36 -128 79 -312 121 -570 133 -378 16 -671
-26 -868 -125 -89 -45 -135 -54 -165 -31 -9 6 -80 183 -158 392 -147 396 -155
415 -173 427 -24 16 -75 8 -90 -14z m363 -1060 c63 -159 115 -240 222 -342
123 -118 385 -279 532 -326 l37 -12 0 -111 c0 -168 39 -404 72 -445 15 -17
-49 -111 -125 -185 -160 -154 -383 -226 -620 -200 -261 30 -560 184 -778 402
-172 172 -239 308 -247 506 -9 229 58 366 271 555 197 174 411 287 548 289
l37 1 51 -132z m1981 91 c145 -47 308 -147 480 -294 124 -106 181 -207 199
-354 33 -270 -125 -544 -433 -750 -136 -91 -220 -133 -349 -176 -241 -80 -461
-67 -652 39 -91 51 -222 181 -258 256 -34 72 -58 225 -60 375 l-2 119 94 13
c426 57 761 334 851 701 27 106 26 106 130 71z m-846 -1614 c84 -52 200 -97
300 -115 85 -16 297 -8 376 14 30 9 61 16 68 16 17 0 15 -67 -3 -155 -34 -159
-136 -289 -287 -363 -294 -146 -649 -183 -1024 -107 -149 30 -200 52 -253 110
-68 73 -133 231 -143 345 l-3 35 110 7 c139 8 204 25 330 87 119 59 199 121
279 218 l59 70 59 -58 c32 -32 92 -79 132 -104z"/>
<path d="M4770 7063 c-70 -11 -455 -100 -601 -139 -411 -109 -645 -214 -733
-330 -114 -149 -22 -335 187 -374 58 -12 175 2 397 47 582 116 1007 296 1081
458 25 54 23 100 -5 161 -50 109 -210 195 -326 177z"/>
<path d="M9959 7015 c-101 -37 -184 -107 -215 -180 -30 -73 -13 -156 45 -218
80 -86 336 -189 651 -262 243 -56 697 -114 789 -100 138 20 251 131 251 246
-1 224 -329 360 -1193 494 -249 38 -275 40 -328 20z"/>
</g>
</svg>
