<?xml version="1.0" standalone="no"?>
<!DOCTYPE svg PUBLIC "-//W3C//DTD SVG 20010904//EN"
 "http://www.w3.org/TR/2001/REC-SVG-20010904/DTD/svg10.dtd">
<svg version="1.0" xmlns="http://www.w3.org/2000/svg"
 width="5608.000000pt" height="4210.000000pt" viewBox="0 0 5608.000000 4210.000000"
 preserveAspectRatio="xMidYMid meet">
<metadata>
Created by potrace 1.16, written by Peter Selinger 2001-2019
</metadata>
<g transform="translate(0.000000,4210.000000) scale(0.100000,-0.100000)"
fill="none" stroke="#000000">
<path d="M28555 41463 c-11 -3 -94 -29 -183 -59 -841 -277 -1443 -763 -1971
-1591 -341 -535 -535 -1021 -595 -1488 -2 -16 -9 -66 -15 -110 -6 -44 -13
-109 -16 -145 -7 -85 -14 -147 -21 -190 -6 -34 -6 -35 -16 -10 -12 32 -36 134
-54 230 -7 41 -16 89 -19 105 -5 30 -31 157 -40 205 -51 247 -60 661 -20 880
2 14 7 43 10 65 10 72 16 100 25 130 5 17 12 41 14 55 13 61 47 174 86 280
101 276 228 512 472 877 59 90 108 172 108 183 0 13 -10 24 -26 30 -23 9 -39
4 -113 -36 -120 -65 -346 -216 -476 -320 -143 -114 -428 -399 -539 -539 -301
-378 -529 -816 -674 -1295 -52 -173 -110 -415 -126 -525 -3 -22 -7 -50 -10
-62 -4 -20 -12 -73 -21 -138 -2 -16 -8 -64 -14 -105 -26 -196 -34 -611 -18
-885 l7 -130 -30 35 c-194 222 -336 488 -425 796 -33 112 -74 334 -83 439 -12
158 -6 476 12 595 4 28 36 195 42 223 2 9 6 26 8 37 8 36 96 295 112 328 22
48 15 66 -27 70 -33 3 -41 -3 -114 -80 -302 -320 -511 -714 -619 -1168 -62
-259 -98 -642 -79 -843 5 -48 7 -90 5 -92 -3 -2 -25 14 -50 36 -202 178 -594
308 -1042 346 -178 15 -697 7 -799 -12 -9 -1 -43 -6 -76 -9 -267 -30 -609
-108 -915 -209 -165 -55 -272 -93 -333 -121 -17 -8 -88 -38 -157 -67 -155 -64
-616 -288 -765 -371 -129 -72 -285 -172 -370 -237 -133 -101 -355 -335 -355
-374 0 -31 27 -39 107 -32 66 6 251 47 273 60 9 6 285 94 345 111 64 18 212
42 301 49 38 3 83 8 99 10 33 5 326 5 387 0 52 -4 178 -16 208 -20 26 -3 356
-61 400 -70 14 -3 34 -7 45 -9 11 -2 76 -19 145 -36 69 -18 130 -33 135 -34
138 -31 580 -187 743 -262 29 -13 55 -24 58 -24 4 0 99 -44 244 -113 l45 -22
-40 -6 c-22 -4 -60 -10 -85 -13 -40 -6 -85 -14 -170 -31 -14 -3 -53 -10 -87
-15 -81 -13 -253 -49 -262 -54 -3 -2 -24 -7 -46 -11 -36 -5 -350 -77 -400 -91
-11 -3 -33 -8 -50 -11 -16 -3 -38 -9 -47 -14 -10 -5 -18 -8 -18 -5 0 3 -15 0
-32 -5 -18 -6 -44 -12 -58 -15 -37 -8 -343 -91 -435 -119 -44 -13 -127 -38
-185 -55 -297 -88 -614 -196 -1025 -348 -165 -61 -500 -198 -642 -263 -24 -10
-45 -19 -47 -19 -11 0 -359 -161 -561 -259 -956 -466 -1785 -1011 -2509 -1649
-201 -178 -645 -626 -828 -837 -364 -419 -778 -970 -1025 -1362 -32 -51 -69
-111 -83 -133 -380 -606 -736 -1291 -1050 -2020 -83 -193 -256 -625 -295 -735
-10 -27 -23 -63 -30 -80 -7 -16 -16 -41 -20 -55 -3 -14 -11 -34 -16 -45 -9
-19 -23 -60 -107 -310 -60 -179 -172 -539 -188 -604 -2 -9 -8 -32 -13 -51 -60
-215 -80 -291 -118 -450 -25 -102 -49 -201 -54 -220 -14 -56 -67 -302 -72
-335 -3 -16 -10 -52 -16 -80 -11 -50 -19 -93 -20 -108 -1 -5 -38 24 -83 65
-378 339 -823 637 -1323 884 -99 49 -205 100 -235 113 -30 13 -79 35 -109 48
-251 112 -704 263 -955 318 -34 7 -113 26 -176 40 -127 30 -221 50 -290 62
-25 4 -117 8 -205 7 -142 0 -167 -3 -217 -23 -32 -12 -59 -27 -59 -32 -1 -5
-2 -15 -3 -21 -1 -7 4 -26 11 -41 11 -21 46 -44 151 -96 193 -96 307 -158 250
-138 -44 16 -342 58 -460 66 -292 19 -539 -3 -858 -74 -55 -13 -248 -79 -291
-101 -55 -27 -64 -45 -44 -83 17 -33 58 -59 158 -100 93 -38 150 -54 327 -91
252 -52 257 -55 69 -53 -176 2 -325 -12 -514 -47 -27 -5 -90 -18 -140 -30 -49
-11 -103 -23 -119 -26 -16 -3 -41 -10 -55 -16 -14 -5 -37 -12 -51 -15 -65 -12
-408 -136 -535 -193 -22 -10 -65 -28 -95 -41 -116 -49 -452 -221 -615 -314
-1247 -713 -2191 -1725 -2858 -3060 -126 -254 -219 -467 -361 -830 -63 -162
-216 -628 -259 -790 -3 -11 -14 -52 -26 -90 -11 -39 -22 -81 -25 -95 -3 -14
-26 -108 -50 -210 -49 -200 -63 -261 -70 -300 -3 -14 -13 -68 -24 -120 -20
-94 -77 -438 -86 -515 -2 -22 -11 -94 -20 -160 -20 -164 -25 -210 -32 -317 -3
-51 -7 -95 -9 -98 -7 -12 -20 -404 -20 -605 0 -194 10 -502 20 -585 2 -19 7
-73 10 -120 3 -47 10 -121 16 -165 6 -44 12 -93 14 -110 2 -16 6 -48 9 -70 4
-22 9 -58 11 -80 13 -98 54 -322 87 -475 5 -25 11 -56 14 -69 5 -25 40 -168
50 -206 3 -11 7 -31 10 -45 3 -14 8 -34 11 -45 4 -11 8 -24 9 -30 3 -14 28
-104 63 -227 33 -113 145 -459 160 -493 5 -11 16 -40 25 -65 28 -84 77 -215
110 -295 19 -44 54 -130 79 -190 158 -384 449 -964 695 -1385 301 -516 663
-1022 1032 -1445 141 -162 586 -607 740 -742 618 -540 1318 -976 2045 -1275
502 -206 941 -333 1495 -432 103 -18 193 -31 295 -42 22 -2 51 -6 65 -9 162
-30 803 -27 1030 5 99 14 100 13 25 -31 -476 -279 -985 -475 -1430 -548 -104
-18 -117 -19 -240 -32 -105 -10 -465 -7 -580 5 -35 4 -100 -26 -109 -49 -15
-39 -3 -57 87 -135 234 -205 503 -349 792 -425 49 -13 104 -26 120 -29 171
-30 235 -37 394 -47 182 -10 457 -3 736 21 190 17 185 28 44 -118 -191 -195
-311 -356 -445 -599 -86 -154 -204 -397 -224 -458 -7 -22 -16 -44 -20 -50 -4
-5 -15 -37 -25 -70 -9 -33 -21 -71 -26 -85 -16 -46 -30 -185 -23 -230 10 -66
20 -80 57 -80 46 0 76 23 173 135 258 298 401 443 579 586 81 66 186 139 199
139 4 0 -15 -33 -42 -72 -153 -228 -316 -530 -394 -733 -86 -221 -197 -632
-223 -825 -4 -24 -8 -47 -10 -50 -2 -3 -6 -34 -10 -70 -3 -35 -8 -67 -10 -70
-8 -13 -20 -268 -18 -375 3 -146 18 -249 55 -365 26 -82 43 -102 80 -96 53 8
75 34 149 173 39 76 92 176 117 223 196 371 361 563 618 721 76 46 357 189
372 189 11 0 -79 -239 -134 -358 -19 -40 -34 -75 -34 -77 0 -3 -28 -65 -63
-137 -35 -73 -110 -234 -167 -358 -160 -345 -289 -570 -396 -689 -51 -57 -142
-130 -189 -152 -33 -16 -58 -58 -49 -83 3 -9 18 -20 33 -24 58 -16 742 -6 811
13 8 2 37 6 64 10 49 6 178 29 226 40 14 3 39 8 55 11 198 35 553 162 686 244
27 16 52 30 55 30 3 0 20 10 36 22 17 12 29 17 27 12 -2 -5 -32 -65 -67 -133
-61 -119 -147 -320 -156 -364 -3 -12 -12 -51 -21 -87 -20 -73 -16 -240 5 -265
24 -29 74 -18 141 32 284 209 607 342 1014 417 18 3 108 17 145 21 259 33 755
33 1055 0 22 -3 105 -12 185 -20 264 -28 240 -25 335 -39 22 -3 60 -8 85 -11
71 -8 109 -13 138 -19 15 -3 54 -8 87 -12 73 -8 80 -9 130 -17 22 -4 58 -9 80
-12 35 -5 305 -50 360 -60 117 -22 540 -109 585 -121 17 -4 76 -18 270 -63 74
-18 155 -38 180 -46 25 -8 56 -17 70 -19 38 -8 119 -30 305 -81 94 -26 177
-48 185 -51 17 -4 72 -19 123 -33 17 -5 109 -31 202 -59 94 -27 179 -52 190
-55 21 -5 198 -59 355 -107 52 -16 129 -38 170 -50 76 -22 209 -62 267 -81 18
-5 40 -12 50 -14 72 -17 289 -88 338 -110 108 -49 119 -53 260 -98 174 -56
263 -82 340 -101 205 -49 712 -187 910 -246 17 -5 71 -20 120 -34 148 -40 305
-86 400 -116 50 -15 135 -40 190 -55 55 -15 107 -29 115 -31 8 -2 53 -13 100
-23 257 -60 349 -80 384 -85 21 -4 48 -8 60 -11 12 -3 32 -7 46 -9 55 -10 177
-38 435 -100 149 -35 342 -81 430 -101 88 -19 185 -42 215 -50 30 -7 69 -16
85 -19 17 -3 59 -12 95 -20 358 -78 440 -95 470 -100 44 -7 77 -14 98 -20 9
-3 35 -7 57 -11 22 -3 47 -7 55 -10 15 -4 147 -28 255 -46 33 -5 71 -12 85
-14 58 -11 338 -55 370 -58 19 -2 150 -60 290 -129 140 -70 314 -152 385 -183
72 -32 155 -69 185 -82 30 -13 64 -28 75 -33 11 -4 46 -20 78 -34 32 -14 63
-26 70 -26 7 0 17 -4 22 -8 9 -8 70 -33 215 -87 19 -7 59 -23 88 -35 95 -38
546 -191 697 -235 282 -84 564 -157 778 -200 10 -2 26 -6 35 -9 9 -3 28 -7 42
-10 14 -2 57 -11 95 -19 39 -9 88 -18 110 -22 22 -4 49 -9 60 -11 11 -2 45 -8
75 -13 229 -40 291 -50 335 -55 28 -4 64 -9 80 -11 17 -3 48 -7 70 -10 22 -3
51 -7 65 -10 14 -2 55 -7 92 -10 37 -3 77 -8 90 -10 71 -12 552 -49 698 -54
479 -14 935 -9 1165 13 22 3 85 7 140 10 55 4 116 8 135 11 19 2 60 7 90 10
68 7 150 16 170 20 8 2 44 6 80 10 36 3 92 10 125 15 33 5 78 12 100 15 46 7
244 41 325 56 30 6 69 12 85 15 63 11 384 84 480 109 55 15 118 31 140 36 138
33 658 198 750 238 11 5 92 37 180 71 193 76 241 97 460 205 l170 83 255 27
c140 14 269 28 285 30 29 4 416 53 485 61 19 2 67 9 105 15 39 5 90 12 115 15
25 3 122 17 215 30 94 14 186 27 205 30 45 6 358 53 390 59 33 6 224 34 275
41 22 3 96 14 165 25 112 17 144 23 215 34 11 2 38 6 60 10 22 3 94 14 160 25
121 20 151 25 215 36 19 3 49 8 65 11 40 6 283 50 315 58 14 3 54 10 89 16 36
5 67 12 70 13 3 2 24 7 46 10 36 5 262 53 440 92 95 21 846 208 965 239 52 14
105 28 118 31 12 2 64 16 115 30 50 13 171 45 267 71 96 25 216 57 265 70 50
13 97 25 105 27 8 2 51 14 95 25 44 12 91 24 105 27 14 3 48 12 75 20 88 25
229 64 251 69 29 7 202 61 237 74 15 6 27 9 27 7 0 -7 578 193 645 223 59 27
154 61 185 66 78 15 283 91 415 154 78 37 240 124 360 193 121 69 274 154 340
190 121 66 699 358 709 358 3 0 54 24 113 53 240 118 571 245 888 341 66 20
140 43 165 51 63 19 371 91 430 101 8 1 61 9 117 18 219 35 300 41 543 40 362
0 543 -37 870 -179 227 -98 349 -145 375 -145 13 0 37 12 54 26 29 24 30 29
26 79 -19 219 -229 495 -527 691 -53 36 -122 76 -155 91 l-58 27 40 8 c22 4
60 12 85 18 25 5 63 13 85 16 22 3 81 15 130 26 50 11 101 22 115 24 14 3 77
19 140 35 63 17 122 32 130 34 144 33 538 163 565 187 5 4 15 8 21 8 19 0 162
66 524 242 118 58 229 111 245 117 156 64 180 77 198 109 29 49 11 62 -89 67
-43 3 -126 7 -184 10 -58 3 -127 7 -155 10 -27 2 -90 7 -139 11 -50 3 -97 7
-105 9 -9 1 -45 6 -81 9 -58 7 -137 18 -202 30 -29 6 -208 45 -228 50 -101 27
-358 132 -347 142 1 2 50 -5 107 -16 58 -10 128 -21 155 -24 28 -3 82 -10 121
-15 243 -35 846 -33 1046 5 9 1 48 6 85 9 37 4 70 9 73 10 3 2 26 6 50 10 85
11 342 66 402 86 33 10 66 19 73 19 42 0 459 150 580 208 22 11 62 30 90 42
74 34 216 113 343 193 159 99 164 121 43 186 -60 32 -168 69 -331 115 -126 36
-259 87 -405 156 -427 202 -783 486 -1086 868 l-42 54 29 -5 c39 -7 217 -70
334 -118 246 -103 523 -274 725 -449 126 -109 136 -114 177 -97 73 31 73 49 3
264 -192 582 -470 1045 -846 1408 -132 128 -247 216 -407 312 l-114 68 69 13
c216 42 475 117 641 186 84 35 123 42 307 51 114 6 299 22 348 31 15 2 51 7
80 9 65 7 320 45 327 50 3 2 26 6 50 10 264 38 868 204 1165 320 364 142 579
235 796 348 736 381 1332 815 1937 1412 506 498 922 1008 1352 1655 201 302
311 484 525 865 112 199 329 651 425 885 23 58 48 119 55 135 7 17 27 68 45
115 17 47 40 108 50 135 40 102 167 497 175 545 3 15 14 56 24 91 26 83 57
209 76 301 8 40 23 114 34 163 11 50 21 104 24 120 3 17 14 84 25 150 19 109
25 149 38 255 2 19 6 46 9 60 4 22 13 114 20 205 1 17 5 57 9 90 36 344 42
1023 11 1380 -3 33 -7 94 -10 135 -3 41 -8 100 -12 130 -3 30 -6 58 -5 62 1 4
-3 42 -8 85 -6 43 -13 98 -16 123 -8 67 -35 258 -40 283 -2 12 -7 42 -10 67
-4 37 -39 232 -60 340 -59 300 -155 699 -208 868 -131 415 -148 466 -201 602
-8 19 -30 78 -50 130 -20 52 -42 109 -49 125 -210 496 -465 970 -725 1345
-541 783 -1218 1429 -2066 1973 -206 132 -572 323 -750 391 -38 15 -79 31 -90
35 -89 38 -242 89 -315 107 -8 2 -40 10 -70 18 -141 40 -294 64 -438 71 -35 2
-65 5 -68 7 -3 4 129 20 266 33 143 13 178 17 210 25 19 5 51 12 70 15 45 8
160 54 182 72 21 18 27 43 17 70 -13 35 -272 159 -454 216 -59 19 -227 64
-270 72 -302 56 -550 71 -840 51 -38 -3 -63 -3 -55 1 8 3 38 16 65 28 28 12
111 44 187 70 152 53 196 83 184 129 -8 31 -52 55 -156 85 -129 38 -314 39
-600 6 -19 -3 -79 -9 -133 -15 -53 -6 -107 -13 -120 -15 -12 -2 -44 -6 -70
-10 -27 -4 -59 -8 -70 -11 -12 -2 -42 -6 -66 -9 -25 -3 -77 -12 -115 -21 -39
-8 -97 -19 -129 -25 -248 -42 -762 -199 -1087 -332 -250 -102 -519 -230 -680
-322 -36 -21 -85 -49 -110 -63 -25 -14 -108 -65 -185 -114 -857 -549 -1584
-1349 -2045 -2250 l-75 -147 -12 62 c-6 34 -15 85 -18 112 -4 28 -14 86 -22
130 -8 44 -16 94 -19 110 -3 17 -10 55 -15 85 -6 30 -13 69 -16 85 -8 46 -50
257 -56 280 -3 11 -17 79 -32 150 -22 109 -88 393 -112 485 -7 30 -3 11 -51
200 -65 250 -89 337 -132 480 -22 74 -43 143 -45 153 -32 139 -348 1073 -406
1204 -11 23 -19 46 -19 52 0 13 -215 549 -279 696 -29 66 -76 172 -103 235
-397 910 -963 1936 -1476 2675 -375 540 -703 935 -1167 1403 -572 580 -1136
1056 -1878 1586 -227 162 -771 527 -947 636 -257 158 -409 250 -415 250 -3 0
-33 17 -67 38 -139 84 -479 263 -709 372 -105 50 -192 90 -195 90 -2 0 -38 16
-80 35 -41 19 -78 35 -80 35 -3 0 -29 11 -59 24 -59 28 -355 145 -425 169 -25
9 -70 26 -100 37 -60 24 -656 229 -668 230 -4 0 -70 21 -147 45 -77 24 -194
59 -260 79 -66 19 -174 50 -240 70 -66 19 -145 42 -175 50 -30 8 -102 28 -160
45 -91 26 -232 65 -280 76 -8 3 -55 16 -105 30 -101 29 -633 161 -680 169 -26
4 -57 11 -100 20 -45 10 -75 16 -105 20 -19 3 -46 8 -60 11 -47 10 -265 44
-320 50 -30 3 -73 8 -95 10 -259 28 -699 35 -930 15 -66 -5 -145 -12 -175 -15
-101 -8 -175 -16 -205 -22 -28 -5 -26 -1 35 62 74 76 210 193 318 273 305 225
773 419 1277 528 39 9 79 17 90 20 11 2 43 7 70 10 28 3 56 7 63 9 7 3 38 7
70 10 31 3 95 10 142 14 47 5 153 7 235 5 128 -2 191 -8 320 -29 34 -5 106
-25 191 -52 93 -30 138 -27 174 12 32 34 22 62 -53 137 -100 102 -248 188
-432 253 -27 10 -63 23 -80 30 -45 19 -544 182 -612 201 -32 8 -65 17 -73 19
-47 13 -236 62 -243 63 -4 0 -31 5 -60 11 -28 6 -63 13 -77 15 -14 3 -50 9
-80 15 -30 6 -73 12 -95 15 -22 2 -101 12 -175 21 -383 45 -1145 32 -1445 -26
-27 -5 -68 -12 -90 -15 -60 -9 -341 -81 -378 -98 -18 -8 -43 -18 -57 -21 -46
-13 -210 -95 -282 -141 -38 -25 -72 -43 -75 -41 -4 4 3 52 21 149 57 303 175
644 325 940 238 471 511 781 921 1045 63 41 207 131 320 201 307 191 400 259
400 293 0 21 -20 38 -51 44 -165 33 -256 31 -434 -11 -103 -24 -170 -43 -320
-89 -99 -31 -188 -58 -199 -60 -10 -3 -55 -16 -100 -31 -44 -14 -90 -28 -101
-30 -41 -8 -301 -101 -415 -149 -605 -254 -1342 -905 -1785 -1575 -95 -143
-118 -182 -195 -325 -79 -148 -113 -205 -118 -200 -9 9 -12 50 -16 280 -4 224
7 372 44 585 5 30 11 71 14 90 16 101 88 412 137 588 11 40 22 81 24 90 8 43
103 322 155 458 102 264 268 577 406 760 88 117 180 211 369 374 228 197 235
204 235 232 0 42 -27 55 -85 41z m-171 -162 c-5 -4 -63 -53 -129 -108 -227
-190 -355 -340 -506 -594 -110 -184 -245 -477 -325 -704 -36 -102 -105 -308
-109 -325 -2 -8 -14 -55 -28 -105 -40 -140 -102 -410 -121 -520 -16 -94 -46
-338 -57 -454 -22 -253 6 -686 50 -769 14 -27 65 -30 100 -6 32 23 171 238
260 404 222 411 397 650 711 974 320 330 637 582 945 753 96 54 305 153 321
153 3 0 29 11 58 24 55 25 331 120 376 130 45 10 93 23 230 65 257 79 295 90
380 111 95 23 270 38 270 24 0 -10 -191 -130 -455 -287 -426 -253 -637 -430
-850 -712 -198 -263 -342 -536 -470 -890 -26 -71 -48 -137 -50 -145 -2 -8 -17
-68 -34 -133 -17 -65 -33 -132 -37 -150 -46 -262 -58 -344 -56 -386 2 -65 40
-64 147 7 218 143 587 270 890 306 43 6 102 14 150 21 176 27 1073 27 1211 1
10 -2 48 -7 84 -11 94 -9 231 -31 335 -54 50 -11 124 -27 165 -35 107 -24 398
-108 515 -151 55 -19 173 -60 263 -90 153 -51 352 -136 352 -150 0 -4 -8 -4
-17 -1 -9 4 -46 9 -82 12 -36 3 -77 7 -91 10 -27 5 -314 4 -370 -1 -157 -14
-394 -53 -550 -91 -673 -162 -1176 -410 -1511 -744 -88 -88 -99 -103 -129
-181 -18 -46 -34 -89 -37 -95 -4 -11 328 -41 344 -31 5 3 112 11 238 17 174 9
286 9 457 0 124 -6 237 -13 250 -15 12 -2 50 -7 83 -10 33 -3 74 -7 90 -10 17
-2 57 -6 90 -10 33 -3 67 -8 75 -10 8 -2 35 -7 60 -10 42 -5 59 -8 120 -20 14
-3 41 -8 60 -11 19 -3 41 -7 49 -10 8 -2 30 -7 50 -10 46 -7 443 -98 541 -125
41 -11 84 -22 95 -24 19 -5 165 -45 310 -85 39 -11 77 -22 85 -24 8 -2 65 -18
125 -36 61 -17 135 -38 165 -46 30 -8 91 -26 135 -39 44 -14 143 -43 220 -65
77 -23 167 -50 200 -60 260 -81 433 -137 510 -162 50 -17 135 -46 190 -64 55
-19 109 -38 120 -43 11 -5 97 -37 190 -71 196 -72 474 -186 637 -262 153 -71
562 -275 673 -336 50 -27 117 -64 150 -82 33 -18 98 -55 145 -83 47 -27 99
-58 115 -67 298 -170 871 -544 1250 -815 715 -511 1244 -954 1791 -1500 617
-615 1029 -1128 1489 -1850 85 -133 333 -551 407 -685 14 -25 59 -106 100
-180 332 -593 718 -1410 967 -2045 35 -88 69 -173 76 -190 7 -16 34 -88 60
-160 26 -71 63 -170 82 -218 38 -99 254 -743 277 -827 9 -30 24 -84 35 -120
48 -161 79 -267 86 -295 5 -16 9 -32 10 -35 6 -21 28 -98 31 -110 2 -8 26 -98
54 -200 40 -147 105 -414 125 -510 2 -8 11 -48 20 -89 9 -40 18 -78 19 -85 2
-6 6 -22 9 -36 13 -52 46 -206 51 -235 2 -16 20 -109 40 -205 31 -159 55 -288
72 -394 3 -21 8 -48 10 -60 9 -45 34 -206 39 -252 3 -27 8 -56 10 -64 5 -17
30 -194 40 -279 4 -30 8 -63 11 -74 5 -29 42 -348 49 -427 5 -62 8 -87 20
-190 3 -25 7 -76 10 -115 3 -38 8 -92 10 -120 3 -27 7 -81 10 -120 9 -121 15
-198 20 -255 8 -87 28 -452 40 -715 23 -536 29 -1074 16 -1570 -7 -242 -14
-460 -16 -485 -2 -25 -7 -101 -10 -170 -3 -69 -8 -152 -11 -185 -19 -268 -38
-489 -55 -650 -11 -104 -22 -210 -25 -234 -3 -25 -12 -88 -20 -140 -9 -53 -18
-109 -21 -126 -2 -16 -20 -122 -39 -235 -19 -113 -37 -221 -40 -240 -3 -19
-12 -71 -20 -115 -8 -44 -17 -96 -20 -115 -3 -19 -12 -73 -19 -120 -8 -47 -17
-101 -20 -120 -3 -19 -17 -109 -31 -200 -14 -91 -27 -176 -29 -190 -2 -14 -7
-50 -10 -80 -3 -30 -8 -65 -11 -78 -2 -12 -7 -44 -10 -70 -2 -26 -9 -83 -15
-127 -6 -44 -13 -98 -15 -120 -2 -22 -8 -80 -14 -130 -5 -49 -12 -139 -16
-200 -3 -60 -10 -148 -14 -195 -4 -47 -6 -227 -5 -400 4 -516 47 -853 168
-1300 9 -30 39 -122 67 -205 280 -805 757 -1392 1389 -1709 142 -72 340 -146
486 -182 405 -100 872 -109 1289 -24 l89 18 -6 -54 c-7 -71 -37 -132 -99 -199
-76 -83 -185 -155 -318 -209 -25 -10 -54 -22 -65 -27 -67 -27 -265 -86 -346
-103 -92 -19 -294 -55 -340 -61 -51 -6 -62 -4 -105 21 l-49 29 50 -63 c76 -98
173 -184 245 -218 294 -141 678 -242 1020 -271 112 -10 487 -10 620 -1 l105 7
-35 -30 c-226 -197 -722 -396 -1105 -444 -39 -5 -55 -7 -142 -19 -24 -3 -60
-8 -81 -11 -30 -4 -58 3 -130 35 -51 22 -95 40 -98 40 -3 0 12 -14 33 -32 21
-17 79 -71 128 -118 68 -66 119 -104 210 -156 283 -161 512 -369 733 -664 124
-165 211 -309 318 -525 88 -180 201 -452 190 -462 -2 -3 -46 25 -96 61 -234
168 -511 311 -755 389 -151 49 -208 59 -326 56 l-101 -3 5 -52 c6 -58 29 -97
158 -264 90 -118 302 -330 434 -435 127 -102 318 -229 442 -296 54 -29 116
-62 138 -74 120 -64 340 -144 526 -190 143 -36 249 -71 249 -84 0 -11 -175
-114 -305 -179 -368 -183 -831 -314 -1325 -373 -282 -34 -854 -33 -1095 2 -38
6 -88 13 -110 15 -111 14 -472 94 -544 122 -16 6 42 -106 112 -216 31 -49 51
-69 91 -90 190 -99 420 -167 713 -212 168 -25 200 -29 313 -35 52 -3 109 -8
126 -10 17 -3 65 -6 107 -6 43 -1 77 -5 77 -10 0 -5 -4 -9 -9 -9 -5 0 -119
-53 -253 -119 -421 -205 -463 -223 -688 -297 -167 -56 -526 -149 -680 -177
-14 -3 -36 -8 -50 -11 -14 -3 -36 -8 -50 -10 -14 -3 -61 -11 -105 -20 -44 -8
-93 -17 -110 -20 -16 -2 -55 -9 -85 -15 -30 -5 -74 -12 -97 -15 -79 -10 -174
-40 -173 -55 1 -16 96 -73 174 -105 126 -52 191 -87 276 -147 94 -66 254 -220
325 -313 52 -68 133 -221 123 -232 -3 -3 -81 29 -174 69 -302 133 -435 172
-697 202 -118 13 -429 20 -517 11 -14 -2 -61 -6 -105 -10 -44 -4 -91 -9 -105
-11 -33 -5 -145 -22 -190 -29 -109 -17 -382 -79 -545 -124 -195 -55 -624 -209
-810 -292 -360 -160 -856 -404 -1135 -558 -119 -65 -149 -78 -166 -70 -17 8
-45 -3 -152 -61 -173 -93 -344 -178 -500 -247 -70 -31 -146 -64 -169 -75 -24
-10 -45 -19 -48 -19 -4 0 -25 -9 -48 -19 -122 -55 -471 -179 -787 -279 -110
-35 -694 -201 -765 -217 -11 -2 -96 -25 -190 -50 -93 -25 -179 -47 -190 -50
-11 -2 -290 -72 -620 -155 -330 -84 -627 -158 -660 -165 -33 -7 -103 -23 -155
-35 -104 -23 -306 -65 -385 -80 -69 -13 -86 -16 -205 -39 -185 -36 -504 -90
-905 -154 -298 -48 -415 -67 -440 -70 -16 -3 -73 -12 -126 -21 -274 -45 -1021
-152 -1189 -170 -25 -3 -79 -10 -120 -15 -41 -6 -93 -12 -115 -15 -22 -2 -83
-9 -135 -15 -52 -7 -115 -14 -140 -16 -25 -3 -65 -8 -90 -11 -25 -4 -43 -4
-40 -1 3 3 79 54 170 114 149 99 313 219 440 323 45 37 166 94 322 152 172 63
364 129 427 147 36 11 137 40 224 65 166 48 379 101 952 240 193 47 420 103
505 126 85 22 167 43 182 45 15 3 37 9 50 14 20 7 437 120 463 125 6 1 35 10
65 19 30 9 98 27 150 41 52 14 122 33 155 42 33 9 67 18 75 20 146 36 726 201
950 270 180 56 495 159 605 199 55 21 114 41 130 46 17 5 39 13 50 18 11 5 74
30 140 56 66 26 139 56 162 66 24 11 45 19 47 19 24 0 550 251 726 347 767
419 1570 1083 2018 1671 85 111 273 389 322 477 145 255 295 551 387 760 67
154 127 296 177 420 31 77 61 149 66 160 25 58 157 437 165 475 2 8 10 42 19
75 9 33 18 67 20 75 35 146 48 201 52 230 3 19 12 67 19 105 7 39 17 93 21
120 4 28 9 57 10 65 2 8 6 42 9 75 3 33 8 76 11 96 17 116 28 343 28 579 -1
346 -18 561 -70 865 -21 125 -19 118 -49 245 -122 521 -324 986 -629 1450
-236 357 -476 608 -751 785 -49 32 -133 87 -185 121 -52 34 -120 73 -150 87
-30 13 -75 33 -100 44 -81 37 -203 81 -300 109 -52 15 -96 29 -98 30 -2 1 28
64 66 140 99 197 157 328 255 574 47 118 98 242 113 275 135 302 288 800 399
1305 14 62 47 231 51 255 3 17 9 53 15 80 6 28 13 66 15 85 3 19 8 42 10 50 5
14 17 81 30 170 2 19 14 85 25 145 11 61 23 124 25 140 3 17 16 98 29 180 13
83 29 179 35 215 5 36 12 76 15 90 6 35 36 219 41 255 2 17 11 71 19 120 8 50
21 133 29 185 9 52 18 111 20 130 34 237 77 527 82 552 1 9 5 43 9 75 3 32 11
90 16 128 6 39 12 81 14 95 9 89 18 158 21 175 2 11 6 40 8 65 3 25 7 65 10
90 3 25 13 113 21 195 9 83 18 166 20 185 8 71 15 137 19 195 3 33 12 150 21
260 26 332 30 407 45 765 9 224 13 1080 5 1185 -2 28 -6 115 -10 195 -6 145
-12 242 -21 355 -10 133 -34 392 -39 425 -2 19 -7 55 -9 80 -9 81 -55 412 -72
510 -32 193 -56 330 -60 350 -3 14 -9 48 -14 75 -5 28 -12 61 -15 75 -3 14 -7
34 -9 45 -2 11 -7 31 -10 45 -3 14 -8 36 -10 50 -17 94 -87 392 -152 651 -42
167 -78 311 -80 319 -67 269 -363 1237 -414 1355 -5 11 -41 103 -81 205 -65
164 -188 419 -404 835 -241 465 -285 535 -429 678 -55 56 -140 147 -188 202
-431 499 -1058 928 -1773 1213 -329 131 -751 237 -1161 292 -44 6 -91 13 -105
15 -13 3 -62 7 -109 10 -47 4 -92 8 -100 10 -8 2 -58 7 -110 10 -52 4 -111 9
-130 11 -68 9 -1147 12 -1305 4 -88 -5 -221 -11 -295 -14 -139 -7 -168 -8
-405 -26 -159 -12 -457 -39 -495 -45 -14 -2 -50 -6 -80 -10 -30 -3 -71 -7 -90
-9 -19 -2 -51 -7 -70 -10 -19 -3 -53 -8 -75 -10 -36 -4 -342 -51 -390 -61 -97
-19 -186 -35 -215 -40 -19 -3 -62 -12 -95 -20 -33 -8 -112 -26 -175 -41 -98
-22 -144 -33 -205 -50 -5 -2 -19 -5 -31 -7 -93 -22 -783 -243 -874 -281 -11
-5 -43 25 -110 105 -52 61 -115 129 -139 150 -24 22 -42 41 -40 42 2 2 37 26
77 52 303 201 565 525 692 857 30 80 75 237 85 302 3 17 8 45 12 61 7 34 7 32
18 135 4 41 9 84 11 95 3 11 7 118 11 238 7 241 8 237 -55 237 -41 0 -65 -17
-209 -145 -133 -120 -263 -201 -464 -290 -223 -98 -397 -156 -649 -214 -113
-27 -148 -33 -245 -47 -16 -2 -55 -8 -85 -14 -68 -12 -159 -19 -320 -26 -69
-2 -143 -9 -165 -14 -52 -11 -99 -20 -153 -27 -189 -26 390 -63 618 -40 118
12 287 38 375 58 466 103 910 291 1122 476 l75 65 -6 -113 c-4 -63 -8 -125
-10 -139 -5 -27 -15 -103 -22 -160 -9 -78 -49 -244 -83 -350 -117 -357 -329
-636 -639 -841 l-104 -69 -41 34 c-96 76 -370 237 -383 223 -3 -2 26 -53 63
-112 59 -94 78 -115 145 -165 329 -242 530 -502 643 -830 19 -58 46 -127 59
-155 48 -103 144 -405 161 -505 3 -19 9 -44 12 -55 3 -11 7 -29 9 -40 2 -11
10 -59 18 -106 64 -377 37 -834 -72 -1234 -44 -158 -53 -186 -105 -315 -160
-400 -374 -702 -764 -1081 -76 -74 -164 -153 -194 -177 -60 -45 -217 -142
-231 -142 -17 0 -7 28 32 91 131 210 197 412 215 659 19 242 -77 661 -208 915
-41 78 -70 119 -137 188 l-85 88 -11 -98 c-7 -54 -14 -111 -18 -128 -3 -16 -9
-43 -12 -60 -20 -111 -98 -356 -150 -472 -14 -32 -36 -105 -49 -163 -51 -233
-110 -406 -205 -605 -365 -757 -1044 -1279 -1885 -1449 -229 -47 -363 -60
-630 -60 -355 -1 -514 16 -688 75 -141 47 -144 53 -29 69 198 26 342 74 514
171 425 241 773 614 1004 1079 103 207 235 588 260 750 3 19 9 51 14 70 12 50
38 250 45 345 3 44 0 134 -6 200 -17 174 -61 292 -145 385 -19 21 -34 47 -34
58 0 52 -106 38 -135 -18 -8 -16 -15 -63 -16 -113 -5 -221 -67 -475 -169 -692
-181 -385 -458 -641 -835 -770 -300 -103 -554 -118 -850 -51 -66 15 -88 21
-169 47 -114 38 -205 84 -286 145 l-64 49 239 6 c237 5 241 6 338 38 404 134
696 492 777 951 22 122 20 347 -4 474 -47 248 -164 496 -334 707 -74 92 -239
252 -310 299 -28 19 -52 40 -52 45 0 6 -10 15 -23 21 -12 7 -61 32 -109 57
-47 24 -126 57 -173 72 -93 29 -410 172 -820 370 -87 41 -158 75 -160 75 -1 0
-76 35 -166 78 -90 44 -189 90 -219 104 -241 112 -362 168 -365 168 -2 0 -41
17 -87 39 -110 51 -580 259 -688 304 -240 100 -286 119 -460 184 -297 111
-655 217 -885 264 -102 20 -311 60 -340 64 -16 2 -64 9 -105 15 -155 23 -399
49 -534 56 -56 3 -123 7 -151 9 -84 5 -615 6 -700 0 -44 -3 -118 -7 -165 -9
-47 -3 -134 -10 -195 -15 -60 -6 -139 -13 -175 -16 -36 -3 -78 -8 -95 -10 -16
-3 -122 -18 -235 -35 -113 -17 -216 -32 -230 -35 -14 -3 -63 -12 -110 -21
-918 -167 -1844 -532 -2585 -1019 -724 -476 -1376 -1169 -1870 -1989 -312
-519 -585 -1168 -765 -1826 -34 -123 -113 -439 -120 -482 -1 -4 -8 -36 -17
-70 -20 -86 -23 -98 -29 -138 -3 -19 -12 -66 -21 -105 -17 -81 -15 -71 -43
-240 -11 -71 -27 -170 -36 -219 -15 -94 -20 -131 -29 -211 -3 -27 -15 -122
-25 -210 -11 -88 -22 -194 -25 -235 -3 -41 -8 -93 -10 -115 -4 -34 -10 -108
-20 -255 -1 -19 -5 -125 -9 -235 -4 -110 -10 -206 -12 -214 -5 -16 -5 -1123 0
-1166 2 -16 7 -138 11 -270 4 -132 9 -262 10 -290 1 -27 6 -113 9 -190 4 -77
9 -156 11 -175 2 -19 7 -84 10 -145 8 -145 14 -216 40 -500 2 -27 7 -81 10
-120 4 -38 8 -81 10 -95 2 -14 7 -56 10 -95 4 -38 8 -81 10 -95 6 -46 15 -125
20 -170 2 -25 8 -79 14 -120 6 -41 13 -100 17 -130 7 -65 6 -59 33 -235 18
-119 63 -393 75 -460 2 -11 20 -101 41 -200 20 -99 39 -189 41 -200 5 -29 120
-493 139 -565 32 -119 56 -206 69 -252 10 -31 19 -69 22 -84 3 -15 7 -31 10
-36 3 -4 7 -16 9 -25 10 -41 124 -445 179 -633 24 -82 160 -609 170 -660 2
-14 21 -97 42 -185 36 -156 58 -258 68 -306 3 -13 18 -89 34 -169 17 -80 32
-161 35 -180 3 -19 14 -98 26 -175 20 -135 43 -329 56 -465 3 -36 8 -76 10
-90 2 -14 7 -61 11 -105 3 -44 10 -111 14 -150 13 -117 4 -451 -14 -525 -9
-36 -18 -73 -21 -83 -12 -51 -14 -52 -132 -80 -424 -102 -851 -300 -1193 -555
-137 -102 -397 -359 -524 -517 -94 -118 -264 -370 -338 -500 -359 -634 -541
-1332 -538 -2070 0 -93 2 -195 5 -225 21 -260 33 -358 60 -500 8 -41 17 -88
20 -105 22 -131 114 -450 180 -625 449 -1184 1411 -2155 2970 -3000 269 -146
745 -370 1084 -511 80 -34 160 -67 176 -74 17 -7 91 -36 165 -65 74 -29 149
-58 165 -65 47 -19 132 -50 240 -90 55 -20 109 -40 120 -44 42 -18 315 -113
630 -219 131 -44 483 -156 555 -177 326 -94 637 -179 700 -191 14 -3 43 -10
65 -16 22 -5 51 -12 65 -15 14 -2 42 -8 63 -14 21 -6 102 -24 180 -40 78 -17
151 -32 162 -35 11 -3 34 -8 50 -10 39 -7 186 -38 305 -64 52 -11 111 -23 130
-26 19 -3 76 -14 125 -25 50 -11 106 -22 125 -25 19 -3 42 -7 50 -9 8 -2 53
-9 100 -14 91 -11 105 -13 340 -36 85 -8 166 -18 180 -20 14 -3 39 -8 55 -10
17 -3 59 -13 94 -21 36 -9 73 -17 83 -19 11 -2 36 -17 56 -33 117 -93 768
-503 989 -623 35 -19 63 -37 63 -40 0 -4 -30 0 -67 8 -38 8 -79 17 -93 19 -14
2 -90 18 -170 35 -80 17 -219 46 -310 65 -90 19 -172 37 -182 40 -10 3 -28 7
-40 9 -26 5 -353 74 -383 81 -11 2 -33 7 -50 9 -25 5 -166 32 -255 50 -14 3
-41 8 -60 11 -75 11 -727 171 -960 235 -80 22 -152 42 -160 44 -12 2 -71 18
-115 31 -5 2 -26 7 -45 13 -124 33 -314 87 -425 121 -71 21 -231 64 -355 95
-124 31 -290 74 -370 96 -80 22 -284 79 -455 125 -346 95 -684 193 -1225 356
-363 109 -438 131 -495 147 -16 5 -133 39 -260 76 -589 173 -1024 286 -1495
391 -194 43 -244 54 -285 61 -16 2 -88 16 -160 29 -71 14 -141 27 -155 29 -14
2 -83 13 -155 25 -71 12 -148 23 -170 26 -22 3 -67 10 -100 16 -71 12 -93 15
-164 23 -45 5 -104 13 -221 30 -14 2 -56 7 -95 10 -38 3 -80 8 -91 10 -12 3
-50 7 -85 10 -35 3 -82 8 -104 10 -47 5 -169 14 -345 25 -163 10 -628 5 -750
-9 -52 -6 -115 -13 -140 -15 -25 -3 -55 -7 -66 -10 -12 -2 -39 -7 -60 -10 -22
-4 -76 -15 -121 -26 -46 -11 -93 -21 -105 -24 -40 -7 -245 -76 -335 -112 -116
-47 -247 -114 -360 -185 -51 -31 -95 -54 -98 -49 -7 12 3 91 22 165 41 163
241 559 390 772 24 34 43 64 43 67 0 3 -28 -15 -62 -40 -35 -25 -124 -76 -198
-113 -74 -37 -166 -87 -205 -111 -150 -93 -463 -210 -685 -254 -243 -49 -237
-48 -475 -71 -142 -14 -475 -20 -475 -8 0 3 20 23 45 45 101 89 241 296 339
503 70 147 336 750 394 895 130 323 165 463 112 455 -8 -2 -35 -6 -60 -9 -81
-12 -93 -17 -272 -107 -432 -217 -633 -431 -923 -986 -50 -95 -64 -110 -66
-70 -1 12 -4 38 -8 57 -11 63 -5 452 8 530 7 41 14 89 17 105 2 17 6 41 9 55
3 14 7 43 11 65 3 22 10 58 16 80 6 22 12 54 15 70 7 46 61 257 95 375 35 122
109 319 165 440 77 166 250 453 416 690 67 95 78 125 55 148 -21 21 -53 13
-170 -46 -269 -135 -518 -340 -828 -682 -57 -63 -108 -116 -111 -118 -12 -5
18 115 53 213 48 135 256 544 347 680 121 183 198 274 398 471 142 141 183
188 183 207 0 17 -7 28 -21 32 -20 7 -186 -1 -219 -10 -8 -2 -60 -7 -115 -10
-55 -4 -145 -10 -200 -14 -55 -5 -210 -9 -345 -9 -260 -1 -428 13 -585 48 -97
22 -98 22 -162 39 -71 19 -263 99 -343 143 -98 54 -280 177 -280 190 0 3 71 6
158 7 166 3 210 5 282 15 25 3 67 8 93 11 154 18 444 84 632 145 50 16 106 32
125 36 33 6 218 70 285 99 17 7 68 25 115 40 244 79 609 264 894 453 110 73
139 98 205 177 42 51 100 127 129 169 l53 76 -83 -8 c-46 -4 -245 -7 -443 -7
-344 0 -513 10 -635 36 -25 6 -61 13 -81 15 -104 15 -299 67 -414 111 -213 82
-379 177 -526 299 -85 71 -157 147 -143 150 5 2 113 8 239 14 271 14 291 15
415 29 289 33 561 80 835 146 61 15 117 28 125 30 20 5 240 69 310 90 129 40
377 132 536 200 636 272 1152 612 1579 1040 426 428 726 903 900 1428 26 76
48 147 51 157 2 11 6 30 10 43 3 12 7 33 10 47 3 14 9 41 14 60 20 78 45 235
55 355 4 44 9 89 12 100 6 31 5 421 -2 506 -16 191 -62 539 -85 634 -6 22 -12
54 -15 70 -6 38 -98 419 -120 500 -10 33 -19 67 -20 75 -2 8 -20 71 -40 140
-21 69 -39 132 -40 140 -2 8 -8 29 -13 45 -6 17 -31 98 -56 180 -75 244 -117
378 -127 405 -52 151 -238 777 -315 1065 -9 33 -22 80 -30 105 -7 25 -16 56
-18 70 -3 14 -32 131 -65 260 -33 129 -62 246 -64 260 -3 14 -14 63 -25 110
-27 111 -110 501 -116 543 -3 17 -14 77 -25 132 -11 55 -26 143 -35 195 -8 52
-39 246 -69 430 -31 184 -58 359 -62 389 -4 30 -8 61 -10 70 -6 36 -16 98 -20
136 -3 22 -7 47 -10 55 -2 8 -7 42 -10 75 -4 33 -8 71 -10 85 -6 38 -35 260
-40 308 -3 23 -7 63 -10 90 -3 26 -8 61 -10 79 -32 232 -72 775 -86 1171 -12
329 -2 795 21 1062 6 63 13 140 15 170 8 86 25 252 40 370 10 82 12 99 19 165
3 33 8 71 11 85 3 14 8 45 11 70 3 25 7 54 9 65 1 11 8 58 15 105 16 118 86
515 111 630 11 52 22 109 25 125 12 67 96 435 130 563 19 75 37 146 40 157 2
11 15 61 29 110 14 50 28 98 30 108 26 114 256 836 294 922 5 11 21 56 37 100
70 204 356 895 477 1155 19 41 65 139 101 217 121 261 333 671 489 948 812
1435 1815 2585 3007 3445 114 83 415 285 520 350 216 133 281 172 448 266 189
108 520 283 654 347 351 166 460 216 643 295 346 148 733 299 1050 409 283 98
645 214 835 268 69 19 139 39 155 44 26 8 73 21 135 37 8 2 112 28 230 59 118
30 260 64 315 76 111 23 111 23 175 38 25 5 56 12 70 15 14 2 45 9 70 14 25 6
61 13 80 16 19 3 71 13 115 21 44 9 107 20 140 25 33 5 92 13 130 19 62 9 205
70 205 88 0 3 -14 23 -31 44 -24 31 -63 55 -178 112 -169 84 -263 127 -341
157 -30 12 -68 28 -85 35 -42 19 -323 117 -430 150 -94 29 -487 131 -540 141
-152 27 -321 54 -370 59 -33 3 -98 10 -145 14 -124 13 -468 5 -595 -13 -162
-24 -295 -58 -525 -136 -113 -38 -218 -71 -235 -74 -16 -2 -46 -8 -65 -11 -34
-7 -33 -6 50 80 131 134 287 246 521 375 77 43 483 244 579 287 266 120 502
214 697 276 127 41 466 130 538 141 17 2 50 9 75 15 72 16 316 50 425 58 197
15 659 9 800 -11 466 -65 783 -197 1007 -419 32 -31 63 -57 71 -57 7 0 23 7
35 16 20 14 22 22 18 62 -22 190 -28 317 -22 482 6 196 20 324 47 455 6 28 13
64 15 80 10 59 65 255 100 357 45 128 136 320 205 435 56 93 198 287 205 280
2 -2 -6 -35 -18 -73 -12 -38 -22 -73 -24 -79 -1 -5 -10 -39 -19 -75 -25 -94
-44 -187 -51 -245 -3 -27 -9 -75 -14 -105 -5 -30 -8 -156 -8 -280 0 -302 29
-502 110 -742 114 -344 271 -601 505 -829 100 -98 111 -106 141 -101 38 5 71
42 66 74 -20 160 -34 302 -39 388 -3 58 -8 148 -11 200 -7 115 11 480 32 639
8 64 17 136 20 161 3 25 8 52 10 60 3 8 8 33 10 55 3 22 15 81 25 130 11 50
22 101 25 115 9 45 25 104 45 166 11 33 21 70 24 82 4 23 60 192 74 227 5 11
26 65 47 120 87 223 249 525 399 740 169 243 446 540 657 703 121 94 309 224
316 218 2 -3 -28 -51 -66 -108 -165 -245 -350 -590 -422 -788 -17 -47 -35 -94
-39 -105 -28 -69 -76 -259 -102 -410 -20 -112 -23 -166 -23 -385 -1 -221 7
-400 18 -419 2 -3 6 -29 10 -58 3 -28 8 -57 10 -65 3 -7 7 -30 10 -50 3 -21
10 -57 15 -80 5 -24 13 -63 16 -88 4 -25 8 -49 9 -55 2 -5 6 -28 10 -50 32
-176 75 -312 121 -385 26 -40 82 -95 105 -102 17 -6 61 14 78 35 14 16 36 171
62 432 13 124 38 327 45 365 3 14 8 45 11 70 3 25 8 48 10 51 2 4 6 24 10 45
3 22 14 73 25 114 11 41 21 82 23 90 16 66 89 269 136 380 218 509 530 991
868 1342 365 379 753 625 1247 792 95 32 121 36 99 17z m-6809 -11540 c61 -6
128 -13 150 -16 22 -3 65 -7 96 -10 31 -3 67 -8 80 -10 13 -3 47 -7 74 -11 28
-3 88 -12 135 -20 47 -8 101 -17 120 -20 292 -46 739 -176 1155 -337 90 -34
433 -176 490 -202 17 -8 91 -39 165 -71 165 -69 508 -221 799 -353 272 -124
462 -213 834 -390 70 -34 130 -61 131 -61 2 0 47 -20 99 -45 53 -25 98 -45
101 -45 2 0 39 -16 83 -36 43 -19 87 -39 98 -44 11 -4 38 -15 60 -24 45 -19
53 -24 145 -79 119 -73 264 -176 337 -239 230 -201 403 -491 468 -785 23 -106
25 -121 31 -238 15 -258 -64 -534 -213 -743 -124 -175 -317 -313 -513 -369
-57 -16 -105 -18 -372 -18 l-306 0 -26 -24 c-33 -31 -33 -58 0 -122 88 -175
404 -326 804 -385 56 -8 330 -8 389 0 190 27 444 103 604 182 232 114 463 313
596 514 136 206 257 503 302 744 25 135 32 133 50 -17 16 -126 5 -283 -36
-527 -31 -184 -147 -562 -233 -762 -147 -342 -366 -642 -634 -873 -266 -228
-523 -359 -766 -389 -24 -3 -83 -10 -130 -16 -139 -17 -155 -20 -192 -38 -61
-30 -70 -81 -21 -119 218 -172 485 -234 1006 -236 151 0 304 4 365 12 58 6
123 14 145 17 54 6 147 23 220 39 33 8 71 16 85 19 165 32 452 137 655 239
597 299 1098 846 1350 1472 20 50 40 99 46 110 5 11 21 58 35 105 66 218 107
420 124 619 5 63 11 116 13 118 7 6 74 -158 97 -237 84 -286 106 -483 76 -675
-29 -180 -50 -253 -116 -395 -84 -184 -100 -262 -65 -316 15 -23 22 -25 52
-21 52 9 216 91 315 159 48 33 133 98 190 145 654 546 1023 1150 1158 1893 31
170 35 231 35 500 0 275 -5 355 -35 520 -69 381 -189 705 -375 1005 -45 74
-63 110 -55 115 29 18 528 178 700 225 52 14 109 30 125 35 17 5 41 11 55 14
14 3 77 18 140 34 63 16 151 37 195 46 44 10 107 24 140 32 33 7 152 29 265
48 194 34 240 41 335 52 22 2 54 6 70 9 70 9 386 44 455 50 41 3 93 8 115 10
158 18 599 41 1020 55 467 15 1098 -3 1405 -40 41 -5 100 -12 130 -15 30 -3
84 -11 120 -17 36 -6 81 -12 100 -14 36 -5 186 -32 318 -59 40 -8 97 -22 127
-30 30 -9 67 -18 82 -21 52 -9 293 -84 411 -128 464 -174 924 -432 1297 -729
373 -296 683 -637 937 -1027 100 -154 185 -307 293 -533 62 -129 94 -187 106
-187 14 0 62 -91 129 -245 54 -123 122 -310 235 -650 69 -207 200 -631 209
-679 2 -11 20 -75 39 -141 45 -154 176 -673 222 -880 19 -88 40 -178 45 -200
5 -22 12 -51 14 -65 2 -14 9 -45 15 -70 5 -25 12 -57 15 -73 2 -15 7 -35 10
-45 3 -9 7 -28 10 -42 3 -14 17 -83 31 -155 14 -71 30 -157 35 -190 5 -33 11
-71 15 -85 23 -107 84 -537 100 -710 3 -36 10 -101 15 -145 5 -44 12 -120 15
-170 3 -49 8 -112 10 -140 2 -27 7 -106 11 -175 3 -69 8 -147 10 -175 19 -245
12 -1259 -11 -1540 -2 -27 -6 -99 -10 -160 -16 -303 -49 -682 -96 -1095 -11
-96 -22 -195 -24 -220 -3 -25 -7 -58 -10 -75 -3 -16 -7 -52 -10 -80 -3 -27 -8
-68 -12 -90 -4 -22 -6 -43 -5 -46 1 -4 -3 -33 -8 -65 -6 -33 -13 -86 -16 -119
-4 -33 -8 -63 -10 -66 -2 -4 -6 -31 -9 -60 -3 -30 -8 -64 -11 -77 -2 -12 -7
-44 -10 -70 -3 -26 -12 -90 -20 -142 -8 -52 -17 -113 -20 -135 -7 -52 -52
-341 -60 -380 -3 -16 -7 -46 -10 -65 -2 -19 -23 -145 -45 -280 -22 -135 -42
-258 -44 -275 -38 -248 -84 -511 -105 -600 -6 -27 -14 -59 -16 -70 -2 -11 -11
-51 -19 -90 -9 -38 -18 -83 -21 -100 -10 -52 -144 -582 -165 -647 -10 -35 -24
-79 -29 -98 -43 -159 -221 -707 -255 -785 -7 -16 -32 -82 -55 -145 -51 -138
-93 -239 -212 -510 -49 -113 -102 -233 -116 -268 -26 -61 -28 -63 -57 -58 -16
3 -92 16 -167 30 -76 14 -159 28 -185 31 -27 2 -64 7 -83 10 -151 20 -428 27
-615 15 -271 -17 -416 -42 -647 -110 -151 -44 -188 -57 -188 -66 0 -6 20 -4
155 16 102 15 134 19 195 26 30 3 91 9 135 14 83 9 748 6 800 -3 17 -3 57 -8
90 -12 33 -3 71 -7 85 -9 14 -2 43 -7 65 -10 104 -14 124 -18 175 -27 216 -41
388 -88 474 -131 34 -16 99 -44 146 -63 544 -213 894 -531 1269 -1153 61 -102
227 -421 268 -517 78 -180 100 -235 143 -365 26 -80 58 -183 70 -230 41 -164
49 -195 59 -250 6 -30 13 -68 16 -85 86 -442 104 -998 49 -1495 -15 -132 -51
-367 -59 -380 -2 -4 -7 -29 -11 -56 -3 -27 -8 -52 -10 -55 -2 -3 -6 -21 -9
-40 -8 -48 -53 -225 -70 -279 -8 -25 -26 -83 -41 -130 -56 -179 -236 -633
-371 -935 -10 -22 -70 -146 -135 -275 -374 -752 -758 -1236 -1398 -1760 -682
-559 -1397 -966 -2200 -1255 -58 -20 -114 -41 -125 -46 -88 -38 -646 -213
-960 -301 -22 -6 -59 -17 -82 -24 -23 -8 -75 -22 -115 -33 -40 -10 -154 -41
-253 -69 -99 -27 -193 -53 -210 -57 -16 -5 -34 -9 -40 -11 -5 -1 -74 -21 -153
-43 -78 -23 -159 -45 -180 -51 -62 -16 -142 -37 -257 -69 -60 -17 -119 -33
-130 -36 -11 -2 -63 -15 -115 -29 -146 -39 -482 -124 -511 -129 -14 -3 -82
-19 -150 -36 -68 -17 -248 -60 -399 -96 -327 -77 -585 -144 -695 -180 -22 -8
-99 -32 -171 -54 -71 -23 -195 -66 -274 -95 -80 -30 -146 -54 -147 -52 -4 4
257 242 358 326 46 39 120 95 163 125 44 30 76 55 72 55 -5 0 -66 -21 -136
-46 -122 -44 -134 -50 -242 -138 -62 -51 -185 -157 -273 -236 -183 -164 -354
-308 -470 -396 -394 -298 -876 -561 -1380 -754 -60 -23 -119 -46 -130 -51 -38
-17 -280 -100 -345 -119 -36 -10 -119 -35 -185 -55 -228 -67 -721 -183 -890
-208 -16 -3 -41 -8 -55 -11 -14 -3 -41 -8 -60 -11 -19 -3 -91 -14 -160 -25
-69 -10 -147 -21 -175 -25 -27 -3 -63 -7 -80 -10 -16 -2 -52 -7 -80 -10 -27
-3 -63 -8 -80 -10 -28 -4 -104 -11 -215 -20 -25 -3 -99 -9 -165 -14 -66 -6
-208 -13 -315 -16 -107 -3 -240 -7 -295 -10 -94 -5 -634 9 -755 20 -114 9
-217 17 -280 21 -36 2 -83 6 -105 9 -22 3 -65 7 -95 11 -30 3 -91 10 -135 15
-44 6 -98 12 -120 15 -36 4 -142 19 -205 30 -14 2 -45 7 -70 10 -46 6 -394 68
-440 78 -14 3 -81 17 -150 32 -124 26 -497 116 -555 134 -16 5 -88 26 -160 46
-111 31 -528 166 -690 224 -74 27 -187 69 -210 79 -11 5 -51 21 -90 36 -78 30
-350 143 -375 155 -8 5 -87 41 -175 81 -88 40 -270 127 -405 195 -231 116
-288 146 -485 253 -411 224 -1115 665 -1115 699 0 7 -20 21 -46 32 -50 22
-106 60 -329 225 -276 204 -300 221 -400 285 -120 76 -272 153 -414 210 -112
44 -161 50 -90 11 99 -55 281 -181 574 -401 l310 -231 -55 5 c-30 4 -64 8 -75
10 -11 2 -49 7 -85 10 -130 14 -308 38 -420 57 -63 11 -128 22 -145 25 -117
20 -433 86 -615 129 -58 14 -114 27 -125 29 -112 23 -199 42 -300 68 -66 16
-127 31 -135 33 -424 89 -1746 525 -2395 790 -77 31 -156 63 -176 70 -20 8
-61 25 -92 39 -31 14 -59 26 -62 26 -3 0 -113 48 -243 106 -2270 1020 -3539
2308 -3886 3944 -13 63 -27 138 -31 165 -3 28 -8 59 -11 70 -2 11 -6 38 -9 60
-3 22 -10 83 -17 135 -13 107 -17 616 -5 758 11 138 32 277 73 493 5 28 32
136 62 249 116 434 350 915 620 1273 177 234 279 338 497 507 262 203 519 347
780 436 94 32 175 63 180 69 9 11 44 24 135 53 95 30 331 86 430 102 36 6 88
15 115 20 184 36 563 61 937 64 159 1 238 4 238 12 0 5 -19 11 -42 13 -23 1
-44 4 -48 6 -7 4 -177 33 -245 42 -22 2 -125 8 -230 11 -262 10 -496 -7 -768
-54 l-38 -7 21 52 c36 91 50 208 50 419 0 108 -2 215 -4 237 -3 22 -10 96 -16
165 -6 69 -12 143 -14 165 -2 22 -13 101 -24 175 -10 74 -19 149 -19 165 1 17
-2 44 -6 60 -3 17 -14 62 -22 100 -9 39 -18 81 -20 95 -2 14 -8 45 -13 70 -6
25 -13 61 -16 80 -5 33 -83 427 -91 460 -2 8 -11 47 -19 85 -39 180 -201 803
-256 985 -10 36 -24 83 -29 105 -9 35 -21 79 -61 220 -5 17 -21 73 -35 125
-14 52 -32 115 -40 140 -8 25 -25 88 -39 140 -14 52 -36 137 -50 187 -14 51
-28 103 -30 115 -3 13 -12 47 -20 76 -8 28 -12 52 -10 52 3 0 0 8 -5 18 -5 9
-12 31 -15 47 -3 17 -16 75 -30 130 -56 228 -147 711 -181 958 -4 27 -8 59
-11 70 -2 12 -6 40 -9 62 -2 22 -11 92 -20 155 -8 63 -17 135 -20 160 -3 25
-8 63 -10 85 -3 22 -7 60 -9 85 -3 25 -11 113 -20 195 -17 169 -33 347 -41
480 -3 50 -8 119 -10 155 -17 230 -26 386 -47 820 -14 286 -17 1444 -5 1730 7
168 31 512 42 600 2 19 7 64 10 100 11 130 17 188 37 330 10 80 21 154 23 165
1 11 6 43 10 70 7 54 44 276 69 415 20 111 104 496 117 537 5 17 12 44 15 60
6 36 70 270 94 348 11 33 38 121 61 195 23 74 55 171 71 215 16 44 38 103 48
130 29 81 111 286 135 340 12 28 39 88 60 135 231 521 585 1067 1014 1565 120
140 504 523 635 635 620 526 1449 950 2376 1215 85 24 166 46 180 49 14 3 81
19 150 36 69 16 136 31 150 34 14 2 57 11 95 19 39 9 88 18 110 21 23 4 52 9
65 11 22 5 81 14 185 31 17 2 41 6 55 9 14 2 50 7 80 10 30 4 66 8 80 10 46 8
204 24 290 30 47 4 103 8 125 11 22 2 101 7 175 10 74 4 137 9 140 11 9 9 769
-6 885 -16z m27703 -2827 c34 -3 62 -10 62 -14 0 -5 -24 -16 -52 -26 -95 -31
-440 -183 -586 -259 -228 -118 -352 -195 -359 -223 -14 -57 34 -77 94 -39 111
70 362 172 468 190 17 3 53 10 80 16 281 59 674 51 1015 -19 186 -39 417 -117
554 -187 l39 -20 -49 -11 c-61 -14 -124 -21 -324 -37 -227 -18 -420 -81 -539
-175 -41 -33 -51 -46 -51 -71 0 -39 15 -44 97 -29 38 6 86 14 108 18 64 10
304 5 375 -7 36 -7 80 -14 99 -17 57 -8 291 -71 396 -107 903 -309 1960 -1090
2684 -1986 436 -539 837 -1220 1067 -1813 20 -51 40 -102 45 -113 59 -136 203
-574 274 -835 10 -36 26 -94 37 -130 10 -36 25 -94 32 -130 8 -36 28 -128 45
-205 56 -254 47 -207 91 -460 28 -164 65 -417 74 -520 41 -423 42 -442 56
-805 6 -146 8 -321 5 -390 -3 -69 -7 -193 -10 -276 -5 -146 -9 -218 -20 -334
-2 -30 -7 -91 -11 -135 -6 -79 -48 -417 -58 -465 -3 -13 -8 -42 -11 -65 -16
-106 -104 -523 -130 -610 -15 -53 -37 -137 -37 -145 0 -3 -5 -16 -10 -30 -5
-14 -12 -34 -14 -44 -4 -20 -74 -246 -101 -326 -64 -189 -94 -270 -133 -365
-4 -11 -31 -78 -60 -150 -29 -71 -62 -152 -75 -180 -13 -27 -40 -88 -60 -135
-115 -259 -378 -756 -553 -1045 -1109 -1824 -2457 -3040 -4084 -3684 -95 -37
-198 -76 -228 -85 -30 -10 -64 -21 -75 -26 -19 -8 -65 -24 -205 -68 -198 -64
-652 -176 -790 -195 -19 -3 -60 -10 -90 -15 -30 -6 -91 -16 -135 -22 -44 -7
-91 -14 -105 -16 -36 -5 -207 -24 -265 -28 -27 -3 -79 -8 -115 -11 l-65 -7 80
57 c85 61 151 115 228 187 54 51 62 88 24 113 -17 11 -31 12 -57 5 -115 -30
-618 -46 -850 -27 -177 14 -388 51 -550 97 -19 5 -39 10 -45 11 -17 3 -252 87
-287 103 -18 8 -64 29 -103 46 -38 18 -65 34 -60 36 6 2 69 15 140 29 225 45
518 144 625 210 33 21 39 21 110 9 121 -21 148 -24 547 -60 87 -7 603 -7 698
1 138 11 346 35 445 51 136 21 146 23 240 44 47 10 97 21 112 24 15 2 31 7 35
9 5 3 24 8 45 11 20 3 56 12 80 20 23 7 97 30 163 50 66 20 131 42 145 48 14
5 66 25 115 43 407 149 899 417 1296 705 825 600 1527 1410 2097 2422 166 295
389 767 504 1068 65 170 206 592 210 627 0 5 5 19 10 33 5 14 11 32 13 40 2 8
31 124 64 258 33 133 62 259 66 280 11 72 67 348 81 402 8 30 17 71 20 90 3
19 9 51 14 70 51 203 117 745 138 1130 15 290 7 1113 -12 1171 -2 8 -7 45 -10
82 -8 83 -10 97 -46 319 -105 632 -309 1255 -604 1846 -264 528 -587 965 -980
1320 -613 557 -1287 859 -2086 937 -59 6 -468 6 -510 1 -14 -2 -56 -6 -95 -10
-128 -13 -158 -17 -315 -48 -127 -24 -113 -21 -230 -53 -52 -15 -102 -28 -110
-30 -44 -10 -243 -84 -370 -138 -260 -109 -503 -242 -755 -410 -916 -613
-1631 -1484 -1952 -2377 -39 -111 -114 -361 -129 -429 -20 -101 -55 -318 -60
-376 -3 -38 -8 -77 -11 -85 -9 -28 -12 -453 -3 -560 9 -111 52 -401 75 -510 3
-14 7 -34 10 -45 11 -54 68 -316 114 -520 17 -79 49 -248 66 -355 8 -51 33
-262 34 -285 12 -331 -19 -515 -120 -718 -92 -184 -185 -301 -493 -622 -491
-513 -771 -862 -1006 -1255 -96 -162 -248 -464 -270 -540 -4 -14 -21 -61 -38
-105 -27 -68 -96 -314 -108 -379 -28 -159 -35 -219 -44 -349 -10 -156 -7 -283
11 -421 6 -43 9 -80 6 -82 -6 -7 -106 298 -141 436 -42 162 -86 400 -101 550
-2 14 -9 75 -16 135 -21 179 -17 975 6 1140 2 17 9 85 15 153 6 67 13 130 14
140 2 9 7 44 10 77 20 188 65 502 76 540 5 17 12 50 15 75 4 25 11 68 17 95 5
28 11 64 14 80 2 17 9 59 15 95 6 36 13 81 15 100 17 148 29 240 55 405 16
105 32 197 34 205 2 8 7 38 10 65 4 28 13 95 21 150 9 55 17 113 19 128 9 60
15 105 26 187 6 47 13 99 15 115 2 17 6 50 9 75 2 25 13 126 24 225 20 180 22
207 41 430 31 361 34 1179 6 1355 -18 112 -37 419 -46 750 -6 217 -15 476 -20
575 -5 99 -12 232 -15 295 -3 63 -8 142 -10 175 -3 33 -7 94 -10 135 -3 41 -7
102 -10 135 -3 33 -7 94 -10 135 -3 41 -7 98 -10 125 -37 368 -56 556 -60 585
-3 19 -9 67 -14 105 -6 39 -13 102 -16 140 l-7 70 105 210 c385 774 864 1387
1489 1907 454 379 994 703 1503 903 66 26 134 53 150 60 42 18 439 150 485
161 8 1 60 16 115 32 108 32 385 97 450 107 39 5 55 8 115 20 14 2 44 7 67 10
23 3 57 8 75 10 53 8 389 44 433 47 98 7 235 8 293 2z m-41300 -139 c163 -24
500 -100 657 -146 404 -120 619 -205 1045 -411 498 -242 953 -554 1383 -949
l59 -54 -16 -90 c-9 -49 -18 -101 -21 -115 -3 -14 -8 -43 -11 -65 -3 -22 -15
-96 -26 -165 -21 -137 -20 -131 -44 -310 -9 -69 -18 -138 -20 -155 -4 -34 -8
-67 -28 -295 -25 -283 -26 -300 -34 -622 -8 -355 -7 -519 3 -739 10 -232 13
-273 24 -409 6 -69 13 -161 16 -206 3 -44 7 -89 9 -100 2 -10 7 -55 10 -99 4
-44 9 -91 11 -105 2 -14 11 -92 20 -175 9 -82 18 -163 20 -180 10 -75 36 -285
40 -333 2 -18 6 -45 9 -60 3 -15 8 -54 12 -87 8 -70 7 -66 28 -215 16 -112 23
-160 30 -217 2 -15 9 -55 15 -88 5 -33 12 -78 15 -100 3 -22 14 -94 25 -160
11 -66 22 -133 24 -150 15 -94 28 -172 32 -190 25 -124 46 -236 49 -260 4 -27
84 -404 135 -630 11 -49 31 -132 45 -182 13 -51 22 -93 20 -93 -3 0 0 -8 5
-17 5 -10 11 -31 15 -48 3 -16 14 -64 25 -105 40 -154 82 -307 101 -375 11
-39 22 -82 25 -95 3 -14 9 -36 15 -50 5 -14 16 -50 24 -80 61 -226 103 -360
276 -900 74 -231 110 -347 127 -405 1 -5 18 -62 38 -125 77 -250 192 -703 219
-865 2 -16 11 -68 20 -115 12 -69 50 -356 55 -420 1 -8 4 -115 7 -236 7 -240
-5 -441 -37 -614 -6 -30 -13 -68 -15 -85 -22 -130 -98 -395 -154 -530 -4 -11
-14 -36 -21 -55 -26 -73 -150 -321 -212 -426 -83 -139 -194 -298 -304 -433
-86 -107 -455 -481 -473 -481 -6 0 1 22 14 49 54 105 147 354 162 431 3 14 11
50 19 80 15 61 41 218 49 295 9 89 7 397 -3 495 -33 308 -115 613 -252 938
-188 445 -444 863 -879 1437 -262 347 -355 497 -420 679 -49 135 -62 211 -67
368 -3 137 2 197 33 378 25 149 114 437 304 995 201 586 250 851 249 1327 0
261 -1 275 -25 458 -13 103 -72 392 -98 485 -125 443 -338 898 -617 1318 -353
531 -871 1063 -1384 1422 -215 150 -523 322 -735 409 -81 33 -338 124 -370
131 -8 1 -35 8 -60 15 -25 7 -46 12 -47 12 -2 -1 -17 4 -35 9 -75 22 -287 60
-408 73 -25 3 -72 8 -105 12 -161 19 -540 8 -735 -21 -88 -13 -212 -35 -247
-44 -21 -5 -49 -12 -63 -14 -64 -12 -299 -84 -426 -132 -425 -161 -818 -401
-1188 -725 -401 -352 -705 -741 -1055 -1348 -56 -97 -206 -399 -269 -543 -99
-223 -237 -597 -290 -784 -42 -145 -72 -260 -87 -325 -9 -41 -23 -100 -30
-130 -23 -95 -76 -426 -91 -560 -10 -97 -16 -157 -30 -295 -21 -213 -29 -457
-29 -865 0 -401 6 -545 30 -685 2 -16 14 -149 25 -295 26 -336 40 -454 84
-735 175 -1098 641 -2278 1270 -3215 281 -418 549 -743 897 -1085 382 -375
736 -647 1159 -890 120 -69 381 -205 393 -205 3 0 38 -15 79 -34 129 -60 451
-179 543 -202 6 -1 71 -19 145 -39 153 -41 142 -38 269 -64 163 -33 223 -44
326 -55 90 -11 96 -14 153 -77 60 -66 178 -166 267 -226 304 -205 664 -322
1155 -374 121 -13 513 -16 639 -6 41 4 70 3 65 -2 -5 -4 -47 -35 -94 -67 -83
-58 -143 -81 -260 -100 -19 -3 -53 -9 -75 -14 -76 -17 -246 -40 -383 -51 -241
-20 -882 3 -992 36 -8 2 -40 7 -70 10 -30 4 -57 8 -60 10 -3 2 -30 6 -60 10
-53 6 -80 11 -292 54 -124 25 -479 117 -524 136 -19 8 -34 12 -34 10 0 -7
-356 117 -515 180 -442 174 -854 388 -1280 663 -609 394 -1219 948 -1720 1562
-301 369 -651 883 -867 1270 -14 25 -58 103 -97 173 -81 143 -272 519 -343
672 -96 208 -112 242 -145 320 -251 580 -492 1328 -578 1795 -3 14 -7 36 -11
50 -10 46 -62 335 -67 375 -3 22 -12 90 -21 150 -47 330 -71 756 -62 1100 4
138 8 273 10 300 2 28 7 109 11 180 4 72 8 132 10 135 2 3 6 41 9 85 7 78 14
144 21 195 2 14 7 52 11 85 3 33 8 69 10 80 2 11 6 43 10 70 4 41 24 167 50
320 5 28 30 153 40 200 2 11 7 36 10 55 3 19 7 43 10 52 3 10 7 30 10 45 6 34
41 185 54 233 5 19 14 55 20 80 25 106 68 265 95 355 13 44 25 83 25 87 4 19
164 485 199 578 41 109 121 309 145 364 8 17 40 90 71 161 67 152 260 541 298
602 15 24 27 45 27 48 0 13 216 365 309 504 577 862 1326 1574 2221 2113 184
111 272 158 505 272 466 229 923 382 1320 441 171 26 435 33 540 15 33 -6 75
-13 92 -16 18 -3 63 -14 100 -25 99 -30 121 -33 138 -19 29 24 16 54 -49 115
-117 110 -255 168 -549 231 -182 38 -297 71 -297 83 0 7 138 54 198 66 40 9
56 13 97 23 140 36 263 47 550 47 318 0 395 -8 635 -67 246 -59 448 -155 668
-318 35 -26 69 -20 78 15 9 37 -8 56 -128 147 -210 158 -448 308 -716 450 -42
22 -81 44 -86 49 -16 14 114 11 222 -6z m-1303 -2940 c396 -47 687 -131 1048
-303 665 -317 1365 -940 1849 -1647 324 -474 590 -1075 677 -1535 6 -30 13
-68 16 -85 21 -105 44 -288 50 -395 3 -69 8 -147 9 -175 4 -56 -10 -318 -19
-380 -50 -344 -85 -487 -211 -867 -47 -142 -86 -258 -87 -258 -2 0 -1 60 1
134 5 179 -21 388 -77 606 -40 157 -144 420 -222 561 -21 39 -39 74 -39 76 0
11 -193 296 -255 378 -271 356 -636 686 -1019 920 -99 61 -363 196 -491 252
-167 73 -457 169 -655 217 -84 21 -278 58 -370 71 -63 9 -125 18 -138 20 -13
2 -103 9 -201 15 -206 13 -429 3 -631 -30 -158 -26 -148 -24 -260 -54 -499
-132 -939 -387 -1320 -766 -177 -176 -240 -253 -353 -434 -84 -133 -99 -166
-77 -166 6 0 10 4 10 9 0 13 335 360 454 471 298 276 652 506 992 643 195 79
390 131 629 169 185 29 591 32 785 5 364 -50 798 -164 1033 -271 17 -8 61 -27
97 -42 162 -66 389 -192 570 -315 170 -115 311 -231 471 -386 381 -371 659
-798 801 -1230 19 -57 19 -63 5 -78 -9 -9 -21 -33 -27 -55 -15 -57 -96 -140
-177 -182 -59 -31 -198 -78 -273 -92 -14 -3 -59 -12 -100 -20 -41 -8 -100 -17
-130 -21 -285 -33 -398 -33 -685 1 -130 15 -324 64 -515 132 -152 54 -498 220
-715 345 -415 237 -484 274 -496 266 -20 -12 -12 -18 226 -171 654 -420 943
-563 1325 -657 131 -32 149 -35 245 -47 33 -3 69 -8 80 -10 27 -6 452 -5 479
1 11 2 54 6 95 9 40 4 101 10 135 15 33 6 80 13 104 16 181 26 428 134 478
209 9 14 20 26 24 26 8 0 36 -147 56 -289 3 -25 8 -57 10 -71 2 -14 9 -63 15
-110 13 -100 21 -118 54 -126 14 -3 25 -9 25 -13 0 -3 -23 -73 -51 -156 -58
-171 -107 -334 -134 -449 -15 -64 -45 -218 -50 -261 -4 -27 -8 -61 -11 -75
-11 -62 -4 -330 11 -410 36 -194 116 -386 244 -583 61 -94 90 -174 115 -312
37 -210 44 -274 52 -450 6 -134 -7 -385 -26 -484 -4 -26 -11 -69 -15 -98 -3
-28 -17 -105 -31 -170 -14 -65 -27 -129 -30 -143 -2 -14 -8 -36 -13 -50 -5
-14 -14 -45 -21 -70 -28 -106 -95 -284 -150 -395 -226 -466 -686 -897 -1184
-1109 -82 -36 -211 -80 -260 -91 -12 -2 -32 -7 -46 -10 -36 -10 -117 -24 -180
-33 -86 -11 -328 -5 -406 10 -39 8 -76 12 -82 10 -18 -6 -14 -47 6 -64 24 -21
123 -44 267 -63 111 -15 324 -1 479 30 320 65 710 267 1003 519 426 367 675
845 784 1506 44 267 50 622 14 850 -15 94 -68 310 -81 332 -3 4 -3 8 -1 8 8 0
275 -363 378 -512 97 -140 204 -306 251 -387 135 -235 228 -418 298 -586 18
-44 39 -93 46 -110 31 -75 118 -353 134 -430 60 -293 80 -526 62 -737 -6 -78
-14 -159 -17 -178 -3 -19 -8 -53 -10 -75 -19 -136 -95 -389 -167 -548 -69
-156 -200 -372 -279 -461 -32 -37 -208 -151 -399 -259 -108 -61 -461 -237
-475 -237 -3 0 -25 -9 -48 -19 -298 -134 -774 -286 -1138 -362 -52 -10 -106
-22 -120 -25 -48 -10 -128 -25 -156 -29 -15 -2 -55 -9 -88 -14 -33 -6 -80 -13
-105 -16 -25 -3 -79 -10 -120 -15 -41 -5 -100 -12 -130 -15 -30 -2 -107 -9
-170 -15 -63 -5 -215 -10 -338 -10 -203 0 -226 -2 -262 -20 -21 -11 -43 -27
-47 -35 -7 -12 -18 -13 -68 -4 -33 5 -89 14 -124 20 -379 57 -827 201 -1226
393 -938 453 -1777 1236 -2427 2266 -246 390 -478 849 -648 1280 -40 102 -78
199 -86 215 -30 72 -157 467 -207 645 -50 179 -109 420 -120 495 -3 17 -10 50
-15 75 -6 25 -13 63 -16 84 -4 21 -9 48 -11 60 -3 12 -7 37 -10 56 -2 19 -11
78 -19 130 -8 52 -17 120 -21 150 -3 30 -8 66 -10 80 -13 83 -42 375 -51 505
-3 50 -7 108 -9 130 -5 58 -15 215 -20 330 -8 176 -16 327 -24 450 -12 190
-12 399 0 540 6 72 11 137 11 145 0 8 4 51 9 95 9 75 12 102 24 215 11 97 61
413 76 480 6 25 13 59 16 75 4 28 37 175 49 220 3 11 7 31 10 45 2 14 7 32 10
40 3 8 8 26 10 40 3 14 21 79 40 145 58 202 62 217 89 320 30 116 52 188 70
230 7 17 25 62 40 100 15 39 38 93 50 120 12 28 41 92 64 144 114 254 306 603
469 851 209 317 379 528 621 771 243 243 439 399 721 575 120 74 386 212 490
255 142 57 325 122 390 138 19 5 89 23 155 40 132 34 313 66 445 80 141 14
513 12 645 -4z m43625 -1 c86 -8 246 -30 290 -40 14 -3 39 -8 55 -11 226 -34
630 -180 904 -324 863 -457 1508 -1226 1944 -2319 70 -177 97 -248 97 -257 0
-5 11 -37 25 -70 13 -34 33 -92 44 -130 11 -37 29 -99 41 -138 32 -103 79
-283 84 -319 3 -17 7 -44 10 -61 7 -37 43 -274 51 -335 3 -25 8 -52 10 -60 2
-8 7 -40 11 -70 3 -30 8 -64 9 -75 18 -122 26 -190 39 -310 3 -27 8 -93 11
-145 3 -52 8 -124 12 -160 9 -112 6 -687 -6 -859 -13 -184 -13 -184 -48 -376
-14 -77 -27 -153 -29 -170 -3 -16 -9 -52 -15 -80 -5 -27 -12 -66 -15 -85 -3
-19 -9 -60 -15 -90 -5 -30 -12 -73 -15 -95 -3 -22 -15 -87 -25 -145 -11 -58
-22 -120 -25 -139 -2 -19 -6 -37 -8 -40 -3 -4 -7 -26 -11 -51 -4 -25 -8 -47
-10 -50 -2 -3 -6 -26 -10 -50 -18 -122 -139 -631 -198 -830 -79 -265 -89 -298
-112 -355 -13 -33 -37 -99 -54 -147 -30 -87 -134 -345 -151 -376 -5 -9 -23
-51 -41 -92 -98 -233 -367 -741 -529 -1000 -715 -1142 -1643 -2017 -2665
-2514 -309 -150 -524 -232 -895 -340 -55 -16 -249 -60 -305 -70 -16 -2 -55 -9
-85 -15 -30 -5 -75 -13 -100 -16 -137 -18 -257 -33 -270 -33 -8 0 -76 -4 -150
-9 -166 -10 -390 -10 -570 -1 -232 13 -560 51 -560 66 0 3 25 31 55 63 82 86
126 185 133 298 6 113 -2 131 -60 125 -24 -3 -56 -9 -73 -14 -44 -14 -258 -48
-355 -57 -107 -10 -451 -10 -549 -1 -290 30 -550 102 -800 224 -388 189 -671
438 -881 774 -59 95 -180 336 -180 361 0 8 -4 19 -9 25 -25 26 -110 352 -126
484 -22 176 -26 423 -11 542 3 18 8 55 11 81 4 27 8 58 11 70 2 12 6 39 10 62
5 33 18 93 48 216 13 51 51 170 66 209 10 25 31 77 45 115 36 94 148 317 220
440 150 257 396 589 637 863 111 125 417 452 423 452 3 0 -5 -24 -16 -52 -67
-167 -123 -352 -143 -478 -3 -19 -8 -53 -12 -75 -3 -22 -8 -51 -11 -65 -2 -14
-6 -158 -8 -320 -4 -309 4 -408 46 -635 44 -238 104 -425 198 -615 262 -529
782 -986 1313 -1155 45 -15 92 -28 103 -31 11 -2 40 -8 65 -14 25 -5 59 -12
75 -16 58 -12 369 -14 420 -3 62 14 77 25 73 57 l-3 24 -170 2 c-131 2 -194 8
-272 24 -572 123 -1157 605 -1457 1201 -87 174 -161 391 -190 561 -2 14 -9 52
-15 85 -5 33 -13 83 -16 110 -3 28 -10 89 -15 137 -24 211 -20 545 10 738 20
129 47 258 75 360 54 197 103 319 152 377 298 355 396 601 397 998 1 166 -7
349 -18 402 -3 11 -8 43 -12 70 -5 26 -9 50 -9 53 -1 3 -5 28 -10 55 -10 63
-8 52 -44 230 -17 83 -31 153 -31 156 0 4 14 9 30 13 36 7 38 10 85 191 20 77
52 194 72 261 l35 121 76 -77 c106 -105 234 -169 467 -234 91 -25 347 -80 420
-90 22 -3 63 -9 90 -13 82 -13 492 -9 580 5 44 7 94 14 112 16 18 3 40 7 50
10 10 3 32 8 48 10 47 8 332 92 405 119 64 24 226 89 265 107 132 59 465 219
654 313 81 40 112 67 77 67 -9 0 -103 -36 -209 -80 -219 -92 -216 -91 -280
-119 -26 -12 -67 -29 -90 -37 -23 -9 -55 -22 -72 -29 -16 -8 -84 -34 -150 -58
-246 -91 -477 -155 -695 -193 -107 -18 -465 -27 -570 -14 -36 4 -92 11 -125
15 -33 3 -80 11 -105 17 -25 5 -56 12 -70 14 -14 3 -43 10 -65 15 -22 5 -49
12 -60 14 -41 9 -182 54 -263 84 -115 42 -197 87 -259 145 -57 52 -83 93 -104
166 -7 25 -17 51 -22 58 -22 28 165 361 306 547 154 203 380 436 584 600 271
219 685 453 980 556 216 75 509 156 623 173 19 3 76 12 125 20 50 8 115 17
145 20 30 4 71 8 90 11 96 12 383 24 487 19 327 -14 597 -64 867 -158 159 -56
163 -58 307 -128 353 -171 713 -456 1000 -793 120 -140 329 -412 374 -484 37
-60 55 -75 55 -46 0 22 -134 298 -181 374 -298 475 -774 894 -1274 1118 -212
95 -500 183 -683 208 -20 3 -46 8 -58 10 -11 2 -45 7 -75 11 -30 3 -81 9 -114
14 -33 4 -179 6 -325 5 -260 -3 -436 -17 -640 -51 -52 -8 -104 -17 -115 -19
-45 -7 -304 -68 -350 -82 -459 -138 -794 -297 -1140 -538 -398 -277 -772 -670
-988 -1035 -117 -196 -229 -466 -287 -690 -23 -86 -49 -261 -51 -343 -3 -76
-12 -58 -39 78 -12 61 -32 160 -45 220 -28 130 -32 154 -40 220 -4 28 -8 59
-10 70 -29 174 -41 596 -22 770 20 194 39 300 78 459 233 936 876 1841 1789
2518 377 280 787 501 1175 634 132 46 358 108 429 119 21 3 41 7 45 9 3 2 31
7 61 11 30 4 64 8 75 10 35 6 208 25 260 29 58 5 365 -2 445 -10z"/>
<path d="M20499 28235 c-2 -2 -17 -5 -34 -8 -84 -13 -193 -50 -247 -84 -29
-18 -38 -30 -38 -51 0 -39 18 -53 223 -177 97 -58 177 -109 177 -111 0 -3 -9
-3 -19 1 -26 8 -52 13 -136 26 -116 19 -256 -5 -271 -46 -16 -39 5 -63 100
-115 92 -49 162 -98 123 -86 -32 10 -310 8 -382 -4 -453 -69 -970 -259 -1376
-505 -499 -303 -887 -655 -1081 -980 -118 -198 -242 -508 -283 -705 -4 -19
-22 -87 -40 -150 -37 -133 -73 -279 -80 -330 -23 -166 -13 -362 23 -453 18
-46 55 -77 92 -77 25 0 42 18 131 138 130 173 429 476 607 612 359 276 751
498 1162 657 149 58 381 138 479 164 123 34 263 69 306 78 22 5 85 18 140 29
55 12 114 23 130 26 17 2 73 11 125 20 313 51 844 70 1135 41 304 -30 581 -89
840 -177 199 -68 316 -116 505 -205 225 -107 488 -271 670 -418 168 -135 300
-278 529 -568 51 -64 101 -122 111 -127 10 -6 35 -10 55 -10 43 0 48 10 72
149 12 67 16 153 16 286 0 177 -8 259 -49 535 -3 19 -12 45 -19 56 -8 12 -26
75 -40 140 -131 582 -428 1145 -830 1572 -155 164 -356 327 -619 502 -281 186
-443 255 -614 259 -119 3 -127 -18 -49 -134 22 -33 65 -91 95 -129 30 -38 51
-67 46 -65 -5 3 -65 32 -134 66 -69 33 -174 79 -235 101 -101 37 -319 109
-355 118 -8 1 -104 26 -213 53 -259 66 -377 84 -578 87 -92 2 -168 1 -170 -1z"/>
<path d="M34701 28217 c-131 -11 -317 -75 -556 -192 -358 -175 -569 -315 -817
-542 -376 -343 -705 -839 -883 -1329 -13 -37 -31 -74 -39 -83 -20 -22 -102
-300 -131 -446 -36 -180 -36 -179 -42 -337 -7 -176 0 -234 29 -249 43 -23 86
4 253 162 294 277 451 396 695 522 245 128 627 271 840 316 25 5 95 21 156 35
134 29 281 53 384 61 41 4 82 9 90 11 8 3 116 7 240 10 309 6 519 -13 885 -82
358 -67 807 -209 1162 -368 196 -87 469 -232 608 -321 28 -18 82 -53 122 -78
313 -200 710 -544 934 -812 159 -190 306 -407 415 -615 24 -46 34 -55 60 -58
58 -6 112 64 147 188 14 52 19 82 32 204 8 74 -14 384 -34 486 -5 25 -9 52 -8
60 1 64 -47 356 -79 479 -56 215 -165 460 -284 641 -261 394 -769 859 -1240
1132 -404 234 -791 382 -1070 407 -68 6 -126 14 -128 16 -6 5 56 32 148 65 85
31 107 46 113 76 6 31 -24 56 -96 81 -40 14 -83 18 -189 18 -75 0 -134 3 -131
8 2 4 8 7 13 7 21 0 397 172 408 187 31 43 0 81 -118 143 -151 78 -338 112
-599 110 -187 -2 -194 -3 -491 -41 -172 -22 -161 -21 -280 -43 -47 -8 -96 -17
-110 -20 -62 -10 -274 -69 -344 -96 l-77 -28 110 113 c111 115 136 155 110
180 -23 22 -107 31 -208 22z"/>
<path d="M34580 24087 c-3 -2 -50 -7 -105 -10 -358 -22 -757 -115 -1111 -260
-748 -307 -1347 -840 -1833 -1634 -234 -382 -366 -667 -436 -937 -34 -135 -38
-153 -50 -284 -7 -68 -6 -74 11 -70 14 2 21 20 31 83 47 279 169 574 393 953
133 224 169 280 282 442 230 330 496 617 787 848 210 167 537 367 752 458 46
19 98 42 114 49 199 89 614 195 860 220 16 2 75 9 130 15 217 27 710 16 950
-21 39 -6 84 -12 100 -15 17 -2 66 -10 110 -18 68 -13 114 -22 239 -51 93 -21
207 -55 343 -100 587 -195 1129 -523 1633 -987 532 -490 927 -1103 1158 -1794
33 -98 63 -194 67 -212 6 -29 10 -33 33 -30 25 3 27 6 24 48 -6 94 -113 481
-167 605 -7 17 -29 70 -49 118 -364 886 -1172 1711 -2116 2160 -181 86 -529
222 -620 242 -8 2 -94 24 -190 48 -190 49 -433 94 -605 112 -33 4 -71 9 -85
11 -34 7 -644 18 -650 11z"/>
<path d="M20607 23744 c-1 -1 -54 -5 -117 -8 -97 -6 -339 -35 -430 -52 -14 -2
-41 -7 -60 -10 -19 -3 -43 -7 -52 -10 -10 -3 -30 -7 -45 -10 -16 -3 -93 -23
-173 -46 -675 -188 -1273 -565 -1737 -1093 -399 -452 -780 -1097 -916 -1545
-27 -89 -61 -264 -71 -362 -6 -53 -4 -58 13 -58 16 0 20 10 26 53 8 59 31 165
47 217 22 72 27 87 59 175 103 290 428 849 691 1190 302 390 650 707 1033 940
114 69 339 186 435 225 30 12 73 30 95 40 83 37 366 123 475 145 8 2 34 8 56
14 48 13 183 35 364 58 157 21 714 24 860 5 52 -7 113 -14 135 -17 931 -113
1806 -547 2529 -1255 320 -313 562 -629 768 -1002 77 -140 190 -381 233 -498
75 -203 89 -243 120 -345 33 -111 48 -131 79 -106 14 12 15 9 -19 157 -8 39
-18 80 -20 92 -40 182 -158 498 -271 725 -367 737 -1008 1397 -1769 1822 -121
68 -209 112 -390 195 -202 92 -667 241 -860 274 -17 3 -70 12 -120 21 -49 9
-106 19 -125 21 -19 3 -46 7 -60 9 -14 2 -52 7 -85 10 -33 3 -73 8 -90 11 -26
4 -604 21 -608 18z"/>
<path d="M35215 22843 c-130 -8 -358 -25 -377 -28 -13 -2 -54 -9 -93 -15 -224
-34 -554 -117 -662 -166 -17 -8 -35 -14 -40 -14 -18 0 -298 -121 -405 -175
-256 -130 -505 -289 -718 -460 -770 -618 -1280 -1428 -1640 -2605 -18 -58 -32
-107 -32 -110 0 -3 -5 -16 -10 -30 -5 -14 -11 -32 -13 -40 -2 -8 -21 -82 -43
-165 -76 -287 -162 -690 -188 -880 -3 -16 -7 -46 -10 -65 -3 -19 -8 -51 -10
-70 -3 -19 -11 -87 -19 -150 -16 -126 -41 -413 -50 -555 -6 -113 -7 -607 -1
-626 2 -8 7 -75 10 -149 4 -74 8 -146 10 -160 3 -14 8 -56 11 -95 10 -102 12
-111 29 -215 8 -52 17 -108 20 -125 11 -70 49 -240 82 -365 19 -74 37 -139 38
-145 32 -129 142 -408 236 -600 163 -332 329 -571 570 -819 150 -155 253 -242
470 -399 56 -40 -192 91 -360 191 -259 154 -508 367 -618 529 -48 70 -60 81
-68 59 -7 -17 53 -132 124 -240 67 -103 266 -296 397 -387 343 -239 830 -482
1265 -631 122 -42 368 -116 410 -124 14 -3 39 -9 57 -15 17 -5 44 -12 60 -15
15 -3 57 -12 93 -20 99 -23 144 -31 340 -64 137 -23 135 -23 331 -45 218 -24
359 -30 759 -30 319 0 543 7 675 20 17 1 64 6 105 9 41 4 86 9 100 11 14 2 54
7 90 11 36 3 72 7 80 9 20 4 156 24 200 29 49 6 192 32 340 61 69 13 139 26
155 29 17 3 102 24 190 47 88 23 176 45 195 50 69 17 370 125 458 165 29 13
55 24 59 24 12 0 279 138 343 177 65 40 89 76 57 89 -8 3 -69 -22 -136 -55
-185 -93 -359 -162 -593 -236 -144 -46 -472 -128 -593 -149 -16 -2 -64 -11
-105 -20 -134 -26 -528 -86 -568 -86 -36 0 -24 7 23 13 22 3 47 8 55 11 8 3
26 7 40 10 95 17 548 146 615 176 11 5 85 34 165 65 836 328 1531 898 1949
1600 49 83 201 376 201 388 0 3 16 40 35 81 19 42 35 79 35 83 0 4 17 55 39
113 70 192 147 485 185 708 3 17 8 45 11 60 14 86 37 304 51 507 9 126 9 618
0 790 -7 138 -10 169 -26 365 -5 69 -12 152 -15 185 -5 67 -11 124 -25 235 -5
41 -12 95 -14 120 -3 25 -12 92 -21 150 -93 638 -209 1001 -516 1625 -313 637
-595 1043 -1013 1460 -433 431 -875 717 -1381 892 -89 31 -349 105 -415 119
-13 3 -53 11 -90 19 -115 24 -260 38 -274 26 -7 -6 -21 -9 -32 -7 -92 18 -495
44 -589 39z m380 -146 c22 -3 65 -9 95 -12 76 -8 268 -42 343 -61 34 -8 73
-17 87 -20 84 -16 337 -100 485 -159 727 -292 1330 -801 1799 -1517 349 -535
614 -1169 776 -1863 17 -71 35 -148 41 -170 9 -38 42 -214 53 -280 2 -16 7
-43 10 -60 14 -74 66 -463 64 -473 -1 -4 1 -29 5 -57 34 -257 49 -1008 26
-1280 -6 -71 -11 -137 -11 -145 0 -8 -4 -49 -9 -90 -5 -41 -11 -97 -14 -125
-7 -77 -17 -168 -20 -187 -2 -9 -6 -48 -10 -85 -3 -37 -8 -77 -10 -88 -2 -11
-7 -42 -10 -70 -3 -27 -22 -138 -42 -245 -42 -226 -76 -321 -207 -575 -103
-201 -185 -332 -308 -496 -296 -395 -671 -732 -1088 -976 -150 -88 -401 -209
-570 -276 -147 -58 -217 -81 -435 -147 -73 -23 -289 -77 -330 -83 -16 -3 -50
-10 -75 -15 -156 -36 -515 -84 -743 -99 -256 -18 -826 -8 -1027 18 -41 5 -95
12 -120 15 -109 13 -316 48 -445 75 -374 79 -674 181 -1000 339 -302 148 -556
324 -784 545 -266 258 -459 521 -625 852 -139 278 -267 646 -326 938 -7 33
-18 87 -25 120 -20 88 -48 282 -60 410 -3 33 -8 76 -11 95 -13 103 -19 279
-19 570 0 342 8 520 35 745 5 44 12 105 15 135 5 48 20 152 40 285 3 22 13 76
21 120 9 44 18 94 21 110 2 17 14 73 25 125 11 52 22 108 25 124 6 38 111 462
123 501 16 49 53 179 56 193 1 7 9 34 18 60 8 26 32 99 52 162 20 63 44 135
54 160 10 25 37 97 60 160 23 63 46 119 51 124 5 6 9 16 9 23 0 7 11 36 24 65
13 29 45 100 71 158 159 356 394 729 663 1053 105 126 344 370 477 485 317
275 688 505 1055 655 123 50 327 120 382 131 13 3 48 12 80 20 109 29 348 72
480 85 96 9 632 8 703 -2z"/>
<path d="M35059 20426 c-2 -2 -51 -6 -109 -10 -113 -7 -116 -7 -265 -37 -227
-45 -421 -112 -640 -219 -578 -282 -1027 -766 -1266 -1361 -41 -102 -63 -165
-79 -224 -4 -16 -17 -64 -28 -105 -54 -200 -80 -430 -75 -670 3 -214 5 -240
28 -385 56 -357 196 -714 405 -1027 386 -581 973 -972 1675 -1114 50 -10 130
-21 255 -34 91 -10 429 -9 485 1 22 4 65 9 95 13 30 3 89 12 130 20 41 8 86
17 100 19 14 3 32 8 40 11 8 3 26 7 40 10 42 8 180 52 270 86 233 89 517 253
720 417 172 139 392 379 503 550 95 148 116 182 173 298 179 358 274 764 275
1173 0 82 -2 155 -5 163 -3 8 -7 55 -10 105 -3 51 -8 98 -10 105 -3 8 -8 31
-11 53 -3 21 -17 88 -30 149 -225 994 -1029 1773 -2031 1967 -118 23 -133 25
-299 40 -106 10 -327 14 -336 6z m-664 -1051 c283 -74 426 -384 299 -651 -85
-180 -306 -293 -496 -254 -204 42 -349 189 -378 386 -50 328 254 602 575 519z
m-469 -1164 c130 -59 194 -204 152 -343 -15 -50 -87 -132 -142 -161 -59 -31
-184 -31 -242 0 -203 108 -204 396 -2 497 65 33 170 36 234 7z m3142 -358 c28
-24 42 -130 42 -308 0 -397 -121 -793 -326 -1065 -89 -118 -249 -273 -374
-363 -186 -132 -499 -270 -740 -326 -188 -43 -298 -55 -515 -55 -231 -1 -334
10 -518 55 -509 124 -920 437 -1123 854 -64 133 -86 214 -86 319 0 68 4 86 34
145 38 75 84 114 132 109 27 -3 36 -14 84 -98 214 -380 579 -654 1017 -763
326 -82 608 -69 939 42 349 118 576 277 759 532 77 107 198 347 251 494 37
105 106 337 106 359 0 42 111 85 221 86 59 0 82 -4 97 -17z"/>
<path d="M20900 22480 c-19 -4 -64 -11 -100 -14 -36 -3 -74 -8 -85 -10 -11 -2
-72 -13 -135 -25 -1076 -202 -2055 -900 -2693 -1919 -42 -67 -77 -124 -77
-127 0 -2 -14 -28 -32 -57 -54 -91 -192 -376 -262 -541 -149 -347 -279 -738
-391 -1172 -30 -118 -101 -423 -111 -485 -3 -14 -13 -70 -24 -125 -18 -96 -63
-397 -75 -500 -3 -27 -8 -59 -10 -70 -2 -12 -7 -59 -10 -105 -4 -47 -12 -161
-19 -255 -23 -310 -16 -721 18 -1106 9 -96 51 -364 81 -509 110 -537 303
-1005 583 -1410 194 -281 465 -557 730 -740 34 -23 62 -45 62 -47 0 -2 -57 26
-127 63 -418 219 -721 456 -870 680 -20 30 -39 54 -44 54 -23 0 -15 -30 31
-118 138 -259 330 -441 696 -662 341 -206 793 -410 1174 -532 110 -35 152 -47
210 -62 8 -3 59 -16 114 -30 115 -30 98 -27 300 -66 205 -39 304 -55 396 -65
141 -15 249 -27 275 -31 17 -2 86 -6 155 -10 69 -3 139 -7 155 -9 39 -6 546
-5 650 0 170 9 413 28 525 40 75 8 208 26 270 35 36 5 83 12 105 15 22 3 78
12 125 20 47 7 101 16 121 19 20 3 42 8 50 10 8 3 30 7 49 10 79 12 408 90
545 129 291 84 572 200 811 334 119 67 140 84 130 108 -9 24 -30 18 -154 -44
-204 -102 -476 -203 -767 -284 -106 -30 -333 -83 -390 -92 -22 -3 -56 -10 -75
-15 -19 -5 -51 -11 -70 -14 -19 -3 -75 -12 -125 -21 -140 -24 -424 -65 -448
-64 -21 1 57 22 118 32 17 3 100 23 185 45 1144 297 2015 908 2560 1798 51 81
194 358 205 394 4 14 18 48 30 75 44 97 122 319 154 435 40 147 72 276 77 310
3 19 8 38 9 41 2 3 7 28 10 55 4 27 8 56 10 64 3 8 7 33 10 55 3 22 8 56 11
75 8 49 11 70 24 200 23 242 28 386 23 720 -5 347 -6 378 -17 525 -4 44 -9
112 -11 150 -3 39 -8 90 -10 115 -3 25 -8 72 -10 105 -3 33 -9 94 -15 135 -5
41 -12 102 -15 135 -8 73 -8 77 -34 245 -33 211 -72 417 -90 478 -5 17 -8 32
-5 32 3 0 0 8 -5 18 -5 9 -12 33 -15 54 -3 20 -10 47 -15 60 -5 12 -17 50 -26
83 -34 120 -142 404 -206 543 -22 46 -39 86 -39 89 0 13 -269 538 -335 653
-213 372 -446 679 -750 989 -391 399 -783 673 -1230 861 -218 91 -579 193
-796 225 -120 17 -165 19 -173 7 -3 -5 -49 -2 -103 6 -109 16 -732 25 -793 12z
m610 -126 c548 -46 1157 -250 1626 -544 785 -490 1380 -1268 1772 -2315 52
-139 133 -383 147 -441 2 -10 14 -50 25 -89 26 -92 69 -258 80 -309 36 -179
69 -346 74 -371 2 -16 14 -86 25 -155 11 -69 23 -150 26 -180 12 -106 14 -124
19 -159 3 -20 8 -65 11 -101 3 -36 8 -87 11 -115 6 -58 9 -112 25 -410 12
-248 5 -626 -16 -850 -2 -27 -7 -81 -10 -120 -4 -38 -10 -104 -16 -145 -5 -41
-12 -102 -14 -135 -10 -104 -29 -261 -45 -360 -9 -57 -66 -359 -75 -398 -2
-11 -32 -83 -65 -160 -250 -583 -691 -1124 -1227 -1505 -470 -334 -1029 -566
-1678 -697 -176 -36 -484 -80 -615 -89 -41 -3 -113 -9 -160 -13 -153 -14 -709
-8 -894 11 -92 9 -182 19 -200 21 -224 33 -389 60 -421 69 -5 1 -28 6 -50 10
-22 5 -92 22 -155 38 -63 17 -126 32 -140 34 -52 9 -410 134 -525 184 -717
307 -1234 788 -1580 1470 -72 144 -136 288 -161 365 -7 22 -24 72 -39 110 -43
117 -126 425 -148 550 -3 17 -12 64 -21 105 -8 41 -17 99 -21 129 -4 30 -9 63
-11 75 -5 23 -31 261 -32 286 0 8 -4 71 -9 140 -10 160 -10 607 0 770 4 69 8
132 9 140 0 34 29 310 38 370 5 36 12 88 15 115 4 28 15 102 26 165 11 63 22
129 25 145 3 17 14 75 25 130 11 55 23 114 26 130 18 108 157 655 175 689 6
12 11 23 10 26 -4 16 112 378 175 545 85 225 256 596 355 770 215 377 424 651
733 961 440 441 838 703 1385 912 97 37 321 105 380 116 14 2 54 11 90 20 36
8 81 17 100 20 135 22 255 37 352 42 62 4 115 8 118 11 5 5 357 -5 450 -13z"/>
<path d="M21085 19870 c-211 -30 -222 -32 -350 -67 -153 -42 -177 -49 -294
-97 -560 -228 -1005 -615 -1301 -1136 -82 -142 -207 -432 -225 -517 -2 -10
-15 -63 -29 -117 -15 -55 -29 -113 -31 -130 -8 -43 -24 -137 -29 -162 -3 -12
-7 -75 -11 -140 -3 -66 -8 -136 -10 -158 -7 -58 12 -339 30 -457 26 -165 91
-421 125 -494 5 -11 25 -60 45 -108 271 -671 870 -1231 1555 -1455 106 -35
178 -56 225 -68 76 -18 311 -57 380 -62 178 -14 519 -6 620 15 17 3 39 7 50 9
135 20 373 87 535 150 309 122 628 332 870 574 416 416 668 937 744 1540 20
153 15 533 -8 680 -26 165 -91 427 -126 505 -5 11 -23 56 -40 100 -17 44 -64
143 -104 221 -124 238 -278 447 -471 639 -284 283 -596 476 -1015 626 -24 8
-193 55 -235 65 -31 7 -252 42 -330 52 -115 16 -436 11 -570 -8z m-480 -1034
c169 -45 295 -175 335 -345 15 -65 8 -197 -15 -261 -52 -145 -200 -271 -354
-300 -115 -21 -265 14 -365 87 -66 48 -132 142 -157 225 -17 56 -20 87 -17
171 4 88 9 111 36 170 54 118 172 217 301 252 61 17 174 18 236 1z m-462
-1167 c108 -54 161 -146 158 -273 -2 -128 -137 -256 -270 -256 -120 0 -234 83
-266 194 -41 140 21 278 150 337 58 27 173 26 228 -2z m3133 -354 c30 -19 34
-45 41 -246 11 -342 -48 -625 -192 -914 -80 -161 -160 -269 -302 -405 -143
-138 -264 -223 -453 -318 -598 -302 -1317 -321 -1890 -51 -366 173 -694 516
-807 844 -24 68 -28 96 -28 190 0 105 2 113 31 165 34 61 83 100 124 100 32 0
49 -18 85 -90 85 -170 277 -386 455 -513 113 -80 319 -184 448 -226 272 -90
548 -108 822 -56 109 21 350 101 462 153 414 192 680 554 854 1160 25 86 52
164 60 173 14 15 95 41 164 53 38 6 102 -3 126 -19z"/>
<path d="M27660 13370 c-414 -29 -731 -75 -1110 -161 -818 -184 -1365 -437
-1753 -808 -303 -291 -449 -608 -448 -975 0 -78 2 -150 5 -161 2 -11 9 -49 16
-85 31 -162 112 -355 217 -515 241 -366 629 -658 1158 -872 59 -24 336 -121
365 -128 8 -2 97 -26 197 -53 259 -72 705 -164 903 -188 19 -2 67 -9 105 -14
157 -22 394 -44 595 -57 151 -9 688 -9 820 0 84 5 134 10 345 32 49 6 286 41
335 50 130 25 200 40 290 61 58 14 112 27 120 29 8 2 83 24 165 49 810 245
1371 629 1689 1155 52 87 123 253 132 309 3 20 10 47 16 61 20 51 23 88 23
256 0 148 -3 181 -24 255 -119 431 -392 775 -831 1048 -397 248 -1009 465
-1710 609 -14 3 -34 6 -45 8 -11 1 -65 10 -120 20 -55 9 -113 18 -130 20 -16
2 -50 7 -75 10 -90 13 -145 19 -375 41 -87 9 -767 12 -875 4z m755 -114 c22
-3 78 -8 125 -11 160 -11 266 -24 500 -61 44 -6 127 -22 160 -29 14 -3 41 -8
60 -11 88 -13 392 -88 565 -139 692 -203 1132 -431 1450 -750 136 -137 225
-260 313 -435 115 -229 144 -346 138 -560 -5 -174 -23 -247 -90 -377 -277
-536 -804 -938 -1549 -1184 -126 -41 -319 -94 -377 -104 -19 -3 -48 -10 -65
-15 -31 -9 -168 -37 -220 -45 -17 -2 -57 -9 -90 -14 -33 -6 -80 -13 -105 -16
-25 -3 -79 -10 -120 -15 -358 -47 -849 -57 -1250 -25 -91 7 -345 34 -380 39
-14 3 -95 15 -180 27 -126 18 -325 55 -660 125 -14 3 -112 27 -218 55 -530
136 -924 309 -1243 545 -132 97 -334 301 -421 424 -103 146 -207 359 -234 480
-2 11 -6 30 -9 43 -2 12 -10 45 -17 72 -16 66 -16 314 1 390 28 129 91 291
153 390 170 271 455 506 836 691 139 68 441 187 502 199 9 2 50 14 91 28 94
33 276 85 354 103 33 7 78 18 100 23 22 5 54 12 70 15 17 3 39 8 50 10 69 16
166 36 200 41 23 3 52 8 65 10 160 33 512 72 732 81 84 4 155 9 158 12 6 5
542 -6 605 -12z"/>
<path d="M25479 11179 c-110 -12 -189 -67 -175 -122 3 -15 28 -37 63 -60 70
-43 180 -156 332 -341 73 -89 141 -160 192 -200 201 -159 531 -266 929 -302
38 -3 60 -11 72 -25 19 -22 78 -169 78 -194 0 -8 3 -15 8 -15 10 0 -4 183 -23
294 -25 144 -83 251 -210 385 -156 165 -354 292 -690 441 -106 46 -354 121
-450 135 -22 3 -44 7 -50 8 -5 2 -40 0 -76 -4z"/>
<path d="M30540 11178 c-66 -6 -167 -17 -210 -23 -50 -6 -273 -57 -325 -72
-314 -96 -493 -184 -652 -321 -94 -81 -153 -160 -191 -252 -49 -121 -101 -305
-89 -317 3 -3 18 19 32 48 38 75 96 159 109 159 6 0 81 -5 166 -10 142 -9 392
-1 485 16 265 46 412 118 637 311 166 142 244 198 342 244 81 38 86 42 86 71
0 23 -10 41 -39 69 -67 63 -194 91 -351 77z"/>
<path d="M19565 9514 c-158 -25 -264 -68 -296 -121 -26 -42 -22 -67 25 -163
85 -171 182 -282 581 -663 481 -460 790 -695 1314 -1000 462 -268 1128 -596
1671 -822 364 -152 931 -357 1145 -415 17 -5 86 -25 155 -45 69 -20 132 -38
140 -40 8 -2 87 -22 175 -44 88 -23 171 -44 185 -47 14 -3 50 -11 80 -19 30
-8 102 -24 160 -35 58 -12 114 -23 125 -25 31 -7 127 -26 160 -31 254 -43 398
-66 435 -70 25 -2 61 -7 80 -10 19 -3 49 -8 65 -9 53 -6 219 -27 245 -30 14
-2 63 -7 110 -11 47 -3 87 -8 90 -10 3 -1 42 -5 85 -9 44 -3 98 -8 120 -10 22
-3 74 -7 115 -10 41 -3 136 -9 210 -15 396 -29 575 -34 1090 -35 442 0 837 8
965 20 28 3 122 9 210 15 186 12 274 19 330 25 22 2 72 7 110 10 39 4 86 8
105 11 19 2 96 11 170 19 74 8 187 22 250 30 63 8 135 17 160 20 69 8 97 12
200 28 52 9 115 18 140 21 25 3 54 8 66 10 11 2 79 14 150 26 71 11 138 23
149 25 11 2 79 15 150 29 72 14 183 36 247 50 64 14 127 27 140 30 23 4 356
82 393 91 379 101 491 133 790 232 382 125 695 246 1030 398 161 73 483 231
570 280 22 12 65 36 95 52 508 275 1103 696 1485 1051 122 113 310 312 352
372 19 27 22 26 83 -16 68 -47 110 -48 188 -4 63 36 86 76 112 199 30 142 -8
259 -97 302 -58 29 -62 29 -143 30 -86 1 -186 -36 -299 -111 -122 -81 -127
-87 -123 -173 3 -80 16 -108 61 -127 17 -7 31 -17 31 -22 0 -12 -238 -249
-391 -388 -376 -344 -775 -627 -1299 -922 -384 -217 -968 -485 -1315 -603 -22
-8 -92 -33 -155 -55 -110 -39 -284 -97 -380 -126 -25 -7 -90 -27 -145 -44 -80
-24 -246 -70 -345 -95 -8 -3 -40 -11 -70 -19 -30 -8 -66 -17 -80 -20 -14 -3
-79 -18 -145 -34 -66 -16 -138 -33 -160 -37 -51 -10 -52 -11 -100 -23 -22 -6
-56 -13 -75 -16 -36 -6 -46 -8 -120 -24 -25 -6 -65 -13 -90 -17 -25 -3 -61
-10 -80 -15 -19 -5 -64 -14 -100 -20 -36 -6 -85 -16 -110 -21 -39 -8 -210 -35
-332 -53 -80 -12 -114 -17 -138 -22 -30 -5 -154 -23 -195 -29 -51 -6 -198 -25
-238 -30 -21 -3 -75 -9 -120 -15 -88 -10 -482 -48 -507 -48 -8 0 -44 -2 -80
-5 -80 -7 -358 -25 -500 -32 -399 -20 -1132 -15 -1570 11 -126 7 -508 34 -560
39 -25 3 -94 9 -155 15 -157 15 -284 29 -316 35 -9 2 -40 6 -70 10 -30 3 -70
8 -89 11 -19 2 -55 7 -80 10 -25 2 -72 10 -105 15 -63 12 -70 13 -150 24 -27
3 -58 9 -67 11 -10 3 -30 7 -45 10 -70 10 -333 61 -433 84 -19 4 -80 17 -135
29 -55 12 -161 37 -235 57 -74 19 -162 42 -195 50 -62 15 -86 22 -345 100
-366 109 -873 292 -1127 405 -23 11 -44 19 -47 19 -6 0 -317 138 -441 195
-346 160 -683 329 -880 439 -573 322 -912 558 -1295 905 -128 116 -375 348
-528 496 -108 104 -192 205 -241 287 l-22 37 51 15 c103 31 281 39 495 23 60
-5 112 -10 115 -12 3 -1 34 -6 70 -10 36 -3 101 -11 145 -16 110 -14 347 -23
379 -15 31 8 52 42 37 60 -6 7 -39 16 -74 19 -68 8 -105 13 -187 28 -30 6 -68
13 -85 15 -16 3 -55 10 -85 16 -61 13 -65 14 -130 24 -25 4 -49 8 -55 10 -15
3 -74 12 -130 19 -27 4 -61 9 -75 11 -62 12 -331 10 -405 -2z"/>
<path d="M25967 4823 c-19 -18 1 -49 87 -130 207 -198 422 -340 696 -461 126
-55 430 -151 565 -178 78 -16 293 -54 335 -59 140 -19 334 -35 495 -41 123 -4
456 8 580 21 17 2 59 6 95 10 36 3 81 10 100 15 19 5 55 11 80 14 25 4 52 8
60 10 8 1 33 6 55 10 22 5 63 14 90 22 28 7 61 16 75 18 121 25 425 130 528
184 64 34 94 78 96 144 1 52 -23 71 -81 64 -23 -3 -51 -9 -61 -15 -33 -17
-407 -114 -577 -150 -95 -19 -250 -46 -325 -55 -164 -22 -204 -26 -270 -31
-206 -15 -419 -17 -580 -5 -271 19 -619 75 -825 134 -302 87 -299 86 -545 181
-173 67 -256 105 -468 212 -188 95 -194 98 -205 86z"/>
</g>
</svg>
