<?xml version="1.0" standalone="no"?>
<!DOCTYPE svg PUBLIC "-//W3C//DTD SVG 20010904//EN"
 "http://www.w3.org/TR/2001/REC-SVG-20010904/DTD/svg10.dtd">
<svg version="1.0" xmlns="http://www.w3.org/2000/svg"
 width="1500.000000pt" height="1500.000000pt" viewBox="0 0 1500.000000 1500.000000"
 preserveAspectRatio="xMidYMid meet">
<metadata>
Created by potrace 1.16, written by Peter Selinger 2001-2019
</metadata>
<g transform="translate(0.000000,1500.000000) scale(0.100000,-0.100000)"
fill="none" stroke="#000000">
<path d="M9705 10774 c-66 -35 -98 -58 -297 -221 -261 -213 -334 -285 -469
-463 l-25 -33 -48 32 c-123 85 -395 190 -611 236 -98 21 -154 28 -388 51 l-59
6 -42 67 c-49 75 -68 93 -183 179 -85 64 -108 75 -99 45 17 -55 26 -116 26
-174 0 -50 4 -68 15 -73 8 -3 15 -18 15 -33 0 -28 0 -27 -32 12 -119 151 -258
248 -374 261 l-57 7 25 -34 c14 -19 31 -52 38 -73 15 -46 8 -153 -12 -172 -7
-7 -63 -21 -123 -29 -186 -28 -343 -64 -511 -120 -144 -47 -363 -143 -436
-191 -26 -17 -26 -17 -54 17 -59 71 -172 183 -244 242 -181 146 -446 298 -580
333 -252 64 -349 -39 -420 -451 -47 -265 -35 -592 31 -918 38 -185 75 -301
144 -444 58 -121 244 -413 305 -478 l38 -40 5 -359 c4 -292 2 -369 -10 -415
-18 -71 -96 -235 -155 -327 -26 -39 -61 -99 -78 -133 -18 -34 -36 -64 -41 -67
-10 -6 -62 4 -409 77 -402 85 -878 174 -887 165 -5 -5 109 -31 602 -141 550
-123 660 -148 664 -152 2 -1 -8 -24 -23 -51 -15 -26 -45 -84 -68 -129 -22 -46
-46 -83 -52 -83 -6 0 -47 4 -91 10 -298 36 -1504 106 -1483 85 3 -3 65 -10
139 -15 74 -5 235 -16 359 -25 338 -24 1021 -83 1047 -90 8 -3 4 -27 -15 -79
l-27 -76 -185 0 c-208 0 -597 -15 -800 -30 -251 -19 -495 -42 -500 -47 -5 -6
189 1 485 17 94 5 354 12 579 16 l409 7 -6 -34 c-4 -19 -11 -77 -17 -128 -6
-52 -12 -96 -13 -96 -1 -1 -103 -16 -227 -34 -245 -35 -444 -70 -585 -102
-210 -48 -650 -181 -695 -211 -20 -13 0 -8 125 31 220 70 548 144 840 191 224
35 505 73 510 68 2 -2 9 -67 14 -145 7 -92 19 -170 36 -226 13 -47 26 -91 27
-98 2 -7 -19 -21 -47 -32 -364 -147 -823 -377 -935 -468 -30 -25 -13 -16 55
27 79 50 301 158 493 240 180 78 429 174 447 174 5 0 30 -39 54 -86 60 -117
140 -222 248 -325 149 -141 290 -232 537 -345 71 -32 131 -64 133 -71 5 -14
-118 -339 -239 -633 -148 -357 -239 -623 -223 -650 3 -5 35 -10 71 -10 55 0
64 3 64 18 0 45 106 340 247 692 86 212 168 421 184 465 16 48 33 80 41 79 7
-1 48 -11 90 -24 96 -28 108 -25 102 32 -10 87 -8 84 -96 114 -225 74 -367
137 -521 230 -231 141 -414 308 -521 477 -40 63 -41 81 -4 90 13 2 59 14 103
26 213 56 797 187 1144 256 150 30 291 60 312 65 41 11 55 34 17 26 -13 -3
-50 -8 -83 -11 -80 -8 -390 -60 -540 -90 -223 -44 -769 -174 -890 -211 -66
-20 -126 -37 -133 -38 -8 0 -28 34 -49 83 -30 73 -34 91 -28 135 3 28 8 95 11
148 5 95 6 97 32 102 118 23 761 46 1285 46 224 0 387 4 387 9 0 15 -79 21
-381 30 -389 12 -925 -3 -1266 -35 l-63 -6 1 34 c0 18 8 74 17 123 l18 90 264
-1 c146 -1 373 -9 505 -18 325 -22 726 -37 761 -27 29 7 -30 13 -471 46 -358
27 -476 34 -752 46 -150 7 -273 15 -273 18 0 3 14 30 30 59 29 50 32 52 74 52
57 0 405 -35 587 -59 79 -10 176 -22 214 -26 189 -18 601 -95 645 -122 19 -11
36 -13 56 -8 28 8 28 8 -21 22 -27 7 -88 25 -135 38 -196 58 -714 141 -1125
180 -93 9 -186 19 -206 23 l-36 7 71 122 c64 110 73 121 96 117 346 -59 877
-185 1259 -300 115 -34 175 -44 138 -23 -57 34 -367 134 -627 203 -176 47
-506 119 -645 141 -60 10 -112 19 -114 21 -5 4 69 122 198 319 l106 160 0 440
c1 431 2 443 28 600 15 88 41 213 57 279 39 156 48 226 28 226 -20 0 -37 -21
-87 -104 -46 -78 -47 -77 -31 68 11 106 44 181 144 330 36 55 69 110 73 124
10 43 -5 157 -32 238 -90 265 -433 724 -541 724 -22 0 -22 -1 11 -55 18 -31
52 -99 75 -153 67 -152 119 -252 166 -319 24 -34 44 -65 44 -68 0 -4 -20 5
-45 19 l-45 27 0 -23 c0 -30 56 -167 102 -248 20 -36 64 -100 97 -144 60 -78
75 -116 46 -116 -17 0 -42 -52 -80 -165 -18 -53 -26 -109 -34 -225 -8 -127
-47 -367 -74 -454 -2 -6 -17 20 -34 56 -17 36 -64 117 -104 179 -200 311 -296
632 -315 1054 -14 298 49 666 125 739 28 27 34 28 93 23 117 -9 245 -68 453
-205 110 -72 156 -111 297 -254 92 -92 172 -168 179 -168 6 0 37 15 68 34 240
145 623 278 891 311 176 21 243 50 279 120 21 43 29 118 17 175 -7 30 -6 33 6
20 8 -8 20 -27 26 -42 9 -22 9 -28 -1 -28 -10 0 -11 -14 -3 -67 5 -38 10 -70
12 -71 1 -2 16 6 33 19 l30 22 80 -84 c72 -77 81 -83 100 -71 11 6 27 12 36
12 18 0 35 31 35 64 0 14 2 26 5 26 14 0 107 -65 116 -81 5 -11 20 -19 34 -19
20 0 25 5 25 26 0 21 4 25 18 19 9 -4 64 -13 121 -21 218 -29 423 -78 571
-136 72 -28 235 -109 331 -164 42 -24 83 -44 92 -44 9 0 44 39 79 88 96 133
194 230 408 401 313 252 327 259 373 197 41 -53 140 -405 181 -641 54 -312 37
-741 -40 -994 -30 -98 -101 -263 -136 -315 l-25 -36 -35 80 c-32 70 -118 213
-124 207 -2 -1 15 -67 36 -146 88 -319 126 -567 140 -911 13 -315 19 -342 80
-405 108 -113 302 -408 285 -435 -3 -5 -24 -10 -47 -10 -145 0 -790 -127
-1143 -226 -71 -20 -150 -41 -174 -48 -25 -7 -47 -18 -49 -25 -6 -18 47 -10
211 30 475 117 1098 239 1217 239 20 0 31 -11 54 -53 16 -28 42 -70 57 -92 27
-39 89 -192 89 -221 0 -11 -30 -14 -172 -16 l-173 -1 200 -7 c216 -7 260 -3
260 20 0 10 14 17 45 21 l45 6 -46 1 -46 2 -33 103 c-18 56 -43 124 -57 151
-13 27 -21 52 -16 56 12 11 890 155 1161 191 51 6 91 13 89 15 -6 6 -612 -45
-787 -66 -200 -25 -384 -46 -466 -55 l-62 -7 -32 59 c-18 32 -46 81 -62 110
l-29 51 58 12 c32 6 119 24 193 40 260 57 527 112 730 150 113 21 195 39 183
39 -63 3 -597 -98 -923 -173 -85 -20 -178 -39 -206 -42 l-51 -6 -28 48 c-15
27 -69 110 -119 184 l-90 134 -8 161 c-17 353 -28 514 -43 595 l-16 85 43 80
c153 284 214 497 238 831 18 255 -6 516 -74 810 -19 82 -46 203 -61 269 -36
160 -76 245 -148 313 -66 62 -97 66 -172 26z"/>
<path d="M9756 10438 c-96 -103 -237 -346 -331 -573 -98 -236 -115 -280 -115
-297 0 -17 78 -156 180 -318 26 -41 55 -90 64 -107 9 -18 20 -33 24 -33 12 0
61 130 77 205 20 90 44 315 34 320 -11 8 -72 -66 -91 -110 -9 -22 -26 -72 -38
-112 -38 -134 -48 -98 -30 107 12 134 38 225 175 610 62 173 115 325 119 338
12 38 -14 26 -68 -30z"/>
<path d="M9156 8672 c-69 -23 -154 -104 -200 -192 -42 -80 -77 -212 -100 -375
-20 -144 -58 -496 -54 -501 2 -1 23 2 48 8 64 16 154 -2 283 -57 62 -27 130
-49 161 -52 176 -18 338 154 393 415 21 102 13 278 -17 377 -54 174 -176 330
-293 373 -69 26 -151 28 -221 4z m233 -236 c51 -49 61 -128 25 -198 -35 -69
-154 -92 -214 -42 -76 65 -82 174 -12 237 55 50 151 51 201 3z"/>
<path d="M5835 8661 c-58 -15 -111 -50 -171 -113 -67 -69 -108 -143 -151 -265
-24 -70 -27 -92 -27 -218 0 -146 5 -178 51 -295 51 -130 132 -228 228 -278 41
-22 63 -26 125 -26 69 0 84 4 195 53 99 45 131 55 191 59 53 3 80 0 104 -11
l32 -16 -6 37 c-3 20 -15 129 -26 242 -27 266 -36 325 -72 444 -75 254 -200
385 -372 392 -39 2 -84 0 -101 -5z m33 -221 c38 -23 71 -88 72 -140 1 -136
-170 -206 -259 -105 -57 66 -59 141 -4 206 50 59 131 76 191 39z"/>
<path d="M7700 6964 c-61 -13 -89 -14 -150 -5 -108 16 -342 14 -418 -4 -82
-19 -153 -56 -187 -97 -26 -31 -27 -36 -23 -113 7 -133 62 -223 202 -334 94
-75 325 -205 396 -224 20 -5 20 -10 18 -288 l-3 -283 -50 -39 c-82 -62 -239
-134 -335 -153 -131 -26 -290 -5 -423 56 -27 12 -51 20 -53 18 -2 -3 24 -33
59 -67 195 -195 461 -199 771 -12 47 28 88 51 92 51 4 0 41 -22 83 -49 223
-142 481 -171 687 -77 54 25 204 159 204 182 0 18 4 19 -81 -20 -160 -73 -375
-98 -523 -60 -83 21 -189 74 -257 127 l-56 45 -7 269 c-4 148 -4 276 0 286 3
9 14 17 23 17 32 0 121 50 282 157 259 173 321 256 323 432 l1 83 -41 37 c-65
57 -132 74 -309 77 -107 2 -171 -1 -225 -12z"/>
<path d="M9720 6623 c-180 -8 -854 -105 -875 -125 -7 -6 2 -8 25 -4 44 7 380
49 610 76 180 22 352 48 359 56 2 2 -9 3 -25 2 -16 -1 -58 -3 -94 -5z"/>
<path d="M9715 6509 c-290 -14 -776 -63 -805 -81 -18 -11 188 -4 495 18 237
17 977 25 992 11 10 -11 17 -306 8 -366 l-7 -43 -36 5 c-20 3 -68 13 -107 21
-183 40 -706 101 -1115 131 -238 17 -283 18 -276 6 8 -13 38 -17 381 -56 421
-47 766 -89 968 -117 l167 -23 -6 -30 c-3 -16 -14 -52 -23 -80 -15 -48 -17
-50 -51 -47 -19 1 -111 20 -205 42 -93 21 -253 55 -355 74 -358 67 -932 147
-948 132 -12 -13 17 -22 125 -40 743 -125 1355 -244 1381 -270 16 -17 -108
-211 -200 -311 -103 -113 -295 -248 -558 -392 -183 -101 -353 -206 -358 -222
-2 -7 9 -11 28 -11 55 0 278 49 342 75 34 14 65 25 69 25 17 0 377 -765 454
-965 51 -133 108 -309 126 -387 12 -58 12 -58 49 -58 21 0 52 3 70 6 30 6 31
9 25 41 -13 72 -90 304 -150 453 -34 85 -124 288 -200 450 -167 359 -235 509
-235 519 0 5 22 22 50 39 95 59 283 205 354 276 83 82 180 209 227 296 18 35
38 60 48 60 22 0 256 -112 503 -241 197 -104 337 -185 496 -290 40 -27 70 -45
67 -40 -7 12 -206 144 -365 241 -126 77 -365 207 -577 314 -106 53 -113 58
-113 86 0 22 5 30 18 30 37 0 659 -184 872 -258 8 -3 12 -2 9 1 -18 21 -621
228 -776 268 -51 13 -93 28 -93 34 1 17 28 136 32 140 2 2 25 -2 51 -10 26 -8
125 -28 220 -45 180 -33 549 -107 797 -160 80 -17 159 -33 175 -35 l30 -5 -30
10 c-126 43 -638 166 -995 239 l-235 47 5 40 c3 21 5 119 5 217 l0 177 36 0
c99 0 844 -63 1244 -105 77 -8 158 -14 180 -14 36 1 33 3 -25 15 -97 20 -469
71 -685 94 -574 61 -1187 88 -1570 69z"/>
<path d="M6185 6139 c-353 -39 -853 -127 -1053 -185 -61 -18 -66 -27 -7 -14
58 14 1043 175 1135 186 70 8 101 24 45 22 -22 0 -76 -5 -120 -9z"/>
<path d="M8720 5878 c0 -12 148 -82 540 -256 429 -189 520 -227 520 -213 0 8
-402 197 -616 290 -332 144 -444 189 -444 179z"/>
<path d="M6506 5839 c-10 -6 -55 -26 -100 -44 -209 -84 -866 -388 -866 -400 0
-10 406 165 645 278 99 46 219 101 268 122 83 36 114 55 85 55 -7 0 -21 -5
-32 -11z"/>
<path d="M8230 4784 c-242 -74 -357 -95 -578 -101 -128 -4 -223 -2 -285 7
-121 16 -294 61 -385 100 l-72 31 -44 -26 c-23 -14 -53 -25 -65 -25 -40 0 -17
-24 68 -68 98 -53 267 -112 411 -144 92 -20 131 -23 310 -23 184 1 218 4 331
28 69 14 172 43 230 63 103 35 329 148 329 163 0 10 -42 28 -80 35 -14 3 -89
-15 -170 -40z"/>
<path d="M9326 4188 c-7 -111 -32 -319 -42 -347 -3 -9 -15 1 -34 28 -17 22
-35 41 -40 41 -6 0 -10 -30 -10 -68 0 -89 -14 -166 -52 -280 -16 -51 -28 -95
-25 -98 9 -10 189 9 192 20 1 6 19 63 38 126 73 237 99 372 100 521 0 140 -16
168 -94 169 l-26 0 -7 -112z"/>
<path d="M6099 4237 c-37 -19 -47 -31 -61 -73 -24 -69 -23 -223 2 -341 23
-112 106 -367 123 -381 7 -6 48 -14 91 -18 73 -6 79 -6 73 10 -23 59 -58 199
-67 269 -6 45 -14 97 -16 115 -6 41 -29 42 -50 0 -31 -59 -39 -13 -39 224 0
120 -3 218 -6 218 -3 0 -26 -10 -50 -23z"/>
</g>
</svg>
