<?xml version="1.0" standalone="no"?>
<!DOCTYPE svg PUBLIC "-//W3C//DTD SVG 20010904//EN"
 "http://www.w3.org/TR/2001/REC-SVG-20010904/DTD/svg10.dtd">
<svg version="1.0" xmlns="http://www.w3.org/2000/svg"
 width="1500.000000pt" height="1500.000000pt" viewBox="0 0 1500.000000 1500.000000"
 preserveAspectRatio="xMidYMid meet">
<metadata>
Created by potrace 1.16, written by Peter Selinger 2001-2019
</metadata>
<g transform="translate(0.000000,1500.000000) scale(0.100000,-0.100000)"
fill="#000000" stroke="none">
<path d="M1994 13585 c-457 -101 -752 -597 -824 -1385 -15 -167 -12 -568 5
-763 84 -957 455 -2016 961 -2744 35 -50 64 -97 64 -104 0 -7 -90 -193 -199
-413 -285 -573 -480 -923 -699 -1256 -145 -220 -222 -347 -222 -365 0 -26 157
-490 200 -590 319 -750 896 -1453 1715 -2091 514 -401 997 -710 2242 -1435
282 -165 595 -349 695 -411 463 -282 551 -334 663 -388 197 -96 422 -161 655
-192 139 -18 431 -15 573 6 353 51 559 142 1137 499 124 77 313 191 420 255
403 237 1048 625 1290 775 424 264 1191 770 1375 906 559 416 1119 1044 1460
1635 122 214 295 586 350 756 9 30 37 108 62 172 l44 117 -125 169 c-451 613
-807 1235 -1036 1810 -12 31 -11 36 18 75 359 483 711 1282 881 1998 105 443
146 787 146 1224 -1 334 -13 481 -61 726 -111 575 -385 929 -781 1011 -451 93
-1220 -200 -2014 -768 -368 -264 -614 -477 -1059 -921 l-355 -354 -116 35
c-420 126 -903 213 -1434 258 -225 19 -874 16 -1105 -5 -320 -30 -603 -70
-866 -123 -119 -24 -190 -41 -499 -123 l-109 -29 -151 142 c-854 801 -1198
1084 -1661 1361 -445 267 -977 482 -1321 534 -94 14 -243 12 -319 -4z m11011
-191 c170 -44 318 -168 422 -354 80 -143 157 -401 193 -650 89 -609 18 -1324
-205 -2085 -144 -490 -347 -934 -653 -1428 l-54 -89 -68 169 c-124 311 -223
511 -345 699 -29 45 -49 86 -45 90 5 5 47 73 94 152 263 436 432 887 523 1388
24 132 27 174 27 364 0 187 -3 225 -22 291 -73 266 -256 406 -502 383 -96 -8
-268 -51 -395 -99 -442 -165 -853 -462 -1273 -918 -75 -82 -140 -154 -143
-159 -3 -5 -55 15 -115 45 -139 70 -354 163 -514 222 -69 26 -131 50 -138 54
-8 5 49 71 176 202 967 995 1941 1615 2722 1734 108 16 225 12 315 -11z
m-10556 -29 c739 -188 1418 -605 2271 -1395 295 -274 510 -482 505 -490 -3 -5
-94 -43 -203 -85 -108 -43 -276 -113 -372 -157 l-175 -80 -59 67 c-32 36 -130
132 -216 214 -421 396 -770 640 -1127 785 -180 74 -433 131 -528 119 -92 -11
-114 -17 -168 -45 -190 -102 -277 -347 -264 -748 11 -348 101 -717 279 -1145
80 -192 232 -490 337 -659 13 -21 9 -31 -64 -152 -139 -230 -237 -432 -335
-697 -27 -71 -36 -86 -45 -75 -31 33 -204 323 -276 462 -338 652 -550 1347
-636 2081 -24 212 -24 745 0 930 48 353 130 609 262 811 99 152 212 242 360
286 98 29 273 19 454 -27z m216 -1220 c421 -61 936 -377 1460 -898 l179 -178
-29 -18 c-17 -10 -75 -44 -130 -76 -247 -144 -572 -375 -762 -542 -127 -111
-339 -327 -439 -448 -67 -80 -81 -92 -91 -79 -24 32 -178 331 -234 454 -204
451 -319 916 -319 1290 0 280 66 447 195 494 51 18 50 18 170 1z m9887 -42
c173 -94 212 -422 107 -911 -49 -231 -151 -551 -234 -737 -80 -178 -283 -558
-298 -556 -4 0 -42 42 -84 93 -277 335 -778 749 -1220 1009 -51 30 -93 57 -93
61 0 17 455 463 555 544 363 292 705 463 1025 514 41 6 82 13 90 15 33 7 108
-8 152 -32z m-4692 -454 c441 -20 905 -89 1342 -199 148 -38 675 -206 715
-229 13 -7 -5 -20 -88 -61 -207 -105 -453 -267 -683 -452 -728 -587 -1261
-1339 -1586 -2240 -29 -82 -55 -146 -58 -143 -2 2 -26 68 -52 147 -266 804
-816 1596 -1508 2172 -228 190 -429 327 -717 487 l-147 82 63 24 c574 220
1209 358 1859 403 85 6 171 12 190 14 64 6 493 3 670 -5z m-2874 -599 c908
-477 1629 -1218 2060 -2115 202 -421 417 -1135 441 -1462 3 -45 10 -80 14 -77
5 3 9 16 9 29 0 12 16 103 36 201 179 895 531 1656 1053 2279 194 231 466 499
675 665 188 149 552 378 804 504 l88 44 104 -47 c198 -88 473 -245 734 -419
481 -321 853 -674 1101 -1047 144 -216 207 -347 406 -836 262 -648 424 -984
687 -1429 140 -237 352 -552 525 -778 13 -17 -11 -42 -141 -150 -416 -343
-959 -586 -1692 -756 l-145 -33 -45 30 c-134 91 -362 267 -347 267 45 0 738
129 750 140 9 8 -145 102 -450 276 -106 60 -192 112 -193 115 0 3 107 36 238
74 130 38 282 83 337 100 l99 31 -94 33 c-135 48 -365 167 -500 257 -153 102
-281 203 -480 379 -240 211 -397 319 -635 435 -214 104 -386 164 -570 197
-125 24 -379 23 -500 -1 -446 -88 -824 -370 -1114 -831 -77 -123 -194 -361
-252 -514 -37 -97 -41 -114 -28 -122 34 -18 179 -125 269 -197 115 -93 458
-433 562 -557 205 -247 387 -507 630 -905 l46 -75 -14 -95 c-69 -465 -357
-870 -775 -1089 -399 -210 -818 -197 -1040 31 -50 52 -71 91 -67 126 3 24 20
36 153 102 190 95 289 162 390 265 196 199 253 429 141 562 -30 36 -129 86
-213 107 -181 47 -506 66 -769 47 -418 -31 -577 -121 -578 -326 -1 -138 60
-260 194 -395 101 -102 205 -172 398 -269 135 -69 142 -74 142 -102 0 -93
-135 -203 -330 -269 -83 -28 -258 -38 -368 -20 -111 18 -261 69 -388 133 -383
194 -653 503 -777 892 -27 84 -32 116 -32 195 0 88 3 100 32 157 85 162 267
445 410 638 290 391 673 771 996 990 80 54 87 62 82 85 -16 65 -125 321 -199
465 -183 358 -373 585 -637 761 -525 350 -1260 314 -1889 -93 -139 -91 -245
-179 -424 -351 -197 -191 -295 -275 -426 -364 -165 -114 -394 -215 -568 -252
l-67 -14 90 -42 c92 -43 383 -143 513 -176 39 -10 72 -21 72 -25 0 -11 -97
-97 -183 -161 -72 -53 -283 -167 -367 -197 l-35 -13 110 -29 c61 -17 203 -49
317 -72 115 -23 208 -46 208 -51 0 -20 -81 -144 -140 -213 -38 -45 -68 -73
-81 -73 -82 0 -580 118 -805 190 -505 163 -958 414 -1206 667 l-58 58 112 170
c253 387 500 819 738 1290 180 356 291 604 385 860 322 876 961 1561 1935
2074 104 54 385 189 399 190 2 1 64 -30 137 -69z m816 -3851 c129 -43 229
-139 279 -267 19 -47 23 -77 24 -172 0 -109 -2 -118 -32 -183 -97 -205 -333
-318 -548 -262 -223 58 -375 292 -337 517 51 294 332 462 614 367z m3643 20
c174 -32 325 -165 376 -330 89 -285 -148 -582 -464 -581 -142 1 -261 52 -352
154 -222 247 -121 633 194 744 73 26 153 30 246 13z m4144 -1096 c-26 -80
-200 -421 -302 -593 -293 -493 -763 -1024 -1242 -1404 -243 -193 -1195 -816
-1815 -1188 -407 -244 -941 -563 -1155 -690 -115 -69 -300 -181 -410 -248
-415 -256 -669 -348 -1007 -368 -366 -21 -697 41 -981 183 -60 31 -184 101
-276 157 -230 139 -741 441 -1281 756 -923 538 -1313 783 -1742 1094 -836 606
-1438 1259 -1784 1932 -90 175 -189 394 -182 401 2 2 33 -16 68 -41 360 -250
839 -457 1370 -589 315 -79 487 -109 985 -175 619 -81 872 -141 1152 -275 122
-58 225 -121 319 -196 61 -49 62 -49 53 -87 -14 -60 -10 -216 7 -300 46 -222
163 -451 338 -659 132 -158 266 -269 451 -373 147 -83 175 -107 256 -216 175
-234 428 -402 714 -474 244 -62 532 -63 755 -3 282 76 516 231 681 453 87 118
110 137 259 220 473 262 820 813 820 1301 l0 109 48 30 c88 55 376 198 502
248 256 103 476 155 820 197 317 38 485 62 670 96 742 137 1323 356 1800 680
63 43 116 74 118 68 2 -5 -2 -26 -9 -46z m-5999 -2719 c46 -42 144 -95 225
-120 128 -41 334 -44 529 -7 l31 6 -30 -33 c-41 -44 -177 -149 -250 -192 -163
-97 -374 -148 -610 -148 -298 1 -538 89 -772 284 -52 43 -92 80 -89 83 2 3 49
-3 103 -12 136 -24 306 -22 406 4 90 24 226 92 311 155 l59 45 31 -21 c17 -12
42 -31 56 -44z"/>
<path d="M5550 7082 c-98 -38 -165 -95 -212 -184 -33 -62 -33 -202 0 -269 34
-68 83 -121 143 -154 76 -41 197 -47 283 -15 224 85 283 370 113 541 -83 83
-229 119 -327 81z"/>
<path d="M9241 7080 c-88 -32 -153 -90 -191 -169 -78 -163 -13 -351 152 -438
47 -25 63 -28 148 -28 83 0 102 3 150 27 84 41 126 82 162 155 27 56 32 77 32
137 0 161 -119 293 -293 326 -74 14 -98 12 -160 -10z"/>
</g>
</svg>
