<?xml version="1.0" standalone="no"?>
<!DOCTYPE svg PUBLIC "-//W3C//DTD SVG 20010904//EN"
 "http://www.w3.org/TR/2001/REC-SVG-20010904/DTD/svg10.dtd">
<svg version="1.0" xmlns="http://www.w3.org/2000/svg"
 width="1500.000000pt" height="983.000000pt" viewBox="0 0 1500.000000 983.000000"
 preserveAspectRatio="xMidYMid meet">
<metadata>
Created by potrace 1.16, written by Peter Selinger 2001-2019
</metadata>
<g transform="translate(0.000000,983.000000) scale(0.100000,-0.100000)"
fill="none" stroke="#000000">
<path d="M3532 9819 c-137 -12 -271 -40 -449 -95 -170 -53 -257 -91 -433 -187
-162 -90 -227 -133 -385 -260 -292 -234 -524 -510 -716 -853 -120 -213 -184
-375 -254 -632 -58 -214 -96 -618 -76 -797 44 -382 114 -641 245 -906 93 -187
186 -315 357 -489 l151 -154 -5 -51 c-12 -102 -123 -338 -260 -550 -218 -337
-725 -1015 -875 -1172 -22 -22 -57 -67 -77 -100 -21 -32 -66 -89 -99 -128 -86
-98 -154 -186 -254 -334 -48 -70 -101 -147 -118 -171 -75 -108 -194 -350 -238
-484 -46 -142 -47 -164 -44 -676 3 -477 4 -486 27 -550 30 -87 143 -285 209
-368 65 -82 194 -197 290 -260 187 -120 256 -161 285 -168 18 -4 70 -21 117
-39 111 -43 213 -68 385 -95 276 -44 675 -13 1047 80 496 125 973 355 1328
641 230 185 278 225 345 291 39 37 186 179 327 314 142 135 258 248 258 250 0
2 -62 -37 -137 -87 -218 -142 -624 -337 -883 -422 -41 -14 -128 -46 -193 -71
-170 -66 -626 -213 -699 -226 -35 -6 -89 -20 -120 -30 -31 -11 -76 -22 -100
-26 -24 -3 -69 -12 -100 -20 -240 -60 -800 -71 -983 -20 -163 46 -208 62 -302
106 -181 86 -287 173 -381 315 -36 55 -80 132 -98 170 -67 146 -101 341 -90
531 13 233 58 398 173 627 68 135 85 161 162 242 93 98 203 227 294 344 31 40
77 96 102 125 55 62 457 605 573 772 l83 120 97 -95 c54 -53 120 -108 147
-123 28 -14 102 -40 166 -57 109 -29 126 -31 290 -31 287 1 620 43 1574 200
66 11 179 27 250 35 72 9 168 22 215 30 120 20 510 63 735 80 105 8 246 22
315 30 120 14 455 39 930 70 629 40 1504 26 2105 -35 55 -6 136 -10 180 -10
44 0 121 -5 170 -11 50 -6 108 -12 130 -13 345 -24 886 -82 1113 -120 48 -8
152 -22 232 -31 80 -8 181 -22 225 -30 154 -29 382 -65 620 -99 658 -93 632
-91 900 -91 240 0 254 1 360 28 233 58 334 119 371 225 10 28 24 52 31 52 20
0 67 -54 101 -116 23 -42 72 -97 173 -194 358 -342 437 -430 588 -662 84 -130
127 -209 189 -350 113 -257 136 -318 181 -480 86 -304 103 -532 56 -717 -59
-234 -96 -325 -162 -401 -22 -25 -58 -69 -81 -98 -58 -74 -192 -178 -287 -223
-124 -57 -310 -116 -415 -130 -145 -20 -547 -17 -695 5 -348 51 -868 206
-1470 439 -322 125 -482 198 -545 247 -19 15 -71 44 -115 64 -43 20 -87 44
-97 53 -10 9 -18 13 -18 8 0 -20 435 -466 567 -581 183 -160 450 -354 633
-460 89 -53 446 -211 590 -263 313 -112 665 -178 995 -188 171 -5 207 -3 355
20 279 43 513 133 744 284 132 86 312 261 368 358 23 39 59 96 80 127 54 80
89 162 131 308 46 159 57 251 57 476 0 236 -23 375 -115 689 -61 208 -232 591
-366 818 -113 192 -200 315 -395 562 -105 134 -375 424 -540 582 -91 87 -186
183 -211 213 -25 30 -69 80 -98 112 -29 31 -72 89 -96 130 -23 40 -60 99 -82
131 -52 76 -129 268 -134 332 l-4 50 84 70 c46 39 97 88 113 109 16 22 56 70
90 107 109 120 254 394 327 615 101 308 138 605 119 939 -21 364 -96 646 -260
980 -152 309 -323 547 -572 795 -124 124 -309 277 -413 341 -99 62 -200 117
-321 176 -506 249 -1087 290 -1616 113 -234 -78 -549 -251 -728 -402 -199
-167 -463 -448 -602 -642 -25 -35 -84 -114 -131 -177 -47 -63 -131 -180 -186
-261 -158 -230 -315 -419 -483 -581 -196 -188 -312 -271 -489 -347 -304 -130
-435 -145 -666 -79 -288 82 -539 246 -785 512 -131 142 -328 393 -399 510 -53
87 -285 404 -396 542 -105 132 -335 376 -416 443 -35 30 -100 86 -145 125 -81
72 -283 192 -454 270 -346 159 -700 219 -1098 186z m110 -574 c218 -26 457
-107 593 -201 33 -23 80 -50 105 -61 25 -11 87 -56 139 -99 52 -43 113 -95
136 -114 102 -85 267 -324 337 -491 17 -41 37 -83 43 -94 14 -22 51 -221 60
-330 12 -122 -45 -407 -98 -495 -11 -19 -41 -58 -66 -86 l-46 -51 -22 81
c-120 445 -297 776 -620 1158 -70 83 -205 205 -294 265 -90 61 -258 142 -366
177 -237 76 -591 74 -833 -5 -73 -24 -244 -96 -335 -142 -118 -58 -300 -192
-417 -306 -38 -36 -68 -62 -68 -57 0 12 67 105 106 146 18 19 58 69 88 110
100 134 382 350 591 452 152 75 332 123 560 151 77 10 292 5 407 -8z m8066 5
c197 -22 490 -113 599 -185 28 -19 66 -40 85 -48 44 -19 156 -105 245 -188 39
-37 83 -75 97 -85 15 -9 59 -57 99 -108 39 -50 80 -98 89 -106 9 -8 31 -40 49
-70 35 -62 31 -60 -66 31 -108 102 -279 221 -392 275 -62 29 -145 69 -185 88
-161 77 -395 114 -642 102 -153 -8 -228 -23 -358 -70 -235 -85 -361 -163 -528
-328 -150 -148 -230 -241 -274 -314 -19 -32 -55 -85 -79 -117 -76 -101 -225
-400 -278 -557 -68 -200 -99 -303 -99 -326 0 -13 -4 -24 -9 -24 -16 0 -117
162 -145 232 -105 266 -76 620 73 916 63 125 184 286 285 382 166 155 270 232
421 308 197 100 228 113 294 128 36 8 82 21 101 28 30 12 102 23 245 40 67 7
295 5 373 -4z m-8459 -825 c301 -71 436 -422 317 -825 -43 -146 -91 -245 -207
-428 -71 -112 -104 -153 -209 -256 -171 -167 -320 -263 -530 -342 -68 -25 -88
-28 -205 -29 l-130 0 -73 39 c-112 60 -167 138 -201 288 -33 139 -34 192 -12
328 31 189 105 436 154 515 150 240 199 306 302 406 116 113 195 173 295 223
172 87 350 116 499 81z m8746 -15 c143 -45 262 -111 370 -208 198 -176 306
-316 401 -517 81 -170 130 -351 153 -558 12 -106 9 -143 -21 -257 -42 -158
-90 -221 -215 -284 -140 -71 -247 -70 -436 5 -199 79 -268 121 -420 252 -134
115 -315 345 -352 446 -7 20 -38 88 -68 151 -95 197 -134 404 -102 547 56 254
174 394 369 439 84 19 231 12 321 -16z m-6305 -535 c97 -150 115 -172 285
-365 229 -260 506 -501 655 -573 47 -22 101 -50 120 -62 47 -29 248 -109 325
-128 210 -54 607 -50 755 7 20 8 58 17 84 21 31 5 119 43 243 106 256 130 362
206 577 417 149 147 405 441 456 524 49 81 163 237 173 238 5 0 5 -26 1 -57
-22 -164 -2 -664 31 -803 7 -30 16 -75 19 -100 7 -50 39 -167 92 -338 40 -126
129 -330 194 -442 24 -41 57 -100 74 -131 47 -87 226 -317 318 -411 114 -114
285 -266 322 -285 17 -9 59 -38 94 -65 135 -105 450 -263 642 -321 231 -69
319 -82 575 -82 212 0 240 2 355 27 69 15 175 45 236 66 177 62 152 67 237
-50 40 -57 86 -125 102 -153 15 -27 42 -66 60 -85 18 -19 71 -104 119 -189
l87 -154 -28 -45 c-45 -73 -101 -96 -242 -101 -126 -4 -377 12 -546 35 -374
50 -475 65 -605 88 -79 14 -160 26 -180 26 -19 0 -81 9 -136 20 -56 11 -162
26 -235 34 -136 15 -435 57 -544 76 -80 14 -251 39 -350 50 -44 4 -102 13
-130 19 -27 6 -144 19 -260 30 -115 11 -280 27 -365 36 -299 29 -806 46 -1600
52 -962 7 -1811 -17 -2175 -61 -66 -8 -181 -20 -255 -26 -74 -6 -178 -18 -230
-25 -52 -8 -167 -24 -255 -35 -88 -11 -191 -27 -230 -35 -38 -8 -97 -17 -130
-21 -33 -3 -107 -14 -165 -24 -58 -10 -130 -21 -160 -25 -166 -18 -723 -98
-770 -110 -161 -41 -646 -95 -875 -98 -231 -3 -279 7 -347 71 -43 40 -49 50
-44 76 9 46 170 313 353 588 l65 98 41 -21 c71 -37 169 -70 262 -91 50 -11
108 -24 130 -29 70 -16 423 -23 513 -10 120 18 315 65 410 100 280 102 677
343 848 515 34 33 81 79 105 101 77 71 242 273 286 350 23 42 55 95 71 118 79
115 223 427 270 587 6 19 22 73 36 120 14 47 40 166 57 265 30 173 32 193 36
535 l5 355 20 -25 c11 -14 64 -92 118 -175z"/>
<path d="M6525 6212 c-133 -35 -178 -71 -230 -185 -22 -46 -25 -66 -20 -100
16 -92 60 -157 122 -178 39 -12 20 -22 250 133 116 78 143 91 288 142 88 30
179 60 203 67 23 7 42 15 42 19 0 14 -95 48 -220 80 -162 41 -329 49 -435 22z"/>
<path d="M7995 6205 c-111 -23 -218 -55 -265 -80 -29 -15 -29 -15 72 -39 37
-8 98 -28 135 -44 38 -16 100 -42 138 -57 39 -16 143 -79 233 -139 l163 -110
47 24 c70 38 106 95 110 178 3 60 0 73 -27 119 -38 64 -79 96 -173 135 -65 27
-86 30 -198 33 -101 3 -146 -1 -235 -20z"/>
<path d="M8382 3721 c4 -12 194 -227 244 -275 23 -23 101 -97 174 -166 73 -69
174 -164 224 -211 50 -47 120 -107 156 -134 36 -27 92 -72 125 -100 33 -28 88
-71 123 -94 34 -23 77 -55 96 -71 50 -45 386 -245 531 -317 72 -36 191 -91
265 -123 74 -32 171 -75 215 -95 107 -50 221 -91 330 -121 484 -130 731 -168
1050 -161 184 4 210 7 325 36 141 36 348 127 439 194 95 69 249 227 339 347
103 137 241 385 297 535 28 72 22 83 -14 30 -13 -19 -78 -90 -145 -158 -182
-185 -366 -301 -583 -368 -300 -93 -444 -113 -798 -113 -348 1 -419 11 -880
119 -364 85 -734 245 -1516 653 -317 166 -707 401 -895 540 -78 58 -110 74
-102 53z"/>
<path d="M6518 3667 c-36 -23 -99 -62 -138 -87 -39 -25 -99 -64 -133 -88 -34
-23 -98 -60 -142 -82 -44 -21 -98 -52 -120 -68 -87 -63 -175 -113 -274 -157
-57 -25 -127 -60 -155 -79 -105 -69 -215 -127 -272 -145 -32 -10 -111 -47
-175 -82 -111 -62 -163 -87 -424 -199 -311 -135 -757 -259 -1091 -305 -176
-24 -487 -29 -684 -11 -177 16 -277 38 -530 116 -160 49 -442 235 -538 354
-32 38 -81 96 -110 128 -72 80 -69 50 11 -122 160 -340 307 -541 530 -720 148
-119 292 -188 492 -236 95 -23 138 -27 325 -31 199 -5 228 -3 380 21 244 40
509 102 705 167 33 11 80 26 105 33 80 23 430 174 675 291 220 106 710 426
795 520 14 15 54 47 90 70 67 43 140 110 187 172 15 19 47 48 72 66 40 27 120
105 396 387 137 139 143 163 23 87z"/>
<path d="M6838 1886 c-92 -33 -225 -171 -249 -259 -22 -78 -8 -217 26 -263 13
-18 14 -18 36 1 12 11 39 46 60 79 l39 58 10 -26 c5 -15 10 -43 10 -61 0 -34
24 -81 93 -182 52 -77 80 -170 75 -250 -5 -73 -13 -83 -73 -83 -45 0 -99 25
-220 105 -242 157 -464 230 -629 205 -127 -19 -220 -81 -267 -177 -20 -40 -24
-63 -24 -138 0 -49 4 -107 8 -128 19 -89 308 -407 503 -553 93 -70 255 -152
362 -184 63 -19 91 -22 196 -18 114 3 128 6 187 35 125 62 218 166 319 358 70
133 123 215 135 212 6 -2 39 -61 75 -133 78 -155 105 -194 204 -300 94 -101
154 -140 253 -166 138 -35 271 -13 456 76 195 94 311 186 508 406 169 188 188
223 196 353 8 135 -6 187 -71 252 -76 78 -167 110 -301 109 -56 -1 -129 -9
-163 -18 -68 -17 -269 -115 -372 -181 -167 -107 -263 -134 -300 -85 -36 48
-35 83 8 178 22 48 51 113 65 144 21 46 33 61 69 79 67 34 123 75 178 131 42
43 50 57 50 88 0 112 -112 260 -240 319 -64 30 -79 33 -135 28 -79 -6 -116
-27 -215 -122 -101 -98 -111 -102 -213 -93 -45 4 -105 5 -132 2 -73 -8 -119
14 -197 95 -107 111 -211 146 -320 107z"/>
</g>
</svg>
