<?xml version="1.0" standalone="no"?>
<!DOCTYPE svg PUBLIC "-//W3C//DTD SVG 20010904//EN"
 "http://www.w3.org/TR/2001/REC-SVG-20010904/DTD/svg10.dtd">
<svg version="1.0" xmlns="http://www.w3.org/2000/svg"
 width="1500.000000pt" height="1446.000000pt" viewBox="0 0 1500.000000 1446.000000"
 preserveAspectRatio="xMidYMid meet">
<metadata>
Created by potrace 1.16, written by Peter Selinger 2001-2019
</metadata>
<g transform="translate(0.000000,1446.000000) scale(0.100000,-0.100000)"
fill="#000000" stroke="none">
<path d="M7185 14191 c-190 -154 -345 -462 -370 -734 l-7 -77 -59 85 c-165
242 -300 335 -535 370 -41 6 -114 -14 -114 -32 0 -5 15 -17 33 -27 108 -63
279 -222 378 -351 64 -84 69 -94 39 -73 -181 125 -352 188 -514 188 -77 0
-172 -16 -181 -30 -3 -4 32 -19 78 -34 45 -14 100 -35 122 -46 l40 -19 -80 7
c-122 11 -390 7 -480 -7 -193 -30 -459 -120 -432 -147 2 -2 30 2 63 11 74 19
177 19 286 0 96 -16 319 -83 388 -115 l45 -21 -95 8 c-168 14 -491 6 -682 -16
-426 -49 -649 -121 -1073 -347 -188 -101 -205 -111 -205 -125 0 -16 19 -10
104 31 93 44 214 81 341 105 113 21 127 15 35 -16 -113 -36 -331 -147 -454
-229 -160 -107 -359 -312 -330 -339 5 -5 52 8 108 30 140 55 151 56 66 9 -215
-120 -504 -338 -714 -540 -181 -174 -378 -422 -516 -650 -78 -128 -200 -366
-200 -389 0 -39 59 15 169 151 30 38 56 66 58 65 1 -2 -27 -53 -63 -113 -82
-137 -136 -248 -174 -362 -29 -88 -38 -142 -22 -142 20 0 119 118 200 240 49
74 110 158 136 185 l47 50 -41 -83 c-114 -233 -173 -410 -285 -865 -105 -428
-162 -599 -254 -765 -17 -32 -28 -41 -40 -37 -46 19 -238 44 -341 45 -432 1
-776 -208 -1063 -646 -183 -279 -307 -616 -352 -958 -23 -173 -16 -497 13
-631 62 -284 169 -477 391 -709 148 -154 173 -190 296 -426 51 -99 109 -201
128 -227 163 -223 483 -384 866 -437 143 -20 407 -21 526 -1 50 8 95 15 101
15 6 0 24 -18 39 -40 41 -59 59 -54 51 14 -6 51 -5 54 18 60 13 3 31 8 39 11
10 4 31 -24 72 -92 107 -180 240 -347 319 -399 19 -12 29 -34 45 -103 34 -144
59 -307 72 -466 6 -82 13 -152 15 -154 8 -9 53 30 73 63 21 33 31 75 48 201
l6 50 13 -85 c21 -137 26 -251 16 -315 -6 -33 -7 -64 -2 -68 14 -15 87 61 111
116 l24 52 2 -45 c22 -413 148 -857 311 -1098 47 -68 59 -79 74 -64 6 6 5 43
-6 108 -8 55 -18 133 -21 174 l-6 75 36 -105 c101 -296 308 -618 482 -749 75
-56 110 -63 105 -21 -1 14 -45 113 -97 220 -52 107 -95 202 -95 210 0 8 13 -7
28 -35 89 -161 217 -322 406 -511 174 -174 331 -304 500 -416 72 -48 131 -95
151 -121 17 -23 100 -144 184 -269 178 -267 240 -347 357 -457 576 -545 1693
-702 2557 -360 374 148 645 371 862 709 27 41 101 151 164 244 l116 169 110
73 c131 87 303 223 439 348 180 165 408 444 483 589 13 27 27 46 30 43 3 -3
-38 -94 -91 -203 -131 -270 -135 -303 -25 -233 174 113 411 472 513 780 19 58
35 100 36 95 1 -22 -30 -266 -39 -304 -6 -30 -5 -43 4 -51 17 -14 42 12 101
106 139 223 254 631 280 998 l7 98 29 -61 c28 -60 87 -119 107 -107 5 4 5 22
-1 48 -12 52 -3 262 16 368 13 75 13 75 15 24 2 -72 20 -163 41 -204 23 -44
65 -84 79 -75 6 3 11 32 11 63 0 87 28 312 55 452 35 172 43 198 64 205 55 17
265 285 351 448 14 26 28 47 33 47 4 0 23 -6 41 -14 34 -14 34 -15 25 -56 -16
-71 12 -83 51 -20 14 22 30 40 37 40 7 0 58 -7 115 -16 156 -25 460 -15 628
21 237 50 426 130 578 245 127 95 189 177 292 380 117 231 153 282 296 432
270 281 379 507 425 878 15 127 6 402 -20 550 -57 325 -172 626 -339 880 -246
377 -518 575 -872 636 -120 21 -345 14 -468 -14 l-83 -19 -14 21 c-33 50 -106
220 -143 331 -22 66 -61 208 -87 315 -128 530 -189 726 -296 950 l-60 125 41
-40 c23 -22 85 -104 137 -182 146 -219 225 -297 208 -205 -21 116 -96 288
-203 465 -80 135 -72 133 40 -5 128 -158 155 -155 79 7 -192 408 -501 805
-858 1103 -176 148 -406 309 -530 372 -35 17 -63 33 -63 35 0 5 123 -38 188
-66 25 -11 49 -16 54 -11 12 12 -45 92 -121 169 -155 157 -395 304 -651 398
l-95 35 60 -6 c107 -11 280 -61 385 -110 73 -34 104 -44 112 -36 15 15 -10 29
-327 187 -294 146 -426 196 -637 239 -280 57 -665 84 -921 66 -83 -5 -152 -8
-154 -6 -5 5 152 62 257 92 206 60 359 68 493 28 10 -3 17 0 17 9 0 26 -231
103 -400 133 -102 18 -373 24 -515 12 -73 -6 -78 -6 -50 7 17 8 72 28 123 45
50 18 92 35 92 40 0 29 -273 38 -345 10 -49 -19 -15 6 55 39 119 57 134 66
137 78 10 31 -101 34 -259 8 -223 -37 -461 -132 -584 -232 l-56 -45 21 40 c30
58 131 181 209 253 120 111 241 188 348 223 29 9 60 26 70 37 18 20 18 21 0
34 -10 8 -39 17 -65 21 -53 8 -260 -10 -371 -32 -151 -31 -335 -106 -467 -190
-29 -19 -53 -31 -53 -28 0 13 99 133 154 187 73 73 148 123 251 171 109 51
120 69 53 87 -28 7 -83 9 -153 6 -417 -22 -805 -245 -963 -552 -37 -72 -39
-60 -12 100 32 198 74 342 147 503 11 26 -25 10 -82 -37z m-6 -102 c-71 -196
-123 -504 -103 -608 10 -46 27 -33 45 35 76 280 373 517 759 605 92 21 300 36
345 25 25 -6 19 -10 -62 -50 -109 -54 -193 -116 -278 -208 -64 -69 -165 -210
-165 -229 0 -11 -1 -12 90 47 218 140 453 217 727 240 84 7 173 -1 173 -15 0
-4 -19 -13 -42 -20 -196 -57 -485 -311 -588 -515 -30 -60 -38 -96 -20 -96 5 0
41 28 79 63 84 76 209 143 351 191 122 41 307 76 394 76 l61 -1 -66 -27 c-76
-33 -193 -108 -228 -146 -30 -32 -26 -32 52 1 104 44 192 63 294 63 51 0 93
-3 93 -8 0 -4 -33 -18 -72 -30 -40 -12 -100 -37 -133 -54 -33 -17 -78 -37
-100 -45 -38 -13 -35 -13 55 -8 52 3 136 10 185 15 210 21 405 8 597 -39 l113
-27 -84 -7 c-220 -19 -589 -142 -657 -218 l-19 -22 38 7 c192 35 553 45 803
21 313 -30 528 -75 719 -150 107 -42 329 -145 323 -150 -2 -1 -43 6 -93 16
-49 10 -135 21 -190 25 l-100 6 53 -32 c29 -17 92 -44 140 -61 129 -45 338
-149 454 -226 93 -61 309 -256 297 -267 -2 -3 -70 17 -149 44 -80 27 -163 51
-185 55 l-40 7 60 -42 c33 -22 96 -59 139 -81 339 -173 759 -525 1026 -860
107 -134 230 -320 319 -484 75 -137 88 -173 44 -115 -72 92 -178 190 -208 190
-13 0 0 -26 70 -138 104 -167 168 -292 204 -395 52 -149 46 -144 -109 83 -64
95 -126 172 -179 224 -44 43 -101 108 -125 145 -47 69 -126 168 -126 157 0 -9
26 -49 77 -120 24 -32 43 -63 43 -70 0 -6 15 -32 33 -58 18 -25 40 -63 50 -84
174 -407 230 -568 312 -908 105 -437 148 -573 234 -744 23 -45 41 -83 41 -85
0 -3 -35 -17 -77 -32 -253 -88 -539 -279 -757 -504 l-78 -81 -52 29 c-28 16
-132 61 -231 101 -99 40 -181 73 -182 74 -1 1 60 1 135 1 123 0 142 2 184 23
45 23 128 101 128 121 0 20 -21 21 -67 6 -57 -20 -160 -22 -223 -5 -25 6 -78
29 -118 50 -59 32 -70 36 -62 19 34 -63 230 -124 349 -109 48 6 50 5 35 -11
-52 -58 -181 -80 -347 -59 -119 14 -121 14 -125 2 -4 -12 110 -67 278 -135
173 -70 297 -132 385 -195 73 -51 269 -221 263 -228 -2 -2 -82 20 -178 48
-170 49 -179 51 -309 52 -96 1 -135 -2 -138 -11 -3 -7 13 -16 39 -23 147 -37
299 -127 444 -263 78 -72 188 -197 180 -204 -7 -8 -100 38 -206 101 -52 31
-117 63 -144 71 -55 17 -116 20 -116 6 0 -4 42 -35 93 -67 184 -116 377 -341
476 -555 128 -277 157 -576 80 -825 -25 -79 -26 -78 -64 61 -15 54 -37 120
-50 145 -24 46 -71 98 -80 88 -4 -3 0 -37 7 -74 7 -38 13 -139 13 -224 0 -167
-13 -238 -60 -335 l-25 -50 6 87 c7 110 -5 290 -19 285 -6 -2 -12 -32 -14 -68
-21 -420 -418 -903 -977 -1188 -107 -55 -284 -126 -293 -117 -4 3 -53 214 -53
227 0 3 21 14 48 24 209 79 495 351 679 648 402 649 397 1398 -10 1796 -94 92
-177 146 -397 261 -107 56 -214 116 -239 133 -70 47 -163 146 -200 210 -33 57
-33 60 -29 155 4 70 22 174 67 372 93 411 112 532 118 752 13 469 -111 919
-354 1285 -401 603 -1267 946 -2002 793 -422 -88 -800 -339 -945 -627 -58
-117 -85 -283 -61 -377 9 -32 14 -61 11 -63 -8 -8 -58 66 -76 114 l-18 48 -11
-40 c-5 -22 -15 -62 -21 -90 -24 -106 -108 -222 -198 -273 l-40 -22 33 63 c40
75 67 174 63 230 l-3 42 -27 -42 c-26 -39 -79 -96 -85 -90 -1 2 7 28 19 58 79
204 -46 529 -283 730 -186 158 -456 286 -715 338 -375 76 -775 32 -1168 -129
-390 -161 -714 -441 -910 -787 -198 -350 -310 -852 -277 -1243 15 -184 38
-317 118 -670 54 -240 67 -312 67 -385 1 -86 -1 -93 -34 -149 -39 -66 -122
-153 -188 -198 -25 -17 -126 -73 -226 -126 -309 -161 -429 -254 -533 -409
-127 -191 -192 -420 -193 -673 -1 -486 243 -1026 626 -1390 136 -130 266 -218
367 -250 26 -8 37 -17 33 -26 -3 -8 -15 -61 -27 -119 -26 -121 -9 -114 -154
-58 -241 94 -506 268 -719 473 -243 234 -404 532 -419 776 -3 43 -9 80 -15 82
-13 4 -25 -190 -18 -291 l6 -82 -24 45 c-13 25 -32 73 -41 105 -24 88 -30 288
-12 420 9 61 13 112 11 114 -9 9 -57 -46 -79 -89 -12 -25 -35 -90 -50 -145
-36 -134 -39 -138 -58 -79 -66 200 -63 448 9 676 96 304 308 581 563 735 77
47 87 63 39 63 -58 0 -129 -27 -228 -86 -106 -63 -199 -109 -206 -101 -18 18
224 256 334 330 83 56 221 122 273 132 50 9 67 21 52 36 -8 8 -49 10 -140 7
-116 -5 -144 -10 -303 -56 -96 -28 -176 -50 -178 -48 -6 7 190 177 263 228 91
65 207 123 416 209 179 73 251 109 246 122 -4 12 -1 12 -119 -3 -176 -21 -299
0 -354 62 -19 20 -19 21 4 13 102 -31 333 31 380 103 13 20 5 17 -61 -18 -95
-52 -189 -72 -273 -61 -34 5 -72 14 -84 21 -23 12 -50 7 -50 -9 0 -17 61 -82
100 -106 57 -36 131 -48 247 -42 57 3 103 4 101 2 -2 -1 -84 -35 -183 -75 -99
-40 -203 -86 -232 -102 l-52 -29 -109 108 c-220 221 -478 390 -731 479 l-78
28 53 109 c73 150 133 339 215 682 70 292 98 384 194 640 29 77 58 158 65 180
16 51 89 204 129 273 38 63 35 69 -4 10 -16 -24 -67 -81 -115 -128 -61 -60
-114 -128 -182 -230 -53 -80 -105 -153 -116 -163 l-21 -19 18 59 c41 131 90
231 223 445 43 69 78 129 78 132 0 3 -6 6 -13 6 -25 0 -108 -73 -168 -147 -32
-41 -59 -69 -59 -62 0 18 94 190 178 324 150 240 373 506 574 683 221 195 457
365 639 460 122 64 229 132 208 132 -22 0 -197 -51 -284 -83 -38 -15 -71 -24
-73 -22 -10 9 103 126 178 186 157 125 371 239 585 314 44 16 100 41 125 57
l45 30 -95 -7 c-83 -5 -191 -21 -270 -40 -38 -9 101 62 228 117 209 89 434
144 747 180 209 24 734 13 863 -19 36 -9 25 15 -20 44 -135 85 -495 191 -663
194 l-40 0 45 15 c167 52 442 76 650 54 63 -6 153 -13 200 -15 77 -4 82 -3 50
8 -19 7 -69 29 -110 49 -41 20 -103 45 -137 55 -35 10 -63 21 -63 26 0 7 55
10 145 7 141 -4 339 -91 500 -219 55 -43 102 -77 103 -76 9 8 -54 114 -119
203 -88 119 -230 260 -328 327 l-73 50 46 3 c60 4 185 -31 256 -70 83 -47 214
-186 308 -325 46 -68 87 -123 93 -123 9 0 4 82 -6 116 -2 6 1 46 6 89 19 149
97 349 192 490 39 57 167 199 174 192 1 -2 -11 -41 -28 -88z m-989 -2454 c329
-43 648 -188 861 -392 131 -125 203 -239 241 -381 29 -108 27 -188 -7 -290
-15 -45 -25 -85 -22 -89 8 -7 51 20 91 56 l29 26 -7 -40 c-8 -45 -55 -151 -87
-197 -18 -25 -19 -32 -8 -39 8 -5 23 -6 34 -3 42 12 156 98 190 144 42 58 85
147 85 179 0 20 5 17 45 -27 46 -51 73 -66 95 -52 10 6 8 22 -9 71 -26 78 -28
201 -5 280 69 232 295 461 597 604 421 200 900 219 1397 55 217 -71 497 -232
668 -382 386 -341 624 -919 624 -1513 0 -232 -32 -432 -152 -955 -52 -225 -50
-350 6 -446 33 -57 151 -165 221 -201 485 -250 570 -307 685 -452 203 -255
273 -642 187 -1037 -97 -450 -382 -904 -735 -1170 -60 -46 -221 -132 -228
-122 -2 2 -17 46 -35 98 -143 415 -422 827 -771 1138 -181 161 -266 218 -755
507 -219 129 -510 312 -670 421 -169 115 -134 83 65 -60 169 -122 471 -313
777 -493 244 -143 393 -246 535 -369 436 -381 762 -921 865 -1434 24 -122 27
-157 27 -370 1 -187 -3 -257 -18 -340 -28 -164 -82 -388 -111 -463 -14 -38
-50 -141 -81 -229 -30 -89 -82 -222 -115 -297 -161 -363 -507 -974 -802 -1416
-54 -80 -308 -435 -328 -459 -5 -5 10 33 33 85 50 116 139 351 135 355 -2 2
-21 -36 -42 -84 -190 -430 -379 -754 -559 -961 -324 -373 -889 -606 -1546
-637 -307 -15 -734 57 -1026 171 -579 227 -860 549 -1259 1443 -15 34 -30 61
-32 59 -7 -8 139 -377 160 -405 5 -7 8 -15 5 -17 -5 -5 -242 321 -335 460
-354 533 -737 1228 -861 1565 -150 405 -205 599 -248 870 -23 144 -23 440 -1
575 20 118 47 236 57 250 4 6 10 26 14 46 19 107 162 421 272 600 150 242 401
525 624 704 143 114 190 146 410 275 425 250 913 568 985 643 19 19 -5 4 -190
-125 -106 -74 -460 -292 -665 -411 -420 -243 -595 -372 -820 -604 -289 -297
-518 -664 -630 -1008 -12 -38 -25 -73 -29 -77 -10 -12 -113 35 -191 88 -88 58
-268 228 -353 334 -390 484 -551 1117 -401 1578 59 179 134 303 250 411 72 67
192 150 284 196 30 15 131 68 223 118 181 98 283 180 325 262 48 95 48 222 2
421 -44 188 -110 504 -131 629 -32 188 -32 488 -1 670 76 438 221 768 456
1038 288 328 771 572 1241 625 128 15 342 13 465 -3z m-4269 -2655 c206 -42
407 -127 600 -256 141 -94 319 -247 390 -336 l29 -36 -77 -55 c-43 -30 -121
-93 -173 -139 -92 -81 -132 -130 -118 -144 4 -3 76 14 160 39 183 55 283 77
346 77 l47 -1 -90 -47 c-118 -61 -211 -129 -311 -224 l-80 -77 -87 99 c-220
250 -510 527 -650 622 -104 71 -181 101 -270 106 -44 3 -104 -1 -136 -8 -230
-50 -486 -291 -650 -612 -53 -104 -124 -278 -117 -285 2 -2 41 67 85 154 167
327 322 515 521 634 138 82 281 105 397 65 109 -37 261 -154 491 -380 97 -95
340 -355 380 -408 11 -14 6 -25 -37 -79 -33 -41 -48 -66 -41 -73 11 -11 80 7
129 35 18 11 34 19 35 17 1 -2 10 -13 20 -25 18 -22 18 -23 -39 -85 -115 -127
-234 -333 -290 -503 -42 -129 -57 -211 -62 -355 -4 -110 -1 -153 15 -230 21
-105 60 -211 79 -217 18 -6 39 43 73 168 17 62 39 131 50 154 l18 40 -6 -50
c-4 -27 -7 -120 -7 -205 0 -174 20 -271 76 -368 45 -78 68 -65 69 38 l0 45 33
-80 c38 -93 71 -151 140 -252 l49 -73 -28 -47 c-72 -125 -225 -227 -357 -240
-83 -7 -88 -23 -7 -23 73 0 163 29 234 74 54 34 151 134 169 173 6 13 14 22
18 21 3 -2 50 -49 103 -105 l96 -101 -41 -49 c-185 -214 -470 -335 -829 -350
-483 -20 -951 150 -1155 419 -28 37 -88 140 -134 230 -118 230 -155 283 -299
432 -179 186 -277 339 -342 534 -153 461 -71 1089 208 1597 163 296 396 541
623 655 119 60 215 88 394 114 63 9 257 -4 356 -24z m11554 19 c362 -44 652
-248 907 -639 318 -485 441 -1166 302 -1665 -33 -120 -128 -311 -204 -415 -34
-46 -110 -131 -168 -189 -120 -121 -181 -208 -277 -401 -90 -181 -140 -254
-234 -342 -161 -151 -380 -248 -691 -304 -136 -25 -461 -25 -584 -1 -267 54
-483 168 -614 325 l-44 52 99 105 c96 102 98 104 113 83 79 -115 164 -184 274
-224 69 -25 196 -34 196 -14 0 6 -20 10 -45 10 -59 0 -154 32 -219 74 -58 37
-142 125 -170 178 l-20 36 51 74 c68 100 111 178 144 262 l28 71 1 -55 c1
-103 31 -106 79 -8 17 35 38 90 46 123 21 76 30 287 17 385 -5 41 -8 77 -6 79
7 8 34 -68 64 -179 32 -117 54 -170 71 -170 13 0 45 77 72 174 18 68 22 107
22 241 0 171 -8 218 -57 375 -58 183 -172 385 -293 518 -56 61 -57 63 -41 87
l17 25 37 -19 c57 -29 121 -46 132 -35 7 7 -8 32 -40 72 -27 34 -50 65 -50 68
0 20 327 367 468 497 235 218 351 295 476 318 230 42 537 -172 748 -522 26
-42 78 -140 118 -218 39 -79 73 -141 76 -138 6 6 -43 130 -99 249 -190 404
-497 668 -777 668 -130 0 -230 -46 -400 -184 -106 -86 -371 -346 -514 -507
l-122 -135 -89 84 c-96 90 -224 180 -323 226 -34 16 -62 32 -62 36 0 8 142 -7
195 -21 22 -6 109 -31 193 -56 84 -25 156 -42 160 -39 14 14 -26 63 -117 143
-51 45 -120 101 -153 125 -118 84 -120 62 14 192 391 384 867 577 1293 525z
m-10057 -3782 c131 -87 301 -174 432 -221 l95 -34 -2 -44 c-8 -197 -4 -414 12
-513 45 -293 182 -748 319 -1060 195 -440 621 -1175 928 -1599 44 -59 78 -110
76 -111 -6 -6 -174 118 -285 210 -257 214 -480 469 -624 715 -38 66 -139 200
-139 185 0 -3 11 -54 25 -113 20 -87 41 -139 112 -279 48 -95 84 -176 80 -179
-4 -4 -49 35 -100 87 -201 202 -369 514 -446 831 -27 109 -68 227 -75 216 -5
-7 14 -280 29 -407 20 -177 20 -175 -22 -106 -140 231 -251 649 -272 1033 -5
83 -14 151 -23 172 l-15 35 -17 -94 c-15 -83 -52 -181 -73 -194 -5 -3 -8 47
-8 111 0 79 -10 174 -29 292 -28 176 -40 220 -50 190 -19 -56 -26 -108 -26
-195 0 -104 -20 -209 -45 -234 -11 -11 -14 -1 -20 65 -28 351 -89 633 -171
799 -44 89 -141 232 -150 222 -6 -6 53 -167 97 -263 16 -37 28 -68 26 -70 -7
-7 -126 144 -179 226 -62 96 -113 188 -107 193 2 2 40 23 84 46 106 56 166
103 250 193 l70 75 67 -53 c36 -30 116 -87 176 -127z m8472 113 c64 -74 160
-147 265 -201 44 -23 81 -43 83 -44 5 -5 -61 -121 -124 -216 -60 -91 -152
-204 -160 -196 -2 2 10 35 27 73 38 83 111 285 106 291 -7 6 -85 -85 -123
-142 -88 -132 -214 -687 -214 -942 0 -29 -4 -53 -8 -53 -30 0 -61 147 -62 288
0 83 -18 168 -32 154 -8 -8 -14 -40 -54 -301 -9 -61 -14 -145 -12 -202 3 -90
2 -96 -14 -83 -26 25 -55 103 -71 194 l-14 85 -15 -35 c-9 -21 -18 -87 -22
-165 -12 -219 -41 -396 -102 -614 -55 -197 -135 -387 -194 -461 l-21 -25 5 25
c16 78 46 429 46 515 l-1 40 -25 -60 c-14 -33 -31 -89 -39 -125 -63 -287 -213
-593 -399 -812 -56 -67 -153 -154 -161 -146 -3 2 31 74 74 159 43 85 86 176
95 202 15 44 55 217 51 217 -9 0 -110 -142 -159 -224 -34 -55 -81 -127 -104
-159 -173 -232 -448 -499 -697 -676 -48 -34 -89 -61 -90 -59 -2 2 14 27 36 56
157 206 451 671 658 1042 132 235 299 575 359 726 55 139 170 480 196 579 76
290 100 473 93 710 -3 99 -8 187 -12 196 -5 14 7 21 62 40 206 68 456 207 648
360 33 27 63 48 67 49 3 0 29 -27 58 -60z"/>
<path d="M5780 11025 c-212 -36 -390 -110 -605 -250 -70 -45 -202 -172 -213
-205 -8 -22 23 -8 62 28 116 107 374 217 596 256 260 45 520 18 741 -78 217
-93 328 -203 409 -403 19 -46 37 -83 41 -83 3 0 12 6 18 14 17 20 -3 171 -34
259 -80 232 -281 395 -563 457 -103 23 -333 26 -452 5z"/>
<path d="M8600 11021 c-283 -60 -498 -237 -571 -471 -22 -71 -44 -223 -35
-246 12 -32 34 -10 65 69 82 201 201 317 419 407 272 114 595 126 900 34 171
-51 369 -153 436 -223 28 -30 56 -41 56 -22 0 4 -37 47 -82 93 -163 168 -465
317 -737 362 -128 22 -341 20 -451 -3z"/>
<path d="M7070 10208 c0 -2 11 -36 24 -74 36 -107 64 -238 81 -380 23 -191 31
-582 15 -764 -7 -83 -11 -153 -8 -156 3 -3 16 48 29 113 22 107 24 143 24 383
-1 392 -33 632 -106 791 -26 57 -59 105 -59 87z"/>
<path d="M7653 10153 c-80 -153 -112 -342 -129 -773 -6 -169 1 -271 33 -445
17 -96 40 -144 30 -65 -26 204 -30 338 -18 577 6 136 19 297 27 357 16 115 62
305 88 369 25 58 2 44 -31 -20z"/>
<path d="M5615 10004 c-199 -27 -309 -58 -463 -130 -124 -57 -220 -123 -315
-213 -85 -81 -125 -133 -177 -226 -28 -51 -29 -57 -10 -40 12 11 37 43 55 70
145 224 438 408 766 481 92 21 329 24 414 6 343 -74 588 -259 741 -560 131
-255 182 -590 135 -878 -12 -72 -30 -158 -41 -190 -11 -32 -19 -66 -17 -74 4
-21 52 85 85 189 26 82 27 95 27 291 0 218 -10 291 -60 465 -122 420 -433 712
-839 790 -77 15 -252 26 -301 19z"/>
<path d="M9050 10004 c-243 -26 -420 -93 -587 -221 -212 -161 -353 -406 -425
-737 -19 -86 -22 -132 -22 -316 0 -175 3 -224 17 -265 9 -27 15 -51 12 -53 -8
-9 -55 163 -74 270 -29 166 -43 189 -36 58 5 -117 28 -214 76 -331 33 -80 49
-98 49 -56 1 14 13 -3 35 -48 40 -83 45 -61 11 45 -96 296 -61 710 84 1014
159 330 437 537 797 591 124 19 180 19 310 -1 324 -48 642 -228 804 -455 24
-34 57 -76 72 -93 l29 -31 -33 60 c-93 172 -255 323 -454 422 -93 47 -250 103
-344 123 -86 18 -256 31 -321 24z"/>
<path d="M6954 9888 c13 -20 57 -193 86 -339 13 -66 32 -331 30 -419 -3 -114
-1 -150 9 -150 15 0 23 307 12 441 -17 199 -95 472 -140 487 -10 3 -9 -2 3
-20z"/>
<path d="M7797 9892 c-9 -10 -23 -33 -31 -52 -26 -63 -75 -264 -86 -350 -18
-147 -10 -510 11 -510 5 0 9 75 9 168 0 92 5 216 10 276 11 111 70 392 95 453
16 38 15 40 -8 15z"/>
<path d="M5565 9799 c-142 -21 -341 -88 -465 -156 -254 -140 -469 -402 -565
-686 -28 -86 -45 -217 -26 -217 6 0 11 12 11 26 0 63 48 211 106 326 171 339
430 545 807 644 137 35 336 44 457 20 235 -48 435 -169 572 -348 35 -45 66
-87 70 -92 4 -6 10 -8 13 -4 9 8 -77 146 -124 200 -48 55 -164 144 -243 187
-167 91 -405 130 -613 100z"/>
<path d="M8955 9799 c-186 -27 -379 -124 -516 -259 -61 -61 -167 -216 -154
-228 3 -3 6 -3 8 -1 2 2 38 48 81 102 122 155 285 264 483 323 127 38 326 44
469 15 425 -88 711 -309 893 -692 49 -103 91 -237 91 -291 0 -15 5 -28 11 -28
17 0 4 122 -22 206 -28 90 -117 266 -180 351 -111 153 -274 291 -433 368 -240
117 -509 166 -731 134z"/>
<path d="M5537 9665 c-485 -92 -880 -498 -953 -979 -46 -299 68 -588 289 -738
198 -135 461 -198 762 -184 258 11 428 47 580 121 228 110 398 303 484 547 34
98 35 109 36 238 0 162 -17 241 -81 379 -188 401 -495 613 -909 626 -89 3
-155 0 -208 -10z m418 -49 c126 -32 279 -107 367 -180 153 -127 315 -381 363
-571 26 -103 25 -266 -4 -375 -44 -169 -134 -316 -269 -440 -164 -152 -363
-223 -698 -251 -362 -29 -687 55 -886 230 -144 127 -226 348 -215 575 7 143
36 254 101 391 164 342 487 587 852 645 98 15 276 4 389 -24z"/>
<path d="M5523 9351 c-118 -34 -192 -78 -283 -170 -130 -131 -190 -274 -190
-450 1 -297 194 -550 481 -627 93 -25 253 -22 344 6 171 53 321 179 393 331
53 112 67 174 66 299 -1 87 -6 119 -28 185 -37 109 -87 188 -168 267 -76 74
-187 136 -293 163 -81 21 -243 19 -322 -4z m-19 -272 c-2 -4 6 -15 18 -25 21
-19 21 -19 14 0 -5 16 -4 17 9 6 9 -7 12 -16 8 -19 -4 -3 -8 -32 -8 -64 0 -54
-3 -61 -34 -89 -30 -27 -38 -29 -85 -24 -28 3 -63 7 -78 8 -15 1 -24 6 -22 10
3 5 10 6 15 3 14 -9 10 7 -6 29 -33 44 -4 145 48 166 24 10 128 9 121 -1z
m-109 -314 c32 -31 32 -59 0 -91 -19 -19 -33 -24 -63 -22 -21 2 -39 8 -40 13
-14 80 -14 83 7 104 28 28 66 27 96 -4z m768 3 c24 -101 13 -218 -29 -305 -51
-106 -178 -202 -314 -238 -65 -17 -208 -19 -265 -4 -154 41 -290 178 -270 270
11 49 32 47 81 -9 99 -113 280 -161 422 -113 166 56 242 151 283 348 13 63 19
69 65 72 15 1 24 -6 27 -21z"/>
<path d="M8965 9669 c-153 -22 -318 -88 -441 -175 -77 -54 -176 -161 -243
-261 -233 -349 -251 -685 -56 -999 160 -257 419 -411 760 -453 361 -45 624
-13 864 105 102 50 125 66 200 143 97 97 146 183 182 317 31 112 31 305 1 427
-55 221 -166 412 -338 578 -261 250 -598 366 -929 318z m408 -53 c473 -121
847 -583 847 -1046 0 -171 -49 -329 -140 -452 -171 -232 -544 -354 -970 -319
-353 30 -548 107 -725 285 -106 107 -171 210 -214 341 -100 304 -34 577 216
888 129 160 335 279 548 316 33 6 71 13 85 15 64 12 258 -4 353 -28z"/>
<path d="M9017 9355 c-170 -43 -337 -179 -415 -336 -128 -260 -82 -541 122
-744 130 -129 270 -188 446 -189 116 0 181 15 285 64 331 160 460 555 288 883
-72 136 -207 252 -355 305 -91 32 -277 41 -371 17z m-26 -293 c26 -23 33 -38
37 -80 4 -49 2 -54 -31 -87 -30 -30 -42 -35 -81 -35 -88 0 -139 83 -101 164
33 70 120 88 176 38z m-113 -292 c12 -12 22 -33 22 -47 0 -28 -34 -73 -55 -73
-7 0 -17 -10 -24 -22 -6 -13 -9 -15 -7 -6 3 11 -7 29 -24 47 -35 35 -38 59 -9
95 25 32 66 34 97 6z m773 -15 c4 -16 7 -59 8 -95 3 -212 -133 -376 -360 -435
-87 -23 -242 -16 -319 14 -114 43 -226 177 -211 251 9 47 40 52 64 11 24 -40
84 -86 154 -118 138 -62 320 -32 440 71 53 46 106 151 123 242 13 74 30 97 70
92 19 -2 27 -11 31 -33z"/>
<path d="M6881 8793 c-6 -27 -18 -88 -26 -136 -9 -49 -31 -137 -50 -196 -36
-112 -40 -131 -27 -131 11 0 71 147 93 230 19 70 39 280 27 280 -4 0 -11 -21
-17 -47z"/>
<path d="M7340 8440 c-52 -10 -101 -27 -185 -66 -78 -36 -49 -44 37 -11 142
56 213 62 376 32 49 -9 102 -15 118 -13 l29 4 -27 11 c-74 32 -274 56 -348 43z"/>
<path d="M7375 8229 c-38 -5 -110 -20 -159 -34 -94 -27 -263 -101 -253 -111 3
-3 49 11 103 31 192 72 229 79 434 79 l185 1 104 -37 c58 -21 107 -35 110 -33
14 15 -91 63 -198 91 -71 18 -238 25 -326 13z"/>
<path d="M4336 8150 c-49 -105 -41 -252 20 -371 82 -163 312 -295 599 -344
127 -21 370 -21 525 0 148 21 416 78 517 111 193 63 391 178 535 312 77 72 44
68 -45 -5 -201 -163 -368 -245 -632 -308 -486 -117 -815 -121 -1107 -15 -271
99 -410 271 -411 505 0 67 4 99 17 123 10 19 15 36 12 39 -3 3 -17 -18 -30
-47z"/>
<path d="M10477 8163 c11 -26 16 -66 16 -128 -1 -285 -201 -472 -595 -557
-248 -52 -659 -14 -1046 98 -170 49 -380 165 -521 288 -85 74 -104 59 -20 -17
134 -122 346 -244 524 -301 89 -29 250 -66 425 -97 165 -31 471 -38 612 -14
205 33 389 113 502 217 142 130 193 338 122 495 -28 60 -44 74 -19 16z"/>
<path d="M6495 8039 c-204 -179 -455 -307 -715 -364 -114 -25 -401 -31 -527
-11 -113 17 -244 56 -318 94 -129 65 -255 179 -315 285 -17 31 -34 57 -36 57
-2 0 6 -24 17 -52 75 -191 261 -333 521 -397 475 -116 1033 29 1383 361 78 73
98 99 78 98 -5 -1 -44 -33 -88 -71z"/>
<path d="M8240 8101 c0 -18 169 -168 251 -222 407 -271 918 -342 1345 -188
169 62 311 183 379 323 44 93 46 120 2 41 -132 -237 -394 -377 -750 -403 -412
-30 -789 97 -1120 377 -96 81 -107 89 -107 72z"/>
<path d="M4126 7911 c-3 -4 -10 -41 -17 -81 -24 -159 38 -306 174 -407 145
-107 345 -168 627 -188 146 -11 417 23 493 62 47 24 26 24 -69 2 -117 -27
-392 -37 -531 -19 -291 36 -514 145 -611 298 -46 72 -65 149 -60 253 1 49 2
89 1 89 -1 0 -4 -4 -7 -9z"/>
<path d="M10695 7807 c0 -151 -21 -203 -119 -302 -120 -122 -304 -196 -556
-226 -178 -20 -465 -2 -592 37 -29 9 -20 -13 10 -25 110 -44 351 -68 529 -52
244 22 428 78 561 171 114 80 173 169 194 292 10 63 -3 201 -20 212 -4 2 -7
-46 -7 -107z"/>
<path d="M6848 7685 c-135 -33 -303 -135 -444 -268 -172 -162 -250 -313 -269
-520 -9 -92 10 -109 20 -19 25 216 119 389 296 541 183 159 356 241 505 241
149 0 281 -70 372 -197 77 -109 84 -113 49 -33 -86 200 -309 308 -529 255z"/>
<path d="M7910 7690 c-130 -27 -255 -128 -307 -247 -18 -40 -30 -73 -28 -73 2
0 28 35 58 79 64 91 109 129 203 173 189 88 413 24 673 -193 178 -148 276
-317 303 -521 12 -94 28 -118 28 -43 0 63 -27 187 -57 261 -84 210 -364 459
-613 546 -64 22 -195 31 -260 18z"/>
<path d="M6856 7269 c-113 -28 -236 -132 -295 -250 -38 -77 -43 -164 -12 -216
57 -93 262 -138 451 -98 188 40 261 115 247 259 -9 89 -33 150 -83 205 -78 87
-201 127 -308 100z"/>
<path d="M7960 7267 c-97 -27 -174 -98 -209 -191 -43 -114 -37 -213 16 -276
92 -110 412 -146 573 -65 54 27 74 48 95 100 22 51 13 106 -30 193 -87 173
-291 283 -445 239z"/>
<path d="M5549 6073 c-252 -267 -418 -585 -495 -948 -48 -226 -42 -554 11
-682 12 -28 18 -33 28 -24 10 8 12 23 6 58 -4 27 -13 114 -19 195 -19 239 7
443 89 688 90 270 249 541 429 735 29 30 52 58 52 60 0 17 -28 -6 -101 -82z"/>
<path d="M6291 5711 c-108 -182 -152 -363 -170 -705 -11 -203 -6 -288 18 -284
24 5 29 41 30 214 2 347 54 627 146 791 41 74 22 60 -24 -16z"/>
<path d="M8274 5760 c3 -8 21 -53 40 -100 66 -163 85 -315 86 -692 0 -223 2
-258 15 -258 17 0 21 74 17 340 -3 277 -31 443 -102 614 -26 62 -73 142 -56
96z"/>
<path d="M9594 5730 c88 -135 118 -223 180 -520 57 -272 70 -378 63 -512 -3
-59 -2 -110 3 -113 39 -24 54 196 25 368 -25 148 -107 470 -144 562 -32 80
-83 169 -122 215 l-21 25 16 -25z"/>
<path d="M6091 5559 c-73 -163 -112 -332 -115 -491 -1 -93 7 -126 23 -100 4 8
11 66 14 130 11 186 45 355 97 469 16 35 25 63 21 63 -5 0 -23 -32 -40 -71z"/>
<path d="M10025 4631 c-3 -5 0 -29 6 -53 19 -72 6 -113 -59 -178 -101 -100
-225 -140 -499 -161 -282 -20 -498 6 -1053 130 -583 130 -854 159 -1360 147
-699 -16 -1113 -71 -1779 -235 -294 -73 -337 -76 -385 -24 -21 22 -27 24 -40
14 -25 -21 -19 -38 21 -68 52 -40 143 -43 283 -10 89 20 118 23 190 17 191
-16 284 -70 477 -278 298 -319 430 -438 650 -585 191 -128 376 -208 583 -253
69 -16 127 -19 310 -19 205 1 236 3 350 27 69 15 184 47 257 72 351 121 536
236 921 572 319 280 340 295 517 383 118 59 178 83 230 92 188 32 334 103 386
187 12 18 41 46 65 63 l45 30 -31 36 c-17 19 -39 51 -48 69 -16 35 -26 41 -37
25z m-2345 -175 c233 -23 345 -43 756 -136 424 -95 664 -130 883 -130 l106 0
-80 -42 c-148 -76 -162 -87 -451 -343 -284 -252 -436 -362 -639 -463 -457
-228 -934 -283 -1327 -152 -147 49 -292 121 -433 215 -194 130 -339 263 -605
554 -163 180 -274 257 -409 284 l-64 13 194 43 c387 84 769 139 1119 161 91 6
192 12 225 14 119 7 583 -4 725 -18z"/>
<path d="M6246 2798 c35 -116 153 -257 299 -360 328 -232 798 -315 1230 -216
300 69 635 234 785 387 123 126 123 173 0 58 -197 -185 -491 -328 -815 -397
-156 -33 -396 -38 -552 -11 -262 46 -450 121 -633 255 -79 58 -132 108 -222
213 -80 93 -105 113 -92 71z"/>
<path d="M1484 8038 c-348 -230 -564 -621 -564 -1022 0 -191 49 -387 136 -544
43 -78 42 -77 50 -70 3 3 -13 48 -34 99 -93 219 -117 343 -109 552 9 228 72
415 210 624 83 126 254 304 366 382 112 77 70 61 -55 -21z"/>
<path d="M2217 7861 c-190 -203 -299 -564 -300 -991 0 -171 11 -265 50 -415
49 -191 119 -348 188 -420 43 -46 66 -45 26 1 -65 73 -142 263 -192 469 -68
285 -32 746 82 1044 35 92 108 219 168 290 40 47 50 71 32 71 -4 0 -29 -22
-54 -49z"/>
<path d="M710 6743 c0 -6 22 -65 50 -132 88 -214 171 -343 315 -487 107 -108
199 -181 360 -289 227 -152 354 -205 536 -225 104 -12 228 -5 212 11 -4 4 -66
13 -138 19 -165 13 -236 31 -360 89 -109 52 -323 192 -451 294 -205 166 -381
404 -485 657 -23 57 -39 83 -39 63z"/>
<path d="M13390 8117 c0 -3 36 -31 81 -62 44 -31 124 -100 177 -154 209 -209
340 -455 386 -721 39 -225 6 -437 -108 -698 -41 -95 -29 -105 21 -16 46 83 91
202 116 308 28 123 29 344 3 466 -68 314 -254 597 -511 774 -102 71 -165 110
-165 103z"/>
<path d="M12727 7904 c-3 -3 22 -43 56 -87 110 -145 182 -315 226 -532 48
-239 53 -571 13 -760 -43 -195 -118 -387 -187 -478 -43 -56 -33 -62 17 -9 52
54 101 149 148 288 59 179 80 287 87 460 15 374 -67 753 -208 961 -58 86 -139
169 -152 157z"/>
<path d="M14279 6731 c-22 -62 -115 -245 -163 -321 -139 -225 -342 -412 -643
-597 -202 -124 -296 -156 -516 -173 -72 -6 -133 -13 -136 -15 -14 -15 23 -20
127 -19 216 3 366 58 622 229 280 187 472 377 585 579 46 82 147 326 141 340
-2 6 -10 -4 -17 -23z"/>
</g>
</svg>
