<?xml version="1.0" standalone="no"?>
<!DOCTYPE svg PUBLIC "-//W3C//DTD SVG 20010904//EN"
 "http://www.w3.org/TR/2001/REC-SVG-20010904/DTD/svg10.dtd">
<svg version="1.0" xmlns="http://www.w3.org/2000/svg"
 width="1500.000000pt" height="1500.000000pt" viewBox="0 0 1500.000000 1500.000000"
 preserveAspectRatio="xMidYMid meet">
<metadata>
Created by potrace 1.16, written by Peter Selinger 2001-2019
</metadata>
<g transform="translate(0.000000,1500.000000) scale(0.100000,-0.100000)"
fill="#000000" stroke="none">
<path d="M2675 13204 c-240 -53 -383 -246 -451 -605 -22 -114 -30 -545 -15
-733 40 -477 176 -1342 283 -1791 l31 -130 -138 -135 c-553 -543 -1076 -1191
-1670 -2070 -76 -113 -155 -227 -176 -253 -45 -58 -57 -114 -40 -195 7 -31 32
-174 56 -317 296 -1765 1284 -3256 2840 -4290 894 -594 1910 -963 3040 -1105
358 -44 517 -54 915 -54 390 -1 503 5 850 45 1458 167 2837 747 3920 1649 464
387 888 838 1227 1305 555 766 931 1617 1123 2547 16 79 38 153 50 173 40 65
51 42 -356 757 -293 514 -377 653 -547 907 -249 371 -485 670 -747 944 l-100
105 36 78 c97 212 241 844 299 1309 40 329 46 854 11 1101 -41 289 -150 509
-299 605 -92 59 -150 74 -292 73 -257 -2 -541 -94 -892 -289 -499 -277 -922
-588 -1322 -974 l-95 -91 -230 94 c-567 232 -893 332 -1346 411 -288 50 -466
66 -805 72 -279 5 -352 3 -565 -17 -706 -63 -1321 -236 -2110 -595 -115 -52
-214 -95 -219 -95 -6 0 -15 8 -20 18 -19 35 -718 711 -997 964 -220 200 -562
433 -749 512 -176 73 -366 100 -500 70z m256 -190 c247 -56 537 -242 959 -614
166 -146 498 -462 699 -663 l183 -184 -53 -30 c-30 -17 -118 -65 -197 -108
l-142 -77 -28 24 c-15 12 -122 119 -237 237 -240 244 -404 391 -590 531 -227
169 -319 212 -455 214 -65 0 -94 -4 -124 -19 -82 -40 -135 -118 -167 -245 -10
-39 -14 -120 -14 -275 0 -298 24 -462 161 -1102 35 -166 64 -311 64 -322 0
-13 -54 -67 -161 -161 -89 -77 -163 -140 -165 -138 -8 9 -158 943 -208 1298
-61 432 -80 710 -66 951 34 561 194 762 541 683z m9715 -89 c95 -28 170 -116
224 -262 63 -173 85 -394 77 -776 -9 -486 -81 -982 -213 -1472 -32 -118 -97
-315 -104 -315 -6 0 -368 315 -414 360 l-28 28 56 134 c135 324 250 750 278
1030 26 264 -39 471 -166 529 -94 42 -256 19 -489 -70 -228 -88 -331 -136
-692 -324 -181 -94 -368 -191 -415 -216 l-85 -44 -148 78 -148 77 28 30 c36
38 247 220 378 325 401 322 897 637 1208 767 269 113 523 160 653 121z m-9496
-789 c40 -14 91 -37 114 -52 83 -54 268 -195 329 -251 139 -126 607 -580 607
-589 0 -3 -80 -57 -177 -121 -256 -168 -410 -275 -651 -455 -117 -87 -216
-158 -220 -158 -9 0 -100 463 -131 665 -51 330 -64 460 -65 655 -1 212 7 264
49 306 30 30 55 30 145 0z m5024 9 c708 -63 1391 -267 2135 -639 437 -219 847
-477 1321 -829 359 -268 769 -614 965 -817 l60 -63 -35 7 c-219 41 -629 97
-960 130 -512 52 -1045 45 -1465 -18 -641 -97 -1207 -346 -1651 -727 -435
-373 -746 -923 -874 -1544 -23 -110 -50 -319 -50 -381 l0 -43 -52 -6 c-29 -4
-75 -5 -103 -3 l-49 3 -13 90 c-78 530 -138 763 -274 1044 -270 563 -873 1057
-1616 1326 -349 127 -901 252 -1282 291 -225 23 -914 30 -1176 11 -115 -9
-212 -13 -215 -10 -15 16 486 436 774 648 740 545 1598 990 2471 1281 441 146
795 216 1295 253 194 14 611 12 794 -4z m4115 -153 c23 -22 30 -42 39 -105 16
-106 15 -140 -9 -302 -43 -296 -146 -658 -258 -908 l-30 -67 -243 183 c-234
175 -611 434 -826 567 l-102 63 112 60 c580 303 973 478 1173 522 92 20 113
18 144 -13z m-8379 -2192 c429 -18 758 -75 1235 -211 432 -124 705 -242 980
-423 308 -203 615 -509 765 -761 149 -253 216 -472 300 -988 27 -169 56 -323
64 -341 22 -52 43 -59 165 -51 134 8 257 23 299 36 20 7 38 22 48 40 8 17 26
114 40 217 29 217 60 366 116 546 136 444 323 761 628 1066 471 471 1075 733
1910 827 216 24 801 24 1090 0 399 -34 736 -80 1046 -143 324 -65 310 -54 654
-514 124 -166 344 -489 337 -496 -2 -2 -107 27 -233 65 -1136 342 -2066 428
-2959 274 -493 -84 -924 -247 -1277 -482 -175 -117 -249 -177 -392 -319 -243
-241 -452 -543 -576 -836 -59 -140 -134 -399 -126 -438 10 -50 35 -73 236
-223 701 -524 1017 -849 1224 -1262 l26 -52 -53 -29 c-28 -16 -126 -71 -217
-122 -249 -139 -378 -219 -395 -243 -35 -50 2 -127 62 -127 17 0 153 67 346
170 175 94 321 170 326 170 15 0 80 -249 81 -307 0 -18 -9 -23 -57 -33 -202
-41 -355 -83 -383 -107 -53 -44 -33 -126 33 -138 19 -3 100 9 202 30 93 19
182 35 197 35 l28 0 0 -170 c0 -129 -3 -170 -12 -170 -7 0 -31 5 -53 10 -22 6
-175 26 -339 45 -240 29 -306 33 -332 25 -76 -25 -87 -111 -18 -148 11 -6 105
-22 210 -36 393 -54 504 -76 504 -101 0 -27 -53 -196 -97 -305 -245 -622 -705
-1083 -1311 -1314 -350 -134 -833 -170 -1252 -95 -413 75 -767 254 -1063 539
-171 165 -268 294 -363 482 -87 173 -147 360 -179 558 -25 156 -33 141 103
183 135 42 240 68 366 93 91 18 143 47 147 84 7 66 -28 110 -88 110 -45 0
-318 -58 -450 -96 -52 -15 -96 -24 -99 -21 -6 5 21 275 28 282 3 3 43 -7 89
-21 151 -47 156 -48 190 -34 18 8 37 27 47 47 14 30 14 36 -1 68 -19 40 -56
61 -181 101 -49 16 -90 34 -93 39 -4 12 133 364 147 379 5 5 45 -16 97 -52
234 -163 265 -182 294 -182 41 0 79 39 79 81 0 40 -20 59 -218 208 -84 63
-152 120 -152 125 0 18 132 222 212 330 280 374 615 718 956 983 95 74 180
145 188 159 11 16 15 37 11 62 -8 58 -83 240 -174 423 -219 440 -469 736 -884
1049 -607 458 -1319 728 -2083 791 -197 16 -885 6 -1081 -15 -330 -37 -588
-85 -820 -153 -167 -50 -170 -50 -157 -27 6 11 97 111 203 224 105 113 268
286 360 386 93 99 181 186 195 193 51 23 548 53 974 59 58 1 206 -3 330 -8z
m70 -855 c743 -89 1337 -324 1905 -754 331 -251 549 -489 727 -797 60 -104
245 -501 237 -508 -2 -1 -59 -44 -125 -94 -177 -134 -277 -223 -479 -426 -247
-248 -433 -474 -649 -788 -48 -71 -89 -128 -91 -128 -3 0 -44 24 -92 53 -118
72 -469 268 -623 350 -575 303 -1316 556 -2081 711 -184 37 -490 76 -596 76
-108 0 -146 -36 -117 -109 22 -54 52 -66 229 -85 648 -72 1435 -290 2110 -586
298 -130 559 -266 877 -457 l207 -124 -20 -52 c-91 -230 -163 -397 -173 -397
-31 0 -463 84 -473 92 -6 5 -15 28 -18 51 -11 67 -62 195 -104 266 -257 429
-894 660 -1428 516 -340 -91 -577 -292 -676 -573 -29 -80 -31 -98 -32 -217 0
-147 14 -214 69 -332 150 -316 460 -536 880 -624 133 -28 361 -31 488 -6 415
82 710 321 793 641 8 33 19 64 24 69 9 9 409 -59 431 -73 11 -7 -16 -399 -29
-411 -3 -4 -112 -46 -241 -94 -468 -173 -863 -345 -1275 -553 -330 -167 -372
-202 -334 -275 16 -30 28 -37 68 -37 35 0 52 7 511 220 478 222 713 323 994
429 147 55 274 101 281 101 9 0 18 -22 25 -57 53 -283 106 -448 210 -658 201
-404 495 -689 939 -910 450 -224 884 -294 1429 -229 787 93 1396 510 1825
1249 96 166 177 363 223 544 10 40 24 76 31 78 20 8 1024 -332 1128 -381 50
-24 117 -64 151 -89 59 -45 101 -67 129 -67 7 0 27 12 44 26 25 20 31 34 31
64 0 31 -8 46 -42 82 -113 116 -210 159 -862 378 l-549 185 3 130 c1 72 5 168
9 215 l6 85 230 32 c127 18 243 32 260 30 29 -2 30 -3 41 -84 14 -100 36 -168
81 -254 118 -228 388 -407 693 -460 94 -16 352 -17 446 -1 384 64 748 319 880
617 64 146 82 341 44 489 -40 159 -160 329 -310 439 -279 207 -752 256 -1128
118 -307 -112 -550 -328 -654 -583 l-31 -76 -81 -12 c-45 -6 -173 -23 -286
-39 -113 -16 -207 -27 -208 -25 -2 1 -26 88 -52 193 l-48 191 72 34 c104 49
424 187 631 271 614 250 1363 497 1757 579 177 37 219 52 243 90 19 28 11 78
-16 102 -61 55 -418 -19 -979 -206 -620 -206 -1101 -389 -1568 -597 -119 -54
-217 -92 -222 -87 -4 5 -31 52 -60 104 -125 228 -279 432 -474 625 -119 118
-280 253 -576 482 -271 210 -355 280 -358 297 -5 26 53 196 110 316 26 58 83
163 125 233 405 673 1026 1090 1876 1256 667 131 1390 116 2182 -45 354 -72
797 -196 1034 -288 79 -31 153 -56 166 -56 12 0 32 -8 43 -17 12 -10 108 -171
215 -358 107 -187 224 -391 260 -452 36 -62 71 -129 77 -148 18 -54 14 -131
-15 -265 -313 -1486 -1079 -2738 -2292 -3747 -1473 -1225 -3443 -1814 -5401
-1613 -850 88 -1666 326 -2443 716 -1551 776 -2739 2157 -3220 3744 -121 397
-209 826 -225 1090 l-6 95 35 57 c19 31 122 175 228 320 542 739 636 867 671
909 37 46 39 47 76 37 32 -8 56 -3 167 32 195 62 356 97 660 145 210 32 404
54 573 65 207 13 713 4 872 -15z m-239 -3350 c160 -27 345 -101 470 -186 81
-54 193 -166 243 -242 21 -32 51 -94 67 -138 l29 -79 -28 0 c-15 0 -101 9
-192 19 -91 11 -235 22 -321 26 -179 7 -217 -1 -238 -53 -16 -38 5 -84 46
-100 15 -6 99 -15 185 -21 132 -9 443 -48 527 -67 21 -5 23 -8 17 -47 -4 -23
-23 -76 -42 -117 -28 -60 -53 -93 -127 -166 -77 -76 -109 -99 -187 -138 -228
-112 -538 -142 -792 -77 -228 59 -462 209 -596 381 -66 85 -122 255 -122 369
0 313 289 583 685 640 97 14 286 12 376 -4z m8104 -143 c44 -12 132 -47 195
-79 94 -47 128 -71 185 -128 114 -113 166 -235 167 -392 0 -142 -54 -273 -167
-406 -191 -224 -527 -358 -860 -344 -426 19 -734 255 -762 583 l-6 71 74 11
c41 7 200 21 354 32 362 27 359 27 395 56 40 34 42 89 5 124 -37 35 -104 35
-460 6 -165 -13 -302 -23 -304 -21 -8 8 44 93 96 158 134 166 345 284 608 338
125 26 365 21 480 -9z"/>
<path d="M7280 6091 c-149 -12 -245 -27 -409 -67 -247 -60 -283 -82 -340 -204
-23 -49 -26 -66 -25 -160 2 -128 32 -237 104 -385 86 -177 267 -426 389 -536
63 -58 201 -152 255 -174 33 -14 36 -19 36 -55 0 -60 -54 -214 -107 -310 -60
-106 -166 -216 -243 -252 -183 -86 -401 -54 -572 85 -84 67 -100 77 -136 77
-44 0 -82 -38 -82 -82 0 -47 29 -89 102 -147 218 -174 540 -220 763 -109 146
73 234 172 348 390 l56 107 82 -160 c119 -231 203 -315 379 -380 163 -59 329
-61 505 -5 203 64 413 248 389 340 -9 36 -50 66 -90 66 -27 0 -47 -14 -119
-80 -136 -126 -259 -175 -435 -174 -103 1 -158 12 -235 51 -152 75 -302 330
-328 558 l-4 40 89 43 c73 35 104 58 171 125 147 147 332 409 451 637 177 341
165 525 -41 632 -87 46 -237 94 -355 113 -109 19 -444 27 -598 16z"/>
<path d="M3510 8744 c-112 -20 -198 -49 -301 -101 -191 -95 -346 -297 -357
-465 -5 -90 9 -147 50 -194 95 -108 230 -98 396 27 120 92 242 145 492 214 61
16 114 38 147 61 126 86 135 242 21 356 -48 48 -101 74 -195 99 -87 22 -146
23 -253 3z m267 -209 c28 -13 57 -33 63 -46 11 -20 10 -25 -14 -46 -15 -12
-52 -30 -84 -38 -213 -59 -303 -98 -516 -223 -77 -45 -151 -82 -164 -82 -24 0
-25 2 -19 59 7 80 45 147 126 224 168 158 443 227 608 152z"/>
<path d="M11190 8649 c-67 -13 -164 -65 -201 -106 -73 -84 -103 -217 -66 -290
41 -78 141 -137 294 -173 119 -28 227 -80 336 -164 48 -37 125 -86 170 -109
70 -35 93 -42 155 -46 95 -4 148 16 200 75 49 55 66 114 60 202 -14 188 -176
333 -551 490 -330 137 -324 135 -397 121z m270 -272 c230 -92 267 -112 375
-198 88 -70 115 -108 115 -164 0 -51 -14 -65 -61 -65 -46 0 -106 32 -233 124
-163 118 -261 165 -384 185 -89 14 -161 48 -169 79 -12 51 58 122 121 122 17
0 123 -37 236 -83z"/>
<path d="M4454 8061 c-238 -61 -425 -384 -465 -804 -20 -204 21 -467 97 -625
48 -100 143 -200 226 -237 134 -61 275 -25 402 101 94 94 181 268 221 440 24
103 44 248 38 276 -4 24 -12 28 -62 38 -210 42 -282 85 -266 161 9 39 51 86
175 194 l99 86 -14 40 c-47 133 -142 251 -239 299 -68 34 -154 46 -212 31z"/>
<path d="M10430 8061 c-121 -37 -239 -163 -311 -332 -17 -39 -29 -72 -27 -74
2 -1 52 -29 112 -61 161 -87 194 -127 161 -198 -23 -48 -84 -91 -238 -167
l-127 -64 5 -60 c27 -291 52 -400 120 -540 157 -322 418 -397 630 -180 273
278 340 971 134 1393 -64 133 -161 237 -252 271 -59 21 -156 27 -207 12z"/>
</g>
</svg>
