<?xml version="1.0" standalone="no"?>
<!DOCTYPE svg PUBLIC "-//W3C//DTD SVG 20010904//EN"
 "http://www.w3.org/TR/2001/REC-SVG-20010904/DTD/svg10.dtd">
<svg version="1.0" xmlns="http://www.w3.org/2000/svg"
 width="1500.000000pt" height="1500.000000pt" viewBox="0 0 1500.000000 1500.000000"
 preserveAspectRatio="xMidYMid meet">
<metadata>
Created by potrace 1.16, written by Peter Selinger 2001-2019
</metadata>
<g transform="translate(0.000000,1500.000000) scale(0.100000,-0.100000)"
fill="#000000" stroke="none">
<path d="M7305 11329 c-33 -5 -226 -15 -430 -23 -203 -9 -442 -23 -530 -31
-437 -43 -955 -157 -1211 -266 -174 -75 -381 -205 -530 -336 l-72 -62 -144 73
c-896 452 -1722 428 -2032 -58 -239 -373 -129 -971 288 -1569 152 -219 390
-482 597 -663 57 -49 118 -103 137 -119 l34 -30 -92 -225 c-150 -368 -185
-475 -222 -680 -21 -119 -18 -499 6 -630 102 -572 406 -1097 929 -1607 693
-674 1698 -1181 2712 -1368 638 -118 1164 -96 1845 75 743 186 1474 545 2052
1007 818 653 1277 1451 1278 2220 0 279 -45 497 -166 793 -41 102 -96 238
-121 302 l-46 118 29 22 c188 146 468 430 635 643 248 317 434 692 496 1001
24 124 24 372 -1 469 -26 103 -95 241 -155 313 -348 417 -1125 413 -1970 -9
l-153 -77 -96 81 c-191 160 -441 302 -655 372 -240 78 -611 156 -917 194 -228
28 -267 31 -680 47 -201 8 -396 18 -435 24 -84 11 -296 10 -380 -1z m558 -81
c227 -96 334 -240 432 -580 62 -212 95 -407 190 -1118 30 -228 69 -502 85
-608 43 -281 53 -434 47 -687 -6 -238 -15 -332 -53 -553 -61 -365 -180 -727
-334 -1020 -58 -110 -189 -312 -203 -312 -5 0 -32 20 -59 45 -65 58 -159 111
-256 143 -66 22 -96 26 -207 26 -110 1 -142 -3 -205 -22 -99 -32 -176 -72
-247 -128 -32 -26 -64 -52 -71 -57 -15 -12 -19 -7 -103 118 -33 50 -89 147
-124 216 -244 479 -375 1053 -375 1638 0 213 13 359 59 666 17 110 53 371 81
580 60 449 83 605 116 780 86 460 207 712 394 819 136 78 121 75 468 76 301 0
315 -1 365 -22z m-886 -38 c-109 -73 -180 -169 -250 -340 -91 -221 -146 -494
-237 -1180 -22 -168 -64 -462 -92 -655 l-52 -350 -1 -335 c0 -216 5 -369 13
-430 82 -613 248 -1097 509 -1483 l73 -109 -34 -47 c-92 -125 -145 -279 -153
-446 -9 -178 38 -369 97 -400 73 -38 125 -3 140 92 18 111 47 187 91 237 35
40 46 46 79 46 102 0 170 -137 190 -385 18 -219 19 -210 -32 -315 -79 -163
-175 -257 -316 -310 -81 -31 -225 -38 -324 -16 -73 16 -201 72 -263 115 -43
30 -81 27 -116 -8 -35 -35 -38 -77 -8 -115 32 -41 164 -113 269 -147 113 -37
273 -49 385 -30 156 27 324 122 418 236 46 55 127 184 127 202 0 22 18 14 24
-11 11 -45 126 -205 182 -253 132 -115 270 -171 441 -180 174 -10 338 30 484
117 113 67 138 123 80 181 -38 38 -74 37 -137 -3 -159 -101 -330 -139 -495
-108 -177 33 -340 184 -412 381 -22 60 -23 71 -15 189 21 305 84 460 188 460
80 0 146 -98 174 -260 16 -92 42 -130 91 -130 70 0 105 52 136 202 47 228 1
454 -131 648 l-42 62 31 42 c272 363 476 938 553 1556 17 141 18 693 0 815 -7
50 -26 178 -42 285 -16 107 -50 350 -75 540 -101 759 -144 994 -226 1226 -81
230 -166 348 -319 444 l-35 22 171 -6 c95 -4 212 -11 260 -16 368 -41 810
-161 1024 -277 169 -93 374 -275 506 -449 240 -320 379 -670 674 -1704 117
-411 218 -742 290 -955 105 -307 142 -516 143 -800 0 -206 -11 -322 -50 -515
-149 -744 -654 -1499 -1363 -2039 -518 -395 -1076 -648 -1685 -763 -109 -21
-149 -23 -420 -23 -286 1 -307 2 -440 28 -951 187 -1845 753 -2434 1541 -517
691 -731 1464 -601 2171 27 147 42 199 135 485 102 310 139 434 295 980 263
916 408 1276 641 1591 140 188 371 386 552 473 325 156 852 267 1305 274 l104
2 -75 -50z m-907 -31 c-395 -102 -641 -237 -871 -476 -268 -280 -446 -635
-653 -1305 -25 -81 -100 -337 -166 -568 -133 -466 -177 -608 -286 -942 -121
-369 -149 -532 -149 -853 1 -251 21 -410 81 -645 98 -377 306 -795 567 -1141
474 -628 1132 -1114 1882 -1390 72 -27 123 -48 115 -49 -8 0 -93 20 -189 45
-686 178 -1346 491 -1884 894 -200 149 -294 229 -456 386 -314 306 -531 594
-696 930 -179 363 -255 689 -242 1045 9 252 56 457 160 706 126 297 251 627
397 1044 349 995 544 1375 880 1710 123 122 234 206 408 308 182 106 422 188
757 257 344 72 558 99 345 44z m2948 6 c354 -58 682 -146 877 -234 81 -37 264
-148 352 -213 263 -195 464 -451 653 -828 121 -241 206 -452 385 -955 203
-573 292 -811 409 -1088 79 -189 108 -274 140 -418 171 -767 -156 -1604 -910
-2328 -614 -589 -1437 -1035 -2344 -1271 -85 -22 -162 -40 -170 -39 -8 0 32
17 90 38 764 279 1436 773 1910 1405 557 744 764 1572 584 2335 -13 56 -62
218 -108 360 -100 305 -145 451 -266 876 -120 422 -189 651 -250 830 -135 396
-280 690 -449 910 -139 182 -366 370 -556 461 -118 57 -332 131 -457 159 -43
9 -78 19 -78 21 0 8 38 4 188 -21z m-5673 -226 c312 -26 667 -135 1018 -310
l138 -69 -68 -78 c-37 -42 -85 -100 -106 -129 l-38 -52 -105 45 c-237 99 -422
142 -644 150 -132 5 -170 3 -253 -14 -433 -90 -600 -452 -436 -945 90 -271
318 -604 590 -860 l102 -96 -53 -143 c-29 -79 -56 -147 -61 -152 -11 -12 -151
106 -308 259 -281 274 -499 563 -650 865 -286 573 -263 1064 65 1334 124 103
311 174 504 195 120 12 169 12 305 0z m8730 -20 c189 -38 325 -108 440 -224
83 -84 127 -155 166 -267 42 -122 55 -253 41 -394 -47 -448 -317 -946 -766
-1412 -104 -107 -352 -332 -376 -340 -11 -4 -23 25 -81 182 l-41 114 139 139
c217 216 363 412 473 638 107 220 146 377 137 565 -7 175 -56 290 -169 401
-66 66 -176 125 -288 156 -101 28 -399 25 -540 -6 -118 -25 -331 -94 -432
-139 l-67 -31 -41 55 c-23 30 -70 88 -106 129 l-65 74 142 71 c364 183 675
276 1044 314 82 8 293 -5 390 -25z m-8428 -469 c169 -23 354 -74 532 -149 41
-17 76 -33 78 -35 2 -2 -26 -51 -62 -111 -170 -277 -299 -577 -540 -1255 -48
-135 -90 -251 -95 -259 -10 -18 -230 200 -333 329 -364 456 -489 921 -326
1207 122 213 407 317 746 273z m8096 -19 c202 -53 345 -183 403 -368 39 -125
25 -323 -36 -504 -62 -185 -207 -432 -363 -619 -95 -113 -297 -314 -307 -303
-4 4 -44 114 -90 243 -237 675 -385 1020 -550 1283 -34 54 -60 100 -58 102 25
25 331 132 458 159 187 41 403 44 543 7z"/>
<path d="M5265 9820 c-141 -28 -275 -115 -361 -232 -40 -54 -46 -94 -18 -115
27 -20 53 -16 77 13 12 15 46 53 76 86 128 138 344 186 521 114 88 -36 149
-83 211 -161 54 -70 82 -81 112 -47 27 29 20 56 -28 121 -80 105 -204 184
-339 216 -65 16 -186 18 -251 5z m288 -59 c118 -41 242 -135 290 -219 28 -49
2 -48 -32 2 -63 91 -180 172 -294 202 -115 31 -277 12 -381 -44 -51 -27 -169
-135 -198 -182 -21 -33 -36 -18 -17 17 56 106 215 213 359 243 68 14 206 4
273 -19z"/>
<path d="M9463 9811 c-86 -24 -129 -45 -211 -105 -69 -51 -152 -155 -152 -191
0 -30 25 -55 55 -55 18 0 35 15 64 54 204 276 604 274 796 -4 31 -44 62 -58
94 -40 64 34 -43 193 -187 277 -132 77 -315 103 -459 64z m270 -36 c37 -8 100
-31 140 -52 102 -54 239 -195 213 -220 -5 -5 -15 3 -24 17 -37 58 -149 158
-213 188 -84 40 -136 51 -234 52 -171 0 -313 -70 -418 -205 -24 -31 -45 -51
-50 -46 -13 13 67 114 126 159 139 106 295 142 460 107z"/>
<path d="M5219 9130 c-84 -10 -222 -58 -296 -101 -74 -44 -218 -188 -262 -261
-134 -230 -146 -501 -32 -741 90 -188 281 -346 491 -403 102 -29 312 -26 410
4 230 72 418 242 504 456 28 72 56 212 56 285 0 157 -64 340 -164 470 -163
212 -437 325 -707 291z m271 -57 c148 -34 316 -144 407 -266 98 -132 146 -277
145 -442 -1 -418 -358 -751 -773 -722 -476 34 -789 506 -638 961 33 98 95 194
183 281 180 179 423 246 676 188z"/>
<path d="M5182 8965 c-173 -39 -334 -167 -410 -326 -54 -113 -66 -173 -60
-305 4 -85 11 -124 32 -178 95 -247 311 -397 570 -397 184 1 304 50 432 176
134 132 192 283 182 469 -15 261 -179 468 -438 552 -66 22 -232 27 -308 9z
m-95 -165 c60 -36 83 -110 54 -175 -25 -57 -70 -85 -134 -85 -42 0 -53 5 -88
38 -50 46 -62 106 -34 165 34 72 132 100 202 57z m192 -155 c73 -37 43 -155
-39 -155 -85 0 -110 117 -35 158 27 15 41 15 74 -3z"/>
<path d="M9570 9128 c-303 -43 -553 -266 -636 -569 -25 -89 -25 -290 -1 -379
20 -76 73 -192 115 -252 42 -61 137 -153 205 -200 219 -150 526 -169 770 -48
153 77 274 200 348 355 50 104 69 178 76 295 24 396 -272 748 -670 800 -85 11
-119 11 -207 -2z m280 -54 c87 -20 212 -82 285 -141 118 -96 212 -243 252
-393 23 -88 22 -263 -1 -350 -68 -254 -273 -459 -526 -527 -103 -28 -293 -23
-392 9 -124 41 -203 91 -303 192 -147 147 -209 298 -208 506 0 222 99 429 272
567 69 54 196 118 276 137 81 19 263 20 345 0z"/>
<path d="M9545 8966 c-81 -19 -128 -40 -207 -93 -168 -111 -268 -298 -268
-500 0 -108 14 -170 61 -272 33 -70 54 -98 122 -165 128 -126 249 -176 427
-176 179 0 300 49 426 174 128 127 184 258 184 436 0 104 -18 182 -66 276 -68
136 -198 249 -344 300 -93 33 -243 41 -335 20z m531 -177 c71 -66 72 -151 1
-217 -27 -25 -89 -39 -131 -28 -65 16 -116 99 -101 167 8 34 49 87 79 100 39
17 124 5 152 -22z m-283 -141 c54 -28 64 -93 21 -133 -53 -49 -134 -17 -134
54 0 68 58 109 113 79z"/>
<path d="M6935 4255 c-18 -17 -25 -35 -25 -62 0 -33 7 -45 63 -98 73 -69 178
-125 295 -157 116 -32 345 -31 462 0 115 32 232 94 303 162 49 49 57 61 57 93
0 80 -97 119 -151 61 -45 -48 -140 -104 -222 -130 -221 -70 -480 -25 -634 110
-62 55 -108 62 -148 21z"/>
</g>
</svg>
