<?xml version="1.0" standalone="no"?>
<!DOCTYPE svg PUBLIC "-//W3C//DTD SVG 20010904//EN"
 "http://www.w3.org/TR/2001/REC-SVG-20010904/DTD/svg10.dtd">
<svg version="1.0" xmlns="http://www.w3.org/2000/svg"
 width="5439.000000pt" height="4341.000000pt" viewBox="0 0 5439.000000 4341.000000"
 preserveAspectRatio="xMidYMid meet">
<metadata>
Created by potrace 1.16, written by Peter Selinger 2001-2019
</metadata>
<g transform="translate(0.000000,4341.000000) scale(0.100000,-0.100000)"
fill="#000000" stroke="none">
<path d="M21610 42723 c-34 -35 -40 -47 -40 -82 0 -57 8 -70 120 -191 376
-407 812 -999 1086 -1477 193 -336 350 -676 440 -954 38 -118 39 -126 22 -111
-23 17 -391 133 -536 167 -9 3 -63 16 -118 29 -99 24 -359 80 -419 89 -16 3
-68 12 -115 21 -47 9 -101 18 -120 20 -19 3 -93 14 -165 24 -170 26 -287 41
-355 47 -30 3 -71 7 -90 10 -35 5 -83 9 -223 20 -39 3 -92 8 -117 10 -206 20
-1006 28 -1250 13 -150 -10 -402 -36 -511 -52 -13 -3 -46 -8 -74 -12 -27 -4
-57 -9 -65 -10 -8 -2 -31 -6 -50 -9 -19 -4 -46 -9 -60 -11 -14 -3 -95 -21
-180 -41 -509 -117 -915 -322 -1175 -594 -77 -80 -175 -210 -208 -274 -23 -45
-14 -111 19 -146 35 -36 68 -46 179 -52 269 -16 699 -240 1150 -600 1125 -899
2310 -2480 2958 -3947 47 -107 91 -208 97 -225 6 -16 17 -43 24 -60 7 -16 19
-43 25 -60 15 -35 13 -34 -69 65 -620 743 -1460 1470 -2295 1984 -60 38 -121
76 -135 86 -14 9 -56 35 -95 57 -38 22 -131 75 -205 118 -160 92 -681 357
-862 438 -141 63 -410 176 -503 212 -316 120 -648 234 -850 291 -33 9 -87 25
-120 35 -53 16 -121 34 -165 45 -8 2 -96 23 -194 48 -98 25 -191 47 -205 50
-14 3 -89 18 -166 34 -77 16 -158 32 -180 36 -22 3 -51 8 -65 11 -76 16 -359
59 -455 70 -22 2 -98 11 -170 19 -71 8 -170 18 -220 21 -49 3 -106 8 -125 10
-34 5 -195 11 -495 19 -176 5 -545 -8 -713 -24 -64 -7 -124 -12 -132 -12 -8 0
-49 -4 -90 -9 -41 -6 -91 -12 -110 -14 -98 -12 -137 -18 -155 -21 -10 -2 -37
-6 -60 -9 -22 -3 -65 -10 -95 -16 -30 -6 -68 -13 -85 -15 -40 -6 -154 -30
-240 -49 -38 -9 -82 -18 -97 -21 -15 -3 -91 -23 -170 -45 -79 -22 -150 -41
-158 -43 -9 -2 -54 -16 -102 -30 -96 -30 -132 -57 -149 -116 -10 -32 -9 -44 7
-76 24 -50 76 -84 125 -84 152 0 536 -147 989 -378 1106 -565 2224 -1394 3001
-2224 l118 -126 -129 -194 c-70 -106 -170 -265 -220 -353 -161 -281 -377 -736
-482 -1017 -60 -162 -178 -511 -178 -529 0 -10 -4 -20 -9 -23 -5 -4 -70 36
-144 86 -75 51 -209 143 -299 204 -602 409 -1271 789 -1894 1074 -98 45 -207
95 -242 111 -35 16 -66 29 -68 29 -3 0 -31 12 -62 26 -31 14 -113 48 -182 76
-69 27 -138 56 -155 63 -35 16 -196 76 -345 130 -58 20 -139 50 -180 65 -74
28 -356 118 -560 180 -130 39 -133 40 -162 45 -13 3 -34 9 -48 15 -22 8 -261
72 -323 86 -12 3 -26 6 -32 8 -97 28 -520 123 -620 139 -16 3 -64 12 -105 21
-41 8 -88 17 -105 20 -16 3 -97 17 -180 31 -173 30 -280 46 -395 60 -25 3 -56
7 -70 10 -14 3 -41 7 -60 9 -19 2 -55 7 -80 10 -57 7 -110 13 -235 26 -505 52
-896 70 -1380 64 -181 -2 -350 -6 -375 -8 -25 -3 -103 -7 -175 -11 -71 -3
-139 -8 -150 -10 -11 -2 -56 -7 -100 -10 -96 -7 -344 -34 -365 -40 -8 -3 -46
-9 -85 -15 -38 -5 -83 -12 -100 -15 -16 -3 -68 -12 -115 -20 -93 -17 -255 -48
-367 -71 -40 -8 -85 -17 -100 -20 -15 -3 -134 -25 -263 -50 -129 -25 -248 -48
-265 -50 -16 -3 -79 -14 -140 -26 -60 -11 -119 -21 -130 -23 -118 -20 -217
-36 -250 -40 -22 -3 -51 -8 -65 -10 -59 -11 -95 -16 -285 -39 -352 -44 -574
-59 -875 -60 -240 -1 -473 7 -555 18 -11 1 -45 6 -75 10 -122 16 -240 38 -338
61 -103 25 -280 78 -317 95 -11 5 -62 28 -113 50 -187 81 -365 197 -508 332
-102 96 -129 112 -181 103 -82 -13 -112 -62 -108 -174 9 -191 38 -406 80 -581
14 -58 28 -114 30 -125 11 -50 80 -223 124 -312 105 -212 249 -401 472 -619
202 -197 465 -405 746 -593 l111 -74 32 -111 c17 -61 33 -120 35 -131 8 -34
145 -507 164 -565 10 -30 29 -89 41 -130 36 -121 199 -622 224 -691 13 -35 47
-131 76 -214 46 -130 103 -285 129 -350 5 -11 16 -38 24 -60 55 -141 151 -385
162 -410 7 -16 49 -115 93 -220 81 -192 92 -217 200 -450 137 -297 370 -759
443 -878 16 -26 29 -49 29 -52 0 -9 191 -338 288 -495 131 -214 399 -610 552
-816 629 -845 1347 -1540 2129 -2058 610 -405 1284 -723 1969 -930 141 -43
508 -140 565 -150 15 -3 35 -7 45 -10 21 -6 23 -7 247 -50 99 -19 200 -37 225
-40 25 -3 55 -7 67 -10 20 -4 75 -13 138 -21 17 -2 64 -8 105 -14 41 -6 104
-13 140 -16 36 -3 99 -10 140 -15 41 -5 118 -12 170 -15 52 -3 156 -10 230
-15 134 -10 1090 -6 1225 4 94 7 277 13 790 27 402 11 1884 8 1945 -4 14 -3
105 -8 202 -11 98 -4 183 -8 190 -10 7 -3 65 -7 128 -11 63 -3 153 -10 200
-14 47 -5 88 -7 92 -5 20 13 14 -33 -27 -203 -77 -314 -103 -425 -119 -503 -9
-41 -23 -106 -31 -145 -21 -93 -62 -292 -68 -330 -3 -16 -12 -64 -21 -105 -17
-87 -43 -229 -51 -280 -6 -37 -9 -54 -50 -290 -25 -146 -100 -662 -109 -755
-3 -27 -10 -84 -15 -125 -12 -83 -56 -503 -66 -620 -3 -41 -10 -120 -15 -175
-5 -55 -12 -145 -15 -200 -4 -55 -8 -102 -10 -104 -4 -4 -106 33 -138 50 -10
6 -30 15 -45 20 l-27 10 25 -26 c14 -15 60 -57 103 -93 l78 -66 -6 -95 c-3
-53 -8 -123 -10 -156 -6 -75 -20 -443 -20 -509 l0 -48 -75 7 c-84 7 -95 9
-200 25 -95 15 -107 17 -150 25 -19 3 -42 7 -50 9 -8 2 -31 6 -50 10 -19 4
-42 8 -50 10 -46 8 -139 29 -165 36 -16 5 -41 12 -55 14 -25 6 -116 29 -175
46 -16 4 -68 20 -115 35 -47 15 -93 29 -102 32 -39 12 -12 -25 100 -136 125
-124 229 -200 388 -281 146 -74 381 -160 509 -185 87 -17 176 -41 176 -47 -1
-5 -1 -18 -1 -29 0 -21 -2 -21 -107 -14 -144 10 -220 18 -283 30 -14 2 -43 7
-65 10 -22 3 -95 17 -162 31 -466 95 -865 274 -1165 521 -43 35 -78 60 -78 55
0 -18 78 -129 152 -217 109 -130 372 -384 519 -501 308 -247 652 -439 934
-522 78 -23 99 -28 198 -45 58 -10 67 -14 67 -33 0 -30 -43 -36 -290 -39 -195
-2 -340 11 -545 49 -103 19 -206 48 -380 104 -131 43 -370 153 -500 229 -303
180 -537 385 -737 648 -34 44 -58 71 -54 60 5 -11 12 -31 16 -45 34 -106 193
-424 286 -570 113 -178 202 -289 359 -445 230 -231 427 -368 700 -485 190 -82
460 -156 638 -175 32 -4 68 -9 80 -11 12 -3 118 -8 235 -11 117 -3 214 -9 216
-12 2 -3 7 -78 11 -166 l7 -160 -144 -77 c-78 -42 -165 -86 -193 -98 -27 -12
-72 -33 -100 -45 -96 -44 -141 -63 -220 -95 -44 -17 -82 -34 -85 -37 -5 -6
168 3 230 12 140 20 166 24 240 41 60 13 144 37 248 69 32 11 42 11 42 2 0 -7
3 -34 5 -62 3 -27 12 -131 20 -230 9 -99 18 -196 20 -215 3 -19 7 -61 10 -92
3 -32 7 -74 9 -95 3 -21 7 -65 11 -98 3 -33 10 -96 16 -140 5 -44 12 -102 15
-130 5 -57 32 -257 39 -295 2 -14 7 -45 10 -70 3 -25 8 -63 11 -85 3 -22 7
-51 9 -65 14 -116 53 -377 60 -400 2 -8 7 -35 10 -60 3 -25 15 -99 26 -165 12
-66 23 -133 26 -150 4 -30 28 -160 38 -205 2 -13 7 -42 11 -65 3 -22 15 -85
26 -140 11 -55 22 -109 24 -120 2 -11 6 -31 9 -45 3 -14 8 -41 11 -60 4 -30
41 -204 60 -290 3 -14 8 -36 10 -50 3 -14 12 -54 20 -90 9 -36 18 -76 20 -90
28 -141 228 -941 244 -970 6 -11 8 -20 6 -20 -3 0 1 -19 10 -41 8 -23 16 -51
18 -63 7 -34 72 -263 106 -371 17 -55 42 -137 55 -182 49 -164 232 -702 310
-913 81 -215 112 -297 165 -430 61 -152 185 -445 230 -545 5 -11 26 -56 45
-100 79 -175 114 -249 226 -475 168 -337 386 -733 542 -985 96 -155 113 -182
248 -385 965 -1452 2178 -2519 3576 -3146 132 -59 236 -102 458 -187 223 -86
755 -242 932 -273 15 -3 53 -11 83 -19 49 -12 232 -46 315 -58 17 -3 57 -10
90 -16 33 -6 80 -13 105 -15 193 -20 286 -37 298 -53 7 -10 41 -63 76 -118
349 -557 928 -1205 1507 -1687 766 -637 1630 -1091 2554 -1342 72 -19 141 -38
155 -40 14 -3 84 -19 155 -36 72 -16 166 -32 210 -35 44 -3 94 -7 110 -10 170
-26 1437 -27 1595 0 14 2 59 7 100 10 41 3 131 13 200 21 69 9 143 18 165 20
87 10 396 67 495 91 58 14 116 27 130 29 14 3 39 9 55 14 32 10 92 27 190 55
233 64 530 182 780 308 443 223 806 487 1175 857 403 403 754 880 1088 1480
106 190 347 664 402 790 13 30 41 93 63 140 98 215 338 803 402 985 9 28 21
59 26 70 19 42 134 369 206 585 41 124 76 226 78 228 1 1 62 -30 136 -69 489
-261 1297 -642 1869 -881 118 -49 224 -93 235 -98 11 -4 36 -15 55 -23 46 -20
519 -208 590 -234 30 -12 111 -42 180 -68 181 -69 496 -182 740 -267 315 -109
646 -215 1065 -343 66 -20 133 -41 149 -46 42 -13 93 -11 124 5 39 20 194 216
301 381 96 147 223 387 286 540 156 376 278 866 310 1250 4 44 9 94 12 110 3
17 7 172 9 345 4 309 0 386 -31 705 -27 268 -110 686 -196 985 -72 248 -214
645 -304 845 -12 28 -40 88 -60 135 -56 125 -174 359 -247 490 -108 193 -119
211 -195 334 -40 65 -72 120 -71 121 12 10 187 25 293 26 270 0 590 -61 935
-179 320 -110 421 -153 739 -314 204 -103 235 -112 292 -82 39 19 73 91 63
131 -4 15 -28 57 -54 93 -76 103 -143 218 -224 383 -42 84 -76 156 -76 160 0
3 -11 30 -24 59 -114 252 -275 759 -370 1168 -8 36 -22 97 -31 135 -9 39 -19
84 -21 100 -3 17 -7 37 -10 45 -3 8 -10 38 -14 65 -17 93 -89 480 -95 505 -3
14 -8 41 -11 60 -8 49 -108 441 -133 520 -11 36 -21 70 -22 75 -7 38 -169 499
-204 580 -7 17 -22 55 -34 85 -12 30 -26 64 -31 75 -5 11 -33 79 -63 150 -176
416 -465 980 -735 1429 -56 94 -102 179 -102 189 0 38 -61 515 -86 667 -14 85
-27 169 -30 185 -10 67 -51 296 -69 385 -3 14 -8 41 -11 60 -6 38 -42 209 -75
355 -11 50 -23 101 -25 115 -3 14 -12 54 -20 90 -9 36 -18 76 -20 90 -12 62
-147 638 -164 700 -5 19 -26 105 -46 190 -20 85 -43 180 -51 210 -7 30 -16 66
-19 80 -5 22 -47 187 -105 410 -11 41 -22 86 -25 100 -3 14 -11 48 -19 75 -44
150 -134 499 -131 502 2 3 66 -13 143 -35 124 -36 317 -82 398 -96 17 -3 68
-12 115 -20 47 -8 114 -18 150 -21 36 -4 74 -9 85 -12 42 -10 454 -13 545 -3
222 23 426 74 602 151 132 57 131 61 -17 53 -170 -8 -650 -9 -790 0 -202 12
-376 31 -660 71 -16 2 -88 16 -159 30 -107 21 -175 37 -351 79 -79 19 -135 41
-139 55 -5 19 -33 113 -80 271 -18 63 -32 117 -31 120 2 3 34 3 72 -1 74 -8
557 -4 638 5 28 3 75 8 105 11 106 12 306 46 405 71 55 14 111 27 123 30 37 8
231 73 276 94 139 62 179 82 253 128 45 28 114 76 152 107 73 59 170 165 151
165 -6 0 -43 -17 -83 -38 -40 -21 -88 -44 -107 -52 -19 -7 -51 -19 -70 -27
-79 -30 -262 -89 -307 -99 -6 -1 -53 -11 -105 -23 -80 -18 -186 -36 -318 -55
-184 -26 -661 -26 -855 -1 -16 2 -52 7 -80 10 -27 3 -63 8 -80 10 -16 3 -41 7
-55 9 -103 15 -227 40 -236 47 -6 5 -16 28 -24 51 -12 41 -42 131 -131 398
-22 63 -39 118 -39 123 0 4 10 7 23 7 12 0 54 7 92 15 39 9 86 18 105 21 85
13 369 98 465 138 17 8 50 21 75 32 110 44 366 182 484 261 328 218 621 509
751 746 20 37 34 67 30 67 -3 0 -34 -19 -68 -43 -194 -135 -501 -279 -783
-367 -121 -38 -412 -113 -479 -124 -268 -43 -414 -61 -655 -81 -124 -11 -293
-6 -302 8 -13 21 -10 23 50 36 52 12 240 70 287 89 87 36 245 123 301 168 72
56 171 167 155 172 -5 2 -60 -12 -123 -32 -158 -48 -406 -99 -548 -111 -19 -2
-69 -7 -110 -11 -147 -14 -127 -28 -196 131 -34 77 -73 167 -89 200 -15 33
-52 113 -82 179 -38 82 -53 126 -49 142 5 18 3 22 -8 18 -11 -4 -39 43 -107
183 -121 247 -286 564 -499 958 -128 239 -134 257 -131 395 2 113 17 189 58
284 86 201 272 402 507 545 146 90 282 153 467 216 218 75 505 138 744 165 55
6 111 13 125 15 64 11 342 20 610 20 329 -1 465 -8 820 -45 103 -11 110 -11
340 -35 85 -8 175 -17 200 -20 25 -2 79 -7 120 -10 41 -4 93 -8 115 -10 102
-10 251 -23 265 -23 8 0 71 -5 140 -11 69 -6 175 -13 235 -16 61 -3 137 -7
170 -10 33 -2 116 -7 185 -10 69 -3 177 -8 240 -10 562 -25 1259 -14 1815 30
28 2 88 7 135 10 75 5 284 27 393 40 20 3 54 7 75 10 147 18 222 29 331 46 68
12 134 23 145 25 12 2 41 7 66 10 24 3 48 8 52 10 4 2 26 7 50 10 37 5 273 55
403 85 22 5 54 12 70 15 17 3 38 10 48 15 9 5 17 8 17 5 0 -3 15 0 33 5 17 6
39 12 47 14 301 71 871 268 1180 406 144 65 496 242 610 307 345 197 687 436
1000 699 140 118 563 539 686 683 323 376 549 702 856 1230 186 322 245 428
428 770 95 179 410 817 490 995 40 88 85 187 100 220 15 33 40 90 55 125 14
36 36 85 47 110 11 25 40 94 65 155 24 60 50 124 58 140 7 17 21 50 30 75 10
25 25 63 35 85 9 22 48 121 84 220 37 99 78 207 91 240 77 197 328 967 350
1074 2 9 8 28 14 44 6 15 9 27 6 27 -2 0 3 19 11 43 34 93 189 729 218 892 3
17 8 41 11 55 35 177 49 252 74 410 17 102 32 203 35 225 3 22 12 92 20 155 8
63 18 144 21 180 3 36 10 106 15 155 16 165 25 387 25 650 0 296 -1 329 -21
555 -14 152 -18 192 -29 260 -3 14 -7 43 -10 65 -9 65 -35 196 -52 260 -8 33
-17 71 -19 85 -3 14 -13 52 -23 85 -11 33 -25 80 -31 105 -21 79 -121 321
-180 436 -66 128 -174 294 -234 361 -37 41 -47 46 -94 51 -97 9 -142 -46 -142
-172 0 -99 -21 -187 -70 -293 -53 -114 -102 -184 -195 -282 -161 -169 -350
-292 -640 -419 -94 -41 -374 -137 -460 -158 -58 -14 -147 -36 -175 -44 -32 -9
-255 -53 -325 -64 -16 -2 -75 -11 -130 -20 -129 -20 -420 -52 -605 -66 -263
-20 -518 -27 -1050 -29 -561 -1 -846 -12 -1165 -41 -55 -5 -134 -12 -175 -15
-104 -9 -405 -41 -465 -50 -16 -3 -52 -7 -80 -10 -27 -3 -61 -8 -75 -10 -14
-3 -47 -7 -75 -11 -102 -12 -377 -54 -550 -85 -33 -6 -71 -13 -85 -15 -91 -14
-162 -28 -210 -39 -30 -8 -73 -16 -95 -19 -22 -3 -51 -8 -65 -11 -14 -3 -41
-8 -60 -11 -19 -3 -84 -17 -145 -30 -60 -14 -123 -27 -140 -30 -16 -3 -59 -12
-95 -20 -36 -9 -76 -18 -90 -20 -14 -3 -63 -14 -110 -25 -47 -12 -95 -23 -107
-25 -48 -9 -400 -97 -558 -139 -93 -25 -177 -47 -185 -49 -78 -20 -238 -65
-395 -111 -104 -31 -221 -65 -260 -76 -242 -69 -1126 -362 -1222 -405 -17 -8
-35 -14 -40 -14 -37 0 -1084 -406 -1328 -515 -16 -8 -75 -32 -130 -55 -55 -23
-129 -55 -165 -72 -36 -16 -74 -33 -85 -38 -410 -183 -950 -443 -1213 -585
-335 -179 -564 -313 -786 -458 -141 -93 -170 -108 -177 -95 -5 9 -46 67 -90
130 -279 390 -556 672 -846 864 -220 146 -506 259 -728 289 -152 21 -403 21
-491 1 -12 -2 -37 -7 -55 -10 -77 -13 -98 -18 -184 -42 -528 -150 -1103 -598
-1562 -1218 -93 -125 -97 -129 -90 -91 4 17 9 53 12 80 4 28 8 66 11 85 40
320 45 375 64 680 33 553 -14 1298 -111 1760 -11 52 -25 122 -30 154 -5 32
-17 86 -25 120 -8 34 -17 72 -20 86 -34 168 -144 518 -251 800 -122 322 -327
715 -391 753 -59 34 -140 16 -178 -40 -16 -23 -19 -49 -21 -148 -3 -180 -10
-321 -28 -515 -21 -232 -22 -239 -29 -280 -3 -19 -8 -56 -11 -82 -20 -176
-118 -679 -155 -803 -5 -16 -26 -84 -46 -150 -91 -303 -199 -559 -327 -774
l-55 -95 -7 40 c-17 94 -77 360 -109 484 -19 74 -38 146 -42 160 -30 120 -157
508 -227 695 -182 486 -467 1060 -742 1490 -310 485 -588 855 -969 1285 -275
311 -820 836 -1176 1131 -406 337 -993 754 -1343 953 -328 187 -324 185 -386
160 -49 -19 -81 -66 -81 -119 0 -30 20 -69 113 -214 196 -304 351 -577 508
-894 54 -109 101 -208 105 -220 4 -12 19 -49 34 -82 51 -111 176 -449 195
-525 2 -8 17 -71 34 -140 34 -137 49 -214 58 -305 l5 -59 -30 24 c-16 14 -88
76 -158 139 -371 328 -838 668 -1314 953 -428 257 -721 408 -1286 663 -129 59
-480 202 -629 257 -303 111 -606 216 -745 258 -36 11 -96 29 -135 40 -38 12
-90 28 -115 35 -132 40 -534 151 -575 159 -11 2 -27 7 -35 10 -8 3 -26 8 -40
10 -14 3 -101 24 -195 46 -93 23 -188 45 -210 50 -22 4 -83 17 -135 29 -52 11
-106 22 -120 25 -14 3 -81 16 -150 30 -69 13 -138 27 -155 30 -16 3 -55 9 -85
15 -188 34 -248 44 -455 75 -126 19 -252 37 -280 40 -27 3 -81 9 -120 15 -38
5 -102 12 -141 16 -39 3 -86 8 -105 10 -19 3 -82 8 -141 11 l-107 7 -41 -40z
m620 -273 c85 -12 166 -23 180 -25 14 -2 41 -6 60 -9 90 -13 393 -61 445 -72
34 -6 215 -40 260 -49 56 -10 100 -18 110 -21 6 -1 66 -13 135 -28 69 -14 184
-39 255 -56 72 -17 141 -33 155 -36 42 -9 343 -84 375 -94 17 -5 66 -19 110
-31 44 -12 112 -31 150 -42 39 -11 75 -21 80 -23 102 -20 873 -276 1040 -344
54 -22 69 -28 155 -60 114 -43 360 -145 505 -210 11 -5 60 -27 108 -50 49 -22
90 -40 92 -40 18 0 468 -228 710 -360 669 -365 1332 -848 1869 -1361 l98 -94
13 -75 c7 -41 16 -104 20 -140 4 -36 9 -78 11 -95 26 -208 30 -912 5 -1140 -5
-49 -13 -128 -16 -175 -3 -47 -8 -92 -10 -100 -2 -8 -7 -46 -10 -85 -3 -38
-11 -101 -16 -140 -6 -38 -13 -88 -15 -110 -7 -57 -59 -376 -69 -421 -3 -12
-7 -39 -10 -60 -4 -21 -8 -47 -11 -56 -3 -10 -7 -30 -10 -45 -11 -66 -65 -352
-74 -393 -5 -25 -12 -58 -14 -75 -3 -16 -19 -113 -35 -215 -56 -343 -100 -665
-116 -840 -4 -36 -8 -78 -10 -95 -2 -16 -6 -73 -10 -125 -3 -52 -10 -147 -15
-210 -8 -109 -5 -737 3 -790 3 -14 8 -61 11 -105 11 -128 41 -328 70 -460 8
-39 17 -82 20 -95 10 -48 15 -66 49 -180 20 -63 34 -116 32 -118 -4 -5 -174
87 -365 196 -1433 823 -2661 1980 -3585 3377 -378 572 -697 1157 -939 1725
-32 74 -64 149 -72 166 -29 67 -144 364 -144 374 0 6 -5 18 -10 28 -13 22 -95
257 -120 342 -10 36 -33 112 -50 169 -17 58 -52 188 -76 290 -52 210 -119 418
-200 620 -55 136 -223 484 -307 636 -231 417 -646 1007 -969 1376 -32 37 -58
69 -58 71 0 5 3 5 210 -22z m6610 -739 c391 -260 799 -577 1185 -920 188 -167
709 -690 866 -871 404 -464 702 -870 995 -1357 57 -95 104 -175 104 -179 0 -3
9 -19 20 -34 29 -41 256 -491 328 -651 123 -274 267 -663 367 -991 26 -86 100
-370 109 -418 2 -14 11 -54 20 -90 8 -36 17 -78 20 -95 3 -16 8 -41 11 -55 10
-41 43 -221 52 -280 21 -143 -5 -575 -68 -1100 -95 -800 -277 -1542 -488
-1994 -23 -48 -60 -127 -82 -175 -177 -376 -502 -993 -721 -1366 -19 -33 -54
-93 -77 -134 -67 -116 -287 -469 -411 -661 -194 -299 -496 -730 -510 -730 -4
0 -11 69 -16 153 -4 83 -8 154 -9 157 -1 3 -5 39 -9 80 -15 140 -36 275 -67
420 -11 52 -22 107 -24 122 -16 90 -151 534 -190 623 -7 17 -16 41 -20 55 -14
48 -138 327 -212 474 -163 326 -356 639 -565 914 -135 178 -288 524 -353 797
-10 41 -34 153 -39 176 -2 13 -9 44 -15 69 -10 47 -36 236 -45 330 -31 323
-27 765 8 1145 4 33 9 87 12 120 5 55 31 282 39 330 1 11 6 47 9 80 4 33 9 67
11 75 2 8 7 35 10 60 7 52 52 333 60 370 2 13 7 42 11 65 3 22 17 101 31 175
13 74 27 146 29 160 2 14 7 36 10 50 3 14 8 36 10 50 3 14 19 97 35 185 17 88
33 174 35 190 3 17 11 68 19 115 12 71 26 167 60 420 2 14 7 61 10 105 4 43 8
82 10 85 3 5 10 95 24 300 20 295 18 777 -4 1050 -4 56 -36 291 -42 314 -4 11
-8 105 -9 209 -3 160 -19 352 -40 462 -21 115 -116 444 -168 581 -83 220 -185
453 -287 654 -73 145 -207 392 -273 504 l-29 48 44 -27 c24 -15 123 -80 219
-144z m-8220 -1601 c107 -5 229 -12 270 -16 41 -3 82 -6 90 -6 28 0 269 -23
350 -33 19 -3 53 -7 75 -10 22 -3 65 -8 95 -11 30 -2 84 -10 120 -15 36 -6 81
-13 100 -15 19 -2 46 -6 60 -9 14 -3 43 -7 65 -10 22 -4 67 -11 100 -17 33 -5
74 -12 90 -15 43 -6 355 -70 455 -93 47 -11 96 -22 110 -25 206 -44 674 -202
725 -245 7 -6 23 -46 34 -89 81 -300 283 -869 397 -1119 13 -29 24 -55 24 -57
0 -5 9 -25 128 -285 430 -940 1053 -1899 1755 -2702 858 -981 1936 -1838 3047
-2421 63 -33 117 -62 119 -63 2 -2 -66 -76 -150 -166 -510 -541 -921 -1070
-1301 -1673 -245 -389 -523 -931 -668 -1301 -17 -43 -35 -88 -39 -99 -5 -11
-21 -54 -36 -95 -15 -41 -35 -97 -45 -125 -81 -215 -198 -682 -246 -974 -55
-339 -77 -757 -55 -1073 15 -209 15 -208 41 -383 30 -203 28 -190 74 -375 59
-232 149 -505 217 -657 10 -24 29 -64 40 -90 163 -366 416 -766 713 -1126 54
-66 96 -120 94 -122 -6 -6 -204 24 -298 44 -52 12 -106 24 -120 27 -144 30
-401 129 -605 233 -539 274 -1040 723 -1490 1335 -364 497 -640 998 -940 1711
-153 363 -329 894 -464 1400 -12 44 -24 89 -26 100 -2 11 -22 94 -44 185 -34
143 -57 248 -75 340 -2 14 -9 48 -15 75 -6 28 -13 61 -15 75 -3 14 -18 97 -34
185 -17 88 -33 185 -37 215 -4 30 -9 64 -11 75 -28 142 -95 706 -109 915 -3
47 -7 96 -10 110 -2 14 -7 86 -10 160 -4 74 -8 153 -11 175 -2 22 -7 184 -10
360 -7 335 -9 349 -54 390 -17 15 -36 20 -82 20 l-60 0 -127 -130 c-310 -320
-530 -652 -744 -1125 -43 -97 -135 -350 -182 -506 -44 -145 -50 -167 -61 -224
-3 -14 -10 -43 -16 -65 -5 -22 -12 -49 -14 -59 -2 -11 -12 -63 -23 -115 -11
-53 -31 -170 -45 -261 -33 -215 -32 -211 -51 -425 -4 -38 -8 -90 -11 -115 -11
-119 -10 -709 2 -875 15 -210 25 -334 29 -355 1 -8 6 -44 10 -80 11 -98 11
-102 40 -280 24 -151 74 -407 95 -490 5 -19 11 -46 14 -60 33 -155 183 -637
232 -745 12 -28 32 -75 44 -104 11 -30 30 -74 41 -97 10 -24 19 -45 19 -49 0
-8 -189 126 -365 259 -929 705 -1673 1568 -2094 2431 -113 231 -251 589 -281
727 -5 24 -20 81 -34 128 -14 47 -33 123 -42 170 -17 89 -26 113 -53 143 -9
11 -23 44 -33 75 -9 32 -30 100 -47 152 -35 112 -156 495 -208 660 -19 63 -36
119 -37 125 -1 5 -16 55 -33 110 -64 202 -113 362 -138 450 -78 274 -217 536
-453 850 -191 253 -374 458 -716 801 -365 364 -671 640 -1076 970 -169 138
-201 161 -222 165 -10 2 -86 76 -170 165 -820 862 -1982 1711 -3133 2287 -120
60 -450 205 -503 222 -13 4 -22 9 -20 11 5 5 208 50 259 58 20 3 42 8 50 10
32 12 327 58 454 72 33 3 67 8 75 9 20 4 132 15 205 20 225 17 333 20 680 19
413 0 548 -8 995 -59 108 -13 411 -61 500 -79 13 -3 42 -8 65 -11 22 -4 81
-15 130 -26 50 -12 105 -23 123 -26 33 -5 471 -115 587 -147 152 -42 490 -150
620 -198 44 -16 103 -38 130 -48 411 -149 927 -382 1325 -598 601 -326 1130
-679 1629 -1089 444 -363 913 -829 1257 -1249 166 -203 421 -548 517 -701 59
-93 167 -99 225 -13 29 43 26 74 -17 220 -37 124 -129 406 -141 435 -5 11 -21
54 -35 95 -15 41 -31 84 -36 95 -4 11 -38 93 -74 183 -90 223 -177 418 -300
667 -91 184 -137 271 -271 515 -43 78 -184 314 -272 455 -332 533 -728 1066
-1171 1574 -191 219 -716 742 -911 909 -492 418 -904 679 -1260 796 l-134 44
69 69 c269 266 701 455 1275 558 96 18 141 25 185 30 28 4 64 8 80 11 97 13
341 34 470 40 83 3 152 8 154 10 8 8 447 4 641 -6z m32408 -1647 c28 -60 62
-135 75 -168 49 -119 129 -396 151 -520 3 -16 8 -41 11 -55 17 -79 46 -293 46
-340 1 -30 -5 -80 -11 -110 -6 -30 -14 -68 -16 -85 -17 -99 -57 -237 -117
-400 -220 -602 -673 -1026 -1323 -1239 -44 -15 -89 -28 -100 -31 -10 -2 -44
-11 -74 -20 -58 -16 -281 -61 -340 -69 -19 -2 -66 -9 -105 -15 -38 -5 -90 -13
-115 -16 -25 -3 -76 -10 -115 -15 -38 -5 -95 -11 -125 -14 -30 -3 -120 -12
-200 -20 -80 -8 -183 -18 -230 -21 -47 -3 -105 -8 -130 -10 -25 -2 -90 -7
-145 -10 -55 -3 -136 -8 -180 -10 -185 -11 -273 -15 -505 -24 -284 -12 -350
-15 -1205 -41 -489 -16 -900 -33 -1160 -50 -82 -5 -190 -12 -240 -15 -49 -3
-110 -8 -135 -10 -25 -3 -81 -7 -125 -10 -222 -15 -779 -76 -1010 -110 -81
-12 -506 -83 -540 -90 -11 -2 -65 -13 -120 -24 -128 -26 -419 -89 -437 -96 -7
-2 -24 -7 -38 -9 -94 -18 -441 -118 -665 -191 -259 -85 -492 -172 -630 -235
-22 -10 -69 -30 -105 -45 -336 -141 -833 -415 -1147 -632 -51 -35 -93 -61 -93
-58 0 8 273 375 369 495 819 1031 1722 1819 2811 2452 277 162 255 154 840
279 52 11 122 26 155 34 50 11 163 33 360 70 71 13 313 54 350 60 22 3 47 7
55 10 16 4 389 59 475 69 28 4 100 13 160 21 152 20 286 34 375 40 41 3 86 7
100 10 32 6 278 24 429 31 64 3 123 8 131 10 8 3 355 10 770 15 415 5 775 11
800 14 25 2 110 9 190 15 128 10 534 54 599 65 13 2 45 8 70 12 25 4 48 8 51
8 3 1 28 5 55 10 130 20 394 81 529 120 32 9 64 18 70 19 22 4 211 68 243 82
17 8 36 14 42 14 6 0 19 5 29 10 9 6 55 26 102 46 366 153 675 389 846 646 44
66 124 225 124 247 0 31 21 1 68 -96z m-18920 -374 c79 -196 118 -310 211
-622 26 -87 74 -285 99 -407 38 -180 52 -255 56 -290 2 -19 9 -62 15 -95 14
-81 49 -372 55 -465 3 -41 10 -142 16 -225 17 -249 9 -786 -15 -1030 -3 -32
-8 -89 -11 -125 -11 -153 -67 -549 -99 -700 -3 -14 -8 -43 -10 -65 -3 -22 -23
-120 -45 -218 -22 -98 -40 -194 -40 -213 0 -50 26 -93 65 -110 82 -34 135 -7
196 98 413 713 796 1168 1253 1487 237 166 500 287 706 325 14 2 36 7 50 10
134 30 310 31 490 2 337 -54 692 -262 1010 -592 126 -131 265 -302 388 -479
l91 -130 -27 -21 c-29 -23 -311 -260 -787 -663 -404 -342 -1068 -911 -1330
-1140 -538 -471 -828 -656 -1148 -731 -440 -102 -913 28 -1557 430 -69 43
-153 92 -270 158 -25 14 -126 71 -225 127 -99 56 -269 153 -377 214 -109 62
-198 114 -198 116 0 2 31 97 70 212 63 188 134 428 146 493 3 14 7 32 10 40 3
8 8 26 10 40 3 14 14 61 24 105 19 81 38 169 46 215 2 14 9 48 15 75 6 28 13
64 15 80 3 17 16 95 29 175 13 80 31 197 40 260 9 63 18 126 20 140 2 14 6 48
9 75 3 28 11 95 17 150 6 55 11 107 11 115 0 8 4 49 9 90 9 88 15 159 29 409
l11 185 68 90 c116 155 224 335 295 490 107 232 117 258 193 486 29 89 96 319
108 370 1 9 15 69 30 135 35 155 80 393 91 485 2 19 7 51 10 70 3 19 8 51 10
70 3 19 6 49 9 65 2 17 9 86 15 155 6 69 13 134 15 145 2 11 4 38 4 60 1 57
14 38 79 -126z m10277 -1568 c-6 -4 -77 -54 -160 -111 -940 -645 -1770 -1462
-2500 -2460 -333 -455 -615 -827 -984 -1300 -325 -417 -393 -502 -971 -1225
-1250 -1562 -1615 -2057 -1990 -2695 -100 -171 -294 -556 -340 -675 -13 -33
-26 -64 -30 -70 -4 -5 -10 -19 -13 -30 -3 -11 -22 -65 -42 -120 -39 -109 -106
-336 -121 -415 -2 -14 -7 -31 -10 -39 -2 -8 -7 -30 -10 -50 -3 -20 -9 -61 -15
-91 -5 -30 -12 -80 -15 -110 -3 -30 -10 -82 -14 -115 -8 -58 -5 -503 4 -575 4
-32 41 -253 51 -305 9 -51 68 -260 99 -356 68 -209 276 -668 343 -757 17 -23
31 -64 44 -125 30 -153 5 -100 288 -627 158 -294 451 -875 451 -894 0 -7 -50
-34 -112 -60 -62 -26 -127 -54 -145 -62 -40 -18 -290 -101 -323 -108 -14 -3
-59 -13 -100 -24 -108 -27 -169 -41 -215 -48 -22 -3 -42 -8 -44 -10 -2 -2 -22
10 -45 25 -50 35 -297 191 -301 191 -1 0 -47 25 -101 56 -116 66 -243 127
-409 195 -66 28 -129 54 -140 59 -193 81 -524 168 -775 204 -366 53 -670 49
-1035 -15 -134 -23 -140 -24 -190 -38 -22 -5 -54 -13 -72 -16 -49 -8 -351
-109 -416 -139 -32 -14 -59 -26 -62 -26 -29 0 -356 -175 -510 -273 -648 -411
-1263 -1101 -1641 -1839 -61 -118 -124 -254 -124 -267 0 -2 41 56 92 130 352
516 761 973 1188 1330 379 316 786 567 1148 708 28 12 73 29 100 40 54 21 177
61 207 67 11 2 31 8 45 14 41 15 291 71 380 85 342 50 706 52 1020 4 221 -33
526 -101 625 -139 17 -7 37 -13 46 -15 25 -5 196 -63 268 -91 207 -80 262
-103 424 -176 97 -45 175 -83 173 -86 -8 -7 -284 -40 -401 -47 -60 -4 -144 -9
-185 -12 -41 -2 -327 -5 -635 -5 -839 -1 -1035 -18 -1564 -133 -9 -2 -65 -18
-125 -35 -409 -116 -764 -287 -1059 -508 -261 -196 -483 -444 -647 -722 -76
-127 -167 -313 -199 -405 -11 -31 -43 -87 -70 -124 -110 -147 -251 -380 -342
-563 -33 -64 -59 -119 -59 -122 0 -3 -15 -38 -34 -78 -69 -148 -169 -423 -225
-623 -45 -161 -105 -415 -126 -533 -30 -177 -70 -466 -80 -592 -4 -47 -9 -96
-11 -110 -25 -208 -25 -1081 2 -1375 7 -83 34 -357 39 -405 3 -25 7 -63 10
-85 2 -22 9 -76 15 -120 15 -112 20 -150 24 -182 4 -28 32 -202 42 -258 27
-155 35 -203 39 -220 2 -11 9 -45 14 -75 6 -30 25 -118 41 -195 16 -77 31
-151 34 -165 3 -14 7 -34 10 -45 2 -11 10 -42 16 -70 15 -64 10 -46 74 -290
58 -224 124 -448 148 -505 21 -48 49 -71 96 -77 39 -5 40 -6 57 -72 113 -430
463 -963 911 -1391 313 -298 534 -473 985 -778 409 -278 435 -297 641 -489
306 -283 580 -668 803 -1128 75 -155 100 -212 178 -415 36 -91 125 -362 132
-401 2 -9 10 -37 19 -63 16 -47 110 -417 119 -471 3 -17 17 -86 31 -155 21
-105 33 -184 51 -315 2 -11 10 -69 18 -130 9 -60 18 -132 21 -160 3 -27 10
-90 15 -140 5 -49 13 -130 16 -180 4 -49 8 -110 11 -135 8 -94 19 -432 19
-605 l0 -179 -60 -37 c-124 -75 -345 -197 -483 -267 -61 -30 -98 -56 -107 -72
-7 -14 -64 -180 -128 -370 -156 -468 -396 -1117 -483 -1308 -13 -29 -24 -55
-24 -58 0 -3 -19 -49 -41 -102 -37 -86 -57 -132 -104 -237 -7 -16 -25 -57 -40
-90 -88 -202 -320 -666 -435 -870 -587 -1047 -1242 -1769 -2013 -2220 -242
-141 -683 -334 -882 -386 -16 -4 -77 -21 -135 -38 -297 -88 -671 -155 -1065
-190 -227 -21 -403 -26 -865 -25 -502 1 -880 20 -1015 50 -38 8 -81 18 -94 20
-282 56 -754 207 -1091 351 -1063 452 -2059 1245 -2811 2238 -123 163 -271
379 -353 517 -32 54 -64 102 -71 108 -8 6 -44 16 -82 21 -37 5 -71 13 -75 17
-8 8 -154 259 -246 422 -204 363 -420 783 -527 1025 -31 72 -68 154 -81 183
-13 29 -24 58 -24 65 0 7 -4 17 -9 23 -12 12 -122 305 -182 484 -42 126 -108
363 -122 440 -3 14 -8 36 -11 50 -14 61 -52 286 -60 360 -27 244 -28 661 -2
830 11 72 18 118 22 150 23 178 161 686 229 845 7 17 30 75 50 130 41 108 202
484 215 500 4 6 19 37 33 70 14 33 52 116 85 185 67 142 74 158 132 290 23 52
48 109 55 125 109 247 245 656 330 995 29 118 68 302 91 425 9 51 44 307 50
365 3 36 8 79 9 95 20 181 13 639 -11 819 -6 42 -5 46 18 55 24 9 77 64 79 82
3 24 2 52 -4 144 -8 110 -52 529 -67 640 -5 39 -11 88 -14 110 -16 125 -90
589 -100 625 -3 8 -7 33 -11 54 -11 76 -95 454 -140 631 -290 1137 -741 2079
-1330 2779 -55 65 -137 172 -181 237 -465 676 -1105 1140 -1874 1358 -363 103
-665 141 -1085 136 -154 -2 -293 -6 -310 -9 -16 -2 -57 -7 -90 -10 -83 -7
-190 -22 -395 -56 -96 -16 -200 -32 -230 -36 -30 -3 -66 -8 -80 -10 -14 -2
-43 -6 -65 -8 -22 -3 -56 -7 -75 -10 -19 -3 -55 -8 -80 -10 -25 -3 -112 -12
-195 -20 -166 -17 -265 -23 -495 -32 l-155 -5 40 41 c53 56 241 218 335 290
260 198 558 355 865 453 94 30 142 42 290 73 85 17 154 27 329 44 111 12 451
9 551 -4 22 -3 69 -8 105 -11 87 -7 279 -40 415 -71 61 -13 121 -27 135 -30
204 -42 705 -215 994 -343 226 -100 311 -140 501 -237 121 -61 292 -152 380
-202 153 -88 158 -90 110 -46 -204 187 -554 436 -842 600 -243 139 -631 313
-876 395 -88 29 -347 104 -394 114 -138 29 -315 60 -468 81 -83 12 -557 11
-645 -1 -52 -7 -115 -15 -140 -18 -25 -3 -65 -10 -90 -16 -25 -5 -61 -12 -80
-15 -68 -11 -286 -77 -400 -122 -99 -40 -220 -99 -358 -176 -255 -142 -572
-432 -786 -721 l-57 -78 -182 2 c-218 1 -497 21 -702 49 -136 19 -490 86 -507
96 -4 2 -5 28 -3 57 5 77 15 204 20 267 3 30 7 87 10 125 3 39 9 93 12 120 4
28 6 53 5 57 -1 3 3 44 8 90 5 45 12 108 16 138 6 61 42 362 50 425 5 42 19
149 30 225 6 46 69 452 85 550 5 30 12 71 15 90 5 41 39 225 59 325 18 92 24
123 31 165 3 19 14 76 25 125 11 50 23 104 25 120 3 17 17 80 30 140 14 61 27
121 30 135 3 14 16 72 30 130 14 58 28 116 30 130 8 37 152 606 170 667 8 29
15 56 16 60 0 5 4 15 9 24 4 9 10 27 12 40 6 32 107 381 113 391 3 4 7 17 9
28 7 37 156 493 190 580 18 47 56 148 85 225 29 77 58 154 65 170 7 17 48 118
90 225 95 237 189 467 221 537 13 28 24 54 24 57 0 5 233 530 280 631 175 372
252 531 380 781 146 285 328 624 438 814 30 52 66 115 79 139 175 310 516 821
547 821 28 0 72 49 257 291 106 137 195 247 198 244 2 -3 6 -11 7 -18 7 -37
99 -327 132 -418 180 -483 442 -959 774 -1404 572 -768 1429 -1533 2308 -2061
107 -64 119 -69 173 -69 54 0 61 3 88 33 24 27 29 41 29 85 0 43 -6 61 -33
102 -111 165 -228 393 -311 605 -27 69 -52 134 -57 145 -40 97 -139 429 -183
615 -56 240 -124 638 -141 835 -4 39 -8 80 -10 93 -25 159 -37 734 -22 1027 7
150 32 425 43 478 3 16 7 38 9 50 1 12 5 47 9 77 9 72 72 383 97 485 152 599
395 1109 727 1522 37 45 67 81 68 80 1 -1 7 -117 13 -257 7 -140 14 -284 16
-320 12 -154 16 -207 20 -245 2 -22 7 -71 10 -110 3 -38 12 -126 20 -195 7
-69 16 -152 20 -185 3 -33 8 -71 10 -85 2 -14 16 -106 30 -205 27 -188 29
-205 45 -295 5 -30 12 -72 16 -94 6 -43 8 -51 29 -156 8 -41 17 -88 20 -105 6
-35 3 -23 50 -240 20 -93 54 -242 76 -329 22 -88 41 -167 43 -175 20 -106 196
-686 284 -936 50 -144 172 -466 196 -520 8 -16 33 -75 56 -130 77 -183 131
-298 252 -540 632 -1263 1473 -2166 2398 -2573 229 -101 525 -192 705 -217 22
-3 50 -8 63 -11 70 -15 319 -34 449 -34 l122 0 35 34 c24 22 36 43 37 62 3 78
-2 87 -90 182 -163 178 -325 372 -444 534 -64 87 -211 310 -249 378 -14 25
-44 78 -67 119 -212 369 -386 859 -457 1286 -16 94 -16 96 -33 210 -43 298
-31 880 24 1185 3 14 7 43 11 65 46 327 229 949 379 1290 7 17 33 75 56 130
24 55 100 215 170 355 348 696 828 1399 1411 2068 134 154 426 462 436 461 12
-1 107 -121 142 -176 17 -29 35 -53 39 -53 17 0 206 -275 323 -470 201 -335
372 -688 468 -965 9 -27 31 -90 49 -140 17 -49 31 -91 31 -93 0 -1 11 -39 24
-85 14 -45 27 -93 30 -107 3 -14 9 -40 15 -57 5 -18 8 -33 5 -33 -3 0 0 -8 5
-17 5 -10 11 -31 14 -48 3 -16 17 -86 30 -155 14 -69 28 -150 31 -180 3 -30 8
-67 11 -82 26 -139 43 -598 27 -753 -11 -105 -5 -131 34 -170 30 -30 41 -35
84 -35 37 0 55 6 78 25 67 56 451 584 717 985 346 522 568 896 956 1615 30 55
132 256 227 448 95 191 176 347 180 347 5 0 204 -111 443 -246 239 -136 454
-258 479 -272 25 -14 70 -41 100 -61 213 -136 642 -354 788 -400 82 -26 189
-53 302 -77 95 -21 251 -32 375 -28 154 5 154 5 240 23 223 47 422 130 642
269 202 127 338 234 737 581 665 579 2068 1769 2220 1882 120 91 417 282 576
371 25 14 92 52 150 85 245 140 765 404 1080 548 69 31 152 69 185 85 33 15
94 42 135 60 41 18 100 44 130 57 30 14 91 40 135 58 44 18 107 45 140 60 55
25 632 259 715 290 19 7 85 32 145 54 164 63 295 111 340 126 22 7 72 25 110
40 39 14 111 40 160 56 50 17 99 35 110 40 26 12 596 200 695 229 72 21 127
38 235 74 28 9 59 18 70 21 11 2 101 29 200 59 208 63 192 58 180 47z m8940
-128 c-4 -60 -7 -115 -7 -123 0 -22 -38 -401 -43 -430 -2 -14 -7 -47 -10 -75
-4 -27 -11 -79 -17 -115 -5 -36 -12 -81 -14 -100 -4 -34 -49 -291 -59 -340 -3
-14 -8 -41 -11 -60 -3 -19 -17 -87 -30 -150 -14 -63 -27 -126 -30 -140 -24
-118 -123 -527 -144 -595 -5 -16 -30 -104 -55 -195 -61 -220 -99 -341 -210
-675 -112 -335 -171 -504 -185 -527 -5 -10 -10 -22 -10 -28 0 -5 -21 -63 -46
-127 -85 -218 -136 -348 -149 -378 -7 -16 -27 -66 -45 -110 -18 -44 -43 -103
-56 -132 -13 -28 -24 -54 -24 -57 0 -3 -11 -29 -24 -58 -14 -29 -40 -89 -59
-133 -186 -431 -511 -1087 -767 -1550 -42 -77 -90 -162 -105 -190 -55 -100
-250 -433 -313 -535 -583 -944 -1330 -1675 -2248 -2201 -231 -132 -405 -218
-729 -359 -11 -5 -56 -23 -100 -40 -44 -18 -89 -36 -100 -41 -94 -43 -562
-197 -714 -235 -9 -2 -92 -24 -186 -48 -93 -24 -228 -56 -300 -71 -71 -15
-137 -28 -145 -30 -58 -12 -236 -46 -263 -50 -17 -2 -63 -9 -102 -15 -38 -6
-81 -13 -95 -15 -14 -2 -54 -8 -90 -14 -36 -5 -90 -13 -120 -16 -30 -3 -66 -8
-80 -10 -14 -2 -50 -6 -80 -10 -30 -3 -89 -10 -130 -15 -41 -5 -112 -12 -157
-15 -45 -2 -96 -7 -115 -9 -40 -6 -141 -13 -303 -21 -66 -4 -138 -9 -160 -11
-101 -12 -1101 -15 -1345 -5 -471 20 -807 40 -1095 66 -27 2 -79 7 -115 10
-36 3 -85 7 -110 10 -25 3 -76 7 -115 10 -84 6 -104 8 -410 40 -549 57 -675
64 -1065 65 -279 1 -627 -16 -730 -35 -14 -2 -47 -7 -75 -10 -27 -3 -57 -7
-65 -9 -8 -1 -37 -6 -65 -10 -112 -17 -396 -84 -535 -128 -393 -122 -759 -339
-966 -574 -81 -91 -163 -214 -205 -308 -19 -42 -37 -76 -41 -76 -3 0 -11 12
-16 28 -6 15 -34 79 -63 142 l-52 115 18 75 c10 41 31 118 47 170 16 52 31
105 34 118 16 75 201 533 234 577 4 6 24 42 45 80 20 39 71 121 112 184 246
371 595 659 978 806 39 14 79 31 90 36 52 24 296 90 379 103 21 4 41 8 45 10
4 3 25 7 46 10 22 2 90 12 150 20 217 31 373 37 800 31 231 -3 488 -10 570
-14 140 -8 1019 -5 1130 4 28 2 127 9 220 15 214 14 310 21 485 40 52 5 115
12 140 14 43 5 179 22 245 30 167 23 270 38 320 46 109 18 119 20 210 36 50 8
101 17 115 19 14 2 113 21 220 44 107 22 209 43 226 46 67 11 416 98 599 150
218 61 688 208 750 235 11 5 72 27 135 50 63 23 129 48 145 55 17 7 62 25 100
40 238 91 709 311 990 463 328 177 724 427 1020 647 877 649 1557 1436 2141
2480 81 146 324 624 361 710 23 54 148 337 163 370 64 137 309 808 381 1043
10 34 28 92 40 130 50 163 98 334 149 531 16 62 30 115 32 116 2 2 17 5 33 8
17 3 63 13 104 22 40 9 78 18 85 19 125 25 406 127 566 205 447 219 803 566
1013 986 18 36 33 65 35 65 2 0 1 -48 -3 -107z m-2117 -1276 c-11 -37 -35
-124 -49 -182 -10 -42 -23 -86 -115 -385 -54 -178 -116 -363 -134 -405 -5 -11
-14 -38 -20 -60 -7 -22 -18 -53 -25 -70 -7 -16 -27 -70 -45 -120 -18 -49 -38
-103 -45 -120 -7 -16 -25 -61 -40 -100 -15 -38 -33 -83 -40 -100 -7 -16 -43
-102 -80 -190 -38 -88 -72 -167 -76 -175 -5 -8 -36 -76 -70 -150 -183 -404
-461 -896 -731 -1295 -406 -601 -890 -1131 -1423 -1556 -495 -395 -1012 -719
-1608 -1008 -114 -56 -210 -101 -212 -101 -3 0 -35 -14 -72 -31 -304 -140
-851 -339 -1243 -454 -169 -49 -207 -59 -430 -117 -85 -22 -184 -46 -220 -53
-36 -8 -95 -21 -131 -29 -36 -8 -77 -17 -90 -20 -162 -33 -280 -56 -304 -60
-16 -2 -52 -9 -80 -14 -71 -15 -490 -80 -550 -86 -27 -3 -102 -12 -165 -20
-63 -9 -144 -18 -180 -21 -36 -3 -83 -7 -105 -10 -104 -10 -155 -15 -210 -20
-106 -8 -319 -23 -345 -23 -14 0 -128 -5 -255 -11 -358 -17 -941 -10 -1200 14
-56 5 -755 5 -852 0 -231 -13 -583 -70 -798 -131 -783 -221 -1334 -742 -1665
-1574 -23 -58 -48 -121 -55 -140 -8 -19 -22 -60 -31 -90 -22 -71 -30 -79 -37
-38 -50 291 -48 272 -54 510 -7 255 9 423 62 663 3 17 11 50 16 75 14 63 54
194 101 330 188 539 569 1187 1171 1990 291 388 358 473 1202 1529 363 455
768 966 900 1136 241 313 306 384 520 575 886 788 2051 1356 3361 1640 76 16
159 34 184 40 25 5 56 12 70 14 14 3 60 12 104 20 43 9 92 18 110 21 111 16
171 26 209 34 41 9 287 46 377 56 25 3 95 12 155 20 109 14 350 40 455 49 30
2 82 7 115 10 33 4 89 8 125 11 36 2 119 8 185 14 66 5 127 9 135 9 8 0 130 7
270 16 140 8 325 17 410 21 85 3 189 7 230 10 41 2 165 7 275 10 110 3 261 8
335 10 74 3 281 9 460 15 179 5 379 12 445 15 66 3 179 7 250 10 72 3 168 7
215 10 47 3 132 7 190 10 58 3 128 7 155 10 43 4 142 11 285 20 57 4 441 45
547 58 54 7 115 14 135 15 l37 2 -11 -33z m-44323 -338 c72 -11 144 -23 160
-25 17 -3 77 -14 135 -25 58 -11 119 -23 135 -26 26 -4 255 -57 295 -67 8 -2
44 -11 80 -19 36 -9 115 -30 175 -47 61 -18 131 -38 157 -45 201 -57 591 -199
838 -306 169 -73 566 -271 720 -360 662 -379 1293 -892 1809 -1467 l74 -83
-109 55 c-141 70 -212 102 -392 177 -81 33 -154 64 -162 68 -8 4 -98 35 -200
69 -237 78 -456 137 -675 183 -33 7 -64 14 -70 15 -70 16 -444 74 -520 80 -27
2 -90 9 -140 14 -49 5 -144 13 -210 17 -152 10 -909 10 -1035 0 -52 -5 -126
-10 -165 -13 -38 -2 -86 -6 -105 -9 -19 -2 -84 -9 -145 -15 -60 -6 -123 -13
-140 -15 -16 -2 -57 -7 -90 -11 -33 -3 -71 -8 -85 -10 -14 -2 -74 -11 -135
-19 -60 -9 -123 -18 -140 -20 -148 -22 -566 -67 -745 -80 -47 -4 -105 -8 -130
-10 -494 -43 -1274 -51 -1890 -20 -150 8 -452 29 -565 40 -27 3 -77 8 -110 11
-33 3 -76 7 -95 9 -19 2 -64 7 -100 11 -36 3 -74 8 -85 10 -11 3 -47 7 -80 10
-33 3 -89 10 -125 15 -92 15 -99 16 -160 23 -30 4 -93 14 -140 22 -47 9 -103
18 -125 21 -30 4 -81 34 -200 115 -341 236 -513 374 -721 582 -179 179 -286
320 -376 494 -59 113 -118 262 -132 332 -3 14 -7 35 -10 48 -15 57 -18 72 -31
140 -16 78 -19 132 -9 132 4 0 34 -19 68 -43 241 -170 681 -337 1004 -382 20
-3 46 -8 58 -10 11 -2 42 -7 70 -10 213 -25 294 -32 432 -34 86 -1 159 -4 163
-6 10 -7 527 14 639 25 58 6 128 13 155 15 181 18 523 66 760 106 291 49 333
57 470 83 72 14 141 27 155 30 14 2 48 9 75 15 28 6 62 13 77 15 15 3 63 12
105 20 43 9 89 18 103 20 14 3 106 20 205 40 201 38 210 40 350 62 55 8 109
17 120 19 39 9 381 45 480 51 55 3 101 7 103 8 1 2 12 2 25 0 12 -2 81 -13
152 -25z m1495 -5 c232 -20 403 -40 655 -75 77 -11 156 -22 175 -25 19 -2 44
-6 56 -9 12 -2 39 -7 60 -10 21 -3 66 -11 99 -17 33 -5 74 -12 90 -15 55 -8
529 -104 570 -114 22 -6 47 -12 55 -14 98 -20 276 -63 360 -87 58 -16 114 -32
125 -34 11 -2 67 -17 125 -34 58 -17 113 -32 123 -35 33 -8 191 -56 282 -85
391 -127 632 -214 974 -352 154 -62 236 -97 534 -230 39 -18 218 -105 397
-194 722 -361 1124 -611 2295 -1425 83 -57 301 -221 485 -363 403 -312 834
-645 1054 -816 88 -69 411 -319 716 -555 451 -348 581 -454 693 -564 75 -74
137 -138 137 -142 0 -4 -51 -86 -113 -181 -203 -308 -476 -771 -655 -1108 -25
-47 -67 -125 -94 -174 -211 -389 -576 -1159 -828 -1746 -34 -80 -63 -146 -64
-147 -1 -2 -34 64 -72 145 -370 787 -898 1571 -1703 2527 -408 485 -799 919
-1853 2057 -562 608 -1033 1120 -1390 1513 -253 279 -542 569 -728 731 -783
682 -1675 1187 -2660 1509 -320 104 -302 95 -180 89 58 -2 184 -11 280 -20z
m8203 -487 c637 -534 1171 -1063 1544 -1529 114 -143 282 -400 345 -528 59
-121 80 -177 148 -405 23 -77 45 -151 50 -165 4 -14 15 -50 24 -80 9 -30 34
-111 55 -180 22 -69 60 -190 85 -270 24 -80 85 -275 135 -435 50 -159 96 -306
102 -326 l11 -37 -203 -264 c-112 -145 -208 -265 -214 -266 -9 -2 -96 64 -690
525 -825 640 -2399 1860 -2488 1927 -85 64 -107 85 -103 101 11 51 18 74 62
212 26 82 51 155 55 163 4 8 28 71 53 140 159 443 444 1013 696 1391 103 155
131 190 143 182 7 -4 92 -74 190 -156z m-7558 -1550 c22 -3 76 -8 120 -12 75
-6 170 -16 290 -31 91 -11 398 -65 485 -85 47 -11 96 -22 110 -25 14 -3 43
-10 65 -16 22 -6 49 -13 60 -15 11 -2 52 -13 90 -25 612 -186 1025 -375 1520
-696 250 -162 356 -244 460 -358 55 -60 327 -354 605 -654 1328 -1436 1733
-1891 2215 -2495 647 -810 1104 -1529 1399 -2200 32 -71 61 -139 66 -150 43
-96 43 -85 -9 -212 -50 -124 -137 -348 -192 -495 l-32 -87 -96 89 c-405 375
-840 584 -1486 715 -70 14 -461 76 -510 80 -33 3 -69 7 -80 10 -11 2 -51 7
-90 10 -38 3 -83 8 -100 10 -16 3 -57 7 -90 10 -111 9 -190 16 -235 20 -76 8
-161 15 -250 20 -47 3 -119 7 -160 10 -186 12 -220 15 -305 20 -49 3 -209 12
-355 20 -146 8 -278 17 -295 20 -16 2 -57 7 -90 10 -33 4 -107 13 -165 21 -58
9 -123 17 -145 20 -87 10 -357 56 -529 90 -174 34 -224 45 -456 100 -501 120
-1117 327 -1526 514 -35 17 -66 30 -69 30 -11 0 -373 180 -479 237 -317 174
-536 308 -786 484 -829 582 -1530 1322 -2080 2194 -181 287 -413 724 -540
1015 -40 91 -83 189 -96 218 -13 29 -24 57 -24 62 0 6 -9 29 -19 53 -89 191
-322 915 -347 1072 -3 22 -10 47 -14 55 -4 8 -11 34 -15 58 l-7 42 139 1 c574
5 1092 33 1583 84 289 31 328 35 360 40 31 5 303 43 350 49 19 2 89 11 155 20
66 8 176 20 245 26 69 6 145 13 170 15 25 3 101 8 170 11 69 4 127 8 130 11 6
6 833 -3 885 -10z m-6150 -101 c22 -4 58 -9 80 -12 22 -2 92 -11 155 -19 172
-21 383 -43 585 -59 321 -27 376 -30 675 -41 107 -4 198 -9 201 -11 4 -2 10
-18 13 -36 12 -62 14 -73 29 -133 9 -33 18 -71 21 -85 8 -43 75 -279 126 -445
133 -434 318 -892 534 -1324 652 -1303 1611 -2377 2802 -3139 498 -318 1060
-596 1629 -804 278 -102 789 -259 955 -294 14 -3 68 -16 120 -28 198 -49 504
-114 625 -132 17 -3 68 -12 115 -19 90 -15 410 -63 470 -70 172 -20 329 -34
455 -40 146 -7 302 -15 365 -20 36 -2 106 -7 155 -10 181 -11 531 -35 570 -40
22 -3 67 -7 100 -10 59 -5 337 -33 385 -39 14 -2 57 -6 95 -10 39 -4 77 -9 85
-11 8 -3 35 -7 60 -10 52 -7 61 -8 190 -30 52 -10 109 -19 125 -22 54 -9 278
-62 350 -83 39 -12 88 -25 109 -31 22 -5 60 -18 85 -28 25 -11 84 -34 131 -52
280 -109 524 -267 754 -490 136 -131 155 -157 138 -191 -12 -25 -38 -100 -178
-513 -52 -154 -96 -285 -98 -291 -3 -7 -27 -8 -77 -2 -41 4 -108 10 -149 13
-41 3 -100 7 -130 10 -30 2 -104 7 -165 10 -60 4 -135 8 -165 10 -30 2 -253 9
-495 15 -403 12 -1388 8 -1775 -6 -69 -2 -244 -9 -390 -14 -146 -6 -353 -14
-460 -18 -401 -15 -905 -7 -1228 18 -177 14 -567 59 -657 76 -16 3 -46 7 -65
10 -19 2 -44 6 -56 9 -12 2 -39 7 -60 10 -78 12 -391 76 -460 95 -39 10 -81
21 -95 23 -44 9 -262 68 -379 103 -258 78 -603 206 -840 310 -228 101 -660
328 -860 452 -531 330 -960 672 -1410 1122 -455 454 -831 916 -1204 1478 -365
550 -734 1220 -1014 1842 -13 30 -38 84 -54 120 -52 115 -245 574 -258 615 -7
22 -16 45 -20 50 -6 9 -55 137 -132 345 -12 30 -24 64 -29 75 -28 68 -79 216
-79 228 0 7 -4 17 -9 22 -4 6 -20 48 -35 95 -15 47 -43 128 -61 180 -83 237
-253 784 -319 1025 -13 50 -36 131 -50 180 -14 50 -26 93 -26 96 0 3 35 0 78
-7 42 -6 95 -15 117 -18z m35758 -9649 c37 -81 67 -155 67 -164 0 -14 -19 -15
-195 -9 -108 4 -204 9 -216 11 -11 2 -61 7 -112 10 -86 5 -193 17 -312 34 -41
6 -45 9 -25 14 14 3 50 8 80 11 181 16 420 137 565 286 l40 40 20 -42 c11 -24
51 -109 88 -191z m-3053 -730 c19 -3 62 -8 95 -12 201 -21 446 -85 729 -190
165 -60 422 -198 611 -326 529 -359 976 -914 1230 -1529 73 -176 80 -195 129
-348 99 -303 165 -647 196 -1017 11 -125 16 -687 7 -702 -3 -5 -8 -57 -12
-118 -4 -60 -9 -113 -11 -116 -2 -4 -6 -33 -9 -65 -3 -33 -8 -70 -10 -84 -3
-14 -8 -36 -10 -50 -3 -14 -7 -38 -9 -55 -3 -16 -12 -64 -21 -105 -9 -41 -18
-86 -21 -100 -12 -64 -90 -329 -113 -385 -4 -11 -27 -69 -51 -130 -45 -117
-137 -306 -201 -417 -79 -135 -423 -492 -689 -715 -415 -348 -887 -642 -1386
-864 -127 -56 -208 -82 -454 -143 -197 -49 -235 -57 -475 -101 -71 -12 -148
-25 -170 -28 -22 -3 -69 -10 -105 -16 -88 -14 -317 -39 -415 -46 -44 -3 -102
-8 -130 -10 -178 -16 -439 -25 -751 -25 -390 0 -628 10 -1023 40 -68 6 -128
10 -132 10 -11 0 -27 30 -33 61 -3 13 -21 77 -40 141 -40 133 -133 502 -166
653 -11 55 -30 138 -40 185 -23 102 -85 445 -100 550 -14 95 -16 109 -29 195
-6 39 -13 88 -15 110 -3 22 -9 76 -15 120 -11 88 -14 116 -36 345 -24 258 -27
320 -32 710 -6 439 4 643 52 1050 2 14 6 54 10 90 4 36 9 68 11 71 3 6 14 70
30 179 7 51 75 363 80 372 3 4 7 16 9 25 3 21 24 97 54 198 31 110 122 362
166 460 152 344 268 549 448 795 228 310 523 596 840 814 457 314 846 459
1397 521 110 12 528 14 610 2z m2490 -308 c41 -13 142 -37 185 -45 17 -3 46
-9 65 -14 19 -5 51 -12 70 -15 19 -3 48 -8 63 -11 91 -19 310 -36 479 -37
l167 -2 59 -170 c89 -256 105 -306 98 -312 -12 -13 -401 121 -561 192 -279
126 -448 225 -617 363 -38 30 -68 56 -68 58 0 7 24 4 60 -7z m35 -880 c187
-115 517 -294 763 -415 185 -90 562 -255 645 -282 58 -19 60 -24 132 -297 5
-16 9 -32 10 -35 9 -30 28 -98 30 -110 2 -8 22 -82 45 -165 40 -143 224 -866
234 -916 2 -13 27 -118 56 -234 28 -115 58 -241 67 -280 8 -38 21 -95 28 -125
21 -90 47 -202 56 -245 15 -69 16 -77 48 -210 31 -134 75 -337 85 -390 2 -16
14 -75 25 -130 11 -55 22 -113 24 -130 3 -16 17 -93 31 -170 14 -77 27 -156
30 -175 2 -19 13 -93 25 -165 11 -71 23 -155 26 -185 3 -30 8 -62 10 -70 2 -8
7 -44 10 -80 3 -36 7 -74 9 -85 2 -11 7 -47 10 -80 4 -33 9 -76 11 -95 3 -19
7 -60 9 -90 2 -30 7 -84 11 -120 12 -132 14 -157 20 -270 4 -63 9 -128 11
-145 3 -16 7 -214 10 -440 5 -354 -4 -772 -21 -915 -2 -19 -7 -75 -10 -125 -4
-49 -8 -97 -10 -105 -1 -8 -6 -51 -9 -95 -9 -105 -52 -427 -72 -535 -8 -47
-17 -103 -20 -125 -3 -21 -7 -42 -10 -46 -2 -4 -6 -24 -9 -45 -19 -134 -121
-555 -210 -864 -51 -178 -182 -558 -228 -662 -8 -18 -29 -69 -47 -113 -18 -44
-41 -98 -50 -120 -10 -22 -35 -78 -56 -125 -116 -264 -303 -614 -492 -920
-546 -883 -1341 -1736 -2262 -2426 -53 -40 -729 -504 -734 -504 -1 0 1 28 5
63 32 276 51 847 34 1062 -2 28 -6 104 -10 170 -3 66 -8 136 -10 155 -3 19 -7
64 -9 100 -24 313 -111 799 -197 1099 -99 345 -174 547 -303 816 -225 468
-489 832 -831 1148 -77 71 -167 150 -200 177 -74 59 -306 213 -525 350 -353
221 -663 439 -885 625 -479 400 -876 884 -1045 1273 -22 51 -40 97 -40 103 0
9 37 8 205 -5 28 -3 95 -8 150 -12 55 -4 116 -8 135 -10 19 -1 253 -6 520 -10
437 -6 794 1 1010 21 25 3 97 9 160 15 98 9 192 20 390 44 19 3 67 10 105 16
39 6 81 13 95 15 14 2 43 7 65 11 41 7 146 6 200 -1 104 -14 739 0 885 20 19
2 64 7 100 10 36 3 76 8 90 9 14 2 63 9 110 16 373 52 809 156 1185 281 222
75 385 137 513 195 41 19 76 34 79 34 13 0 284 136 398 199 150 84 332 203
390 255 l40 36 -48 -20 c-27 -11 -58 -22 -70 -24 -12 -2 -47 -11 -77 -20 -57
-16 -201 -40 -305 -51 -92 -10 -601 -18 -593 -10 4 4 64 33 135 65 352 157
718 371 983 573 116 88 278 227 325 277 l30 33 -40 -25 c-106 -64 -351 -142
-540 -172 -16 -2 -55 -9 -85 -15 -30 -6 -73 -12 -95 -15 -22 -2 -71 -9 -110
-15 -38 -6 -96 -13 -127 -15 -32 -3 -78 -8 -103 -11 -25 -4 -45 -5 -45 -3 0 3
37 33 83 69 162 125 372 354 537 585 67 94 230 346 230 356 0 2 -54 -50 -120
-114 -130 -126 -305 -264 -440 -345 -112 -67 -194 -108 -184 -91 4 7 19 31 34
53 50 75 151 267 213 405 49 109 147 378 177 485 50 180 106 414 116 485 2 19
7 46 10 60 3 14 8 39 10 55 2 17 6 46 9 65 3 19 8 51 10 70 3 19 7 58 11 85 3
28 4 48 1 45 -2 -3 -23 -59 -45 -125 -52 -155 -98 -280 -117 -318 -8 -16 -15
-34 -15 -38 0 -5 -11 -32 -24 -61 -13 -29 -45 -100 -71 -158 -46 -100 -75
-150 -61 -105 7 23 45 243 51 295 39 331 49 593 35 890 -6 124 -13 241 -15
260 -3 19 -7 60 -10 90 -78 716 -322 1396 -699 1950 -40 58 -76 111 -81 119
-9 16 -13 18 80 -40z m720 -44 c98 -25 203 -49 234 -55 62 -10 98 -17 151 -26
19 -4 42 -8 50 -9 8 -1 38 -5 65 -10 28 -5 55 -8 61 -7 11 2 29 -47 74 -198
12 -41 27 -88 32 -103 6 -15 8 -31 4 -34 -17 -17 -377 158 -563 274 -93 58
-304 213 -290 213 3 0 85 -20 182 -45z m-23314 -1363 c60 -46 242 -141 455
-238 35 -16 180 -63 264 -87 185 -51 397 -75 600 -66 137 7 161 9 235 25 71
15 7 -12 -205 -87 -90 -32 -321 -94 -380 -102 -19 -3 -55 -10 -80 -15 -49 -12
-236 -38 -340 -48 -36 -4 -190 -8 -344 -10 l-279 -4 7 158 c3 86 8 218 11 292
7 152 12 200 24 200 5 0 19 -8 32 -18z m4174 -268 c292 -20 667 -117 972 -250
785 -341 1454 -984 1973 -1894 193 -340 401 -814 544 -1243 78 -235 195 -648
230 -817 8 -35 73 -341 91 -425 14 -66 68 -379 78 -455 3 -19 12 -80 20 -135
9 -55 19 -129 22 -165 4 -36 8 -72 10 -80 1 -8 6 -42 9 -75 4 -33 14 -116 22
-185 8 -69 17 -170 21 -226 l6 -100 -157 -72 c-86 -40 -159 -72 -162 -72 -3 0
-24 -9 -48 -19 -121 -56 -743 -286 -784 -291 -4 -1 -52 -14 -107 -31 -55 -16
-130 -39 -166 -50 -300 -90 -864 -204 -1154 -234 -123 -13 -141 -14 -205 -20
-275 -22 -485 -27 -685 -16 -206 12 -283 18 -330 26 -16 3 -50 7 -75 10 -25 3
-72 10 -105 16 -33 5 -78 12 -100 15 -21 3 -42 7 -46 10 -4 2 -24 6 -45 10
-74 11 -300 73 -429 117 -397 135 -750 335 -1065 602 -116 99 -340 329 -432
445 -279 350 -542 786 -673 1115 -9 22 -20 49 -25 60 -22 46 -80 208 -113 315
-127 409 -183 799 -173 1198 6 216 8 245 31 402 16 107 23 144 31 180 3 14 8
36 11 50 2 14 9 43 14 65 5 22 12 49 14 60 20 86 108 348 143 425 99 220 171
354 262 490 360 536 867 912 1515 1125 354 116 643 149 1060 119z m-3181
-1939 c-30 -96 -77 -279 -90 -355 -9 -50 -24 -136 -29 -160 -5 -31 -11 -85
-26 -270 -11 -132 -8 -579 4 -635 3 -11 8 -49 12 -85 11 -103 12 -112 24 -175
6 -33 13 -76 16 -95 74 -439 300 -1028 558 -1455 141 -233 359 -538 499 -697
95 -108 47 -71 -159 124 -161 151 -320 316 -572 591 -84 92 -155 166 -157 164
-7 -6 64 -155 119 -252 171 -300 438 -596 720 -799 88 -62 86 -73 -10 -62
-159 19 -361 97 -599 232 -64 36 -118 63 -121 60 -3 -3 52 -63 123 -134 183
-183 503 -415 889 -647 136 -82 177 -112 140 -102 -11 3 -67 9 -125 12 -58 4
-116 9 -130 10 -14 2 -72 6 -130 9 -58 4 -116 9 -130 11 -14 3 -63 7 -110 10
-47 3 -118 8 -159 11 -50 4 -71 2 -67 -5 13 -21 176 -122 257 -160 176 -81
444 -155 694 -192 44 -6 87 -12 95 -14 48 -9 363 -35 452 -36 81 -2 81 -12 -3
-68 -51 -34 -141 -72 -205 -86 -120 -26 -170 -35 -234 -40 -41 -3 -86 -9 -100
-12 -25 -6 -25 -6 5 -13 34 -8 280 -60 310 -66 11 -1 74 -12 140 -24 66 -11
127 -22 135 -24 8 -3 42 -7 75 -11 33 -3 71 -8 85 -10 52 -10 108 -16 320 -35
63 -6 135 -13 160 -16 25 -3 189 -7 365 -8 246 -2 364 1 513 15 529 50 962
163 1327 346 61 30 115 59 122 65 6 5 24 11 40 14 99 18 433 90 508 109 50 13
102 26 115 29 155 30 815 244 997 322 17 8 34 14 38 14 19 0 523 219 589 257
l29 16 -6 -194 c-8 -228 -15 -313 -41 -484 -2 -11 -7 -47 -11 -80 -4 -33 -9
-63 -11 -66 -2 -4 -6 -24 -9 -45 -5 -31 -23 -124 -30 -154 -1 -3 -5 -25 -9
-50 -56 -317 -234 -901 -368 -1205 -17 -38 -36 -83 -43 -100 -58 -141 -211
-465 -385 -815 -76 -151 -152 -309 -170 -350 -18 -41 -45 -102 -60 -135 -15
-33 -31 -71 -35 -85 -4 -14 -18 -47 -30 -75 -54 -119 -200 -565 -221 -675 -3
-14 -12 -52 -20 -84 -27 -104 -59 -319 -74 -501 -10 -118 -15 -488 -7 -503 3
-4 8 -55 11 -113 4 -58 9 -119 11 -135 3 -16 9 -56 15 -89 5 -33 12 -73 14
-90 2 -16 16 -86 31 -155 15 -69 28 -132 30 -140 11 -55 94 -315 132 -415 205
-534 490 -1078 840 -1601 170 -253 239 -351 354 -503 52 -68 59 -85 32 -77
-10 3 -45 8 -78 11 -75 8 -376 53 -430 65 -22 5 -56 11 -75 15 -104 17 -515
118 -670 165 -230 70 -583 197 -742 269 -615 275 -1042 524 -1523 885 -512
384 -1034 889 -1470 1421 -344 420 -705 946 -997 1455 -196 340 -465 869 -603
1185 -14 33 -33 74 -40 90 -32 67 -75 167 -75 172 0 2 -13 34 -30 70 -16 35
-30 68 -30 72 0 5 -14 39 -31 77 -32 69 -119 291 -164 414 -13 36 -36 97 -50
135 -49 129 -137 379 -186 530 -84 255 -111 339 -114 355 -2 8 -12 42 -24 75
-26 76 -110 359 -115 389 -2 12 -11 43 -19 67 -12 35 -63 221 -83 298 -26 105
-44 175 -57 221 -9 30 -19 66 -21 80 -3 14 -31 129 -61 255 -31 127 -67 284
-81 350 -56 268 -134 650 -139 689 -4 22 -10 57 -15 76 -5 19 -11 53 -15 75
-3 22 -7 47 -10 55 -5 17 -71 407 -78 460 -3 19 -12 76 -20 125 -9 50 -19 113
-22 140 -3 28 -7 61 -10 75 -8 42 -17 104 -30 210 -3 25 -7 56 -10 70 -3 14
-7 43 -10 65 -2 22 -15 128 -29 235 -22 177 -29 234 -41 355 -2 22 -9 85 -15
140 -6 55 -13 123 -16 150 -2 28 -7 70 -9 95 -3 25 -7 83 -10 130 -3 47 -7 95
-9 105 -2 11 -6 65 -9 120 l-6 100 87 42 c273 132 570 346 836 604 67 64 122
116 123 115 1 -1 -14 -51 -33 -111z m-813 -174 c-35 -44 -143 -147 -188 -179
l-30 -21 -7 67 c-3 37 -6 83 -6 104 l0 36 60 7 c33 4 62 7 65 7 2 0 33 8 67
18 35 10 65 13 66 9 2 -5 -10 -26 -27 -48z m25438 -2466 c82 -165 181 -376
221 -470 40 -93 81 -188 90 -210 10 -22 41 -103 70 -180 29 -77 58 -153 65
-170 19 -46 129 -386 164 -505 57 -199 131 -524 154 -675 5 -28 11 -66 21
-125 11 -59 67 -332 85 -410 11 -47 22 -96 25 -110 17 -73 36 -149 45 -178 5
-18 10 -35 10 -37 6 -65 144 -510 246 -794 32 -90 159 -388 192 -450 13 -24
22 -45 21 -46 -3 -2 -110 42 -328 133 -29 13 -260 90 -375 126 -67 21 -260 68
-330 81 -77 14 -246 37 -330 44 -100 9 -350 6 -422 -5 -84 -12 -192 -37 -266
-60 -91 -29 -117 -59 -117 -133 0 -38 11 -61 78 -165 69 -107 139 -221 213
-351 56 -99 166 -312 228 -445 72 -151 191 -426 191 -440 0 -4 11 -32 24 -62
44 -100 187 -540 232 -713 149 -578 209 -1021 209 -1535 0 -214 -9 -398 -25
-522 -5 -40 -12 -93 -15 -118 -3 -25 -8 -54 -10 -66 -3 -12 -7 -39 -11 -60 -3
-21 -12 -70 -20 -109 -8 -38 -17 -83 -20 -100 -16 -86 -99 -366 -133 -450 -5
-11 -22 -54 -37 -95 -42 -109 -151 -329 -226 -455 -77 -128 -241 -353 -264
-362 -9 -3 -69 10 -133 30 -64 19 -170 52 -236 72 -236 72 -1187 393 -1214
410 -5 3 -65 25 -133 49 -142 51 -384 142 -413 155 -11 5 -36 15 -55 21 -19 7
-51 20 -70 28 -52 21 -67 27 -160 63 -73 28 -249 100 -315 129 -11 4 -72 30
-135 55 -63 26 -133 56 -155 66 -22 9 -105 45 -185 80 -522 224 -1099 502
-1705 823 -60 32 -56 46 32 90 43 22 140 75 217 118 76 43 140 78 141 78 2 0
2 -24 0 -52 l-4 -53 12 58 c12 57 13 59 80 100 144 90 849 578 987 684 614
472 1175 1018 1635 1593 462 577 851 1219 1130 1865 26 61 53 124 61 140 26
60 47 113 101 260 231 627 376 1201 468 1855 9 63 18 126 20 140 2 14 6 50 10
80 3 30 8 78 12 105 8 61 9 72 17 205 4 58 9 111 12 119 2 7 7 81 9 165 3 83
8 166 11 183 6 43 6 823 -1 978 l-5 120 80 -145 c44 -80 148 -280 229 -445z"/>
<path d="M33662 26858 c-145 -16 -238 -32 -297 -49 -16 -4 -41 -10 -55 -13
-52 -9 -308 -96 -396 -135 -508 -221 -940 -556 -1403 -1086 -385 -441 -578
-737 -805 -1236 -52 -116 -192 -513 -212 -604 -1 -5 -12 -46 -23 -90 -30 -110
-31 -117 -37 -145 -2 -14 -7 -32 -10 -40 -4 -12 -55 -256 -69 -335 -8 -41 -26
-151 -30 -180 -6 -45 -15 -109 -19 -136 -6 -34 -15 -105 -21 -164 -3 -27 -7
-68 -10 -90 -9 -80 -23 -239 -30 -330 -23 -360 -22 -305 -23 -870 0 -258 1
-501 3 -540 2 -38 6 -128 10 -200 6 -130 21 -381 30 -505 3 -36 7 -96 10 -135
3 -38 7 -90 10 -115 3 -25 12 -119 20 -210 17 -187 71 -665 85 -754 5 -32 9
-61 8 -65 -1 -3 2 -26 5 -51 4 -25 9 -61 12 -80 2 -19 22 -161 45 -315 22
-154 42 -296 45 -315 3 -19 7 -46 9 -60 3 -14 12 -70 21 -125 19 -114 15 -94
56 -330 17 -99 32 -193 35 -210 3 -16 7 -37 9 -45 2 -8 6 -31 9 -50 3 -19 23
-129 45 -245 22 -115 42 -223 44 -240 10 -58 138 -690 147 -725 5 -19 11 -51
14 -70 3 -19 8 -44 10 -55 30 -129 75 -337 80 -361 3 -16 14 -67 24 -114 11
-47 34 -151 52 -232 19 -81 35 -146 37 -144 2 2 -23 138 -56 302 -33 165 -69
351 -80 414 -34 195 -52 294 -56 320 -3 14 -7 36 -10 50 -3 14 -7 41 -10 60
-2 19 -18 114 -34 210 -16 96 -31 199 -35 229 -4 29 -8 56 -10 60 -2 3 -7 35
-10 70 -4 36 -8 67 -10 70 -2 3 -7 34 -10 67 -3 34 -8 68 -11 75 -4 11 -29
206 -80 624 -6 52 -43 404 -50 475 -16 163 -17 177 -34 395 -11 132 -20 265
-26 365 -2 36 -8 146 -14 245 -35 619 -29 1626 14 2060 5 55 13 156 20 245 3
41 7 91 10 110 9 65 14 115 25 219 6 57 20 162 31 235 11 72 22 147 24 166 3
19 7 44 10 56 2 12 7 39 10 60 15 101 107 554 122 599 9 26 11 34 18 70 3 17
8 37 11 45 3 8 8 25 10 38 9 45 114 398 145 487 67 190 110 306 134 360 8 17
28 65 45 107 107 261 333 668 502 902 184 255 469 558 694 739 230 185 540
369 814 485 57 24 300 109 335 117 11 3 56 14 99 25 44 10 91 22 105 24 152
28 213 37 316 46 381 32 751 -19 1170 -161 82 -28 174 -62 205 -75 30 -14 78
-35 105 -47 221 -97 649 -348 845 -497 19 -15 73 -55 120 -90 401 -301 862
-736 1319 -1245 71 -79 58 -57 -64 105 -504 671 -1082 1285 -1585 1685 -548
436 -1063 704 -1603 836 -42 10 -92 21 -110 24 -17 3 -59 11 -92 17 -33 6 -71
12 -85 13 -14 1 -61 5 -105 9 -150 14 -363 11 -513 -6z"/>
<path d="M18260 24084 c-455 -61 -843 -218 -1155 -464 -263 -208 -486 -491
-657 -835 -52 -103 -142 -322 -170 -410 -71 -227 -147 -536 -164 -670 -3 -22
-7 -46 -10 -54 -2 -8 -7 -37 -10 -65 -2 -28 -7 -62 -10 -76 -3 -14 -8 -47 -10
-75 -2 -27 -9 -95 -15 -150 -15 -139 -15 -144 -24 -380 -10 -300 -11 -485 -2
-485 4 0 7 5 7 11 0 6 6 25 14 42 16 37 42 109 166 467 118 339 242 671 289
772 11 26 21 49 21 52 0 3 11 29 24 58 13 29 48 105 76 168 262 574 604 1020
974 1268 139 92 368 195 507 227 376 85 676 67 1085 -66 644 -208 1218 -569
1773 -1114 504 -495 929 -1061 1354 -1805 205 -359 459 -867 617 -1235 28 -66
60 -138 69 -160 10 -22 33 -76 51 -120 18 -44 38 -93 45 -110 20 -47 128 -322
159 -405 16 -41 32 -84 37 -95 27 -62 265 -741 294 -840 13 -44 31 -100 40
-125 9 -25 25 -74 35 -110 11 -36 33 -110 50 -165 29 -91 53 -173 124 -415 14
-47 34 -121 46 -165 12 -44 29 -105 37 -135 8 -30 17 -62 19 -70 2 -8 24 -91
49 -185 25 -93 52 -199 61 -235 9 -36 18 -72 20 -80 32 -124 170 -713 177
-755 3 -16 14 -70 26 -120 11 -49 23 -101 26 -115 2 -14 31 -155 64 -315 32
-159 61 -308 64 -330 3 -22 8 -47 11 -55 3 -8 7 -28 10 -45 5 -30 33 -187 42
-235 6 -35 82 -479 87 -515 3 -16 10 -59 16 -95 6 -36 13 -81 16 -100 3 -19
10 -66 15 -105 6 -38 13 -86 16 -105 2 -19 6 -48 9 -65 7 -44 17 -128 18 -142
0 -7 4 -10 9 -7 5 4 7 12 4 19 -3 8 -8 40 -11 72 -4 32 -8 69 -11 83 -2 14
-15 115 -29 225 -27 207 -72 547 -80 600 -3 17 -7 46 -9 65 -3 19 -14 96 -25
170 -12 74 -23 151 -25 170 -3 19 -16 105 -30 190 -14 85 -27 169 -29 185 -4
23 -56 331 -101 590 -5 33 -35 192 -60 320 -8 44 -17 91 -20 105 -31 165 -81
408 -97 475 -5 22 -16 74 -24 115 -8 41 -16 84 -19 95 -16 66 -67 291 -70 309
-34 177 -220 895 -333 1291 -41 143 -76 265 -77 270 -1 6 -9 33 -18 60 -9 28
-29 91 -44 140 -15 50 -74 230 -132 400 -57 171 -107 321 -111 335 -10 30
-136 370 -156 420 -7 19 -48 123 -91 230 -42 107 -85 213 -95 235 -10 22 -52
119 -95 215 -287 655 -596 1227 -929 1726 -667 997 -1366 1647 -2167 2017
-201 93 -526 185 -718 203 -36 3 -81 9 -100 13 -67 15 -607 11 -720 -5z"/>
<path d="M29258 13665 c-2 -1 -68 -6 -148 -9 -165 -8 -224 -12 -289 -20 -50
-6 -102 -12 -196 -21 -33 -3 -71 -8 -85 -10 -14 -2 -45 -6 -70 -10 -374 -53
-878 -167 -1286 -290 -527 -160 -987 -344 -1439 -579 -157 -81 -248 -134 -211
-122 89 30 471 150 510 161 28 8 80 23 116 34 191 58 649 186 695 195 6 1 35
10 65 19 30 9 66 18 80 21 14 3 52 12 85 21 104 26 396 96 490 116 107 23 220
46 255 53 14 3 79 16 145 29 66 14 136 27 155 30 19 3 127 21 240 40 113 19
212 34 220 35 8 0 51 5 95 11 147 21 229 30 395 45 374 34 511 41 840 40 374
0 579 -12 885 -50 66 -9 136 -17 155 -20 19 -2 49 -6 65 -9 17 -2 48 -7 70
-10 41 -6 140 -23 185 -31 57 -11 -187 80 -325 121 -133 39 -324 90 -380 101
-209 41 -283 53 -480 79 -133 18 -312 27 -552 29 -156 2 -284 2 -285 1z"/>
<path d="M30340 11978 c-3 -3 -111 -8 -240 -12 -129 -4 -248 -9 -265 -11 -16
-2 -81 -6 -143 -9 -62 -4 -156 -10 -210 -15 -53 -5 -104 -9 -112 -9 -8 0 -64
-5 -125 -11 -60 -6 -132 -13 -160 -16 -27 -2 -111 -11 -185 -20 -74 -8 -162
-18 -195 -21 -33 -4 -67 -8 -75 -9 -8 -1 -42 -5 -75 -9 -33 -4 -71 -9 -84 -12
-42 -6 -234 -34 -271 -38 -109 -14 -418 -66 -565 -96 -27 -5 -61 -11 -75 -14
-14 -2 -68 -13 -120 -24 -52 -11 -111 -23 -130 -26 -19 -3 -78 -15 -130 -26
-200 -44 -191 -42 -565 -129 -66 -16 -174 -43 -240 -61 -66 -17 -127 -34 -135
-35 -8 -2 -100 -28 -205 -58 -368 -106 -761 -241 -1047 -361 -149 -62 -451
-200 -473 -216 -5 -4 -48 -27 -95 -51 -106 -54 -319 -183 -425 -257 -463 -323
-750 -665 -936 -1117 -20 -50 -73 -239 -84 -300 -26 -145 -29 -196 -30 -415 0
-244 5 -327 25 -450 6 -36 13 -78 16 -95 3 -16 7 -37 9 -45 2 -8 6 -26 9 -40
2 -14 9 -43 14 -65 6 -22 14 -53 17 -70 13 -65 16 -79 21 -87 3 -5 18 -52 34
-106 91 -315 304 -781 528 -1151 681 -1132 1693 -2000 2872 -2464 265 -104
558 -196 800 -252 41 -9 82 -19 91 -21 10 -3 24 -27 34 -57 9 -29 22 -65 29
-82 8 -16 26 -59 42 -95 64 -147 173 -322 287 -465 81 -100 258 -271 361 -349
69 -52 279 -186 291 -186 2 0 46 -21 97 -46 228 -112 566 -198 893 -229 51 -4
558 -5 605 0 19 2 69 6 110 10 41 4 84 9 95 10 11 2 42 6 68 10 297 37 734
151 947 247 313 141 528 280 734 478 213 205 358 416 491 715 56 126 102 283
135 455 29 153 30 159 36 230 3 36 7 76 10 90 2 14 4 100 4 192 l1 167 97 73
c705 529 1279 1226 1633 1983 138 296 295 743 335 955 3 14 13 61 24 105 11
44 29 139 40 210 11 72 22 141 25 155 3 14 8 63 11 110 3 47 9 103 13 125 11
59 11 585 1 685 -5 47 -12 110 -15 140 -15 166 -74 448 -133 640 -106 345
-274 666 -474 905 -272 326 -621 551 -1123 725 -95 33 -342 105 -425 125 -179
41 -606 115 -760 130 -25 3 -63 7 -85 10 -22 2 -67 7 -100 10 -33 4 -78 8
-100 10 -22 2 -89 7 -150 10 -60 4 -128 8 -150 10 -72 6 -970 18 -975 13z
m1035 -271 c28 -3 88 -8 135 -11 81 -6 129 -10 230 -21 25 -3 74 -7 110 -11
36 -3 110 -12 165 -20 114 -18 123 -19 185 -28 25 -4 59 -9 75 -13 17 -4 37
-7 45 -8 50 -7 166 -31 307 -66 404 -98 759 -245 1012 -419 410 -281 695 -723
844 -1306 77 -298 102 -517 102 -879 0 -234 -8 -384 -26 -510 -6 -38 -12 -88
-15 -110 -2 -22 -9 -60 -14 -85 -5 -25 -14 -74 -20 -110 -6 -36 -23 -110 -36
-165 -14 -55 -28 -111 -30 -125 -15 -78 -98 -331 -167 -510 -261 -671 -674
-1275 -1231 -1799 -437 -412 -989 -784 -1541 -1038 -450 -208 -1092 -419
-1425 -468 -24 -4 -47 -8 -51 -11 -3 -2 -21 -6 -40 -8 -19 -3 -72 -12 -119
-20 -47 -8 -104 -18 -127 -21 -23 -3 -55 -8 -70 -10 -192 -28 -333 -42 -585
-60 -116 -9 -564 -9 -703 -1 -95 6 -280 23 -450 42 -79 9 -379 62 -505 89
-239 52 -696 193 -855 264 -11 5 -47 20 -80 34 -290 119 -626 299 -903 481
-139 92 -200 136 -347 250 -573 445 -1045 982 -1431 1629 -77 129 -258 479
-311 602 -138 318 -221 584 -277 888 -29 154 -50 406 -42 492 4 33 9 92 12
130 4 60 17 141 39 246 3 15 17 60 30 100 76 237 180 427 336 614 333 399 817
716 1544 1012 88 36 183 73 210 83 28 9 91 32 140 50 50 17 160 54 245 81 141
46 209 66 415 128 39 11 142 39 230 62 88 22 167 43 175 45 8 2 42 10 75 18
33 8 110 26 170 41 231 55 486 109 800 170 99 19 203 39 230 45 56 10 149 26
210 35 22 3 54 8 70 10 74 12 91 15 134 21 25 3 57 8 71 10 52 8 328 44 385
49 33 4 71 8 85 10 31 5 296 33 370 40 30 3 78 8 105 10 113 11 175 16 520 40
39 2 144 8 235 11 91 4 167 9 170 11 7 7 1121 -3 1185 -10z m1025 -7144 c0
-75 -13 -197 -35 -333 -3 -19 -13 -60 -22 -90 -8 -30 -17 -66 -20 -79 -2 -14
-6 -28 -9 -33 -3 -5 -8 -21 -10 -35 -3 -15 -11 -41 -18 -58 -7 -16 -23 -57
-36 -90 -28 -73 -90 -197 -143 -285 -129 -214 -356 -445 -597 -607 -106 -72
-320 -179 -455 -230 -152 -56 -389 -125 -510 -148 -105 -20 -247 -44 -290 -49
-27 -4 -79 -11 -115 -16 -112 -17 -592 -24 -725 -11 -142 14 -270 35 -380 62
-624 155 -1072 516 -1324 1067 l-19 42 46 -6 c26 -3 76 -10 112 -15 36 -5 76
-12 90 -14 14 -2 57 -6 95 -10 39 -4 78 -9 88 -10 20 -4 173 -14 367 -23 137
-7 566 1 675 12 33 3 89 8 125 11 36 3 81 7 100 10 19 2 60 7 90 10 184 20
583 91 755 135 22 6 49 13 60 15 11 2 35 8 53 14 18 5 33 10 35 10 23 -2 443
126 617 188 463 164 1022 424 1325 615 33 21 63 38 68 38 4 0 7 -39 7 -87z"/>
<path d="M32530 9826 c-221 -51 -404 -167 -578 -366 -261 -298 -439 -723 -508
-1213 -21 -147 -26 -510 -9 -637 28 -210 42 -271 95 -432 137 -411 376 -681
680 -768 109 -32 298 -36 399 -9 304 81 575 319 779 684 80 144 198 444 219
555 2 14 11 52 20 85 8 33 17 71 19 85 4 25 13 76 20 115 21 120 33 514 19
625 -2 19 -10 76 -16 125 -15 120 -60 310 -99 415 -137 372 -353 616 -630 712
-74 26 -102 30 -220 34 -88 2 -154 -1 -190 -10z m285 -251 c32 -9 86 -30 119
-48 71 -38 207 -168 259 -247 104 -160 197 -413 222 -605 3 -22 10 -78 16
-125 11 -83 8 -404 -5 -505 -42 -329 -142 -637 -286 -878 -158 -264 -353 -440
-570 -513 -55 -18 -230 -27 -245 -12 -4 4 22 44 58 90 108 139 194 287 274
473 42 96 104 283 114 340 1 6 7 30 14 55 7 25 17 63 21 85 4 22 8 42 9 45 0
3 5 30 9 60 4 30 10 64 12 75 15 87 26 326 20 470 -6 171 -8 195 -19 250 -3
17 -9 48 -12 70 -3 22 -15 78 -26 125 -11 47 -22 92 -24 100 -2 8 -19 58 -38
110 -67 185 -160 346 -268 464 -29 31 -48 61 -43 65 11 10 107 47 154 60 55
15 170 13 235 -4z m-485 -355 c229 -310 319 -776 254 -1325 -9 -72 -54 -286
-65 -307 -5 -10 -7 -18 -5 -18 3 0 -13 -53 -35 -117 -48 -138 -137 -329 -201
-428 -53 -83 -166 -225 -178 -225 -18 0 -102 96 -157 178 -158 236 -247 606
-236 987 4 164 6 180 28 320 1 11 6 43 10 70 4 28 20 100 35 160 77 298 208
567 375 768 l57 69 35 -34 c19 -18 56 -62 83 -98z"/>
<path d="M25295 8593 c-484 -70 -776 -544 -752 -1218 28 -789 473 -1601 1071
-1954 75 -44 246 -116 301 -127 110 -21 153 -26 235 -25 115 2 128 4 210 27
93 25 204 85 281 148 103 86 208 235 259 366 11 30 24 64 29 75 18 42 43 145
66 280 13 77 17 320 6 435 -87 942 -724 1836 -1411 1980 -80 16 -227 23 -295
13z m291 -274 c35 -11 64 -21 64 -23 0 -2 -20 -33 -44 -71 -80 -121 -147 -304
-176 -485 -19 -113 -20 -123 -20 -295 -1 -257 39 -500 125 -760 136 -414 343
-749 636 -1029 102 -97 118 -117 103 -123 -11 -5 -73 -8 -139 -7 -103 1 -131
5 -200 28 -280 96 -564 348 -780 692 -58 91 -185 344 -185 367 0 7 -4 17 -9
23 -11 11 -78 208 -86 251 -3 18 -9 43 -14 56 -20 51 -53 266 -60 382 -6 105
0 279 12 355 31 192 86 333 175 450 69 92 186 176 273 196 13 3 40 10 59 14
52 13 193 2 266 -21z m367 -196 c238 -181 476 -508 616 -844 38 -92 89 -231
91 -247 0 -4 5 -21 10 -37 11 -34 32 -128 57 -255 22 -111 25 -491 4 -595 -16
-81 -64 -232 -94 -290 -29 -59 -98 -155 -111 -155 -7 0 -48 29 -92 64 -348
279 -636 784 -733 1287 -30 156 -31 162 -38 331 -9 247 25 447 107 613 37 75
103 175 116 175 3 0 33 -21 67 -47z"/>
<path d="M32691 2755 c-164 -180 -459 -466 -580 -563 -326 -261 -768 -486
-1141 -582 -331 -84 -690 -109 -1091 -74 -143 13 -249 28 -514 75 -27 5 -104
23 -170 39 -66 17 -127 33 -135 35 -116 26 -549 172 -757 255 -98 40 -265 114
-370 165 -106 52 -193 92 -193 90 0 -6 125 -101 229 -174 404 -282 919 -516
1411 -641 47 -12 96 -24 110 -26 14 -3 57 -11 95 -19 69 -14 231 -36 390 -54
82 -9 514 -8 550 1 11 3 49 9 85 13 36 3 81 8 100 10 142 16 513 123 644 184
252 120 335 163 397 208 332 239 343 249 514 430 92 98 182 196 200 218 54 67
354 535 343 535 -2 0 -55 -56 -117 -125z"/>
<path d="M34940 20647 c-3 -2 -52 -7 -110 -11 -128 -7 -138 -9 -272 -35 -963
-191 -1729 -962 -1984 -1996 -39 -158 -37 -147 -61 -310 -26 -178 -25 -699 2
-845 2 -14 11 -69 20 -122 8 -54 18 -103 20 -110 3 -7 11 -42 19 -78 29 -133
86 -313 131 -415 7 -16 25 -59 40 -95 79 -189 222 -435 349 -600 423 -549 963
-897 1591 -1024 161 -33 182 -35 390 -42 158 -6 337 3 452 22 318 51 629 166
892 329 263 163 488 365 682 615 58 74 219 312 219 323 0 2 17 36 38 74 134
243 253 599 303 900 50 308 52 709 4 973 -2 14 -7 43 -10 65 -6 42 -57 265
-74 325 -6 19 -17 58 -25 85 -28 95 -107 291 -170 420 -148 306 -342 573 -593
816 -384 372 -841 609 -1343 699 -63 11 -135 22 -160 24 -85 9 -345 18 -350
13z m390 -262 c19 -3 71 -12 116 -20 199 -36 416 -113 620 -219 954 -498 1514
-1604 1380 -2726 -11 -85 -17 -128 -26 -175 -6 -27 -12 -61 -15 -75 -49 -262
-180 -589 -336 -842 -266 -430 -679 -782 -1114 -948 -11 -4 -42 -17 -70 -28
-27 -11 -102 -34 -165 -51 -469 -124 -942 -95 -1395 85 -184 72 -441 224 -610
358 -104 83 -296 277 -388 391 -209 259 -381 582 -481 905 -15 47 -29 95 -31
108 -3 12 -8 32 -11 45 -3 12 -10 40 -14 62 -5 22 -12 51 -15 65 -3 14 -7 36
-9 50 -2 14 -7 36 -10 50 -6 25 -9 56 -26 210 -13 117 -9 444 5 565 16 125 39
254 60 335 3 14 8 36 11 50 14 72 83 270 131 380 213 483 538 864 955 1122 89
55 318 168 340 168 8 0 18 4 24 9 16 15 222 77 314 95 14 2 48 9 75 15 104 23
207 29 425 26 124 -2 241 -6 260 -10z"/>
<path d="M34697 19774 c-157 -24 -296 -72 -467 -160 -324 -166 -591 -452 -755
-807 -36 -78 -113 -297 -121 -346 -3 -14 -9 -42 -14 -61 -9 -34 -13 -55 -24
-135 -17 -117 -23 -367 -12 -460 3 -22 8 -62 11 -90 9 -77 43 -231 71 -325
196 -641 696 -1133 1289 -1269 157 -35 180 -38 337 -40 299 -4 501 43 761 176
311 159 572 431 736 767 65 132 138 346 157 456 3 14 9 52 15 85 23 128 31
359 18 495 -9 97 -38 279 -45 292 -3 4 -31 -9 -64 -28 -69 -40 -190 -74 -264
-74 -258 1 -497 208 -562 489 -21 87 -13 262 14 342 43 123 111 223 192 285
l49 37 -37 30 c-111 90 -334 216 -464 263 -96 35 -214 65 -308 79 -123 19
-391 18 -513 -1z"/>
<path d="M20120 18149 c-152 -8 -304 -28 -436 -59 -49 -12 -96 -23 -104 -25
-68 -16 -281 -99 -395 -154 -512 -250 -939 -702 -1190 -1260 -69 -155 -166
-451 -191 -586 -20 -109 -42 -261 -49 -340 -7 -75 -7 -487 0 -529 3 -17 7 -53
9 -81 4 -42 22 -167 42 -279 31 -181 139 -490 248 -711 278 -564 689 -986
1216 -1251 338 -169 664 -249 1038 -253 172 -2 235 2 402 23 19 3 67 11 105
20 39 8 83 17 97 20 15 2 95 27 179 55 350 117 661 311 930 580 537 538 824
1295 796 2096 -4 94 -8 179 -11 190 -2 11 -7 52 -11 90 -7 69 -10 86 -20 135
-2 14 -7 41 -10 60 -14 83 -77 315 -119 433 -246 699 -730 1259 -1357 1572
-228 113 -433 180 -689 226 -100 17 -108 18 -220 24 -58 4 -109 7 -115 8 -5 2
-71 0 -145 -4z m358 -250 c46 -5 116 -16 155 -25 40 -8 85 -17 102 -20 33 -7
228 -69 260 -83 11 -5 45 -19 75 -31 167 -67 392 -204 556 -337 206 -166 442
-439 577 -665 125 -209 264 -543 301 -723 3 -11 16 -72 30 -135 13 -63 30
-160 38 -215 14 -108 18 -488 6 -595 -4 -36 -10 -90 -14 -120 -7 -69 -37 -212
-64 -310 -11 -41 -22 -83 -24 -93 -14 -54 -64 -186 -108 -287 -329 -747 -971
-1251 -1738 -1364 -169 -25 -423 -26 -575 -2 -114 18 -218 39 -265 52 -30 9
-57 16 -60 16 -3 0 -41 13 -85 30 -44 16 -95 33 -112 39 -56 17 -294 142 -388
203 -205 134 -425 332 -578 521 -148 183 -299 434 -382 635 -32 77 -115 320
-110 320 2 0 -2 18 -10 39 -13 38 -48 198 -59 271 -23 151 -30 242 -30 420 -1
271 5 335 54 595 19 94 77 287 121 398 216 543 601 983 1079 1235 249 131 556
221 810 238 58 3 107 9 110 11 7 7 227 -5 328 -18z"/>
<path d="M19915 17305 c-428 -66 -812 -316 -1065 -692 -60 -90 -153 -263 -187
-348 -29 -75 -86 -274 -98 -344 -28 -169 -33 -502 -9 -651 69 -429 248 -791
530 -1074 241 -240 527 -397 840 -460 134 -27 155 -29 304 -29 178 0 214 5
445 58 33 8 195 75 265 110 253 127 518 386 667 651 61 109 117 234 149 334
13 41 24 78 24 82 1 4 6 22 11 40 36 125 61 322 60 488 -1 172 -7 225 -41 401
l-11 57 -56 -34 c-88 -53 -145 -68 -258 -68 -124 -1 -202 23 -303 94 -209 146
-306 419 -242 673 29 114 73 190 162 279 l77 76 -90 64 c-112 79 -201 130
-304 175 -44 19 -89 38 -100 43 -23 11 -119 39 -154 46 -13 3 -54 12 -90 20
-94 22 -410 27 -526 9z"/>
</g>
</svg>
