<?xml version="1.0" standalone="no"?>
<!DOCTYPE svg PUBLIC "-//W3C//DTD SVG 20010904//EN"
 "http://www.w3.org/TR/2001/REC-SVG-20010904/DTD/svg10.dtd">
<svg version="1.0" xmlns="http://www.w3.org/2000/svg"
 width="1500.000000pt" height="1101.000000pt" viewBox="0 0 1500.000000 1101.000000"
 preserveAspectRatio="xMidYMid meet">
<metadata>
Created by potrace 1.16, written by Peter Selinger 2001-2019
</metadata>
<g transform="translate(0.000000,1101.000000) scale(0.100000,-0.100000)"
fill="#000000" stroke="none">
<path d="M3990 10723 c-45 -7 -569 -113 -790 -159 -486 -102 -894 -216 -1245
-347 -651 -244 -1069 -570 -1215 -947 -16 -42 -43 -150 -60 -240 -42 -219 -93
-431 -179 -740 -96 -343 -123 -476 -123 -615 0 -254 77 -404 308 -600 137
-116 241 -236 429 -495 246 -340 397 -518 605 -713 324 -305 723 -532 1170
-666 538 -162 1184 -202 1908 -121 95 11 181 20 192 20 13 0 31 -23 60 -77
137 -255 364 -473 613 -592 45 -21 177 -69 292 -106 116 -36 305 -97 420 -135
116 -38 270 -84 343 -103 74 -19 137 -38 142 -43 18 -19 200 -719 265 -1019
71 -331 84 -381 132 -530 166 -510 470 -1025 832 -1406 108 -115 248 -238 387
-341 337 -249 744 -411 1149 -458 117 -13 434 -13 566 0 554 56 1030 323 1301
730 103 155 174 335 233 590 26 112 77 243 176 450 90 188 107 248 77 278 -33
33 -157 -2 -341 -95 -216 -110 -374 -256 -430 -396 -18 -44 -21 -74 -21 -207
-1 -150 -2 -157 -32 -225 -131 -302 -450 -516 -841 -566 -131 -16 -378 -6
-508 21 -141 30 -290 82 -408 142 -515 265 -806 860 -868 1777 -22 313 0 923
44 1280 l12 94 175 58 c96 31 262 85 368 119 214 67 336 125 462 216 151 109
323 312 411 486 16 32 33 58 37 58 4 0 86 -9 182 -20 720 -80 1352 -42 1895
115 614 178 1097 510 1530 1055 41 52 154 204 251 337 217 299 274 366 411
484 140 121 205 195 254 294 104 209 90 397 -76 985 -69 245 -120 453 -158
655 -20 99 -47 212 -62 250 -155 413 -612 748 -1375 1010 -382 131 -762 226
-1545 385 l-350 72 -175 -5 c-199 -6 -304 -24 -492 -87 -276 -92 -596 -268
-883 -486 l-70 -53 -109 55 c-413 213 -886 347 -1354 385 -180 15 -632 6 -803
-15 -488 -61 -988 -201 -1392 -391 l-78 -36 -47 39 c-145 120 -409 285 -617
386 -309 151 -567 217 -835 215 -69 -1 -136 -4 -150 -6z m7000 -77 c85 -14
566 -115 865 -182 779 -174 1374 -380 1747 -606 262 -159 451 -344 548 -538
51 -104 63 -143 115 -395 42 -208 101 -440 178 -707 18 -65 32 -118 30 -118
-7 0 -168 337 -213 445 -72 171 -100 255 -141 409 -46 174 -87 266 -162 362
-293 372 -1009 516 -2212 443 -568 -34 -939 -137 -1194 -330 -216 -164 -341
-398 -393 -734 -20 -130 -15 -504 10 -810 59 -726 76 -1081 69 -1445 -11 -519
-72 -883 -204 -1205 -147 -360 -386 -624 -693 -764 -53 -23 -750 -253 -750
-246 0 54 103 718 149 960 9 46 7 65 -3 54 -9 -9 -117 -557 -155 -784 -95
-574 -116 -820 -116 -1373 0 -248 -3 -452 -6 -452 -4 0 -26 7 -50 16 -276 99
-621 80 -874 -49 -38 -19 -79 -43 -90 -52 -11 -9 12 0 52 20 271 132 597 159
898 72 l79 -22 17 -135 c23 -182 51 -321 93 -465 19 -66 37 -127 40 -135 5
-13 -10 -15 -101 -15 -71 -1 -134 -7 -183 -19 -89 -23 -225 -78 -260 -107 -15
-12 3 -6 47 15 143 70 328 108 455 92 55 -7 56 -8 73 -54 10 -26 35 -84 56
-129 l38 -83 -39 0 c-124 0 -294 -77 -420 -192 -37 -33 -29 -29 67 39 92 64
176 103 261 120 110 23 143 15 178 -45 15 -26 46 -75 70 -109 24 -34 44 -64
44 -67 0 -3 -9 -6 -20 -6 -70 0 -224 -98 -302 -193 l-43 -52 71 65 c91 82 161
125 245 147 l67 17 83 -87 84 -87 -35 -11 c-87 -28 -236 -162 -288 -261 l-23
-43 23 30 c43 57 143 157 188 189 25 17 70 43 100 57 l54 26 66 -47 c36 -26
93 -64 127 -84 l63 -37 -44 -53 c-48 -59 -82 -148 -91 -236 -5 -52 -4 -51 13
21 22 92 70 194 110 232 l29 28 75 -30 c66 -27 207 -70 279 -85 l27 -6 -21
-40 c-15 -33 -20 -66 -23 -158 -4 -128 5 -113 26 42 6 49 17 104 24 121 l14
32 58 -9 c33 -5 115 -13 184 -16 l125 -7 14 -40 c7 -22 16 -84 19 -139 3 -72
7 -94 15 -81 10 19 4 218 -7 246 -6 14 2 18 46 23 29 4 85 12 124 18 62 9 76
8 110 -8 48 -23 118 -94 145 -145 24 -49 34 -51 14 -4 -23 57 -73 120 -115
146 -22 13 -40 26 -40 29 0 3 28 13 63 23 34 10 99 36 144 57 67 31 88 37 115
31 53 -12 119 -45 173 -86 79 -60 84 -61 25 -7 -59 55 -141 102 -178 102 -35
0 -26 14 31 52 131 87 241 216 312 363 58 122 75 192 78 321 2 97 5 115 31
168 71 145 318 330 564 422 54 21 112 31 112 21 0 -15 -46 -130 -86 -212 -26
-55 -71 -156 -99 -225 -47 -113 -56 -129 -102 -166 -63 -52 -144 -83 -243 -93
l-75 -8 71 -2 c87 -1 183 26 242 69 23 17 42 28 42 26 0 -3 -9 -42 -20 -88
-16 -69 -25 -88 -52 -112 -54 -46 -115 -69 -208 -76 -84 -6 -85 -6 -35 -13 76
-12 177 11 236 54 16 11 29 18 29 16 0 -21 -61 -180 -97 -252 -235 -472 -668
-765 -1263 -852 -163 -24 -524 -23 -680 1 -611 94 -1111 375 -1543 865 -427
484 -714 1048 -852 1672 -60 271 -196 781 -311 1164 -131 434 -375 1184 -381
1168 -2 -6 50 -193 116 -415 166 -556 209 -708 204 -708 -34 0 -911 270 -1058
326 -343 131 -603 391 -764 764 -151 350 -221 781 -221 1370 0 318 6 424 85
1510 17 235 18 367 4 520 -30 334 -113 541 -287 722 -243 252 -568 369 -1192
430 -91 9 -297 13 -635 13 -417 0 -525 -3 -650 -18 -620 -74 -971 -252 -1124
-569 -28 -58 -61 -148 -76 -208 -40 -160 -72 -252 -141 -407 -69 -154 -231
-483 -239 -483 -2 0 -2 6 0 13 2 6 32 111 65 232 75 268 130 494 165 680 52
271 119 400 305 584 366 363 1032 634 2180 886 847 186 876 191 1095 161 350
-47 716 -200 1129 -474 l129 -85 -39 -20 c-88 -43 -294 -159 -299 -167 -16
-26 25 -14 131 39 371 183 833 340 1249 425 571 116 1159 126 1685 30 437 -80
788 -211 1247 -464 55 -30 94 -47 98 -40 6 9 -176 135 -252 174 -18 9 -33 18
-33 20 0 10 299 202 415 266 435 244 868 357 1175 306z m-7665 -956 c488 -38
845 -137 1087 -301 198 -135 328 -357 386 -663 28 -149 23 -627 -13 -1151 -26
-372 -29 -477 -30 -915 0 -497 4 -573 41 -830 30 -211 97 -465 165 -624 16
-38 28 -71 26 -72 -8 -8 -294 -34 -492 -45 -239 -13 -567 -7 -791 16 -981 99
-1676 454 -2230 1140 -62 76 -328 433 -407 545 -6 8 65 -59 157 -150 171 -168
187 -171 65 -16 -170 218 -338 386 -449 449 -30 18 -105 81 -166 142 -91 91
-117 123 -147 185 -48 101 -61 177 -54 308 11 184 34 262 132 440 188 342 284
557 346 774 50 176 100 284 168 366 203 243 563 370 1166 412 164 11 854 4
1040 -10z m9380 10 c678 -38 1069 -183 1256 -468 54 -82 94 -181 134 -327 44
-163 120 -343 271 -642 160 -318 172 -355 181 -558 6 -140 -9 -220 -59 -324
-43 -87 -203 -250 -280 -285 -105 -46 -247 -175 -414 -376 -94 -112 -187 -240
-176 -240 6 0 94 88 197 195 104 107 190 193 192 191 5 -5 -291 -417 -404
-563 -588 -758 -1304 -1127 -2353 -1213 -163 -13 -615 -14 -800 0 -218 15
-384 32 -393 40 -4 4 3 33 17 64 39 87 102 289 130 416 101 458 116 971 57
1910 -37 575 -44 743 -38 930 8 251 35 399 101 553 53 121 94 183 181 272 224
229 535 342 1100 400 310 32 780 42 1100 25z"/>
<path d="M9033 8119 c-47 -18 -163 -110 -163 -128 0 -4 39 6 88 23 178 61 287
37 423 -92 l69 -64 -6 33 c-17 87 -92 186 -169 224 -59 29 -175 31 -242 4z"/>
<path d="M5863 7976 c-60 -19 -108 -52 -143 -96 -36 -46 -69 -116 -70 -149 0
-21 8 -16 68 41 100 95 144 113 262 112 75 -1 110 -7 169 -28 41 -14 77 -26
80 -26 3 0 -17 22 -43 49 -86 87 -226 129 -323 97z"/>
<path d="M9140 7446 c-174 -37 -293 -101 -424 -225 -127 -122 -202 -252 -253
-438 -24 -88 -27 -115 -28 -263 0 -143 3 -176 23 -244 48 -167 129 -305 246
-421 177 -174 379 -253 625 -243 204 9 384 86 538 231 473 447 367 1242 -204
1530 -142 72 -374 104 -523 73z m305 -90 c90 -24 232 -98 308 -161 222 -184
343 -492 308 -783 -43 -350 -252 -619 -563 -723 -290 -97 -610 -3 -828 244
-22 25 -16 23 47 -16 212 -130 485 -149 707 -48 363 164 539 563 415 937 -82
246 -283 433 -539 501 -70 18 -262 24 -315 10 -19 -5 -26 -5 -20 1 13 12 95
38 160 51 68 14 246 6 320 -13z m39 -266 c23 -11 52 -36 66 -57 21 -31 25 -48
25 -112 0 -65 -5 -86 -32 -144 -114 -240 -429 -342 -529 -171 -24 41 -26 52
-22 122 4 60 11 90 36 138 52 102 154 192 260 230 57 20 149 17 196 -6z m186
-775 c80 -42 83 -177 5 -225 -113 -70 -251 53 -190 170 34 66 116 90 185 55z"/>
<path d="M5835 7309 c-357 -52 -645 -330 -731 -705 -21 -94 -24 -288 -5 -379
75 -359 301 -621 626 -725 95 -30 299 -39 403 -16 258 54 486 242 608 499 130
274 104 656 -62 925 -57 92 -184 222 -274 280 -160 104 -371 149 -565 121z
m337 -93 c31 -9 72 -22 90 -30 l33 -15 -40 7 c-69 12 -227 5 -300 -12 -95 -23
-236 -94 -313 -157 -110 -91 -210 -246 -247 -384 -40 -148 -27 -345 30 -487
114 -281 400 -476 701 -478 135 -1 302 48 416 122 l61 40 -27 -34 c-46 -55
-147 -137 -221 -179 -222 -124 -483 -131 -711 -19 -158 79 -282 206 -365 375
-69 142 -93 248 -93 410 0 160 22 254 95 400 89 179 207 299 376 382 164 80
354 101 515 59z m324 -265 c23 -10 52 -34 65 -52 21 -30 24 -45 24 -124 0 -84
-2 -94 -35 -155 -109 -201 -363 -305 -485 -199 -181 159 56 547 335 548 33 0
72 -7 96 -18z m191 -781 c18 -10 39 -33 48 -51 16 -30 16 -34 -10 -96 -36 -83
-47 -93 -101 -93 -105 0 -166 85 -129 178 31 76 122 105 192 62z"/>
<path d="M7420 6065 c-47 -7 -123 -26 -169 -40 -90 -29 -237 -92 -230 -100 3
-2 45 9 94 25 50 15 125 36 169 44 90 19 300 37 366 31 25 -2 82 -6 128 -10
123 -8 271 -39 438 -90 10 -3 -3 6 -31 21 -70 38 -194 82 -295 105 -114 26
-355 34 -470 14z"/>
<path d="M7435 5421 c-55 -10 -147 -32 -204 -50 -106 -33 -314 -133 -367 -177
-19 -16 2 -8 59 22 264 138 537 202 812 191 214 -9 367 -47 565 -138 126 -58
104 -37 -32 32 -196 98 -320 128 -558 134 -140 4 -195 1 -275 -14z"/>
<path d="M7570 4854 c-186 -22 -366 -74 -500 -145 -125 -67 -133 -82 -10 -21
190 95 425 151 637 152 172 0 400 -43 570 -110 42 -16 78 -28 80 -26 2 2 -28
17 -67 35 -84 37 -206 74 -322 96 -81 16 -319 27 -388 19z"/>
<path d="M7610 4404 c-139 -13 -322 -64 -430 -119 -72 -37 -91 -59 -22 -25
309 151 715 166 1088 40 104 -36 124 -33 27 3 -95 35 -203 64 -304 81 -92 16
-285 27 -359 20z"/>
<path d="M7589 3800 c-106 -19 -310 -80 -339 -101 -12 -9 -11 -10 5 -4 315
105 659 128 949 65 100 -22 113 -24 76 -9 -150 62 -491 86 -691 49z"/>
<path d="M7760 3234 c-80 -14 -173 -39 -225 -61 -65 -28 -188 -103 -201 -124
-4 -8 8 -3 27 9 95 63 243 120 363 141 156 28 379 5 556 -58 101 -36 92 -23
-13 19 -132 53 -220 71 -357 75 -69 2 -136 2 -150 -1z"/>
<path d="M2610 9189 c36 -5 155 -21 265 -35 591 -76 1035 -211 1330 -405 99
-66 249 -214 298 -295 47 -79 84 -175 102 -272 l15 -77 -4 95 c-11 248 -149
458 -416 633 -247 161 -659 285 -1140 342 -153 18 -562 31 -450 14z"/>
<path d="M12145 9193 c-492 -41 -870 -128 -1172 -268 -368 -172 -587 -451
-582 -744 1 -42 3 -65 5 -51 23 153 54 241 119 340 46 69 158 185 238 245 294
223 837 384 1547 460 85 10 157 19 159 21 5 5 -254 2 -314 -3z"/>
</g>
</svg>
