<?xml version="1.0" standalone="no"?>
<!DOCTYPE svg PUBLIC "-//W3C//DTD SVG 20010904//EN"
 "http://www.w3.org/TR/2001/REC-SVG-20010904/DTD/svg10.dtd">
<svg version="1.0" xmlns="http://www.w3.org/2000/svg"
 width="1500.000000pt" height="1511.000000pt" viewBox="0 0 1500.000000 1511.000000"
 preserveAspectRatio="xMidYMid meet">
<metadata>
Created by potrace 1.16, written by Peter Selinger 2001-2019
</metadata>
<g transform="translate(0.000000,1511.000000) scale(0.100000,-0.100000)"
fill="#000000" stroke="none">
<path d="M6656 14715 c-299 -49 -648 -188 -892 -357 -94 -64 -191 -166 -241
-253 -127 -219 -309 -748 -383 -1118 -14 -67 -5 -66 -125 -13 -164 72 -400
102 -570 73 -128 -23 -234 -77 -311 -160 -107 -114 -179 -302 -192 -499 l-7
-107 -135 84 c-222 139 -361 183 -610 192 -131 4 -174 2 -280 -16 -628 -109
-1223 -600 -1493 -1231 -50 -119 -106 -288 -133 -402 l-17 -77 -87 -51 c-114
-68 -227 -159 -421 -342 -163 -153 -199 -197 -199 -241 0 -22 8 -29 56 -46 98
-37 234 -54 384 -47 74 3 146 9 159 12 l23 7 -7 -99 c-22 -326 95 -2010 199
-2849 7 -60 13 -110 12 -111 0 0 -44 -25 -96 -56 -456 -270 -779 -717 -887
-1228 -14 -68 -18 -131 -18 -310 1 -210 3 -233 29 -344 96 -410 321 -735 691
-1002 110 -78 396 -222 600 -299 83 -32 283 -104 445 -160 944 -328 1539 -569
2103 -851 614 -308 1187 -671 1664 -1056 140 -112 194 -159 508 -442 416 -375
615 -527 897 -684 120 -66 317 -148 453 -187 311 -90 648 -91 932 -4 251 78
488 235 740 490 203 206 320 357 653 839 411 596 738 993 1206 1465 431 434
727 688 1344 1155 591 447 806 626 1076 895 306 305 515 584 664 890 111 227
175 416 217 645 22 120 25 467 5 580 -60 334 -175 583 -364 785 -139 149 -248
220 -648 421 -399 200 -477 258 -597 441 -176 268 -271 651 -352 1408 -4 44
-7 82 -5 86 1 3 40 -1 86 -7 250 -38 608 8 608 79 0 47 -50 104 -270 306 -160
148 -282 240 -407 311 -51 28 -93 57 -93 63 0 30 -54 375 -76 492 -144 743
-438 1279 -857 1562 -530 357 -1240 324 -1777 -81 -112 -84 -278 -262 -355
-379 -38 -58 -71 -104 -73 -103 -2 2 -19 64 -38 137 -51 200 -154 520 -175
551 -24 33 -100 69 -199 94 -107 27 -457 27 -578 1 -198 -44 -356 -120 -501
-241 -24 -20 -45 -35 -47 -33 -2 2 -17 49 -34 105 -103 346 -344 804 -582
1104 -144 182 -209 217 -413 223 -76 3 -152 -1 -209 -10z m402 -49 c72 -36
121 -83 201 -190 248 -333 548 -991 589 -1293 8 -57 7 -73 -7 -96 -53 -93
-314 -174 -706 -221 -448 -53 -1127 -68 -1585 -35 -133 9 -360 35 -391 45 -14
4 -6 39 57 242 159 508 225 693 321 891 58 119 74 143 142 211 177 179 506
348 831 429 165 41 242 50 380 47 102 -3 121 -6 168 -30z m1987 -1145 c44 -12
98 -34 120 -49 39 -27 41 -32 111 -247 40 -121 87 -279 105 -352 l34 -132 -28
-56 -27 -55 -33 16 c-17 9 -84 45 -147 79 -312 171 -766 338 -1142 422 -124
27 -128 29 -128 54 0 21 15 39 68 82 170 137 318 207 512 241 125 23 150 24
320 21 119 -2 174 -8 235 -24z m1882 -77 c351 -52 656 -223 870 -488 263 -325
435 -748 557 -1366 41 -207 70 -389 131 -835 99 -716 152 -983 261 -1318 83
-255 176 -426 307 -563 92 -98 174 -152 437 -286 518 -264 719 -433 860 -723
256 -526 232 -1096 -72 -1700 -186 -369 -450 -698 -853 -1063 -242 -219 -364
-320 -850 -697 -450 -350 -705 -561 -915 -759 -306 -288 -470 -450 -635 -626
-435 -464 -629 -701 -1065 -1303 -334 -462 -531 -688 -771 -884 -229 -186
-448 -288 -714 -330 -136 -21 -409 -13 -550 17 -149 31 -324 93 -470 165 -284
139 -509 296 -854 594 -498 432 -649 554 -931 756 -463 332 -939 612 -1580
929 -572 284 -1305 599 -1982 852 -665 248 -923 388 -1164 628 -219 220 -356
472 -421 776 -28 131 -25 458 5 597 104 479 397 897 822 1173 l82 54 -6 55
c-13 124 -67 1004 -91 1486 -67 1363 -57 1781 56 2246 l30 126 94 78 c507 422
1083 665 1580 665 377 0 754 -128 1139 -386 54 -36 82 -50 87 -42 17 27 31
189 26 288 -13 238 -105 442 -273 606 l-73 72 147 94 c193 124 256 160 447
256 167 84 384 179 519 227 l78 29 127 -17 c292 -39 592 -57 986 -57 828 0
1422 98 1568 259 l35 39 159 -33 c278 -57 515 -127 793 -235 155 -59 453 -191
472 -209 4 -3 -16 -71 -43 -151 -78 -225 -112 -375 -113 -500 -1 -120 15 -169
68 -201 86 -52 146 -18 426 242 434 403 686 581 960 677 162 57 228 67 420 66
158 -1 185 -4 275 -28 238 -65 483 -205 721 -412 41 -36 77 -64 79 -62 2 2
-27 40 -64 84 -109 127 -285 274 -436 361 -492 285 -1040 193 -1615 -270 -58
-47 -213 -190 -346 -319 -226 -219 -318 -298 -351 -298 -26 0 -53 20 -69 52
-28 53 -14 231 29 398 46 174 109 356 149 428 128 230 321 437 540 575 284
180 646 259 965 211z m-6072 -453 c92 -23 225 -70 225 -80 0 -4 -37 -22 -82
-40 -244 -98 -697 -354 -908 -513 -50 -37 -93 -68 -97 -68 -3 0 -3 46 0 103
17 283 148 505 340 577 143 54 356 62 522 21z m-1380 -545 c102 -26 239 -88
406 -186 125 -73 255 -215 329 -360 35 -69 69 -176 85 -269 16 -90 20 -316 6
-325 -4 -3 -19 6 -32 20 -13 15 -60 55 -104 89 -557 437 -1278 480 -2010 119
-208 -102 -457 -268 -615 -410 -93 -83 -92 -83 -76 -38 157 438 404 782 741
1032 252 187 510 301 785 347 132 22 359 13 485 -19z m9199 -1282 c278 -159
656 -486 633 -547 -18 -48 -377 -74 -564 -42 -54 9 -99 18 -101 20 -2 2 -14
117 -28 257 -13 139 -26 277 -30 306 -3 28 -3 52 1 52 5 0 44 -21 89 -46z
m-11435 -452 c-14 -62 -46 -331 -54 -449 l-7 -102 -37 -8 c-20 -4 -115 -8
-211 -8 -138 0 -190 4 -247 18 -107 28 -111 33 -72 87 65 93 212 224 404 362
91 65 226 150 231 145 2 -1 -1 -22 -7 -45z"/>
<path d="M8345 12824 c-16 -2 -65 -9 -109 -15 -228 -31 -346 -116 -346 -250 0
-298 574 -478 823 -258 177 155 110 417 -128 497 -61 21 -183 34 -240 26z
m235 -43 c141 -54 220 -163 207 -286 -12 -121 -104 -213 -244 -246 -79 -18
-218 -13 -298 11 -161 50 -284 155 -315 269 -29 108 70 209 246 250 146 35
315 36 404 2z"/>
<path d="M6580 12750 c-168 -22 -323 -108 -460 -257 -111 -121 -214 -301 -279
-486 -57 -161 -37 -284 59 -371 139 -125 387 -146 840 -71 80 14 221 36 313
50 346 53 519 132 588 266 92 181 -63 497 -329 672 -216 142 -519 224 -732
197z m395 -80 c190 -52 324 -127 451 -254 98 -98 153 -183 185 -288 39 -125
17 -221 -70 -308 -87 -85 -210 -138 -384 -165 -525 -80 -600 -88 -782 -88
-203 -1 -278 12 -376 64 -69 37 -108 84 -126 152 -15 59 -6 113 36 221 143
358 385 619 634 682 82 21 331 12 432 -16z"/>
<path d="M5032 12420 c-209 -55 -405 -219 -509 -427 -41 -84 -54 -185 -33
-263 16 -60 89 -133 150 -151 63 -19 257 -16 340 5 270 70 503 232 591 412 29
59 34 78 33 144 0 56 -5 85 -21 115 -27 50 -86 107 -140 134 -105 52 -279 65
-411 31z m329 -40 c193 -57 261 -209 174 -387 -38 -76 -179 -215 -283 -277
-143 -85 -320 -136 -470 -136 -151 1 -245 65 -266 181 -23 131 112 371 280
497 182 136 376 178 565 122z"/>
<path d="M10670 11764 c-116 -20 -151 -29 -218 -51 -476 -159 -754 -545 -849
-1178 -25 -168 -25 -777 0 -1005 54 -491 160 -855 369 -1274 138 -277 276
-473 449 -642 151 -146 287 -230 439 -271 94 -26 288 -23 393 5 179 49 353
139 526 272 446 345 705 819 808 1480 23 146 26 614 5 755 -68 453 -233 852
-480 1160 -322 401 -684 652 -1057 730 -76 16 -330 29 -385 19z m390 -168
c278 -50 561 -222 830 -503 191 -201 308 -377 417 -630 244 -567 277 -1341 82
-1912 -167 -486 -504 -878 -949 -1101 -127 -64 -220 -90 -345 -97 -304 -17
-587 170 -838 552 -78 120 -267 491 -267 526 0 5 32 -12 71 -37 214 -139 479
-214 755 -214 226 0 425 48 626 152 254 130 476 355 606 613 265 530 161 1182
-257 1596 -204 202 -442 328 -728 386 -139 28 -416 25 -552 -5 -249 -56 -467
-168 -642 -330 -77 -71 -79 -69 -54 38 41 177 122 372 210 505 58 90 227 253
318 310 102 62 250 123 357 146 102 21 256 23 360 5z m-22 -711 c453 -89 822
-404 976 -835 51 -142 68 -235 73 -405 6 -176 -6 -273 -53 -420 -106 -332
-357 -622 -679 -783 -448 -223 -1004 -157 -1391 165 l-60 50 -33 119 c-72 264
-104 469 -122 789 -15 273 -1 721 26 842 7 30 163 188 245 248 183 133 382
215 596 244 96 13 322 6 422 -14z"/>
<path d="M10650 10315 c-129 -29 -251 -91 -340 -171 -35 -32 -44 -36 -58 -26
-44 31 -113 61 -160 70 -265 48 -408 -239 -260 -522 38 -72 136 -173 196 -201
35 -17 44 -27 53 -60 67 -262 275 -469 537 -536 92 -23 259 -25 350 -4 126 30
257 103 352 195 l51 50 49 -11 c64 -14 118 1 161 45 42 44 57 85 58 161 1 67
-28 149 -72 207 -22 28 -27 45 -27 92 0 185 -81 369 -225 512 -66 66 -99 90
-176 128 -52 25 -121 53 -154 62 -84 23 -254 27 -335 9z m-483 -196 c224 -108
319 -444 168 -594 -101 -101 -249 -82 -383 51 -162 161 -187 406 -54 526 38
35 51 41 107 51 42 8 102 -5 162 -34z m1279 -560 c85 -40 144 -135 152 -240
17 -237 -246 -248 -354 -15 -44 94 -23 217 43 258 38 24 108 22 159 -3z"/>
<path d="M3047 10949 c-525 -77 -951 -504 -1195 -1199 -82 -233 -116 -451
-116 -735 0 -354 55 -637 189 -970 320 -798 897 -1314 1620 -1451 120 -23 343
-23 444 0 152 34 269 96 371 196 279 273 437 776 457 1455 14 497 -76 960
-309 1580 -255 676 -643 1060 -1139 1125 -88 11 -241 11 -322 -1z m262 -194
c296 -48 548 -212 755 -490 71 -96 141 -209 125 -202 -132 56 -206 82 -282
102 -624 158 -1297 -157 -1591 -743 -150 -299 -178 -681 -75 -1016 155 -504
583 -875 1107 -962 161 -26 400 -16 552 24 63 17 153 46 199 66 221 93 448
269 572 441 18 25 35 45 38 45 8 0 4 -61 -15 -240 -88 -833 -452 -1249 -1026
-1170 -556 76 -1038 383 -1360 868 -124 185 -268 501 -343 749 -44 143 -90
370 -106 521 -16 150 -7 505 16 632 66 368 224 717 444 982 177 214 411 358
643 397 85 14 246 12 347 -4z m561 -629 c110 -29 194 -62 303 -118 72 -38 80
-45 107 -98 125 -248 291 -725 359 -1030 35 -155 68 -403 73 -536 3 -90 3 -91
-36 -155 -167 -273 -421 -471 -726 -568 -173 -54 -414 -70 -596 -38 -484 86
-883 428 -1028 882 -83 262 -79 576 10 827 157 438 542 766 1003 853 55 10
127 13 256 11 153 -4 194 -8 275 -30z"/>
<path d="M4070 9663 c-31 -11 -66 -38 -113 -85 l-69 -70 -51 21 c-292 118
-649 24 -850 -224 -154 -191 -204 -466 -126 -699 19 -55 19 -61 3 -108 -24
-72 -16 -179 17 -243 54 -106 163 -140 262 -82 l46 28 61 -31 c101 -51 216
-73 345 -67 127 7 199 24 301 74 144 70 263 191 333 338 56 117 74 192 75 321
1 110 2 111 34 148 89 101 137 278 113 410 -40 218 -202 331 -381 269z m185
-42 c120 -54 187 -230 152 -397 -51 -239 -242 -374 -399 -281 -92 54 -141 159
-140 302 1 265 203 460 387 376z m-1097 -987 c100 -65 110 -273 17 -381 -47
-56 -111 -80 -165 -64 -48 14 -93 67 -110 127 -26 93 8 231 72 291 55 51 130
62 186 27z"/>
<path d="M7561 9829 c-346 -39 -691 -185 -973 -411 -95 -77 -151 -133 -73 -73
173 132 426 266 626 333 474 157 923 130 1414 -84 133 -59 86 -22 -80 61 -148
74 -302 128 -446 156 -118 23 -349 32 -468 18z"/>
<path d="M7611 9329 c-294 -31 -608 -136 -874 -292 -156 -92 -412 -294 -395
-312 3 -4 47 24 97 62 540 410 1200 574 1801 449 183 -39 405 -118 590 -211
75 -38 80 -39 80 -26 0 11 -106 74 -220 131 -340 170 -705 238 -1079 199z"/>
<path d="M7550 8673 c-263 -25 -425 -55 -623 -113 -314 -92 -627 -248 -882
-440 -110 -84 -242 -205 -233 -215 4 -4 42 22 85 57 415 338 913 547 1488 624
178 24 578 24 760 0 331 -43 608 -114 928 -238 71 -28 127 -52 125 -54 -2 -2
-57 3 -123 11 -451 56 -1170 28 -1760 -69 -549 -91 -1034 -233 -1398 -411
-236 -115 -396 -225 -547 -375 -155 -154 -217 -257 -243 -407 -23 -130 28
-278 133 -387 l60 -63 -87 -23 c-492 -128 -945 -344 -1178 -562 -247 -231
-303 -462 -181 -740 11 -25 -2 -24 -191 12 -713 136 -1305 375 -1631 660 -69
59 -83 76 -78 94 33 113 38 146 34 228 -2 49 -9 93 -15 99 -12 12 -13 7 -33
-109 -28 -160 -91 -297 -182 -397 -64 -70 -59 -83 13 -37 51 33 90 71 130 125
l27 38 45 -68 c101 -156 241 -314 392 -440 121 -102 239 -181 450 -303 775
-447 1483 -997 2017 -1565 88 -93 241 -273 341 -399 594 -749 658 -825 882
-1055 535 -549 1031 -845 1579 -943 161 -29 474 -31 646 -4 421 65 781 221
1076 469 297 249 509 584 779 1227 244 581 314 730 473 994 400 667 1001 1436
1697 2171 203 215 331 356 426 470 256 306 403 556 442 748 l12 58 48 -65 c67
-91 184 -197 264 -238 62 -33 107 -46 203 -63 42 -7 29 8 -21 24 -20 6 -62 27
-93 46 -211 127 -397 393 -632 910 -38 82 -70 141 -72 132 -5 -25 52 -222 97
-337 22 -55 67 -152 99 -216 l59 -115 -40 -52 c-228 -292 -579 -574 -1055
-846 -154 -89 -570 -296 -614 -307 -25 -5 -28 -3 -28 19 0 45 -50 189 -95 274
-162 307 -500 569 -925 717 l-125 44 5 33 c3 19 5 79 4 134 -1 118 -30 218
-95 328 -127 214 -400 388 -750 477 -45 12 -117 39 -160 60 -398 201 -873 336
-1293 370 -120 9 -356 11 -436 3z m1205 -433 c676 -36 1123 -189 1336 -457
104 -131 146 -246 156 -431 l6 -112 86 -47 c573 -310 872 -605 952 -938 69
-290 -18 -609 -258 -948 -71 -101 -382 -415 -519 -524 -657 -527 -1454 -852
-2284 -933 -827 -80 -1730 33 -2515 314 -662 237 -1227 563 -1565 905 -126
128 -171 189 -219 303 -23 55 -26 76 -26 174 0 110 0 111 42 195 52 103 118
185 220 271 226 191 567 363 1016 513 87 29 161 55 164 58 3 4 -18 32 -47 64
-99 108 -140 202 -140 322 0 146 61 265 219 421 193 193 460 352 811 483 686
256 1760 410 2565 367z m4371 -993 c-39 -101 -113 -232 -201 -358 -127 -180
-490 -617 -874 -1054 -58 -66 -169 -192 -246 -280 -477 -542 -864 -1041 -1168
-1505 -209 -320 -305 -502 -512 -970 -65 -146 -146 -325 -181 -399 -221 -463
-464 -784 -745 -983 -49 -35 -94 -64 -99 -66 -5 -2 4 21 20 50 45 83 96 223
121 333 33 149 32 372 -3 506 -69 255 -247 464 -513 601 -201 103 -358 141
-585 140 -186 0 -316 -23 -447 -78 -280 -117 -303 -121 -419 -76 -198 76 -453
82 -708 17 -299 -75 -516 -240 -592 -449 -13 -37 -27 -98 -30 -136 -4 -39 -10
-70 -13 -69 -11 1 -198 222 -485 573 -353 431 -429 517 -667 751 -363 356
-748 669 -1349 1098 -253 181 -446 308 -595 392 -207 117 -419 269 -570 409
l-50 46 101 -65 c377 -242 974 -461 1544 -566 l125 -23 115 -115 c216 -218
537 -443 902 -635 104 -55 127 -71 133 -94 4 -15 22 -101 40 -193 37 -184 65
-257 121 -318 70 -78 152 -103 255 -77 93 24 173 78 287 194 l103 105 147 -41
c1078 -303 2218 -271 3189 89 59 22 110 36 113 32 3 -5 36 -44 72 -88 214
-259 405 -354 556 -276 78 40 140 134 167 253 38 166 125 585 125 599 0 9 32
37 73 64 209 139 465 357 607 517 279 314 418 590 446 885 6 69 8 72 38 83 47
16 403 207 549 294 462 275 837 591 1070 903 34 45 63 80 66 78 2 -2 -13 -46
-33 -98z m-2871 -2764 c-10 -26 -90 -372 -114 -491 -25 -124 -58 -198 -111
-246 -113 -101 -272 -53 -471 144 -98 97 -147 156 -138 164 2 2 63 29 134 61
159 71 352 173 550 293 83 50 152 91 154 92 2 0 0 -8 -4 -17z m-4750 -375 c77
-31 197 -74 267 -97 l128 -43 -27 -35 c-40 -52 -166 -157 -232 -192 -78 -41
-147 -56 -201 -41 -56 15 -122 78 -150 141 -18 43 -66 243 -87 366 l-6 33 84
-39 c46 -21 147 -63 224 -93z m2852 -907 c290 -72 522 -218 678 -425 219 -294
213 -755 -15 -1146 -46 -79 -62 -89 -237 -158 -184 -73 -385 -121 -597 -143
-145 -14 -406 -7 -527 15 -500 92 -988 380 -1494 881 l-172 170 7 70 c33 292
221 485 590 605 151 49 240 64 380 64 98 -1 127 -5 195 -28 283 -97 522 -310
732 -653 63 -105 155 -283 202 -391 35 -83 35 -55 0 44 -78 225 -251 523 -401
691 -86 97 -139 144 -236 211 l-72 49 56 11 c30 7 113 36 184 66 113 48 200
73 315 90 75 11 332 -3 412 -23z"/>
<path d="M9056 7704 c-168 -37 -319 -154 -397 -306 -68 -134 -85 -363 -40
-556 23 -96 42 -144 54 -132 3 3 -1 29 -9 59 -57 222 -35 474 57 626 90 151
267 255 434 255 129 0 242 -48 341 -145 121 -119 163 -271 114 -414 -14 -43
-18 -67 -11 -74 15 -15 35 6 62 66 20 44 24 68 24 157 0 97 -2 110 -32 173
-103 216 -363 343 -597 291z"/>
<path d="M6086 7464 c-96 -23 -189 -79 -259 -155 -138 -148 -180 -324 -117
-492 20 -53 100 -157 121 -157 23 0 17 31 -16 79 -109 163 -78 380 77 535 182
181 460 189 674 18 131 -104 226 -329 241 -569 3 -57 10 -103 14 -103 16 0 21
96 10 197 -15 128 -50 255 -99 348 -50 96 -165 211 -253 253 -126 60 -267 77
-393 46z"/>
</g>
</svg>
