<?xml version="1.0" standalone="no"?>
<!DOCTYPE svg PUBLIC "-//W3C//DTD SVG 20010904//EN"
 "http://www.w3.org/TR/2001/REC-SVG-20010904/DTD/svg10.dtd">
<svg version="1.0" xmlns="http://www.w3.org/2000/svg"
 width="1500.000000pt" height="1500.000000pt" viewBox="0 0 1500.000000 1500.000000"
 preserveAspectRatio="xMidYMid meet">
<metadata>
Created by potrace 1.16, written by Peter Selinger 2001-2019
</metadata>
<g transform="translate(0.000000,1500.000000) scale(0.100000,-0.100000)"
fill="none" stroke="#000000">
<path d="M11733 13339 c-668 -51 -1248 -454 -1560 -1084 -35 -71 -65 -131 -67
-133 -2 -1 -136 61 -297 138 -375 181 -465 219 -679 290 -836 278 -1775 335
-2665 164 -498 -96 -1007 -278 -1472 -525 l-112 -60 -56 115 c-70 145 -210
355 -313 470 -310 348 -723 563 -1187 617 -209 25 -510 -3 -731 -66 -660 -190
-1187 -744 -1353 -1422 -41 -168 -55 -285 -55 -468 0 -586 267 -1153 724
-1539 152 -129 281 -212 482 -312 l126 -64 -50 -112 c-298 -665 -500 -1436
-573 -2188 -22 -227 -30 -693 -16 -910 69 -1028 368 -1854 920 -2540 512 -636
1224 -1160 2086 -1533 1439 -622 3204 -694 4720 -192 745 246 1331 567 1895
1035 166 138 555 528 660 663 584 745 884 1558 951 2577 15 228 6 750 -16 970
-68 674 -236 1324 -516 1992 -54 130 -99 241 -99 247 0 6 6 11 13 11 27 0 276
131 377 198 313 208 571 496 740 827 254 495 278 1078 68 1620 -207 533 -643
947 -1184 1124 -151 50 -296 78 -466 91 -144 11 -145 11 -295 -1z m-3928 -769
c1085 -70 2120 -489 2985 -1209 143 -119 473 -448 603 -600 263 -308 511 -664
656 -939 312 -595 537 -1191 670 -1775 218 -954 225 -1852 20 -2656 -261
-1026 -851 -1857 -1764 -2486 -766 -528 -1796 -888 -2800 -979 -513 -47 -869
-47 -1365 0 -943 89 -1851 396 -2673 906 -294 183 -547 380 -786 613 -769 751
-1177 1680 -1241 2825 -91 1633 460 3247 1535 4495 601 698 1311 1200 2129
1504 616 230 1379 343 2031 301z"/>
<path d="M9515 9714 c-187 -29 -302 -63 -430 -127 -273 -136 -503 -387 -626
-682 -43 -104 -90 -274 -111 -400 -19 -120 -16 -457 5 -575 41 -225 111 -434
218 -649 368 -742 1048 -1314 1739 -1462 141 -31 439 -34 570 -6 500 106 794
405 897 912 15 73 18 138 18 345 0 257 -4 297 -45 495 -101 481 -367 1006
-707 1397 -327 376 -779 656 -1183 732 -86 17 -290 28 -345 20z m420 -1214
c154 -39 312 -129 423 -241 175 -176 261 -400 249 -648 -7 -141 -30 -230 -97
-366 -114 -234 -303 -401 -551 -487 -91 -32 -99 -33 -254 -33 -149 0 -166 2
-247 28 -135 45 -228 104 -343 221 -114 115 -166 197 -217 346 -32 93 -33 99
-32 260 0 181 12 246 74 393 139 334 482 567 815 552 55 -3 136 -14 180 -25z"/>
<path d="M9450 7889 c-30 -11 -66 -28 -80 -39 l-25 -20 42 0 c104 0 223 -83
239 -165 19 -105 -20 -194 -107 -244 -126 -72 -260 -35 -346 96 -43 63 -42 64
-69 -69 -20 -97 -14 -195 15 -281 24 -69 47 -104 115 -175 156 -164 438 -187
643 -53 159 104 233 239 233 426 0 312 -231 547 -535 544 -42 0 -92 -8 -125
-20z"/>
<path d="M5250 9689 c-221 -26 -416 -84 -615 -183 -706 -349 -1320 -1206
-1460 -2036 -25 -148 -30 -411 -11 -556 100 -754 602 -1190 1307 -1134 313 25
730 177 1058 385 283 179 550 431 724 682 332 478 466 1124 351 1693 -94 467
-344 829 -700 1012 -215 111 -455 161 -654 137z m165 -1114 c353 -62 628 -342
706 -720 23 -110 25 -292 5 -397 -42 -215 -166 -431 -326 -564 -168 -140 -427
-218 -651 -194 -232 24 -413 112 -565 272 -118 125 -194 266 -236 435 -31 124
-30 312 0 437 83 334 346 606 678 701 160 46 256 53 389 30z"/>
<path d="M5224 7887 c-90 -34 -153 -74 -209 -132 -116 -118 -168 -295 -134
-457 41 -196 223 -371 424 -409 80 -15 197 -5 276 23 213 78 342 257 374 518
l7 55 -29 -45 c-60 -92 -153 -146 -234 -137 -130 16 -220 119 -220 253 0 149
94 236 241 221 30 -4 66 -9 79 -13 42 -12 15 13 -56 53 -125 69 -183 85 -328
89 -118 4 -136 2 -191 -19z"/>
<path d="M7200 6294 c-284 -39 -470 -114 -592 -241 -111 -114 -117 -277 -18
-478 136 -275 488 -535 773 -570 47 -6 58 -11 62 -29 3 -11 4 -214 3 -451 l-3
-430 -70 3 c-321 14 -732 107 -1045 237 -223 93 -514 265 -704 418 -130 105
-293 263 -366 357 -35 44 -65 80 -68 80 -6 0 45 -87 104 -175 164 -247 429
-511 664 -663 208 -135 186 -112 239 -252 170 -454 395 -788 670 -996 287
-217 634 -280 956 -173 424 141 799 577 1000 1161 l51 148 49 25 c74 37 266
183 377 286 161 148 303 330 403 514 42 78 35 73 -51 -34 -421 -527 -1152
-876 -1949 -930 -66 -4 -124 -4 -129 0 -9 8 -4 874 6 884 3 3 53 17 111 30
127 28 229 70 342 139 351 213 540 563 432 800 -32 70 -75 117 -161 174 -128
86 -311 147 -516 172 -118 14 -444 11 -570 -6z m490 -2793 c312 -9 339 -13
479 -67 36 -15 70 -30 75 -35 11 -10 -73 -90 -176 -169 -327 -248 -708 -276
-1048 -76 -85 50 -211 154 -258 213 l-32 40 58 21 c180 65 335 93 487 86 66
-3 253 -9 415 -13z"/>
</g>
</svg>
