<?xml version="1.0" standalone="no"?>
<!DOCTYPE svg PUBLIC "-//W3C//DTD SVG 20010904//EN"
 "http://www.w3.org/TR/2001/REC-SVG-20010904/DTD/svg10.dtd">
<svg version="1.0" xmlns="http://www.w3.org/2000/svg"
 width="1500.000000pt" height="1500.000000pt" viewBox="0 0 1500.000000 1500.000000"
 preserveAspectRatio="xMidYMid meet">
<metadata>
Created by potrace 1.16, written by Peter Selinger 2001-2019
</metadata>
<g transform="translate(0.000000,1500.000000) scale(0.100000,-0.100000)"
fill="#000000" stroke="none">
<path d="M11465 13450 c-67 -9 -130 -32 -237 -86 -670 -337 -1335 -923 -1893
-1668 -138 -185 -358 -517 -454 -686 -39 -69 -74 -131 -78 -139 -7 -11 -37 -7
-163 22 -722 166 -1531 167 -2264 3 -88 -20 -164 -36 -170 -36 -6 0 -29 33
-50 73 -374 692 -981 1422 -1583 1904 -356 285 -764 521 -1008 583 -228 58
-460 -13 -587 -182 -154 -202 -356 -947 -422 -1553 -37 -333 -47 -776 -26
-1097 59 -880 278 -1702 672 -2521 122 -254 143 -331 115 -421 -15 -45 -35
-74 -108 -152 -122 -132 -124 -138 -116 -439 3 -126 11 -270 17 -320 40 -342
121 -656 242 -938 32 -75 63 -148 68 -161 8 -23 5 -26 -73 -57 -143 -57 -374
-165 -490 -229 -238 -131 -488 -313 -627 -455 l-65 -66 135 89 c337 224 690
399 1057 523 63 22 120 39 126 38 7 0 54 -64 105 -142 104 -159 176 -257 273
-375 l67 -79 -87 -48 c-630 -349 -1102 -808 -1361 -1325 -62 -124 -56 -131 18
-20 238 356 575 678 1022 977 140 94 336 211 436 261 l81 40 151 -135 151
-135 20 -90 21 -90 -88 -101 c-439 -505 -730 -988 -893 -1479 -45 -136 -106
-394 -95 -405 2 -2 7 6 11 19 20 65 117 283 195 438 202 404 416 729 779 1183
l143 179 38 -115 c118 -353 292 -684 512 -978 333 -445 748 -806 1253 -1087
268 -150 693 -318 975 -387 236 -57 349 -55 595 10 574 152 1123 425 1572 784
551 440 936 987 1148 1629 20 61 40 112 45 112 8 0 150 -152 247 -266 309
-364 579 -831 795 -1379 l59 -150 -5 86 c-11 184 -122 531 -266 823 -174 357
-413 690 -741 1036 -66 68 -119 127 -118 130 0 3 60 51 134 108 73 57 171 139
218 183 47 43 91 79 97 79 23 0 263 -141 411 -241 335 -228 682 -537 1024
-914 95 -104 185 -201 200 -215 l28 -25 -23 40 c-13 22 -55 87 -93 144 -364
545 -857 1000 -1372 1262 -46 24 -85 47 -85 50 0 4 35 49 78 101 136 165 278
368 354 506 l17 31 103 -40 c381 -148 740 -333 1058 -544 l145 -96 -65 67
c-127 130 -377 322 -570 439 -169 103 -403 213 -550 260 -30 10 -57 19 -58 21
-2 1 22 65 53 140 192 460 252 769 257 1319 2 257 1 260 -103 398 -86 114
-109 166 -109 250 0 85 17 134 126 373 230 502 419 1042 525 1500 210 910 208
1870 -7 2784 -66 280 -185 659 -244 777 -68 136 -197 239 -346 276 -77 20
-204 27 -279 17z m201 -349 c101 -46 152 -166 284 -676 83 -321 130 -585 167
-935 24 -233 24 -838 0 -1070 -51 -487 -135 -878 -291 -1345 -99 -295 -183
-505 -299 -746 -47 -97 -101 -219 -120 -270 -110 -295 -85 -514 88 -775 l55
-82 0 -119 c0 -507 -75 -864 -265 -1260 -60 -127 -52 -122 -164 -98 -380 80
-901 78 -1396 -6 -159 -27 -498 -99 -508 -108 -4 -4 6 -41 22 -82 84 -210 76
-382 -26 -568 -144 -265 -407 -456 -703 -512 -92 -18 -308 -15 -405 6 -196 41
-387 122 -471 201 l-47 43 5 210 5 210 29 43 c16 24 118 131 227 238 207 203
288 293 376 420 l52 74 -23 18 c-86 68 -253 134 -413 163 -119 22 -461 31
-580 16 -203 -26 -416 -99 -510 -175 -28 -23 -29 -25 -15 -51 31 -58 185 -236
301 -350 201 -195 285 -283 325 -341 l38 -54 0 -211 1 -211 -61 -58 c-74 -69
-263 -166 -394 -202 -73 -19 -108 -23 -245 -22 -144 0 -169 3 -248 27 -289 89
-519 278 -646 533 -105 212 -107 351 -6 605 5 13 -8 20 -62 37 -164 51 -279
73 -543 107 -470 60 -817 56 -1234 -12 l-159 -26 -18 24 c-25 33 -124 252
-166 369 -104 286 -172 703 -173 1061 0 79 2 87 26 110 42 39 112 142 144 211
42 93 64 214 56 305 -10 113 -46 220 -156 468 -372 834 -552 1502 -621 2300
-18 205 -15 720 5 950 45 509 135 929 294 1363 51 139 72 179 112 217 28 27
38 30 93 29 51 0 84 -9 188 -53 723 -300 1584 -1138 2169 -2111 77 -128 247
-446 262 -490 2 -8 39 -1 122 24 269 82 562 142 856 178 232 28 696 31 930 5
325 -36 784 -125 1041 -203 13 -4 36 33 102 168 392 793 1003 1523 1722 2059
150 111 467 324 560 375 134 74 231 91 311 55z m-710 -7461 c164 -12 214 -19
214 -29 0 -15 -160 -251 -228 -334 -102 -128 -204 -237 -220 -237 -8 0 -64 16
-126 35 -292 91 -585 146 -881 166 -88 6 -182 12 -210 15 l-50 5 -17 102 c-10
56 -19 111 -20 121 -3 17 11 22 107 42 257 53 591 103 795 117 109 8 519 6
636 -3z m-6217 -10 c188 -12 363 -33 536 -66 124 -24 325 -71 331 -77 2 -2 -2
-21 -8 -43 -6 -21 -13 -74 -17 -118 l-6 -78 -120 1 c-317 5 -701 -59 -1024
-169 l-146 -50 -68 72 c-168 178 -366 455 -338 473 25 15 338 48 546 58 130 7
165 6 314 -3z m771 -551 c41 -5 77 -13 81 -17 3 -4 12 -23 19 -42 8 -19 26
-62 42 -94 15 -33 28 -60 28 -62 0 -1 -44 -19 -97 -40 -125 -49 -399 -185
-528 -262 -97 -58 -101 -60 -133 -46 -69 28 -291 196 -444 335 -43 39 -78 74
-78 78 0 10 207 74 320 100 282 64 549 81 790 50z m4521 -13 c74 -8 166 -20
205 -26 112 -17 371 -72 385 -81 11 -7 0 -23 -46 -66 -66 -62 -348 -276 -418
-318 l-45 -26 -133 60 c-179 78 -326 131 -489 176 -74 20 -140 38 -147 40 -8
3 0 27 23 72 19 37 42 93 50 123 9 30 19 59 22 64 7 13 425 0 593 -18z m-4141
-460 c170 -166 330 -264 525 -321 292 -84 581 -40 941 144 l132 67 78 -39
c345 -174 662 -230 975 -171 217 41 412 145 599 321 l89 84 72 -21 c161 -48
609 -224 609 -239 0 -3 -37 -27 -83 -53 -258 -146 -514 -247 -857 -339 -253
-68 -293 -88 -376 -194 -83 -108 -163 -179 -259 -234 -369 -211 -890 -269
-1320 -146 -125 36 -296 122 -377 189 -68 57 -145 151 -179 218 -32 62 -107
92 -439 177 -285 73 -519 160 -776 289 -205 104 -200 89 -56 161 67 33 160 77
208 97 99 41 342 124 363 124 8 0 67 -51 131 -114z m4319 -466 c-13 -56 -119
-301 -195 -450 -393 -770 -1097 -1356 -2009 -1671 -195 -67 -388 -120 -460
-126 -85 -7 -174 10 -406 78 -518 150 -975 399 -1370 745 -322 282 -613 662
-805 1048 -74 150 -179 404 -170 413 3 3 27 -8 55 -25 181 -112 489 -254 721
-334 145 -49 444 -130 533 -143 45 -7 53 -13 122 -94 95 -113 171 -182 270
-247 276 -179 601 -264 1013 -264 337 0 598 55 862 181 180 86 272 152 418
299 l97 97 130 33 c352 88 757 254 1090 449 55 32 103 56 106 55 4 -2 3 -22
-2 -44z"/>
<path d="M11420 12732 c-947 -574 -1788 -1543 -2150 -2477 -24 -60 -47 -114
-51 -119 -4 -5 -47 -4 -100 3 -108 14 -326 26 -319 18 3 -3 83 -22 177 -41
551 -116 1021 -344 1441 -699 306 -258 570 -646 698 -1022 20 -60 41 -114 45
-119 11 -12 178 331 257 529 350 872 473 1803 366 2770 -26 243 -85 573 -145
809 -38 152 -112 406 -118 406 -3 -1 -49 -27 -101 -58z m0 -247 c30 -78 108
-463 150 -740 123 -813 51 -1685 -206 -2486 -42 -131 -181 -499 -189 -499 -1
0 -22 33 -45 73 -119 201 -269 396 -449 581 -156 159 -289 272 -448 379 -67
45 -122 85 -123 88 0 11 242 127 320 153 41 14 121 34 177 45 108 22 401 46
440 36 13 -3 23 -2 23 3 0 11 -257 79 -370 97 -123 19 -358 19 -480 0 -147
-24 -195 -40 -448 -149 -46 -20 -86 -36 -88 -36 -13 0 101 134 186 220 269
270 625 460 1098 585 132 35 135 38 72 46 -147 19 -384 6 -567 -31 -291 -60
-624 -219 -858 -409 -38 -31 -76 -61 -84 -66 -18 -10 155 325 234 455 281 463
694 928 1198 1349 102 85 428 331 440 331 4 0 12 -11 17 -25z"/>
<path d="M3457 12763 c-15 -25 -101 -309 -131 -433 -100 -410 -150 -857 -150
-1345 0 -370 23 -656 79 -987 90 -530 268 -1088 497 -1558 l70 -145 20 45
c187 419 334 669 522 887 364 423 920 725 1626 883 101 22 186 43 189 47 8 8
-190 -4 -297 -18 -47 -6 -87 -7 -92 -3 -4 5 -32 65 -61 134 -197 465 -474 905
-858 1360 -131 156 -469 495 -621 624 -238 203 -492 381 -655 460 -101 50
-131 60 -138 49z m223 -316 c528 -350 1049 -883 1449 -1480 136 -203 331 -534
331 -562 0 -2 -39 24 -87 59 -260 188 -558 326 -838 385 -201 43 -450 44 -610
2 l-70 -18 50 -7 c185 -25 272 -40 355 -61 313 -79 583 -223 793 -424 89 -85
227 -251 227 -272 0 -4 -30 3 -67 18 -249 94 -379 128 -552 143 -210 19 -421
-13 -633 -95 -51 -20 -94 -37 -96 -39 -1 -2 79 -4 180 -4 266 -1 437 -36 623
-128 114 -57 146 -80 125 -93 -8 -5 -61 -38 -118 -73 -351 -215 -623 -507
-841 -903 -33 -60 -64 -116 -69 -124 -12 -21 -67 115 -162 399 -356 1068 -391
2221 -99 3302 6 26 14 36 22 32 7 -4 46 -30 87 -57z"/>
<path d="M5550 9347 c3 -3 52 -24 110 -47 205 -81 328 -159 479 -305 235 -227
405 -532 515 -926 50 -181 72 -290 101 -518 15 -112 30 -213 34 -225 8 -19 9
-19 15 9 12 58 26 211 32 350 25 540 -164 1018 -531 1344 -163 145 -377 253
-582 295 -81 16 -180 29 -173 23z"/>
<path d="M9340 9324 c-206 -37 -424 -130 -580 -245 -339 -251 -547 -632 -601
-1098 -14 -124 -7 -498 11 -614 7 -43 14 -76 15 -75 2 2 13 71 25 153 97 687
253 1102 532 1423 164 187 395 346 619 426 51 18 94 46 69 45 -8 -1 -49 -7
-90 -15z"/>
<path d="M9560 8149 c-338 -38 -612 -157 -820 -355 -213 -204 -345 -525 -415
-1009 -24 -168 -51 -463 -43 -485 2 -6 23 35 47 92 72 172 253 578 257 578 2
0 55 -25 117 -56 193 -98 326 -138 494 -152 320 -27 637 80 835 281 142 144
225 321 288 612 44 206 54 240 86 304 18 36 32 67 30 68 -7 8 -283 74 -381 92
-206 38 -346 47 -495 30z m508 -257 c45 -10 85 -22 89 -25 9 -9 -30 -193 -63
-292 -110 -343 -297 -524 -619 -601 -94 -23 -285 -23 -384 0 -99 22 -257 86
-359 145 l-82 47 43 85 c24 47 63 114 87 150 45 66 164 190 202 210 19 10 20
9 13 -17 -57 -228 19 -405 213 -497 61 -29 76 -32 162 -32 88 0 101 3 162 33
160 78 249 243 221 408 -30 174 -146 295 -313 327 -33 6 -60 15 -60 18 0 7
143 44 230 59 88 15 362 4 458 -18z m-579 -178 c27 -22 31 -32 31 -76 0 -44
-4 -54 -35 -85 -32 -32 -39 -35 -78 -30 -92 13 -128 111 -66 182 27 30 37 35
74 35 32 0 52 -7 74 -26z"/>
<path d="M5155 8144 c-110 -15 -234 -41 -320 -65 -105 -29 -265 -87 -265 -96
0 -3 11 -14 24 -24 40 -32 64 -97 91 -254 48 -278 102 -433 199 -568 114 -161
319 -294 544 -354 85 -23 117 -26 257 -27 134 0 175 3 248 22 114 28 248 85
371 155 l96 56 30 -59 c43 -85 140 -315 200 -475 29 -77 57 -144 61 -149 5 -5
6 13 4 40 -2 27 -7 112 -9 189 -12 335 -81 653 -192 894 -168 362 -475 607
-869 696 -68 16 -400 29 -470 19z m239 -229 c43 -8 120 -26 169 -42 l91 -27
-64 -13 c-134 -27 -219 -92 -277 -211 -37 -74 -38 -79 -38 -186 0 -100 3 -116
27 -166 36 -74 98 -134 177 -173 59 -29 74 -32 156 -32 82 0 97 3 157 33 161
79 247 237 219 405 -6 38 -18 84 -26 103 -8 19 -10 34 -5 34 18 0 187 -176
225 -234 21 -33 60 -101 87 -152 l49 -92 -33 -20 c-73 -45 -221 -114 -305
-141 -268 -89 -546 -57 -758 89 -137 94 -242 251 -295 442 -19 69 -60 293 -60
330 0 13 18 20 73 33 168 37 303 43 431 20z m220 -189 c71 -30 90 -114 37
-167 -43 -43 -92 -40 -138 6 -32 32 -35 39 -30 78 4 30 15 50 37 70 35 31 47
33 94 13z"/>
<path d="M6044 5473 c-13 -50 32 -85 106 -81 39 3 46 7 55 32 8 25 6 31 -18
52 -22 19 -40 24 -82 24 -51 0 -55 -2 -61 -27z"/>
<path d="M8838 5485 c-55 -14 -78 -30 -78 -56 0 -60 159 -68 190 -9 26 49 -35
85 -112 65z"/>
<path d="M6038 5224 c-34 -18 -36 -46 -6 -74 26 -24 83 -27 133 -5 48 20 55
42 21 72 -32 27 -105 31 -148 7z"/>
<path d="M8762 5220 c-32 -52 -7 -80 78 -87 49 -5 64 -2 80 12 51 46 4 95 -92
95 -42 0 -56 -4 -66 -20z"/>
<path d="M8692 5008 c-7 -7 -12 -22 -12 -34 0 -52 120 -95 160 -59 31 28 25
62 -12 85 -37 22 -117 27 -136 8z"/>
<path d="M6123 4976 c-24 -21 -26 -27 -18 -52 9 -26 16 -29 56 -32 38 -2 52 2
78 23 55 47 36 85 -40 85 -36 0 -55 -6 -76 -24z"/>
</g>
</svg>
