<?xml version="1.0" standalone="no"?>
<!DOCTYPE svg PUBLIC "-//W3C//DTD SVG 20010904//EN"
 "http://www.w3.org/TR/2001/REC-SVG-20010904/DTD/svg10.dtd">
<svg version="1.0" xmlns="http://www.w3.org/2000/svg"
 width="1500.000000pt" height="1500.000000pt" viewBox="0 0 1500.000000 1500.000000"
 preserveAspectRatio="xMidYMid meet">
<metadata>
Created by potrace 1.16, written by Peter Selinger 2001-2019
</metadata>
<g transform="translate(0.000000,1500.000000) scale(0.100000,-0.100000)"
fill="#000000" stroke="none">
<path d="M9000 13111 c-103 -39 -191 -91 -387 -229 -93 -65 -231 -162 -308
-215 -77 -53 -178 -127 -225 -164 -132 -105 -363 -342 -499 -513 -301 -376
-606 -916 -717 -1265 -15 -49 -29 -91 -29 -92 0 -1 -75 -9 -165 -18 -173 -16
-298 -35 -415 -62 l-70 -16 -74 48 c-159 103 -305 155 -436 155 -88 0 -131
-12 -192 -53 -82 -55 -234 -290 -289 -447 -23 -68 -25 -85 -20 -170 4 -52 9
-106 12 -120 4 -20 -12 -49 -82 -145 -121 -166 -219 -318 -298 -462 -207 -377
-377 -864 -422 -1208 -18 -143 -32 -178 -123 -304 -38 -53 -77 -113 -87 -133
-10 -21 -22 -38 -27 -38 -12 0 -168 108 -252 175 -135 108 -329 291 -458 433
-141 156 -191 196 -243 196 -67 0 -104 -63 -104 -179 0 -174 84 -659 154 -892
45 -147 181 -495 286 -728 17 -37 30 -68 30 -70 0 -2 -62 -54 -137 -116 -168
-139 -538 -506 -655 -649 -289 -357 -457 -649 -578 -1009 l-39 -114 -69 -22
c-254 -81 -523 -322 -595 -533 -58 -172 -16 -351 112 -479 114 -115 324 -205
551 -239 156 -23 446 -15 568 15 114 29 162 27 320 -14 303 -77 738 -115 1108
-96 114 6 222 11 239 11 41 0 118 -76 276 -270 160 -198 177 -215 314 -322
138 -109 153 -126 225 -268 64 -123 141 -217 254 -307 250 -199 563 -324 851
-340 173 -9 292 20 635 157 421 168 713 320 1071 556 686 454 1344 1116 1897
1910 277 399 519 840 697 1274 68 165 168 454 180 521 6 31 54 82 333 355 179
175 364 362 410 414 356 400 796 1042 1151 1680 109 196 351 678 440 875 97
214 278 658 318 775 89 267 97 502 18 605 -12 17 -45 43 -73 58 -155 84 -430
77 -937 -24 -1156 -231 -2017 -538 -2588 -921 l-87 -59 -43 29 c-23 16 -66 41
-94 56 -29 14 -53 31 -53 37 0 5 36 86 80 180 133 281 165 402 164 634 -1 146
-18 269 -55 392 -16 56 -28 76 -66 110 l-46 42 -7 98 c-7 104 -24 150 -62 177
-31 22 -57 20 -111 -8 l-47 -23 0 117 c0 186 -34 263 -117 263 -90 0 -125 -42
-217 -256 -33 -75 -61 -135 -63 -133 -7 7 28 282 49 376 26 124 95 336 158
490 101 244 121 364 78 450 -47 93 -171 116 -318 61z m100 -221 c0 -6 -34 -95
-75 -199 -165 -419 -228 -712 -228 -1061 1 -301 45 -552 127 -725 43 -92 105
-170 128 -163 23 8 20 47 -10 151 -33 110 -57 232 -67 337 -6 64 -5 68 37 141
24 42 72 138 108 214 35 76 66 132 68 126 2 -6 -8 -66 -22 -134 -38 -180 -48
-261 -36 -310 18 -83 82 -98 148 -34 34 33 113 178 133 248 24 78 32 43 26
-108 -4 -97 -15 -192 -31 -275 -32 -156 -32 -187 -5 -222 32 -41 64 -49 106
-29 31 14 48 33 101 109 11 16 12 7 7 -53 -8 -90 -53 -273 -95 -378 -32 -82
-125 -274 -139 -288 -5 -5 -53 12 -107 36 -233 105 -548 205 -885 282 -85 19
-164 37 -175 40 -12 3 -39 32 -62 67 -49 75 -108 139 -164 175 -36 24 -53 28
-137 31 -153 6 -331 -48 -522 -158 l-87 -50 -91 0 c-62 0 -91 4 -91 12 0 39
328 625 463 828 363 543 897 1040 1426 1326 141 77 151 81 151 64z m4180
-2050 c28 -15 32 -56 15 -155 -31 -179 -129 -436 -365 -955 -637 -1403 -1356
-2436 -2198 -3159 -91 -78 -132 -120 -132 -134 0 -62 -110 -377 -241 -687 -69
-166 -254 -528 -364 -715 -659 -1122 -1545 -2000 -2612 -2589 -246 -135 -639
-311 -813 -363 -114 -34 -258 -41 -368 -19 -215 44 -457 157 -624 293 -77 63
-118 114 -225 280 -102 160 -132 195 -266 306 -89 75 -136 124 -228 243 -65
82 -144 180 -178 219 -33 38 -58 71 -56 74 3 2 25 7 50 11 l46 7 54 -79 c132
-188 288 -294 503 -345 124 -29 389 -24 552 10 171 36 336 94 515 181 384 188
680 453 942 846 155 232 306 530 403 795 126 346 155 409 275 611 257 429 363
638 499 985 72 182 150 248 306 257 136 8 170 -13 170 -103 0 -49 2 -55 21
-55 61 0 117 92 106 175 -15 103 -77 169 -195 205 -151 47 -357 7 -545 -106
-106 -64 -321 -294 -353 -378 -3 -9 37 11 90 45 208 130 322 178 352 147 23
-23 2 -71 -121 -280 -318 -537 -582 -882 -1064 -1386 -333 -347 -538 -507
-953 -740 -106 -60 -236 -136 -288 -169 -152 -96 -254 -151 -384 -207 -389
-170 -742 -258 -1226 -308 -175 -18 -865 -17 -1029 1 -187 20 -184 18 -97 70
246 145 349 279 350 456 1 67 -3 90 -26 138 -42 89 -86 144 -172 213 -141 113
-325 188 -523 215 -94 12 -394 6 -471 -9 -24 -6 -42 -6 -42 0 0 4 21 66 46
136 99 274 247 531 441 762 48 58 164 182 258 276 286 287 576 535 1306 1119
239 192 499 403 579 469 651 541 968 1124 947 1736 -8 217 -42 327 -132 428
-61 67 -127 95 -214 90 -158 -9 -300 -133 -420 -367 -106 -206 -146 -375 -163
-683 -10 -184 -15 -218 -28 -218 -33 -1 -156 -51 -209 -86 -31 -21 -80 -62
-109 -91 -28 -30 -52 -49 -52 -44 0 6 16 71 35 146 68 265 277 756 492 1150
174 322 192 358 233 470 82 227 185 361 303 396 134 40 329 -33 547 -206 52
-41 101 -75 107 -75 22 0 15 99 -12 175 -14 39 -25 71 -25 72 0 6 91 24 215
43 234 34 575 61 575 44 0 -3 -17 -31 -39 -62 -21 -31 -48 -77 -60 -101 -20
-38 -21 -45 -9 -58 20 -20 88 8 249 103 70 41 164 89 210 106 78 30 93 32 209
33 125 0 126 0 201 -37 107 -53 198 -147 328 -340 66 -97 138 -178 160 -178
43 0 39 128 -13 330 -19 74 -33 136 -31 138 5 5 371 -86 480 -119 236 -73 550
-206 746 -317 l117 -66 -98 -93 c-100 -95 -160 -172 -160 -205 0 -10 3 -18 7
-18 16 0 157 85 363 220 428 280 884 499 1430 684 575 196 1238 348 1690 386
69 5 141 12 160 14 83 7 233 5 250 -4z m-7561 -1259 c17 -13 45 -46 61 -74 29
-52 68 -173 57 -183 -3 -3 -17 2 -32 12 -17 11 -47 18 -80 18 -138 2 -240
-158 -252 -396 -12 -232 56 -374 199 -416 32 -9 57 -19 55 -22 -1 -3 -35 -69
-75 -148 l-72 -143 -38 29 c-73 57 -179 81 -278 63 -121 -22 -319 -144 -360
-222 -15 -29 -12 -49 7 -49 6 0 70 29 142 65 166 81 238 99 372 92 140 -8 143
-9 103 -61 -139 -178 -411 -452 -608 -611 l-121 -98 -182 51 c-100 28 -197 53
-214 57 -18 4 -33 11 -33 17 0 14 81 147 131 214 177 241 341 391 544 501 l90
48 6 225 c6 237 15 314 55 473 88 351 273 597 440 584 32 -2 63 -12 83 -26z
m-2884 -5002 c225 -28 447 -128 563 -253 126 -137 124 -304 -5 -415 -229 -196
-898 -322 -1303 -245 -219 41 -384 152 -406 273 -10 52 11 136 48 199 65 107
211 233 353 304 121 61 329 124 470 141 65 8 194 6 280 -4z m4282 -269 c18
-11 46 -38 63 -61 35 -49 38 -42 -70 -189 -335 -455 -792 -761 -1282 -860 -88
-17 -90 -12 -58 116 82 323 331 489 472 313 17 -22 33 -38 35 -36 1 2 10 43
18 91 41 235 196 359 351 281 27 -14 50 -25 50 -25 1 0 5 21 9 47 32 214 277
406 412 323z m-1517 -547 c0 -47 -129 -256 -166 -270 -8 -3 -31 10 -51 28 -21
18 -62 48 -93 68 -30 20 -58 40 -60 44 -4 6 335 143 363 146 4 1 7 -7 7 -16z
m-287 -510 c-3 -43 -7 -79 -8 -81 -4 -5 -165 57 -186 71 -19 14 -15 16 53 31
40 9 87 25 103 35 17 11 33 20 37 20 4 1 5 -34 1 -76z"/>
<path d="M12610 10419 c-162 -44 -586 -223 -886 -375 -661 -334 -1226 -740
-1491 -1069 -70 -87 -128 -175 -115 -175 5 0 38 24 73 54 l66 54 40 -67 c61
-98 160 -301 209 -426 82 -212 126 -397 144 -613 20 -232 -18 -511 -100 -740
-22 -63 -41 -135 -43 -160 l-2 -47 47 1 c37 0 59 8 105 39 252 167 663 605
1050 1120 336 448 692 1017 938 1500 218 428 272 628 211 777 -54 132 -114
163 -246 127z m123 -130 c71 -97 22 -289 -172 -673 -133 -263 -262 -485 -494
-856 -285 -454 -568 -833 -916 -1225 -110 -124 -471 -488 -471 -475 0 4 15 68
34 143 109 433 80 817 -96 1245 -53 129 -159 324 -234 429 -24 34 -44 68 -44
76 0 19 89 96 295 254 583 446 1158 772 1835 1039 103 40 198 72 214 71 18 -1
36 -12 49 -28z"/>
<path d="M7590 10303 c-81 -32 -150 -82 -189 -135 -59 -80 -40 -86 95 -28 52
22 101 40 109 40 31 0 92 -40 183 -119 135 -118 158 -127 149 -59 -9 68 -81
200 -145 268 -52 54 -62 60 -97 60 -22 0 -69 -12 -105 -27z"/>
<path d="M5748 10247 c-103 -39 -189 -113 -280 -241 -94 -133 -137 -256 -89
-256 22 0 62 43 119 127 56 82 186 203 255 236 77 37 109 36 214 -6 50 -21 96
-37 102 -37 20 0 24 49 5 78 -22 34 -37 46 -99 79 -60 32 -169 41 -227 20z"/>
<path d="M7529 9906 c-361 -127 -656 -685 -709 -1337 -25 -311 34 -564 161
-691 69 -69 123 -91 237 -96 l92 -4 -80 -85 c-90 -93 -130 -164 -130 -230 0
-36 3 -43 19 -43 20 0 61 43 208 220 159 190 460 420 708 540 149 73 288 121
447 156 111 25 143 28 328 28 l205 1 88 -32 c133 -47 236 -114 347 -223 147
-145 233 -292 275 -470 24 -104 31 -280 15 -391 -14 -98 -7 -126 25 -99 54 45
88 178 88 345 -1 280 -85 479 -292 686 -179 178 -358 275 -575 310 -76 12
-316 8 -363 -7 -23 -6 -23 -6 -16 88 9 143 -24 252 -49 162 -5 -16 -15 -74
-23 -129 -20 -134 -23 -145 -39 -145 -8 0 -54 -12 -102 -26 -49 -15 -97 -29
-107 -32 -17 -4 -16 1 7 47 15 28 40 93 57 143 25 75 31 108 31 182 0 206
-129 577 -282 811 -100 153 -265 297 -376 331 -66 20 -119 17 -195 -10z m212
-126 c49 -25 168 -141 217 -212 18 -26 32 -49 32 -51 0 -2 -22 -7 -49 -9 -160
-16 -317 -182 -371 -394 -25 -95 -27 -254 -5 -339 67 -259 265 -419 429 -346
26 11 65 34 87 52 41 32 128 157 174 247 14 30 28 52 30 50 6 -6 -25 -182 -41
-233 -9 -27 -30 -76 -46 -107 -27 -51 -37 -60 -92 -86 -90 -42 -339 -186 -436
-253 -47 -32 -125 -93 -175 -136 l-90 -78 -100 1 c-127 1 -184 23 -254 100
-82 89 -120 226 -120 429 -1 439 200 1005 441 1242 69 69 88 83 162 125 44 25
59 28 107 25 30 -3 75 -15 100 -27z"/>
<path d="M6243 8009 c-18 -5 -37 -18 -42 -28 -17 -31 24 -56 169 -100 234 -73
364 -128 535 -226 104 -60 125 -65 125 -33 0 69 -142 194 -325 285 -161 81
-376 128 -462 102z"/>
<path d="M2315 4348 c-257 -22 -405 -95 -405 -197 0 -104 132 -160 353 -148
354 18 708 202 577 299 -65 48 -284 68 -525 46z m365 -107 c25 -5 43 -9 40
-10 -3 0 -59 -19 -124 -41 -260 -88 -483 -105 -561 -45 -20 15 -20 15 0 30 53
41 252 73 460 73 77 0 160 -3 185 -7z"/>
</g>
</svg>
