<?xml version="1.0" standalone="no"?>
<!DOCTYPE svg PUBLIC "-//W3C//DTD SVG 20010904//EN"
 "http://www.w3.org/TR/2001/REC-SVG-20010904/DTD/svg10.dtd">
<svg version="1.0" xmlns="http://www.w3.org/2000/svg"
 width="1500.000000pt" height="1500.000000pt" viewBox="0 0 1500.000000 1500.000000"
 preserveAspectRatio="xMidYMid meet">
<metadata>
Created by potrace 1.16, written by Peter Selinger 2001-2019
</metadata>
<g transform="translate(0.000000,1500.000000) scale(0.100000,-0.100000)"
fill="none" stroke="#000000">
<path d="M8955 12984 c-701 -105 -1654 -483 -2405 -954 -459 -288 -810 -563
-1174 -920 -283 -279 -475 -505 -618 -730 l-77 -121 -30 44 c-51 75 -145 155
-203 172 -66 19 -103 19 -164 -2 -64 -22 -170 -126 -206 -203 -77 -165 -58
-303 55 -413 l53 -52 -34 -55 c-109 -178 -204 -424 -238 -615 -30 -177 -22
-392 23 -569 11 -44 11 -61 3 -66 -22 -14 -314 -71 -569 -111 -758 -119 -1074
-223 -1154 -379 -26 -50 -28 -62 -24 -130 3 -41 13 -97 22 -123 17 -47 17 -52
-9 -170 -34 -160 -46 -265 -46 -410 0 -279 57 -552 176 -835 188 -449 485
-793 878 -1019 111 -63 124 -68 180 -68 56 0 61 2 78 31 10 18 28 76 40 130
11 55 22 100 23 102 6 7 273 -208 329 -264 76 -77 117 -137 225 -337 117 -217
180 -300 294 -391 80 -64 198 -121 314 -153 91 -25 113 -27 298 -27 171 0 215
3 303 22 258 56 494 168 899 424 361 228 515 285 604 225 77 -52 126 -148 161
-317 27 -132 22 -397 -11 -510 -48 -162 -152 -304 -262 -355 -67 -31 -91 -31
-154 -1 -52 24 -105 75 -165 159 -109 152 -223 101 -261 -117 -25 -149 10
-335 90 -466 21 -36 38 -66 37 -67 -1 -2 -46 21 -99 51 -54 29 -118 59 -144
67 -41 11 -50 11 -82 -7 -162 -87 -90 -385 145 -603 61 -56 73 -71 56 -71 -69
0 -167 -70 -178 -127 -14 -72 68 -180 206 -272 233 -156 478 -226 840 -240
173 -6 175 -6 174 -28 -1 -34 12 -28 47 19 153 212 318 672 374 1048 62 414
24 949 -90 1281 -76 218 -186 367 -425 572 -58 50 -106 94 -108 98 -10 23 531
154 878 213 560 95 952 95 1166 1 58 -26 178 -134 255 -232 42 -52 56 -63 80
-63 84 0 164 96 184 220 6 33 19 58 50 93 121 134 167 300 131 476 -9 46 -15
85 -13 87 2 2 48 -16 103 -40 131 -58 336 -123 457 -147 120 -23 314 -25 405
-4 175 41 301 166 346 341 20 76 20 217 2 305 -50 233 -275 550 -498 702 -26
18 -48 35 -48 38 0 3 30 9 68 12 100 8 172 39 225 95 56 61 72 107 71 207 -1
105 -23 186 -89 321 -123 254 -295 419 -518 495 -165 56 -322 58 -542 5 -172
-42 -169 -45 56 -45 298 -1 436 -30 592 -122 257 -153 472 -571 388 -754 -22
-49 -43 -68 -106 -97 -76 -35 -238 -31 -455 10 -195 37 -271 47 -250 34 8 -6
76 -31 150 -57 251 -87 357 -152 525 -320 214 -214 327 -436 328 -645 1 -301
-200 -458 -541 -420 -239 26 -561 131 -816 267 -134 71 -247 125 -252 121 -2
-2 35 -33 83 -68 158 -120 230 -220 254 -354 15 -86 1 -181 -40 -270 -38 -84
-79 -144 -85 -125 -2 8 -12 37 -20 64 -24 74 -83 170 -151 244 -64 68 -256
233 -264 225 -2 -2 36 -44 85 -92 223 -218 340 -495 275 -649 -13 -28 -35 -63
-51 -78 l-29 -27 -29 58 c-108 213 -264 317 -557 370 -83 15 -155 19 -420 19
-460 0 -743 -34 -1167 -140 -430 -109 -761 -247 -1108 -465 -354 -223 -454
-277 -616 -333 -178 -62 -239 -72 -439 -72 -202 1 -287 17 -413 78 -132 64
-218 167 -337 407 -86 173 -154 274 -253 378 -43 45 -76 82 -73 82 3 0 69 -16
146 -35 267 -67 543 -94 754 -76 373 33 687 153 1066 406 560 374 1067 961
1506 1744 77 138 136 207 188 221 49 13 86 2 176 -55 91 -56 152 -84 186 -85
37 0 64 34 64 80 0 117 -222 261 -478 311 -186 36 -341 18 -493 -56 -75 -37
-164 -108 -164 -131 0 -20 64 -18 201 7 118 21 276 23 313 2 14 -8 -15 -51
-205 -304 -507 -673 -806 -1016 -1152 -1326 -305 -271 -543 -420 -814 -509
-473 -155 -1056 -106 -1652 138 l-124 51 -39 61 c-125 191 -244 534 -251 719
l-2 58 120 70 c313 182 628 414 800 588 160 162 227 286 228 421 2 254 -226
390 -655 390 -71 0 -128 4 -128 8 0 4 33 14 73 20 108 19 413 95 565 142 73
22 224 75 335 116 189 71 383 136 640 214 59 18 106 35 104 36 -2 2 -108 -10
-236 -27 -128 -16 -235 -28 -237 -26 -3 2 3 60 12 128 37 284 -19 540 -151
687 -93 103 -172 104 -278 4 -75 -72 -123 -170 -173 -352 -56 -204 -66 -199
-38 22 18 138 81 400 124 518 31 85 81 189 111 231 46 66 115 32 209 -101 36
-52 81 -105 99 -117 47 -32 120 -32 157 0 35 30 43 102 19 167 -9 25 -19 53
-22 62 -6 21 33 46 206 133 256 128 632 290 862 370 107 38 342 105 366 105 9
0 5 -13 -13 -42 -15 -23 -42 -73 -60 -112 -57 -117 -43 -210 36 -251 39 -20
114 -19 158 2 21 10 109 90 197 179 118 119 184 178 252 222 268 174 519 196
738 64 33 -20 106 -80 163 -134 168 -162 232 -189 315 -133 89 61 89 155 -1
287 -16 24 -32 49 -37 57 -7 11 11 13 106 7 213 -13 354 -35 559 -86 167 -43
478 -152 574 -202 l25 -13 -84 -128 c-91 -138 -158 -256 -200 -352 -32 -72
-32 -73 120 110 317 379 763 755 1142 965 340 188 705 280 891 225 70 -21 155
-101 205 -193 52 -98 111 -283 138 -437 29 -168 32 -475 5 -660 -56 -396 -188
-712 -393 -948 -165 -190 -443 -380 -708 -485 -129 -51 -265 -115 -290 -137
-19 -16 -18 -16 33 -11 61 6 302 80 445 137 243 97 403 196 598 371 42 37 81
68 87 68 10 0 118 -166 214 -330 312 -532 635 -1431 723 -2015 23 -148 23
-366 1 -469 -56 -255 -246 -684 -436 -984 -309 -486 -702 -898 -1345 -1414
-356 -285 -989 -682 -1462 -916 -440 -218 -1233 -535 -1493 -597 -92 -22 -112
-35 -33 -23 231 35 812 212 1193 363 1328 526 2540 1394 3186 2281 303 417
506 836 585 1211 52 241 20 640 -76 948 -13 44 -21 81 -16 83 33 11 198 139
261 202 135 135 245 328 264 463 10 69 -14 143 -61 189 -68 66 -143 83 -251
54 -29 -7 -52 -11 -52 -8 0 3 20 39 44 81 152 259 266 623 285 909 18 277 -39
456 -164 518 -77 37 -148 31 -254 -23 -42 -21 -79 -39 -82 -41 -3 -1 5 37 17
85 38 153 56 312 56 502 0 611 -213 1136 -628 1547 -231 230 -544 417 -811
484 l-53 14 59 55 c71 69 92 107 93 172 0 116 -116 206 -318 244 -111 22 -361
29 -523 16 -438 -37 -781 -136 -1081 -312 -50 -29 -42 -19 83 101 192 185 256
280 273 408 15 114 -52 225 -168 277 -57 26 -74 29 -188 31 -69 1 -138 0 -155
-2z m290 -176 c52 -28 69 -54 68 -108 -1 -96 -83 -226 -280 -446 -142 -161
-283 -343 -283 -368 0 -4 37 25 82 65 47 41 107 83 143 100 60 27 652 178 855
218 292 57 511 77 690 61 202 -17 353 -65 366 -114 21 -87 -170 -223 -415
-295 -57 -17 -113 -32 -125 -33 -11 -1 89 -4 224 -8 271 -7 339 -18 505 -85
309 -125 636 -402 850 -720 67 -100 168 -312 209 -437 76 -235 114 -516 103
-774 -11 -260 -49 -450 -157 -794 -58 -185 -120 -403 -120 -425 0 -5 45 66
100 159 55 93 123 199 150 236 62 83 193 210 242 233 84 40 152 8 185 -86 27
-78 24 -287 -6 -432 -59 -284 -227 -696 -426 -1044 -36 -63 -65 -116 -65 -118
0 -1 42 23 93 54 133 82 217 115 304 121 87 6 119 -10 129 -62 21 -116 -157
-378 -345 -505 -50 -34 -65 -40 -72 -30 -5 8 -51 145 -104 304 -199 605 -390
1019 -665 1442 -69 105 -79 130 -61 148 5 6 32 55 59 110 272 546 299 1347 63
1840 -125 261 -275 361 -541 358 -438 -3 -1020 -302 -1505 -774 l-100 -97
-124 55 c-389 170 -829 273 -1246 290 l-150 6 -62 58 c-118 109 -258 190 -410
235 -111 33 -287 38 -397 11 -93 -23 -224 -86 -305 -146 -65 -49 -183 -164
-232 -229 -24 -32 -33 -35 -165 -62 -156 -31 -205 -44 -384 -102 -252 -81
-627 -241 -900 -386 -170 -90 -220 -114 -220 -104 0 11 114 167 214 292 456
574 1015 1066 1697 1493 738 461 1496 772 2174 892 160 28 308 29 360 3z
m-4686 -3403 c42 -38 81 -115 108 -216 22 -80 25 -376 5 -484 l-13 -70 -212
-42 c-152 -31 -213 -39 -218 -31 -4 6 -11 59 -15 117 -19 276 64 584 192 714
60 60 96 63 153 12z m-1198 -1375 c239 -19 482 -70 547 -115 30 -22 28 -56 -5
-88 -77 -73 -228 -100 -568 -101 -264 -1 -356 9 -521 55 -172 48 -314 126
-314 171 0 21 29 43 74 58 78 25 558 37 787 20z m-956 -587 c57 -197 215 -401
470 -607 61 -49 115 -94 122 -100 6 -6 20 -65 32 -131 53 -321 230 -661 417
-805 l54 -42 -73 -72 c-48 -46 -84 -91 -102 -128 l-27 -58 -40 24 c-125 75
-345 284 -458 437 -308 415 -457 915 -425 1422 4 64 8 117 10 117 2 0 11 -26
20 -57z m4796 -2576 c52 -49 99 -114 132 -183 151 -303 205 -939 132 -1540
-37 -302 -111 -575 -232 -861 -19 -46 -38 -81 -42 -79 -3 3 -72 12 -151 21
-252 28 -390 56 -555 111 -242 81 -485 240 -485 317 0 29 43 46 180 72 177 32
281 65 415 130 99 48 272 161 262 171 -2 3 -33 -9 -68 -25 -149 -70 -336 -103
-445 -81 -86 18 -143 51 -205 117 -45 49 -119 171 -119 197 0 3 24 -6 52 -20
181 -92 350 -94 610 -8 92 31 234 101 225 111 -2 2 -30 -6 -63 -18 -87 -30
-209 -24 -290 16 -114 55 -223 195 -259 330 -15 59 -20 145 -9 145 3 0 31 -23
62 -50 138 -123 276 -145 432 -69 86 42 200 157 259 262 141 250 170 599 77
920 -15 48 -26 90 -26 93 0 7 80 -50 111 -79z"/>
<path d="M4381 8995 c-55 -47 -91 -142 -91 -247 0 -103 32 -148 106 -148 40 0
51 5 84 38 83 83 96 275 22 345 -42 41 -82 45 -121 12z"/>
<path d="M2406 7099 c-27 -46 -15 -96 29 -115 19 -7 41 -11 50 -8 41 16 48 92
10 129 -34 35 -66 32 -89 -6z"/>
<path d="M2610 6831 c-19 -37 -12 -88 16 -110 51 -40 90 -23 101 42 4 29 1 40
-20 61 -32 32 -81 35 -97 7z"/>
<path d="M10995 10630 c-136 -28 -295 -122 -444 -264 -224 -214 -468 -613
-526 -858 l-14 -59 32 25 c73 59 228 158 283 180 75 30 166 48 224 44 40 -3
45 -6 48 -28 4 -36 -70 -120 -173 -200 -46 -36 -84 -67 -84 -70 -1 -3 29 -11
67 -18 37 -7 105 -31 152 -54 71 -34 101 -57 179 -136 92 -93 94 -96 70 -105
-41 -17 -307 -13 -361 5 -27 9 -48 13 -48 10 0 -15 160 -124 253 -172 l98 -52
57 38 c172 113 369 405 463 687 74 218 107 502 80 674 -39 253 -177 389 -356
353z"/>
<path d="M6843 10231 c-324 -113 -549 -418 -629 -854 -24 -128 -24 -416 0
-552 14 -82 68 -264 100 -336 5 -11 -6 -22 -42 -42 -28 -15 -53 -27 -56 -27
-12 0 -86 172 -126 291 -59 175 -81 300 -89 489 l-7 165 -8 -110 c-22 -280 26
-558 139 -803 33 -70 34 -77 18 -86 -39 -22 -244 -163 -332 -229 -86 -65 -321
-272 -321 -283 0 -3 26 14 58 37 181 132 396 258 642 378 224 109 312 145 540
222 489 166 966 250 1515 266 154 5 207 9 176 15 -68 12 -351 28 -495 28
l-128 0 7 28 c45 177 51 400 16 569 -75 359 -288 685 -524 801 -91 45 -167 62
-277 62 -78 0 -109 -5 -177 -29z m362 -155 c202 -100 383 -366 459 -676 43
-174 52 -334 30 -546 l-5 -51 -117 -7 c-351 -21 -577 -64 -877 -166 -82 -28
-192 -70 -243 -92 -51 -22 -95 -38 -98 -36 -9 9 -43 202 -55 313 -13 128 -7
318 16 450 71 409 293 743 559 837 39 14 74 18 152 16 94 -3 106 -6 179 -42z"/>
<path d="M6560 9268 c-57 -38 -75 -87 -75 -203 0 -78 5 -115 24 -168 56 -166
169 -252 260 -200 54 31 75 82 79 185 7 164 -67 331 -168 383 -52 26 -84 27
-120 3z"/>
<path d="M8095 8579 c-495 -47 -956 -155 -1370 -320 -266 -106 -798 -399 -771
-426 2 -3 53 22 113 56 605 337 1424 605 2062 675 67 7 125 16 128 20 8 8 -45
6 -162 -5z"/>
<path d="M4693 7730 c-97 -48 -178 -147 -159 -195 7 -18 47 -35 84 -35 69 0
195 88 233 161 24 48 24 54 -1 79 -29 29 -85 26 -157 -10z"/>
<path d="M5234 7407 c-48 -44 -53 -95 -10 -115 25 -13 33 -12 62 2 35 16 74
68 74 97 0 24 -33 49 -63 49 -17 0 -41 -13 -63 -33z"/>
<path d="M4887 7388 c-69 -38 -137 -108 -137 -142 0 -31 34 -56 75 -56 67 1
168 69 199 135 21 43 14 68 -20 83 -37 17 -53 15 -117 -20z"/>
<path d="M4390 7299 c-141 -77 -164 -164 -51 -190 33 -7 56 -6 95 6 59 17 86
38 115 86 65 107 -33 167 -159 98z"/>
<path d="M4674 7026 c-44 -20 -74 -62 -74 -106 0 -52 27 -74 81 -67 105 14
147 145 56 177 -16 5 -30 10 -31 10 -1 -1 -15 -7 -32 -14z"/>
</g>
</svg>
