<svg viewBox="0 0 200 200" xmlns="http://www.w3.org/2000/svg"><!-- Body --><ellipse cx="100" cy="115" rx="32" ry="40" fill="none" stroke="black" stroke-width="2"/><!-- Neck --><rect x="92" y="75" width="16" height="25" fill="none" stroke="black" stroke-width="1.5"/><!-- Head --><circle cx="100" cy="58" r="24" fill="none" stroke="black" stroke-width="2"/><!-- Ears (pointed, upright) --><path d="M80 35 L72 8 L78 32" fill="none" stroke="black" stroke-width="2" stroke-linejoin="round"/><path d="M120 35 L128 8 L122 32" fill="none" stroke="black" stroke-width="2" stroke-linejoin="round"/><!-- Snout --><ellipse cx="100" cy="67" rx="10" ry="7" fill="none" stroke="black" stroke-width="1.5"/><!-- Eyes --><circle cx="88" cy="50" r="2.5" fill="black"/><circle cx="112" cy="50" r="2.5" fill="black"/><!-- Antlers --><path d="M88 35 L80 15 L85 30" fill="none" stroke="black" stroke-width="1.5" stroke-linecap="round"/><path d="M88 35 L75 20" fill="none" stroke="black" stroke-width="1.5" stroke-linecap="round"/><path d="M112 35 L120 15 L115 30" fill="none" stroke="black" stroke-width="1.5" stroke-linecap="round"/><path d="M112 35 L125 20" fill="none" stroke="black" stroke-width="1.5" stroke-linecap="round"/><!-- Front legs --><rect x="82" y="150" width="9" height="40" fill="none" stroke="black" stroke-width="2" rx="3"/><rect x="109" y="150" width="9" height="40" fill="none" stroke="black" stroke-width="2" rx="3"/><!-- Back legs --><rect x="70" y="145" width="9" height="42" fill="none" stroke="black" stroke-width="2" rx="3"/><rect x="121" y="145" width="9" height="42" fill="none" stroke="black" stroke-width="2" rx="3"/><!-- Short tail --><path d="M125 110 L140 105" stroke="black" stroke-width="1.5" stroke-linecap="round"/></svg>