<?xml version="1.0" standalone="no"?>
<!DOCTYPE svg PUBLIC "-//W3C//DTD SVG 20010904//EN"
 "http://www.w3.org/TR/2001/REC-SVG-20010904/DTD/svg10.dtd">
<svg version="1.0" xmlns="http://www.w3.org/2000/svg"
 width="1500.000000pt" height="1500.000000pt" viewBox="0 0 1500.000000 1500.000000"
 preserveAspectRatio="xMidYMid meet">
<metadata>
Created by potrace 1.16, written by Peter Selinger 2001-2019
</metadata>
<g transform="translate(0.000000,1500.000000) scale(0.100000,-0.100000)"
fill="#000000" stroke="none">
<path d="M3136 13740 c-41 -13 -74 -47 -106 -110 -57 -115 -93 -245 -115 -419
-8 -68 -17 -126 -19 -129 -3 -2 -18 5 -35 17 -72 51 -130 51 -157 0 -28 -55
-9 -123 107 -369 95 -203 113 -279 105 -445 -6 -147 -49 -491 -100 -813 -58
-358 -69 -493 -63 -772 8 -387 61 -647 191 -950 106 -245 229 -423 505 -735
l130 -147 -24 -48 c-26 -52 -147 -359 -240 -610 -94 -256 -83 -244 -242 -235
-265 14 -390 42 -548 120 -123 61 -248 149 -358 254 -89 85 -134 107 -182 91
-25 -8 -39 -23 -56 -57 -21 -44 -22 -52 -15 -247 7 -228 23 -359 61 -531 57
-252 141 -443 308 -694 59 -90 106 -165 104 -168 -3 -2 -85 27 -184 65 -287
113 -344 124 -382 76 -27 -34 -27 -83 -1 -209 70 -340 245 -647 480 -840 142
-117 200 -167 200 -174 0 -4 -37 -3 -82 1 -194 18 -265 -19 -238 -123 24 -90
170 -329 305 -496 158 -197 314 -343 581 -544 l176 -132 -188 -180 c-359 -344
-374 -359 -374 -396 0 -63 77 -130 135 -115 14 3 112 83 218 176 257 228 361
315 387 323 15 5 68 -19 203 -93 219 -120 601 -319 789 -412 76 -38 156 -82
178 -100 24 -19 65 -74 107 -143 304 -509 769 -1043 1216 -1399 511 -407 998
-655 1477 -752 143 -29 146 -29 380 57 280 104 404 155 580 243 452 227 822
496 1201 874 333 332 579 647 783 1005 32 55 72 114 89 131 21 20 78 50 162
84 205 84 819 398 895 459 52 41 78 53 102 45 20 -6 134 -106 317 -277 47 -44
116 -106 153 -138 85 -73 114 -77 176 -23 34 29 42 42 42 70 0 30 -15 50 -119
162 -133 143 -140 149 -303 286 -65 54 -118 99 -118 100 0 2 39 27 88 56 272
166 560 433 772 720 63 85 234 416 245 475 4 19 1 37 -8 50 -13 16 -34 20
-158 29 -79 5 -145 10 -147 12 -11 8 26 49 76 83 192 132 322 287 448 537 100
197 154 387 154 538 0 96 -11 111 -74 103 -26 -4 -160 -51 -299 -106 -139 -55
-256 -96 -261 -91 -5 5 13 36 40 70 162 203 189 242 262 390 151 301 212 572
212 935 0 163 -12 241 -40 270 -16 16 -34 20 -84 20 -68 0 -78 -6 -231 -136
-254 -216 -560 -339 -845 -339 l-95 0 -24 63 c-13 34 -95 241 -182 461 -88
219 -159 402 -159 407 0 5 58 71 129 147 167 176 247 273 331 398 210 313 325
637 371 1043 7 67 10 195 6 360 -6 291 -17 382 -133 1053 -59 340 -65 394 -61
478 5 112 23 173 73 255 61 100 99 184 144 317 37 109 42 131 32 152 -19 42
-68 35 -139 -18 l-58 -44 -7 86 c-11 129 -34 236 -78 375 -58 181 -95 227
-193 235 -74 6 -104 -12 -179 -109 -104 -135 -88 -123 -128 -94 -65 48 -85 34
-238 -171 -174 -233 -367 -428 -571 -578 -92 -67 -214 -141 -381 -231 -459
-246 -749 -508 -945 -855 -147 -259 -227 -511 -291 -912 -23 -142 -30 -168
-44 -168 -81 0 -1102 102 -1250 125 -181 28 -373 88 -1025 323 -214 77 -404
143 -421 146 -62 14 -64 6 -64 -288 l0 -262 -142 -22 c-79 -12 -163 -25 -188
-28 l-45 -6 -13 118 c-40 377 -171 763 -357 1054 -157 245 -395 480 -635 627
-36 22 -142 81 -235 133 -342 186 -487 284 -666 450 -176 163 -292 317 -353
471 -51 127 -117 158 -221 103 -29 -15 -31 -15 -53 13 -74 90 -117 135 -140
147 -39 20 -83 26 -116 16z m325 -636 c476 -466 607 -564 1134 -849 99 -54
218 -122 264 -153 152 -100 278 -235 426 -457 187 -280 276 -521 330 -888 37
-254 43 -230 -67 -257 -290 -71 -606 -215 -871 -396 -43 -30 -80 -54 -83 -54
-2 0 -4 125 -4 278 0 302 -11 419 -54 588 -96 378 -255 650 -616 1054 -61 69
-182 206 -268 305 -86 99 -209 239 -272 311 -163 185 -204 272 -217 458 -6 84
9 254 28 332 l12 46 57 -89 c41 -63 98 -128 201 -229z m8332 186 c36 -175 29
-308 -24 -454 -46 -126 -103 -203 -355 -473 -433 -465 -510 -555 -629 -733
-82 -122 -196 -345 -240 -470 -40 -113 -81 -282 -99 -405 -17 -119 -56 -564
-56 -639 0 -25 -2 -46 -5 -46 -3 0 -90 50 -193 111 -222 132 -358 198 -547
269 -146 54 -268 101 -273 105 -1 1 11 92 28 201 66 428 141 646 309 895 126
187 279 341 466 468 105 72 133 88 420 251 253 144 377 231 635 445 286 238
341 292 448 442 48 67 90 119 93 115 4 -4 14 -41 22 -82z m-8356 -1227 l178
-198 -70 -140 c-143 -281 -208 -520 -222 -810 -23 -498 176 -1000 555 -1397
44 -45 61 -71 56 -80 -40 -64 -207 -293 -214 -293 -12 0 -259 308 -328 408
-160 232 -272 513 -325 817 -18 106 -21 162 -21 370 1 277 9 346 108 902 30
167 62 364 70 438 18 144 24 180 31 180 2 0 84 -89 182 -197z m8297 155 c42
-209 189 -980 201 -1059 9 -57 19 -183 22 -279 19 -570 -128 -1052 -435 -1435
-62 -77 -241 -278 -252 -283 -7 -3 -227 279 -236 302 -3 7 12 25 33 42 116 87
286 303 390 494 90 164 171 403 204 600 18 108 16 354 -5 480 -29 180 -97 413
-153 524 -14 28 -50 86 -79 129 -72 102 -77 117 -54 152 18 28 340 361 351
364 4 0 9 -14 13 -31z m-504 -722 c67 -136 100 -231 132 -373 30 -134 32 -445
5 -573 -63 -293 -208 -563 -422 -787 l-90 -94 -82 76 -83 77 0 211 c0 240 15
592 31 712 31 245 131 471 344 777 59 85 83 113 92 106 7 -6 40 -65 73 -132z
m-7306 1 c160 -225 243 -378 305 -565 71 -215 91 -388 91 -802 l0 -294 -90
-90 -91 -89 -64 69 c-191 203 -329 423 -400 637 -56 168 -69 253 -70 432 0
221 34 399 119 618 43 111 92 217 101 217 2 0 47 -60 99 -133z m2779 -753
c170 -72 475 -172 837 -274 159 -45 193 -48 675 -70 569 -26 889 -76 1220
-190 579 -200 1031 -512 1390 -960 193 -241 368 -556 510 -915 37 -93 82 -210
102 -258 52 -132 65 -185 67 -260 l1 -68 35 -9 c419 -112 776 -61 1097 156 52
35 97 64 100 64 3 0 3 -51 1 -112 -4 -86 -11 -131 -31 -188 -30 -88 -195 -454
-251 -555 -85 -155 -258 -387 -360 -483 -77 -72 -118 -95 -241 -137 -76 -25
-91 -34 -93 -53 -5 -37 41 -98 85 -113 92 -32 398 2 605 67 104 33 237 91 316
137 34 20 62 33 62 28 0 -4 -44 -75 -98 -157 -245 -371 -479 -597 -769 -742
-91 -46 -245 -104 -322 -122 -52 -12 -53 -13 -47 -42 8 -41 40 -82 84 -110 34
-21 47 -23 172 -22 74 1 220 9 323 18 104 9 197 14 208 11 16 -5 4 -24 -84
-128 -228 -270 -319 -353 -617 -559 -220 -153 -230 -155 -347 -81 -136 86
-176 107 -252 129 l-73 21 -18 54 c-26 78 -84 125 -309 252 -375 213 -534 289
-814 388 -121 43 -149 49 -217 49 -85 0 -110 -13 -91 -48 21 -40 148 -147 197
-166 164 -63 566 -271 829 -429 213 -128 272 -170 430 -302 77 -65 166 -138
198 -163 32 -24 55 -48 50 -52 -24 -21 -588 -310 -723 -370 -298 -133 -659
-273 -865 -335 -338 -102 -821 -191 -1170 -214 -327 -22 -782 -33 -1225 -29
-449 5 -473 6 -700 36 -129 17 -306 38 -393 47 -414 41 -794 134 -1232 303
-194 74 -617 254 -798 339 -127 60 -436 219 -450 233 -5 4 28 36 73 70 44 34
142 114 216 179 156 137 199 162 724 431 453 233 699 366 729 395 15 14 21 29
18 39 -6 14 -20 16 -104 10 -118 -7 -162 -18 -368 -96 -448 -169 -727 -320
-1151 -624 -293 -210 -283 -204 -314 -204 -41 0 -232 120 -394 248 -88 70
-221 196 -314 297 -78 84 -199 258 -183 263 5 2 62 -4 127 -13 134 -17 338
-20 463 -5 92 10 143 34 200 93 l33 35 -103 32 c-219 68 -395 148 -550 251
-146 98 -333 293 -461 481 -43 64 -141 248 -136 254 2 2 44 -16 93 -41 259
-126 615 -194 817 -156 63 12 168 62 168 80 0 11 -55 31 -86 31 -13 0 -49 10
-81 21 -246 92 -533 434 -697 831 -79 192 -202 625 -183 644 3 3 35 -15 71
-40 91 -62 199 -112 314 -144 89 -25 111 -27 272 -26 130 0 209 6 309 22 179
29 207 38 247 75 31 28 36 41 44 97 9 66 56 204 155 446 250 614 526 1016 919
1339 295 241 682 448 1047 558 206 63 630 147 738 147 57 0 78 -19 141 -130
192 -334 477 -527 868 -585 107 -16 197 -10 266 19 37 15 86 70 86 95 0 34
-59 71 -315 198 -143 71 -296 153 -340 183 -172 116 -330 308 -409 495 -38 91
-43 115 -26 115 6 0 39 -12 73 -26z m-1562 -7339 c327 -113 686 -184 1284
-254 461 -55 480 -56 1035 -56 643 0 979 19 1437 81 362 48 533 86 841 184
111 36 197 59 202 54 12 -12 -199 -313 -332 -474 -137 -167 -444 -473 -593
-592 -131 -104 -275 -202 -515 -350 -313 -192 -508 -289 -740 -369 -164 -56
-254 -58 -435 -11 -559 145 -1055 454 -1606 1002 -92 91 -211 219 -266 286
-96 116 -393 509 -393 519 0 7 0 7 81 -20z"/>
<path d="M9630 9843 c-245 -24 -618 -146 -735 -241 -33 -26 -64 -59 -69 -73
-20 -58 28 -129 101 -148 47 -13 65 -9 313 77 216 75 344 102 482 102 118 0
165 10 208 46 44 37 57 91 35 138 -39 81 -159 117 -335 99z"/>
<path d="M5184 9816 c-112 -26 -199 -84 -224 -150 -9 -24 -7 -36 10 -71 39
-81 66 -86 230 -50 106 24 265 16 385 -19 50 -15 173 -67 275 -116 116 -57
197 -90 217 -90 39 0 100 49 120 97 11 28 11 38 -3 73 -43 108 -291 245 -552
306 -135 32 -364 41 -458 20z"/>
<path d="M5066 9259 c-294 -40 -556 -175 -766 -395 -325 -339 -452 -851 -314
-1262 144 -430 551 -795 990 -887 102 -22 328 -22 442 0 454 86 855 422 1006
843 64 179 84 423 51 618 -93 539 -487 959 -1005 1070 -90 19 -309 26 -404 13z
m374 -288 c364 -95 649 -388 743 -761 32 -128 29 -349 -5 -480 -101 -380 -400
-662 -788 -742 -76 -16 -119 -19 -215 -15 -443 20 -810 303 -936 722 -31 102
-38 338 -14 461 88 446 393 759 815 833 93 17 303 7 400 -18z"/>
<path d="M5050 8755 c-237 -51 -433 -203 -539 -418 -60 -122 -80 -196 -88
-325 -22 -369 215 -690 576 -783 87 -22 245 -26 341 -9 196 35 389 160 494
318 142 214 194 510 117 660 l-18 34 -30 -53 c-44 -78 -122 -152 -199 -190
-56 -28 -78 -33 -139 -34 -63 0 -78 4 -120 30 -102 63 -151 167 -143 305 5 93
39 161 111 225 47 43 136 85 180 85 12 0 28 4 36 9 11 7 -1 19 -48 50 -152 98
-352 134 -531 96z"/>
<path d="M9677 9259 c-150 -15 -293 -57 -437 -129 -354 -178 -597 -492 -681
-880 -20 -90 -23 -133 -23 -305 0 -184 3 -208 27 -298 59 -219 160 -393 326
-558 183 -183 367 -287 621 -350 85 -21 118 -24 310 -24 210 0 217 1 300 29
208 70 364 168 530 335 267 268 401 567 401 896 0 307 -111 603 -322 860 -246
299 -655 464 -1052 424z m335 -303 c323 -83 591 -319 697 -612 110 -305 66
-673 -115 -945 -291 -439 -906 -550 -1359 -246 -78 53 -200 175 -255 256 -61
91 -117 217 -147 329 -22 82 -26 120 -27 247 -1 128 3 161 22 229 51 178 137
328 262 459 148 157 322 260 505 301 103 23 291 15 417 -18z"/>
<path d="M9677 8759 c-93 -12 -228 -65 -314 -122 -112 -74 -224 -200 -278
-311 -61 -126 -78 -210 -72 -356 6 -129 28 -212 84 -325 99 -198 239 -325 436
-399 78 -29 89 -30 242 -30 141 -1 169 2 235 22 102 32 220 95 281 150 206
185 335 611 233 768 l-16 23 -38 -48 c-71 -89 -159 -146 -271 -176 -145 -39
-236 13 -275 156 -18 68 -18 192 0 251 30 100 123 190 226 219 25 7 49 16 54
20 12 10 -67 66 -142 100 -113 53 -261 75 -385 58z"/>
<path d="M3788 7382 c-26 -68 -1 -142 106 -307 176 -270 405 -424 631 -425 32
0 79 7 103 16 l43 17 -22 24 c-13 13 -66 46 -118 74 -53 28 -130 74 -171 103
-100 68 -300 268 -387 386 -81 110 -85 114 -136 128 -36 10 -39 9 -49 -16z"/>
<path d="M7180 7369 c-211 -11 -259 -20 -352 -66 -172 -87 -287 -277 -288
-479 0 -115 63 -285 139 -377 103 -124 193 -172 486 -259 l210 -63 3 -331 2
-331 -72 -28 c-40 -15 -143 -59 -228 -97 -284 -128 -400 -156 -585 -142 -248
18 -285 10 -285 -65 0 -29 8 -43 49 -81 100 -94 226 -140 383 -140 152 0 272
36 537 160 160 74 230 93 346 93 114 -1 188 -20 344 -90 232 -104 368 -141
541 -150 176 -8 298 28 391 117 38 36 41 43 36 77 -4 26 -18 49 -43 72 -33 30
-40 33 -78 27 -180 -27 -210 -29 -302 -17 -123 15 -201 41 -494 165 l-245 103
-3 330 -2 330 87 17 c229 45 480 161 579 267 82 89 138 204 160 333 22 122 4
218 -63 347 -88 171 -234 255 -484 278 -130 12 -510 12 -769 0z m905 -309 c70
-36 118 -115 112 -183 -5 -57 -44 -110 -103 -141 -38 -20 -53 -21 -549 -21
l-510 0 -60 24 c-80 32 -125 77 -125 125 0 70 69 169 145 210 27 14 88 15 535
13 l506 -2 49 -25z"/>
<path d="M11084 7317 c-12 -7 -91 -78 -175 -158 -194 -184 -229 -214 -405
-356 -79 -63 -144 -120 -144 -126 0 -14 151 -2 218 18 235 71 468 268 549 465
27 65 29 100 8 140 -17 33 -21 35 -51 17z"/>
<path d="M4580 6381 c0 -5 -71 -12 -157 -15 -454 -19 -879 -57 -933 -84 -62
-30 -66 -102 -8 -145 26 -20 32 -20 315 -8 452 19 1149 25 1378 12 209 -12
291 -20 489 -47 l120 -17 22 26 c30 35 42 112 23 146 -33 61 -46 63 -769 111
-505 34 -480 33 -480 21z"/>
<path d="M9930 6373 c-502 -29 -733 -68 -757 -129 -10 -28 9 -87 38 -117 27
-27 34 -29 78 -23 443 59 1037 64 1846 16 345 -20 357 -19 382 30 7 14 12 45
11 69 -6 94 -53 103 -752 136 -479 23 -689 27 -846 18z"/>
<path d="M9260 5884 c-34 -15 -59 -49 -66 -89 -8 -59 3 -104 29 -116 12 -5
186 -15 387 -24 391 -15 456 -23 765 -91 206 -46 418 -107 627 -183 305 -109
348 -114 388 -48 55 90 16 121 -310 250 -368 146 -723 236 -1105 283 -132 16
-686 30 -715 18z"/>
<path d="M5180 5870 c-436 -24 -972 -164 -1435 -373 -162 -73 -181 -103 -107
-168 45 -40 42 -41 373 65 443 142 608 187 869 233 133 24 177 26 521 32 308
5 379 9 394 21 14 11 16 26 13 77 -6 92 -23 106 -141 115 -117 8 -314 7 -487
-2z"/>
</g>
</svg>
