<svg id="svg" version="1.1" width="400" height="400" viewBox="0 0 400 400" xmlns="http://www.w3.org/2000/svg" xmlns:xlink="http://www.w3.org/1999/xlink"><g id="svgg"><path id="path0" d="M268.766 55.504 C 268.235 56.111,266.990 57.596,266.000 58.804 C 265.010 60.012,263.390 61.813,262.400 62.807 C 261.410 63.800,259.581 65.780,258.335 67.207 C 257.089 68.633,252.609 73.310,248.379 77.600 C 239.697 86.407,239.459 86.700,239.826 88.162 C 240.292 90.018,255.841 105.217,264.810 112.584 C 266.675 114.116,268.740 115.870,269.400 116.482 C 271.966 118.864,274.333 117.081,286.000 103.975 C 287.650 102.121,289.360 100.231,289.800 99.774 C 293.817 95.604,301.195 85.650,301.198 84.397 C 301.199 83.639,299.872 82.079,295.751 77.997 C 290.093 72.392,281.129 63.403,275.511 57.700 C 271.775 53.907,270.521 53.499,268.766 55.504 M283.673 72.767 L 295.701 84.734 294.764 86.067 C 294.248 86.800,293.640 87.596,293.413 87.837 C 293.186 88.077,292.550 88.866,292.000 89.590 C 291.450 90.314,290.674 91.288,290.276 91.753 C 288.698 93.597,288.162 94.246,287.295 95.359 C 283.979 99.616,272.371 111.600,271.565 111.600 C 271.236 111.600,270.333 111.015,269.559 110.300 C 268.785 109.585,267.353 108.378,266.376 107.618 C 260.810 103.286,246.000 88.821,246.000 87.716 C 246.000 87.271,249.015 83.887,253.300 79.524 C 257.315 75.435,262.850 69.557,265.600 66.462 C 268.350 63.367,270.835 60.827,271.122 60.817 C 271.410 60.808,277.057 66.185,283.673 72.767 M268.200 139.182 C 267.760 139.381,266.860 139.556,266.200 139.570 C 264.819 139.601,258.266 141.633,258.067 142.093 C 257.993 142.262,257.588 142.400,257.167 142.400 C 256.745 142.400,256.400 142.546,256.400 142.725 C 256.400 142.904,255.770 143.298,255.000 143.600 C 254.230 143.902,253.600 144.296,253.600 144.475 C 253.600 144.654,253.368 144.800,253.085 144.800 C 252.802 144.800,251.947 145.333,251.185 145.984 C 250.423 146.635,249.590 147.175,249.333 147.184 C 249.077 147.193,248.807 147.338,248.733 147.508 C 248.660 147.677,247.618 148.622,246.418 149.608 C 243.631 151.897,242.277 153.250,239.809 156.211 C 238.714 157.525,237.724 158.690,237.609 158.800 C 237.494 158.910,236.598 160.170,235.617 161.600 C 234.636 163.030,233.691 164.260,233.517 164.333 C 233.343 164.407,233.200 164.649,233.200 164.872 C 233.200 165.094,232.861 165.754,232.447 166.338 C 230.738 168.748,226.027 177.733,224.863 180.800 C 224.571 181.570,223.787 183.640,223.121 185.400 C 218.873 196.625,216.847 207.593,216.360 222.000 C 216.284 224.227,217.098 232.808,217.593 235.000 C 217.841 236.100,218.144 237.587,218.266 238.304 C 218.388 239.021,218.649 239.706,218.844 239.827 C 219.040 239.948,219.200 240.386,219.200 240.800 C 219.200 243.262,225.808 253.909,229.589 257.539 C 233.200 261.006,242.487 266.780,244.476 266.795 C 244.848 266.798,245.264 266.980,245.400 267.200 C 245.536 267.420,246.076 267.600,246.600 267.600 C 247.124 267.600,247.652 267.760,247.773 267.956 C 247.894 268.151,248.669 268.426,249.496 268.567 C 250.323 268.707,251.990 269.023,253.200 269.269 C 255.992 269.837,272.135 269.843,275.600 269.277 C 278.243 268.845,280.366 268.399,283.600 267.597 C 284.590 267.352,285.897 267.051,286.505 266.929 C 287.113 266.807,287.708 266.549,287.829 266.354 C 287.949 266.159,288.451 266.000,288.944 266.000 C 289.437 266.000,290.011 265.851,290.220 265.670 C 290.429 265.488,291.410 265.095,292.400 264.798 C 293.390 264.500,294.380 264.132,294.600 263.981 C 294.820 263.830,295.990 263.341,297.200 262.894 C 300.063 261.836,305.762 259.105,305.933 258.709 C 306.007 258.539,306.412 258.400,306.833 258.400 C 307.255 258.400,307.600 258.241,307.600 258.047 C 307.600 257.852,307.915 257.593,308.300 257.471 C 309.087 257.222,311.294 255.935,311.600 255.546 C 312.877 253.927,316.000 253.431,316.000 254.848 C 316.000 255.268,316.162 255.923,316.361 256.305 C 316.560 256.687,316.940 257.810,317.207 258.800 C 317.473 259.790,317.837 260.960,318.015 261.400 C 318.194 261.840,318.431 262.650,318.542 263.200 C 318.653 263.750,318.949 264.920,319.199 265.800 C 319.746 267.726,320.373 270.227,320.659 271.623 C 320.919 272.894,320.503 273.225,317.200 274.374 C 315.770 274.871,314.240 275.429,313.800 275.613 C 313.360 275.797,312.280 276.176,311.400 276.455 C 310.520 276.735,309.629 277.107,309.420 277.282 C 309.211 277.457,308.637 277.600,308.144 277.600 C 307.651 277.600,307.136 277.780,307.000 278.000 C 306.864 278.220,306.324 278.400,305.800 278.400 C 305.276 278.400,304.736 278.580,304.600 278.800 C 304.464 279.020,303.834 279.200,303.200 279.200 C 302.566 279.200,301.936 279.380,301.800 279.600 C 301.664 279.820,301.124 280.000,300.600 280.000 C 300.076 280.000,299.536 280.180,299.400 280.400 C 299.264 280.620,298.544 280.800,297.800 280.800 C 297.056 280.800,296.349 280.959,296.229 281.154 C 296.108 281.349,295.513 281.607,294.905 281.729 C 294.297 281.851,293.035 282.142,292.100 282.375 C 287.976 283.405,286.899 283.666,285.300 284.022 C 284.365 284.230,282.790 284.580,281.800 284.800 C 272.532 286.859,261.588 288.719,251.100 290.017 C 249.395 290.227,246.605 290.591,244.900 290.825 C 243.195 291.059,239.460 291.426,236.600 291.641 C 233.740 291.857,229.510 292.205,227.200 292.415 C 208.996 294.073,198.068 294.484,171.800 294.499 C 147.977 294.513,144.767 294.396,136.600 293.218 C 135.060 292.996,132.900 292.704,131.800 292.568 C 130.700 292.433,129.629 292.160,129.420 291.961 C 129.211 291.763,128.428 291.600,127.680 291.600 C 126.372 291.600,120.325 290.136,117.000 289.015 C 104.905 284.936,95.793 278.620,90.130 270.389 C 88.376 267.840,87.200 265.672,87.200 264.988 C 87.200 264.665,87.053 264.400,86.872 264.400 C 86.692 264.400,86.296 263.489,85.993 262.375 C 85.690 261.261,85.297 260.260,85.121 260.151 C 84.944 260.042,84.800 259.434,84.800 258.800 C 84.800 258.166,84.639 257.548,84.442 257.426 C 84.245 257.305,83.982 256.529,83.857 255.703 C 83.732 254.876,83.410 252.940,83.142 251.400 C 82.594 248.259,82.493 227.942,82.993 221.485 C 83.443 215.677,84.067 216.000,72.408 216.000 C 61.916 216.000,61.200 216.186,61.200 218.902 C 61.200 219.480,61.020 220.064,60.800 220.200 C 60.580 220.336,60.400 220.977,60.400 221.624 C 60.400 222.271,60.220 222.800,60.000 222.800 C 59.780 222.800,59.600 223.400,59.600 224.133 C 59.600 224.867,59.465 225.601,59.301 225.766 C 59.136 225.931,58.804 227.176,58.562 228.533 C 58.158 230.807,56.557 238.253,55.602 242.306 C 55.381 243.244,55.200 244.535,55.200 245.175 C 55.200 245.815,55.027 247.208,54.816 248.269 C 52.930 257.741,53.625 273.305,56.483 285.600 C 57.153 288.482,58.819 294.528,59.184 295.400 C 60.102 297.596,60.942 299.514,61.444 300.561 C 61.750 301.200,62.000 301.965,62.000 302.261 C 62.000 302.558,62.180 302.800,62.400 302.800 C 62.620 302.800,62.800 303.160,62.800 303.600 C 62.800 304.040,62.936 304.400,63.102 304.400 C 63.269 304.400,63.644 304.940,63.936 305.600 C 64.731 307.396,68.178 312.565,70.634 315.643 C 73.773 319.577,81.496 327.200,82.343 327.200 C 82.511 327.200,82.998 327.516,83.425 327.903 C 84.119 328.533,87.305 330.611,91.200 332.976 C 93.618 334.444,101.263 338.000,102.001 338.000 C 102.226 338.000,102.768 338.180,103.205 338.400 C 103.642 338.620,104.358 338.980,104.795 339.200 C 105.232 339.420,105.864 339.600,106.200 339.600 C 106.536 339.600,107.123 339.758,107.505 339.951 C 108.672 340.540,111.008 341.200,111.928 341.200 C 112.408 341.200,112.800 341.361,112.800 341.558 C 112.800 341.755,113.475 342.013,114.300 342.132 C 115.125 342.251,116.700 342.547,117.800 342.791 C 120.301 343.344,126.179 344.199,133.200 345.031 C 142.862 346.175,187.029 345.795,209.800 344.371 C 229.413 343.145,231.033 343.014,239.200 341.998 C 241.070 341.765,243.770 341.484,245.200 341.372 C 246.630 341.260,248.160 341.005,248.600 340.804 C 249.040 340.603,250.345 340.340,251.500 340.219 C 252.655 340.099,254.545 339.901,255.700 339.781 C 256.855 339.660,258.160 339.400,258.600 339.203 C 259.040 339.007,260.120 338.754,261.000 338.643 C 261.880 338.532,263.590 338.242,264.800 338.000 C 266.010 337.758,267.720 337.468,268.600 337.357 C 269.480 337.246,270.560 336.997,271.000 336.805 C 271.440 336.612,272.340 336.363,273.000 336.252 C 273.660 336.140,275.010 335.848,276.000 335.603 C 278.561 334.967,281.190 334.391,282.704 334.134 C 283.421 334.012,284.106 333.751,284.227 333.556 C 284.348 333.360,284.878 333.200,285.405 333.200 C 285.931 333.200,286.776 333.039,287.281 332.842 C 287.787 332.645,289.010 332.273,290.000 332.015 C 292.772 331.294,305.312 327.219,306.095 326.785 C 306.477 326.573,307.152 326.400,307.595 326.400 C 308.038 326.400,308.400 326.220,308.400 326.000 C 308.400 325.780,308.672 325.600,309.005 325.600 C 309.338 325.600,309.923 325.432,310.305 325.227 C 310.687 325.022,314.060 323.365,317.800 321.544 C 321.540 319.723,324.660 318.090,324.733 317.916 C 324.807 317.742,325.029 317.600,325.228 317.600 C 327.117 317.600,335.781 310.815,337.997 307.600 C 338.527 306.830,339.064 306.110,339.189 306.000 C 339.314 305.890,340.016 304.540,340.750 303.000 C 341.484 301.460,342.245 299.887,342.442 299.505 C 342.639 299.123,342.800 298.536,342.800 298.200 C 342.800 297.864,342.962 297.277,343.160 296.895 C 343.639 295.969,344.701 290.923,345.200 287.200 C 346.977 273.949,345.901 248.312,342.774 229.400 C 342.555 228.080,342.274 226.280,342.147 225.400 C 342.021 224.520,341.756 223.629,341.559 223.420 C 341.362 223.211,341.200 222.367,341.200 221.544 C 341.200 220.721,341.020 219.936,340.800 219.800 C 340.580 219.664,340.400 218.944,340.400 218.200 C 340.400 217.456,340.220 216.736,340.000 216.600 C 339.780 216.464,339.600 215.834,339.600 215.200 C 339.600 214.566,339.420 213.936,339.200 213.800 C 338.980 213.664,338.800 213.111,338.800 212.571 C 338.800 212.031,338.638 211.277,338.439 210.895 C 338.240 210.513,337.863 209.390,337.600 208.400 C 337.337 207.410,336.960 206.287,336.761 205.905 C 336.562 205.523,336.400 204.859,336.400 204.429 C 336.400 203.999,336.220 203.536,336.000 203.400 C 335.780 203.264,335.600 202.801,335.600 202.371 C 335.600 201.941,335.434 201.277,335.232 200.895 C 335.030 200.513,334.469 199.120,333.986 197.800 C 333.503 196.480,332.769 194.637,332.354 193.704 C 331.939 192.772,331.600 191.824,331.600 191.599 C 331.600 191.374,331.427 190.877,331.215 190.495 C 331.003 190.113,329.627 187.280,328.156 184.200 C 326.686 181.120,325.329 178.540,325.141 178.467 C 324.954 178.393,324.800 178.071,324.800 177.750 C 324.800 177.429,324.619 176.949,324.399 176.683 C 324.178 176.417,322.918 174.529,321.598 172.487 C 318.107 167.087,314.550 162.504,310.817 158.600 C 300.011 147.299,290.179 141.368,279.212 139.536 C 275.676 138.945,269.185 138.736,268.200 139.182 M280.400 144.634 C 285.594 145.983,293.101 149.328,295.083 151.176 C 295.569 151.629,296.120 152.000,296.308 152.000 C 296.496 152.000,296.998 152.315,297.425 152.700 C 297.852 153.085,298.831 153.870,299.600 154.445 C 303.187 157.122,313.681 168.296,314.360 170.161 C 314.448 170.402,314.640 170.690,314.786 170.800 C 315.286 171.175,317.600 174.743,317.600 175.139 C 317.600 175.356,317.738 175.593,317.906 175.667 C 318.869 176.086,326.800 191.493,326.800 192.945 C 326.800 193.305,326.980 193.600,327.200 193.600 C 327.420 193.600,327.600 193.872,327.600 194.205 C 327.600 194.538,327.759 195.123,327.953 195.505 C 328.148 195.887,328.529 196.740,328.800 197.400 C 329.071 198.060,329.452 198.913,329.647 199.295 C 329.841 199.677,330.000 200.264,330.000 200.600 C 330.000 200.936,330.174 201.523,330.386 201.905 C 330.790 202.632,332.728 208.506,333.585 211.600 C 333.859 212.590,334.245 213.813,334.442 214.319 C 334.639 214.824,334.800 215.669,334.800 216.195 C 334.800 216.722,334.960 217.252,335.156 217.373 C 335.351 217.494,335.612 218.179,335.734 218.896 C 335.856 219.613,336.154 221.100,336.396 222.200 C 338.483 231.676,339.464 238.310,340.359 249.000 C 340.598 251.860,340.891 254.771,341.009 255.468 C 341.423 257.905,341.264 282.176,340.815 285.200 C 339.510 293.974,337.842 299.305,335.057 303.600 C 333.633 305.797,328.977 310.400,328.179 310.400 C 327.861 310.400,327.600 310.559,327.600 310.753 C 327.600 310.948,327.285 311.207,326.900 311.329 C 326.199 311.551,323.976 312.817,323.600 313.208 C 323.490 313.323,322.140 314.042,320.600 314.806 C 319.060 315.571,317.740 316.332,317.667 316.498 C 317.593 316.664,317.322 316.800,317.065 316.800 C 316.807 316.800,314.797 317.696,312.598 318.792 C 310.399 319.887,308.409 320.787,308.175 320.792 C 307.941 320.796,307.041 321.137,306.175 321.549 C 304.460 322.365,297.283 324.834,294.400 325.600 C 293.410 325.863,292.287 326.240,291.905 326.439 C 291.523 326.638,290.769 326.800,290.229 326.800 C 289.689 326.800,289.136 326.980,289.000 327.200 C 288.864 327.420,288.234 327.600,287.600 327.600 C 286.966 327.600,286.336 327.780,286.200 328.000 C 286.064 328.220,285.434 328.400,284.800 328.400 C 284.166 328.400,283.536 328.580,283.400 328.800 C 283.264 329.020,282.544 329.200,281.800 329.200 C 281.056 329.200,280.336 329.380,280.200 329.600 C 280.064 329.820,279.254 330.000,278.400 330.000 C 277.546 330.000,276.736 330.180,276.600 330.400 C 276.464 330.620,275.744 330.800,275.000 330.800 C 274.256 330.800,273.548 330.961,273.426 331.158 C 273.305 331.355,272.529 331.615,271.703 331.737 C 270.876 331.859,269.210 332.158,268.000 332.400 C 266.790 332.642,265.080 332.932,264.200 333.043 C 263.320 333.154,262.240 333.402,261.800 333.593 C 261.360 333.785,260.100 334.058,259.000 334.199 C 257.900 334.341,255.920 334.630,254.600 334.840 C 242.295 336.806,229.620 338.202,213.400 339.378 C 198.341 340.470,153.715 341.389,143.313 340.821 C 133.506 340.286,125.182 339.375,121.200 338.402 C 120.430 338.214,118.720 337.847,117.400 337.587 C 116.080 337.327,114.550 336.975,114.000 336.804 C 113.450 336.633,112.190 336.274,111.200 336.007 C 110.210 335.740,109.087 335.360,108.705 335.161 C 108.323 334.962,107.684 334.800,107.285 334.800 C 106.886 334.800,106.389 334.657,106.180 334.482 C 105.971 334.307,105.080 333.934,104.200 333.654 C 101.668 332.849,95.475 329.969,95.267 329.500 C 95.193 329.335,94.788 329.200,94.367 329.200 C 93.945 329.200,93.600 329.041,93.600 328.847 C 93.600 328.652,93.285 328.393,92.900 328.271 C 91.991 327.983,90.047 326.788,89.042 325.900 C 88.606 325.515,88.028 325.200,87.758 325.200 C 87.488 325.200,87.207 325.055,87.133 324.877 C 87.060 324.699,86.190 324.000,85.200 323.323 C 82.052 321.172,73.200 312.046,73.200 310.952 C 73.200 310.685,73.051 310.407,72.870 310.333 C 71.804 309.903,67.249 301.938,64.623 295.914 C 62.815 291.766,60.415 282.504,60.138 278.604 C 60.028 277.062,59.784 275.440,59.596 275.000 C 59.307 274.326,58.708 264.431,58.760 261.200 C 58.919 251.249,60.644 239.950,63.889 227.600 C 64.439 225.510,64.978 223.311,65.087 222.713 C 65.422 220.891,65.897 220.770,72.254 220.889 L 78.200 221.000 78.064 223.000 C 77.733 227.887,77.931 248.820,78.332 251.200 C 78.572 252.630,78.877 254.520,79.009 255.400 C 79.141 256.280,79.395 257.360,79.572 257.800 C 79.750 258.240,80.300 259.860,80.794 261.400 C 82.311 266.125,85.553 272.333,88.200 275.581 C 90.838 278.819,98.506 285.600,99.529 285.600 C 99.705 285.600,100.198 285.915,100.625 286.300 C 101.051 286.685,101.940 287.270,102.600 287.599 C 103.260 287.929,103.890 288.289,104.000 288.399 C 104.460 288.861,107.720 290.400,108.238 290.400 C 108.547 290.400,108.800 290.580,108.800 290.800 C 108.800 291.020,109.160 291.200,109.600 291.200 C 110.040 291.200,110.400 291.380,110.400 291.600 C 110.400 291.820,110.814 292.000,111.320 292.000 C 111.826 292.000,112.411 292.149,112.620 292.330 C 113.015 292.674,113.882 292.951,119.661 294.577 C 126.515 296.507,133.571 297.814,142.600 298.827 C 159.834 300.761,207.976 299.609,235.400 296.607 C 236.500 296.487,239.200 296.205,241.400 295.982 C 245.776 295.537,249.159 295.114,255.651 294.199 C 257.990 293.870,260.724 293.600,261.728 293.600 C 262.732 293.600,263.664 293.420,263.800 293.200 C 263.936 292.980,264.991 292.800,266.144 292.800 C 267.297 292.800,268.411 292.637,268.620 292.439 C 268.976 292.101,269.944 291.932,274.700 291.379 C 275.745 291.258,276.960 291.000,277.400 290.806 C 277.840 290.613,278.740 290.360,279.400 290.245 C 280.553 290.044,282.219 289.689,286.300 288.774 C 287.345 288.540,288.876 288.251,289.703 288.132 C 290.529 288.013,291.305 287.755,291.426 287.558 C 291.548 287.361,292.256 287.200,293.000 287.200 C 293.744 287.200,294.464 287.020,294.600 286.800 C 294.736 286.580,295.366 286.400,296.000 286.400 C 296.634 286.400,297.264 286.220,297.400 286.000 C 297.536 285.780,298.166 285.600,298.800 285.600 C 299.434 285.600,300.064 285.420,300.200 285.200 C 300.336 284.980,300.889 284.800,301.429 284.800 C 301.969 284.800,302.723 284.638,303.105 284.441 C 303.487 284.244,305.150 283.682,306.800 283.193 C 308.450 282.705,310.160 282.164,310.600 281.991 C 311.040 281.819,312.390 281.320,313.600 280.882 C 314.810 280.444,317.480 279.436,319.533 278.643 C 321.586 277.849,323.530 277.200,323.851 277.200 C 325.466 277.200,327.288 273.396,326.042 272.626 C 325.845 272.505,325.590 271.729,325.475 270.903 C 325.262 269.378,324.821 267.496,323.999 264.600 C 323.749 263.720,323.453 262.550,323.342 262.000 C 323.231 261.450,322.994 260.640,322.815 260.200 C 322.637 259.760,322.273 258.590,322.007 257.600 C 321.740 256.610,321.360 255.487,321.161 255.105 C 320.962 254.723,320.800 254.059,320.800 253.629 C 320.800 253.199,320.620 252.736,320.400 252.600 C 320.180 252.464,320.000 251.924,320.000 251.400 C 320.000 250.876,319.820 250.336,319.600 250.200 C 319.380 250.064,319.200 249.591,319.200 249.148 C 319.200 246.489,316.625 246.484,312.699 249.133 C 311.014 250.270,309.463 251.200,309.251 251.200 C 309.040 251.200,308.807 251.342,308.733 251.515 C 308.437 252.215,297.451 257.943,295.200 258.571 C 294.650 258.725,293.840 258.995,293.400 259.172 C 291.589 259.899,290.160 260.514,289.505 260.847 C 289.123 261.041,288.536 261.200,288.200 261.200 C 287.864 261.200,287.277 261.358,286.895 261.551 C 285.767 262.120,283.404 262.800,282.552 262.800 C 282.116 262.800,281.589 262.962,281.380 263.159 C 281.171 263.356,280.190 263.631,279.200 263.769 C 278.210 263.907,276.230 264.218,274.800 264.460 C 269.663 265.330,251.984 264.945,251.369 263.950 C 251.250 263.757,250.634 263.600,250.000 263.600 C 249.366 263.600,248.736 263.420,248.600 263.200 C 248.464 262.980,247.924 262.800,247.400 262.800 C 246.876 262.800,246.336 262.620,246.200 262.400 C 246.064 262.180,245.603 262.000,245.176 262.000 C 244.749 262.000,244.400 261.820,244.400 261.600 C 244.400 261.380,244.040 261.200,243.600 261.200 C 243.160 261.200,242.800 261.020,242.800 260.800 C 242.800 260.580,242.440 260.400,242.000 260.400 C 241.560 260.400,241.200 260.264,241.200 260.098 C 241.200 259.931,240.677 259.564,240.037 259.280 C 237.234 258.040,231.862 253.275,229.123 249.600 C 227.125 246.919,224.000 240.810,224.000 239.586 C 224.000 239.180,223.841 238.749,223.646 238.629 C 223.451 238.508,223.175 237.823,223.031 237.105 C 222.887 236.387,222.567 234.900,222.320 233.800 C 221.744 231.236,221.750 211.596,222.328 207.800 C 222.563 206.260,222.954 204.010,223.198 202.800 C 223.441 201.590,223.741 199.924,223.863 199.097 C 223.985 198.271,224.245 197.495,224.442 197.374 C 224.639 197.252,224.800 196.634,224.800 196.000 C 224.800 195.366,224.980 194.736,225.200 194.600 C 225.420 194.464,225.600 193.823,225.600 193.176 C 225.600 192.529,225.780 192.000,226.000 192.000 C 226.220 192.000,226.400 191.460,226.400 190.800 C 226.400 190.140,226.580 189.600,226.800 189.600 C 227.020 189.600,227.200 189.199,227.200 188.710 C 227.200 186.894,234.263 171.259,235.261 170.867 C 235.447 170.793,235.600 170.560,235.600 170.349 C 235.600 169.982,239.287 164.323,240.176 163.324 C 240.409 163.063,241.320 161.983,242.200 160.924 C 253.796 146.978,267.282 141.227,280.400 144.634 M260.800 185.184 C 260.470 185.406,259.660 185.593,259.000 185.600 C 254.972 185.640,242.400 193.101,242.400 195.452 C 242.400 195.602,241.975 196.281,241.456 196.962 C 237.440 202.228,235.578 210.941,237.087 217.400 C 238.262 222.426,241.758 226.969,247.200 230.543 C 250.098 232.446,254.827 234.800,255.751 234.800 C 256.082 234.800,256.451 234.959,256.571 235.154 C 256.692 235.349,257.287 235.610,257.895 235.736 C 258.503 235.861,259.900 236.183,261.000 236.451 C 263.532 237.068,280.440 237.084,283.800 236.473 C 288.314 235.652,292.274 234.822,295.500 234.022 C 299.614 233.001,300.277 232.832,301.600 232.467 C 308.590 230.540,310.000 229.721,310.000 227.591 C 310.000 226.716,309.820 226.000,309.600 226.000 C 309.380 226.000,309.200 225.640,309.200 225.200 C 309.200 224.760,309.020 224.400,308.800 224.400 C 308.580 224.400,308.400 224.055,308.400 223.633 C 308.400 223.212,308.264 222.807,308.098 222.733 C 307.932 222.660,307.171 221.340,306.406 219.800 C 305.642 218.260,304.909 216.910,304.778 216.800 C 304.647 216.690,304.104 215.790,303.570 214.800 C 303.037 213.810,302.387 212.774,302.126 212.498 C 301.866 212.221,301.538 211.636,301.399 211.198 C 301.260 210.759,300.990 210.400,300.800 210.400 C 300.610 210.400,300.340 210.041,300.201 209.602 C 300.062 209.164,299.728 208.579,299.461 208.302 C 299.193 208.026,298.540 207.170,298.009 206.400 C 295.382 202.588,288.378 195.144,285.600 193.212 C 284.830 192.677,284.110 192.124,284.000 191.985 C 283.436 191.270,277.251 188.001,274.200 186.805 C 270.456 185.337,262.079 184.324,260.800 185.184 M270.600 190.862 C 277.572 192.731,287.335 199.767,291.603 206.000 C 292.131 206.770,292.841 207.673,293.181 208.006 C 293.521 208.339,293.980 208.900,294.200 209.252 C 294.420 209.605,295.545 211.259,296.700 212.929 C 297.855 214.598,298.800 216.152,298.800 216.382 C 298.800 216.612,298.935 216.801,299.100 216.803 C 299.265 216.805,299.604 217.210,299.853 217.703 C 300.102 218.196,301.136 220.220,302.152 222.200 C 303.167 224.180,303.998 225.981,303.999 226.202 C 304.000 226.795,299.688 228.400,298.095 228.400 C 297.629 228.400,297.136 228.580,297.000 228.800 C 296.864 229.020,296.144 229.200,295.400 229.200 C 294.656 229.200,293.936 229.380,293.800 229.600 C 293.664 229.820,292.879 230.000,292.056 230.000 C 291.233 230.000,290.389 230.163,290.180 230.361 C 289.971 230.560,288.990 230.825,288.000 230.950 C 287.010 231.075,284.940 231.385,283.400 231.639 C 279.910 232.215,264.499 232.269,261.800 231.715 C 259.182 231.178,255.436 229.917,255.267 229.516 C 255.193 229.342,254.876 229.200,254.561 229.200 C 254.032 229.200,252.464 228.465,252.000 227.999 C 251.890 227.889,251.266 227.529,250.614 227.199 C 246.936 225.342,242.538 219.760,241.789 216.000 C 241.267 213.381,241.699 206.592,242.437 205.820 C 242.637 205.611,242.800 205.026,242.800 204.520 C 242.800 204.014,242.980 203.600,243.200 203.600 C 243.420 203.600,243.600 203.320,243.600 202.978 C 243.600 201.373,250.324 193.629,251.738 193.606 C 251.924 193.603,252.554 193.261,253.138 192.847 C 256.619 190.380,265.171 189.408,270.600 190.862 " stroke="none" fill="#000000" fill-rule="evenodd"></path><path id="path1" d="M268.766 55.504 C 268.235 56.111,266.990 57.596,266.000 58.804 C 265.010 60.012,263.390 61.813,262.400 62.807 C 261.410 63.800,259.581 65.780,258.335 67.207 C 257.089 68.633,252.609 73.310,248.379 77.600 C 239.697 86.407,239.459 86.700,239.826 88.162 C 240.292 90.018,255.841 105.217,264.810 112.584 C 266.675 114.116,268.740 115.870,269.400 116.482 C 271.966 118.864,274.333 117.081,286.000 103.975 C 287.650 102.121,289.360 100.231,289.800 99.774 C 293.817 95.604,301.195 85.650,301.198 84.397 C 301.199 83.639,299.872 82.079,295.751 77.997 C 290.093 72.392,281.129 63.403,275.511 57.700 C 271.775 53.907,270.521 53.499,268.766 55.504 M283.673 72.767 L 295.701 84.734 294.764 86.067 C 294.248 86.800,293.640 87.596,293.413 87.837 C 293.186 88.077,292.550 88.866,292.000 89.590 C 291.450 90.314,290.674 91.288,290.276 91.753 C 288.698 93.597,288.162 94.246,287.295 95.359 C 283.979 99.616,272.371 111.600,271.565 111.600 C 271.236 111.600,270.333 111.015,269.559 110.300 C 268.785 109.585,267.353 108.378,266.376 107.618 C 260.810 103.286,246.000 88.821,246.000 87.716 C 246.000 87.271,249.015 83.887,253.300 79.524 C 257.315 75.435,262.850 69.557,265.600 66.462 C 268.350 63.367,270.835 60.827,271.122 60.817 C 271.410 60.808,277.057 66.185,283.673 72.767 M268.200 139.182 C 267.760 139.381,266.860 139.556,266.200 139.570 C 264.819 139.601,258.266 141.633,258.067 142.093 C 257.993 142.262,257.588 142.400,257.167 142.400 C 256.745 142.400,256.400 142.546,256.400 142.725 C 256.400 142.904,255.770 143.298,255.000 143.600 C 254.230 143.902,253.600 144.296,253.600 144.475 C 253.600 144.654,253.368 144.800,253.085 144.800 C 252.802 144.800,251.947 145.333,251.185 145.984 C 250.423 146.635,249.590 147.175,249.333 147.184 C 249.077 147.193,248.807 147.338,248.733 147.508 C 248.660 147.677,247.618 148.622,246.418 149.608 C 243.631 151.897,242.277 153.250,239.809 156.211 C 238.714 157.525,237.724 158.690,237.609 158.800 C 237.494 158.910,236.598 160.170,235.617 161.600 C 234.636 163.030,233.691 164.260,233.517 164.333 C 233.343 164.407,233.200 164.649,233.200 164.872 C 233.200 165.094,232.861 165.754,232.447 166.338 C 230.738 168.748,226.027 177.733,224.863 180.800 C 224.571 181.570,223.787 183.640,223.121 185.400 C 218.873 196.625,216.847 207.593,216.360 222.000 C 216.284 224.227,217.098 232.808,217.593 235.000 C 217.841 236.100,218.144 237.587,218.266 238.304 C 218.388 239.021,218.649 239.706,218.844 239.827 C 219.040 239.948,219.200 240.386,219.200 240.800 C 219.200 243.262,225.808 253.909,229.589 257.539 C 233.200 261.006,242.487 266.780,244.476 266.795 C 244.848 266.798,245.264 266.980,245.400 267.200 C 245.536 267.420,246.076 267.600,246.600 267.600 C 247.124 267.600,247.652 267.760,247.773 267.956 C 247.894 268.151,248.669 268.426,249.496 268.567 C 250.323 268.707,251.990 269.023,253.200 269.269 C 255.992 269.837,272.135 269.843,275.600 269.277 C 278.243 268.845,280.366 268.399,283.600 267.597 C 284.590 267.352,285.897 267.051,286.505 266.929 C 287.113 266.807,287.708 266.549,287.829 266.354 C 287.949 266.159,288.451 266.000,288.944 266.000 C 289.437 266.000,290.011 265.851,290.220 265.670 C 290.429 265.488,291.410 265.095,292.400 264.798 C 293.390 264.500,294.380 264.132,294.600 263.981 C 294.820 263.830,295.990 263.341,297.200 262.894 C 300.063 261.836,305.762 259.105,305.933 258.709 C 306.007 258.539,306.412 258.400,306.833 258.400 C 307.255 258.400,307.600 258.241,307.600 258.047 C 307.600 257.852,307.915 257.593,308.300 257.471 C 309.087 257.222,311.294 255.935,311.600 255.546 C 312.877 253.927,316.000 253.431,316.000 254.848 C 316.000 255.268,316.162 255.923,316.361 256.305 C 316.560 256.687,316.940 257.810,317.207 258.800 C 317.473 259.790,317.837 260.960,318.015 261.400 C 318.194 261.840,318.431 262.650,318.542 263.200 C 318.653 263.750,318.949 264.920,319.199 265.800 C 319.746 267.726,320.373 270.227,320.659 271.623 C 320.919 272.894,320.503 273.225,317.200 274.374 C 315.770 274.871,314.240 275.429,313.800 275.613 C 313.360 275.797,312.280 276.176,311.400 276.455 C 310.520 276.735,309.629 277.107,309.420 277.282 C 309.211 277.457,308.637 277.600,308.144 277.600 C 307.651 277.600,307.136 277.780,307.000 278.000 C 306.864 278.220,306.324 278.400,305.800 278.400 C 305.276 278.400,304.736 278.580,304.600 278.800 C 304.464 279.020,303.834 279.200,303.200 279.200 C 302.566 279.200,301.936 279.380,301.800 279.600 C 301.664 279.820,301.124 280.000,300.600 280.000 C 300.076 280.000,299.536 280.180,299.400 280.400 C 299.264 280.620,298.544 280.800,297.800 280.800 C 297.056 280.800,296.349 280.959,296.229 281.154 C 296.108 281.349,295.513 281.607,294.905 281.729 C 294.297 281.851,293.035 282.142,292.100 282.375 C 287.976 283.405,286.899 283.666,285.300 284.022 C 284.365 284.230,282.790 284.580,281.800 284.800 C 272.532 286.859,261.588 288.719,251.100 290.017 C 249.395 290.227,246.605 290.591,244.900 290.825 C 243.195 291.059,239.460 291.426,236.600 291.641 C 233.740 291.857,229.510 292.205,227.200 292.415 C 208.996 294.073,198.068 294.484,171.800 294.499 C 147.977 294.513,144.767 294.396,136.600 293.218 C 135.060 292.996,132.900 292.704,131.800 292.568 C 130.700 292.433,129.629 292.160,129.420 291.961 C 129.211 291.763,128.428 291.600,127.680 291.600 C 126.372 291.600,120.325 290.136,117.000 289.015 C 104.905 284.936,95.793 278.620,90.130 270.389 C 88.376 267.840,87.200 265.672,87.200 264.988 C 87.200 264.665,87.053 264.400,86.872 264.400 C 86.692 264.400,86.296 263.489,85.993 262.375 C 85.690 261.261,85.297 260.260,85.121 260.151 C 84.944 260.042,84.800 259.434,84.800 258.800 C 84.800 258.166,84.639 257.548,84.442 257.426 C 84.245 257.305,83.982 256.529,83.857 255.703 C 83.732 254.876,83.410 252.940,83.142 251.400 C 82.594 248.259,82.493 227.942,82.993 221.485 C 83.443 215.677,84.067 216.000,72.408 216.000 C 61.916 216.000,61.200 216.186,61.200 218.902 C 61.200 219.480,61.020 220.064,60.800 220.200 C 60.580 220.336,60.400 220.977,60.400 221.624 C 60.400 222.271,60.220 222.800,60.000 222.800 C 59.780 222.800,59.600 223.400,59.600 224.133 C 59.600 224.867,59.465 225.601,59.301 225.766 C 59.136 225.931,58.804 227.176,58.562 228.533 C 58.158 230.807,56.557 238.253,55.602 242.306 C 55.381 243.244,55.200 244.535,55.200 245.175 C 55.200 245.815,55.027 247.208,54.816 248.269 C 52.930 257.741,53.625 273.305,56.483 285.600 C 57.153 288.482,58.819 294.528,59.184 295.400 C 60.102 297.596,60.942 299.514,61.444 300.561 C 61.750 301.200,62.000 301.965,62.000 302.261 C 62.000 302.558,62.180 302.800,62.400 302.800 C 62.620 302.800,62.800 303.160,62.800 303.600 C 62.800 304.040,62.936 304.400,63.102 304.400 C 63.269 304.400,63.644 304.940,63.936 305.600 C 64.731 307.396,68.178 312.565,70.634 315.643 C 73.773 319.577,81.496 327.200,82.343 327.200 C 82.511 327.200,82.998 327.516,83.425 327.903 C 84.119 328.533,87.305 330.611,91.200 332.976 C 93.618 334.444,101.263 338.000,102.001 338.000 C 102.226 338.000,102.768 338.180,103.205 338.400 C 103.642 338.620,104.358 338.980,104.795 339.200 C 105.232 339.420,105.864 339.600,106.200 339.600 C 106.536 339.600,107.123 339.758,107.505 339.951 C 108.672 340.540,111.008 341.200,111.928 341.200 C 112.408 341.200,112.800 341.361,112.800 341.558 C 112.800 341.755,113.475 342.013,114.300 342.132 C 115.125 342.251,116.700 342.547,117.800 342.791 C 120.301 343.344,126.179 344.199,133.200 345.031 C 142.862 346.175,187.029 345.795,209.800 344.371 C 229.413 343.145,231.033 343.014,239.200 341.998 C 241.070 341.765,243.770 341.484,245.200 341.372 C 246.630 341.260,248.160 341.005,248.600 340.804 C 249.040 340.603,250.345 340.340,251.500 340.219 C 252.655 340.099,254.545 339.901,255.700 339.781 C 256.855 339.660,258.160 339.400,258.600 339.203 C 259.040 339.007,260.120 338.754,261.000 338.643 C 261.880 338.532,263.590 338.242,264.800 338.000 C 266.010 337.758,267.720 337.468,268.600 337.357 C 269.480 337.246,270.560 336.997,271.000 336.805 C 271.440 336.612,272.340 336.363,273.000 336.252 C 273.660 336.140,275.010 335.848,276.000 335.603 C 278.561 334.967,281.190 334.391,282.704 334.134 C 283.421 334.012,284.106 333.751,284.227 333.556 C 284.348 333.360,284.878 333.200,285.405 333.200 C 285.931 333.200,286.776 333.039,287.281 332.842 C 287.787 332.645,289.010 332.273,290.000 332.015 C 292.772 331.294,305.312 327.219,306.095 326.785 C 306.477 326.573,307.152 326.400,307.595 326.400 C 308.038 326.400,308.400 326.220,308.400 326.000 C 308.400 325.780,308.672 325.600,309.005 325.600 C 309.338 325.600,309.923 325.432,310.305 325.227 C 310.687 325.022,314.060 323.365,317.800 321.544 C 321.540 319.723,324.660 318.090,324.733 317.916 C 324.807 317.742,325.029 317.600,325.228 317.600 C 327.117 317.600,335.781 310.815,337.997 307.600 C 338.527 306.830,339.064 306.110,339.189 306.000 C 339.314 305.890,340.016 304.540,340.750 303.000 C 341.484 301.460,342.245 299.887,342.442 299.505 C 342.639 299.123,342.800 298.536,342.800 298.200 C 342.800 297.864,342.962 297.277,343.160 296.895 C 343.639 295.969,344.701 290.923,345.200 287.200 C 346.977 273.949,345.901 248.312,342.774 229.400 C 342.555 228.080,342.274 226.280,342.147 225.400 C 342.021 224.520,341.756 223.629,341.559 223.420 C 341.362 223.211,341.200 222.367,341.200 221.544 C 341.200 220.721,341.020 219.936,340.800 219.800 C 340.580 219.664,340.400 218.944,340.400 218.200 C 340.400 217.456,340.220 216.736,340.000 216.600 C 339.780 216.464,339.600 215.834,339.600 215.200 C 339.600 214.566,339.420 213.936,339.200 213.800 C 338.980 213.664,338.800 213.111,338.800 212.571 C 338.800 212.031,338.638 211.277,338.439 210.895 C 338.240 210.513,337.863 209.390,337.600 208.400 C 337.337 207.410,336.960 206.287,336.761 205.905 C 336.562 205.523,336.400 204.859,336.400 204.429 C 336.400 203.999,336.220 203.536,336.000 203.400 C 335.780 203.264,335.600 202.801,335.600 202.371 C 335.600 201.941,335.434 201.277,335.232 200.895 C 335.030 200.513,334.469 199.120,333.986 197.800 C 333.503 196.480,332.769 194.637,332.354 193.704 C 331.939 192.772,331.600 191.824,331.600 191.599 C 331.600 191.374,331.427 190.877,331.215 190.495 C 331.003 190.113,329.627 187.280,328.156 184.200 C 326.686 181.120,325.329 178.540,325.141 178.467 C 324.954 178.393,324.800 178.071,324.800 177.750 C 324.800 177.429,324.619 176.949,324.399 176.683 C 324.178 176.417,322.918 174.529,321.598 172.487 C 318.107 167.087,314.550 162.504,310.817 158.600 C 300.011 147.299,290.179 141.368,279.212 139.536 C 275.676 138.945,269.185 138.736,268.200 139.182 M280.400 144.634 C 285.594 145.983,293.101 149.328,295.083 151.176 C 295.569 151.629,296.120 152.000,296.308 152.000 C 296.496 152.000,296.998 152.315,297.425 152.700 C 297.852 153.085,298.831 153.870,299.600 154.445 C 303.187 157.122,313.681 168.296,314.360 170.161 C 314.448 170.402,314.640 170.690,314.786 170.800 C 315.286 171.175,317.600 174.743,317.600 175.139 C 317.600 175.356,317.738 175.593,317.906 175.667 C 318.869 176.086,326.800 191.493,326.800 192.945 C 326.800 193.305,326.980 193.600,327.200 193.600 C 327.420 193.600,327.600 193.872,327.600 194.205 C 327.600 194.538,327.759 195.123,327.953 195.505 C 328.148 195.887,328.529 196.740,328.800 197.400 C 329.071 198.060,329.452 198.913,329.647 199.295 C 329.841 199.677,330.000 200.264,330.000 200.600 C 330.000 200.936,330.174 201.523,330.386 201.905 C 330.790 202.632,332.728 208.506,333.585 211.600 C 333.859 212.590,334.245 213.813,334.442 214.319 C 334.639 214.824,334.800 215.669,334.800 216.195 C 334.800 216.722,334.960 217.252,335.156 217.373 C 335.351 217.494,335.612 218.179,335.734 218.896 C 335.856 219.613,336.154 221.100,336.396 222.200 C 338.483 231.676,339.464 238.310,340.359 249.000 C 340.598 251.860,340.891 254.771,341.009 255.468 C 341.423 257.905,341.264 282.176,340.815 285.200 C 339.510 293.974,337.842 299.305,335.057 303.600 C 333.633 305.797,328.977 310.400,328.179 310.400 C 327.861 310.400,327.600 310.559,327.600 310.753 C 327.600 310.948,327.285 311.207,326.900 311.329 C 326.199 311.551,323.976 312.817,323.600 313.208 C 323.490 313.323,322.140 314.042,320.600 314.806 C 319.060 315.571,317.740 316.332,317.667 316.498 C 317.593 316.664,317.322 316.800,317.065 316.800 C 316.807 316.800,314.797 317.696,312.598 318.792 C 310.399 319.887,308.409 320.787,308.175 320.792 C 307.941 320.796,307.041 321.137,306.175 321.549 C 304.460 322.365,297.283 324.834,294.400 325.600 C 293.410 325.863,292.287 326.240,291.905 326.439 C 291.523 326.638,290.769 326.800,290.229 326.800 C 289.689 326.800,289.136 326.980,289.000 327.200 C 288.864 327.420,288.234 327.600,287.600 327.600 C 286.966 327.600,286.336 327.780,286.200 328.000 C 286.064 328.220,285.434 328.400,284.800 328.400 C 284.166 328.400,283.536 328.580,283.400 328.800 C 283.264 329.020,282.544 329.200,281.800 329.200 C 281.056 329.200,280.336 329.380,280.200 329.600 C 280.064 329.820,279.254 330.000,278.400 330.000 C 277.546 330.000,276.736 330.180,276.600 330.400 C 276.464 330.620,275.744 330.800,275.000 330.800 C 274.256 330.800,273.548 330.961,273.426 331.158 C 273.305 331.355,272.529 331.615,271.703 331.737 C 270.876 331.859,269.210 332.158,268.000 332.400 C 266.790 332.642,265.080 332.932,264.200 333.043 C 263.320 333.154,262.240 333.402,261.800 333.593 C 261.360 333.785,260.100 334.058,259.000 334.199 C 257.900 334.341,255.920 334.630,254.600 334.840 C 242.295 336.806,229.620 338.202,213.400 339.378 C 198.341 340.470,153.715 341.389,143.313 340.821 C 133.506 340.286,125.182 339.375,121.200 338.402 C 120.430 338.214,118.720 337.847,117.400 337.587 C 116.080 337.327,114.550 336.975,114.000 336.804 C 113.450 336.633,112.190 336.274,111.200 336.007 C 110.210 335.740,109.087 335.360,108.705 335.161 C 108.323 334.962,107.684 334.800,107.285 334.800 C 106.886 334.800,106.389 334.657,106.180 334.482 C 105.971 334.307,105.080 333.934,104.200 333.654 C 101.668 332.849,95.475 329.969,95.267 329.500 C 95.193 329.335,94.788 329.200,94.367 329.200 C 93.945 329.200,93.600 329.041,93.600 328.847 C 93.600 328.652,93.285 328.393,92.900 328.271 C 91.991 327.983,90.047 326.788,89.042 325.900 C 88.606 325.515,88.028 325.200,87.758 325.200 C 87.488 325.200,87.207 325.055,87.133 324.877 C 87.060 324.699,86.190 324.000,85.200 323.323 C 82.052 321.172,73.200 312.046,73.200 310.952 C 73.200 310.685,73.051 310.407,72.870 310.333 C 71.804 309.903,67.249 301.938,64.623 295.914 C 62.815 291.766,60.415 282.504,60.138 278.604 C 60.028 277.062,59.784 275.440,59.596 275.000 C 59.307 274.326,58.708 264.431,58.760 261.200 C 58.919 251.249,60.644 239.950,63.889 227.600 C 64.439 225.510,64.978 223.311,65.087 222.713 C 65.422 220.891,65.897 220.770,72.254 220.889 L 78.200 221.000 78.064 223.000 C 77.733 227.887,77.931 248.820,78.332 251.200 C 78.572 252.630,78.877 254.520,79.009 255.400 C 79.141 256.280,79.395 257.360,79.572 257.800 C 79.750 258.240,80.300 259.860,80.794 261.400 C 82.311 266.125,85.553 272.333,88.200 275.581 C 90.838 278.819,98.506 285.600,99.529 285.600 C 99.705 285.600,100.198 285.915,100.625 286.300 C 101.051 286.685,101.940 287.270,102.600 287.599 C 103.260 287.929,103.890 288.289,104.000 288.399 C 104.460 288.861,107.720 290.400,108.238 290.400 C 108.547 290.400,108.800 290.580,108.800 290.800 C 108.800 291.020,109.160 291.200,109.600 291.200 C 110.040 291.200,110.400 291.380,110.400 291.600 C 110.400 291.820,110.814 292.000,111.320 292.000 C 111.826 292.000,112.411 292.149,112.620 292.330 C 113.015 292.674,113.882 292.951,119.661 294.577 C 126.515 296.507,133.571 297.814,142.600 298.827 C 159.834 300.761,207.976 299.609,235.400 296.607 C 236.500 296.487,239.200 296.205,241.400 295.982 C 245.776 295.537,249.159 295.114,255.651 294.199 C 257.990 293.870,260.724 293.600,261.728 293.600 C 262.732 293.600,263.664 293.420,263.800 293.200 C 263.936 292.980,264.991 292.800,266.144 292.800 C 267.297 292.800,268.411 292.637,268.620 292.439 C 268.976 292.101,269.944 291.932,274.700 291.379 C 275.745 291.258,276.960 291.000,277.400 290.806 C 277.840 290.613,278.740 290.360,279.400 290.245 C 280.553 290.044,282.219 289.689,286.300 288.774 C 287.345 288.540,288.876 288.251,289.703 288.132 C 290.529 288.013,291.305 287.755,291.426 287.558 C 291.548 287.361,292.256 287.200,293.000 287.200 C 293.744 287.200,294.464 287.020,294.600 286.800 C 294.736 286.580,295.366 286.400,296.000 286.400 C 296.634 286.400,297.264 286.220,297.400 286.000 C 297.536 285.780,298.166 285.600,298.800 285.600 C 299.434 285.600,300.064 285.420,300.200 285.200 C 300.336 284.980,300.889 284.800,301.429 284.800 C 301.969 284.800,302.723 284.638,303.105 284.441 C 303.487 284.244,305.150 283.682,306.800 283.193 C 308.450 282.705,310.160 282.164,310.600 281.991 C 311.040 281.819,312.390 281.320,313.600 280.882 C 314.810 280.444,317.480 279.436,319.533 278.643 C 321.586 277.849,323.530 277.200,323.851 277.200 C 325.466 277.200,327.288 273.396,326.042 272.626 C 325.845 272.505,325.590 271.729,325.475 270.903 C 325.262 269.378,324.821 267.496,323.999 264.600 C 323.749 263.720,323.453 262.550,323.342 262.000 C 323.231 261.450,322.994 260.640,322.815 260.200 C 322.637 259.760,322.273 258.590,322.007 257.600 C 321.740 256.610,321.360 255.487,321.161 255.105 C 320.962 254.723,320.800 254.059,320.800 253.629 C 320.800 253.199,320.620 252.736,320.400 252.600 C 320.180 252.464,320.000 251.924,320.000 251.400 C 320.000 250.876,319.820 250.336,319.600 250.200 C 319.380 250.064,319.200 249.591,319.200 249.148 C 319.200 246.489,316.625 246.484,312.699 249.133 C 311.014 250.270,309.463 251.200,309.251 251.200 C 309.040 251.200,308.807 251.342,308.733 251.515 C 308.437 252.215,297.451 257.943,295.200 258.571 C 294.650 258.725,293.840 258.995,293.400 259.172 C 291.589 259.899,290.160 260.514,289.505 260.847 C 289.123 261.041,288.536 261.200,288.200 261.200 C 287.864 261.200,287.277 261.358,286.895 261.551 C 285.767 262.120,283.404 262.800,282.552 262.800 C 282.116 262.800,281.589 262.962,281.380 263.159 C 281.171 263.356,280.190 263.631,279.200 263.769 C 278.210 263.907,276.230 264.218,274.800 264.460 C 269.663 265.330,251.984 264.945,251.369 263.950 C 251.250 263.757,250.634 263.600,250.000 263.600 C 249.366 263.600,248.736 263.420,248.600 263.200 C 248.464 262.980,247.924 262.800,247.400 262.800 C 246.876 262.800,246.336 262.620,246.200 262.400 C 246.064 262.180,245.603 262.000,245.176 262.000 C 244.749 262.000,244.400 261.820,244.400 261.600 C 244.400 261.380,244.040 261.200,243.600 261.200 C 243.160 261.200,242.800 261.020,242.800 260.800 C 242.800 260.580,242.440 260.400,242.000 260.400 C 241.560 260.400,241.200 260.264,241.200 260.098 C 241.200 259.931,240.677 259.564,240.037 259.280 C 237.234 258.040,231.862 253.275,229.123 249.600 C 227.125 246.919,224.000 240.810,224.000 239.586 C 224.000 239.180,223.841 238.749,223.646 238.629 C 223.451 238.508,223.175 237.823,223.031 237.105 C 222.887 236.387,222.567 234.900,222.320 233.800 C 221.744 231.236,221.750 211.596,222.328 207.800 C 222.563 206.260,222.954 204.010,223.198 202.800 C 223.441 201.590,223.741 199.924,223.863 199.097 C 223.985 198.271,224.245 197.495,224.442 197.374 C 224.639 197.252,224.800 196.634,224.800 196.000 C 224.800 195.366,224.980 194.736,225.200 194.600 C 225.420 194.464,225.600 193.823,225.600 193.176 C 225.600 192.529,225.780 192.000,226.000 192.000 C 226.220 192.000,226.400 191.460,226.400 190.800 C 226.400 190.140,226.580 189.600,226.800 189.600 C 227.020 189.600,227.200 189.199,227.200 188.710 C 227.200 186.894,234.263 171.259,235.261 170.867 C 235.447 170.793,235.600 170.560,235.600 170.349 C 235.600 169.982,239.287 164.323,240.176 163.324 C 240.409 163.063,241.320 161.983,242.200 160.924 C 253.796 146.978,267.282 141.227,280.400 144.634 M260.800 185.184 C 260.470 185.406,259.660 185.593,259.000 185.600 C 254.972 185.640,242.400 193.101,242.400 195.452 C 242.400 195.602,241.975 196.281,241.456 196.962 C 237.440 202.228,235.578 210.941,237.087 217.400 C 238.262 222.426,241.758 226.969,247.200 230.543 C 250.098 232.446,254.827 234.800,255.751 234.800 C 256.082 234.800,256.451 234.959,256.571 235.154 C 256.692 235.349,257.287 235.610,257.895 235.736 C 258.503 235.861,259.900 236.183,261.000 236.451 C 263.532 237.068,280.440 237.084,283.800 236.473 C 288.314 235.652,292.274 234.822,295.500 234.022 C 299.614 233.001,300.277 232.832,301.600 232.467 C 308.590 230.540,310.000 229.721,310.000 227.591 C 310.000 226.716,309.820 226.000,309.600 226.000 C 309.380 226.000,309.200 225.640,309.200 225.200 C 309.200 224.760,309.020 224.400,308.800 224.400 C 308.580 224.400,308.400 224.055,308.400 223.633 C 308.400 223.212,308.264 222.807,308.098 222.733 C 307.932 222.660,307.171 221.340,306.406 219.800 C 305.642 218.260,304.909 216.910,304.778 216.800 C 304.647 216.690,304.104 215.790,303.570 214.800 C 303.037 213.810,302.387 212.774,302.126 212.498 C 301.866 212.221,301.538 211.636,301.399 211.198 C 301.260 210.759,300.990 210.400,300.800 210.400 C 300.610 210.400,300.340 210.041,300.201 209.602 C 300.062 209.164,299.728 208.579,299.461 208.302 C 299.193 208.026,298.540 207.170,298.009 206.400 C 295.382 202.588,288.378 195.144,285.600 193.212 C 284.830 192.677,284.110 192.124,284.000 191.985 C 283.436 191.270,277.251 188.001,274.200 186.805 C 270.456 185.337,262.079 184.324,260.800 185.184 M270.600 190.862 C 277.572 192.731,287.335 199.767,291.603 206.000 C 292.131 206.770,292.841 207.673,293.181 208.006 C 293.521 208.339,293.980 208.900,294.200 209.252 C 294.420 209.605,295.545 211.259,296.700 212.929 C 297.855 214.598,298.800 216.152,298.800 216.382 C 298.800 216.612,298.935 216.801,299.100 216.803 C 299.265 216.805,299.604 217.210,299.853 217.703 C 300.102 218.196,301.136 220.220,302.152 222.200 C 303.167 224.180,303.998 225.981,303.999 226.202 C 304.000 226.795,299.688 228.400,298.095 228.400 C 297.629 228.400,297.136 228.580,297.000 228.800 C 296.864 229.020,296.144 229.200,295.400 229.200 C 294.656 229.200,293.936 229.380,293.800 229.600 C 293.664 229.820,292.879 230.000,292.056 230.000 C 291.233 230.000,290.389 230.163,290.180 230.361 C 289.971 230.560,288.990 230.825,288.000 230.950 C 287.010 231.075,284.940 231.385,283.400 231.639 C 279.910 232.215,264.499 232.269,261.800 231.715 C 259.182 231.178,255.436 229.917,255.267 229.516 C 255.193 229.342,254.876 229.200,254.561 229.200 C 254.032 229.200,252.464 228.465,252.000 227.999 C 251.890 227.889,251.266 227.529,250.614 227.199 C 246.936 225.342,242.538 219.760,241.789 216.000 C 241.267 213.381,241.699 206.592,242.437 205.820 C 242.637 205.611,242.800 205.026,242.800 204.520 C 242.800 204.014,242.980 203.600,243.200 203.600 C 243.420 203.600,243.600 203.320,243.600 202.978 C 243.600 201.373,250.324 193.629,251.738 193.606 C 251.924 193.603,252.554 193.261,253.138 192.847 C 256.619 190.380,265.171 189.408,270.600 190.862 " stroke="none" fill="#000000" fill-rule="evenodd"></path><path id="path2" d="M268.766 55.504 C 268.235 56.111,266.990 57.596,266.000 58.804 C 265.010 60.012,263.390 61.813,262.400 62.807 C 261.410 63.800,259.581 65.780,258.335 67.207 C 257.089 68.633,252.609 73.310,248.379 77.600 C 239.697 86.407,239.459 86.700,239.826 88.162 C 240.292 90.018,255.841 105.217,264.810 112.584 C 266.675 114.116,268.740 115.870,269.400 116.482 C 271.966 118.864,274.333 117.081,286.000 103.975 C 287.650 102.121,289.360 100.231,289.800 99.774 C 293.817 95.604,301.195 85.650,301.198 84.397 C 301.199 83.639,299.872 82.079,295.751 77.997 C 290.093 72.392,281.129 63.403,275.511 57.700 C 271.775 53.907,270.521 53.499,268.766 55.504 M283.673 72.767 L 295.701 84.734 294.764 86.067 C 294.248 86.800,293.640 87.596,293.413 87.837 C 293.186 88.077,292.550 88.866,292.000 89.590 C 291.450 90.314,290.674 91.288,290.276 91.753 C 288.698 93.597,288.162 94.246,287.295 95.359 C 283.979 99.616,272.371 111.600,271.565 111.600 C 271.236 111.600,270.333 111.015,269.559 110.300 C 268.785 109.585,267.353 108.378,266.376 107.618 C 260.810 103.286,246.000 88.821,246.000 87.716 C 246.000 87.271,249.015 83.887,253.300 79.524 C 257.315 75.435,262.850 69.557,265.600 66.462 C 268.350 63.367,270.835 60.827,271.122 60.817 C 271.410 60.808,277.057 66.185,283.673 72.767 M268.200 139.182 C 267.760 139.381,266.860 139.556,266.200 139.570 C 264.819 139.601,258.266 141.633,258.067 142.093 C 257.993 142.262,257.588 142.400,257.167 142.400 C 256.745 142.400,256.400 142.546,256.400 142.725 C 256.400 142.904,255.770 143.298,255.000 143.600 C 254.230 143.902,253.600 144.296,253.600 144.475 C 253.600 144.654,253.368 144.800,253.085 144.800 C 252.802 144.800,251.947 145.333,251.185 145.984 C 250.423 146.635,249.590 147.175,249.333 147.184 C 249.077 147.193,248.807 147.338,248.733 147.508 C 248.660 147.677,247.618 148.622,246.418 149.608 C 243.631 151.897,242.277 153.250,239.809 156.211 C 238.714 157.525,237.724 158.690,237.609 158.800 C 237.494 158.910,236.598 160.170,235.617 161.600 C 234.636 163.030,233.691 164.260,233.517 164.333 C 233.343 164.407,233.200 164.649,233.200 164.872 C 233.200 165.094,232.861 165.754,232.447 166.338 C 230.738 168.748,226.027 177.733,224.863 180.800 C 224.571 181.570,223.787 183.640,223.121 185.400 C 218.873 196.625,216.847 207.593,216.360 222.000 C 216.284 224.227,217.098 232.808,217.593 235.000 C 217.841 236.100,218.144 237.587,218.266 238.304 C 218.388 239.021,218.649 239.706,218.844 239.827 C 219.040 239.948,219.200 240.386,219.200 240.800 C 219.200 243.262,225.808 253.909,229.589 257.539 C 233.200 261.006,242.487 266.780,244.476 266.795 C 244.848 266.798,245.264 266.980,245.400 267.200 C 245.536 267.420,246.076 267.600,246.600 267.600 C 247.124 267.600,247.652 267.760,247.773 267.956 C 247.894 268.151,248.669 268.426,249.496 268.567 C 250.323 268.707,251.990 269.023,253.200 269.269 C 255.992 269.837,272.135 269.843,275.600 269.277 C 278.243 268.845,280.366 268.399,283.600 267.597 C 284.590 267.352,285.897 267.051,286.505 266.929 C 287.113 266.807,287.708 266.549,287.829 266.354 C 287.949 266.159,288.451 266.000,288.944 266.000 C 289.437 266.000,290.011 265.851,290.220 265.670 C 290.429 265.488,291.410 265.095,292.400 264.798 C 293.390 264.500,294.380 264.132,294.600 263.981 C 294.820 263.830,295.990 263.341,297.200 262.894 C 300.063 261.836,305.762 259.105,305.933 258.709 C 306.007 258.539,306.412 258.400,306.833 258.400 C 307.255 258.400,307.600 258.241,307.600 258.047 C 307.600 257.852,307.915 257.593,308.300 257.471 C 309.087 257.222,311.294 255.935,311.600 255.546 C 312.877 253.927,316.000 253.431,316.000 254.848 C 316.000 255.268,316.162 255.923,316.361 256.305 C 316.560 256.687,316.940 257.810,317.207 258.800 C 317.473 259.790,317.837 260.960,318.015 261.400 C 318.194 261.840,318.431 262.650,318.542 263.200 C 318.653 263.750,318.949 264.920,319.199 265.800 C 319.746 267.726,320.373 270.227,320.659 271.623 C 320.919 272.894,320.503 273.225,317.200 274.374 C 315.770 274.871,314.240 275.429,313.800 275.613 C 313.360 275.797,312.280 276.176,311.400 276.455 C 310.520 276.735,309.629 277.107,309.420 277.282 C 309.211 277.457,308.637 277.600,308.144 277.600 C 307.651 277.600,307.136 277.780,307.000 278.000 C 306.864 278.220,306.324 278.400,305.800 278.400 C 305.276 278.400,304.736 278.580,304.600 278.800 C 304.464 279.020,303.834 279.200,303.200 279.200 C 302.566 279.200,301.936 279.380,301.800 279.600 C 301.664 279.820,301.124 280.000,300.600 280.000 C 300.076 280.000,299.536 280.180,299.400 280.400 C 299.264 280.620,298.544 280.800,297.800 280.800 C 297.056 280.800,296.349 280.959,296.229 281.154 C 296.108 281.349,295.513 281.607,294.905 281.729 C 294.297 281.851,293.035 282.142,292.100 282.375 C 287.976 283.405,286.899 283.666,285.300 284.022 C 284.365 284.230,282.790 284.580,281.800 284.800 C 272.532 286.859,261.588 288.719,251.100 290.017 C 249.395 290.227,246.605 290.591,244.900 290.825 C 243.195 291.059,239.460 291.426,236.600 291.641 C 233.740 291.857,229.510 292.205,227.200 292.415 C 208.996 294.073,198.068 294.484,171.800 294.499 C 147.977 294.513,144.767 294.396,136.600 293.218 C 135.060 292.996,132.900 292.704,131.800 292.568 C 130.700 292.433,129.629 292.160,129.420 291.961 C 129.211 291.763,128.428 291.600,127.680 291.600 C 126.372 291.600,120.325 290.136,117.000 289.015 C 104.905 284.936,95.793 278.620,90.130 270.389 C 88.376 267.840,87.200 265.672,87.200 264.988 C 87.200 264.665,87.053 264.400,86.872 264.400 C 86.692 264.400,86.296 263.489,85.993 262.375 C 85.690 261.261,85.297 260.260,85.121 260.151 C 84.944 260.042,84.800 259.434,84.800 258.800 C 84.800 258.166,84.639 257.548,84.442 257.426 C 84.245 257.305,83.982 256.529,83.857 255.703 C 83.732 254.876,83.410 252.940,83.142 251.400 C 82.594 248.259,82.493 227.942,82.993 221.485 C 83.443 215.677,84.067 216.000,72.408 216.000 C 61.916 216.000,61.200 216.186,61.200 218.902 C 61.200 219.480,61.020 220.064,60.800 220.200 C 60.580 220.336,60.400 220.977,60.400 221.624 C 60.400 222.271,60.220 222.800,60.000 222.800 C 59.780 222.800,59.600 223.400,59.600 224.133 C 59.600 224.867,59.465 225.601,59.301 225.766 C 59.136 225.931,58.804 227.176,58.562 228.533 C 58.158 230.807,56.557 238.253,55.602 242.306 C 55.381 243.244,55.200 244.535,55.200 245.175 C 55.200 245.815,55.027 247.208,54.816 248.269 C 52.930 257.741,53.625 273.305,56.483 285.600 C 57.153 288.482,58.819 294.528,59.184 295.400 C 60.102 297.596,60.942 299.514,61.444 300.561 C 61.750 301.200,62.000 301.965,62.000 302.261 C 62.000 302.558,62.180 302.800,62.400 302.800 C 62.620 302.800,62.800 303.160,62.800 303.600 C 62.800 304.040,62.936 304.400,63.102 304.400 C 63.269 304.400,63.644 304.940,63.936 305.600 C 64.731 307.396,68.178 312.565,70.634 315.643 C 73.773 319.577,81.496 327.200,82.343 327.200 C 82.511 327.200,82.998 327.516,83.425 327.903 C 84.119 328.533,87.305 330.611,91.200 332.976 C 93.618 334.444,101.263 338.000,102.001 338.000 C 102.226 338.000,102.768 338.180,103.205 338.400 C 103.642 338.620,104.358 338.980,104.795 339.200 C 105.232 339.420,105.864 339.600,106.200 339.600 C 106.536 339.600,107.123 339.758,107.505 339.951 C 108.672 340.540,111.008 341.200,111.928 341.200 C 112.408 341.200,112.800 341.361,112.800 341.558 C 112.800 341.755,113.475 342.013,114.300 342.132 C 115.125 342.251,116.700 342.547,117.800 342.791 C 120.301 343.344,126.179 344.199,133.200 345.031 C 142.862 346.175,187.029 345.795,209.800 344.371 C 229.413 343.145,231.033 343.014,239.200 341.998 C 241.070 341.765,243.770 341.484,245.200 341.372 C 246.630 341.260,248.160 341.005,248.600 340.804 C 249.040 340.603,250.345 340.340,251.500 340.219 C 252.655 340.099,254.545 339.901,255.700 339.781 C 256.855 339.660,258.160 339.400,258.600 339.203 C 259.040 339.007,260.120 338.754,261.000 338.643 C 261.880 338.532,263.590 338.242,264.800 338.000 C 266.010 337.758,267.720 337.468,268.600 337.357 C 269.480 337.246,270.560 336.997,271.000 336.805 C 271.440 336.612,272.340 336.363,273.000 336.252 C 273.660 336.140,275.010 335.848,276.000 335.603 C 278.561 334.967,281.190 334.391,282.704 334.134 C 283.421 334.012,284.106 333.751,284.227 333.556 C 284.348 333.360,284.878 333.200,285.405 333.200 C 285.931 333.200,286.776 333.039,287.281 332.842 C 287.787 332.645,289.010 332.273,290.000 332.015 C 292.772 331.294,305.312 327.219,306.095 326.785 C 306.477 326.573,307.152 326.400,307.595 326.400 C 308.038 326.400,308.400 326.220,308.400 326.000 C 308.400 325.780,308.672 325.600,309.005 325.600 C 309.338 325.600,309.923 325.432,310.305 325.227 C 310.687 325.022,314.060 323.365,317.800 321.544 C 321.540 319.723,324.660 318.090,324.733 317.916 C 324.807 317.742,325.029 317.600,325.228 317.600 C 327.117 317.600,335.781 310.815,337.997 307.600 C 338.527 306.830,339.064 306.110,339.189 306.000 C 339.314 305.890,340.016 304.540,340.750 303.000 C 341.484 301.460,342.245 299.887,342.442 299.505 C 342.639 299.123,342.800 298.536,342.800 298.200 C 342.800 297.864,342.962 297.277,343.160 296.895 C 343.639 295.969,344.701 290.923,345.200 287.200 C 346.977 273.949,345.901 248.312,342.774 229.400 C 342.555 228.080,342.274 226.280,342.147 225.400 C 342.021 224.520,341.756 223.629,341.559 223.420 C 341.362 223.211,341.200 222.367,341.200 221.544 C 341.200 220.721,341.020 219.936,340.800 219.800 C 340.580 219.664,340.400 218.944,340.400 218.200 C 340.400 217.456,340.220 216.736,340.000 216.600 C 339.780 216.464,339.600 215.834,339.600 215.200 C 339.600 214.566,339.420 213.936,339.200 213.800 C 338.980 213.664,338.800 213.111,338.800 212.571 C 338.800 212.031,338.638 211.277,338.439 210.895 C 338.240 210.513,337.863 209.390,337.600 208.400 C 337.337 207.410,336.960 206.287,336.761 205.905 C 336.562 205.523,336.400 204.859,336.400 204.429 C 336.400 203.999,336.220 203.536,336.000 203.400 C 335.780 203.264,335.600 202.801,335.600 202.371 C 335.600 201.941,335.434 201.277,335.232 200.895 C 335.030 200.513,334.469 199.120,333.986 197.800 C 333.503 196.480,332.769 194.637,332.354 193.704 C 331.939 192.772,331.600 191.824,331.600 191.599 C 331.600 191.374,331.427 190.877,331.215 190.495 C 331.003 190.113,329.627 187.280,328.156 184.200 C 326.686 181.120,325.329 178.540,325.141 178.467 C 324.954 178.393,324.800 178.071,324.800 177.750 C 324.800 177.429,324.619 176.949,324.399 176.683 C 324.178 176.417,322.918 174.529,321.598 172.487 C 318.107 167.087,314.550 162.504,310.817 158.600 C 300.011 147.299,290.179 141.368,279.212 139.536 C 275.676 138.945,269.185 138.736,268.200 139.182 M280.400 144.634 C 285.594 145.983,293.101 149.328,295.083 151.176 C 295.569 151.629,296.120 152.000,296.308 152.000 C 296.496 152.000,296.998 152.315,297.425 152.700 C 297.852 153.085,298.831 153.870,299.600 154.445 C 303.187 157.122,313.681 168.296,314.360 170.161 C 314.448 170.402,314.640 170.690,314.786 170.800 C 315.286 171.175,317.600 174.743,317.600 175.139 C 317.600 175.356,317.738 175.593,317.906 175.667 C 318.869 176.086,326.800 191.493,326.800 192.945 C 326.800 193.305,326.980 193.600,327.200 193.600 C 327.420 193.600,327.600 193.872,327.600 194.205 C 327.600 194.538,327.759 195.123,327.953 195.505 C 328.148 195.887,328.529 196.740,328.800 197.400 C 329.071 198.060,329.452 198.913,329.647 199.295 C 329.841 199.677,330.000 200.264,330.000 200.600 C 330.000 200.936,330.174 201.523,330.386 201.905 C 330.790 202.632,332.728 208.506,333.585 211.600 C 333.859 212.590,334.245 213.813,334.442 214.319 C 334.639 214.824,334.800 215.669,334.800 216.195 C 334.800 216.722,334.960 217.252,335.156 217.373 C 335.351 217.494,335.612 218.179,335.734 218.896 C 335.856 219.613,336.154 221.100,336.396 222.200 C 338.483 231.676,339.464 238.310,340.359 249.000 C 340.598 251.860,340.891 254.771,341.009 255.468 C 341.423 257.905,341.264 282.176,340.815 285.200 C 339.510 293.974,337.842 299.305,335.057 303.600 C 333.633 305.797,328.977 310.400,328.179 310.400 C 327.861 310.400,327.600 310.559,327.600 310.753 C 327.600 310.948,327.285 311.207,326.900 311.329 C 326.199 311.551,323.976 312.817,323.600 313.208 C 323.490 313.323,322.140 314.042,320.600 314.806 C 319.060 315.571,317.740 316.332,317.667 316.498 C 317.593 316.664,317.322 316.800,317.065 316.800 C 316.807 316.800,314.797 317.696,312.598 318.792 C 310.399 319.887,308.409 320.787,308.175 320.792 C 307.941 320.796,307.041 321.137,306.175 321.549 C 304.460 322.365,297.283 324.834,294.400 325.600 C 293.410 325.863,292.287 326.240,291.905 326.439 C 291.523 326.638,290.769 326.800,290.229 326.800 C 289.689 326.800,289.136 326.980,289.000 327.200 C 288.864 327.420,288.234 327.600,287.600 327.600 C 286.966 327.600,286.336 327.780,286.200 328.000 C 286.064 328.220,285.434 328.400,284.800 328.400 C 284.166 328.400,283.536 328.580,283.400 328.800 C 283.264 329.020,282.544 329.200,281.800 329.200 C 281.056 329.200,280.336 329.380,280.200 329.600 C 280.064 329.820,279.254 330.000,278.400 330.000 C 277.546 330.000,276.736 330.180,276.600 330.400 C 276.464 330.620,275.744 330.800,275.000 330.800 C 274.256 330.800,273.548 330.961,273.426 331.158 C 273.305 331.355,272.529 331.615,271.703 331.737 C 270.876 331.859,269.210 332.158,268.000 332.400 C 266.790 332.642,265.080 332.932,264.200 333.043 C 263.320 333.154,262.240 333.402,261.800 333.593 C 261.360 333.785,260.100 334.058,259.000 334.199 C 257.900 334.341,255.920 334.630,254.600 334.840 C 242.295 336.806,229.620 338.202,213.400 339.378 C 198.341 340.470,153.715 341.389,143.313 340.821 C 133.506 340.286,125.182 339.375,121.200 338.402 C 120.430 338.214,118.720 337.847,117.400 337.587 C 116.080 337.327,114.550 336.975,114.000 336.804 C 113.450 336.633,112.190 336.274,111.200 336.007 C 110.210 335.740,109.087 335.360,108.705 335.161 C 108.323 334.962,107.684 334.800,107.285 334.800 C 106.886 334.800,106.389 334.657,106.180 334.482 C 105.971 334.307,105.080 333.934,104.200 333.654 C 101.668 332.849,95.475 329.969,95.267 329.500 C 95.193 329.335,94.788 329.200,94.367 329.200 C 93.945 329.200,93.600 329.041,93.600 328.847 C 93.600 328.652,93.285 328.393,92.900 328.271 C 91.991 327.983,90.047 326.788,89.042 325.900 C 88.606 325.515,88.028 325.200,87.758 325.200 C 87.488 325.200,87.207 325.055,87.133 324.877 C 87.060 324.699,86.190 324.000,85.200 323.323 C 82.052 321.172,73.200 312.046,73.200 310.952 C 73.200 310.685,73.051 310.407,72.870 310.333 C 71.804 309.903,67.249 301.938,64.623 295.914 C 62.815 291.766,60.415 282.504,60.138 278.604 C 60.028 277.062,59.784 275.440,59.596 275.000 C 59.307 274.326,58.708 264.431,58.760 261.200 C 58.919 251.249,60.644 239.950,63.889 227.600 C 64.439 225.510,64.978 223.311,65.087 222.713 C 65.422 220.891,65.897 220.770,72.254 220.889 L 78.200 221.000 78.064 223.000 C 77.733 227.887,77.931 248.820,78.332 251.200 C 78.572 252.630,78.877 254.520,79.009 255.400 C 79.141 256.280,79.395 257.360,79.572 257.800 C 79.750 258.240,80.300 259.860,80.794 261.400 C 82.311 266.125,85.553 272.333,88.200 275.581 C 90.838 278.819,98.506 285.600,99.529 285.600 C 99.705 285.600,100.198 285.915,100.625 286.300 C 101.051 286.685,101.940 287.270,102.600 287.599 C 103.260 287.929,103.890 288.289,104.000 288.399 C 104.460 288.861,107.720 290.400,108.238 290.400 C 108.547 290.400,108.800 290.580,108.800 290.800 C 108.800 291.020,109.160 291.200,109.600 291.200 C 110.040 291.200,110.400 291.380,110.400 291.600 C 110.400 291.820,110.814 292.000,111.320 292.000 C 111.826 292.000,112.411 292.149,112.620 292.330 C 113.015 292.674,113.882 292.951,119.661 294.577 C 126.515 296.507,133.571 297.814,142.600 298.827 C 159.834 300.761,207.976 299.609,235.400 296.607 C 236.500 296.487,239.200 296.205,241.400 295.982 C 245.776 295.537,249.159 295.114,255.651 294.199 C 257.990 293.870,260.724 293.600,261.728 293.600 C 262.732 293.600,263.664 293.420,263.800 293.200 C 263.936 292.980,264.991 292.800,266.144 292.800 C 267.297 292.800,268.411 292.637,268.620 292.439 C 268.976 292.101,269.944 291.932,274.700 291.379 C 275.745 291.258,276.960 291.000,277.400 290.806 C 277.840 290.613,278.740 290.360,279.400 290.245 C 280.553 290.044,282.219 289.689,286.300 288.774 C 287.345 288.540,288.876 288.251,289.703 288.132 C 290.529 288.013,291.305 287.755,291.426 287.558 C 291.548 287.361,292.256 287.200,293.000 287.200 C 293.744 287.200,294.464 287.020,294.600 286.800 C 294.736 286.580,295.366 286.400,296.000 286.400 C 296.634 286.400,297.264 286.220,297.400 286.000 C 297.536 285.780,298.166 285.600,298.800 285.600 C 299.434 285.600,300.064 285.420,300.200 285.200 C 300.336 284.980,300.889 284.800,301.429 284.800 C 301.969 284.800,302.723 284.638,303.105 284.441 C 303.487 284.244,305.150 283.682,306.800 283.193 C 308.450 282.705,310.160 282.164,310.600 281.991 C 311.040 281.819,312.390 281.320,313.600 280.882 C 314.810 280.444,317.480 279.436,319.533 278.643 C 321.586 277.849,323.530 277.200,323.851 277.200 C 325.466 277.200,327.288 273.396,326.042 272.626 C 325.845 272.505,325.590 271.729,325.475 270.903 C 325.262 269.378,324.821 267.496,323.999 264.600 C 323.749 263.720,323.453 262.550,323.342 262.000 C 323.231 261.450,322.994 260.640,322.815 260.200 C 322.637 259.760,322.273 258.590,322.007 257.600 C 321.740 256.610,321.360 255.487,321.161 255.105 C 320.962 254.723,320.800 254.059,320.800 253.629 C 320.800 253.199,320.620 252.736,320.400 252.600 C 320.180 252.464,320.000 251.924,320.000 251.400 C 320.000 250.876,319.820 250.336,319.600 250.200 C 319.380 250.064,319.200 249.591,319.200 249.148 C 319.200 246.489,316.625 246.484,312.699 249.133 C 311.014 250.270,309.463 251.200,309.251 251.200 C 309.040 251.200,308.807 251.342,308.733 251.515 C 308.437 252.215,297.451 257.943,295.200 258.571 C 294.650 258.725,293.840 258.995,293.400 259.172 C 291.589 259.899,290.160 260.514,289.505 260.847 C 289.123 261.041,288.536 261.200,288.200 261.200 C 287.864 261.200,287.277 261.358,286.895 261.551 C 285.767 262.120,283.404 262.800,282.552 262.800 C 282.116 262.800,281.589 262.962,281.380 263.159 C 281.171 263.356,280.190 263.631,279.200 263.769 C 278.210 263.907,276.230 264.218,274.800 264.460 C 269.663 265.330,251.984 264.945,251.369 263.950 C 251.250 263.757,250.634 263.600,250.000 263.600 C 249.366 263.600,248.736 263.420,248.600 263.200 C 248.464 262.980,247.924 262.800,247.400 262.800 C 246.876 262.800,246.336 262.620,246.200 262.400 C 246.064 262.180,245.603 262.000,245.176 262.000 C 244.749 262.000,244.400 261.820,244.400 261.600 C 244.400 261.380,244.040 261.200,243.600 261.200 C 243.160 261.200,242.800 261.020,242.800 260.800 C 242.800 260.580,242.440 260.400,242.000 260.400 C 241.560 260.400,241.200 260.264,241.200 260.098 C 241.200 259.931,240.677 259.564,240.037 259.280 C 237.234 258.040,231.862 253.275,229.123 249.600 C 227.125 246.919,224.000 240.810,224.000 239.586 C 224.000 239.180,223.841 238.749,223.646 238.629 C 223.451 238.508,223.175 237.823,223.031 237.105 C 222.887 236.387,222.567 234.900,222.320 233.800 C 221.744 231.236,221.750 211.596,222.328 207.800 C 222.563 206.260,222.954 204.010,223.198 202.800 C 223.441 201.590,223.741 199.924,223.863 199.097 C 223.985 198.271,224.245 197.495,224.442 197.374 C 224.639 197.252,224.800 196.634,224.800 196.000 C 224.800 195.366,224.980 194.736,225.200 194.600 C 225.420 194.464,225.600 193.823,225.600 193.176 C 225.600 192.529,225.780 192.000,226.000 192.000 C 226.220 192.000,226.400 191.460,226.400 190.800 C 226.400 190.140,226.580 189.600,226.800 189.600 C 227.020 189.600,227.200 189.199,227.200 188.710 C 227.200 186.894,234.263 171.259,235.261 170.867 C 235.447 170.793,235.600 170.560,235.600 170.349 C 235.600 169.982,239.287 164.323,240.176 163.324 C 240.409 163.063,241.320 161.983,242.200 160.924 C 253.796 146.978,267.282 141.227,280.400 144.634 M260.800 185.184 C 260.470 185.406,259.660 185.593,259.000 185.600 C 254.972 185.640,242.400 193.101,242.400 195.452 C 242.400 195.602,241.975 196.281,241.456 196.962 C 237.440 202.228,235.578 210.941,237.087 217.400 C 238.262 222.426,241.758 226.969,247.200 230.543 C 250.098 232.446,254.827 234.800,255.751 234.800 C 256.082 234.800,256.451 234.959,256.571 235.154 C 256.692 235.349,257.287 235.610,257.895 235.736 C 258.503 235.861,259.900 236.183,261.000 236.451 C 263.532 237.068,280.440 237.084,283.800 236.473 C 288.314 235.652,292.274 234.822,295.500 234.022 C 299.614 233.001,300.277 232.832,301.600 232.467 C 308.590 230.540,310.000 229.721,310.000 227.591 C 310.000 226.716,309.820 226.000,309.600 226.000 C 309.380 226.000,309.200 225.640,309.200 225.200 C 309.200 224.760,309.020 224.400,308.800 224.400 C 308.580 224.400,308.400 224.055,308.400 223.633 C 308.400 223.212,308.264 222.807,308.098 222.733 C 307.932 222.660,307.171 221.340,306.406 219.800 C 305.642 218.260,304.909 216.910,304.778 216.800 C 304.647 216.690,304.104 215.790,303.570 214.800 C 303.037 213.810,302.387 212.774,302.126 212.498 C 301.866 212.221,301.538 211.636,301.399 211.198 C 301.260 210.759,300.990 210.400,300.800 210.400 C 300.610 210.400,300.340 210.041,300.201 209.602 C 300.062 209.164,299.728 208.579,299.461 208.302 C 299.193 208.026,298.540 207.170,298.009 206.400 C 295.382 202.588,288.378 195.144,285.600 193.212 C 284.830 192.677,284.110 192.124,284.000 191.985 C 283.436 191.270,277.251 188.001,274.200 186.805 C 270.456 185.337,262.079 184.324,260.800 185.184 M270.600 190.862 C 277.572 192.731,287.335 199.767,291.603 206.000 C 292.131 206.770,292.841 207.673,293.181 208.006 C 293.521 208.339,293.980 208.900,294.200 209.252 C 294.420 209.605,295.545 211.259,296.700 212.929 C 297.855 214.598,298.800 216.152,298.800 216.382 C 298.800 216.612,298.935 216.801,299.100 216.803 C 299.265 216.805,299.604 217.210,299.853 217.703 C 300.102 218.196,301.136 220.220,302.152 222.200 C 303.167 224.180,303.998 225.981,303.999 226.202 C 304.000 226.795,299.688 228.400,298.095 228.400 C 297.629 228.400,297.136 228.580,297.000 228.800 C 296.864 229.020,296.144 229.200,295.400 229.200 C 294.656 229.200,293.936 229.380,293.800 229.600 C 293.664 229.820,292.879 230.000,292.056 230.000 C 291.233 230.000,290.389 230.163,290.180 230.361 C 289.971 230.560,288.990 230.825,288.000 230.950 C 287.010 231.075,284.940 231.385,283.400 231.639 C 279.910 232.215,264.499 232.269,261.800 231.715 C 259.182 231.178,255.436 229.917,255.267 229.516 C 255.193 229.342,254.876 229.200,254.561 229.200 C 254.032 229.200,252.464 228.465,252.000 227.999 C 251.890 227.889,251.266 227.529,250.614 227.199 C 246.936 225.342,242.538 219.760,241.789 216.000 C 241.267 213.381,241.699 206.592,242.437 205.820 C 242.637 205.611,242.800 205.026,242.800 204.520 C 242.800 204.014,242.980 203.600,243.200 203.600 C 243.420 203.600,243.600 203.320,243.600 202.978 C 243.600 201.373,250.324 193.629,251.738 193.606 C 251.924 193.603,252.554 193.261,253.138 192.847 C 256.619 190.380,265.171 189.408,270.600 190.862 " stroke="none" fill="#000000" fill-rule="evenodd"></path><path id="path3" d="" stroke="none" fill="#080404" fill-rule="evenodd"></path><path id="path4" d="" stroke="none" fill="#080404" fill-rule="evenodd"></path></g></svg>