<?xml version="1.0" encoding="UTF-8"?>
<svg version="1.1" xmlns="http://www.w3.org/2000/svg" width="512" height="512">
<path d="M0 0 C2.19827734 3.18990492 3.57205721 6.28919965 4.70703125 9.9765625 C5.03509766 11.00974609 5.36316406 12.04292969 5.70117188 13.10742188 C6.06791016 14.26822266 6.43464844 15.42902344 6.8125 16.625 C11.58205077 31.44822584 17.04502037 46.00908066 22.52603149 60.58023071 C55.81915842 149.09070504 55.81915842 149.09070504 37.8203125 196.75830078 C37.0759908 198.79233704 36.41909675 200.83311287 35.78125 202.90234375 C33.67868664 208.78547777 31.61744622 212.21634706 25.88867188 215.06958008 C22.3280104 216.60427352 18.690329 217.81875165 15 219 C13.86570557 219.38744385 13.86570557 219.38744385 12.70849609 219.78271484 C-25.22844815 232.71558269 -77.71532579 241.2286883 -115.4375 223.87890625 C-126.36515961 218.24894649 -132.64490306 210.84025384 -136.640625 199.12109375 C-139.57345192 181.81103919 -135.03638683 163.84596072 -125.26953125 149.44921875 C-122.03272271 145.31210585 -122.03272271 145.31210585 -120 144 C-115.50222085 144.15571539 -112.91944049 145.44433645 -109.4375 148.1875 C-83.9276904 166.71248078 -47.93769922 165.52845725 -18.21875 160.93359375 C-11.8088326 159.84034673 -5.49574514 158.40071575 0.796875 156.76953125 C4 156 4 156 7 156 C-1.33162998 139.75714338 -11.26704951 124.77552481 -21.49584961 109.69604492 C-34.86339557 89.97856054 -34.86339557 89.97856054 -38.8125 82.8125 C-39.17794922 82.15161377 -39.54339844 81.49072754 -39.91992188 80.80981445 C-47.29177886 67.26255418 -51.27294084 55.3392669 -47 40 C-40.45930407 23.12286002 -27.13985461 9.53751597 -10.76953125 1.96875 C-3.77965367 -0.86392084 -3.77965367 -0.86392084 0 0 Z M-24.24609375 22.15625 C-32.92224272 31.27683421 -38.95498187 40.67961924 -39.5625 53.4375 C-39.06848171 67.83217083 -29.36584594 81.30804285 -21.5 92.875 C-20.89687988 93.77210693 -20.29375977 94.66921387 -19.67236328 95.59350586 C-17.18315804 99.29569043 -14.68323068 102.99057348 -12.18261719 106.68505859 C-3.70442433 119.22600889 4.38282222 131.91662473 12 145 C12.36158203 145.61182129 12.72316406 146.22364258 13.09570312 146.85400391 C13.99269094 148.3746925 14.87228776 149.90560504 15.75 151.4375 C16.19859375 152.21996094 16.6471875 153.00242187 17.109375 153.80859375 C18.13969848 156.34373179 18.17216372 158.28842134 18 161 C-21.14209238 172.65609773 -69.26505447 180.96882331 -107.23046875 160.83203125 C-110.55217621 158.9873604 -113.79053023 157.03300818 -117 155 C-125.99641476 166.87526748 -129.17317875 180.24687547 -128 195 C-125.72072309 203.95177148 -121.27725188 209.70362382 -113.515625 214.5859375 C-82.24143018 232.16553148 -34.75365362 223.5510059 -2.01513672 214.86328125 C5.49562999 212.71283015 12.79335497 210.0066433 20 207 C20.75925781 206.7421875 21.51851562 206.484375 22.30078125 206.21875 C25.07007508 204.23249787 26.05001993 201.30649147 27.3125 198.25 C27.60664795 197.55841797 27.9007959 196.86683594 28.20385742 196.15429688 C36.240995 176.67600744 43.15526082 156.55319932 38.296875 135.5 C38.11891388 134.7183548 37.94095276 133.93670959 37.75759888 133.13137817 C35.90332486 125.22567406 33.49092495 117.55679285 30.875 109.875 C30.50183151 108.76446762 30.50183151 108.76446762 30.12112427 107.63150024 C24.67810115 91.45135718 18.65090242 75.48942825 12.60546875 59.52685547 C8.07368567 47.55917174 3.625359 35.57071411 -0.625 23.5 C-0.85728302 22.84035248 -1.08956604 22.18070496 -1.32888794 21.50106812 C-2.55901228 18.0029385 -3.7829222 14.50268917 -5 11 C-11.78188997 11 -19.29380805 17.66935982 -24.24609375 22.15625 Z " fill="#000000" transform="translate(300,140)"/>
</svg>
