<?xml version="1.0" encoding="UTF-8"?>
<svg version="1.1" xmlns="http://www.w3.org/2000/svg" width="512" height="512">
<path d="M0 0 C2.09289018 3.13933527 2.59188609 5.07852087 3.32519531 8.73608398 C3.68659607 10.51522438 3.68659607 10.51522438 4.05529785 12.33030701 C4.43784729 14.26862144 4.43784729 14.26862144 4.828125 16.24609375 C5.10025364 17.60235056 5.3728457 18.95851447 5.64587402 20.31459045 C6.37331853 23.93906355 7.09132073 27.56534392 7.80662537 31.19223022 C8.24899267 33.43239882 8.69377773 35.67207445 9.13928223 37.91162109 C12.55035202 55.07043995 15.91395677 72.23495229 18.75 89.5 C18.92456726 90.56152786 18.92456726 90.56152786 19.10266113 91.64450073 C24.29033165 123.47249054 19.73116006 154.29038288 2 182 C-1.0504592 185.14368207 -3.95264488 186.4463022 -8 188 C-9.79849435 188.93755591 -11.59648126 189.87620873 -13.38598633 190.83081055 C-76.98464036 224.2187378 -174.48583688 242.10770471 -244.59765625 221.4453125 C-251.66229175 219.21012089 -258.37803574 216.31007377 -265 213 C-266.06863281 212.46632813 -267.13726562 211.93265625 -268.23828125 211.3828125 C-276.27432855 207.02604496 -282.57999047 201.4108902 -289 195 C-290.11375 193.90365234 -290.11375 193.90365234 -291.25 192.78515625 C-310.66069874 172.42666948 -316.89118113 142.0763249 -316.24609375 114.7734375 C-315.67377977 101.07776462 -313.11926156 87.69407326 -310 74.375 C-309.7510498 73.3017749 -309.50209961 72.2285498 -309.24560547 71.12280273 C-308.99955566 70.12063721 -308.75350586 69.11847168 -308.5 68.0859375 C-308.2834375 67.1995459 -308.066875 66.3131543 -307.84375 65.39990234 C-306.88482965 62.67241768 -306.09908229 61.0071454 -304 59 C-301.21264648 58.51416016 -301.21264648 58.51416016 -297.87109375 58.5390625 C-296.67162109 58.54292969 -295.47214844 58.54679687 -294.23632812 58.55078125 C-292.98271484 58.57527344 -291.72910156 58.59976563 -290.4375 58.625 C-288.5512793 58.62693359 -288.5512793 58.62693359 -286.62695312 58.62890625 C-277.28059648 58.71940352 -277.28059648 58.71940352 -275 61 C-274.89648438 63.78710938 -274.89648438 63.78710938 -275.09375 67.34375 C-275.15602783 68.64465576 -275.21830566 69.94556152 -275.2824707 71.28588867 C-275.31861481 71.97443939 -275.35475891 72.66299011 -275.39199829 73.37240601 C-276.4935766 95.07309412 -276.4614813 116.21933911 -262.328125 134.1171875 C-251.4539416 146.0602009 -234.7109397 152.01924354 -219.3125 155.1875 C-218.5601709 155.34250977 -217.8078418 155.49751953 -217.03271484 155.65722656 C-201.54916323 158.60189206 -186.15696733 159.34506373 -170.4375 159.25 C-169.05978424 159.24534729 -169.05978424 159.24534729 -167.65423584 159.24060059 C-153.02751763 159.18287898 -138.53471549 158.75542347 -124 157 C-122.91750977 156.87109375 -121.83501953 156.7421875 -120.71972656 156.609375 C-85.46822157 152.27443331 -52.0365538 143.96410317 -19 131 C-20.25764045 126.9776171 -21.7382204 123.31246407 -23.6875 119.578125 C-24.21649902 118.56161865 -24.74549805 117.5451123 -25.29052734 116.49780273 C-25.85465332 115.42602783 -26.4187793 114.35425293 -27 113.25 C-27.58088379 112.13761963 -28.16176758 111.02523926 -28.76025391 109.87915039 C-32.19287079 103.335695 -35.72991488 96.86439832 -39.375 90.4375 C-47.18500691 76.59006988 -55.20348973 62.32593286 -52 46 C-46.13257303 26.15133276 -26.16463199 10.72462628 -8.7265625 1.21484375 C-5.55291554 -0.19920239 -3.43660761 -0.46862831 0 0 Z M-33.1328125 32.12890625 C-39.00992338 38.42581076 -43.83979896 46.18894259 -44 55 C-43.04197455 61.73209334 -40.65922426 67.55541816 -37.6875 73.625 C-37.25236084 74.52814941 -36.81722168 75.43129883 -36.36889648 76.36181641 C-33.02466438 83.18632512 -29.35409412 89.79093284 -25.5625 96.375 C-20.99508468 104.31169779 -16.69042604 112.32516609 -12.6875 120.5625 C-11.97605835 121.99891846 -11.97605835 121.99891846 -11.25024414 123.46435547 C-9.03077369 128.11653878 -7.34030221 131.71362175 -8 137 C-8.78745605 137.25197144 -8.78745605 137.25197144 -9.59082031 137.5090332 C-13.81350698 138.88541525 -17.97682267 140.35228062 -22.109375 141.98046875 C-84.00202577 166.31178615 -179.93346799 185.11836234 -244.2265625 157.3671875 C-259.88682341 149.64734057 -273.54975088 139.22857371 -279.85742188 122.42480469 C-283.95889302 110.13090784 -284.50787196 97.89879755 -284.6875 85.0625 C-284.7207786 83.39645942 -284.75527738 81.73044276 -284.79101562 80.06445312 C-284.87468681 76.04310429 -284.94204717 72.02179826 -285 68 C-289.29 68 -293.58 68 -298 68 C-300.84950669 74.81548677 -302.28289436 81.62597262 -303.625 88.875 C-303.8415625 89.99519531 -304.058125 91.11539063 -304.28125 92.26953125 C-309.80230717 121.47660531 -307.7103095 152.94778828 -290.83203125 178.25 C-274.12545248 201.25389503 -250.03512024 212.25500977 -222.578125 216.97265625 C-155.3417315 227.3385078 -73.92872891 211.89858792 -13.95239258 180.98974609 C-12.68975768 180.34966583 -11.40538962 179.75011233 -10.1003418 179.20166016 C-4.17282023 176.45801424 -2.38362465 171.81354297 0.0625 166 C0.48660156 165.02901367 0.91070312 164.05802734 1.34765625 163.05761719 C10.32936244 141.95197681 14.65625888 122.89513841 11.125 100.125 C11.02140167 99.44645966 10.91780334 98.76791931 10.81106567 98.06881714 C8.54736148 83.33528138 5.7545059 68.69853057 2.9375 54.0625 C2.6176413 52.39855194 2.6176413 52.39855194 2.2913208 50.70098877 C-0.27045166 37.41951639 -2.9744119 24.18389747 -6 11 C-14.49295488 11 -27.46013158 26.46661486 -33.1328125 32.12890625 Z " fill="#000000" transform="translate(403,87)"/>
<path d="M0 0 C2.06152344 1.88525391 2.06152344 1.88525391 4.109375 4.3515625 C8.77987563 9.7862917 13.7285674 14.88136435 18.80371094 19.93408203 C20.26616891 21.39110886 21.72310944 22.8535037 23.1796875 24.31640625 C24.12467904 25.26073796 25.06998021 26.20475995 26.015625 27.1484375 C26.85383789 27.98552246 27.69205078 28.82260742 28.55566406 29.68505859 C30.98632413 32.05253605 30.98632413 32.05253605 33.74511719 34.18994141 C36 36 36 36 37.0625 37.8125 C36.89624881 43.63129167 31.49358511 49.09681207 27.8125 53.3125 C27.33200195 53.8708252 26.85150391 54.42915039 26.35644531 55.00439453 C24.91201372 56.67651742 23.45821218 58.33988928 22 60 C21.18402344 60.92941406 20.36804688 61.85882813 19.52734375 62.81640625 C15.66567112 67.15499214 11.72533443 71.35982615 7.546875 75.39453125 C6.01392923 76.98554315 4.78652587 78.64555326 3.5 80.4375 C1 83 1 83 -2.1875 83.9375 C-7.24793164 82.69313156 -9.66749235 80.11259724 -13.359375 76.53125 C-15.80753862 74.18448961 -18.31952474 72.13452382 -21 70.0625 C-26.50586145 65.5959294 -31.57166402 60.71941167 -36.625 55.75 C-37.83542969 54.57836304 -37.83542969 54.57836304 -39.0703125 53.38305664 C-39.823125 52.6327417 -40.5759375 51.88242676 -41.3515625 51.109375 C-42.03041504 50.43874023 -42.70926758 49.76810547 -43.40869141 49.07714844 C-45.29078627 46.62043424 -45.88482977 45.09192471 -46 42 C-44.8828125 40.078125 -44.8828125 40.078125 -43.125 38.25 C-42.4753125 37.56292969 -41.825625 36.87585938 -41.15625 36.16796875 C-40.4446875 35.45253906 -39.733125 34.73710937 -39 34 C-38.2884375 33.27425781 -37.576875 32.54851562 -36.84375 31.80078125 C-33.81315792 28.74351142 -30.74143504 25.72899486 -27.671875 22.7109375 C-22.89138295 17.97922598 -18.35456638 13.12597129 -14 8 C-12.72916667 6.52083333 -11.45833333 5.04166667 -10.1875 3.5625 C-9.62417969 2.90378906 -9.06085938 2.24507813 -8.48046875 1.56640625 C-5.64609849 -1.4324921 -3.8056614 -1.20665591 0 0 Z M-5.8203125 12.6875 C-9.366997 16.24620716 -12.87915223 19.78746123 -16.125 23.625 C-21.98124094 30.47358726 -28.59273629 36.67305878 -35 43 C-30.6896776 48.20188208 -26.13542537 52.90490883 -21.1875 57.5 C-20.135625 58.48238647 -20.135625 58.48238647 -19.0625 59.48461914 C-14.25073744 63.94005778 -9.34316452 68.18557422 -4 72 C4.73753657 68.30104287 11.11866496 58.83921892 16.8828125 51.62890625 C19.81420296 47.98900629 22.89840422 44.49449456 26 41 C20.95241573 34.85397771 15.40441039 29.25128263 9.77563477 23.64526367 C8.17019485 22.04525338 6.57025692 20.4398769 4.97070312 18.83398438 C3.95344609 17.81738694 2.93587953 16.8010991 1.91796875 15.78515625 C0.53774536 14.40662476 0.53774536 14.40662476 -0.87036133 13.00024414 C-3.3774258 10.38258428 -3.3774258 10.38258428 -5.8203125 12.6875 Z " fill="#000000" transform="translate(248,342)"/>
</svg>
