<?xml version="1.0" encoding="UTF-8"?>
<!DOCTYPE svg PUBLIC "-//W3C//DTD SVG 1.1//EN" "http://www.w3.org/Graphics/SVG/1.1/DTD/svg11.dtd">
<svg xmlns="http://www.w3.org/2000/svg" version="1.1" width="512px" height="512px" style="shape-rendering:geometricPrecision; text-rendering:geometricPrecision; image-rendering:optimizeQuality; fill-rule:evenodd; clip-rule:evenodd" xmlns:xlink="http://www.w3.org/1999/xlink">
<g><path style="opacity:1" fill="#000000" d="M 196.5,5.5 C 198.527,5.33788 200.527,5.50454 202.5,6C 214.667,18.1667 226.833,30.3333 239,42.5C 239.667,44.5 239.667,46.5 239,48.5C 228.012,63.9852 215.179,77.6519 200.5,89.5C 199.062,89.2811 197.729,88.7811 196.5,88C 187.536,80.705 178.87,73.0383 170.5,65C 165.979,59.9797 161.645,54.813 157.5,49.5C 170.522,34.8135 183.522,20.1469 196.5,5.5 Z M 198.5,17.5 C 209.093,26.4241 219.093,36.0908 228.5,46.5C 219.557,57.613 210.057,68.2797 200,78.5C 188.998,69.663 178.831,59.9963 169.5,49.5C 179.189,38.8133 188.855,28.1467 198.5,17.5 Z"/></g>
<g><path style="opacity:1" fill="#000000" d="M 198.5,112.5 C 214.63,111.154 229.63,114.654 243.5,123C 260.744,133.246 275.078,146.579 286.5,163C 283.504,170.825 279.837,178.325 275.5,185.5C 274.264,186.357 272.931,187.023 271.5,187.5C 235.863,171.025 200.53,171.525 165.5,189C 165.043,202.627 169.21,214.794 178,225.5C 189.82,238.247 204.153,246.913 221,251.5C 251.859,233.905 284.193,219.572 318,208.5C 322.547,210.23 325.214,213.563 326,218.5C 334.225,248.877 324.058,270.377 295.5,283C 271.502,292.555 247.836,302.889 224.5,314C 209.301,321.86 195.801,332.027 184,344.5C 172.014,359.124 167.347,375.791 170,394.5C 172.053,403.777 176.553,411.61 183.5,418C 201.968,431.156 222.634,438.156 245.5,439C 269.994,440.476 294.328,439.143 318.5,435C 337.534,431.158 356.534,427.158 375.5,423C 378.167,422.333 380.833,422.333 383.5,423C 386.657,430.973 389.324,439.139 391.5,447.5C 391.124,449.383 390.124,450.883 388.5,452C 360.819,469.342 331.819,484.342 301.5,497C 261.251,510.566 222.585,506.899 185.5,486C 154.692,465.579 137.859,436.746 135,399.5C 132.156,360.038 143.322,325.204 168.5,295C 122.052,267.991 108.885,229.491 129,179.5C 138.671,155.301 154.171,135.801 175.5,121C 182.887,117.042 190.554,114.208 198.5,112.5 Z M 198.5,121.5 C 212.882,120.262 226.216,123.429 238.5,131C 252.695,140.192 265.362,151.192 276.5,164C 274.127,168.581 271.627,173.081 269,177.5C 241.686,166.574 213.686,164.574 185,171.5C 175.546,174.643 166.38,178.477 157.5,183C 155.406,184.255 154.406,186.088 154.5,188.5C 157.602,221.095 174.268,243.595 204.5,256C 210.158,258.373 215.991,260.206 222,261.5C 251.862,244.653 283.029,230.653 315.5,219.5C 324.676,246.453 316.009,265.287 289.5,276C 264.752,285.695 240.419,296.361 216.5,308C 198.593,317.572 183.426,330.405 171,346.5C 157.145,368.714 156.145,391.381 168,414.5C 179.447,429.148 194.28,438.648 212.5,443C 229.907,447.286 247.574,449.119 265.5,448.5C 276.859,448.507 288.192,448.007 299.5,447C 324.887,443.323 350.054,438.489 375,432.5C 375.833,432.833 376.667,433.167 377.5,433.5C 378.76,437.381 380.093,441.214 381.5,445C 355.334,461.418 328.001,475.751 299.5,488C 263.07,501.201 227.737,498.534 193.5,480C 160.273,458.395 143.606,427.561 143.5,387.5C 144.037,352.368 156.203,322.035 180,296.5C 180.758,294.231 180.591,292.064 179.5,290C 130.505,265.161 117.338,227.661 140,177.5C 148.112,159.448 159.946,144.282 175.5,132C 182.76,127.366 190.427,123.866 198.5,121.5 Z"/></g>
</svg>
