<?xml version="1.0" encoding="UTF-8"?>
<svg version="1.1" xmlns="http://www.w3.org/2000/svg" width="512" height="512">
<path d="M0 0 C2.60510788 6.36305628 4.12802537 12.63429933 5.453125 19.37109375 C5.67435028 20.47053818 5.89557556 21.5699826 6.12350464 22.70274353 C6.84011284 26.27949632 7.54576925 29.85829115 8.25 33.4375 C8.49200134 34.656651 8.73400269 35.875802 8.9833374 37.13189697 C12.23295353 53.51151926 15.32778885 69.91187032 18.125 86.375 C18.26893188 87.2204538 18.41286377 88.06590759 18.56115723 88.9369812 C23.70693415 119.33375653 20.36009412 142.80016799 7.9375 170.875 C7.5262085 171.82068848 7.11491699 172.76637695 6.69116211 173.74072266 C-0.41136522 189.31453035 -21.76848476 196.11956048 -37 201.8125 C-40.98351342 203.25938607 -44.98348374 204.64760845 -49 206 C-49.9271582 206.31275879 -50.85431641 206.62551758 -51.80957031 206.94775391 C-77.87009772 215.59004059 -104.84645123 221.14881749 -132 225 C-133.13646973 225.16516113 -134.27293945 225.33032227 -135.44384766 225.50048828 C-152.63440642 227.89611738 -169.73065664 228.30497466 -187.0625 228.375 C-188.09436432 228.38294586 -189.12622864 228.39089172 -190.18936157 228.39907837 C-207.90855071 228.50402584 -225.68542442 227.48874252 -242.75 222.3125 C-243.60577637 222.05903809 -244.46155273 221.80557617 -245.34326172 221.54443359 C-258.44711583 217.4939747 -270.38067669 211.76010425 -281 203 C-281.83789062 202.33613281 -282.67578125 201.67226563 -283.5390625 200.98828125 C-301.69697128 185.78173535 -311.94729442 162.14376789 -315 139 C-315.11085938 138.18015625 -315.22171875 137.3603125 -315.3359375 136.515625 C-317.70231819 115.41006745 -314.7963239 94.9443437 -310.0625 74.375 C-309.82192871 73.3017749 -309.58135742 72.2285498 -309.33349609 71.12280273 C-309.09066895 70.12063721 -308.8478418 69.11847168 -308.59765625 68.0859375 C-308.38633057 67.1995459 -308.17500488 66.3131543 -307.95727539 65.39990234 C-306.76579672 62.4128492 -305.56422005 60.94394253 -303 59 C-300.29858398 58.49829102 -300.29858398 58.49829102 -297.24609375 58.50390625 C-295.59383789 58.50293945 -295.59383789 58.50293945 -293.90820312 58.50195312 C-292.76287109 58.52193359 -291.61753906 58.54191406 -290.4375 58.5625 C-289.28830078 58.55541016 -288.13910156 58.54832031 -286.95507812 58.54101562 C-278.65273519 58.60424378 -278.65273519 58.60424378 -276.14892578 60.12231445 C-274.41427152 62.95725409 -274.79914936 65.18693704 -274.99609375 68.4765625 C-275.06159424 69.77932129 -275.12709473 71.08208008 -275.19458008 72.42431641 C-275.23483307 73.1108429 -275.27508606 73.79736938 -275.31655884 74.50469971 C-276.55335285 96.18776158 -276.55453505 118.73972571 -261.26171875 135.95703125 C-250.1776931 146.47142818 -235.5132474 151.92496289 -220.875 155.125 C-219.79375854 155.36331543 -219.79375854 155.36331543 -218.69067383 155.60644531 C-202.47722835 158.93281897 -186.37269935 159.37048949 -169.875 159.3125 C-168.22043289 159.30926727 -168.22043289 159.30926727 -166.53244019 159.30596924 C-148.51311222 159.24961761 -130.8582367 158.57931708 -113 156 C-112.32014038 155.90289734 -111.64028076 155.80579468 -110.93981934 155.70574951 C-81.50619046 151.47228335 -51.43936203 145.47345529 -24.15234375 133.30078125 C-21 132 -21 132 -18 132 C-22.35630564 123.17504846 -26.80323023 114.40296517 -31.375 105.6875 C-32.06903931 104.36262573 -32.06903931 104.36262573 -32.77709961 103.01098633 C-35.07877922 98.62636038 -37.39796581 94.25236537 -39.75 89.89453125 C-55.68889964 60.27408485 -55.68889964 60.27408485 -51.9375 45.875 C-45.39679535 27.61916657 -29.17920267 13.8248905 -13.125 3.875 C-12.50657227 3.48417236 -11.88814453 3.09334473 -11.25097656 2.69067383 C-7.34111964 0.36622266 -4.53288217 -0.42972277 0 0 Z M-29.48828125 28.3828125 C-36.54130734 35.73199987 -43.46656139 44.50904072 -44 55 C-43.09852565 62.51005567 -39.93736996 68.97517842 -36.625 75.6875 C-36.09551758 76.77603271 -35.56603516 77.86456543 -35.02050781 78.98608398 C-30.98137422 87.20809471 -26.68298588 95.27010471 -22.24316406 103.28149414 C-17.92378134 111.07575568 -13.91208422 118.99527383 -10 127 C-9.60039062 127.69867188 -9.20078125 128.39734375 -8.7890625 129.1171875 C-7.79487419 131.4894586 -7.94721531 133.45013384 -8 136 C-65.91701856 166.74887835 -153.004769 177.76448087 -217 165 C-217.91265625 164.82307617 -218.8253125 164.64615234 -219.765625 164.46386719 C-235.29778528 161.3585078 -249.39031211 156.96891555 -262 147 C-263.06154297 146.20142578 -263.06154297 146.20142578 -264.14453125 145.38671875 C-276.2767669 135.6670118 -282.20091038 120.08740426 -284 105 C-284.42935429 98.61352984 -284.50736722 92.2106205 -284.625 85.8125 C-284.66326446 84.08006031 -284.70232081 82.34763793 -284.7421875 80.61523438 C-284.8372517 76.41029995 -284.92161111 72.20527698 -285 68 C-289.29 68 -293.58 68 -298 68 C-300.52368073 75.03974099 -302.19013482 82.04124463 -303.625 89.375 C-303.8415625 90.43460937 -304.058125 91.49421875 -304.28125 92.5859375 C-310.14320843 122.11283923 -307.25038986 153.59632614 -290.35742188 179.13427734 C-289.25156898 180.76527373 -288.126497 182.38319316 -287 184 C-286.29617188 185.01707031 -286.29617188 185.01707031 -285.578125 186.0546875 C-273.79546558 201.2557728 -253.29243936 210.77110273 -235 215 C-233.95344238 215.26852783 -233.95344238 215.26852783 -232.88574219 215.54248047 C-201.08224771 223.43672868 -164.16371569 220.47792917 -132 216 C-130.80487793 215.83902832 -129.60975586 215.67805664 -128.37841797 215.51220703 C-90.88195255 210.3097786 -53.88408197 200.33809068 -19.60009766 184.20751953 C-17.43065143 183.20000018 -15.25072747 182.2584175 -13.04296875 181.33984375 C-3.33391188 176.76009994 -0.48285295 168.57342575 3 159 C3.35610352 158.02562988 3.71220703 157.05125977 4.07910156 156.04736328 C11.09159104 136.53448245 14.40423605 120.98325355 11.0625 100.375 C10.95695801 99.71236145 10.85141602 99.0497229 10.74267578 98.36700439 C8.55537952 84.66307943 6.04203483 71.01681481 3.5 57.375 C3.31494904 56.37668152 3.12989807 55.37836304 2.9392395 54.34979248 C0.29829459 40.15024441 -2.69464006 26.05975193 -6 12 C-13.29067882 12 -24.48853962 23.69692326 -29.48828125 28.3828125 Z " fill="#000000" transform="translate(403,153)"/>
<path d="M0 0 C3.85968508 0.49459185 4.93507078 1.51802781 7.58740234 4.31079102 C8.38919922 5.13643555 9.19099609 5.96208008 10.01708984 6.81274414 C10.83693359 7.68737305 11.65677734 8.56200195 12.50146484 9.46313477 C14.13184757 11.16468499 15.76463275 12.86393675 17.39990234 14.56079102 C18.19050049 15.38417969 18.98109863 16.20756836 19.7956543 17.0559082 C22.53427356 19.81087829 25.39834382 22.36177869 28.36694336 24.86474609 C34.40967723 30.13945662 34.40967723 30.13945662 36.12646484 33.40063477 C36.03622092 38.23278678 33.18175366 41.38039689 30.25146484 44.96313477 C29.7604126 45.57447266 29.26936035 46.18581055 28.76342773 46.81567383 C23.80395582 52.92231516 18.54570677 58.69987378 13.12646484 64.40063477 C12.21291681 65.40121831 11.30015212 66.40251764 10.38818359 67.40454102 C9.51806641 68.33137695 8.64794922 69.25821289 7.75146484 70.21313477 C6.98060547 71.04458008 6.20974609 71.87602539 5.41552734 72.73266602 C3.12646484 74.40063477 3.12646484 74.40063477 0.64599609 74.40063477 C-2.36938349 73.20383295 -4.34313965 71.6985847 -6.81103516 69.58813477 C-8.23609375 68.37963867 -8.23609375 68.37963867 -9.68994141 67.14672852 C-10.45395264 66.48713135 -10.45395264 66.48713135 -11.23339844 65.81420898 C-12.98821634 64.30179522 -14.75602397 62.80557267 -16.52587891 61.31079102 C-17.76729067 60.25802595 -19.00818276 59.20464775 -20.24853516 58.15063477 C-20.83111084 57.65587646 -21.41368652 57.16111816 -22.01391602 56.65136719 C-25.45535406 53.70050131 -28.70946966 50.64765329 -31.87353516 47.40063477 C-35.89364564 51.82703301 -39.80653981 56.2713947 -43.43603516 61.02563477 C-47.21665396 65.78529828 -51.32455875 70.17405062 -55.56103516 74.52563477 C-56.20306885 75.20190918 -56.84510254 75.87818359 -57.5065918 76.57495117 C-58.12655029 77.20062988 -58.74650879 77.82630859 -59.38525391 78.47094727 C-60.21222778 79.31810303 -60.21222778 79.31810303 -61.0559082 80.18237305 C-63.4767148 81.80491501 -65.01389911 81.73613717 -67.87353516 81.40063477 C-70.41650391 79.74829102 -70.41650391 79.74829102 -73.06103516 77.46313477 C-74.02912109 76.63168945 -74.99720703 75.80024414 -75.99462891 74.94360352 C-76.94466797 74.10442383 -77.89470703 73.26524414 -78.87353516 72.40063477 C-80.0665625 71.37389648 -80.0665625 71.37389648 -81.28369141 70.32641602 C-83.86280428 68.06592477 -86.37381516 65.74885658 -88.87353516 63.40063477 C-89.49969727 62.81378906 -90.12585938 62.22694336 -90.77099609 61.62231445 C-92.86258317 59.64753157 -94.93254277 57.65215578 -96.99853516 55.65063477 C-97.6749707 55.0123877 -98.35140625 54.37414062 -99.04833984 53.71655273 C-99.67385742 53.10183105 -100.299375 52.48710937 -100.94384766 51.85375977 C-101.50861816 51.30880859 -102.07338867 50.76385742 -102.65527344 50.20239258 C-104.31066326 47.7541407 -104.18160352 46.31732336 -103.87353516 43.40063477 C-102.54048157 41.43266296 -102.54048157 41.43266296 -100.64819336 39.52832031 C-99.59128044 38.44776619 -99.59128044 38.44776619 -98.51301575 37.34538269 C-97.74124496 36.58373306 -96.96947418 35.82208344 -96.17431641 35.03735352 C-95.38711716 34.24537064 -94.59991791 33.45338776 -93.78886414 32.6374054 C-92.1211674 30.96630619 -90.44713974 29.30150476 -88.76733398 27.64257812 C-86.19579996 25.09779798 -83.65198867 22.52748952 -81.10986328 19.95336914 C-79.48711509 18.33392498 -77.86281656 16.71603252 -76.23681641 15.09985352 C-75.47516678 14.32808273 -74.71351715 13.55631195 -73.92878723 12.76115417 C-73.20841782 12.05654556 -72.4880484 11.35193695 -71.74584961 10.62597656 C-71.11741653 10.00152145 -70.48898346 9.37706635 -69.84150696 8.73368835 C-67.33809667 7.03794248 -65.84021752 7.0394378 -62.87353516 7.40063477 C-60.99584961 8.80249023 -60.99584961 8.80249023 -59.23681641 10.76782227 C-58.58132812 11.48462158 -57.92583984 12.2014209 -57.25048828 12.93994141 C-56.56921875 13.71072021 -55.88794922 14.48149902 -55.18603516 15.27563477 C-53.76667711 16.83533493 -52.3461054 18.39393153 -50.92431641 19.95141602 C-50.23547363 20.71276855 -49.54663086 21.47412109 -48.83691406 22.25854492 C-44.99472535 26.45045785 -40.93746932 30.42462225 -36.87353516 34.40063477 C-33.53775002 32.94907582 -31.34854912 31.12137539 -28.79150391 28.54907227 C-28.02386719 27.77950195 -27.25623047 27.00993164 -26.46533203 26.21704102 C-25.67191406 25.41137695 -24.87849609 24.60571289 -24.06103516 23.77563477 C-23.27921875 22.99317383 -22.49740234 22.21071289 -21.69189453 21.40454102 C-13.68712792 13.37378312 -13.68712792 13.37378312 -6.55175781 4.57983398 C-4.48827479 1.78710745 -3.52229244 0.49108597 0 0 Z M0.12646484 11.40063477 C-1.63159769 13.25414378 -3.35153449 15.12802407 -5.06103516 17.02563477 C-11.76452333 24.38893947 -18.78680017 31.4082498 -25.87353516 38.40063477 C-24.58411724 41.26104993 -23.27006171 43.22912253 -20.96728516 45.35375977 C-20.39252441 45.88718994 -19.81776367 46.42062012 -19.22558594 46.97021484 C-18.61440918 47.52475342 -18.00323242 48.07929199 -17.37353516 48.65063477 C-16.75075684 49.22257568 -16.12797852 49.7945166 -15.48632812 50.38378906 C-10.46063916 54.95981112 -5.27940807 59.27772248 0.12646484 63.40063477 C10.4310071 59.30278192 18.65663657 45.10192225 25.12646484 36.40063477 C20.31471611 30.60943475 15.14905003 25.27254993 9.81396484 19.96313477 C8.99089844 19.13620117 8.16783203 18.30926758 7.31982422 17.45727539 C6.53800781 16.67674805 5.75619141 15.8962207 4.95068359 15.09204102 C4.24000732 14.38249268 3.52933105 13.67294434 2.79711914 12.94189453 C1.38280009 11.28762303 1.38280009 11.28762303 0.12646484 11.40063477 Z M-69.48730469 21.78735352 C-70.58212925 22.88249589 -71.67143798 23.98316932 -72.75634766 25.08813477 C-73.33061493 25.66523193 -73.9048822 26.2423291 -74.49655151 26.83691406 C-76.33527626 28.68686179 -78.1669382 30.54363225 -79.99853516 32.40063477 C-81.24156675 33.65369342 -82.48505061 34.9063036 -83.72900391 36.15844727 C-86.78245927 39.23399108 -89.82959661 42.31567279 -92.87353516 45.40063477 C-84.71733007 55.09098319 -75.98634395 63.74473397 -65.87353516 71.40063477 C-61.00325504 67.44567817 -56.77607964 63.26764649 -52.74853516 58.46313477 C-52.24966797 57.88112305 -51.75080078 57.29911133 -51.23681641 56.69946289 C-47.88374814 52.74669442 -44.83819295 48.65214952 -41.87353516 44.40063477 C-43.43448584 40.66256865 -45.74782662 38.26820936 -48.59228516 35.41625977 C-49.52427734 34.48168945 -50.45626953 33.54711914 -51.41650391 32.58422852 C-51.9016748 32.10324707 -52.3868457 31.62226563 -52.88671875 31.12670898 C-54.37559854 29.64858629 -55.85345166 28.16003565 -57.33056641 26.67016602 C-58.26255859 25.74075195 -59.19455078 24.81133789 -60.15478516 23.85375977 C-61.4396582 22.57227051 -61.4396582 22.57227051 -62.75048828 21.26489258 C-65.95584364 18.45025441 -66.31952858 18.89475318 -69.48730469 21.78735352 Z " fill="#000000" transform="translate(268.87353515625,130.599365234375)"/>
</svg>
