<?xml version="1.0" encoding="UTF-8"?>
<svg version="1.1" xmlns="http://www.w3.org/2000/svg" width="512" height="512">
<path d="M0 0 C2.09289018 3.13933527 2.59188609 5.07852087 3.32519531 8.73608398 C3.68659607 10.51522438 3.68659607 10.51522438 4.05529785 12.33030701 C4.43784729 14.26862144 4.43784729 14.26862144 4.828125 16.24609375 C5.10025364 17.60235056 5.3728457 18.95851447 5.64587402 20.31459045 C6.37331853 23.93906355 7.09132073 27.56534392 7.80662537 31.19223022 C8.24899267 33.43239882 8.69377773 35.67207445 9.13928223 37.91162109 C12.55035202 55.07043995 15.91395677 72.23495229 18.75 89.5 C18.92456726 90.56152786 18.92456726 90.56152786 19.10266113 91.64450073 C23.2336281 116.98928199 21.00777394 137.01585214 12 161 C11.65614258 161.93875977 11.31228516 162.87751953 10.95800781 163.84472656 C6.92517257 174.53668484 3.21556914 183.1427858 -7.44921875 188.24169922 C-8.88770312 188.87202049 -10.3345139 189.48364125 -11.78857422 190.07714844 C-14.01855797 191.00774444 -16.15832993 192.04673766 -18.31640625 193.1328125 C-69.28699902 218.24955398 -131.14537292 228.20546759 -187.5 228.25 C-188.67005081 228.25101212 -188.67005081 228.25101212 -189.86373901 228.25204468 C-216.11459159 228.21626554 -241.31543058 224.8390358 -265 213 C-266.06863281 212.46632813 -267.13726562 211.93265625 -268.23828125 211.3828125 C-276.27432855 207.02604496 -282.57999047 201.4108902 -289 195 C-290.11375 193.90365234 -290.11375 193.90365234 -291.25 192.78515625 C-310.66069874 172.42666948 -316.89118113 142.0763249 -316.24609375 114.7734375 C-315.67377977 101.07776462 -313.11926156 87.69407326 -310 74.375 C-309.7510498 73.3017749 -309.50209961 72.2285498 -309.24560547 71.12280273 C-308.99955566 70.12063721 -308.75350586 69.11847168 -308.5 68.0859375 C-308.2834375 67.1995459 -308.066875 66.3131543 -307.84375 65.39990234 C-306.88482965 62.67241768 -306.09908229 61.0071454 -304 59 C-301.21264648 58.51416016 -301.21264648 58.51416016 -297.87109375 58.5390625 C-296.67162109 58.54292969 -295.47214844 58.54679687 -294.23632812 58.55078125 C-292.98271484 58.57527344 -291.72910156 58.59976563 -290.4375 58.625 C-288.5512793 58.62693359 -288.5512793 58.62693359 -286.62695312 58.62890625 C-277.28059648 58.71940352 -277.28059648 58.71940352 -275 61 C-274.89648438 63.80297852 -274.89648438 63.80297852 -275.09375 67.37890625 C-275.15602783 68.6848877 -275.21830566 69.99086914 -275.2824707 71.33642578 C-275.31861481 72.02706116 -275.35475891 72.71769653 -275.39199829 73.42926025 C-276.4726975 94.77513093 -276.3644353 116.25161399 -262.515625 133.890625 C-244.47657277 153.715722 -213.26751937 157.51086888 -188.00244141 158.87548828 C-132.12453652 161.19275381 -76.33496434 152.66807881 -24.09277344 132.73681641 C-22.07847208 132.02762818 -20.07930226 131.48133085 -18 131 C-26.19535112 114.29269347 -26.19535112 114.29269347 -35.0625 97.9375 C-38.9596785 91.05671784 -42.54703097 84.05155755 -46 76.9375 C-46.46929932 75.98544678 -46.93859863 75.03339355 -47.42211914 74.05249023 C-52.42139902 63.60446404 -54.77179908 53.99241547 -51.10546875 42.68359375 C-47.7257184 34.47904077 -42.48582189 27.93617597 -36 22 C-35.195625 21.175 -34.39125 20.35 -33.5625 19.5 C-10.05065757 -3.43838285 -10.05065757 -3.43838285 0 0 Z M-33.1328125 32.12890625 C-39.00992338 38.42581076 -43.83979896 46.18894259 -44 55 C-43.04197455 61.73209334 -40.65922426 67.55541816 -37.6875 73.625 C-37.25236084 74.52814941 -36.81722168 75.43129883 -36.36889648 76.36181641 C-33.02466438 83.18632512 -29.35409412 89.79093284 -25.5625 96.375 C-20.99508468 104.31169779 -16.69042604 112.32516609 -12.6875 120.5625 C-11.97605835 121.99891846 -11.97605835 121.99891846 -11.25024414 123.46435547 C-9.03077369 128.11653878 -7.34030221 131.71362175 -8 137 C-8.78745605 137.25197144 -8.78745605 137.25197144 -9.59082031 137.5090332 C-13.81350698 138.88541525 -17.97682267 140.35228062 -22.109375 141.98046875 C-84.50370459 166.50900677 -177.01947546 183.80215108 -242.1875 158.25 C-258.56992441 151.01211532 -272.60544894 140.51634737 -279.40625 123.4765625 C-285.80030749 105.56361387 -285.28806535 86.77225843 -285 68 C-289.29 68 -293.58 68 -298 68 C-300.84950669 74.81548677 -302.28289436 81.62597262 -303.625 88.875 C-303.8415625 89.99519531 -304.058125 91.11539063 -304.28125 92.26953125 C-309.74479873 121.17237857 -307.82473997 153.09153447 -291.06640625 178.2109375 C-273.34223311 202.13354548 -248.72816239 212.5434951 -220.1953125 217.421875 C-209.62327017 218.95974206 -199.10045659 219.20303151 -188.4375 219.1875 C-187.66855408 219.18689575 -186.89960815 219.1862915 -186.10736084 219.18566895 C-127.91963414 219.06236119 -66.27181194 207.85040966 -14.17211914 181.09960938 C-12.81240222 180.41126892 -11.43259577 179.75990922 -10.02905273 179.16601562 C-4.06584327 176.40597046 -2.34972457 171.73297489 0.0625 166 C0.48660156 165.02901367 0.91070312 164.05802734 1.34765625 163.05761719 C10.32936244 141.95197681 14.65625888 122.89513841 11.125 100.125 C11.02140167 99.44645966 10.91780334 98.76791931 10.81106567 98.06881714 C8.54736148 83.33528138 5.7545059 68.69853057 2.9375 54.0625 C2.6176413 52.39855194 2.6176413 52.39855194 2.2913208 50.70098877 C-0.27045166 37.41951639 -2.9744119 24.18389747 -6 11 C-14.49295488 11 -27.46013158 26.46661486 -33.1328125 32.12890625 Z " fill="#000000" transform="translate(403,169)"/>
<path d="M0 0 C1.81708196 1.70090025 3.32050338 3.55298646 4.890625 5.484375 C7.41421246 8.49398671 10.10386488 11.28181523 12.875 14.0625 C13.38933594 14.57989746 13.90367187 15.09729492 14.43359375 15.63037109 C18.11892566 19.27509009 21.9778575 22.46281422 26.2578125 25.40234375 C28.39958765 27.366438 28.93489612 29.33501204 30 32 C30.928125 32.144375 31.85625 32.28875 32.8125 32.4375 C36.56565715 33.09982185 37.39216728 34.30845947 39.6081543 37.27685547 C41.13752557 39.17026056 42.78291705 40.62870306 44.64453125 42.1953125 C49.07843718 46.0144077 53.20159125 50.08862684 57.3125 54.25 C58.01439453 54.95640625 58.71628906 55.6628125 59.43945312 56.390625 C60.73335821 57.69316435 62.02622315 58.99673852 63.31762695 60.30175781 C64.42590381 61.4204886 65.56214351 62.51229005 66.72607422 63.57299805 C68 65 68 65 67.89453125 67.37890625 C63.14633545 81.29174196 46.86409728 96.40307016 36 106 C33 107 33 107 29.71484375 105.42578125 C25.90992645 103.09727975 22.76250126 100.27464016 19.5625 97.1875 C18.42647651 96.1151484 17.28976013 95.04353034 16.15234375 93.97265625 C15.61077637 93.45977051 15.06920898 92.94688477 14.51123047 92.41845703 C11.42247481 89.51931803 8.21429241 86.75811554 5 84 C4.32710938 83.42121094 3.65421875 82.84242188 2.9609375 82.24609375 C1.30946393 80.82819513 -0.34493329 79.41370281 -2 78 C-2.99966797 79.28970703 -2.99966797 79.28970703 -4.01953125 80.60546875 C-28.78835708 112.42841989 -28.78835708 112.42841989 -35.734375 113.37109375 C-40.01291445 112.88489609 -42.20035923 110.8760933 -45.25 108.0625 C-45.81501221 107.56177979 -46.38002441 107.06105957 -46.9621582 106.54516602 C-48.1109229 105.52387965 -49.25398558 104.49614167 -50.39111328 103.46191406 C-51.81849844 102.1649213 -53.26534045 100.88941342 -54.71484375 99.6171875 C-69.76867816 86.34698276 -69.76867816 86.34698276 -74 80 C-74.1643559 75.54693156 -72.6298396 73.2747901 -69.75292969 70.10595703 C-68.32294991 68.64305216 -66.87827357 67.19441823 -65.421875 65.7578125 C-64.65828674 64.98944061 -63.89469849 64.22106873 -63.10797119 63.42941284 C-61.49332656 61.81137082 -59.87237067 60.19960562 -58.24560547 58.59375 C-55.75533725 56.13027981 -53.29288602 53.64125142 -50.83203125 51.1484375 C-49.2594135 49.57912315 -47.68524578 48.01136019 -46.109375 46.4453125 C-45.37273621 45.69855255 -44.63609741 44.9517926 -43.87713623 44.18240356 C-43.18001526 43.5010434 -42.48289429 42.81968323 -41.76464844 42.11767578 C-40.85317047 41.21216476 -40.85317047 41.21216476 -39.92327881 40.2883606 C-37.42455908 38.61452525 -35.9516627 38.58683553 -33 39 C-30.98316254 40.80662329 -29.35193529 42.50770669 -27.625 44.5625 C-26.58394613 45.74762531 -25.53951088 46.92978656 -24.4921875 48.109375 C-23.6583252 49.05200195 -23.6583252 49.05200195 -22.80761719 50.01367188 C-19.57552349 53.56530806 -16.16047867 56.93326174 -12.75 60.3125 C-12.08178223 60.97644775 -11.41356445 61.64039551 -10.72509766 62.32446289 C-9.15222945 63.88518778 -7.57731969 65.44377614 -6 67 C-4.68 66.34 -3.36 65.68 -2 65 C-3.00804687 64.47277344 -4.01609375 63.94554687 -5.0546875 63.40234375 C-9.28301939 60.98023801 -12.6300399 57.93046368 -16.125 54.5625 C-16.76445557 53.95212891 -17.40391113 53.34175781 -18.06274414 52.71289062 C-19.38669137 51.4449308 -20.70740075 50.17358179 -22.02490234 48.89892578 C-23.95239257 47.0457714 -25.90471517 45.22255195 -27.86328125 43.40234375 C-29.05575426 42.26935087 -30.24720666 41.13528257 -31.4375 40 C-31.99904785 39.4851001 -32.5605957 38.9702002 -33.13916016 38.43969727 C-35.61601775 36.03057543 -36.91999613 34.35613153 -37.68359375 30.95703125 C-36.7676819 26.99505829 -34.64609866 25.17640331 -31.625 22.6875 C-31.08206299 22.21530029 -30.53912598 21.74310059 -29.97973633 21.2565918 C-28.86592587 20.28890286 -27.74617644 19.32800751 -26.62060547 18.37402344 C-20.42652175 13.12239596 -14.55046039 7.80151932 -9.375 1.53125 C-6.42156715 -1.75780021 -4.02582022 -1.29130083 0 0 Z M-7.7578125 13.59765625 C-8.88443121 14.74848524 -10.00657944 15.90370211 -11.125 17.0625 C-15.904219 21.93715757 -20.7440808 26.63329976 -26 31 C-19.3797868 39.0139423 -12.16956125 46.55034638 -4 53 C-1.06082579 51.67288921 1.03110214 50.22499435 3.3125 47.953125 C3.91320312 47.355 4.51390625 46.756875 5.1328125 46.140625 C5.74898437 45.51671875 6.36515625 44.8928125 7 44.25 C7.61617187 43.6415625 8.23234375 43.033125 8.8671875 42.40625 C12.42708943 38.83106952 15.36083204 35.30184377 18 31 C17.23816406 30.31035156 16.47632813 29.62070313 15.69140625 28.91015625 C14.64794544 27.96147844 13.60501437 27.01221776 12.5625 26.0625 C12.02061035 25.56903076 11.4787207 25.07556152 10.92041016 24.56713867 C6.71282793 20.71070439 2.68741187 16.70789776 -1.2578125 12.58203125 C-4.27287421 9.84413889 -4.81138288 10.82233656 -7.7578125 13.59765625 Z M32 44 C31.11957031 44.88042969 30.23914063 45.76085937 29.33203125 46.66796875 C21.5546875 54.4453125 13.77734375 62.22265625 6 70 C10.61243889 80.89532863 23.76122748 89.14611992 33 96 C38.73578647 90.50828955 43.94725232 84.79309843 48.9140625 78.59765625 C51.536419 75.33198758 54.25723931 72.16472388 57 69 C52.59848572 58.73752198 40.43762923 51.01743421 32 44 Z M-39.61376953 53.38671875 C-40.70859409 54.48186113 -41.79790282 55.58253455 -42.8828125 56.6875 C-43.45707977 57.26459717 -44.03134705 57.84169434 -44.62301636 58.4362793 C-46.4617411 60.28622702 -48.29340305 62.14299749 -50.125 64 C-51.3680316 65.25305865 -52.61151546 66.50566884 -53.85546875 67.7578125 C-56.90892412 70.83335632 -59.95606145 73.91503802 -63 77 C-58.13477089 87.41840078 -45.36453067 96.75697955 -36 103 C-27.17020459 94.54922602 -19.32220857 85.78740103 -12 76 C-13.59443772 71.75152986 -16.81163347 69.22927155 -20.125 66.3125 C-24.94922813 61.98544298 -29.36998057 57.54888857 -33.51171875 52.546875 C-34.00285156 52.03640625 -34.49398437 51.5259375 -35 51 C-37.34376949 50.77523155 -37.34376949 50.77523155 -39.61376953 53.38671875 Z " fill="#000000" transform="translate(240,116)"/>
</svg>
