<?xml version="1.0" encoding="UTF-8"?>
<!DOCTYPE svg PUBLIC "-//W3C//DTD SVG 1.1//EN" "http://www.w3.org/Graphics/SVG/1.1/DTD/svg11.dtd">
<svg xmlns="http://www.w3.org/2000/svg" version="1.1" width="512px" height="512px" style="shape-rendering:geometricPrecision; text-rendering:geometricPrecision; image-rendering:optimizeQuality; fill-rule:evenodd; clip-rule:evenodd" xmlns:xlink="http://www.w3.org/1999/xlink">
<g><path style="opacity:1" fill="#000000" d="M 276.5,55.5 C 278.527,55.3379 280.527,55.5045 282.5,56C 294,68.8333 306.167,81 319,92.5C 319.667,94.5 319.667,96.5 319,98.5C 308.284,112.889 296.451,126.389 283.5,139C 281.029,139.706 278.695,139.373 276.5,138C 267.979,130.902 259.646,123.569 251.5,116C 246.003,111.15 241.336,105.65 237.5,99.5C 250.522,84.8135 263.522,70.1469 276.5,55.5 Z M 278.5,67.5 C 288.943,76.772 299.276,86.272 309.5,96C 300.42,107.304 290.753,118.137 280.5,128.5C 269.184,119.849 258.85,110.183 249.5,99.5C 259.641,89.1796 269.308,78.5129 278.5,67.5 Z"/></g>
<g><path style="opacity:1" fill="#000000" d="M 305.5,160.5 C 308.044,160.104 310.211,160.771 312,162.5C 321.395,193.686 331.395,224.686 342,255.5C 358.803,307.819 353.136,357.485 325,404.5C 300.483,441.009 266.317,457.509 222.5,454C 199.553,443.712 178.72,430.212 160,413.5C 161.407,405.65 163.741,397.983 167,390.5C 167.574,388.508 168.741,387.008 170.5,386C 179.763,387.644 189.097,389.311 198.5,391C 229.805,396.741 258.472,390.741 284.5,373C 299.923,359.956 310.089,343.789 315,324.5C 299.414,298.331 284.081,271.997 269,245.5C 258.59,223.774 260.59,203.441 275,184.5C 283.874,174.672 294.041,166.672 305.5,160.5 Z M 304.5,171.5 C 313.659,200.48 323.159,229.48 333,258.5C 348.43,305.768 344.097,351.101 320,394.5C 298.979,429.168 268.146,446.335 227.5,446C 205.861,437.186 186.528,424.853 169.5,409C 171.407,404.441 173.407,399.941 175.5,395.5C 199.582,401.88 223.915,403.046 248.5,399C 286.422,389.747 311.588,366.58 324,329.5C 324.667,327.167 324.667,324.833 324,322.5C 321.333,317.167 318.667,311.833 316,306.5C 303.603,287.097 291.603,267.43 280,247.5C 273.213,235.687 270.546,223.02 272,209.5C 278.347,192.987 289.18,180.321 304.5,171.5 Z"/></g>
</svg>
