<?xml version="1.0" standalone="no"?>
<!DOCTYPE svg PUBLIC "-//W3C//DTD SVG 20010904//EN"
 "http://www.w3.org/TR/2001/REC-SVG-20010904/DTD/svg10.dtd">
<svg version="1.0" xmlns="http://www.w3.org/2000/svg"
 width="512.000000pt" height="512.000000pt" viewBox="0 0 512.000000 512.000000"
 preserveAspectRatio="xMidYMid meet">

<g transform="translate(0.000000,512.000000) scale(0.100000,-0.100000)"
fill="#000000" stroke="none">
<path d="M2484 3775 c-184 -40 -407 -196 -571 -400 -230 -286 -365 -637 -366
-950 -1 -117 2 -138 27 -210 32 -93 70 -162 125 -224 l38 -45 -141 -61 c-227
-99 -324 -146 -330 -161 -6 -15 115 -369 131 -385 7 -7 91 2 239 25 257 40
553 78 784 101 85 9 234 24 330 35 96 11 301 29 454 40 154 11 299 25 324 31
209 47 358 298 321 542 -6 40 -23 102 -39 139 -32 78 -113 203 -137 212 -38
15 -692 -101 -907 -161 -71 -20 -171 -9 -354 38 -161 41 -262 92 -353 177
l-74 69 15 29 c8 16 60 74 115 130 87 88 112 107 195 148 152 75 308 94 439
55 l43 -13 -7 -45 c-3 -25 -9 -63 -12 -84 l-6 -37 85 -39 c115 -53 257 -103
277 -96 44 14 135 172 166 290 25 91 30 265 11 355 -39 186 -167 346 -346 433
-150 73 -323 95 -476 62z m346 -94 c312 -99 470 -401 385 -733 -18 -68 -64
-169 -96 -207 l-19 -24 -63 23 c-34 12 -90 35 -123 50 l-61 28 13 72 c18 93
12 104 -74 130 -247 77 -522 0 -727 -205 -78 -78 -175 -200 -175 -222 0 -23
160 -181 219 -217 120 -73 321 -134 508 -156 92 -11 107 -10 174 9 141 39 709
147 808 153 l45 3 41 -67 c126 -203 111 -440 -35 -587 -75 -75 -119 -85 -470
-111 -157 -11 -361 -29 -455 -40 -93 -11 -219 -24 -280 -30 -137 -13 -677 -83
-845 -110 -69 -11 -132 -20 -140 -20 -11 0 -28 38 -58 128 -23 70 -42 131 -42
136 0 9 152 81 334 157 127 53 155 70 156 92 0 4 -30 40 -67 80 -112 121 -163
249 -163 413 0 176 49 368 146 574 162 342 446 620 705 690 96 26 262 22 359
-9z"/>
</g>
</svg>
