<?xml version="1.0" encoding="UTF-8"?>
<svg version="1.1" xmlns="http://www.w3.org/2000/svg" width="512" height="512">
<path d="M0 0 C2.72052195 3.69402718 4.10293413 7.79236199 5.50390625 12.11328125 C5.99261479 13.57904057 6.48164511 15.04469264 6.97094727 16.51025391 C7.2288504 17.28927063 7.48675354 18.06828735 7.75247192 18.87091064 C12.794302 34.06801185 18.21551915 49.09576446 23.90008545 64.0635376 C29.52076652 78.86677948 35.10391627 93.67681553 40.17404175 108.67938232 C40.670386 110.1474439 41.17060428 111.61420336 41.67532349 113.07940674 C52.67268036 145.11857803 48.64252933 172.27445489 35 203 C34.65235596 203.80824219 34.30471191 204.61648438 33.9465332 205.44921875 C30.94553461 211.67936576 27.72920887 213.93675824 21.3125 216.25 C20.47525391 216.57516602 19.63800781 216.90033203 18.77539062 217.23535156 C10.34703249 220.4236899 1.76212588 222.92037559 -7 225 C-7.77875488 225.18546387 -8.55750977 225.37092773 -9.35986328 225.56201172 C-11.75709474 226.12183836 -14.15794148 226.66008037 -16.5625 227.1875 C-17.25666016 227.34250977 -17.95082031 227.49751953 -18.66601562 227.65722656 C-32.92880519 230.63026035 -47.1921661 231.35023394 -61.72021484 231.31567383 C-64.49746646 231.31250289 -67.27365921 231.33612605 -70.05078125 231.36132812 C-90.30534724 231.4334959 -111.55781448 229.26599429 -127.1875 215.00390625 C-135.24476662 206.69485005 -137.62200921 198.0288089 -137.47094727 186.61791992 C-136.85108363 171.72310645 -131.8727198 154.66455285 -121 144 C-117.47463088 143.33586595 -115.79447901 143.54716036 -112.68359375 145.3203125 C-111.94238281 145.91585937 -111.20117188 146.51140625 -110.4375 147.125 C-92.04730969 160.71178239 -67.41371693 164.20946578 -45 163 C-44.22414551 162.95891113 -43.44829102 162.91782227 -42.64892578 162.87548828 C-26.07932407 161.91807914 -10.07958658 159.07133745 6 155 C-1.18277957 135.82197854 -15.0103822 118.71121834 -26.48046875 101.89453125 C-31.46251867 94.56176268 -36.2098004 87.16434192 -40.5625 79.4375 C-40.96855469 78.72327881 -41.37460937 78.00905762 -41.79296875 77.27319336 C-48.42585802 65.20454981 -50.35163827 53.91637064 -47.06640625 40.421875 C-43.98163894 30.52350076 -38.24552779 23.25727094 -31 16 C-30.21496094 15.20335937 -29.42992187 14.40671875 -28.62109375 13.5859375 C-21.332065 6.58940589 -10.66449666 -1.33306208 0 0 Z M-24.609375 22.515625 C-32.80703258 31.03475935 -38.99931481 40.28344207 -39.5625 52.3125 C-38.82968756 71.89233244 -23.05667016 89.98947238 -12.59765625 105.55078125 C-4.77204959 117.20111243 2.98845093 128.8341705 10 141 C10.76781891 142.27837378 11.53740822 143.55568558 12.30859375 144.83203125 C13.06047692 146.09600869 13.8117982 147.36032057 14.5625 148.625 C15.22378906 149.73101562 15.88507813 150.83703125 16.56640625 151.9765625 C17.99960548 154.99916797 18.3359179 156.71411214 18 160 C-3.10146953 169.76972479 -27.8476475 171.25171766 -50.75 171.375 C-51.90653076 171.38691879 -51.90653076 171.38691879 -53.08642578 171.39907837 C-68.00701274 171.51725927 -83.0167532 170.25780566 -97 164.6875 C-97.78689209 164.3877124 -98.57378418 164.0879248 -99.38452148 163.77905273 C-104.67753903 161.70025881 -109.55566735 159.24987593 -114.28515625 156.06640625 C-115.94649986 154.82397168 -115.94649986 154.82397168 -118 155 C-125.13969016 168.2230974 -131.21822851 182.22286656 -127.34375 197.60546875 C-123.60688689 206.96373368 -117.21592263 212.59011964 -108.1953125 216.75 C-70.27721914 231.58348395 -18.50076206 222.01345871 18.0390625 207.58984375 C25.64816301 203.50421854 27.72854316 197.63556548 30.5 189.875 C30.88728271 188.80910645 31.27456543 187.74321289 31.67358398 186.64501953 C42.23652426 157.02810054 39.99896474 135.15332039 29.6875 105.8125 C29.07360408 104.03984182 28.46008729 102.2670523 27.84692383 100.49414062 C22.03979229 83.79242966 15.80607124 67.25209755 9.53477478 50.7204895 C6.87294695 43.69162286 4.28985419 36.63646426 1.75 29.5625 C1.40348389 28.59892578 1.05696777 27.63535156 0.69995117 26.64257812 C-1.27453002 21.11902316 -3.17037714 15.57319478 -5 10 C-12.00622348 10 -19.80629792 18.01462823 -24.609375 22.515625 Z " fill="#000000" transform="translate(300,193)"/>
<path d="M0 0 C5.46199259 0.92783848 8.33228553 4.59101293 12.14257812 8.42993164 C12.95771378 9.23458359 13.77284943 10.03923553 14.61268616 10.86827087 C16.33047961 12.57322429 18.04056057 14.28597844 19.7434082 16.00585938 C22.35597046 18.63545109 25.00364252 21.22558108 27.65625 23.81469727 C29.32062174 25.47584505 30.98280794 27.13918611 32.64257812 28.80493164 C33.43824692 29.57813248 34.23391571 30.35133331 35.05369568 31.14796448 C40.39158422 36.62466398 40.39158422 36.62466398 40.57177734 41.39794922 C39.56916106 44.18862873 38.79363187 46.06548279 36.90820312 48.30883789 C36.38637451 48.94176758 35.8645459 49.57469727 35.3269043 50.22680664 C34.76205322 50.88036133 34.19720215 51.53391602 33.61523438 52.20727539 C33.03427002 52.89950195 32.45330566 53.59172852 31.85473633 54.30493164 C23.81345269 63.80499848 15.324311 72.87863658 6.42773438 81.58227539 C5.98558594 82.16750977 5.5434375 82.75274414 5.08789062 83.35571289 C3.42773438 84.58227539 3.42773438 84.58227539 0.63867188 84.62133789 C-3.57137494 83.25896264 -5.85826329 81.03881637 -8.94726562 77.95727539 C-10.01640181 76.92220482 -11.08673019 75.88836435 -12.15820312 74.85571289 C-12.70822998 74.32091309 -13.25825684 73.78611328 -13.82495117 73.23510742 C-15.64947887 71.50923729 -17.52628007 69.86347225 -19.42773438 68.22290039 C-23.95081483 64.29587638 -28.24728935 60.16400873 -32.50976562 55.95727539 C-33.65928711 54.85125977 -33.65928711 54.85125977 -34.83203125 53.72290039 C-35.55970703 53.00360352 -36.28738281 52.28430664 -37.03710938 51.54321289 C-37.69316162 50.90174316 -38.34921387 50.26027344 -39.02514648 49.59936523 C-40.88548309 47.17391139 -41.45026071 45.63569574 -41.57226562 42.58227539 C-40.45507812 40.66040039 -40.45507812 40.66040039 -38.69726562 38.83227539 C-38.04757813 38.14520508 -37.39789063 37.45813477 -36.72851562 36.75024414 C-36.01695312 36.03481445 -35.30539063 35.31938477 -34.57226562 34.58227539 C-33.86070312 33.8565332 -33.14914063 33.13079102 -32.41601562 32.38305664 C-29.38542354 29.32578681 -26.31370067 26.31127025 -23.24414062 23.29321289 C-17.69571958 17.80140839 -12.41650051 12.17499314 -7.56835938 6.05102539 C-7.05402344 5.40133789 -6.5396875 4.75165039 -6.00976562 4.08227539 C-5.49285156 3.41196289 -4.9759375 2.74165039 -4.44335938 2.05102539 C-2.57226562 0.58227539 -2.57226562 0.58227539 0 0 Z M0.42773438 11.58227539 C-3.42119681 15.34123156 -7.21983033 19.09838765 -10.69726562 23.20727539 C-13.04298286 25.95856056 -15.50685832 28.53061789 -18.08789062 31.05883789 C-18.72065918 31.67936035 -19.35342773 32.29988281 -20.00537109 32.93920898 C-21.28424805 34.18592911 -22.56960327 35.4260436 -23.86181641 36.65893555 C-24.75102783 37.52591064 -24.75102783 37.52591064 -25.65820312 38.41040039 C-26.19493652 38.92505859 -26.73166992 39.4397168 -27.28466797 39.9699707 C-28.83770038 41.91464762 -29.43062756 43.0868757 -29.57226562 45.58227539 C-28.31204519 47.56865187 -28.31204519 47.56865187 -26.33789062 49.37524414 C-25.6232666 50.08414795 -24.90864258 50.79305176 -24.17236328 51.5234375 C-23.39683105 52.264729 -22.62129883 53.00602051 -21.82226562 53.76977539 C-21.04544434 54.52846924 -20.26862305 55.28716309 -19.46826172 56.06884766 C-12.90538389 62.41486635 -6.18464099 68.50735848 1.42773438 73.58227539 C11.66671311 63.50993464 20.75490897 53.02970692 29.42773438 41.58227539 C28.09730682 38.59154548 26.68740175 36.63935852 24.26757812 34.44555664 C23.64270508 33.87232666 23.01783203 33.29909668 22.37402344 32.70849609 C21.71112305 32.10996826 21.04822266 31.51144043 20.36523438 30.89477539 C19.00342136 29.64601303 17.64274179 28.39601348 16.28320312 27.14477539 C15.62239746 26.53762695 14.9615918 25.93047852 14.28076172 25.30493164 C10.5535013 21.83990535 6.98956168 18.2163019 3.42773438 14.58227539 C2.42885987 13.58115116 1.42927877 12.5807286 0.42773438 11.58227539 Z " fill="#000000" transform="translate(261.572265625,87.417724609375)"/>
</svg>
