<?xml version="1.0" standalone="no"?>
<!DOCTYPE svg PUBLIC "-//W3C//DTD SVG 20010904//EN"
 "http://www.w3.org/TR/2001/REC-SVG-20010904/DTD/svg10.dtd">
<svg version="1.0" xmlns="http://www.w3.org/2000/svg"
 width="512.000000pt" height="512.000000pt" viewBox="0 0 512.000000 512.000000"
 preserveAspectRatio="xMidYMid meet">

<g transform="translate(0.000000,512.000000) scale(0.100000,-0.100000)"
fill="#000000" stroke="none">
<path d="M3314 4591 c-294 -80 -602 -377 -798 -767 -109 -219 -150 -378 -149
-579 1 -153 21 -246 80 -358 121 -231 407 -358 892 -396 68 -6 125 -12 128
-15 7 -7 -175 -116 -312 -186 -226 -116 -487 -199 -737 -236 -137 -20 -360
-14 -453 11 -234 64 -359 210 -401 465 -25 154 -17 270 32 468 23 92 25 106
12 119 -19 18 -236 74 -260 67 -21 -6 -34 -48 -83 -264 -48 -214 -65 -345 -65
-510 0 -613 287 -976 817 -1030 245 -25 559 26 833 135 519 207 965 618 1036
956 34 163 -29 393 -140 503 -99 100 -236 149 -531 191 -268 38 -487 84 -501
107 -9 14 85 173 154 258 160 200 403 370 573 401 83 15 109 8 163 -41 51 -47
61 -48 200 -17 65 15 103 28 110 39 8 13 5 45 -11 126 -60 292 -163 472 -308
538 -77 36 -184 41 -281 15z m229 -75 c121 -44 206 -178 268 -424 16 -63 29
-118 29 -122 0 -4 -35 -14 -77 -23 l-78 -15 -30 28 c-98 94 -263 77 -479 -49
-101 -59 -244 -178 -325 -272 -119 -137 -236 -339 -229 -397 3 -24 12 -29 93
-55 117 -37 224 -58 482 -96 289 -42 370 -69 480 -158 73 -58 142 -233 143
-358 1 -225 -233 -528 -595 -770 -125 -83 -387 -212 -525 -259 -330 -110 -694
-122 -930 -29 -309 122 -472 404 -487 843 -4 123 -1 194 11 280 15 112 83 428
95 448 4 7 29 5 72 -5 l65 -14 -24 -102 c-33 -136 -37 -402 -8 -512 60 -232
197 -383 409 -450 341 -108 900 0 1382 267 133 74 289 175 334 217 31 29 32
33 18 54 -14 21 -23 22 -193 29 -477 17 -780 124 -904 318 -131 204 -128 504
9 819 168 387 497 729 776 806 65 17 170 18 218 1z"/>
<path d="M2539 1258 c-79 -92 -230 -247 -262 -270 l-29 -21 -143 143 c-123
123 -147 142 -164 134 -10 -5 -97 -89 -191 -187 -146 -151 -171 -181 -166
-201 11 -43 341 -346 378 -346 20 0 187 174 267 277 l64 82 109 -103 c154
-147 211 -190 236 -177 54 29 322 345 322 380 0 9 -72 92 -161 184 -115 120
-167 167 -183 167 -16 0 -40 -20 -77 -62z m210 -164 l121 -126 -30 -41 c-36
-50 -210 -247 -218 -247 -7 0 -145 122 -219 193 l-62 60 137 143 c75 79 140
143 143 143 4 1 61 -56 128 -125z m-572 -241 c-41 -58 -187 -223 -209 -237
-13 -8 -25 -2 -60 29 -53 47 -174 163 -208 199 l-24 27 139 139 140 140 127
-127 127 -126 -32 -44z"/>
</g>
</svg>
