<?xml version="1.0" encoding="UTF-8"?>
<!DOCTYPE svg PUBLIC "-//W3C//DTD SVG 1.1//EN" "http://www.w3.org/Graphics/SVG/1.1/DTD/svg11.dtd">
<svg xmlns="http://www.w3.org/2000/svg" version="1.1" width="512px" height="512px" style="shape-rendering:geometricPrecision; text-rendering:geometricPrecision; image-rendering:optimizeQuality; fill-rule:evenodd; clip-rule:evenodd" xmlns:xlink="http://www.w3.org/1999/xlink">
<g><path style="opacity:1" fill="#000000" d="M 465.5,93.5 C 470.383,93.2152 472.883,95.5485 473,100.5C 478,125.5 483,150.5 488,175.5C 490.722,189.385 492.555,203.385 493.5,217.5C 490.551,243.843 482.884,268.677 470.5,292C 429.427,292.023 389.927,284.189 352,268.5C 348.665,277.834 342.165,283.667 332.5,286C 310.775,291.385 288.775,293.218 266.5,291.5C 264.464,331.743 247.131,363.576 214.5,387C 169.916,416.251 121.916,423.918 70.5,410C 46.1018,398.928 30.2685,380.428 23,354.5C 15.7481,325.523 15.7481,296.523 23,267.5C 25.1403,256.769 27.9737,246.269 31.5,236C 32.5,235.5 33.5,235 34.5,234.5C 43.0495,236.762 51.5495,239.095 60,241.5C 60.6667,243.833 60.6667,246.167 60,248.5C 51.1896,274.127 51.8562,299.46 62,324.5C 68.602,336.086 78.4354,343.586 91.5,347C 128.912,353.132 164.579,347.798 198.5,331C 209.433,324.705 219.433,317.205 228.5,308.5C 217.333,286.833 206.167,265.167 195,243.5C 182.738,214.481 188.238,189.314 211.5,168C 220.371,160.812 230.037,154.812 240.5,150C 242.235,149.349 243.902,149.515 245.5,150.5C 249.935,174.105 254.268,197.772 258.5,221.5C 273.071,224.679 287.737,225.179 302.5,223C 307.509,222.417 312.176,220.917 316.5,218.5C 326.609,195.282 336.442,171.949 346,148.5C 354.95,139.298 365.784,136.131 378.5,139C 383.136,139.879 387.469,141.545 391.5,144C 392.804,144.804 393.471,145.971 393.5,147.5C 385.867,167.561 379.367,187.894 374,208.5C 385.246,214.249 397.079,218.416 409.5,221C 422.246,223.683 435.08,225.849 448,227.5C 449.167,227.167 450.333,226.833 451.5,226.5C 441.139,207.112 431.306,187.445 422,167.5C 415.001,149.843 418.001,134.177 431,120.5C 441.21,109.67 452.71,100.67 465.5,93.5 Z M 463.5,105.5 C 464.649,105.791 465.316,106.624 465.5,108C 469.947,130.513 474.447,153.013 479,175.5C 481.768,188.875 483.601,202.375 484.5,216C 481.925,239.227 475.592,261.394 465.5,282.5C 436.525,282.526 408.192,278.026 380.5,269C 370.376,265.292 360.209,261.792 350,258.5C 348.564,258.559 347.231,258.892 346,259.5C 343.88,264.242 341.38,268.742 338.5,273C 327.809,278.174 316.476,281.174 304.5,282C 289.507,283.551 274.507,283.884 259.5,283C 256.082,338.453 228.415,376.453 176.5,397C 143.297,409.658 109.63,411.325 75.5,402C 51.5774,391.743 36.744,373.909 31,348.5C 25.9898,327.306 25.3232,305.972 29,284.5C 31.3681,271.027 34.3681,257.694 38,244.5C 42.0187,246.046 46.1854,247.046 50.5,247.5C 42.5919,272.562 42.7586,297.562 51,322.5C 58.6284,340.124 71.7951,351.29 90.5,356C 144.741,365.1 192.741,352.1 234.5,317C 236.958,315.213 238.624,312.879 239.5,310C 227.802,286.771 215.969,263.604 204,240.5C 192.897,216.68 196.73,195.513 215.5,177C 222.896,170.885 230.729,165.385 239,160.5C 242.462,183.605 246.462,206.605 251,229.5C 268.33,233.179 285.83,234.012 303.5,232C 310.224,230.861 316.724,229.028 323,226.5C 333.781,202.824 343.781,178.824 353,154.5C 360.174,147.395 368.674,145.229 378.5,148C 380.573,148.118 381.907,149.118 382.5,151C 376.268,168.363 370.434,185.863 365,203.5C 363.787,206.768 363.454,210.101 364,213.5C 375.412,220.085 387.579,224.918 400.5,228C 420.918,232.959 441.584,235.959 462.5,237C 464.396,235.192 464.896,233.025 464,230.5C 453.016,208.531 442.016,186.531 431,164.5C 425.436,152.342 426.77,141.009 435,130.5C 443.457,120.87 452.957,112.536 463.5,105.5 Z"/></g>
</svg>
