<?xml version="1.0" encoding="UTF-8"?>
<!DOCTYPE svg PUBLIC "-//W3C//DTD SVG 1.1//EN" "http://www.w3.org/Graphics/SVG/1.1/DTD/svg11.dtd">
<svg xmlns="http://www.w3.org/2000/svg" version="1.1" width="512px" height="512px" style="shape-rendering:geometricPrecision; text-rendering:geometricPrecision; image-rendering:optimizeQuality; fill-rule:evenodd; clip-rule:evenodd" xmlns:xlink="http://www.w3.org/1999/xlink">
<g><path style="opacity:1" fill="#000000" d="M 348.5,44.5 C 350.655,44.372 352.655,44.872 354.5,46C 365.109,58.6465 376.443,69.3131 388.5,78C 399.651,88.3176 410.651,98.8176 421.5,109.5C 422.485,111.098 422.651,112.765 422,114.5C 412.918,128.482 402.085,140.982 389.5,152C 388.167,152.667 386.833,152.667 385.5,152C 374.194,142.751 363.36,132.917 353,122.5C 343.956,135.217 333.789,147.051 322.5,158C 321.391,158.638 320.225,159.138 319,159.5C 304.506,150.347 291.84,139.014 281,125.5C 280.333,124.167 280.333,122.833 281,121.5C 292.137,109.362 303.637,97.5291 315.5,86C 317.833,84 320.167,84 322.5,86C 330.803,95.3036 339.469,104.304 348.5,113C 350.568,112.983 352.234,111.983 353.5,110C 352.167,109.667 350.833,109.333 349.5,109C 337.453,99.6197 326.786,88.953 317.5,77C 317.667,76.1667 317.833,75.3333 318,74.5C 328.672,64.9945 338.839,54.9945 348.5,44.5 Z M 349.5,56.5 C 357.452,63.1155 365.119,70.1155 372.5,77.5C 365.833,84.8333 358.833,91.8333 351.5,98.5C 343.381,91.8835 335.715,84.7168 328.5,77C 336.079,70.586 343.079,63.7527 349.5,56.5 Z M 386.5,89.5 C 395.446,96.7776 403.779,104.778 411.5,113.5C 404.447,123.578 396.447,132.912 387.5,141.5C 378.173,133.506 369.173,125.173 360.5,116.5C 369.889,108.113 378.555,99.1131 386.5,89.5 Z M 317.5,96.5 C 318.239,96.369 318.906,96.5357 319.5,97C 326.678,105.344 334.344,113.177 342.5,120.5C 335.607,130.565 327.774,139.898 319,148.5C 308.986,141.39 299.82,133.223 291.5,124C 300.005,114.662 308.672,105.495 317.5,96.5 Z"/></g>
<g><path style="opacity:1" fill="#000000" d="M 465.5,142.5 C 470.383,142.215 472.883,144.549 473,149.5C 478.205,176.527 483.539,203.527 489,230.5C 491.108,242.424 492.608,254.424 493.5,266.5C 490.488,289.703 484.321,312.036 475,333.5C 473.877,336.249 472.377,338.749 470.5,341C 429.427,341.023 389.927,333.189 352,317.5C 348.665,326.834 342.165,332.667 332.5,335C 310.775,340.385 288.775,342.218 266.5,340.5C 264.464,380.743 247.131,412.576 214.5,436C 169.912,465.252 121.912,472.919 70.5,459C 46.1018,447.928 30.2685,429.428 23,403.5C 15.7481,374.523 15.7481,345.523 23,316.5C 25.2067,305.785 28.04,295.285 31.5,285C 39.6665,285.038 47.6665,286.371 55.5,289C 57.3289,289.273 58.8289,290.107 60,291.5C 57.8595,303.749 55.8595,316.083 54,328.5C 52.2558,347.734 56.5891,365.4 67,381.5C 76.0747,391.12 87.2414,396.62 100.5,398C 143.976,402.715 183.309,392.382 218.5,367C 222.314,364.353 225.647,361.187 228.5,357.5C 216.667,334.5 204.833,311.5 193,288.5C 183.512,261.285 189.345,237.785 210.5,218C 219.698,210.482 229.698,204.148 240.5,199C 243.804,197.958 245.971,199.125 247,202.5C 250.079,225.31 253.913,247.976 258.5,270.5C 277.874,275.027 297.041,274.36 316,268.5C 326.276,244.949 336.276,221.282 346,197.5C 349.092,193.072 353.259,190.239 358.5,189C 370.043,186.074 381.043,187.407 391.5,193C 392.43,194.194 393.097,195.527 393.5,197C 386.136,216.591 379.47,236.424 373.5,256.5C 378.508,260.338 384.175,263.171 390.5,265C 410.463,271.162 430.796,274.662 451.5,275.5C 440.806,255.445 430.639,235.112 421,214.5C 417.345,203.665 417.678,192.998 422,182.5C 432.888,165.106 447.388,151.773 465.5,142.5 Z M 463.5,154.5 C 464.649,154.791 465.316,155.624 465.5,157C 469.41,177.885 473.577,198.718 478,219.5C 481.144,234.698 483.311,250.031 484.5,265.5C 481.816,288.552 475.483,310.552 465.5,331.5C 438.624,331.8 412.29,327.966 386.5,320C 374.226,316.02 362.06,311.854 350,307.5C 348.564,307.559 347.231,307.892 346,308.5C 343.797,313.744 340.964,318.578 337.5,323C 323.397,328.574 308.731,331.574 293.5,332C 282.148,332.46 270.815,332.46 259.5,332C 256.508,385.306 230.508,422.639 181.5,444C 150.132,456.882 117.799,460.215 84.5,454C 57.6929,445.86 40.1929,428.36 32,401.5C 26.1343,379.051 25.1343,356.384 29,333.5C 31.6444,320.443 34.4777,307.443 37.5,294.5C 41.8333,295.167 46.1667,295.833 50.5,296.5C 42.4271,321.57 42.5937,346.57 51,371.5C 59.2584,390.748 73.7584,402.248 94.5,406C 147.371,413.457 194.037,400.124 234.5,366C 236.774,364.235 238.441,362.068 239.5,359.5C 227.607,335.381 215.44,311.381 203,287.5C 194.235,268.318 196.235,250.318 209,233.5C 217.255,223.791 227.089,216.125 238.5,210.5C 242.461,233.436 246.794,256.269 251.5,279C 269.066,282.439 286.733,283.106 304.5,281C 310.855,279.704 317.022,277.871 323,275.5C 333.723,251.33 344.056,226.997 354,202.5C 356.626,199.769 359.793,197.936 363.5,197C 369.569,196.196 375.569,196.529 381.5,198C 382.022,198.561 382.355,199.228 382.5,200C 376.136,218.76 369.969,237.593 364,256.5C 363.333,258.5 363.333,260.5 364,262.5C 377.9,270.36 392.734,275.86 408.5,279C 426.64,283.36 444.974,285.527 463.5,285.5C 464.52,283.568 464.687,281.568 464,279.5C 451.789,255.745 440.122,231.745 429,207.5C 426.141,196.601 428.475,186.934 436,178.5C 444.176,169.143 453.343,161.143 463.5,154.5 Z"/></g>
</svg>
