<?xml version="1.0" encoding="UTF-8"?>
<!DOCTYPE svg PUBLIC "-//W3C//DTD SVG 1.1//EN" "http://www.w3.org/Graphics/SVG/1.1/DTD/svg11.dtd">
<svg xmlns="http://www.w3.org/2000/svg" version="1.1" width="512px" height="512px" style="shape-rendering:geometricPrecision; text-rendering:geometricPrecision; image-rendering:optimizeQuality; fill-rule:evenodd; clip-rule:evenodd" xmlns:xlink="http://www.w3.org/1999/xlink">
<g><path style="opacity:1" fill="#000000" d="M 239.5,89.5 C 240.873,89.3433 242.207,89.51 243.5,90C 256.742,102.74 269.409,115.906 281.5,129.5C 280.863,132.107 279.696,134.44 278,136.5C 267.909,149.262 257.076,161.428 245.5,173C 242.697,173.755 240.03,173.422 237.5,172C 224.369,160.87 211.869,149.037 200,136.5C 199.333,134.833 199.333,133.167 200,131.5C 213.427,117.578 226.594,103.578 239.5,89.5 Z M 240.5,101.5 C 241.239,101.369 241.906,101.536 242.5,102C 251.345,112.011 260.678,121.511 270.5,130.5C 261.934,142.238 252.434,153.238 242,163.5C 230.897,154.4 220.397,144.567 210.5,134C 220.706,123.297 230.706,112.463 240.5,101.5 Z"/></g>
<g><path style="opacity:1" fill="#000000" d="M 353.5,153.5 C 358.227,152.727 360.727,154.727 361,159.5C 367.039,195.107 372.706,230.773 378,266.5C 385.918,336.498 357.085,384.332 291.5,410C 258.046,422.255 224.046,424.255 189.5,416C 162.771,406.27 145.271,387.77 137,360.5C 131.331,337.439 129.998,314.105 133,290.5C 136.027,273.696 139.694,257.03 144,240.5C 145.313,239.427 146.813,238.76 148.5,238.5C 155.838,240.335 163.172,242.168 170.5,244C 171.931,244.465 173.097,245.299 174,246.5C 172.02,257.103 170.02,267.77 168,278.5C 163.246,334.413 188.746,359.246 244.5,353C 282.095,351.366 314.762,338.033 342.5,313C 331.206,291.579 320.039,270.079 309,248.5C 295.701,217.858 301.867,191.692 327.5,170C 335.806,163.847 344.472,158.347 353.5,153.5 Z M 350.5,165.5 C 351.496,165.414 352.329,165.748 353,166.5C 358.658,200.116 363.992,233.782 369,267.5C 377.178,327.651 354.011,370.818 299.5,397C 268.415,410.679 236.081,415.012 202.5,410C 172.212,403.046 153.046,384.546 145,354.5C 139.817,331.648 139.15,308.648 143,285.5C 145.284,273.747 147.951,262.08 151,250.5C 151.725,249.941 152.558,249.608 153.5,249.5C 156.782,250.488 160.115,251.154 163.5,251.5C 161.939,260.141 160.439,268.808 159,277.5C 154.93,342.092 185.097,370.259 249.5,362C 289.102,359.273 323.269,344.44 352,317.5C 352.667,315.5 352.667,313.5 352,311.5C 340.333,288.833 328.667,266.167 317,243.5C 306.412,218.674 311.245,197.174 331.5,179C 337.9,174.478 344.233,169.978 350.5,165.5 Z"/></g>
</svg>
