<?xml version="1.0" standalone="no"?>
<!DOCTYPE svg PUBLIC "-//W3C//DTD SVG 20010904//EN"
 "http://www.w3.org/TR/2001/REC-SVG-20010904/DTD/svg10.dtd">
<svg version="1.0" xmlns="http://www.w3.org/2000/svg"
 width="512.000000pt" height="512.000000pt" viewBox="0 0 512.000000 512.000000"
 preserveAspectRatio="xMidYMid meet">

<g transform="translate(0.000000,512.000000) scale(0.100000,-0.100000)"
fill="#000000" stroke="none">
<path d="M2223 3641 c-116 -84 -175 -304 -125 -468 13 -42 34 -84 55 -108 l34
-39 -79 -91 c-307 -351 -410 -690 -308 -1016 60 -196 231 -364 440 -435 46
-16 85 -19 230 -19 201 0 279 16 429 87 144 68 227 176 340 440 99 231 131
378 112 516 -57 412 -393 838 -836 1059 -79 40 -232 103 -249 103 -2 0 -21
-13 -43 -29z m117 -82 c141 -53 315 -156 437 -257 173 -146 303 -309 394 -497
106 -219 128 -383 75 -559 -63 -208 -190 -470 -265 -545 -144 -143 -530 -209
-752 -128 -125 45 -254 159 -314 277 -51 101 -70 186 -69 315 2 147 24 238 93
380 60 122 141 237 261 370 49 55 90 107 90 115 0 8 -22 35 -49 61 -37 35 -54
61 -65 100 -36 121 -5 280 72 362 14 15 28 27 31 27 3 0 31 -9 61 -21z"/>
<path d="M2382 2853 c-311 -329 -330 -707 -43 -842 49 -23 71 -26 176 -29 102
-3 135 1 218 22 111 29 280 105 295 133 20 37 -89 272 -196 423 -87 122 -335
360 -375 360 -7 0 -40 -30 -75 -67z m186 -119 c156 -146 270 -304 346 -483
l36 -82 -65 -29 c-148 -66 -330 -100 -434 -80 -127 24 -211 103 -233 218 -19
101 27 256 112 382 44 65 127 160 139 160 4 0 48 -39 99 -86z"/>
</g>
</svg>
