<?xml version="1.0" encoding="UTF-8"?>
<!DOCTYPE svg PUBLIC "-//W3C//DTD SVG 1.1//EN" "http://www.w3.org/Graphics/SVG/1.1/DTD/svg11.dtd">
<svg xmlns="http://www.w3.org/2000/svg" version="1.1" width="512px" height="512px" style="shape-rendering:geometricPrecision; text-rendering:geometricPrecision; image-rendering:optimizeQuality; fill-rule:evenodd; clip-rule:evenodd" xmlns:xlink="http://www.w3.org/1999/xlink">
<g><path style="opacity:1" fill="#000000" d="M 246.5,74.5 C 258.201,74.1224 268.535,77.6224 277.5,85C 284.407,91.2362 290.573,98.0695 296,105.5C 311.123,128.55 328.29,150.05 347.5,170C 352.941,173.807 358.108,177.973 363,182.5C 363.667,183.833 363.667,185.167 363,186.5C 355.333,206.5 347.667,226.5 340,246.5C 339.25,247.126 338.416,247.626 337.5,248C 287.566,248.345 238.233,253.845 189.5,264.5C 199.038,310.856 208.705,357.189 218.5,403.5C 217.747,405.753 216.414,407.587 214.5,409C 198.68,420.245 181.68,429.412 163.5,436.5C 162.252,435.96 161.085,435.293 160,434.5C 158.951,415.503 157.951,396.503 157,377.5C 153.371,342.207 150.204,306.874 147.5,271.5C 149.192,257.255 153.025,243.589 159,230.5C 162.705,222.258 166.538,214.091 170.5,206C 182.99,200.627 195.99,196.96 209.5,195C 235.034,190.88 260.701,187.88 286.5,186C 275.167,172.667 263.833,159.333 252.5,146C 246.704,141.641 240.371,140.641 233.5,143C 224.899,146.926 217.399,152.426 211,159.5C 207.193,164.941 203.027,170.108 198.5,175C 197.167,175.667 195.833,175.667 194.5,175C 186.597,171.467 179.097,167.301 172,162.5C 178.778,139.611 189.778,118.945 205,100.5C 215.967,86.9908 229.8,78.3241 246.5,74.5 Z M 248.5,83.5 C 258.694,83.9509 267.361,87.7842 274.5,95C 285.151,106.648 294.651,119.148 303,132.5C 317.005,153.176 333.838,171.343 353.5,187C 346.337,204.324 339.67,221.824 333.5,239.5C 282.797,239.47 232.797,245.303 183.5,257C 179.787,258.691 178.621,261.525 180,265.5C 189.884,310.586 199.384,355.752 208.5,401C 196.825,410.846 183.825,418.679 169.5,424.5C 165.831,373.804 161.497,323.137 156.5,272.5C 160.236,251.794 167.069,232.127 177,213.5C 179.304,211.932 181.804,210.765 184.5,210C 222.378,201.473 260.711,196.14 299.5,194C 302.082,191.108 301.916,188.275 299,185.5C 287.249,173.087 276.249,160.087 266,146.5C 252.953,132.017 237.787,129.517 220.5,139C 210.833,146 202.5,154.333 195.5,164C 190.451,163.149 185.785,161.149 181.5,158C 189.512,139.463 199.679,122.297 212,106.5C 221.526,94.337 233.693,86.6703 248.5,83.5 Z"/></g>
</svg>
