<svg id="svg" version="1.1" width="400" height="400" viewBox="0 0 400 400" xmlns="http://www.w3.org/2000/svg" xmlns:xlink="http://www.w3.org/1999/xlink"><g id="svgg"><path id="path0" d="M150.000 66.400 C 149.670 66.613,148.556 66.791,147.524 66.794 C 146.492 66.797,145.536 66.980,145.400 67.200 C 145.264 67.420,144.634 67.600,144.000 67.600 C 143.366 67.600,142.736 67.780,142.600 68.000 C 142.464 68.220,142.001 68.400,141.571 68.400 C 141.141 68.400,140.477 68.569,140.095 68.776 C 139.713 68.983,138.230 69.721,136.800 70.416 C 130.865 73.303,125.877 77.410,121.997 82.606 C 118.346 87.495,117.100 90.195,114.804 98.200 C 114.495 99.277,114.409 102.413,114.541 107.800 C 114.747 116.212,114.986 118.406,116.800 128.600 C 117.035 129.920,117.395 131.990,117.600 133.200 C 118.380 137.801,119.105 141.639,119.945 145.600 C 120.154 146.590,120.539 148.480,120.800 149.800 C 121.061 151.120,121.421 152.920,121.600 153.800 C 121.779 154.680,122.112 156.390,122.339 157.600 C 122.566 158.810,123.302 162.386,123.976 165.548 C 124.649 168.709,125.200 171.893,125.200 172.624 C 125.200 173.355,125.361 174.052,125.558 174.174 C 125.755 174.295,126.018 175.071,126.142 175.897 C 126.267 176.724,126.477 178.120,126.609 179.000 C 126.742 179.880,127.007 180.960,127.200 181.400 C 127.529 182.151,127.702 183.069,128.256 187.000 C 128.380 187.880,128.644 188.771,128.841 188.980 C 129.038 189.189,129.200 190.008,129.200 190.800 C 129.200 191.592,129.362 192.411,129.559 192.620 C 129.756 192.829,130.020 193.720,130.144 194.600 C 130.698 198.531,130.871 199.449,131.200 200.200 C 131.393 200.640,131.642 201.630,131.753 202.400 C 131.864 203.170,132.146 204.655,132.378 205.700 C 132.610 206.745,132.980 208.410,133.200 209.400 C 133.420 210.390,133.780 212.010,134.000 213.000 C 134.220 213.990,134.572 215.565,134.783 216.500 C 134.993 217.435,135.369 219.190,135.618 220.400 C 136.330 223.864,136.902 226.500,137.983 231.300 C 138.193 232.235,138.547 233.900,138.769 235.000 C 138.992 236.100,139.536 238.620,139.978 240.600 C 140.421 242.580,140.987 245.460,141.236 247.000 C 141.485 248.540,141.849 250.213,142.045 250.719 C 142.240 251.224,142.400 252.249,142.400 252.995 C 142.400 253.742,142.561 254.452,142.758 254.574 C 142.955 254.695,143.218 255.471,143.342 256.297 C 143.467 257.124,143.677 258.520,143.809 259.400 C 143.942 260.280,144.254 261.415,144.504 261.922 C 144.988 262.904,144.772 263.446,142.930 265.860 C 142.452 266.487,140.749 268.800,139.145 271.000 C 137.542 273.200,136.123 275.090,135.992 275.200 C 135.861 275.310,135.494 275.779,135.177 276.243 C 134.860 276.706,133.814 278.010,132.853 279.141 L 131.105 281.196 128.853 280.967 C 127.614 280.841,126.240 280.581,125.800 280.390 C 125.360 280.198,124.100 279.939,123.000 279.813 C 118.444 279.292,117.381 279.105,117.020 278.761 C 116.811 278.563,115.787 278.400,114.744 278.400 C 113.701 278.400,112.736 278.220,112.600 278.000 C 112.464 277.780,111.499 277.600,110.456 277.600 C 109.413 277.600,108.389 277.437,108.180 277.239 C 107.971 277.040,106.990 276.781,106.000 276.662 C 105.010 276.544,103.300 276.264,102.200 276.040 C 101.100 275.816,99.120 275.450,97.800 275.228 C 95.733 274.880,92.537 274.206,84.000 272.319 C 83.010 272.100,81.480 271.749,80.600 271.539 C 79.720 271.328,78.280 270.996,77.400 270.800 C 76.520 270.604,74.990 270.234,74.000 269.979 C 68.715 268.613,66.000 269.414,66.000 272.338 C 66.000 272.786,65.820 273.264,65.600 273.400 C 65.380 273.536,65.200 274.076,65.200 274.600 C 65.200 275.124,65.056 275.642,64.879 275.751 C 64.703 275.860,64.307 276.872,64.000 278.000 C 63.693 279.128,63.297 280.140,63.121 280.249 C 62.944 280.358,62.800 280.799,62.800 281.229 C 62.800 281.659,62.620 282.368,62.400 282.805 C 62.180 283.242,61.820 283.958,61.600 284.395 C 61.380 284.832,61.200 285.541,61.200 285.971 C 61.200 286.401,61.020 286.864,60.800 287.000 C 59.689 287.687,62.032 290.662,66.073 293.694 C 66.875 294.296,67.771 295.026,68.065 295.316 C 68.359 295.607,70.220 297.148,72.200 298.740 C 74.180 300.333,76.298 302.078,76.907 302.618 C 77.516 303.158,78.152 303.600,78.321 303.600 C 78.489 303.600,79.251 304.143,80.014 304.806 C 82.261 306.760,86.554 309.837,93.800 314.686 C 97.540 317.189,100.817 319.409,101.083 319.619 C 101.349 319.828,101.676 320.000,101.811 320.000 C 101.946 320.000,102.841 320.540,103.800 321.200 C 104.759 321.860,105.737 322.400,105.972 322.400 C 106.207 322.400,106.400 322.580,106.400 322.800 C 106.400 323.020,106.745 323.200,107.167 323.200 C 107.588 323.200,107.993 323.337,108.067 323.504 C 108.354 324.158,115.171 327.201,118.200 328.027 C 126.322 330.243,142.397 331.765,173.400 333.252 C 186.239 333.868,216.672 333.874,223.000 333.262 C 230.076 332.577,238.019 331.581,240.400 331.080 C 240.950 330.965,242.480 330.660,243.800 330.402 C 246.890 329.801,248.456 329.454,253.691 328.216 C 256.052 327.657,258.437 327.200,258.991 327.200 C 259.546 327.200,260.000 327.020,260.000 326.800 C 260.000 326.580,260.529 326.400,261.176 326.400 C 261.823 326.400,262.464 326.220,262.600 326.000 C 262.736 325.780,263.366 325.600,264.000 325.600 C 264.634 325.600,265.264 325.420,265.400 325.200 C 265.536 324.980,266.076 324.800,266.600 324.800 C 267.124 324.800,267.664 324.620,267.800 324.400 C 267.936 324.180,268.487 324.000,269.024 324.000 C 269.561 324.000,270.000 323.820,270.000 323.600 C 270.000 323.380,270.540 323.200,271.200 323.200 C 271.860 323.200,272.400 323.020,272.400 322.800 C 272.400 322.580,272.762 322.400,273.205 322.400 C 273.648 322.400,274.323 322.235,274.705 322.034 C 275.087 321.832,276.030 321.403,276.800 321.081 C 277.570 320.759,278.830 320.221,279.600 319.885 C 280.370 319.550,281.805 318.944,282.789 318.538 C 285.456 317.438,296.754 311.687,298.022 310.785 C 298.628 310.353,299.239 310.000,299.380 310.000 C 299.664 310.000,305.683 306.011,306.000 305.613 C 306.110 305.475,306.830 304.923,307.600 304.386 C 311.687 301.540,323.195 290.698,323.202 289.688 C 323.203 289.530,323.743 288.825,324.402 288.122 C 325.061 287.419,325.600 286.676,325.600 286.471 C 325.600 286.266,325.864 285.879,326.187 285.611 C 326.921 285.002,330.135 279.514,331.933 275.800 C 333.764 272.017,334.504 270.219,335.223 267.800 C 335.484 266.920,335.856 265.887,336.049 265.505 C 336.242 265.123,336.400 264.369,336.400 263.829 C 336.400 263.289,336.561 262.748,336.758 262.626 C 336.955 262.505,337.219 261.729,337.346 260.903 C 337.473 260.076,337.782 258.230,338.032 256.800 C 338.715 252.898,338.948 240.934,338.378 239.000 C 337.656 236.551,336.315 233.045,335.938 232.620 C 335.752 232.411,335.600 231.916,335.600 231.520 C 335.600 231.124,335.462 230.800,335.294 230.800 C 335.126 230.800,334.682 230.125,334.306 229.300 C 333.482 227.486,332.379 225.618,331.700 224.884 C 331.425 224.586,331.200 224.216,331.200 224.060 C 331.200 223.820,327.893 218.997,326.908 217.800 C 326.727 217.580,326.152 216.796,325.632 216.058 C 322.977 212.293,309.744 199.054,305.968 196.385 C 305.216 195.853,304.187 195.008,303.682 194.509 C 303.177 194.009,302.635 193.600,302.478 193.600 C 302.320 193.600,301.734 193.195,301.175 192.700 C 300.615 192.205,299.872 191.620,299.522 191.400 C 299.173 191.180,297.293 189.937,295.344 188.637 C 293.395 187.338,290.810 185.733,289.600 185.072 C 288.390 184.410,287.310 183.753,287.200 183.613 C 286.814 183.120,276.904 178.400,276.256 178.400 C 275.895 178.400,275.600 178.220,275.600 178.000 C 275.600 177.780,275.161 177.600,274.624 177.600 C 274.087 177.600,273.536 177.420,273.400 177.200 C 273.264 176.980,272.724 176.800,272.200 176.800 C 271.676 176.800,271.136 176.620,271.000 176.400 C 270.864 176.180,270.259 176.000,269.656 176.000 C 269.053 176.000,268.389 175.840,268.180 175.644 C 266.829 174.378,248.766 174.376,247.420 175.642 C 247.211 175.839,246.457 176.000,245.744 176.000 C 245.031 176.000,244.336 176.180,244.200 176.400 C 244.064 176.620,243.423 176.800,242.776 176.800 C 242.129 176.800,241.600 176.980,241.600 177.200 C 241.600 177.420,241.238 177.600,240.795 177.600 C 240.352 177.600,239.677 177.759,239.295 177.953 C 238.913 178.148,238.150 178.486,237.600 178.705 C 235.325 179.613,226.190 184.188,226.067 184.482 C 225.993 184.657,225.766 184.800,225.561 184.800 C 225.153 184.800,222.513 186.443,217.106 190.062 C 215.185 191.348,213.518 192.400,213.403 192.400 C 213.287 192.400,212.628 192.940,211.937 193.600 C 211.246 194.260,210.504 194.800,210.288 194.800 C 210.071 194.800,209.603 195.125,209.247 195.522 C 208.891 195.920,208.221 196.505,207.757 196.822 C 206.827 197.460,204.924 199.052,198.026 204.964 C 193.810 208.577,177.995 224.156,172.902 229.711 C 169.765 233.133,169.324 232.926,169.045 227.900 C 168.826 223.971,168.477 218.935,167.611 207.200 C 167.392 204.230,167.034 199.280,166.816 196.200 C 166.415 190.542,165.917 184.179,165.187 175.400 C 164.967 172.760,164.618 168.170,164.411 165.200 C 164.203 162.230,163.850 157.190,163.626 154.000 C 163.402 150.810,163.045 145.680,162.832 142.600 C 162.620 139.520,162.249 134.687,162.009 131.859 C 161.593 126.963,161.609 126.687,162.352 126.059 C 164.089 124.592,164.660 124.147,166.000 123.214 C 166.770 122.677,167.490 122.131,167.600 122.000 C 167.710 121.869,168.430 121.323,169.200 120.786 C 173.412 117.853,174.948 115.833,173.600 115.000 C 173.380 114.864,173.200 114.401,173.200 113.971 C 173.200 113.541,173.041 112.877,172.847 112.495 C 172.652 112.113,172.316 111.350,172.100 110.800 C 171.884 110.250,171.479 109.260,171.200 108.600 C 170.544 107.047,170.190 106.119,169.600 104.400 C 169.336 103.630,168.967 102.640,168.781 102.200 C 168.595 101.760,167.887 99.690,167.208 97.600 C 166.528 95.510,165.798 93.487,165.586 93.105 C 165.374 92.723,165.200 92.136,165.200 91.800 C 165.200 91.464,165.035 90.877,164.834 90.495 C 164.347 89.568,160.775 77.772,159.537 73.000 C 159.309 72.120,158.960 71.087,158.761 70.705 C 158.562 70.323,158.400 69.736,158.400 69.400 C 158.400 68.741,157.689 67.346,156.929 66.515 C 156.367 65.901,150.912 65.810,150.000 66.400 M153.473 71.113 C 153.955 71.419,154.404 72.654,155.977 78.000 C 156.463 79.650,157.297 82.351,157.830 84.001 C 158.364 85.652,158.800 87.396,158.800 87.878 C 158.800 88.359,158.980 88.864,159.200 89.000 C 159.420 89.136,159.600 89.676,159.600 90.200 C 159.600 90.724,159.780 91.264,160.000 91.400 C 160.220 91.536,160.400 92.076,160.400 92.600 C 160.400 93.124,160.580 93.664,160.800 93.800 C 161.020 93.936,161.200 94.399,161.200 94.829 C 161.200 95.259,161.380 95.968,161.600 96.405 C 161.820 96.842,162.180 97.558,162.400 97.995 C 162.620 98.432,162.800 99.141,162.800 99.571 C 162.800 100.001,162.980 100.464,163.200 100.600 C 163.420 100.736,163.600 101.276,163.600 101.800 C 163.600 102.324,163.780 102.864,164.000 103.000 C 164.220 103.136,164.400 103.563,164.400 103.948 C 164.400 104.334,164.760 105.395,165.200 106.306 C 165.640 107.216,166.000 108.152,166.000 108.386 C 166.000 108.620,166.159 109.123,166.353 109.505 C 167.438 111.638,168.496 114.712,168.323 115.231 C 168.237 115.490,165.754 117.524,162.807 119.751 C 155.715 125.110,156.367 122.259,158.036 140.600 C 158.256 143.020,158.620 148.420,158.844 152.600 C 159.326 161.584,159.827 168.868,160.398 175.200 C 161.019 182.077,161.952 193.974,162.800 205.800 C 163.037 209.100,163.396 214.050,163.600 216.800 C 163.803 219.550,164.155 224.680,164.382 228.200 C 165.225 241.267,165.401 242.000,167.707 242.000 C 168.533 242.000,168.759 241.783,174.600 235.393 C 185.282 223.706,197.550 211.604,203.184 207.196 C 204.166 206.428,205.377 205.407,205.875 204.927 C 206.374 204.447,207.461 203.548,208.291 202.930 C 209.121 202.311,209.890 201.711,210.000 201.597 C 211.591 199.944,220.438 193.600,221.152 193.600 C 221.399 193.600,221.600 193.450,221.600 193.268 C 221.600 193.085,222.095 192.680,222.700 192.368 C 223.305 192.055,223.980 191.661,224.200 191.492 C 226.399 189.798,235.474 184.955,239.200 183.487 C 243.810 181.671,247.104 180.676,251.000 179.923 C 254.366 179.272,261.618 179.084,264.000 179.585 C 267.909 180.408,272.047 181.606,272.580 182.070 C 272.789 182.251,273.203 182.400,273.499 182.400 C 273.796 182.400,274.784 182.760,275.694 183.200 C 276.605 183.640,277.586 184.000,277.875 184.000 C 278.164 184.000,278.400 184.180,278.400 184.400 C 278.400 184.620,278.745 184.800,279.167 184.800 C 279.588 184.800,279.993 184.936,280.067 185.102 C 280.140 185.268,281.460 186.025,283.000 186.784 C 284.540 187.544,286.552 188.668,287.472 189.283 C 288.392 189.897,289.337 190.400,289.572 190.400 C 289.807 190.400,290.000 190.580,290.000 190.800 C 290.000 191.020,290.236 191.200,290.525 191.200 C 290.813 191.200,291.415 191.541,291.862 191.957 C 292.309 192.374,293.198 193.005,293.838 193.358 C 299.474 196.479,312.732 208.095,319.143 215.532 C 322.527 219.456,325.183 222.955,325.192 223.500 C 325.196 223.775,325.350 224.000,325.532 224.000 C 325.715 224.000,326.120 224.492,326.432 225.094 C 326.745 225.696,327.270 226.512,327.600 226.906 C 328.417 227.882,330.163 230.938,331.426 233.600 C 332.000 234.810,332.634 236.113,332.835 236.495 C 333.036 236.877,333.200 237.541,333.200 237.971 C 333.200 238.401,333.354 238.848,333.543 238.965 C 334.430 239.513,334.616 243.918,334.032 250.600 C 333.433 257.457,333.171 259.349,332.761 259.780 C 332.563 259.989,332.400 260.666,332.400 261.285 C 332.400 261.904,332.238 262.723,332.041 263.105 C 331.844 263.487,331.266 265.150,330.758 266.800 C 330.249 268.450,329.510 270.390,329.116 271.112 C 328.722 271.834,328.400 272.689,328.400 273.012 C 328.400 273.335,328.220 273.600,328.000 273.600 C 327.780 273.600,327.600 273.960,327.600 274.400 C 327.600 274.840,327.420 275.200,327.200 275.200 C 326.980 275.200,326.800 275.560,326.800 276.000 C 326.800 276.440,326.664 276.800,326.498 276.800 C 326.331 276.800,325.958 277.336,325.668 277.991 C 324.071 281.599,318.775 288.361,313.913 293.000 C 306.346 300.220,300.493 304.415,291.200 309.281 C 289.330 310.260,287.440 311.266,287.000 311.516 C 285.435 312.406,282.642 313.600,282.125 313.600 C 281.836 313.600,281.600 313.780,281.600 314.000 C 281.600 314.220,281.364 314.400,281.075 314.400 C 280.786 314.400,279.805 314.760,278.894 315.200 C 277.984 315.640,277.084 316.000,276.894 316.000 C 276.705 316.000,275.841 316.342,274.975 316.760 C 273.430 317.506,265.863 320.156,263.300 320.849 C 262.585 321.042,261.415 321.365,260.700 321.567 C 255.304 323.089,247.834 324.853,246.004 325.039 C 244.792 325.162,243.440 325.418,243.000 325.608 C 242.560 325.799,241.390 326.059,240.400 326.187 C 239.410 326.315,237.430 326.602,236.000 326.824 C 225.226 328.500,218.549 328.891,200.800 328.887 C 175.844 328.880,155.323 327.834,129.526 325.255 C 122.258 324.528,117.778 323.323,112.611 320.705 C 110.845 319.810,108.996 318.881,108.503 318.639 C 108.010 318.398,107.605 318.065,107.603 317.900 C 107.601 317.735,107.426 317.600,107.213 317.600 C 106.838 317.600,102.288 314.828,101.317 314.008 C 101.051 313.784,100.674 313.600,100.479 313.600 C 100.284 313.600,99.798 313.240,99.400 312.800 C 99.002 312.360,98.449 312.000,98.171 312.000 C 97.894 312.000,97.607 311.855,97.533 311.679 C 97.460 311.502,95.690 310.202,93.600 308.789 C 87.391 304.592,78.246 297.688,75.856 295.393 C 75.165 294.730,73.970 293.748,73.200 293.213 C 72.430 292.677,71.710 292.140,71.600 292.019 C 71.490 291.899,70.203 290.765,68.739 289.500 L 66.078 287.201 66.596 285.500 C 67.206 283.498,68.598 279.742,69.526 277.600 C 69.764 277.050,70.015 276.240,70.083 275.800 C 70.224 274.887,73.362 274.402,74.134 275.174 C 74.368 275.408,75.244 275.600,76.080 275.600 C 76.916 275.600,77.600 275.762,77.600 275.960 C 77.600 276.158,78.365 276.410,79.300 276.521 C 81.161 276.741,84.931 277.482,90.800 278.783 C 92.890 279.246,95.590 279.816,96.800 280.049 C 98.010 280.283,99.810 280.637,100.800 280.837 C 103.016 281.284,106.318 281.913,109.100 282.418 C 110.255 282.628,112.190 282.980,113.400 283.200 C 114.610 283.420,116.590 283.780,117.800 284.000 C 119.010 284.220,120.990 284.580,122.200 284.800 C 123.410 285.020,125.435 285.391,126.700 285.624 C 133.178 286.819,133.382 286.741,137.255 281.600 C 137.835 280.830,138.645 279.810,139.055 279.334 C 140.458 277.703,141.012 276.999,141.995 275.600 C 142.536 274.830,143.124 274.020,143.301 273.800 C 149.421 266.213,150.798 262.985,149.192 259.985 C 148.976 259.582,148.800 258.849,148.800 258.355 C 148.800 257.861,148.634 256.904,148.431 256.228 C 148.228 255.553,147.859 254.010,147.611 252.800 C 147.363 251.590,146.997 249.880,146.797 249.000 C 146.596 248.120,146.055 245.600,145.592 243.400 C 145.130 241.200,144.493 238.308,144.176 236.974 C 143.859 235.640,143.600 233.896,143.600 233.098 C 143.600 232.300,143.439 231.548,143.242 231.426 C 142.906 231.218,142.754 230.499,142.159 226.300 C 142.026 225.365,141.756 224.429,141.559 224.220 C 141.362 224.011,141.200 223.167,141.200 222.344 C 141.200 221.521,141.020 220.736,140.800 220.600 C 140.580 220.464,140.400 219.654,140.400 218.800 C 140.400 217.946,140.220 217.136,140.000 217.000 C 139.780 216.864,139.600 216.054,139.600 215.200 C 139.600 214.346,139.420 213.536,139.200 213.400 C 138.980 213.264,138.800 212.479,138.800 211.656 C 138.800 210.833,138.638 209.989,138.441 209.780 C 138.244 209.571,137.985 208.680,137.867 207.800 C 137.749 206.920,137.450 205.300,137.204 204.200 C 136.957 203.100,136.664 201.570,136.553 200.800 C 136.442 200.030,136.193 199.040,136.000 198.600 C 135.807 198.160,135.558 197.170,135.447 196.400 C 135.336 195.630,135.044 194.100,134.800 193.000 C 134.556 191.900,134.264 190.370,134.153 189.600 C 134.042 188.830,133.793 187.840,133.600 187.400 C 133.407 186.960,133.158 185.970,133.047 185.200 C 132.936 184.430,132.654 182.945,132.422 181.900 C 131.782 179.019,131.319 176.828,130.838 174.400 C 130.598 173.190,130.221 171.390,130.000 170.400 C 129.779 169.410,129.432 167.700,129.229 166.600 C 129.027 165.500,128.487 162.937,128.030 160.904 C 127.574 158.872,127.200 156.587,127.200 155.828 C 127.200 155.068,127.020 154.336,126.800 154.200 C 126.580 154.064,126.400 153.164,126.400 152.200 C 126.400 151.236,126.220 150.336,126.000 150.200 C 125.780 150.064,125.600 149.164,125.600 148.200 C 125.600 147.236,125.420 146.336,125.200 146.200 C 124.980 146.064,124.800 145.164,124.800 144.200 C 124.800 143.236,124.620 142.336,124.400 142.200 C 124.180 142.064,124.000 141.164,124.000 140.200 C 124.000 139.236,123.820 138.336,123.600 138.200 C 123.380 138.064,123.200 137.099,123.200 136.056 C 123.200 135.013,123.037 133.989,122.839 133.780 C 122.501 133.424,122.332 132.456,121.779 127.700 C 121.658 126.655,121.396 125.440,121.198 125.000 C 121.001 124.560,120.738 123.210,120.614 122.000 C 120.491 120.790,120.197 118.450,119.962 116.800 C 119.321 112.314,119.074 101.266,119.575 99.500 C 119.809 98.675,120.198 97.235,120.439 96.300 C 120.680 95.365,121.040 94.287,121.239 93.905 C 121.438 93.523,121.600 92.938,121.600 92.605 C 121.600 92.272,121.780 92.000,122.000 92.000 C 122.220 92.000,122.400 91.640,122.400 91.200 C 122.400 90.760,122.580 90.400,122.800 90.400 C 123.020 90.400,123.200 90.040,123.200 89.600 C 123.200 89.160,123.351 88.800,123.536 88.800 C 123.720 88.800,124.070 88.364,124.313 87.831 C 125.081 86.145,130.997 79.763,133.427 78.000 C 134.839 76.975,136.569 75.961,137.300 75.729 C 137.685 75.607,138.000 75.348,138.000 75.153 C 138.000 74.959,138.360 74.800,138.800 74.800 C 139.240 74.800,139.600 74.620,139.600 74.400 C 139.600 74.180,139.949 74.000,140.376 74.000 C 140.803 74.000,141.264 73.820,141.400 73.600 C 141.536 73.380,142.087 73.200,142.624 73.200 C 143.161 73.200,143.600 73.020,143.600 72.800 C 143.600 72.580,144.129 72.400,144.776 72.400 C 145.423 72.400,146.064 72.220,146.200 72.000 C 146.336 71.780,147.292 71.587,148.324 71.572 C 149.356 71.556,150.560 71.389,151.000 71.200 C 152.020 70.762,152.873 70.732,153.473 71.113 M244.200 85.513 C 243.760 85.891,242.410 87.366,241.200 88.790 C 235.979 94.938,228.621 102.783,217.700 113.846 C 213.571 118.029,213.486 118.589,216.489 121.898 C 221.685 127.623,232.643 137.939,240.264 144.278 C 241.109 144.980,242.340 146.032,243.000 146.615 C 246.086 149.341,246.354 149.301,250.294 145.521 C 253.335 142.605,261.008 134.309,264.835 129.800 C 265.582 128.920,266.467 127.930,266.801 127.600 C 267.135 127.270,267.899 126.341,268.498 125.535 C 269.098 124.729,269.822 123.829,270.107 123.535 C 270.393 123.241,271.064 122.370,271.600 121.600 C 272.136 120.830,272.798 119.968,273.073 119.685 C 273.347 119.402,273.887 118.637,274.272 117.985 C 274.657 117.333,275.114 116.800,275.286 116.800 C 275.459 116.800,275.600 116.151,275.600 115.357 C 275.600 114.047,275.224 113.556,271.542 110.057 C 269.309 107.936,262.690 101.385,256.831 95.500 C 245.996 84.616,245.605 84.307,244.200 85.513 M258.000 103.546 C 270.062 115.551,270.287 115.847,268.700 117.605 C 268.205 118.153,267.010 119.641,266.044 120.910 C 265.079 122.180,263.630 123.897,262.825 124.727 C 262.019 125.557,261.084 126.631,260.745 127.114 C 258.797 129.895,246.839 142.400,246.127 142.400 C 244.531 142.400,220.000 119.955,220.000 118.495 C 220.000 118.332,223.375 114.764,227.500 110.566 C 234.107 103.842,236.996 100.778,242.889 94.249 C 243.707 93.342,244.382 92.465,244.389 92.300 C 244.457 90.487,246.950 92.547,258.000 103.546 M244.800 220.383 C 244.250 220.568,243.133 220.738,242.319 220.760 C 241.504 220.782,240.424 220.961,239.919 221.158 C 239.413 221.355,238.190 221.732,237.200 221.994 C 232.650 223.201,225.677 226.138,221.600 228.564 C 220.610 229.153,219.485 229.738,219.100 229.864 C 218.715 229.990,218.400 230.252,218.400 230.447 C 218.400 230.641,218.214 230.800,217.987 230.800 C 217.610 230.800,209.266 236.218,208.800 236.765 C 208.523 237.090,205.615 239.282,204.400 240.081 C 203.850 240.443,202.860 241.223,202.200 241.814 C 201.540 242.406,200.371 243.364,199.603 243.945 C 198.834 244.525,197.821 245.375,197.350 245.834 C 196.880 246.293,195.629 247.373,194.570 248.234 C 189.266 252.549,169.509 272.269,163.526 279.222 C 162.495 280.420,160.736 282.390,159.616 283.600 C 157.263 286.144,156.857 287.218,157.740 288.565 C 158.436 289.627,158.241 289.604,173.600 290.404 C 211.098 292.357,227.609 291.832,248.400 288.024 C 249.610 287.803,251.320 287.515,252.200 287.386 C 253.080 287.256,254.160 286.994,254.600 286.802 C 255.040 286.611,255.940 286.363,256.600 286.252 C 257.260 286.140,258.610 285.845,259.600 285.596 C 260.590 285.346,261.987 285.045,262.704 284.927 C 263.421 284.808,264.106 284.551,264.227 284.356 C 264.348 284.160,264.889 284.000,265.429 284.000 C 265.969 284.000,266.723 283.838,267.105 283.641 C 267.487 283.444,269.150 282.879,270.800 282.387 C 272.450 281.895,275.060 281.058,276.600 280.528 C 278.140 279.998,281.650 278.812,284.400 277.892 C 287.150 276.973,289.490 276.110,289.600 275.976 C 289.710 275.841,290.655 275.482,291.700 275.178 C 292.745 274.874,293.600 274.485,293.600 274.313 C 293.600 274.141,293.943 274.000,294.362 274.000 C 294.781 274.000,295.906 273.614,296.862 273.143 C 297.818 272.672,298.960 272.150,299.400 271.982 C 300.568 271.538,305.684 269.232,306.495 268.784 C 306.877 268.573,307.462 268.400,307.795 268.400 C 308.128 268.400,308.400 268.220,308.400 268.000 C 308.400 267.780,308.627 267.600,308.904 267.600 C 310.100 267.600,316.802 263.982,316.862 263.304 C 317.018 261.542,316.652 260.658,315.083 259.013 C 314.157 258.041,312.050 255.751,310.400 253.923 C 306.989 250.144,300.743 244.254,295.599 239.966 C 291.807 236.804,284.627 231.600,284.058 231.600 C 283.889 231.600,283.402 231.285,282.975 230.900 C 279.922 228.146,268.684 223.361,261.000 221.544 C 256.353 220.446,246.671 219.751,244.800 220.383 M255.600 225.562 C 257.030 225.792,258.966 226.094,259.903 226.232 C 260.839 226.371,261.705 226.645,261.826 226.842 C 261.948 227.039,262.476 227.200,263.000 227.200 C 264.704 227.200,275.832 231.698,276.800 232.778 C 276.910 232.901,277.540 233.267,278.200 233.592 C 280.559 234.752,288.448 240.162,290.325 241.906 C 290.624 242.184,291.529 242.904,292.335 243.506 C 299.728 249.025,311.701 262.000,309.400 262.000 C 309.070 262.000,308.800 262.180,308.800 262.400 C 308.800 262.620,308.440 262.800,308.000 262.800 C 307.560 262.800,307.200 262.980,307.200 263.200 C 307.200 263.420,306.947 263.600,306.638 263.600 C 306.329 263.600,305.384 263.939,304.538 264.353 C 302.692 265.256,299.309 266.782,298.200 267.211 C 297.760 267.381,296.547 267.898,295.504 268.360 C 294.462 268.822,293.373 269.200,293.084 269.200 C 292.796 269.200,292.389 269.352,292.180 269.539 C 291.454 270.186,280.991 273.994,275.000 275.792 C 273.020 276.386,271.087 277.036,270.705 277.236 C 270.323 277.436,269.659 277.600,269.229 277.600 C 268.799 277.600,268.336 277.780,268.200 278.000 C 268.064 278.220,267.524 278.400,267.000 278.400 C 266.476 278.400,265.936 278.580,265.800 278.800 C 265.664 279.020,265.034 279.200,264.400 279.200 C 263.766 279.200,263.148 279.360,263.027 279.556 C 262.906 279.751,262.221 280.008,261.504 280.127 C 260.787 280.245,259.390 280.546,258.400 280.796 C 257.410 281.045,256.060 281.340,255.400 281.452 C 254.740 281.563,253.840 281.811,253.400 282.002 C 252.960 282.194,251.880 282.456,251.000 282.586 C 250.120 282.715,248.410 283.003,247.200 283.224 C 233.424 285.747,227.560 286.156,205.200 286.154 C 175.765 286.152,165.814 285.590,166.079 283.946 C 166.431 281.758,196.003 252.469,203.975 246.413 C 204.979 245.650,206.149 244.705,206.575 244.313 C 207.002 243.921,207.505 243.600,207.694 243.600 C 207.882 243.600,208.473 243.163,209.007 242.629 C 209.541 242.095,210.523 241.336,211.189 240.943 C 211.855 240.549,212.400 240.086,212.400 239.914 C 212.400 239.741,212.655 239.600,212.967 239.600 C 213.278 239.600,213.593 239.451,213.667 239.270 C 213.854 238.806,219.873 234.800,220.382 234.800 C 220.612 234.800,220.801 234.665,220.803 234.500 C 220.805 234.335,221.210 234.006,221.703 233.768 C 222.196 233.530,224.334 232.426,226.454 231.314 C 228.573 230.202,231.813 228.794,233.654 228.184 C 235.494 227.575,237.313 226.924,237.695 226.738 C 238.077 226.552,238.831 226.400,239.371 226.400 C 239.911 226.400,240.464 226.220,240.600 226.000 C 240.736 225.780,241.782 225.597,242.924 225.594 C 244.066 225.591,245.270 225.407,245.600 225.185 C 246.283 224.727,251.672 224.930,255.600 225.562 " stroke="none" fill="#000000" fill-rule="evenodd"></path><path id="path1" d="M150.000 66.400 C 149.670 66.613,148.556 66.791,147.524 66.794 C 146.492 66.797,145.536 66.980,145.400 67.200 C 145.264 67.420,144.634 67.600,144.000 67.600 C 143.366 67.600,142.736 67.780,142.600 68.000 C 142.464 68.220,142.001 68.400,141.571 68.400 C 141.141 68.400,140.477 68.569,140.095 68.776 C 139.713 68.983,138.230 69.721,136.800 70.416 C 130.865 73.303,125.877 77.410,121.997 82.606 C 118.346 87.495,117.100 90.195,114.804 98.200 C 114.495 99.277,114.409 102.413,114.541 107.800 C 114.747 116.212,114.986 118.406,116.800 128.600 C 117.035 129.920,117.395 131.990,117.600 133.200 C 118.380 137.801,119.105 141.639,119.945 145.600 C 120.154 146.590,120.539 148.480,120.800 149.800 C 121.061 151.120,121.421 152.920,121.600 153.800 C 121.779 154.680,122.112 156.390,122.339 157.600 C 122.566 158.810,123.302 162.386,123.976 165.548 C 124.649 168.709,125.200 171.893,125.200 172.624 C 125.200 173.355,125.361 174.052,125.558 174.174 C 125.755 174.295,126.018 175.071,126.142 175.897 C 126.267 176.724,126.477 178.120,126.609 179.000 C 126.742 179.880,127.007 180.960,127.200 181.400 C 127.529 182.151,127.702 183.069,128.256 187.000 C 128.380 187.880,128.644 188.771,128.841 188.980 C 129.038 189.189,129.200 190.008,129.200 190.800 C 129.200 191.592,129.362 192.411,129.559 192.620 C 129.756 192.829,130.020 193.720,130.144 194.600 C 130.698 198.531,130.871 199.449,131.200 200.200 C 131.393 200.640,131.642 201.630,131.753 202.400 C 131.864 203.170,132.146 204.655,132.378 205.700 C 132.610 206.745,132.980 208.410,133.200 209.400 C 133.420 210.390,133.780 212.010,134.000 213.000 C 134.220 213.990,134.572 215.565,134.783 216.500 C 134.993 217.435,135.369 219.190,135.618 220.400 C 136.330 223.864,136.902 226.500,137.983 231.300 C 138.193 232.235,138.547 233.900,138.769 235.000 C 138.992 236.100,139.536 238.620,139.978 240.600 C 140.421 242.580,140.987 245.460,141.236 247.000 C 141.485 248.540,141.849 250.213,142.045 250.719 C 142.240 251.224,142.400 252.249,142.400 252.995 C 142.400 253.742,142.561 254.452,142.758 254.574 C 142.955 254.695,143.218 255.471,143.342 256.297 C 143.467 257.124,143.677 258.520,143.809 259.400 C 143.942 260.280,144.254 261.415,144.504 261.922 C 144.988 262.904,144.772 263.446,142.930 265.860 C 142.452 266.487,140.749 268.800,139.145 271.000 C 137.542 273.200,136.123 275.090,135.992 275.200 C 135.861 275.310,135.494 275.779,135.177 276.243 C 134.860 276.706,133.814 278.010,132.853 279.141 L 131.105 281.196 128.853 280.967 C 127.614 280.841,126.240 280.581,125.800 280.390 C 125.360 280.198,124.100 279.939,123.000 279.813 C 118.444 279.292,117.381 279.105,117.020 278.761 C 116.811 278.563,115.787 278.400,114.744 278.400 C 113.701 278.400,112.736 278.220,112.600 278.000 C 112.464 277.780,111.499 277.600,110.456 277.600 C 109.413 277.600,108.389 277.437,108.180 277.239 C 107.971 277.040,106.990 276.781,106.000 276.662 C 105.010 276.544,103.300 276.264,102.200 276.040 C 101.100 275.816,99.120 275.450,97.800 275.228 C 95.733 274.880,92.537 274.206,84.000 272.319 C 83.010 272.100,81.480 271.749,80.600 271.539 C 79.720 271.328,78.280 270.996,77.400 270.800 C 76.520 270.604,74.990 270.234,74.000 269.979 C 68.715 268.613,66.000 269.414,66.000 272.338 C 66.000 272.786,65.820 273.264,65.600 273.400 C 65.380 273.536,65.200 274.076,65.200 274.600 C 65.200 275.124,65.056 275.642,64.879 275.751 C 64.703 275.860,64.307 276.872,64.000 278.000 C 63.693 279.128,63.297 280.140,63.121 280.249 C 62.944 280.358,62.800 280.799,62.800 281.229 C 62.800 281.659,62.620 282.368,62.400 282.805 C 62.180 283.242,61.820 283.958,61.600 284.395 C 61.380 284.832,61.200 285.541,61.200 285.971 C 61.200 286.401,61.020 286.864,60.800 287.000 C 59.689 287.687,62.032 290.662,66.073 293.694 C 66.875 294.296,67.771 295.026,68.065 295.316 C 68.359 295.607,70.220 297.148,72.200 298.740 C 74.180 300.333,76.298 302.078,76.907 302.618 C 77.516 303.158,78.152 303.600,78.321 303.600 C 78.489 303.600,79.251 304.143,80.014 304.806 C 82.261 306.760,86.554 309.837,93.800 314.686 C 97.540 317.189,100.817 319.409,101.083 319.619 C 101.349 319.828,101.676 320.000,101.811 320.000 C 101.946 320.000,102.841 320.540,103.800 321.200 C 104.759 321.860,105.737 322.400,105.972 322.400 C 106.207 322.400,106.400 322.580,106.400 322.800 C 106.400 323.020,106.745 323.200,107.167 323.200 C 107.588 323.200,107.993 323.337,108.067 323.504 C 108.354 324.158,115.171 327.201,118.200 328.027 C 126.322 330.243,142.397 331.765,173.400 333.252 C 186.239 333.868,216.672 333.874,223.000 333.262 C 230.076 332.577,238.019 331.581,240.400 331.080 C 240.950 330.965,242.480 330.660,243.800 330.402 C 246.890 329.801,248.456 329.454,253.691 328.216 C 256.052 327.657,258.437 327.200,258.991 327.200 C 259.546 327.200,260.000 327.020,260.000 326.800 C 260.000 326.580,260.529 326.400,261.176 326.400 C 261.823 326.400,262.464 326.220,262.600 326.000 C 262.736 325.780,263.366 325.600,264.000 325.600 C 264.634 325.600,265.264 325.420,265.400 325.200 C 265.536 324.980,266.076 324.800,266.600 324.800 C 267.124 324.800,267.664 324.620,267.800 324.400 C 267.936 324.180,268.487 324.000,269.024 324.000 C 269.561 324.000,270.000 323.820,270.000 323.600 C 270.000 323.380,270.540 323.200,271.200 323.200 C 271.860 323.200,272.400 323.020,272.400 322.800 C 272.400 322.580,272.762 322.400,273.205 322.400 C 273.648 322.400,274.323 322.235,274.705 322.034 C 275.087 321.832,276.030 321.403,276.800 321.081 C 277.570 320.759,278.830 320.221,279.600 319.885 C 280.370 319.550,281.805 318.944,282.789 318.538 C 285.456 317.438,296.754 311.687,298.022 310.785 C 298.628 310.353,299.239 310.000,299.380 310.000 C 299.664 310.000,305.683 306.011,306.000 305.613 C 306.110 305.475,306.830 304.923,307.600 304.386 C 311.687 301.540,323.195 290.698,323.202 289.688 C 323.203 289.530,323.743 288.825,324.402 288.122 C 325.061 287.419,325.600 286.676,325.600 286.471 C 325.600 286.266,325.864 285.879,326.187 285.611 C 326.921 285.002,330.135 279.514,331.933 275.800 C 333.764 272.017,334.504 270.219,335.223 267.800 C 335.484 266.920,335.856 265.887,336.049 265.505 C 336.242 265.123,336.400 264.369,336.400 263.829 C 336.400 263.289,336.561 262.748,336.758 262.626 C 336.955 262.505,337.219 261.729,337.346 260.903 C 337.473 260.076,337.782 258.230,338.032 256.800 C 338.715 252.898,338.948 240.934,338.378 239.000 C 337.656 236.551,336.315 233.045,335.938 232.620 C 335.752 232.411,335.600 231.916,335.600 231.520 C 335.600 231.124,335.462 230.800,335.294 230.800 C 335.126 230.800,334.682 230.125,334.306 229.300 C 333.482 227.486,332.379 225.618,331.700 224.884 C 331.425 224.586,331.200 224.216,331.200 224.060 C 331.200 223.820,327.893 218.997,326.908 217.800 C 326.727 217.580,326.152 216.796,325.632 216.058 C 322.977 212.293,309.744 199.054,305.968 196.385 C 305.216 195.853,304.187 195.008,303.682 194.509 C 303.177 194.009,302.635 193.600,302.478 193.600 C 302.320 193.600,301.734 193.195,301.175 192.700 C 300.615 192.205,299.872 191.620,299.522 191.400 C 299.173 191.180,297.293 189.937,295.344 188.637 C 293.395 187.338,290.810 185.733,289.600 185.072 C 288.390 184.410,287.310 183.753,287.200 183.613 C 286.814 183.120,276.904 178.400,276.256 178.400 C 275.895 178.400,275.600 178.220,275.600 178.000 C 275.600 177.780,275.161 177.600,274.624 177.600 C 274.087 177.600,273.536 177.420,273.400 177.200 C 273.264 176.980,272.724 176.800,272.200 176.800 C 271.676 176.800,271.136 176.620,271.000 176.400 C 270.864 176.180,270.259 176.000,269.656 176.000 C 269.053 176.000,268.389 175.840,268.180 175.644 C 266.829 174.378,248.766 174.376,247.420 175.642 C 247.211 175.839,246.457 176.000,245.744 176.000 C 245.031 176.000,244.336 176.180,244.200 176.400 C 244.064 176.620,243.423 176.800,242.776 176.800 C 242.129 176.800,241.600 176.980,241.600 177.200 C 241.600 177.420,241.238 177.600,240.795 177.600 C 240.352 177.600,239.677 177.759,239.295 177.953 C 238.913 178.148,238.150 178.486,237.600 178.705 C 235.325 179.613,226.190 184.188,226.067 184.482 C 225.993 184.657,225.766 184.800,225.561 184.800 C 225.153 184.800,222.513 186.443,217.106 190.062 C 215.185 191.348,213.518 192.400,213.403 192.400 C 213.287 192.400,212.628 192.940,211.937 193.600 C 211.246 194.260,210.504 194.800,210.288 194.800 C 210.071 194.800,209.603 195.125,209.247 195.522 C 208.891 195.920,208.221 196.505,207.757 196.822 C 206.827 197.460,204.924 199.052,198.026 204.964 C 193.810 208.577,177.995 224.156,172.902 229.711 C 169.765 233.133,169.324 232.926,169.045 227.900 C 168.826 223.971,168.477 218.935,167.611 207.200 C 167.392 204.230,167.034 199.280,166.816 196.200 C 166.415 190.542,165.917 184.179,165.187 175.400 C 164.967 172.760,164.618 168.170,164.411 165.200 C 164.203 162.230,163.850 157.190,163.626 154.000 C 163.402 150.810,163.045 145.680,162.832 142.600 C 162.620 139.520,162.249 134.687,162.009 131.859 C 161.593 126.963,161.609 126.687,162.352 126.059 C 164.089 124.592,164.660 124.147,166.000 123.214 C 166.770 122.677,167.490 122.131,167.600 122.000 C 167.710 121.869,168.430 121.323,169.200 120.786 C 173.412 117.853,174.948 115.833,173.600 115.000 C 173.380 114.864,173.200 114.401,173.200 113.971 C 173.200 113.541,173.041 112.877,172.847 112.495 C 172.652 112.113,172.316 111.350,172.100 110.800 C 171.884 110.250,171.479 109.260,171.200 108.600 C 170.544 107.047,170.190 106.119,169.600 104.400 C 169.336 103.630,168.967 102.640,168.781 102.200 C 168.595 101.760,167.887 99.690,167.208 97.600 C 166.528 95.510,165.798 93.487,165.586 93.105 C 165.374 92.723,165.200 92.136,165.200 91.800 C 165.200 91.464,165.035 90.877,164.834 90.495 C 164.347 89.568,160.775 77.772,159.537 73.000 C 159.309 72.120,158.960 71.087,158.761 70.705 C 158.562 70.323,158.400 69.736,158.400 69.400 C 158.400 68.741,157.689 67.346,156.929 66.515 C 156.367 65.901,150.912 65.810,150.000 66.400 M153.473 71.113 C 153.955 71.419,154.404 72.654,155.977 78.000 C 156.463 79.650,157.297 82.351,157.830 84.001 C 158.364 85.652,158.800 87.396,158.800 87.878 C 158.800 88.359,158.980 88.864,159.200 89.000 C 159.420 89.136,159.600 89.676,159.600 90.200 C 159.600 90.724,159.780 91.264,160.000 91.400 C 160.220 91.536,160.400 92.076,160.400 92.600 C 160.400 93.124,160.580 93.664,160.800 93.800 C 161.020 93.936,161.200 94.399,161.200 94.829 C 161.200 95.259,161.380 95.968,161.600 96.405 C 161.820 96.842,162.180 97.558,162.400 97.995 C 162.620 98.432,162.800 99.141,162.800 99.571 C 162.800 100.001,162.980 100.464,163.200 100.600 C 163.420 100.736,163.600 101.276,163.600 101.800 C 163.600 102.324,163.780 102.864,164.000 103.000 C 164.220 103.136,164.400 103.563,164.400 103.948 C 164.400 104.334,164.760 105.395,165.200 106.306 C 165.640 107.216,166.000 108.152,166.000 108.386 C 166.000 108.620,166.159 109.123,166.353 109.505 C 167.438 111.638,168.496 114.712,168.323 115.231 C 168.237 115.490,165.754 117.524,162.807 119.751 C 155.715 125.110,156.367 122.259,158.036 140.600 C 158.256 143.020,158.620 148.420,158.844 152.600 C 159.326 161.584,159.827 168.868,160.398 175.200 C 161.019 182.077,161.952 193.974,162.800 205.800 C 163.037 209.100,163.396 214.050,163.600 216.800 C 163.803 219.550,164.155 224.680,164.382 228.200 C 165.225 241.267,165.401 242.000,167.707 242.000 C 168.533 242.000,168.759 241.783,174.600 235.393 C 185.282 223.706,197.550 211.604,203.184 207.196 C 204.166 206.428,205.377 205.407,205.875 204.927 C 206.374 204.447,207.461 203.548,208.291 202.930 C 209.121 202.311,209.890 201.711,210.000 201.597 C 211.591 199.944,220.438 193.600,221.152 193.600 C 221.399 193.600,221.600 193.450,221.600 193.268 C 221.600 193.085,222.095 192.680,222.700 192.368 C 223.305 192.055,223.980 191.661,224.200 191.492 C 226.399 189.798,235.474 184.955,239.200 183.487 C 243.810 181.671,247.104 180.676,251.000 179.923 C 254.366 179.272,261.618 179.084,264.000 179.585 C 267.909 180.408,272.047 181.606,272.580 182.070 C 272.789 182.251,273.203 182.400,273.499 182.400 C 273.796 182.400,274.784 182.760,275.694 183.200 C 276.605 183.640,277.586 184.000,277.875 184.000 C 278.164 184.000,278.400 184.180,278.400 184.400 C 278.400 184.620,278.745 184.800,279.167 184.800 C 279.588 184.800,279.993 184.936,280.067 185.102 C 280.140 185.268,281.460 186.025,283.000 186.784 C 284.540 187.544,286.552 188.668,287.472 189.283 C 288.392 189.897,289.337 190.400,289.572 190.400 C 289.807 190.400,290.000 190.580,290.000 190.800 C 290.000 191.020,290.236 191.200,290.525 191.200 C 290.813 191.200,291.415 191.541,291.862 191.957 C 292.309 192.374,293.198 193.005,293.838 193.358 C 299.474 196.479,312.732 208.095,319.143 215.532 C 322.527 219.456,325.183 222.955,325.192 223.500 C 325.196 223.775,325.350 224.000,325.532 224.000 C 325.715 224.000,326.120 224.492,326.432 225.094 C 326.745 225.696,327.270 226.512,327.600 226.906 C 328.417 227.882,330.163 230.938,331.426 233.600 C 332.000 234.810,332.634 236.113,332.835 236.495 C 333.036 236.877,333.200 237.541,333.200 237.971 C 333.200 238.401,333.354 238.848,333.543 238.965 C 334.430 239.513,334.616 243.918,334.032 250.600 C 333.433 257.457,333.171 259.349,332.761 259.780 C 332.563 259.989,332.400 260.666,332.400 261.285 C 332.400 261.904,332.238 262.723,332.041 263.105 C 331.844 263.487,331.266 265.150,330.758 266.800 C 330.249 268.450,329.510 270.390,329.116 271.112 C 328.722 271.834,328.400 272.689,328.400 273.012 C 328.400 273.335,328.220 273.600,328.000 273.600 C 327.780 273.600,327.600 273.960,327.600 274.400 C 327.600 274.840,327.420 275.200,327.200 275.200 C 326.980 275.200,326.800 275.560,326.800 276.000 C 326.800 276.440,326.664 276.800,326.498 276.800 C 326.331 276.800,325.958 277.336,325.668 277.991 C 324.071 281.599,318.775 288.361,313.913 293.000 C 306.346 300.220,300.493 304.415,291.200 309.281 C 289.330 310.260,287.440 311.266,287.000 311.516 C 285.435 312.406,282.642 313.600,282.125 313.600 C 281.836 313.600,281.600 313.780,281.600 314.000 C 281.600 314.220,281.364 314.400,281.075 314.400 C 280.786 314.400,279.805 314.760,278.894 315.200 C 277.984 315.640,277.084 316.000,276.894 316.000 C 276.705 316.000,275.841 316.342,274.975 316.760 C 273.430 317.506,265.863 320.156,263.300 320.849 C 262.585 321.042,261.415 321.365,260.700 321.567 C 255.304 323.089,247.834 324.853,246.004 325.039 C 244.792 325.162,243.440 325.418,243.000 325.608 C 242.560 325.799,241.390 326.059,240.400 326.187 C 239.410 326.315,237.430 326.602,236.000 326.824 C 225.226 328.500,218.549 328.891,200.800 328.887 C 175.844 328.880,155.323 327.834,129.526 325.255 C 122.258 324.528,117.778 323.323,112.611 320.705 C 110.845 319.810,108.996 318.881,108.503 318.639 C 108.010 318.398,107.605 318.065,107.603 317.900 C 107.601 317.735,107.426 317.600,107.213 317.600 C 106.838 317.600,102.288 314.828,101.317 314.008 C 101.051 313.784,100.674 313.600,100.479 313.600 C 100.284 313.600,99.798 313.240,99.400 312.800 C 99.002 312.360,98.449 312.000,98.171 312.000 C 97.894 312.000,97.607 311.855,97.533 311.679 C 97.460 311.502,95.690 310.202,93.600 308.789 C 87.391 304.592,78.246 297.688,75.856 295.393 C 75.165 294.730,73.970 293.748,73.200 293.213 C 72.430 292.677,71.710 292.140,71.600 292.019 C 71.490 291.899,70.203 290.765,68.739 289.500 L 66.078 287.201 66.596 285.500 C 67.206 283.498,68.598 279.742,69.526 277.600 C 69.764 277.050,70.015 276.240,70.083 275.800 C 70.224 274.887,73.362 274.402,74.134 275.174 C 74.368 275.408,75.244 275.600,76.080 275.600 C 76.916 275.600,77.600 275.762,77.600 275.960 C 77.600 276.158,78.365 276.410,79.300 276.521 C 81.161 276.741,84.931 277.482,90.800 278.783 C 92.890 279.246,95.590 279.816,96.800 280.049 C 98.010 280.283,99.810 280.637,100.800 280.837 C 103.016 281.284,106.318 281.913,109.100 282.418 C 110.255 282.628,112.190 282.980,113.400 283.200 C 114.610 283.420,116.590 283.780,117.800 284.000 C 119.010 284.220,120.990 284.580,122.200 284.800 C 123.410 285.020,125.435 285.391,126.700 285.624 C 133.178 286.819,133.382 286.741,137.255 281.600 C 137.835 280.830,138.645 279.810,139.055 279.334 C 140.458 277.703,141.012 276.999,141.995 275.600 C 142.536 274.830,143.124 274.020,143.301 273.800 C 149.421 266.213,150.798 262.985,149.192 259.985 C 148.976 259.582,148.800 258.849,148.800 258.355 C 148.800 257.861,148.634 256.904,148.431 256.228 C 148.228 255.553,147.859 254.010,147.611 252.800 C 147.363 251.590,146.997 249.880,146.797 249.000 C 146.596 248.120,146.055 245.600,145.592 243.400 C 145.130 241.200,144.493 238.308,144.176 236.974 C 143.859 235.640,143.600 233.896,143.600 233.098 C 143.600 232.300,143.439 231.548,143.242 231.426 C 142.906 231.218,142.754 230.499,142.159 226.300 C 142.026 225.365,141.756 224.429,141.559 224.220 C 141.362 224.011,141.200 223.167,141.200 222.344 C 141.200 221.521,141.020 220.736,140.800 220.600 C 140.580 220.464,140.400 219.654,140.400 218.800 C 140.400 217.946,140.220 217.136,140.000 217.000 C 139.780 216.864,139.600 216.054,139.600 215.200 C 139.600 214.346,139.420 213.536,139.200 213.400 C 138.980 213.264,138.800 212.479,138.800 211.656 C 138.800 210.833,138.638 209.989,138.441 209.780 C 138.244 209.571,137.985 208.680,137.867 207.800 C 137.749 206.920,137.450 205.300,137.204 204.200 C 136.957 203.100,136.664 201.570,136.553 200.800 C 136.442 200.030,136.193 199.040,136.000 198.600 C 135.807 198.160,135.558 197.170,135.447 196.400 C 135.336 195.630,135.044 194.100,134.800 193.000 C 134.556 191.900,134.264 190.370,134.153 189.600 C 134.042 188.830,133.793 187.840,133.600 187.400 C 133.407 186.960,133.158 185.970,133.047 185.200 C 132.936 184.430,132.654 182.945,132.422 181.900 C 131.782 179.019,131.319 176.828,130.838 174.400 C 130.598 173.190,130.221 171.390,130.000 170.400 C 129.779 169.410,129.432 167.700,129.229 166.600 C 129.027 165.500,128.487 162.937,128.030 160.904 C 127.574 158.872,127.200 156.587,127.200 155.828 C 127.200 155.068,127.020 154.336,126.800 154.200 C 126.580 154.064,126.400 153.164,126.400 152.200 C 126.400 151.236,126.220 150.336,126.000 150.200 C 125.780 150.064,125.600 149.164,125.600 148.200 C 125.600 147.236,125.420 146.336,125.200 146.200 C 124.980 146.064,124.800 145.164,124.800 144.200 C 124.800 143.236,124.620 142.336,124.400 142.200 C 124.180 142.064,124.000 141.164,124.000 140.200 C 124.000 139.236,123.820 138.336,123.600 138.200 C 123.380 138.064,123.200 137.099,123.200 136.056 C 123.200 135.013,123.037 133.989,122.839 133.780 C 122.501 133.424,122.332 132.456,121.779 127.700 C 121.658 126.655,121.396 125.440,121.198 125.000 C 121.001 124.560,120.738 123.210,120.614 122.000 C 120.491 120.790,120.197 118.450,119.962 116.800 C 119.321 112.314,119.074 101.266,119.575 99.500 C 119.809 98.675,120.198 97.235,120.439 96.300 C 120.680 95.365,121.040 94.287,121.239 93.905 C 121.438 93.523,121.600 92.938,121.600 92.605 C 121.600 92.272,121.780 92.000,122.000 92.000 C 122.220 92.000,122.400 91.640,122.400 91.200 C 122.400 90.760,122.580 90.400,122.800 90.400 C 123.020 90.400,123.200 90.040,123.200 89.600 C 123.200 89.160,123.351 88.800,123.536 88.800 C 123.720 88.800,124.070 88.364,124.313 87.831 C 125.081 86.145,130.997 79.763,133.427 78.000 C 134.839 76.975,136.569 75.961,137.300 75.729 C 137.685 75.607,138.000 75.348,138.000 75.153 C 138.000 74.959,138.360 74.800,138.800 74.800 C 139.240 74.800,139.600 74.620,139.600 74.400 C 139.600 74.180,139.949 74.000,140.376 74.000 C 140.803 74.000,141.264 73.820,141.400 73.600 C 141.536 73.380,142.087 73.200,142.624 73.200 C 143.161 73.200,143.600 73.020,143.600 72.800 C 143.600 72.580,144.129 72.400,144.776 72.400 C 145.423 72.400,146.064 72.220,146.200 72.000 C 146.336 71.780,147.292 71.587,148.324 71.572 C 149.356 71.556,150.560 71.389,151.000 71.200 C 152.020 70.762,152.873 70.732,153.473 71.113 M244.200 85.513 C 243.760 85.891,242.410 87.366,241.200 88.790 C 235.979 94.938,228.621 102.783,217.700 113.846 C 213.571 118.029,213.486 118.589,216.489 121.898 C 221.685 127.623,232.643 137.939,240.264 144.278 C 241.109 144.980,242.340 146.032,243.000 146.615 C 246.086 149.341,246.354 149.301,250.294 145.521 C 253.335 142.605,261.008 134.309,264.835 129.800 C 265.582 128.920,266.467 127.930,266.801 127.600 C 267.135 127.270,267.899 126.341,268.498 125.535 C 269.098 124.729,269.822 123.829,270.107 123.535 C 270.393 123.241,271.064 122.370,271.600 121.600 C 272.136 120.830,272.798 119.968,273.073 119.685 C 273.347 119.402,273.887 118.637,274.272 117.985 C 274.657 117.333,275.114 116.800,275.286 116.800 C 275.459 116.800,275.600 116.151,275.600 115.357 C 275.600 114.047,275.224 113.556,271.542 110.057 C 269.309 107.936,262.690 101.385,256.831 95.500 C 245.996 84.616,245.605 84.307,244.200 85.513 M258.000 103.546 C 270.062 115.551,270.287 115.847,268.700 117.605 C 268.205 118.153,267.010 119.641,266.044 120.910 C 265.079 122.180,263.630 123.897,262.825 124.727 C 262.019 125.557,261.084 126.631,260.745 127.114 C 258.797 129.895,246.839 142.400,246.127 142.400 C 244.531 142.400,220.000 119.955,220.000 118.495 C 220.000 118.332,223.375 114.764,227.500 110.566 C 234.107 103.842,236.996 100.778,242.889 94.249 C 243.707 93.342,244.382 92.465,244.389 92.300 C 244.457 90.487,246.950 92.547,258.000 103.546 M244.800 220.383 C 244.250 220.568,243.133 220.738,242.319 220.760 C 241.504 220.782,240.424 220.961,239.919 221.158 C 239.413 221.355,238.190 221.732,237.200 221.994 C 232.650 223.201,225.677 226.138,221.600 228.564 C 220.610 229.153,219.485 229.738,219.100 229.864 C 218.715 229.990,218.400 230.252,218.400 230.447 C 218.400 230.641,218.214 230.800,217.987 230.800 C 217.610 230.800,209.266 236.218,208.800 236.765 C 208.523 237.090,205.615 239.282,204.400 240.081 C 203.850 240.443,202.860 241.223,202.200 241.814 C 201.540 242.406,200.371 243.364,199.603 243.945 C 198.834 244.525,197.821 245.375,197.350 245.834 C 196.880 246.293,195.629 247.373,194.570 248.234 C 189.266 252.549,169.509 272.269,163.526 279.222 C 162.495 280.420,160.736 282.390,159.616 283.600 C 157.263 286.144,156.857 287.218,157.740 288.565 C 158.436 289.627,158.241 289.604,173.600 290.404 C 211.098 292.357,227.609 291.832,248.400 288.024 C 249.610 287.803,251.320 287.515,252.200 287.386 C 253.080 287.256,254.160 286.994,254.600 286.802 C 255.040 286.611,255.940 286.363,256.600 286.252 C 257.260 286.140,258.610 285.845,259.600 285.596 C 260.590 285.346,261.987 285.045,262.704 284.927 C 263.421 284.808,264.106 284.551,264.227 284.356 C 264.348 284.160,264.889 284.000,265.429 284.000 C 265.969 284.000,266.723 283.838,267.105 283.641 C 267.487 283.444,269.150 282.879,270.800 282.387 C 272.450 281.895,275.060 281.058,276.600 280.528 C 278.140 279.998,281.650 278.812,284.400 277.892 C 287.150 276.973,289.490 276.110,289.600 275.976 C 289.710 275.841,290.655 275.482,291.700 275.178 C 292.745 274.874,293.600 274.485,293.600 274.313 C 293.600 274.141,293.943 274.000,294.362 274.000 C 294.781 274.000,295.906 273.614,296.862 273.143 C 297.818 272.672,298.960 272.150,299.400 271.982 C 300.568 271.538,305.684 269.232,306.495 268.784 C 306.877 268.573,307.462 268.400,307.795 268.400 C 308.128 268.400,308.400 268.220,308.400 268.000 C 308.400 267.780,308.627 267.600,308.904 267.600 C 310.100 267.600,316.802 263.982,316.862 263.304 C 317.018 261.542,316.652 260.658,315.083 259.013 C 314.157 258.041,312.050 255.751,310.400 253.923 C 306.989 250.144,300.743 244.254,295.599 239.966 C 291.807 236.804,284.627 231.600,284.058 231.600 C 283.889 231.600,283.402 231.285,282.975 230.900 C 279.922 228.146,268.684 223.361,261.000 221.544 C 256.353 220.446,246.671 219.751,244.800 220.383 M255.600 225.562 C 257.030 225.792,258.966 226.094,259.903 226.232 C 260.839 226.371,261.705 226.645,261.826 226.842 C 261.948 227.039,262.476 227.200,263.000 227.200 C 264.704 227.200,275.832 231.698,276.800 232.778 C 276.910 232.901,277.540 233.267,278.200 233.592 C 280.559 234.752,288.448 240.162,290.325 241.906 C 290.624 242.184,291.529 242.904,292.335 243.506 C 299.728 249.025,311.701 262.000,309.400 262.000 C 309.070 262.000,308.800 262.180,308.800 262.400 C 308.800 262.620,308.440 262.800,308.000 262.800 C 307.560 262.800,307.200 262.980,307.200 263.200 C 307.200 263.420,306.947 263.600,306.638 263.600 C 306.329 263.600,305.384 263.939,304.538 264.353 C 302.692 265.256,299.309 266.782,298.200 267.211 C 297.760 267.381,296.547 267.898,295.504 268.360 C 294.462 268.822,293.373 269.200,293.084 269.200 C 292.796 269.200,292.389 269.352,292.180 269.539 C 291.454 270.186,280.991 273.994,275.000 275.792 C 273.020 276.386,271.087 277.036,270.705 277.236 C 270.323 277.436,269.659 277.600,269.229 277.600 C 268.799 277.600,268.336 277.780,268.200 278.000 C 268.064 278.220,267.524 278.400,267.000 278.400 C 266.476 278.400,265.936 278.580,265.800 278.800 C 265.664 279.020,265.034 279.200,264.400 279.200 C 263.766 279.200,263.148 279.360,263.027 279.556 C 262.906 279.751,262.221 280.008,261.504 280.127 C 260.787 280.245,259.390 280.546,258.400 280.796 C 257.410 281.045,256.060 281.340,255.400 281.452 C 254.740 281.563,253.840 281.811,253.400 282.002 C 252.960 282.194,251.880 282.456,251.000 282.586 C 250.120 282.715,248.410 283.003,247.200 283.224 C 233.424 285.747,227.560 286.156,205.200 286.154 C 175.765 286.152,165.814 285.590,166.079 283.946 C 166.431 281.758,196.003 252.469,203.975 246.413 C 204.979 245.650,206.149 244.705,206.575 244.313 C 207.002 243.921,207.505 243.600,207.694 243.600 C 207.882 243.600,208.473 243.163,209.007 242.629 C 209.541 242.095,210.523 241.336,211.189 240.943 C 211.855 240.549,212.400 240.086,212.400 239.914 C 212.400 239.741,212.655 239.600,212.967 239.600 C 213.278 239.600,213.593 239.451,213.667 239.270 C 213.854 238.806,219.873 234.800,220.382 234.800 C 220.612 234.800,220.801 234.665,220.803 234.500 C 220.805 234.335,221.210 234.006,221.703 233.768 C 222.196 233.530,224.334 232.426,226.454 231.314 C 228.573 230.202,231.813 228.794,233.654 228.184 C 235.494 227.575,237.313 226.924,237.695 226.738 C 238.077 226.552,238.831 226.400,239.371 226.400 C 239.911 226.400,240.464 226.220,240.600 226.000 C 240.736 225.780,241.782 225.597,242.924 225.594 C 244.066 225.591,245.270 225.407,245.600 225.185 C 246.283 224.727,251.672 224.930,255.600 225.562 " stroke="none" fill="#000000" fill-rule="evenodd"></path><path id="path2" d="M150.000 66.400 C 149.670 66.613,148.556 66.791,147.524 66.794 C 146.492 66.797,145.536 66.980,145.400 67.200 C 145.264 67.420,144.634 67.600,144.000 67.600 C 143.366 67.600,142.736 67.780,142.600 68.000 C 142.464 68.220,142.001 68.400,141.571 68.400 C 141.141 68.400,140.477 68.569,140.095 68.776 C 139.713 68.983,138.230 69.721,136.800 70.416 C 130.865 73.303,125.877 77.410,121.997 82.606 C 118.346 87.495,117.100 90.195,114.804 98.200 C 114.495 99.277,114.409 102.413,114.541 107.800 C 114.747 116.212,114.986 118.406,116.800 128.600 C 117.035 129.920,117.395 131.990,117.600 133.200 C 118.380 137.801,119.105 141.639,119.945 145.600 C 120.154 146.590,120.539 148.480,120.800 149.800 C 121.061 151.120,121.421 152.920,121.600 153.800 C 121.779 154.680,122.112 156.390,122.339 157.600 C 122.566 158.810,123.302 162.386,123.976 165.548 C 124.649 168.709,125.200 171.893,125.200 172.624 C 125.200 173.355,125.361 174.052,125.558 174.174 C 125.755 174.295,126.018 175.071,126.142 175.897 C 126.267 176.724,126.477 178.120,126.609 179.000 C 126.742 179.880,127.007 180.960,127.200 181.400 C 127.529 182.151,127.702 183.069,128.256 187.000 C 128.380 187.880,128.644 188.771,128.841 188.980 C 129.038 189.189,129.200 190.008,129.200 190.800 C 129.200 191.592,129.362 192.411,129.559 192.620 C 129.756 192.829,130.020 193.720,130.144 194.600 C 130.698 198.531,130.871 199.449,131.200 200.200 C 131.393 200.640,131.642 201.630,131.753 202.400 C 131.864 203.170,132.146 204.655,132.378 205.700 C 132.610 206.745,132.980 208.410,133.200 209.400 C 133.420 210.390,133.780 212.010,134.000 213.000 C 134.220 213.990,134.572 215.565,134.783 216.500 C 134.993 217.435,135.369 219.190,135.618 220.400 C 136.330 223.864,136.902 226.500,137.983 231.300 C 138.193 232.235,138.547 233.900,138.769 235.000 C 138.992 236.100,139.536 238.620,139.978 240.600 C 140.421 242.580,140.987 245.460,141.236 247.000 C 141.485 248.540,141.849 250.213,142.045 250.719 C 142.240 251.224,142.400 252.249,142.400 252.995 C 142.400 253.742,142.561 254.452,142.758 254.574 C 142.955 254.695,143.218 255.471,143.342 256.297 C 143.467 257.124,143.677 258.520,143.809 259.400 C 143.942 260.280,144.254 261.415,144.504 261.922 C 144.988 262.904,144.772 263.446,142.930 265.860 C 142.452 266.487,140.749 268.800,139.145 271.000 C 137.542 273.200,136.123 275.090,135.992 275.200 C 135.861 275.310,135.494 275.779,135.177 276.243 C 134.860 276.706,133.814 278.010,132.853 279.141 L 131.105 281.196 128.853 280.967 C 127.614 280.841,126.240 280.581,125.800 280.390 C 125.360 280.198,124.100 279.939,123.000 279.813 C 118.444 279.292,117.381 279.105,117.020 278.761 C 116.811 278.563,115.787 278.400,114.744 278.400 C 113.701 278.400,112.736 278.220,112.600 278.000 C 112.464 277.780,111.499 277.600,110.456 277.600 C 109.413 277.600,108.389 277.437,108.180 277.239 C 107.971 277.040,106.990 276.781,106.000 276.662 C 105.010 276.544,103.300 276.264,102.200 276.040 C 101.100 275.816,99.120 275.450,97.800 275.228 C 95.733 274.880,92.537 274.206,84.000 272.319 C 83.010 272.100,81.480 271.749,80.600 271.539 C 79.720 271.328,78.280 270.996,77.400 270.800 C 76.520 270.604,74.990 270.234,74.000 269.979 C 68.715 268.613,66.000 269.414,66.000 272.338 C 66.000 272.786,65.820 273.264,65.600 273.400 C 65.380 273.536,65.200 274.076,65.200 274.600 C 65.200 275.124,65.056 275.642,64.879 275.751 C 64.703 275.860,64.307 276.872,64.000 278.000 C 63.693 279.128,63.297 280.140,63.121 280.249 C 62.944 280.358,62.800 280.799,62.800 281.229 C 62.800 281.659,62.620 282.368,62.400 282.805 C 62.180 283.242,61.820 283.958,61.600 284.395 C 61.380 284.832,61.200 285.541,61.200 285.971 C 61.200 286.401,61.020 286.864,60.800 287.000 C 59.689 287.687,62.032 290.662,66.073 293.694 C 66.875 294.296,67.771 295.026,68.065 295.316 C 68.359 295.607,70.220 297.148,72.200 298.740 C 74.180 300.333,76.298 302.078,76.907 302.618 C 77.516 303.158,78.152 303.600,78.321 303.600 C 78.489 303.600,79.251 304.143,80.014 304.806 C 82.261 306.760,86.554 309.837,93.800 314.686 C 97.540 317.189,100.817 319.409,101.083 319.619 C 101.349 319.828,101.676 320.000,101.811 320.000 C 101.946 320.000,102.841 320.540,103.800 321.200 C 104.759 321.860,105.737 322.400,105.972 322.400 C 106.207 322.400,106.400 322.580,106.400 322.800 C 106.400 323.020,106.745 323.200,107.167 323.200 C 107.588 323.200,107.993 323.337,108.067 323.504 C 108.354 324.158,115.171 327.201,118.200 328.027 C 126.322 330.243,142.397 331.765,173.400 333.252 C 186.239 333.868,216.672 333.874,223.000 333.262 C 230.076 332.577,238.019 331.581,240.400 331.080 C 240.950 330.965,242.480 330.660,243.800 330.402 C 246.890 329.801,248.456 329.454,253.691 328.216 C 256.052 327.657,258.437 327.200,258.991 327.200 C 259.546 327.200,260.000 327.020,260.000 326.800 C 260.000 326.580,260.529 326.400,261.176 326.400 C 261.823 326.400,262.464 326.220,262.600 326.000 C 262.736 325.780,263.366 325.600,264.000 325.600 C 264.634 325.600,265.264 325.420,265.400 325.200 C 265.536 324.980,266.076 324.800,266.600 324.800 C 267.124 324.800,267.664 324.620,267.800 324.400 C 267.936 324.180,268.487 324.000,269.024 324.000 C 269.561 324.000,270.000 323.820,270.000 323.600 C 270.000 323.380,270.540 323.200,271.200 323.200 C 271.860 323.200,272.400 323.020,272.400 322.800 C 272.400 322.580,272.762 322.400,273.205 322.400 C 273.648 322.400,274.323 322.235,274.705 322.034 C 275.087 321.832,276.030 321.403,276.800 321.081 C 277.570 320.759,278.830 320.221,279.600 319.885 C 280.370 319.550,281.805 318.944,282.789 318.538 C 285.456 317.438,296.754 311.687,298.022 310.785 C 298.628 310.353,299.239 310.000,299.380 310.000 C 299.664 310.000,305.683 306.011,306.000 305.613 C 306.110 305.475,306.830 304.923,307.600 304.386 C 311.687 301.540,323.195 290.698,323.202 289.688 C 323.203 289.530,323.743 288.825,324.402 288.122 C 325.061 287.419,325.600 286.676,325.600 286.471 C 325.600 286.266,325.864 285.879,326.187 285.611 C 326.921 285.002,330.135 279.514,331.933 275.800 C 333.764 272.017,334.504 270.219,335.223 267.800 C 335.484 266.920,335.856 265.887,336.049 265.505 C 336.242 265.123,336.400 264.369,336.400 263.829 C 336.400 263.289,336.561 262.748,336.758 262.626 C 336.955 262.505,337.219 261.729,337.346 260.903 C 337.473 260.076,337.782 258.230,338.032 256.800 C 338.715 252.898,338.948 240.934,338.378 239.000 C 337.656 236.551,336.315 233.045,335.938 232.620 C 335.752 232.411,335.600 231.916,335.600 231.520 C 335.600 231.124,335.462 230.800,335.294 230.800 C 335.126 230.800,334.682 230.125,334.306 229.300 C 333.482 227.486,332.379 225.618,331.700 224.884 C 331.425 224.586,331.200 224.216,331.200 224.060 C 331.200 223.820,327.893 218.997,326.908 217.800 C 326.727 217.580,326.152 216.796,325.632 216.058 C 322.977 212.293,309.744 199.054,305.968 196.385 C 305.216 195.853,304.187 195.008,303.682 194.509 C 303.177 194.009,302.635 193.600,302.478 193.600 C 302.320 193.600,301.734 193.195,301.175 192.700 C 300.615 192.205,299.872 191.620,299.522 191.400 C 299.173 191.180,297.293 189.937,295.344 188.637 C 293.395 187.338,290.810 185.733,289.600 185.072 C 288.390 184.410,287.310 183.753,287.200 183.613 C 286.814 183.120,276.904 178.400,276.256 178.400 C 275.895 178.400,275.600 178.220,275.600 178.000 C 275.600 177.780,275.161 177.600,274.624 177.600 C 274.087 177.600,273.536 177.420,273.400 177.200 C 273.264 176.980,272.724 176.800,272.200 176.800 C 271.676 176.800,271.136 176.620,271.000 176.400 C 270.864 176.180,270.259 176.000,269.656 176.000 C 269.053 176.000,268.389 175.840,268.180 175.644 C 266.829 174.378,248.766 174.376,247.420 175.642 C 247.211 175.839,246.457 176.000,245.744 176.000 C 245.031 176.000,244.336 176.180,244.200 176.400 C 244.064 176.620,243.423 176.800,242.776 176.800 C 242.129 176.800,241.600 176.980,241.600 177.200 C 241.600 177.420,241.238 177.600,240.795 177.600 C 240.352 177.600,239.677 177.759,239.295 177.953 C 238.913 178.148,238.150 178.486,237.600 178.705 C 235.325 179.613,226.190 184.188,226.067 184.482 C 225.993 184.657,225.766 184.800,225.561 184.800 C 225.153 184.800,222.513 186.443,217.106 190.062 C 215.185 191.348,213.518 192.400,213.403 192.400 C 213.287 192.400,212.628 192.940,211.937 193.600 C 211.246 194.260,210.504 194.800,210.288 194.800 C 210.071 194.800,209.603 195.125,209.247 195.522 C 208.891 195.920,208.221 196.505,207.757 196.822 C 206.827 197.460,204.924 199.052,198.026 204.964 C 193.810 208.577,177.995 224.156,172.902 229.711 C 169.765 233.133,169.324 232.926,169.045 227.900 C 168.826 223.971,168.477 218.935,167.611 207.200 C 167.392 204.230,167.034 199.280,166.816 196.200 C 166.415 190.542,165.917 184.179,165.187 175.400 C 164.967 172.760,164.618 168.170,164.411 165.200 C 164.203 162.230,163.850 157.190,163.626 154.000 C 163.402 150.810,163.045 145.680,162.832 142.600 C 162.620 139.520,162.249 134.687,162.009 131.859 C 161.593 126.963,161.609 126.687,162.352 126.059 C 164.089 124.592,164.660 124.147,166.000 123.214 C 166.770 122.677,167.490 122.131,167.600 122.000 C 167.710 121.869,168.430 121.323,169.200 120.786 C 173.412 117.853,174.948 115.833,173.600 115.000 C 173.380 114.864,173.200 114.401,173.200 113.971 C 173.200 113.541,173.041 112.877,172.847 112.495 C 172.652 112.113,172.316 111.350,172.100 110.800 C 171.884 110.250,171.479 109.260,171.200 108.600 C 170.544 107.047,170.190 106.119,169.600 104.400 C 169.336 103.630,168.967 102.640,168.781 102.200 C 168.595 101.760,167.887 99.690,167.208 97.600 C 166.528 95.510,165.798 93.487,165.586 93.105 C 165.374 92.723,165.200 92.136,165.200 91.800 C 165.200 91.464,165.035 90.877,164.834 90.495 C 164.347 89.568,160.775 77.772,159.537 73.000 C 159.309 72.120,158.960 71.087,158.761 70.705 C 158.562 70.323,158.400 69.736,158.400 69.400 C 158.400 68.741,157.689 67.346,156.929 66.515 C 156.367 65.901,150.912 65.810,150.000 66.400 M153.473 71.113 C 153.955 71.419,154.404 72.654,155.977 78.000 C 156.463 79.650,157.297 82.351,157.830 84.001 C 158.364 85.652,158.800 87.396,158.800 87.878 C 158.800 88.359,158.980 88.864,159.200 89.000 C 159.420 89.136,159.600 89.676,159.600 90.200 C 159.600 90.724,159.780 91.264,160.000 91.400 C 160.220 91.536,160.400 92.076,160.400 92.600 C 160.400 93.124,160.580 93.664,160.800 93.800 C 161.020 93.936,161.200 94.399,161.200 94.829 C 161.200 95.259,161.380 95.968,161.600 96.405 C 161.820 96.842,162.180 97.558,162.400 97.995 C 162.620 98.432,162.800 99.141,162.800 99.571 C 162.800 100.001,162.980 100.464,163.200 100.600 C 163.420 100.736,163.600 101.276,163.600 101.800 C 163.600 102.324,163.780 102.864,164.000 103.000 C 164.220 103.136,164.400 103.563,164.400 103.948 C 164.400 104.334,164.760 105.395,165.200 106.306 C 165.640 107.216,166.000 108.152,166.000 108.386 C 166.000 108.620,166.159 109.123,166.353 109.505 C 167.438 111.638,168.496 114.712,168.323 115.231 C 168.237 115.490,165.754 117.524,162.807 119.751 C 155.715 125.110,156.367 122.259,158.036 140.600 C 158.256 143.020,158.620 148.420,158.844 152.600 C 159.326 161.584,159.827 168.868,160.398 175.200 C 161.019 182.077,161.952 193.974,162.800 205.800 C 163.037 209.100,163.396 214.050,163.600 216.800 C 163.803 219.550,164.155 224.680,164.382 228.200 C 165.225 241.267,165.401 242.000,167.707 242.000 C 168.533 242.000,168.759 241.783,174.600 235.393 C 185.282 223.706,197.550 211.604,203.184 207.196 C 204.166 206.428,205.377 205.407,205.875 204.927 C 206.374 204.447,207.461 203.548,208.291 202.930 C 209.121 202.311,209.890 201.711,210.000 201.597 C 211.591 199.944,220.438 193.600,221.152 193.600 C 221.399 193.600,221.600 193.450,221.600 193.268 C 221.600 193.085,222.095 192.680,222.700 192.368 C 223.305 192.055,223.980 191.661,224.200 191.492 C 226.399 189.798,235.474 184.955,239.200 183.487 C 243.810 181.671,247.104 180.676,251.000 179.923 C 254.366 179.272,261.618 179.084,264.000 179.585 C 267.909 180.408,272.047 181.606,272.580 182.070 C 272.789 182.251,273.203 182.400,273.499 182.400 C 273.796 182.400,274.784 182.760,275.694 183.200 C 276.605 183.640,277.586 184.000,277.875 184.000 C 278.164 184.000,278.400 184.180,278.400 184.400 C 278.400 184.620,278.745 184.800,279.167 184.800 C 279.588 184.800,279.993 184.936,280.067 185.102 C 280.140 185.268,281.460 186.025,283.000 186.784 C 284.540 187.544,286.552 188.668,287.472 189.283 C 288.392 189.897,289.337 190.400,289.572 190.400 C 289.807 190.400,290.000 190.580,290.000 190.800 C 290.000 191.020,290.236 191.200,290.525 191.200 C 290.813 191.200,291.415 191.541,291.862 191.957 C 292.309 192.374,293.198 193.005,293.838 193.358 C 299.474 196.479,312.732 208.095,319.143 215.532 C 322.527 219.456,325.183 222.955,325.192 223.500 C 325.196 223.775,325.350 224.000,325.532 224.000 C 325.715 224.000,326.120 224.492,326.432 225.094 C 326.745 225.696,327.270 226.512,327.600 226.906 C 328.417 227.882,330.163 230.938,331.426 233.600 C 332.000 234.810,332.634 236.113,332.835 236.495 C 333.036 236.877,333.200 237.541,333.200 237.971 C 333.200 238.401,333.354 238.848,333.543 238.965 C 334.430 239.513,334.616 243.918,334.032 250.600 C 333.433 257.457,333.171 259.349,332.761 259.780 C 332.563 259.989,332.400 260.666,332.400 261.285 C 332.400 261.904,332.238 262.723,332.041 263.105 C 331.844 263.487,331.266 265.150,330.758 266.800 C 330.249 268.450,329.510 270.390,329.116 271.112 C 328.722 271.834,328.400 272.689,328.400 273.012 C 328.400 273.335,328.220 273.600,328.000 273.600 C 327.780 273.600,327.600 273.960,327.600 274.400 C 327.600 274.840,327.420 275.200,327.200 275.200 C 326.980 275.200,326.800 275.560,326.800 276.000 C 326.800 276.440,326.664 276.800,326.498 276.800 C 326.331 276.800,325.958 277.336,325.668 277.991 C 324.071 281.599,318.775 288.361,313.913 293.000 C 306.346 300.220,300.493 304.415,291.200 309.281 C 289.330 310.260,287.440 311.266,287.000 311.516 C 285.435 312.406,282.642 313.600,282.125 313.600 C 281.836 313.600,281.600 313.780,281.600 314.000 C 281.600 314.220,281.364 314.400,281.075 314.400 C 280.786 314.400,279.805 314.760,278.894 315.200 C 277.984 315.640,277.084 316.000,276.894 316.000 C 276.705 316.000,275.841 316.342,274.975 316.760 C 273.430 317.506,265.863 320.156,263.300 320.849 C 262.585 321.042,261.415 321.365,260.700 321.567 C 255.304 323.089,247.834 324.853,246.004 325.039 C 244.792 325.162,243.440 325.418,243.000 325.608 C 242.560 325.799,241.390 326.059,240.400 326.187 C 239.410 326.315,237.430 326.602,236.000 326.824 C 225.226 328.500,218.549 328.891,200.800 328.887 C 175.844 328.880,155.323 327.834,129.526 325.255 C 122.258 324.528,117.778 323.323,112.611 320.705 C 110.845 319.810,108.996 318.881,108.503 318.639 C 108.010 318.398,107.605 318.065,107.603 317.900 C 107.601 317.735,107.426 317.600,107.213 317.600 C 106.838 317.600,102.288 314.828,101.317 314.008 C 101.051 313.784,100.674 313.600,100.479 313.600 C 100.284 313.600,99.798 313.240,99.400 312.800 C 99.002 312.360,98.449 312.000,98.171 312.000 C 97.894 312.000,97.607 311.855,97.533 311.679 C 97.460 311.502,95.690 310.202,93.600 308.789 C 87.391 304.592,78.246 297.688,75.856 295.393 C 75.165 294.730,73.970 293.748,73.200 293.213 C 72.430 292.677,71.710 292.140,71.600 292.019 C 71.490 291.899,70.203 290.765,68.739 289.500 L 66.078 287.201 66.596 285.500 C 67.206 283.498,68.598 279.742,69.526 277.600 C 69.764 277.050,70.015 276.240,70.083 275.800 C 70.224 274.887,73.362 274.402,74.134 275.174 C 74.368 275.408,75.244 275.600,76.080 275.600 C 76.916 275.600,77.600 275.762,77.600 275.960 C 77.600 276.158,78.365 276.410,79.300 276.521 C 81.161 276.741,84.931 277.482,90.800 278.783 C 92.890 279.246,95.590 279.816,96.800 280.049 C 98.010 280.283,99.810 280.637,100.800 280.837 C 103.016 281.284,106.318 281.913,109.100 282.418 C 110.255 282.628,112.190 282.980,113.400 283.200 C 114.610 283.420,116.590 283.780,117.800 284.000 C 119.010 284.220,120.990 284.580,122.200 284.800 C 123.410 285.020,125.435 285.391,126.700 285.624 C 133.178 286.819,133.382 286.741,137.255 281.600 C 137.835 280.830,138.645 279.810,139.055 279.334 C 140.458 277.703,141.012 276.999,141.995 275.600 C 142.536 274.830,143.124 274.020,143.301 273.800 C 149.421 266.213,150.798 262.985,149.192 259.985 C 148.976 259.582,148.800 258.849,148.800 258.355 C 148.800 257.861,148.634 256.904,148.431 256.228 C 148.228 255.553,147.859 254.010,147.611 252.800 C 147.363 251.590,146.997 249.880,146.797 249.000 C 146.596 248.120,146.055 245.600,145.592 243.400 C 145.130 241.200,144.493 238.308,144.176 236.974 C 143.859 235.640,143.600 233.896,143.600 233.098 C 143.600 232.300,143.439 231.548,143.242 231.426 C 142.906 231.218,142.754 230.499,142.159 226.300 C 142.026 225.365,141.756 224.429,141.559 224.220 C 141.362 224.011,141.200 223.167,141.200 222.344 C 141.200 221.521,141.020 220.736,140.800 220.600 C 140.580 220.464,140.400 219.654,140.400 218.800 C 140.400 217.946,140.220 217.136,140.000 217.000 C 139.780 216.864,139.600 216.054,139.600 215.200 C 139.600 214.346,139.420 213.536,139.200 213.400 C 138.980 213.264,138.800 212.479,138.800 211.656 C 138.800 210.833,138.638 209.989,138.441 209.780 C 138.244 209.571,137.985 208.680,137.867 207.800 C 137.749 206.920,137.450 205.300,137.204 204.200 C 136.957 203.100,136.664 201.570,136.553 200.800 C 136.442 200.030,136.193 199.040,136.000 198.600 C 135.807 198.160,135.558 197.170,135.447 196.400 C 135.336 195.630,135.044 194.100,134.800 193.000 C 134.556 191.900,134.264 190.370,134.153 189.600 C 134.042 188.830,133.793 187.840,133.600 187.400 C 133.407 186.960,133.158 185.970,133.047 185.200 C 132.936 184.430,132.654 182.945,132.422 181.900 C 131.782 179.019,131.319 176.828,130.838 174.400 C 130.598 173.190,130.221 171.390,130.000 170.400 C 129.779 169.410,129.432 167.700,129.229 166.600 C 129.027 165.500,128.487 162.937,128.030 160.904 C 127.574 158.872,127.200 156.587,127.200 155.828 C 127.200 155.068,127.020 154.336,126.800 154.200 C 126.580 154.064,126.400 153.164,126.400 152.200 C 126.400 151.236,126.220 150.336,126.000 150.200 C 125.780 150.064,125.600 149.164,125.600 148.200 C 125.600 147.236,125.420 146.336,125.200 146.200 C 124.980 146.064,124.800 145.164,124.800 144.200 C 124.800 143.236,124.620 142.336,124.400 142.200 C 124.180 142.064,124.000 141.164,124.000 140.200 C 124.000 139.236,123.820 138.336,123.600 138.200 C 123.380 138.064,123.200 137.099,123.200 136.056 C 123.200 135.013,123.037 133.989,122.839 133.780 C 122.501 133.424,122.332 132.456,121.779 127.700 C 121.658 126.655,121.396 125.440,121.198 125.000 C 121.001 124.560,120.738 123.210,120.614 122.000 C 120.491 120.790,120.197 118.450,119.962 116.800 C 119.321 112.314,119.074 101.266,119.575 99.500 C 119.809 98.675,120.198 97.235,120.439 96.300 C 120.680 95.365,121.040 94.287,121.239 93.905 C 121.438 93.523,121.600 92.938,121.600 92.605 C 121.600 92.272,121.780 92.000,122.000 92.000 C 122.220 92.000,122.400 91.640,122.400 91.200 C 122.400 90.760,122.580 90.400,122.800 90.400 C 123.020 90.400,123.200 90.040,123.200 89.600 C 123.200 89.160,123.351 88.800,123.536 88.800 C 123.720 88.800,124.070 88.364,124.313 87.831 C 125.081 86.145,130.997 79.763,133.427 78.000 C 134.839 76.975,136.569 75.961,137.300 75.729 C 137.685 75.607,138.000 75.348,138.000 75.153 C 138.000 74.959,138.360 74.800,138.800 74.800 C 139.240 74.800,139.600 74.620,139.600 74.400 C 139.600 74.180,139.949 74.000,140.376 74.000 C 140.803 74.000,141.264 73.820,141.400 73.600 C 141.536 73.380,142.087 73.200,142.624 73.200 C 143.161 73.200,143.600 73.020,143.600 72.800 C 143.600 72.580,144.129 72.400,144.776 72.400 C 145.423 72.400,146.064 72.220,146.200 72.000 C 146.336 71.780,147.292 71.587,148.324 71.572 C 149.356 71.556,150.560 71.389,151.000 71.200 C 152.020 70.762,152.873 70.732,153.473 71.113 M244.200 85.513 C 243.760 85.891,242.410 87.366,241.200 88.790 C 235.979 94.938,228.621 102.783,217.700 113.846 C 213.571 118.029,213.486 118.589,216.489 121.898 C 221.685 127.623,232.643 137.939,240.264 144.278 C 241.109 144.980,242.340 146.032,243.000 146.615 C 246.086 149.341,246.354 149.301,250.294 145.521 C 253.335 142.605,261.008 134.309,264.835 129.800 C 265.582 128.920,266.467 127.930,266.801 127.600 C 267.135 127.270,267.899 126.341,268.498 125.535 C 269.098 124.729,269.822 123.829,270.107 123.535 C 270.393 123.241,271.064 122.370,271.600 121.600 C 272.136 120.830,272.798 119.968,273.073 119.685 C 273.347 119.402,273.887 118.637,274.272 117.985 C 274.657 117.333,275.114 116.800,275.286 116.800 C 275.459 116.800,275.600 116.151,275.600 115.357 C 275.600 114.047,275.224 113.556,271.542 110.057 C 269.309 107.936,262.690 101.385,256.831 95.500 C 245.996 84.616,245.605 84.307,244.200 85.513 M258.000 103.546 C 270.062 115.551,270.287 115.847,268.700 117.605 C 268.205 118.153,267.010 119.641,266.044 120.910 C 265.079 122.180,263.630 123.897,262.825 124.727 C 262.019 125.557,261.084 126.631,260.745 127.114 C 258.797 129.895,246.839 142.400,246.127 142.400 C 244.531 142.400,220.000 119.955,220.000 118.495 C 220.000 118.332,223.375 114.764,227.500 110.566 C 234.107 103.842,236.996 100.778,242.889 94.249 C 243.707 93.342,244.382 92.465,244.389 92.300 C 244.457 90.487,246.950 92.547,258.000 103.546 M244.800 220.383 C 244.250 220.568,243.133 220.738,242.319 220.760 C 241.504 220.782,240.424 220.961,239.919 221.158 C 239.413 221.355,238.190 221.732,237.200 221.994 C 232.650 223.201,225.677 226.138,221.600 228.564 C 220.610 229.153,219.485 229.738,219.100 229.864 C 218.715 229.990,218.400 230.252,218.400 230.447 C 218.400 230.641,218.214 230.800,217.987 230.800 C 217.610 230.800,209.266 236.218,208.800 236.765 C 208.523 237.090,205.615 239.282,204.400 240.081 C 203.850 240.443,202.860 241.223,202.200 241.814 C 201.540 242.406,200.371 243.364,199.603 243.945 C 198.834 244.525,197.821 245.375,197.350 245.834 C 196.880 246.293,195.629 247.373,194.570 248.234 C 189.266 252.549,169.509 272.269,163.526 279.222 C 162.495 280.420,160.736 282.390,159.616 283.600 C 157.263 286.144,156.857 287.218,157.740 288.565 C 158.436 289.627,158.241 289.604,173.600 290.404 C 211.098 292.357,227.609 291.832,248.400 288.024 C 249.610 287.803,251.320 287.515,252.200 287.386 C 253.080 287.256,254.160 286.994,254.600 286.802 C 255.040 286.611,255.940 286.363,256.600 286.252 C 257.260 286.140,258.610 285.845,259.600 285.596 C 260.590 285.346,261.987 285.045,262.704 284.927 C 263.421 284.808,264.106 284.551,264.227 284.356 C 264.348 284.160,264.889 284.000,265.429 284.000 C 265.969 284.000,266.723 283.838,267.105 283.641 C 267.487 283.444,269.150 282.879,270.800 282.387 C 272.450 281.895,275.060 281.058,276.600 280.528 C 278.140 279.998,281.650 278.812,284.400 277.892 C 287.150 276.973,289.490 276.110,289.600 275.976 C 289.710 275.841,290.655 275.482,291.700 275.178 C 292.745 274.874,293.600 274.485,293.600 274.313 C 293.600 274.141,293.943 274.000,294.362 274.000 C 294.781 274.000,295.906 273.614,296.862 273.143 C 297.818 272.672,298.960 272.150,299.400 271.982 C 300.568 271.538,305.684 269.232,306.495 268.784 C 306.877 268.573,307.462 268.400,307.795 268.400 C 308.128 268.400,308.400 268.220,308.400 268.000 C 308.400 267.780,308.627 267.600,308.904 267.600 C 310.100 267.600,316.802 263.982,316.862 263.304 C 317.018 261.542,316.652 260.658,315.083 259.013 C 314.157 258.041,312.050 255.751,310.400 253.923 C 306.989 250.144,300.743 244.254,295.599 239.966 C 291.807 236.804,284.627 231.600,284.058 231.600 C 283.889 231.600,283.402 231.285,282.975 230.900 C 279.922 228.146,268.684 223.361,261.000 221.544 C 256.353 220.446,246.671 219.751,244.800 220.383 M255.600 225.562 C 257.030 225.792,258.966 226.094,259.903 226.232 C 260.839 226.371,261.705 226.645,261.826 226.842 C 261.948 227.039,262.476 227.200,263.000 227.200 C 264.704 227.200,275.832 231.698,276.800 232.778 C 276.910 232.901,277.540 233.267,278.200 233.592 C 280.559 234.752,288.448 240.162,290.325 241.906 C 290.624 242.184,291.529 242.904,292.335 243.506 C 299.728 249.025,311.701 262.000,309.400 262.000 C 309.070 262.000,308.800 262.180,308.800 262.400 C 308.800 262.620,308.440 262.800,308.000 262.800 C 307.560 262.800,307.200 262.980,307.200 263.200 C 307.200 263.420,306.947 263.600,306.638 263.600 C 306.329 263.600,305.384 263.939,304.538 264.353 C 302.692 265.256,299.309 266.782,298.200 267.211 C 297.760 267.381,296.547 267.898,295.504 268.360 C 294.462 268.822,293.373 269.200,293.084 269.200 C 292.796 269.200,292.389 269.352,292.180 269.539 C 291.454 270.186,280.991 273.994,275.000 275.792 C 273.020 276.386,271.087 277.036,270.705 277.236 C 270.323 277.436,269.659 277.600,269.229 277.600 C 268.799 277.600,268.336 277.780,268.200 278.000 C 268.064 278.220,267.524 278.400,267.000 278.400 C 266.476 278.400,265.936 278.580,265.800 278.800 C 265.664 279.020,265.034 279.200,264.400 279.200 C 263.766 279.200,263.148 279.360,263.027 279.556 C 262.906 279.751,262.221 280.008,261.504 280.127 C 260.787 280.245,259.390 280.546,258.400 280.796 C 257.410 281.045,256.060 281.340,255.400 281.452 C 254.740 281.563,253.840 281.811,253.400 282.002 C 252.960 282.194,251.880 282.456,251.000 282.586 C 250.120 282.715,248.410 283.003,247.200 283.224 C 233.424 285.747,227.560 286.156,205.200 286.154 C 175.765 286.152,165.814 285.590,166.079 283.946 C 166.431 281.758,196.003 252.469,203.975 246.413 C 204.979 245.650,206.149 244.705,206.575 244.313 C 207.002 243.921,207.505 243.600,207.694 243.600 C 207.882 243.600,208.473 243.163,209.007 242.629 C 209.541 242.095,210.523 241.336,211.189 240.943 C 211.855 240.549,212.400 240.086,212.400 239.914 C 212.400 239.741,212.655 239.600,212.967 239.600 C 213.278 239.600,213.593 239.451,213.667 239.270 C 213.854 238.806,219.873 234.800,220.382 234.800 C 220.612 234.800,220.801 234.665,220.803 234.500 C 220.805 234.335,221.210 234.006,221.703 233.768 C 222.196 233.530,224.334 232.426,226.454 231.314 C 228.573 230.202,231.813 228.794,233.654 228.184 C 235.494 227.575,237.313 226.924,237.695 226.738 C 238.077 226.552,238.831 226.400,239.371 226.400 C 239.911 226.400,240.464 226.220,240.600 226.000 C 240.736 225.780,241.782 225.597,242.924 225.594 C 244.066 225.591,245.270 225.407,245.600 225.185 C 246.283 224.727,251.672 224.930,255.600 225.562 " stroke="none" fill="#000000" fill-rule="evenodd"></path><path id="path3" d="" stroke="none" fill="#080404" fill-rule="evenodd"></path><path id="path4" d="" stroke="none" fill="#080404" fill-rule="evenodd"></path></g></svg>
