<?xml version="1.0" encoding="UTF-8"?>
<!DOCTYPE svg PUBLIC "-//W3C//DTD SVG 1.1//EN" "http://www.w3.org/Graphics/SVG/1.1/DTD/svg11.dtd">
<svg xmlns="http://www.w3.org/2000/svg" version="1.1" width="512px" height="512px" style="shape-rendering:geometricPrecision; text-rendering:geometricPrecision; image-rendering:optimizeQuality; fill-rule:evenodd; clip-rule:evenodd" xmlns:xlink="http://www.w3.org/1999/xlink">
<g><path style="opacity:1" fill="#000000" d="M 202.5,58.5 C 217.524,58.5893 231.524,62.4226 244.5,70C 259.867,80.3635 273.7,92.5301 286,106.5C 284.007,116 280.174,124.833 274.5,133C 272.5,133.667 270.5,133.667 268.5,133C 233.328,118.122 198.661,119.122 164.5,136C 166.3,159.525 177.634,177.191 198.5,189C 205.497,192.721 212.83,195.554 220.5,197.5C 251.639,180.347 284.139,166.347 318,155.5C 320.881,156.043 322.881,157.709 324,160.5C 335.161,191.712 325.994,214.546 296.5,229C 271.148,239.176 246.148,250.176 221.5,262C 207.58,269.581 195.08,279.081 184,290.5C 170.217,306.965 165.884,325.632 171,346.5C 178.016,361.181 189.183,371.348 204.5,377C 228.572,384.724 253.238,387.724 278.5,386C 286.188,385.57 293.854,384.903 301.5,384C 327.844,379.731 354.011,374.565 380,368.5C 381.711,368.439 383.044,369.106 384,370.5C 386.711,378.299 389.211,386.132 391.5,394C 387.638,398.609 382.971,402.276 377.5,405C 350.184,421.658 321.517,435.658 291.5,447C 252.493,456.706 215.826,451.04 181.5,430C 152.859,409.229 137.359,381.062 135,345.5C 131.977,306.238 143.144,271.738 168.5,242C 116.035,208.292 105.535,164.126 137,109.5C 146.873,92.2411 160.039,78.0745 176.5,67C 184.734,62.4211 193.401,59.5878 202.5,58.5 Z M 201.5,67.5 C 213.891,67.3477 225.557,70.181 236.5,76C 251.646,85.1415 264.979,96.4749 276.5,110C 274.127,114.581 271.627,119.081 269,123.5C 241.686,112.574 213.686,110.574 185,117.5C 175.546,120.643 166.38,124.477 157.5,129C 155.406,130.255 154.406,132.088 154.5,134.5C 157.602,167.095 174.268,189.595 204.5,202C 210.158,204.373 215.991,206.206 222,207.5C 251.862,190.653 283.029,176.653 315.5,165.5C 323.097,183.686 319.763,199.519 305.5,213C 299.154,217.174 292.488,220.841 285.5,224C 260.249,233.641 235.582,244.641 211.5,257C 190.946,267.887 175.446,283.72 165,304.5C 152.078,346.487 166.578,374.32 208.5,388C 245.979,397.242 283.645,397.909 321.5,390C 339.569,386.483 357.569,382.649 375.5,378.5C 376.647,378.818 377.481,379.484 378,380.5C 378.773,384.153 379.94,387.653 381.5,391C 348.336,413.081 312.669,430.081 274.5,442C 238,445.712 205.333,436.378 176.5,414C 154.095,392.002 143.095,365.168 143.5,333.5C 143.933,299.678 155.433,270.345 178,245.5C 180.964,242.395 181.13,239.228 178.5,236C 133.026,213.226 119.193,178.059 137,130.5C 146.006,108.178 160.173,90.0111 179.5,76C 186.461,71.8523 193.795,69.019 201.5,67.5 Z"/></g>
</svg>
