<svg id="svg" version="1.1" width="400" height="400" viewBox="0 0 400 400" xmlns="http://www.w3.org/2000/svg" xmlns:xlink="http://www.w3.org/1999/xlink"><g id="svgg"><path id="path0" d="M253.897 37.134 C 253.511 37.287,252.188 38.580,250.958 40.006 C 242.113 50.268,228.010 64.400,226.615 64.400 C 225.651 64.400,217.350 56.420,208.400 46.890 C 205.536 43.840,203.919 42.415,203.316 42.409 C 202.354 42.399,197.525 47.100,183.200 61.992 C 174.824 70.699,174.568 71.027,174.949 72.532 C 175.566 74.968,199.526 96.903,202.903 98.123 C 204.639 98.750,211.538 92.373,219.049 83.200 C 219.679 82.430,220.376 81.605,220.597 81.366 C 221.624 80.260,224.660 76.598,225.177 75.843 C 225.494 75.379,225.866 74.910,226.003 74.800 C 226.140 74.690,226.835 73.745,227.546 72.700 C 229.393 69.985,229.736 70.167,237.589 78.010 C 237.925 78.346,239.280 79.516,240.600 80.610 C 241.920 81.705,243.270 82.873,243.600 83.207 C 243.930 83.541,245.190 84.618,246.400 85.600 C 247.610 86.582,248.870 87.661,249.200 87.997 C 249.530 88.334,250.430 89.082,251.200 89.660 C 251.970 90.238,253.140 91.180,253.800 91.755 C 254.460 92.329,255.323 92.799,255.717 92.800 C 256.739 92.800,268.510 80.673,272.800 75.200 C 273.570 74.218,274.599 72.961,275.087 72.407 C 277.574 69.582,281.600 63.767,281.600 62.999 C 281.600 62.409,280.003 60.551,276.700 57.298 C 263.235 44.038,256.174 37.206,255.933 37.203 C 255.786 37.201,255.426 37.123,255.133 37.028 C 254.840 36.933,254.284 36.981,253.897 37.134 M259.458 47.505 C 261.690 49.647,266.145 53.903,269.358 56.963 C 274.004 61.387,275.200 62.742,275.200 63.583 C 275.200 64.513,269.243 72.484,266.819 74.800 C 266.473 75.130,265.203 76.565,263.995 77.990 C 257.268 85.925,255.357 87.203,253.114 85.264 C 252.391 84.640,251.380 83.785,250.866 83.364 C 246.878 80.099,239.423 73.422,235.700 69.779 C 232.142 66.298,232.135 66.551,235.868 63.065 C 240.941 58.329,243.948 55.214,249.193 49.264 C 251.939 46.149,254.459 43.602,254.793 43.605 C 255.127 43.609,257.226 45.364,259.458 47.505 M220.500 65.967 C 222.205 67.582,223.600 69.164,223.600 69.482 C 223.600 69.953,220.451 74.464,219.608 75.200 C 219.482 75.310,218.759 76.210,218.001 77.200 C 217.243 78.190,216.348 79.270,216.011 79.600 C 215.675 79.930,214.533 81.232,213.474 82.494 C 210.581 85.940,204.034 92.400,203.435 92.400 C 202.993 92.400,201.098 91.160,200.400 90.414 C 200.290 90.296,199.301 89.480,198.203 88.600 C 193.694 84.988,180.800 72.482,180.800 71.721 C 180.800 71.437,185.838 66.118,191.996 59.902 L 203.192 48.600 210.296 55.815 C 214.203 59.784,218.795 64.352,220.500 65.967 M225.200 119.582 C 224.870 119.805,224.023 119.991,223.319 119.994 C 222.614 119.997,221.624 120.157,221.119 120.349 C 220.613 120.541,219.480 120.922,218.600 121.197 C 211.239 123.493,202.907 129.612,194.712 138.743 C 193.156 140.477,187.200 148.914,187.200 149.384 C 187.200 149.534,186.698 150.408,186.084 151.328 C 185.471 152.248,184.526 153.900,183.984 155.000 C 183.443 156.100,182.865 157.060,182.700 157.133 C 182.535 157.207,182.400 157.612,182.400 158.033 C 182.400 158.455,182.220 158.800,182.000 158.800 C 181.780 158.800,181.600 159.160,181.600 159.600 C 181.600 160.040,181.420 160.400,181.200 160.400 C 180.980 160.400,180.800 160.672,180.800 161.005 C 180.800 161.338,180.620 161.968,180.400 162.405 C 180.180 162.842,179.820 163.558,179.600 163.995 C 179.380 164.432,179.200 165.062,179.200 165.395 C 179.200 165.728,179.020 166.000,178.800 166.000 C 178.580 166.000,178.400 166.362,178.400 166.805 C 178.400 167.248,178.241 167.923,178.047 168.305 C 174.912 174.468,171.695 188.959,170.789 201.000 C 168.793 227.518,175.460 246.103,190.800 256.786 C 191.570 257.323,192.290 257.867,192.400 257.995 C 193.317 259.068,201.343 262.427,206.000 263.688 C 213.944 265.838,226.886 266.376,233.200 264.818 C 233.970 264.628,235.590 264.257,236.800 263.993 C 240.786 263.124,246.573 261.032,250.100 259.185 C 254.248 257.014,255.010 256.577,255.133 256.300 C 255.207 256.135,255.440 256.000,255.651 256.000 C 256.018 256.000,261.367 252.512,262.746 251.374 C 270.602 244.889,269.859 245.396,270.713 245.938 C 271.215 246.256,271.602 247.925,272.400 253.200 C 272.616 254.630,272.975 256.970,273.197 258.400 C 273.678 261.491,274.680 269.430,274.924 272.080 C 275.114 274.147,274.635 274.943,272.412 276.256 C 271.745 276.650,271.200 277.114,271.200 277.286 C 271.200 277.459,270.945 277.600,270.633 277.600 C 270.322 277.600,270.007 277.750,269.933 277.934 C 269.756 278.377,261.334 284.000,260.847 284.000 C 260.638 284.000,260.407 284.135,260.333 284.301 C 260.174 284.661,250.321 290.590,247.200 292.203 C 242.369 294.701,234.578 298.440,232.600 299.209 C 232.160 299.380,230.947 299.898,229.904 300.360 C 228.862 300.822,227.737 301.200,227.404 301.200 C 227.072 301.200,226.800 301.341,226.800 301.513 C 226.800 301.685,225.945 302.075,224.900 302.380 C 223.855 302.685,222.730 303.083,222.400 303.264 C 220.293 304.423,205.386 308.800,203.548 308.800 C 202.943 308.800,202.336 308.980,202.200 309.200 C 202.064 309.420,201.279 309.600,200.456 309.600 C 199.633 309.600,198.789 309.763,198.580 309.961 C 198.371 310.160,197.300 310.433,196.200 310.568 C 195.100 310.704,192.940 310.997,191.400 311.220 C 182.069 312.570,168.426 312.959,161.600 312.069 C 155.356 311.254,154.602 311.120,154.220 310.759 C 154.011 310.562,153.347 310.400,152.744 310.400 C 152.141 310.400,151.536 310.220,151.400 310.000 C 151.264 309.780,150.623 309.600,149.976 309.600 C 149.329 309.600,148.800 309.420,148.800 309.200 C 148.800 308.980,148.422 308.800,147.960 308.800 C 147.059 308.800,140.578 305.656,138.600 304.259 C 133.004 300.306,129.934 296.698,126.779 290.366 C 125.637 288.075,124.545 285.887,124.352 285.505 C 124.158 285.123,124.000 284.459,124.000 284.029 C 124.000 283.599,123.820 283.136,123.600 283.000 C 123.380 282.864,123.200 282.259,123.200 281.656 C 123.200 281.053,123.038 280.389,122.841 280.180 C 122.644 279.971,122.380 279.080,122.256 278.200 C 122.132 277.320,121.811 275.340,121.543 273.800 C 120.917 270.205,120.895 252.712,121.512 249.200 C 121.763 247.770,122.165 245.610,122.405 244.400 C 122.645 243.190,122.941 241.524,123.063 240.697 C 123.185 239.871,123.445 239.095,123.642 238.974 C 123.839 238.852,124.000 238.144,124.000 237.400 C 124.000 236.656,124.180 235.936,124.400 235.800 C 124.620 235.664,124.800 235.034,124.800 234.400 C 124.800 233.766,124.980 233.136,125.200 233.000 C 125.420 232.864,125.600 232.259,125.600 231.656 C 125.600 231.053,125.825 230.322,126.100 230.030 C 126.500 229.606,126.500 229.463,126.100 229.317 C 125.825 229.216,125.600 228.899,125.600 228.613 C 125.600 227.836,123.793 226.800,122.438 226.800 C 121.783 226.800,121.136 226.620,121.000 226.400 C 120.864 226.180,120.144 226.000,119.400 226.000 C 118.656 226.000,117.936 225.820,117.800 225.600 C 117.664 225.380,117.101 225.200,116.549 225.200 C 115.997 225.200,113.732 224.740,111.516 224.179 C 105.396 222.627,103.681 223.344,103.619 227.476 C 103.609 228.178,103.440 228.852,103.244 228.973 C 103.049 229.094,102.792 229.779,102.673 230.496 C 102.555 231.213,102.254 232.610,102.004 233.600 C 101.755 234.590,101.460 235.940,101.348 236.600 C 101.237 237.260,100.990 238.160,100.800 238.600 C 100.610 239.040,100.352 239.985,100.227 240.700 C 100.102 241.415,99.898 242.585,99.773 243.300 C 99.648 244.015,99.390 244.960,99.200 245.400 C 98.843 246.228,98.513 247.837,98.136 250.600 C 98.016 251.480,97.756 252.371,97.559 252.580 C 97.362 252.789,97.200 253.698,97.200 254.600 C 97.200 255.502,97.036 256.411,96.835 256.620 C 96.635 256.829,96.369 257.990,96.246 259.200 C 96.122 260.410,95.832 262.840,95.600 264.600 C 94.110 275.908,93.883 294.900,95.203 297.800 C 95.403 298.240,95.655 299.680,95.763 301.000 C 96.060 304.627,96.407 306.912,96.795 307.800 C 96.988 308.240,97.237 309.140,97.349 309.800 C 97.706 311.915,98.052 313.379,98.387 314.200 C 98.566 314.640,98.988 315.900,99.324 317.000 C 101.191 323.115,106.324 333.622,109.094 337.000 C 109.274 337.220,109.855 338.030,110.384 338.800 C 111.817 340.883,118.640 347.524,121.606 349.722 C 123.033 350.780,124.475 351.860,124.811 352.122 C 126.583 353.507,136.459 358.400,137.481 358.400 C 137.772 358.400,138.323 358.559,138.705 358.753 C 140.338 359.584,141.663 359.970,146.200 360.936 C 155.094 362.829,156.520 362.958,168.200 362.926 C 180.602 362.893,183.700 362.590,196.600 360.152 C 198.360 359.819,200.387 359.449,201.104 359.329 C 201.821 359.209,202.506 358.951,202.627 358.756 C 202.748 358.560,203.366 358.400,204.000 358.400 C 204.634 358.400,205.264 358.220,205.400 358.000 C 205.536 357.780,206.166 357.600,206.800 357.600 C 207.434 357.600,208.064 357.420,208.200 357.200 C 208.336 356.980,208.889 356.800,209.429 356.800 C 209.969 356.800,210.768 356.620,211.205 356.400 C 211.642 356.180,212.358 355.820,212.795 355.600 C 213.232 355.380,213.941 355.200,214.371 355.200 C 214.801 355.200,215.264 355.020,215.400 354.800 C 215.536 354.580,216.076 354.400,216.600 354.400 C 217.124 354.400,217.664 354.220,217.800 354.000 C 217.936 353.780,218.363 353.600,218.748 353.600 C 219.134 353.600,220.195 353.240,221.106 352.800 C 222.016 352.360,222.916 352.000,223.106 352.000 C 223.295 352.000,224.195 351.640,225.106 351.200 C 226.016 350.760,226.933 350.400,227.143 350.400 C 227.353 350.400,228.216 350.046,229.062 349.614 C 229.908 349.182,232.670 347.911,235.200 346.789 C 237.730 345.668,240.199 344.492,240.686 344.175 C 241.173 343.859,241.848 343.600,242.186 343.600 C 242.524 343.600,242.800 343.464,242.800 343.298 C 242.800 343.131,243.385 342.742,244.100 342.432 C 244.815 342.123,246.152 341.359,247.072 340.735 C 247.992 340.111,248.859 339.600,248.999 339.600 C 249.282 339.600,258.745 333.262,259.435 332.611 C 259.674 332.385,261.277 331.120,262.998 329.800 C 267.051 326.691,276.551 317.493,279.937 313.400 C 281.394 311.640,282.687 310.110,282.812 310.000 C 282.936 309.890,283.471 309.170,284.000 308.400 C 284.529 307.630,285.064 306.910,285.190 306.800 C 285.613 306.430,290.400 299.267,290.400 299.004 C 290.400 298.861,290.940 297.959,291.600 297.000 C 292.260 296.041,292.800 295.063,292.800 294.828 C 292.800 294.593,292.980 294.400,293.200 294.400 C 293.420 294.400,293.600 294.214,293.600 293.986 C 293.600 293.758,294.422 291.823,295.426 289.686 C 297.999 284.212,298.846 282.064,300.430 277.000 C 300.911 275.460,301.448 273.840,301.622 273.400 C 301.950 272.573,302.299 271.081,302.651 269.000 C 302.763 268.340,303.012 267.440,303.205 267.000 C 303.397 266.560,303.659 265.390,303.787 264.400 C 303.915 263.410,304.202 261.430,304.424 260.000 C 304.782 257.705,305.681 245.924,305.660 243.800 C 305.564 233.716,304.141 216.336,302.820 209.100 C 302.589 207.835,302.230 205.855,302.021 204.700 C 301.813 203.545,301.441 201.700,301.195 200.600 C 300.949 199.500,300.651 197.924,300.532 197.097 C 300.413 196.271,300.155 195.495,299.958 195.374 C 299.761 195.252,299.600 194.722,299.600 194.195 C 299.600 193.669,299.439 192.824,299.242 192.319 C 299.045 191.813,298.685 190.680,298.444 189.800 C 297.323 185.724,293.822 175.382,292.689 172.800 C 292.254 171.810,291.763 170.640,291.597 170.200 C 291.149 169.014,287.056 160.632,286.811 160.400 C 286.695 160.290,286.162 159.390,285.627 158.400 C 284.541 156.392,280.988 150.941,278.112 146.872 C 276.174 144.130,267.964 135.646,264.864 133.180 C 263.909 132.421,262.739 131.469,262.264 131.065 C 261.789 130.660,260.905 130.037,260.300 129.679 C 259.695 129.320,259.200 128.886,259.200 128.714 C 259.200 128.541,258.964 128.400,258.675 128.400 C 258.387 128.400,257.799 128.072,257.368 127.671 C 255.632 126.053,245.704 121.729,241.400 120.716 C 236.356 119.528,226.318 118.826,225.200 119.582 M237.200 124.610 C 238.410 124.755,239.571 125.037,239.780 125.237 C 239.989 125.437,240.653 125.600,241.256 125.600 C 241.859 125.600,242.464 125.780,242.600 126.000 C 242.736 126.220,243.287 126.400,243.824 126.400 C 244.361 126.400,244.800 126.580,244.800 126.800 C 244.800 127.020,245.215 127.200,245.721 127.200 C 246.928 127.200,252.718 130.074,256.600 132.601 C 257.260 133.030,257.890 133.484,258.000 133.610 C 258.110 133.736,258.818 134.270,259.572 134.798 C 263.416 137.485,270.746 144.834,273.988 149.249 C 275.341 151.092,276.707 152.917,277.024 153.305 C 277.341 153.692,277.600 154.153,277.600 154.329 C 277.600 154.505,277.915 155.007,278.300 155.445 C 278.951 156.185,279.463 156.989,280.562 159.000 C 280.803 159.440,281.090 159.890,281.200 160.000 C 281.595 160.395,282.819 162.662,284.547 166.200 C 286.196 169.578,286.628 170.525,288.241 174.300 C 290.161 178.795,291.600 182.901,291.600 183.885 C 291.600 184.362,291.780 184.864,292.000 185.000 C 292.220 185.136,292.400 185.676,292.400 186.200 C 292.400 186.724,292.580 187.264,292.800 187.400 C 293.020 187.536,293.200 188.076,293.200 188.600 C 293.200 189.124,293.380 189.664,293.600 189.800 C 293.820 189.936,294.000 190.656,294.000 191.400 C 294.000 192.144,294.180 192.864,294.400 193.000 C 294.620 193.136,294.800 193.766,294.800 194.400 C 294.800 195.034,294.980 195.664,295.200 195.800 C 295.420 195.936,295.600 196.656,295.600 197.400 C 295.600 198.144,295.780 198.864,296.000 199.000 C 296.220 199.136,296.400 199.921,296.400 200.744 C 296.400 201.567,296.563 202.411,296.761 202.620 C 296.960 202.829,297.221 203.810,297.342 204.800 C 297.463 205.790,297.760 207.680,298.001 209.000 C 299.426 216.792,300.713 232.273,300.828 243.000 C 300.909 250.543,299.659 261.848,298.043 268.200 C 297.819 269.080,297.524 270.340,297.388 271.000 C 297.251 271.660,296.991 272.560,296.810 273.000 C 296.629 273.440,296.057 275.194,295.540 276.898 C 295.023 278.602,294.465 279.997,294.300 279.998 C 294.135 279.999,294.000 280.439,294.000 280.976 C 294.000 281.513,293.820 282.064,293.600 282.200 C 293.380 282.336,293.200 282.797,293.200 283.224 C 293.200 283.651,293.020 284.000,292.800 284.000 C 292.580 284.000,292.400 284.272,292.400 284.605 C 292.400 284.938,292.227 285.523,292.015 285.905 C 291.803 286.287,291.296 287.320,290.888 288.200 C 289.886 290.363,287.248 295.154,286.338 296.462 C 285.932 297.046,285.600 297.676,285.600 297.862 C 285.599 298.048,285.149 298.723,284.600 299.362 C 284.050 300.001,283.600 300.664,283.600 300.834 C 283.600 301.004,283.369 301.381,283.087 301.671 C 282.805 301.962,282.132 302.830,281.593 303.600 C 280.613 304.997,280.062 305.698,278.655 307.334 C 278.245 307.810,277.436 308.830,276.858 309.600 C 274.168 313.184,266.376 320.946,262.400 324.004 C 261.410 324.766,260.404 325.571,260.163 325.794 C 259.923 326.017,259.130 326.650,258.400 327.200 C 257.670 327.750,256.845 328.425,256.565 328.700 C 256.286 328.975,255.879 329.200,255.662 329.200 C 255.445 329.200,255.207 329.349,255.133 329.530 C 254.946 329.994,248.927 334.000,248.418 334.000 C 248.188 334.000,248.000 334.135,248.000 334.301 C 248.000 334.466,247.145 335.047,246.100 335.591 C 245.055 336.135,244.110 336.675,244.000 336.790 C 243.522 337.291,237.336 340.445,233.800 341.989 C 232.260 342.662,230.687 343.390,230.305 343.606 C 229.923 343.823,229.338 344.000,229.005 344.000 C 228.672 344.000,228.400 344.180,228.400 344.400 C 228.400 344.620,228.164 344.800,227.875 344.800 C 227.586 344.800,226.605 345.160,225.694 345.600 C 224.784 346.040,223.760 346.400,223.419 346.400 C 223.079 346.400,222.800 346.580,222.800 346.800 C 222.800 347.020,222.438 347.200,221.995 347.200 C 221.552 347.200,220.877 347.359,220.495 347.553 C 220.113 347.748,219.260 348.129,218.600 348.400 C 217.940 348.671,217.087 349.052,216.705 349.247 C 216.323 349.441,215.659 349.600,215.229 349.600 C 214.799 349.600,214.336 349.780,214.200 350.000 C 214.064 350.220,213.524 350.400,213.000 350.400 C 212.476 350.400,211.936 350.580,211.800 350.800 C 211.664 351.020,211.201 351.200,210.771 351.200 C 210.341 351.200,209.677 351.358,209.295 351.551 C 208.229 352.089,205.823 352.800,205.066 352.800 C 204.694 352.800,204.077 352.970,203.695 353.177 C 203.313 353.384,201.380 353.932,199.400 354.396 C 197.420 354.859,195.170 355.395,194.400 355.586 C 192.002 356.182,184.527 357.317,178.573 357.990 C 171.076 358.837,156.982 358.328,150.455 356.974 C 144.801 355.801,141.891 354.962,137.400 353.210 C 133.915 351.851,125.720 347.170,124.800 346.013 C 124.690 345.875,123.970 345.329,123.200 344.802 C 119.290 342.120,110.000 330.981,110.000 328.974 C 110.000 328.658,109.820 328.400,109.600 328.400 C 109.380 328.400,109.200 328.040,109.200 327.600 C 109.200 327.160,109.020 326.800,108.800 326.800 C 108.580 326.800,108.400 326.440,108.400 326.000 C 108.400 325.560,108.262 325.200,108.094 325.200 C 107.459 325.200,104.735 318.275,103.216 312.800 C 102.941 311.810,102.555 310.587,102.358 310.081 C 102.161 309.576,102.000 308.577,102.000 307.861 C 102.000 307.146,101.837 306.389,101.639 306.180 C 101.440 305.971,101.183 304.990,101.068 304.000 C 100.953 303.010,100.628 300.580,100.347 298.600 C 99.700 294.041,99.686 270.733,100.328 266.200 C 101.032 261.228,101.530 258.013,102.000 255.400 C 102.237 254.080,102.533 252.324,102.658 251.497 C 102.783 250.671,103.045 249.895,103.242 249.774 C 103.439 249.652,103.600 248.854,103.600 248.000 C 103.600 247.146,103.780 246.336,104.000 246.200 C 104.220 246.064,104.400 245.369,104.400 244.656 C 104.400 243.943,104.562 243.189,104.759 242.980 C 104.956 242.771,105.212 241.880,105.326 241.000 C 105.441 240.120,105.743 238.590,105.996 237.600 C 106.250 236.610,106.555 235.213,106.673 234.496 C 106.792 233.779,107.049 233.094,107.244 232.973 C 107.440 232.852,107.604 232.178,107.609 231.476 C 107.629 228.523,109.186 228.088,114.228 229.625 C 114.904 229.831,115.804 230.003,116.228 230.006 C 117.059 230.013,119.836 230.902,120.218 231.285 C 120.445 231.512,120.090 233.563,119.194 237.200 C 118.384 240.486,117.281 246.185,116.717 250.000 C 116.139 253.912,116.146 268.556,116.728 272.400 C 116.978 274.050,117.295 276.210,117.432 277.200 C 117.569 278.190,117.844 279.171,118.041 279.380 C 118.238 279.589,118.400 280.116,118.400 280.552 C 118.400 281.404,119.080 283.767,119.649 284.895 C 119.842 285.277,120.000 285.779,120.000 286.010 C 120.000 287.351,125.574 297.999,126.450 298.333 C 126.643 298.407,126.800 298.655,126.800 298.885 C 126.800 299.831,136.145 308.400,137.177 308.400 C 137.409 308.400,137.600 308.580,137.600 308.800 C 137.600 309.020,137.855 309.200,138.167 309.200 C 138.478 309.200,138.793 309.335,138.867 309.500 C 139.326 310.533,149.993 314.572,154.800 315.533 C 156.010 315.775,157.540 316.085,158.200 316.222 C 168.539 318.367,188.723 317.215,203.800 313.621 C 204.680 313.411,206.210 313.057,207.200 312.835 C 208.190 312.613,210.260 312.046,211.800 311.575 C 213.340 311.104,215.440 310.512,216.467 310.259 C 217.494 310.006,218.469 309.665,218.634 309.500 C 218.798 309.335,219.343 309.200,219.843 309.200 C 220.343 309.200,220.864 309.020,221.000 308.800 C 221.136 308.580,221.687 308.400,222.224 308.400 C 222.761 308.400,223.200 308.259,223.200 308.087 C 223.200 307.915,224.055 307.525,225.100 307.220 C 226.145 306.915,227.270 306.537,227.600 306.379 C 228.219 306.084,229.727 305.461,231.300 304.851 C 232.505 304.383,235.838 302.882,237.738 301.953 C 238.584 301.539,239.529 301.200,239.838 301.200 C 240.147 301.200,240.400 301.020,240.400 300.800 C 240.400 300.580,240.648 300.400,240.951 300.400 C 241.572 300.400,251.224 295.493,252.862 294.344 C 253.446 293.935,254.128 293.600,254.378 293.600 C 254.629 293.600,255.220 293.240,255.692 292.800 C 256.164 292.360,256.787 292.000,257.075 292.000 C 257.364 292.000,257.600 291.820,257.600 291.600 C 257.600 291.380,257.878 291.200,258.217 291.200 C 258.556 291.200,259.220 290.840,259.692 290.400 C 260.164 289.960,260.787 289.600,261.075 289.600 C 261.364 289.600,261.600 289.420,261.600 289.200 C 261.600 288.980,261.792 288.800,262.027 288.800 C 262.688 288.800,275.972 279.705,279.337 276.949 C 280.339 276.127,280.005 269.508,278.431 259.000 C 278.233 257.680,277.858 254.890,277.596 252.800 C 277.335 250.710,276.958 248.687,276.760 248.305 C 276.562 247.923,276.400 246.899,276.400 246.029 C 276.400 245.159,276.220 244.336,276.000 244.200 C 275.780 244.064,275.597 243.378,275.594 242.676 C 275.568 237.236,272.843 235.927,268.982 239.500 C 264.596 243.559,263.397 244.605,261.984 245.608 C 261.223 246.149,260.078 247.088,259.441 247.696 C 258.803 248.303,258.053 248.800,257.774 248.800 C 257.495 248.800,257.207 248.942,257.133 249.114 C 256.319 251.036,240.097 258.800,236.897 258.800 C 236.272 258.800,235.589 258.963,235.380 259.161 C 234.012 260.462,209.200 260.463,209.200 259.163 C 209.200 258.963,208.598 258.800,207.863 258.800 C 205.489 258.800,194.400 254.159,194.400 253.166 C 194.400 252.994,194.045 252.741,193.611 252.604 C 192.630 252.292,186.070 245.897,184.786 244.000 C 184.265 243.230,183.724 242.510,183.583 242.400 C 182.001 241.162,177.200 229.074,177.200 226.329 C 177.200 225.576,177.036 224.789,176.835 224.580 C 175.577 223.269,175.532 195.038,176.784 192.200 C 176.978 191.760,177.234 190.313,177.353 188.985 C 177.798 184.027,181.152 172.701,184.279 165.600 C 185.949 161.806,190.267 153.332,190.801 152.800 C 190.911 152.690,191.234 152.150,191.518 151.600 C 192.176 150.324,196.517 144.264,198.583 141.737 C 203.524 135.691,210.392 130.062,215.866 127.571 C 217.370 126.887,218.913 126.164,219.295 125.964 C 219.677 125.764,220.341 125.600,220.771 125.600 C 221.201 125.600,221.664 125.420,221.800 125.200 C 221.936 124.980,222.746 124.800,223.600 124.800 C 224.454 124.800,225.270 124.610,225.414 124.377 C 225.683 123.943,232.806 124.084,237.200 124.610 M215.800 166.385 C 215.360 166.566,214.190 166.947,213.200 167.230 C 207.704 168.802,200.204 174.039,197.202 178.400 C 196.672 179.170,196.140 179.890,196.019 180.000 C 195.783 180.215,194.886 181.762,194.338 182.900 C 194.152 183.285,193.820 183.958,193.600 184.395 C 193.380 184.832,193.200 185.464,193.200 185.800 C 193.200 186.136,193.038 186.723,192.839 187.105 C 191.389 189.894,190.678 202.438,191.900 203.660 C 192.175 203.935,192.400 204.467,192.400 204.842 C 192.400 205.598,194.027 208.923,194.500 209.133 C 194.665 209.207,194.800 209.494,194.800 209.772 C 194.800 211.227,202.534 217.454,206.000 218.789 C 206.770 219.085,207.571 219.479,207.780 219.664 C 207.989 219.849,208.563 220.000,209.056 220.000 C 209.549 220.000,210.064 220.180,210.200 220.400 C 210.336 220.620,210.966 220.800,211.600 220.800 C 212.234 220.800,212.864 220.980,213.000 221.200 C 213.136 221.420,213.921 221.600,214.744 221.600 C 215.567 221.600,216.411 221.765,216.620 221.966 C 217.603 222.914,236.888 223.274,243.000 222.458 C 244.760 222.223,247.010 221.924,248.000 221.793 C 248.990 221.662,250.160 221.396,250.600 221.202 C 251.040 221.008,252.120 220.742,253.000 220.609 C 253.880 220.477,255.276 220.267,256.103 220.142 C 256.929 220.018,257.705 219.755,257.826 219.558 C 257.948 219.361,258.478 219.200,259.005 219.200 C 259.531 219.200,260.376 219.038,260.881 218.840 C 261.387 218.642,262.781 218.186,263.981 217.828 C 267.704 216.717,268.297 215.594,266.800 212.494 C 266.360 211.584,266.000 210.648,266.000 210.414 C 266.000 210.180,265.841 209.677,265.647 209.295 C 265.452 208.913,265.112 208.150,264.890 207.600 C 263.550 204.280,261.324 199.210,260.714 198.088 C 260.321 197.366,260.000 196.511,260.000 196.188 C 260.000 195.865,259.820 195.600,259.600 195.600 C 259.380 195.600,259.200 195.240,259.200 194.800 C 259.200 194.360,259.041 194.000,258.847 194.000 C 258.652 194.000,258.393 193.685,258.271 193.300 C 257.975 192.364,256.676 190.234,256.300 190.067 C 256.135 189.993,255.999 189.723,255.998 189.467 C 255.997 189.210,255.277 188.051,254.398 186.892 C 253.519 185.732,252.800 184.622,252.800 184.425 C 252.800 184.228,252.665 184.007,252.500 183.933 C 252.335 183.860,251.516 182.900,250.681 181.800 C 245.460 174.927,237.678 168.987,231.600 167.235 C 230.610 166.950,229.387 166.555,228.881 166.358 C 227.738 165.912,216.891 165.934,215.800 166.385 M227.800 171.200 C 227.936 171.420,228.489 171.600,229.029 171.600 C 229.569 171.600,230.323 171.761,230.705 171.958 C 231.087 172.155,232.570 172.881,234.000 173.572 C 237.542 175.282,244.131 180.989,247.257 185.054 C 248.821 187.088,252.000 191.999,252.000 192.382 C 252.000 192.612,252.150 192.800,252.334 192.800 C 252.597 192.800,255.607 198.575,259.262 206.095 C 259.448 206.477,259.600 207.152,259.600 207.595 C 259.600 208.038,259.780 208.400,260.000 208.400 C 260.220 208.400,260.400 208.724,260.400 209.120 C 260.400 209.516,260.566 210.011,260.769 210.220 C 261.793 211.275,261.724 213.600,260.668 213.600 C 260.107 213.600,259.536 213.780,259.400 214.000 C 259.264 214.220,258.634 214.400,258.000 214.400 C 257.366 214.400,256.736 214.580,256.600 214.800 C 256.464 215.020,255.679 215.200,254.856 215.200 C 254.033 215.200,253.189 215.362,252.980 215.559 C 252.771 215.756,251.880 216.019,251.000 216.143 C 250.120 216.267,248.320 216.563,247.000 216.801 C 239.189 218.207,227.331 218.600,220.800 217.670 C 218.930 217.403,216.634 217.080,215.697 216.950 C 214.761 216.821,213.895 216.555,213.774 216.358 C 213.652 216.161,213.059 216.000,212.456 216.000 C 211.853 216.000,211.189 215.857,210.980 215.682 C 210.771 215.507,209.898 215.125,209.041 214.834 C 203.517 212.960,198.690 208.396,196.947 203.400 C 196.147 201.108,195.978 192.877,196.690 190.936 C 196.920 190.311,197.345 188.990,197.635 188.000 C 198.806 184.010,204.330 176.462,206.117 176.409 C 206.291 176.404,206.820 176.040,207.292 175.600 C 207.764 175.160,208.387 174.800,208.675 174.800 C 208.964 174.800,209.200 174.641,209.200 174.446 C 209.200 174.251,209.875 173.781,210.700 173.402 C 211.525 173.023,212.723 172.462,213.361 172.156 C 214.000 171.850,214.900 171.597,215.361 171.594 C 215.823 171.591,216.470 171.413,216.800 171.200 C 217.602 170.682,227.480 170.682,227.800 171.200 " stroke="none" fill="#000000" fill-rule="evenodd"></path><path id="path1" d="M253.897 37.134 C 253.511 37.287,252.188 38.580,250.958 40.006 C 242.113 50.268,228.010 64.400,226.615 64.400 C 225.651 64.400,217.350 56.420,208.400 46.890 C 205.536 43.840,203.919 42.415,203.316 42.409 C 202.354 42.399,197.525 47.100,183.200 61.992 C 174.824 70.699,174.568 71.027,174.949 72.532 C 175.566 74.968,199.526 96.903,202.903 98.123 C 204.639 98.750,211.538 92.373,219.049 83.200 C 219.679 82.430,220.376 81.605,220.597 81.366 C 221.624 80.260,224.660 76.598,225.177 75.843 C 225.494 75.379,225.866 74.910,226.003 74.800 C 226.140 74.690,226.835 73.745,227.546 72.700 C 229.393 69.985,229.736 70.167,237.589 78.010 C 237.925 78.346,239.280 79.516,240.600 80.610 C 241.920 81.705,243.270 82.873,243.600 83.207 C 243.930 83.541,245.190 84.618,246.400 85.600 C 247.610 86.582,248.870 87.661,249.200 87.997 C 249.530 88.334,250.430 89.082,251.200 89.660 C 251.970 90.238,253.140 91.180,253.800 91.755 C 254.460 92.329,255.323 92.799,255.717 92.800 C 256.739 92.800,268.510 80.673,272.800 75.200 C 273.570 74.218,274.599 72.961,275.087 72.407 C 277.574 69.582,281.600 63.767,281.600 62.999 C 281.600 62.409,280.003 60.551,276.700 57.298 C 263.235 44.038,256.174 37.206,255.933 37.203 C 255.786 37.201,255.426 37.123,255.133 37.028 C 254.840 36.933,254.284 36.981,253.897 37.134 M259.458 47.505 C 261.690 49.647,266.145 53.903,269.358 56.963 C 274.004 61.387,275.200 62.742,275.200 63.583 C 275.200 64.513,269.243 72.484,266.819 74.800 C 266.473 75.130,265.203 76.565,263.995 77.990 C 257.268 85.925,255.357 87.203,253.114 85.264 C 252.391 84.640,251.380 83.785,250.866 83.364 C 246.878 80.099,239.423 73.422,235.700 69.779 C 232.142 66.298,232.135 66.551,235.868 63.065 C 240.941 58.329,243.948 55.214,249.193 49.264 C 251.939 46.149,254.459 43.602,254.793 43.605 C 255.127 43.609,257.226 45.364,259.458 47.505 M220.500 65.967 C 222.205 67.582,223.600 69.164,223.600 69.482 C 223.600 69.953,220.451 74.464,219.608 75.200 C 219.482 75.310,218.759 76.210,218.001 77.200 C 217.243 78.190,216.348 79.270,216.011 79.600 C 215.675 79.930,214.533 81.232,213.474 82.494 C 210.581 85.940,204.034 92.400,203.435 92.400 C 202.993 92.400,201.098 91.160,200.400 90.414 C 200.290 90.296,199.301 89.480,198.203 88.600 C 193.694 84.988,180.800 72.482,180.800 71.721 C 180.800 71.437,185.838 66.118,191.996 59.902 L 203.192 48.600 210.296 55.815 C 214.203 59.784,218.795 64.352,220.500 65.967 M225.200 119.582 C 224.870 119.805,224.023 119.991,223.319 119.994 C 222.614 119.997,221.624 120.157,221.119 120.349 C 220.613 120.541,219.480 120.922,218.600 121.197 C 211.239 123.493,202.907 129.612,194.712 138.743 C 193.156 140.477,187.200 148.914,187.200 149.384 C 187.200 149.534,186.698 150.408,186.084 151.328 C 185.471 152.248,184.526 153.900,183.984 155.000 C 183.443 156.100,182.865 157.060,182.700 157.133 C 182.535 157.207,182.400 157.612,182.400 158.033 C 182.400 158.455,182.220 158.800,182.000 158.800 C 181.780 158.800,181.600 159.160,181.600 159.600 C 181.600 160.040,181.420 160.400,181.200 160.400 C 180.980 160.400,180.800 160.672,180.800 161.005 C 180.800 161.338,180.620 161.968,180.400 162.405 C 180.180 162.842,179.820 163.558,179.600 163.995 C 179.380 164.432,179.200 165.062,179.200 165.395 C 179.200 165.728,179.020 166.000,178.800 166.000 C 178.580 166.000,178.400 166.362,178.400 166.805 C 178.400 167.248,178.241 167.923,178.047 168.305 C 174.912 174.468,171.695 188.959,170.789 201.000 C 168.793 227.518,175.460 246.103,190.800 256.786 C 191.570 257.323,192.290 257.867,192.400 257.995 C 193.317 259.068,201.343 262.427,206.000 263.688 C 213.944 265.838,226.886 266.376,233.200 264.818 C 233.970 264.628,235.590 264.257,236.800 263.993 C 240.786 263.124,246.573 261.032,250.100 259.185 C 254.248 257.014,255.010 256.577,255.133 256.300 C 255.207 256.135,255.440 256.000,255.651 256.000 C 256.018 256.000,261.367 252.512,262.746 251.374 C 270.602 244.889,269.859 245.396,270.713 245.938 C 271.215 246.256,271.602 247.925,272.400 253.200 C 272.616 254.630,272.975 256.970,273.197 258.400 C 273.678 261.491,274.680 269.430,274.924 272.080 C 275.114 274.147,274.635 274.943,272.412 276.256 C 271.745 276.650,271.200 277.114,271.200 277.286 C 271.200 277.459,270.945 277.600,270.633 277.600 C 270.322 277.600,270.007 277.750,269.933 277.934 C 269.756 278.377,261.334 284.000,260.847 284.000 C 260.638 284.000,260.407 284.135,260.333 284.301 C 260.174 284.661,250.321 290.590,247.200 292.203 C 242.369 294.701,234.578 298.440,232.600 299.209 C 232.160 299.380,230.947 299.898,229.904 300.360 C 228.862 300.822,227.737 301.200,227.404 301.200 C 227.072 301.200,226.800 301.341,226.800 301.513 C 226.800 301.685,225.945 302.075,224.900 302.380 C 223.855 302.685,222.730 303.083,222.400 303.264 C 220.293 304.423,205.386 308.800,203.548 308.800 C 202.943 308.800,202.336 308.980,202.200 309.200 C 202.064 309.420,201.279 309.600,200.456 309.600 C 199.633 309.600,198.789 309.763,198.580 309.961 C 198.371 310.160,197.300 310.433,196.200 310.568 C 195.100 310.704,192.940 310.997,191.400 311.220 C 182.069 312.570,168.426 312.959,161.600 312.069 C 155.356 311.254,154.602 311.120,154.220 310.759 C 154.011 310.562,153.347 310.400,152.744 310.400 C 152.141 310.400,151.536 310.220,151.400 310.000 C 151.264 309.780,150.623 309.600,149.976 309.600 C 149.329 309.600,148.800 309.420,148.800 309.200 C 148.800 308.980,148.422 308.800,147.960 308.800 C 147.059 308.800,140.578 305.656,138.600 304.259 C 133.004 300.306,129.934 296.698,126.779 290.366 C 125.637 288.075,124.545 285.887,124.352 285.505 C 124.158 285.123,124.000 284.459,124.000 284.029 C 124.000 283.599,123.820 283.136,123.600 283.000 C 123.380 282.864,123.200 282.259,123.200 281.656 C 123.200 281.053,123.038 280.389,122.841 280.180 C 122.644 279.971,122.380 279.080,122.256 278.200 C 122.132 277.320,121.811 275.340,121.543 273.800 C 120.917 270.205,120.895 252.712,121.512 249.200 C 121.763 247.770,122.165 245.610,122.405 244.400 C 122.645 243.190,122.941 241.524,123.063 240.697 C 123.185 239.871,123.445 239.095,123.642 238.974 C 123.839 238.852,124.000 238.144,124.000 237.400 C 124.000 236.656,124.180 235.936,124.400 235.800 C 124.620 235.664,124.800 235.034,124.800 234.400 C 124.800 233.766,124.980 233.136,125.200 233.000 C 125.420 232.864,125.600 232.259,125.600 231.656 C 125.600 231.053,125.825 230.322,126.100 230.030 C 126.500 229.606,126.500 229.463,126.100 229.317 C 125.825 229.216,125.600 228.899,125.600 228.613 C 125.600 227.836,123.793 226.800,122.438 226.800 C 121.783 226.800,121.136 226.620,121.000 226.400 C 120.864 226.180,120.144 226.000,119.400 226.000 C 118.656 226.000,117.936 225.820,117.800 225.600 C 117.664 225.380,117.101 225.200,116.549 225.200 C 115.997 225.200,113.732 224.740,111.516 224.179 C 105.396 222.627,103.681 223.344,103.619 227.476 C 103.609 228.178,103.440 228.852,103.244 228.973 C 103.049 229.094,102.792 229.779,102.673 230.496 C 102.555 231.213,102.254 232.610,102.004 233.600 C 101.755 234.590,101.460 235.940,101.348 236.600 C 101.237 237.260,100.990 238.160,100.800 238.600 C 100.610 239.040,100.352 239.985,100.227 240.700 C 100.102 241.415,99.898 242.585,99.773 243.300 C 99.648 244.015,99.390 244.960,99.200 245.400 C 98.843 246.228,98.513 247.837,98.136 250.600 C 98.016 251.480,97.756 252.371,97.559 252.580 C 97.362 252.789,97.200 253.698,97.200 254.600 C 97.200 255.502,97.036 256.411,96.835 256.620 C 96.635 256.829,96.369 257.990,96.246 259.200 C 96.122 260.410,95.832 262.840,95.600 264.600 C 94.110 275.908,93.883 294.900,95.203 297.800 C 95.403 298.240,95.655 299.680,95.763 301.000 C 96.060 304.627,96.407 306.912,96.795 307.800 C 96.988 308.240,97.237 309.140,97.349 309.800 C 97.706 311.915,98.052 313.379,98.387 314.200 C 98.566 314.640,98.988 315.900,99.324 317.000 C 101.191 323.115,106.324 333.622,109.094 337.000 C 109.274 337.220,109.855 338.030,110.384 338.800 C 111.817 340.883,118.640 347.524,121.606 349.722 C 123.033 350.780,124.475 351.860,124.811 352.122 C 126.583 353.507,136.459 358.400,137.481 358.400 C 137.772 358.400,138.323 358.559,138.705 358.753 C 140.338 359.584,141.663 359.970,146.200 360.936 C 155.094 362.829,156.520 362.958,168.200 362.926 C 180.602 362.893,183.700 362.590,196.600 360.152 C 198.360 359.819,200.387 359.449,201.104 359.329 C 201.821 359.209,202.506 358.951,202.627 358.756 C 202.748 358.560,203.366 358.400,204.000 358.400 C 204.634 358.400,205.264 358.220,205.400 358.000 C 205.536 357.780,206.166 357.600,206.800 357.600 C 207.434 357.600,208.064 357.420,208.200 357.200 C 208.336 356.980,208.889 356.800,209.429 356.800 C 209.969 356.800,210.768 356.620,211.205 356.400 C 211.642 356.180,212.358 355.820,212.795 355.600 C 213.232 355.380,213.941 355.200,214.371 355.200 C 214.801 355.200,215.264 355.020,215.400 354.800 C 215.536 354.580,216.076 354.400,216.600 354.400 C 217.124 354.400,217.664 354.220,217.800 354.000 C 217.936 353.780,218.363 353.600,218.748 353.600 C 219.134 353.600,220.195 353.240,221.106 352.800 C 222.016 352.360,222.916 352.000,223.106 352.000 C 223.295 352.000,224.195 351.640,225.106 351.200 C 226.016 350.760,226.933 350.400,227.143 350.400 C 227.353 350.400,228.216 350.046,229.062 349.614 C 229.908 349.182,232.670 347.911,235.200 346.789 C 237.730 345.668,240.199 344.492,240.686 344.175 C 241.173 343.859,241.848 343.600,242.186 343.600 C 242.524 343.600,242.800 343.464,242.800 343.298 C 242.800 343.131,243.385 342.742,244.100 342.432 C 244.815 342.123,246.152 341.359,247.072 340.735 C 247.992 340.111,248.859 339.600,248.999 339.600 C 249.282 339.600,258.745 333.262,259.435 332.611 C 259.674 332.385,261.277 331.120,262.998 329.800 C 267.051 326.691,276.551 317.493,279.937 313.400 C 281.394 311.640,282.687 310.110,282.812 310.000 C 282.936 309.890,283.471 309.170,284.000 308.400 C 284.529 307.630,285.064 306.910,285.190 306.800 C 285.613 306.430,290.400 299.267,290.400 299.004 C 290.400 298.861,290.940 297.959,291.600 297.000 C 292.260 296.041,292.800 295.063,292.800 294.828 C 292.800 294.593,292.980 294.400,293.200 294.400 C 293.420 294.400,293.600 294.214,293.600 293.986 C 293.600 293.758,294.422 291.823,295.426 289.686 C 297.999 284.212,298.846 282.064,300.430 277.000 C 300.911 275.460,301.448 273.840,301.622 273.400 C 301.950 272.573,302.299 271.081,302.651 269.000 C 302.763 268.340,303.012 267.440,303.205 267.000 C 303.397 266.560,303.659 265.390,303.787 264.400 C 303.915 263.410,304.202 261.430,304.424 260.000 C 304.782 257.705,305.681 245.924,305.660 243.800 C 305.564 233.716,304.141 216.336,302.820 209.100 C 302.589 207.835,302.230 205.855,302.021 204.700 C 301.813 203.545,301.441 201.700,301.195 200.600 C 300.949 199.500,300.651 197.924,300.532 197.097 C 300.413 196.271,300.155 195.495,299.958 195.374 C 299.761 195.252,299.600 194.722,299.600 194.195 C 299.600 193.669,299.439 192.824,299.242 192.319 C 299.045 191.813,298.685 190.680,298.444 189.800 C 297.323 185.724,293.822 175.382,292.689 172.800 C 292.254 171.810,291.763 170.640,291.597 170.200 C 291.149 169.014,287.056 160.632,286.811 160.400 C 286.695 160.290,286.162 159.390,285.627 158.400 C 284.541 156.392,280.988 150.941,278.112 146.872 C 276.174 144.130,267.964 135.646,264.864 133.180 C 263.909 132.421,262.739 131.469,262.264 131.065 C 261.789 130.660,260.905 130.037,260.300 129.679 C 259.695 129.320,259.200 128.886,259.200 128.714 C 259.200 128.541,258.964 128.400,258.675 128.400 C 258.387 128.400,257.799 128.072,257.368 127.671 C 255.632 126.053,245.704 121.729,241.400 120.716 C 236.356 119.528,226.318 118.826,225.200 119.582 M237.200 124.610 C 238.410 124.755,239.571 125.037,239.780 125.237 C 239.989 125.437,240.653 125.600,241.256 125.600 C 241.859 125.600,242.464 125.780,242.600 126.000 C 242.736 126.220,243.287 126.400,243.824 126.400 C 244.361 126.400,244.800 126.580,244.800 126.800 C 244.800 127.020,245.215 127.200,245.721 127.200 C 246.928 127.200,252.718 130.074,256.600 132.601 C 257.260 133.030,257.890 133.484,258.000 133.610 C 258.110 133.736,258.818 134.270,259.572 134.798 C 263.416 137.485,270.746 144.834,273.988 149.249 C 275.341 151.092,276.707 152.917,277.024 153.305 C 277.341 153.692,277.600 154.153,277.600 154.329 C 277.600 154.505,277.915 155.007,278.300 155.445 C 278.951 156.185,279.463 156.989,280.562 159.000 C 280.803 159.440,281.090 159.890,281.200 160.000 C 281.595 160.395,282.819 162.662,284.547 166.200 C 286.196 169.578,286.628 170.525,288.241 174.300 C 290.161 178.795,291.600 182.901,291.600 183.885 C 291.600 184.362,291.780 184.864,292.000 185.000 C 292.220 185.136,292.400 185.676,292.400 186.200 C 292.400 186.724,292.580 187.264,292.800 187.400 C 293.020 187.536,293.200 188.076,293.200 188.600 C 293.200 189.124,293.380 189.664,293.600 189.800 C 293.820 189.936,294.000 190.656,294.000 191.400 C 294.000 192.144,294.180 192.864,294.400 193.000 C 294.620 193.136,294.800 193.766,294.800 194.400 C 294.800 195.034,294.980 195.664,295.200 195.800 C 295.420 195.936,295.600 196.656,295.600 197.400 C 295.600 198.144,295.780 198.864,296.000 199.000 C 296.220 199.136,296.400 199.921,296.400 200.744 C 296.400 201.567,296.563 202.411,296.761 202.620 C 296.960 202.829,297.221 203.810,297.342 204.800 C 297.463 205.790,297.760 207.680,298.001 209.000 C 299.426 216.792,300.713 232.273,300.828 243.000 C 300.909 250.543,299.659 261.848,298.043 268.200 C 297.819 269.080,297.524 270.340,297.388 271.000 C 297.251 271.660,296.991 272.560,296.810 273.000 C 296.629 273.440,296.057 275.194,295.540 276.898 C 295.023 278.602,294.465 279.997,294.300 279.998 C 294.135 279.999,294.000 280.439,294.000 280.976 C 294.000 281.513,293.820 282.064,293.600 282.200 C 293.380 282.336,293.200 282.797,293.200 283.224 C 293.200 283.651,293.020 284.000,292.800 284.000 C 292.580 284.000,292.400 284.272,292.400 284.605 C 292.400 284.938,292.227 285.523,292.015 285.905 C 291.803 286.287,291.296 287.320,290.888 288.200 C 289.886 290.363,287.248 295.154,286.338 296.462 C 285.932 297.046,285.600 297.676,285.600 297.862 C 285.599 298.048,285.149 298.723,284.600 299.362 C 284.050 300.001,283.600 300.664,283.600 300.834 C 283.600 301.004,283.369 301.381,283.087 301.671 C 282.805 301.962,282.132 302.830,281.593 303.600 C 280.613 304.997,280.062 305.698,278.655 307.334 C 278.245 307.810,277.436 308.830,276.858 309.600 C 274.168 313.184,266.376 320.946,262.400 324.004 C 261.410 324.766,260.404 325.571,260.163 325.794 C 259.923 326.017,259.130 326.650,258.400 327.200 C 257.670 327.750,256.845 328.425,256.565 328.700 C 256.286 328.975,255.879 329.200,255.662 329.200 C 255.445 329.200,255.207 329.349,255.133 329.530 C 254.946 329.994,248.927 334.000,248.418 334.000 C 248.188 334.000,248.000 334.135,248.000 334.301 C 248.000 334.466,247.145 335.047,246.100 335.591 C 245.055 336.135,244.110 336.675,244.000 336.790 C 243.522 337.291,237.336 340.445,233.800 341.989 C 232.260 342.662,230.687 343.390,230.305 343.606 C 229.923 343.823,229.338 344.000,229.005 344.000 C 228.672 344.000,228.400 344.180,228.400 344.400 C 228.400 344.620,228.164 344.800,227.875 344.800 C 227.586 344.800,226.605 345.160,225.694 345.600 C 224.784 346.040,223.760 346.400,223.419 346.400 C 223.079 346.400,222.800 346.580,222.800 346.800 C 222.800 347.020,222.438 347.200,221.995 347.200 C 221.552 347.200,220.877 347.359,220.495 347.553 C 220.113 347.748,219.260 348.129,218.600 348.400 C 217.940 348.671,217.087 349.052,216.705 349.247 C 216.323 349.441,215.659 349.600,215.229 349.600 C 214.799 349.600,214.336 349.780,214.200 350.000 C 214.064 350.220,213.524 350.400,213.000 350.400 C 212.476 350.400,211.936 350.580,211.800 350.800 C 211.664 351.020,211.201 351.200,210.771 351.200 C 210.341 351.200,209.677 351.358,209.295 351.551 C 208.229 352.089,205.823 352.800,205.066 352.800 C 204.694 352.800,204.077 352.970,203.695 353.177 C 203.313 353.384,201.380 353.932,199.400 354.396 C 197.420 354.859,195.170 355.395,194.400 355.586 C 192.002 356.182,184.527 357.317,178.573 357.990 C 171.076 358.837,156.982 358.328,150.455 356.974 C 144.801 355.801,141.891 354.962,137.400 353.210 C 133.915 351.851,125.720 347.170,124.800 346.013 C 124.690 345.875,123.970 345.329,123.200 344.802 C 119.290 342.120,110.000 330.981,110.000 328.974 C 110.000 328.658,109.820 328.400,109.600 328.400 C 109.380 328.400,109.200 328.040,109.200 327.600 C 109.200 327.160,109.020 326.800,108.800 326.800 C 108.580 326.800,108.400 326.440,108.400 326.000 C 108.400 325.560,108.262 325.200,108.094 325.200 C 107.459 325.200,104.735 318.275,103.216 312.800 C 102.941 311.810,102.555 310.587,102.358 310.081 C 102.161 309.576,102.000 308.577,102.000 307.861 C 102.000 307.146,101.837 306.389,101.639 306.180 C 101.440 305.971,101.183 304.990,101.068 304.000 C 100.953 303.010,100.628 300.580,100.347 298.600 C 99.700 294.041,99.686 270.733,100.328 266.200 C 101.032 261.228,101.530 258.013,102.000 255.400 C 102.237 254.080,102.533 252.324,102.658 251.497 C 102.783 250.671,103.045 249.895,103.242 249.774 C 103.439 249.652,103.600 248.854,103.600 248.000 C 103.600 247.146,103.780 246.336,104.000 246.200 C 104.220 246.064,104.400 245.369,104.400 244.656 C 104.400 243.943,104.562 243.189,104.759 242.980 C 104.956 242.771,105.212 241.880,105.326 241.000 C 105.441 240.120,105.743 238.590,105.996 237.600 C 106.250 236.610,106.555 235.213,106.673 234.496 C 106.792 233.779,107.049 233.094,107.244 232.973 C 107.440 232.852,107.604 232.178,107.609 231.476 C 107.629 228.523,109.186 228.088,114.228 229.625 C 114.904 229.831,115.804 230.003,116.228 230.006 C 117.059 230.013,119.836 230.902,120.218 231.285 C 120.445 231.512,120.090 233.563,119.194 237.200 C 118.384 240.486,117.281 246.185,116.717 250.000 C 116.139 253.912,116.146 268.556,116.728 272.400 C 116.978 274.050,117.295 276.210,117.432 277.200 C 117.569 278.190,117.844 279.171,118.041 279.380 C 118.238 279.589,118.400 280.116,118.400 280.552 C 118.400 281.404,119.080 283.767,119.649 284.895 C 119.842 285.277,120.000 285.779,120.000 286.010 C 120.000 287.351,125.574 297.999,126.450 298.333 C 126.643 298.407,126.800 298.655,126.800 298.885 C 126.800 299.831,136.145 308.400,137.177 308.400 C 137.409 308.400,137.600 308.580,137.600 308.800 C 137.600 309.020,137.855 309.200,138.167 309.200 C 138.478 309.200,138.793 309.335,138.867 309.500 C 139.326 310.533,149.993 314.572,154.800 315.533 C 156.010 315.775,157.540 316.085,158.200 316.222 C 168.539 318.367,188.723 317.215,203.800 313.621 C 204.680 313.411,206.210 313.057,207.200 312.835 C 208.190 312.613,210.260 312.046,211.800 311.575 C 213.340 311.104,215.440 310.512,216.467 310.259 C 217.494 310.006,218.469 309.665,218.634 309.500 C 218.798 309.335,219.343 309.200,219.843 309.200 C 220.343 309.200,220.864 309.020,221.000 308.800 C 221.136 308.580,221.687 308.400,222.224 308.400 C 222.761 308.400,223.200 308.259,223.200 308.087 C 223.200 307.915,224.055 307.525,225.100 307.220 C 226.145 306.915,227.270 306.537,227.600 306.379 C 228.219 306.084,229.727 305.461,231.300 304.851 C 232.505 304.383,235.838 302.882,237.738 301.953 C 238.584 301.539,239.529 301.200,239.838 301.200 C 240.147 301.200,240.400 301.020,240.400 300.800 C 240.400 300.580,240.648 300.400,240.951 300.400 C 241.572 300.400,251.224 295.493,252.862 294.344 C 253.446 293.935,254.128 293.600,254.378 293.600 C 254.629 293.600,255.220 293.240,255.692 292.800 C 256.164 292.360,256.787 292.000,257.075 292.000 C 257.364 292.000,257.600 291.820,257.600 291.600 C 257.600 291.380,257.878 291.200,258.217 291.200 C 258.556 291.200,259.220 290.840,259.692 290.400 C 260.164 289.960,260.787 289.600,261.075 289.600 C 261.364 289.600,261.600 289.420,261.600 289.200 C 261.600 288.980,261.792 288.800,262.027 288.800 C 262.688 288.800,275.972 279.705,279.337 276.949 C 280.339 276.127,280.005 269.508,278.431 259.000 C 278.233 257.680,277.858 254.890,277.596 252.800 C 277.335 250.710,276.958 248.687,276.760 248.305 C 276.562 247.923,276.400 246.899,276.400 246.029 C 276.400 245.159,276.220 244.336,276.000 244.200 C 275.780 244.064,275.597 243.378,275.594 242.676 C 275.568 237.236,272.843 235.927,268.982 239.500 C 264.596 243.559,263.397 244.605,261.984 245.608 C 261.223 246.149,260.078 247.088,259.441 247.696 C 258.803 248.303,258.053 248.800,257.774 248.800 C 257.495 248.800,257.207 248.942,257.133 249.114 C 256.319 251.036,240.097 258.800,236.897 258.800 C 236.272 258.800,235.589 258.963,235.380 259.161 C 234.012 260.462,209.200 260.463,209.200 259.163 C 209.200 258.963,208.598 258.800,207.863 258.800 C 205.489 258.800,194.400 254.159,194.400 253.166 C 194.400 252.994,194.045 252.741,193.611 252.604 C 192.630 252.292,186.070 245.897,184.786 244.000 C 184.265 243.230,183.724 242.510,183.583 242.400 C 182.001 241.162,177.200 229.074,177.200 226.329 C 177.200 225.576,177.036 224.789,176.835 224.580 C 175.577 223.269,175.532 195.038,176.784 192.200 C 176.978 191.760,177.234 190.313,177.353 188.985 C 177.798 184.027,181.152 172.701,184.279 165.600 C 185.949 161.806,190.267 153.332,190.801 152.800 C 190.911 152.690,191.234 152.150,191.518 151.600 C 192.176 150.324,196.517 144.264,198.583 141.737 C 203.524 135.691,210.392 130.062,215.866 127.571 C 217.370 126.887,218.913 126.164,219.295 125.964 C 219.677 125.764,220.341 125.600,220.771 125.600 C 221.201 125.600,221.664 125.420,221.800 125.200 C 221.936 124.980,222.746 124.800,223.600 124.800 C 224.454 124.800,225.270 124.610,225.414 124.377 C 225.683 123.943,232.806 124.084,237.200 124.610 M215.800 166.385 C 215.360 166.566,214.190 166.947,213.200 167.230 C 207.704 168.802,200.204 174.039,197.202 178.400 C 196.672 179.170,196.140 179.890,196.019 180.000 C 195.783 180.215,194.886 181.762,194.338 182.900 C 194.152 183.285,193.820 183.958,193.600 184.395 C 193.380 184.832,193.200 185.464,193.200 185.800 C 193.200 186.136,193.038 186.723,192.839 187.105 C 191.389 189.894,190.678 202.438,191.900 203.660 C 192.175 203.935,192.400 204.467,192.400 204.842 C 192.400 205.598,194.027 208.923,194.500 209.133 C 194.665 209.207,194.800 209.494,194.800 209.772 C 194.800 211.227,202.534 217.454,206.000 218.789 C 206.770 219.085,207.571 219.479,207.780 219.664 C 207.989 219.849,208.563 220.000,209.056 220.000 C 209.549 220.000,210.064 220.180,210.200 220.400 C 210.336 220.620,210.966 220.800,211.600 220.800 C 212.234 220.800,212.864 220.980,213.000 221.200 C 213.136 221.420,213.921 221.600,214.744 221.600 C 215.567 221.600,216.411 221.765,216.620 221.966 C 217.603 222.914,236.888 223.274,243.000 222.458 C 244.760 222.223,247.010 221.924,248.000 221.793 C 248.990 221.662,250.160 221.396,250.600 221.202 C 251.040 221.008,252.120 220.742,253.000 220.609 C 253.880 220.477,255.276 220.267,256.103 220.142 C 256.929 220.018,257.705 219.755,257.826 219.558 C 257.948 219.361,258.478 219.200,259.005 219.200 C 259.531 219.200,260.376 219.038,260.881 218.840 C 261.387 218.642,262.781 218.186,263.981 217.828 C 267.704 216.717,268.297 215.594,266.800 212.494 C 266.360 211.584,266.000 210.648,266.000 210.414 C 266.000 210.180,265.841 209.677,265.647 209.295 C 265.452 208.913,265.112 208.150,264.890 207.600 C 263.550 204.280,261.324 199.210,260.714 198.088 C 260.321 197.366,260.000 196.511,260.000 196.188 C 260.000 195.865,259.820 195.600,259.600 195.600 C 259.380 195.600,259.200 195.240,259.200 194.800 C 259.200 194.360,259.041 194.000,258.847 194.000 C 258.652 194.000,258.393 193.685,258.271 193.300 C 257.975 192.364,256.676 190.234,256.300 190.067 C 256.135 189.993,255.999 189.723,255.998 189.467 C 255.997 189.210,255.277 188.051,254.398 186.892 C 253.519 185.732,252.800 184.622,252.800 184.425 C 252.800 184.228,252.665 184.007,252.500 183.933 C 252.335 183.860,251.516 182.900,250.681 181.800 C 245.460 174.927,237.678 168.987,231.600 167.235 C 230.610 166.950,229.387 166.555,228.881 166.358 C 227.738 165.912,216.891 165.934,215.800 166.385 M227.800 171.200 C 227.936 171.420,228.489 171.600,229.029 171.600 C 229.569 171.600,230.323 171.761,230.705 171.958 C 231.087 172.155,232.570 172.881,234.000 173.572 C 237.542 175.282,244.131 180.989,247.257 185.054 C 248.821 187.088,252.000 191.999,252.000 192.382 C 252.000 192.612,252.150 192.800,252.334 192.800 C 252.597 192.800,255.607 198.575,259.262 206.095 C 259.448 206.477,259.600 207.152,259.600 207.595 C 259.600 208.038,259.780 208.400,260.000 208.400 C 260.220 208.400,260.400 208.724,260.400 209.120 C 260.400 209.516,260.566 210.011,260.769 210.220 C 261.793 211.275,261.724 213.600,260.668 213.600 C 260.107 213.600,259.536 213.780,259.400 214.000 C 259.264 214.220,258.634 214.400,258.000 214.400 C 257.366 214.400,256.736 214.580,256.600 214.800 C 256.464 215.020,255.679 215.200,254.856 215.200 C 254.033 215.200,253.189 215.362,252.980 215.559 C 252.771 215.756,251.880 216.019,251.000 216.143 C 250.120 216.267,248.320 216.563,247.000 216.801 C 239.189 218.207,227.331 218.600,220.800 217.670 C 218.930 217.403,216.634 217.080,215.697 216.950 C 214.761 216.821,213.895 216.555,213.774 216.358 C 213.652 216.161,213.059 216.000,212.456 216.000 C 211.853 216.000,211.189 215.857,210.980 215.682 C 210.771 215.507,209.898 215.125,209.041 214.834 C 203.517 212.960,198.690 208.396,196.947 203.400 C 196.147 201.108,195.978 192.877,196.690 190.936 C 196.920 190.311,197.345 188.990,197.635 188.000 C 198.806 184.010,204.330 176.462,206.117 176.409 C 206.291 176.404,206.820 176.040,207.292 175.600 C 207.764 175.160,208.387 174.800,208.675 174.800 C 208.964 174.800,209.200 174.641,209.200 174.446 C 209.200 174.251,209.875 173.781,210.700 173.402 C 211.525 173.023,212.723 172.462,213.361 172.156 C 214.000 171.850,214.900 171.597,215.361 171.594 C 215.823 171.591,216.470 171.413,216.800 171.200 C 217.602 170.682,227.480 170.682,227.800 171.200 " stroke="none" fill="#000000" fill-rule="evenodd"></path><path id="path2" d="M253.897 37.134 C 253.511 37.287,252.188 38.580,250.958 40.006 C 242.113 50.268,228.010 64.400,226.615 64.400 C 225.651 64.400,217.350 56.420,208.400 46.890 C 205.536 43.840,203.919 42.415,203.316 42.409 C 202.354 42.399,197.525 47.100,183.200 61.992 C 174.824 70.699,174.568 71.027,174.949 72.532 C 175.566 74.968,199.526 96.903,202.903 98.123 C 204.639 98.750,211.538 92.373,219.049 83.200 C 219.679 82.430,220.376 81.605,220.597 81.366 C 221.624 80.260,224.660 76.598,225.177 75.843 C 225.494 75.379,225.866 74.910,226.003 74.800 C 226.140 74.690,226.835 73.745,227.546 72.700 C 229.393 69.985,229.736 70.167,237.589 78.010 C 237.925 78.346,239.280 79.516,240.600 80.610 C 241.920 81.705,243.270 82.873,243.600 83.207 C 243.930 83.541,245.190 84.618,246.400 85.600 C 247.610 86.582,248.870 87.661,249.200 87.997 C 249.530 88.334,250.430 89.082,251.200 89.660 C 251.970 90.238,253.140 91.180,253.800 91.755 C 254.460 92.329,255.323 92.799,255.717 92.800 C 256.739 92.800,268.510 80.673,272.800 75.200 C 273.570 74.218,274.599 72.961,275.087 72.407 C 277.574 69.582,281.600 63.767,281.600 62.999 C 281.600 62.409,280.003 60.551,276.700 57.298 C 263.235 44.038,256.174 37.206,255.933 37.203 C 255.786 37.201,255.426 37.123,255.133 37.028 C 254.840 36.933,254.284 36.981,253.897 37.134 M259.458 47.505 C 261.690 49.647,266.145 53.903,269.358 56.963 C 274.004 61.387,275.200 62.742,275.200 63.583 C 275.200 64.513,269.243 72.484,266.819 74.800 C 266.473 75.130,265.203 76.565,263.995 77.990 C 257.268 85.925,255.357 87.203,253.114 85.264 C 252.391 84.640,251.380 83.785,250.866 83.364 C 246.878 80.099,239.423 73.422,235.700 69.779 C 232.142 66.298,232.135 66.551,235.868 63.065 C 240.941 58.329,243.948 55.214,249.193 49.264 C 251.939 46.149,254.459 43.602,254.793 43.605 C 255.127 43.609,257.226 45.364,259.458 47.505 M220.500 65.967 C 222.205 67.582,223.600 69.164,223.600 69.482 C 223.600 69.953,220.451 74.464,219.608 75.200 C 219.482 75.310,218.759 76.210,218.001 77.200 C 217.243 78.190,216.348 79.270,216.011 79.600 C 215.675 79.930,214.533 81.232,213.474 82.494 C 210.581 85.940,204.034 92.400,203.435 92.400 C 202.993 92.400,201.098 91.160,200.400 90.414 C 200.290 90.296,199.301 89.480,198.203 88.600 C 193.694 84.988,180.800 72.482,180.800 71.721 C 180.800 71.437,185.838 66.118,191.996 59.902 L 203.192 48.600 210.296 55.815 C 214.203 59.784,218.795 64.352,220.500 65.967 M225.200 119.582 C 224.870 119.805,224.023 119.991,223.319 119.994 C 222.614 119.997,221.624 120.157,221.119 120.349 C 220.613 120.541,219.480 120.922,218.600 121.197 C 211.239 123.493,202.907 129.612,194.712 138.743 C 193.156 140.477,187.200 148.914,187.200 149.384 C 187.200 149.534,186.698 150.408,186.084 151.328 C 185.471 152.248,184.526 153.900,183.984 155.000 C 183.443 156.100,182.865 157.060,182.700 157.133 C 182.535 157.207,182.400 157.612,182.400 158.033 C 182.400 158.455,182.220 158.800,182.000 158.800 C 181.780 158.800,181.600 159.160,181.600 159.600 C 181.600 160.040,181.420 160.400,181.200 160.400 C 180.980 160.400,180.800 160.672,180.800 161.005 C 180.800 161.338,180.620 161.968,180.400 162.405 C 180.180 162.842,179.820 163.558,179.600 163.995 C 179.380 164.432,179.200 165.062,179.200 165.395 C 179.200 165.728,179.020 166.000,178.800 166.000 C 178.580 166.000,178.400 166.362,178.400 166.805 C 178.400 167.248,178.241 167.923,178.047 168.305 C 174.912 174.468,171.695 188.959,170.789 201.000 C 168.793 227.518,175.460 246.103,190.800 256.786 C 191.570 257.323,192.290 257.867,192.400 257.995 C 193.317 259.068,201.343 262.427,206.000 263.688 C 213.944 265.838,226.886 266.376,233.200 264.818 C 233.970 264.628,235.590 264.257,236.800 263.993 C 240.786 263.124,246.573 261.032,250.100 259.185 C 254.248 257.014,255.010 256.577,255.133 256.300 C 255.207 256.135,255.440 256.000,255.651 256.000 C 256.018 256.000,261.367 252.512,262.746 251.374 C 270.602 244.889,269.859 245.396,270.713 245.938 C 271.215 246.256,271.602 247.925,272.400 253.200 C 272.616 254.630,272.975 256.970,273.197 258.400 C 273.678 261.491,274.680 269.430,274.924 272.080 C 275.114 274.147,274.635 274.943,272.412 276.256 C 271.745 276.650,271.200 277.114,271.200 277.286 C 271.200 277.459,270.945 277.600,270.633 277.600 C 270.322 277.600,270.007 277.750,269.933 277.934 C 269.756 278.377,261.334 284.000,260.847 284.000 C 260.638 284.000,260.407 284.135,260.333 284.301 C 260.174 284.661,250.321 290.590,247.200 292.203 C 242.369 294.701,234.578 298.440,232.600 299.209 C 232.160 299.380,230.947 299.898,229.904 300.360 C 228.862 300.822,227.737 301.200,227.404 301.200 C 227.072 301.200,226.800 301.341,226.800 301.513 C 226.800 301.685,225.945 302.075,224.900 302.380 C 223.855 302.685,222.730 303.083,222.400 303.264 C 220.293 304.423,205.386 308.800,203.548 308.800 C 202.943 308.800,202.336 308.980,202.200 309.200 C 202.064 309.420,201.279 309.600,200.456 309.600 C 199.633 309.600,198.789 309.763,198.580 309.961 C 198.371 310.160,197.300 310.433,196.200 310.568 C 195.100 310.704,192.940 310.997,191.400 311.220 C 182.069 312.570,168.426 312.959,161.600 312.069 C 155.356 311.254,154.602 311.120,154.220 310.759 C 154.011 310.562,153.347 310.400,152.744 310.400 C 152.141 310.400,151.536 310.220,151.400 310.000 C 151.264 309.780,150.623 309.600,149.976 309.600 C 149.329 309.600,148.800 309.420,148.800 309.200 C 148.800 308.980,148.422 308.800,147.960 308.800 C 147.059 308.800,140.578 305.656,138.600 304.259 C 133.004 300.306,129.934 296.698,126.779 290.366 C 125.637 288.075,124.545 285.887,124.352 285.505 C 124.158 285.123,124.000 284.459,124.000 284.029 C 124.000 283.599,123.820 283.136,123.600 283.000 C 123.380 282.864,123.200 282.259,123.200 281.656 C 123.200 281.053,123.038 280.389,122.841 280.180 C 122.644 279.971,122.380 279.080,122.256 278.200 C 122.132 277.320,121.811 275.340,121.543 273.800 C 120.917 270.205,120.895 252.712,121.512 249.200 C 121.763 247.770,122.165 245.610,122.405 244.400 C 122.645 243.190,122.941 241.524,123.063 240.697 C 123.185 239.871,123.445 239.095,123.642 238.974 C 123.839 238.852,124.000 238.144,124.000 237.400 C 124.000 236.656,124.180 235.936,124.400 235.800 C 124.620 235.664,124.800 235.034,124.800 234.400 C 124.800 233.766,124.980 233.136,125.200 233.000 C 125.420 232.864,125.600 232.259,125.600 231.656 C 125.600 231.053,125.825 230.322,126.100 230.030 C 126.500 229.606,126.500 229.463,126.100 229.317 C 125.825 229.216,125.600 228.899,125.600 228.613 C 125.600 227.836,123.793 226.800,122.438 226.800 C 121.783 226.800,121.136 226.620,121.000 226.400 C 120.864 226.180,120.144 226.000,119.400 226.000 C 118.656 226.000,117.936 225.820,117.800 225.600 C 117.664 225.380,117.101 225.200,116.549 225.200 C 115.997 225.200,113.732 224.740,111.516 224.179 C 105.396 222.627,103.681 223.344,103.619 227.476 C 103.609 228.178,103.440 228.852,103.244 228.973 C 103.049 229.094,102.792 229.779,102.673 230.496 C 102.555 231.213,102.254 232.610,102.004 233.600 C 101.755 234.590,101.460 235.940,101.348 236.600 C 101.237 237.260,100.990 238.160,100.800 238.600 C 100.610 239.040,100.352 239.985,100.227 240.700 C 100.102 241.415,99.898 242.585,99.773 243.300 C 99.648 244.015,99.390 244.960,99.200 245.400 C 98.843 246.228,98.513 247.837,98.136 250.600 C 98.016 251.480,97.756 252.371,97.559 252.580 C 97.362 252.789,97.200 253.698,97.200 254.600 C 97.200 255.502,97.036 256.411,96.835 256.620 C 96.635 256.829,96.369 257.990,96.246 259.200 C 96.122 260.410,95.832 262.840,95.600 264.600 C 94.110 275.908,93.883 294.900,95.203 297.800 C 95.403 298.240,95.655 299.680,95.763 301.000 C 96.060 304.627,96.407 306.912,96.795 307.800 C 96.988 308.240,97.237 309.140,97.349 309.800 C 97.706 311.915,98.052 313.379,98.387 314.200 C 98.566 314.640,98.988 315.900,99.324 317.000 C 101.191 323.115,106.324 333.622,109.094 337.000 C 109.274 337.220,109.855 338.030,110.384 338.800 C 111.817 340.883,118.640 347.524,121.606 349.722 C 123.033 350.780,124.475 351.860,124.811 352.122 C 126.583 353.507,136.459 358.400,137.481 358.400 C 137.772 358.400,138.323 358.559,138.705 358.753 C 140.338 359.584,141.663 359.970,146.200 360.936 C 155.094 362.829,156.520 362.958,168.200 362.926 C 180.602 362.893,183.700 362.590,196.600 360.152 C 198.360 359.819,200.387 359.449,201.104 359.329 C 201.821 359.209,202.506 358.951,202.627 358.756 C 202.748 358.560,203.366 358.400,204.000 358.400 C 204.634 358.400,205.264 358.220,205.400 358.000 C 205.536 357.780,206.166 357.600,206.800 357.600 C 207.434 357.600,208.064 357.420,208.200 357.200 C 208.336 356.980,208.889 356.800,209.429 356.800 C 209.969 356.800,210.768 356.620,211.205 356.400 C 211.642 356.180,212.358 355.820,212.795 355.600 C 213.232 355.380,213.941 355.200,214.371 355.200 C 214.801 355.200,215.264 355.020,215.400 354.800 C 215.536 354.580,216.076 354.400,216.600 354.400 C 217.124 354.400,217.664 354.220,217.800 354.000 C 217.936 353.780,218.363 353.600,218.748 353.600 C 219.134 353.600,220.195 353.240,221.106 352.800 C 222.016 352.360,222.916 352.000,223.106 352.000 C 223.295 352.000,224.195 351.640,225.106 351.200 C 226.016 350.760,226.933 350.400,227.143 350.400 C 227.353 350.400,228.216 350.046,229.062 349.614 C 229.908 349.182,232.670 347.911,235.200 346.789 C 237.730 345.668,240.199 344.492,240.686 344.175 C 241.173 343.859,241.848 343.600,242.186 343.600 C 242.524 343.600,242.800 343.464,242.800 343.298 C 242.800 343.131,243.385 342.742,244.100 342.432 C 244.815 342.123,246.152 341.359,247.072 340.735 C 247.992 340.111,248.859 339.600,248.999 339.600 C 249.282 339.600,258.745 333.262,259.435 332.611 C 259.674 332.385,261.277 331.120,262.998 329.800 C 267.051 326.691,276.551 317.493,279.937 313.400 C 281.394 311.640,282.687 310.110,282.812 310.000 C 282.936 309.890,283.471 309.170,284.000 308.400 C 284.529 307.630,285.064 306.910,285.190 306.800 C 285.613 306.430,290.400 299.267,290.400 299.004 C 290.400 298.861,290.940 297.959,291.600 297.000 C 292.260 296.041,292.800 295.063,292.800 294.828 C 292.800 294.593,292.980 294.400,293.200 294.400 C 293.420 294.400,293.600 294.214,293.600 293.986 C 293.600 293.758,294.422 291.823,295.426 289.686 C 297.999 284.212,298.846 282.064,300.430 277.000 C 300.911 275.460,301.448 273.840,301.622 273.400 C 301.950 272.573,302.299 271.081,302.651 269.000 C 302.763 268.340,303.012 267.440,303.205 267.000 C 303.397 266.560,303.659 265.390,303.787 264.400 C 303.915 263.410,304.202 261.430,304.424 260.000 C 304.782 257.705,305.681 245.924,305.660 243.800 C 305.564 233.716,304.141 216.336,302.820 209.100 C 302.589 207.835,302.230 205.855,302.021 204.700 C 301.813 203.545,301.441 201.700,301.195 200.600 C 300.949 199.500,300.651 197.924,300.532 197.097 C 300.413 196.271,300.155 195.495,299.958 195.374 C 299.761 195.252,299.600 194.722,299.600 194.195 C 299.600 193.669,299.439 192.824,299.242 192.319 C 299.045 191.813,298.685 190.680,298.444 189.800 C 297.323 185.724,293.822 175.382,292.689 172.800 C 292.254 171.810,291.763 170.640,291.597 170.200 C 291.149 169.014,287.056 160.632,286.811 160.400 C 286.695 160.290,286.162 159.390,285.627 158.400 C 284.541 156.392,280.988 150.941,278.112 146.872 C 276.174 144.130,267.964 135.646,264.864 133.180 C 263.909 132.421,262.739 131.469,262.264 131.065 C 261.789 130.660,260.905 130.037,260.300 129.679 C 259.695 129.320,259.200 128.886,259.200 128.714 C 259.200 128.541,258.964 128.400,258.675 128.400 C 258.387 128.400,257.799 128.072,257.368 127.671 C 255.632 126.053,245.704 121.729,241.400 120.716 C 236.356 119.528,226.318 118.826,225.200 119.582 M237.200 124.610 C 238.410 124.755,239.571 125.037,239.780 125.237 C 239.989 125.437,240.653 125.600,241.256 125.600 C 241.859 125.600,242.464 125.780,242.600 126.000 C 242.736 126.220,243.287 126.400,243.824 126.400 C 244.361 126.400,244.800 126.580,244.800 126.800 C 244.800 127.020,245.215 127.200,245.721 127.200 C 246.928 127.200,252.718 130.074,256.600 132.601 C 257.260 133.030,257.890 133.484,258.000 133.610 C 258.110 133.736,258.818 134.270,259.572 134.798 C 263.416 137.485,270.746 144.834,273.988 149.249 C 275.341 151.092,276.707 152.917,277.024 153.305 C 277.341 153.692,277.600 154.153,277.600 154.329 C 277.600 154.505,277.915 155.007,278.300 155.445 C 278.951 156.185,279.463 156.989,280.562 159.000 C 280.803 159.440,281.090 159.890,281.200 160.000 C 281.595 160.395,282.819 162.662,284.547 166.200 C 286.196 169.578,286.628 170.525,288.241 174.300 C 290.161 178.795,291.600 182.901,291.600 183.885 C 291.600 184.362,291.780 184.864,292.000 185.000 C 292.220 185.136,292.400 185.676,292.400 186.200 C 292.400 186.724,292.580 187.264,292.800 187.400 C 293.020 187.536,293.200 188.076,293.200 188.600 C 293.200 189.124,293.380 189.664,293.600 189.800 C 293.820 189.936,294.000 190.656,294.000 191.400 C 294.000 192.144,294.180 192.864,294.400 193.000 C 294.620 193.136,294.800 193.766,294.800 194.400 C 294.800 195.034,294.980 195.664,295.200 195.800 C 295.420 195.936,295.600 196.656,295.600 197.400 C 295.600 198.144,295.780 198.864,296.000 199.000 C 296.220 199.136,296.400 199.921,296.400 200.744 C 296.400 201.567,296.563 202.411,296.761 202.620 C 296.960 202.829,297.221 203.810,297.342 204.800 C 297.463 205.790,297.760 207.680,298.001 209.000 C 299.426 216.792,300.713 232.273,300.828 243.000 C 300.909 250.543,299.659 261.848,298.043 268.200 C 297.819 269.080,297.524 270.340,297.388 271.000 C 297.251 271.660,296.991 272.560,296.810 273.000 C 296.629 273.440,296.057 275.194,295.540 276.898 C 295.023 278.602,294.465 279.997,294.300 279.998 C 294.135 279.999,294.000 280.439,294.000 280.976 C 294.000 281.513,293.820 282.064,293.600 282.200 C 293.380 282.336,293.200 282.797,293.200 283.224 C 293.200 283.651,293.020 284.000,292.800 284.000 C 292.580 284.000,292.400 284.272,292.400 284.605 C 292.400 284.938,292.227 285.523,292.015 285.905 C 291.803 286.287,291.296 287.320,290.888 288.200 C 289.886 290.363,287.248 295.154,286.338 296.462 C 285.932 297.046,285.600 297.676,285.600 297.862 C 285.599 298.048,285.149 298.723,284.600 299.362 C 284.050 300.001,283.600 300.664,283.600 300.834 C 283.600 301.004,283.369 301.381,283.087 301.671 C 282.805 301.962,282.132 302.830,281.593 303.600 C 280.613 304.997,280.062 305.698,278.655 307.334 C 278.245 307.810,277.436 308.830,276.858 309.600 C 274.168 313.184,266.376 320.946,262.400 324.004 C 261.410 324.766,260.404 325.571,260.163 325.794 C 259.923 326.017,259.130 326.650,258.400 327.200 C 257.670 327.750,256.845 328.425,256.565 328.700 C 256.286 328.975,255.879 329.200,255.662 329.200 C 255.445 329.200,255.207 329.349,255.133 329.530 C 254.946 329.994,248.927 334.000,248.418 334.000 C 248.188 334.000,248.000 334.135,248.000 334.301 C 248.000 334.466,247.145 335.047,246.100 335.591 C 245.055 336.135,244.110 336.675,244.000 336.790 C 243.522 337.291,237.336 340.445,233.800 341.989 C 232.260 342.662,230.687 343.390,230.305 343.606 C 229.923 343.823,229.338 344.000,229.005 344.000 C 228.672 344.000,228.400 344.180,228.400 344.400 C 228.400 344.620,228.164 344.800,227.875 344.800 C 227.586 344.800,226.605 345.160,225.694 345.600 C 224.784 346.040,223.760 346.400,223.419 346.400 C 223.079 346.400,222.800 346.580,222.800 346.800 C 222.800 347.020,222.438 347.200,221.995 347.200 C 221.552 347.200,220.877 347.359,220.495 347.553 C 220.113 347.748,219.260 348.129,218.600 348.400 C 217.940 348.671,217.087 349.052,216.705 349.247 C 216.323 349.441,215.659 349.600,215.229 349.600 C 214.799 349.600,214.336 349.780,214.200 350.000 C 214.064 350.220,213.524 350.400,213.000 350.400 C 212.476 350.400,211.936 350.580,211.800 350.800 C 211.664 351.020,211.201 351.200,210.771 351.200 C 210.341 351.200,209.677 351.358,209.295 351.551 C 208.229 352.089,205.823 352.800,205.066 352.800 C 204.694 352.800,204.077 352.970,203.695 353.177 C 203.313 353.384,201.380 353.932,199.400 354.396 C 197.420 354.859,195.170 355.395,194.400 355.586 C 192.002 356.182,184.527 357.317,178.573 357.990 C 171.076 358.837,156.982 358.328,150.455 356.974 C 144.801 355.801,141.891 354.962,137.400 353.210 C 133.915 351.851,125.720 347.170,124.800 346.013 C 124.690 345.875,123.970 345.329,123.200 344.802 C 119.290 342.120,110.000 330.981,110.000 328.974 C 110.000 328.658,109.820 328.400,109.600 328.400 C 109.380 328.400,109.200 328.040,109.200 327.600 C 109.200 327.160,109.020 326.800,108.800 326.800 C 108.580 326.800,108.400 326.440,108.400 326.000 C 108.400 325.560,108.262 325.200,108.094 325.200 C 107.459 325.200,104.735 318.275,103.216 312.800 C 102.941 311.810,102.555 310.587,102.358 310.081 C 102.161 309.576,102.000 308.577,102.000 307.861 C 102.000 307.146,101.837 306.389,101.639 306.180 C 101.440 305.971,101.183 304.990,101.068 304.000 C 100.953 303.010,100.628 300.580,100.347 298.600 C 99.700 294.041,99.686 270.733,100.328 266.200 C 101.032 261.228,101.530 258.013,102.000 255.400 C 102.237 254.080,102.533 252.324,102.658 251.497 C 102.783 250.671,103.045 249.895,103.242 249.774 C 103.439 249.652,103.600 248.854,103.600 248.000 C 103.600 247.146,103.780 246.336,104.000 246.200 C 104.220 246.064,104.400 245.369,104.400 244.656 C 104.400 243.943,104.562 243.189,104.759 242.980 C 104.956 242.771,105.212 241.880,105.326 241.000 C 105.441 240.120,105.743 238.590,105.996 237.600 C 106.250 236.610,106.555 235.213,106.673 234.496 C 106.792 233.779,107.049 233.094,107.244 232.973 C 107.440 232.852,107.604 232.178,107.609 231.476 C 107.629 228.523,109.186 228.088,114.228 229.625 C 114.904 229.831,115.804 230.003,116.228 230.006 C 117.059 230.013,119.836 230.902,120.218 231.285 C 120.445 231.512,120.090 233.563,119.194 237.200 C 118.384 240.486,117.281 246.185,116.717 250.000 C 116.139 253.912,116.146 268.556,116.728 272.400 C 116.978 274.050,117.295 276.210,117.432 277.200 C 117.569 278.190,117.844 279.171,118.041 279.380 C 118.238 279.589,118.400 280.116,118.400 280.552 C 118.400 281.404,119.080 283.767,119.649 284.895 C 119.842 285.277,120.000 285.779,120.000 286.010 C 120.000 287.351,125.574 297.999,126.450 298.333 C 126.643 298.407,126.800 298.655,126.800 298.885 C 126.800 299.831,136.145 308.400,137.177 308.400 C 137.409 308.400,137.600 308.580,137.600 308.800 C 137.600 309.020,137.855 309.200,138.167 309.200 C 138.478 309.200,138.793 309.335,138.867 309.500 C 139.326 310.533,149.993 314.572,154.800 315.533 C 156.010 315.775,157.540 316.085,158.200 316.222 C 168.539 318.367,188.723 317.215,203.800 313.621 C 204.680 313.411,206.210 313.057,207.200 312.835 C 208.190 312.613,210.260 312.046,211.800 311.575 C 213.340 311.104,215.440 310.512,216.467 310.259 C 217.494 310.006,218.469 309.665,218.634 309.500 C 218.798 309.335,219.343 309.200,219.843 309.200 C 220.343 309.200,220.864 309.020,221.000 308.800 C 221.136 308.580,221.687 308.400,222.224 308.400 C 222.761 308.400,223.200 308.259,223.200 308.087 C 223.200 307.915,224.055 307.525,225.100 307.220 C 226.145 306.915,227.270 306.537,227.600 306.379 C 228.219 306.084,229.727 305.461,231.300 304.851 C 232.505 304.383,235.838 302.882,237.738 301.953 C 238.584 301.539,239.529 301.200,239.838 301.200 C 240.147 301.200,240.400 301.020,240.400 300.800 C 240.400 300.580,240.648 300.400,240.951 300.400 C 241.572 300.400,251.224 295.493,252.862 294.344 C 253.446 293.935,254.128 293.600,254.378 293.600 C 254.629 293.600,255.220 293.240,255.692 292.800 C 256.164 292.360,256.787 292.000,257.075 292.000 C 257.364 292.000,257.600 291.820,257.600 291.600 C 257.600 291.380,257.878 291.200,258.217 291.200 C 258.556 291.200,259.220 290.840,259.692 290.400 C 260.164 289.960,260.787 289.600,261.075 289.600 C 261.364 289.600,261.600 289.420,261.600 289.200 C 261.600 288.980,261.792 288.800,262.027 288.800 C 262.688 288.800,275.972 279.705,279.337 276.949 C 280.339 276.127,280.005 269.508,278.431 259.000 C 278.233 257.680,277.858 254.890,277.596 252.800 C 277.335 250.710,276.958 248.687,276.760 248.305 C 276.562 247.923,276.400 246.899,276.400 246.029 C 276.400 245.159,276.220 244.336,276.000 244.200 C 275.780 244.064,275.597 243.378,275.594 242.676 C 275.568 237.236,272.843 235.927,268.982 239.500 C 264.596 243.559,263.397 244.605,261.984 245.608 C 261.223 246.149,260.078 247.088,259.441 247.696 C 258.803 248.303,258.053 248.800,257.774 248.800 C 257.495 248.800,257.207 248.942,257.133 249.114 C 256.319 251.036,240.097 258.800,236.897 258.800 C 236.272 258.800,235.589 258.963,235.380 259.161 C 234.012 260.462,209.200 260.463,209.200 259.163 C 209.200 258.963,208.598 258.800,207.863 258.800 C 205.489 258.800,194.400 254.159,194.400 253.166 C 194.400 252.994,194.045 252.741,193.611 252.604 C 192.630 252.292,186.070 245.897,184.786 244.000 C 184.265 243.230,183.724 242.510,183.583 242.400 C 182.001 241.162,177.200 229.074,177.200 226.329 C 177.200 225.576,177.036 224.789,176.835 224.580 C 175.577 223.269,175.532 195.038,176.784 192.200 C 176.978 191.760,177.234 190.313,177.353 188.985 C 177.798 184.027,181.152 172.701,184.279 165.600 C 185.949 161.806,190.267 153.332,190.801 152.800 C 190.911 152.690,191.234 152.150,191.518 151.600 C 192.176 150.324,196.517 144.264,198.583 141.737 C 203.524 135.691,210.392 130.062,215.866 127.571 C 217.370 126.887,218.913 126.164,219.295 125.964 C 219.677 125.764,220.341 125.600,220.771 125.600 C 221.201 125.600,221.664 125.420,221.800 125.200 C 221.936 124.980,222.746 124.800,223.600 124.800 C 224.454 124.800,225.270 124.610,225.414 124.377 C 225.683 123.943,232.806 124.084,237.200 124.610 M215.800 166.385 C 215.360 166.566,214.190 166.947,213.200 167.230 C 207.704 168.802,200.204 174.039,197.202 178.400 C 196.672 179.170,196.140 179.890,196.019 180.000 C 195.783 180.215,194.886 181.762,194.338 182.900 C 194.152 183.285,193.820 183.958,193.600 184.395 C 193.380 184.832,193.200 185.464,193.200 185.800 C 193.200 186.136,193.038 186.723,192.839 187.105 C 191.389 189.894,190.678 202.438,191.900 203.660 C 192.175 203.935,192.400 204.467,192.400 204.842 C 192.400 205.598,194.027 208.923,194.500 209.133 C 194.665 209.207,194.800 209.494,194.800 209.772 C 194.800 211.227,202.534 217.454,206.000 218.789 C 206.770 219.085,207.571 219.479,207.780 219.664 C 207.989 219.849,208.563 220.000,209.056 220.000 C 209.549 220.000,210.064 220.180,210.200 220.400 C 210.336 220.620,210.966 220.800,211.600 220.800 C 212.234 220.800,212.864 220.980,213.000 221.200 C 213.136 221.420,213.921 221.600,214.744 221.600 C 215.567 221.600,216.411 221.765,216.620 221.966 C 217.603 222.914,236.888 223.274,243.000 222.458 C 244.760 222.223,247.010 221.924,248.000 221.793 C 248.990 221.662,250.160 221.396,250.600 221.202 C 251.040 221.008,252.120 220.742,253.000 220.609 C 253.880 220.477,255.276 220.267,256.103 220.142 C 256.929 220.018,257.705 219.755,257.826 219.558 C 257.948 219.361,258.478 219.200,259.005 219.200 C 259.531 219.200,260.376 219.038,260.881 218.840 C 261.387 218.642,262.781 218.186,263.981 217.828 C 267.704 216.717,268.297 215.594,266.800 212.494 C 266.360 211.584,266.000 210.648,266.000 210.414 C 266.000 210.180,265.841 209.677,265.647 209.295 C 265.452 208.913,265.112 208.150,264.890 207.600 C 263.550 204.280,261.324 199.210,260.714 198.088 C 260.321 197.366,260.000 196.511,260.000 196.188 C 260.000 195.865,259.820 195.600,259.600 195.600 C 259.380 195.600,259.200 195.240,259.200 194.800 C 259.200 194.360,259.041 194.000,258.847 194.000 C 258.652 194.000,258.393 193.685,258.271 193.300 C 257.975 192.364,256.676 190.234,256.300 190.067 C 256.135 189.993,255.999 189.723,255.998 189.467 C 255.997 189.210,255.277 188.051,254.398 186.892 C 253.519 185.732,252.800 184.622,252.800 184.425 C 252.800 184.228,252.665 184.007,252.500 183.933 C 252.335 183.860,251.516 182.900,250.681 181.800 C 245.460 174.927,237.678 168.987,231.600 167.235 C 230.610 166.950,229.387 166.555,228.881 166.358 C 227.738 165.912,216.891 165.934,215.800 166.385 M227.800 171.200 C 227.936 171.420,228.489 171.600,229.029 171.600 C 229.569 171.600,230.323 171.761,230.705 171.958 C 231.087 172.155,232.570 172.881,234.000 173.572 C 237.542 175.282,244.131 180.989,247.257 185.054 C 248.821 187.088,252.000 191.999,252.000 192.382 C 252.000 192.612,252.150 192.800,252.334 192.800 C 252.597 192.800,255.607 198.575,259.262 206.095 C 259.448 206.477,259.600 207.152,259.600 207.595 C 259.600 208.038,259.780 208.400,260.000 208.400 C 260.220 208.400,260.400 208.724,260.400 209.120 C 260.400 209.516,260.566 210.011,260.769 210.220 C 261.793 211.275,261.724 213.600,260.668 213.600 C 260.107 213.600,259.536 213.780,259.400 214.000 C 259.264 214.220,258.634 214.400,258.000 214.400 C 257.366 214.400,256.736 214.580,256.600 214.800 C 256.464 215.020,255.679 215.200,254.856 215.200 C 254.033 215.200,253.189 215.362,252.980 215.559 C 252.771 215.756,251.880 216.019,251.000 216.143 C 250.120 216.267,248.320 216.563,247.000 216.801 C 239.189 218.207,227.331 218.600,220.800 217.670 C 218.930 217.403,216.634 217.080,215.697 216.950 C 214.761 216.821,213.895 216.555,213.774 216.358 C 213.652 216.161,213.059 216.000,212.456 216.000 C 211.853 216.000,211.189 215.857,210.980 215.682 C 210.771 215.507,209.898 215.125,209.041 214.834 C 203.517 212.960,198.690 208.396,196.947 203.400 C 196.147 201.108,195.978 192.877,196.690 190.936 C 196.920 190.311,197.345 188.990,197.635 188.000 C 198.806 184.010,204.330 176.462,206.117 176.409 C 206.291 176.404,206.820 176.040,207.292 175.600 C 207.764 175.160,208.387 174.800,208.675 174.800 C 208.964 174.800,209.200 174.641,209.200 174.446 C 209.200 174.251,209.875 173.781,210.700 173.402 C 211.525 173.023,212.723 172.462,213.361 172.156 C 214.000 171.850,214.900 171.597,215.361 171.594 C 215.823 171.591,216.470 171.413,216.800 171.200 C 217.602 170.682,227.480 170.682,227.800 171.200 " stroke="none" fill="#000000" fill-rule="evenodd"></path><path id="path3" d="" stroke="none" fill="#080404" fill-rule="evenodd"></path><path id="path4" d="" stroke="none" fill="#080404" fill-rule="evenodd"></path></g></svg>