<?xml version="1.0" standalone="no"?>
<!DOCTYPE svg PUBLIC "-//W3C//DTD SVG 20010904//EN"
 "http://www.w3.org/TR/2001/REC-SVG-20010904/DTD/svg10.dtd">
<svg version="1.0" xmlns="http://www.w3.org/2000/svg"
 width="512.000000pt" height="512.000000pt" viewBox="0 0 512.000000 512.000000"
 preserveAspectRatio="xMidYMid meet">

<g transform="translate(0.000000,512.000000) scale(0.100000,-0.100000)"
fill="#000000" stroke="none">
<path d="M2579 3976 c-268 -77 -528 -438 -614 -850 -59 -289 -33 -557 72 -735
50 -83 151 -178 234 -218 97 -47 171 -64 304 -70 100 -4 134 -2 207 16 132 31
259 93 367 179 41 33 43 34 36 11 -15 -48 -113 -186 -181 -253 -275 -276 -699
-366 -1222 -261 -84 17 -137 24 -143 18 -17 -17 -99 -241 -93 -255 16 -40 321
-249 482 -331 191 -97 256 -110 428 -86 526 73 957 513 1085 1107 26 125 36
396 20 540 -45 381 -224 787 -446 1007 -134 132 -246 186 -400 191 -54 2 -108
-2 -136 -10z m211 -77 c178 -41 373 -234 508 -504 84 -170 155 -402 182 -601
16 -121 8 -421 -15 -524 -79 -356 -255 -644 -510 -838 -210 -159 -564 -260
-726 -207 -128 42 -329 157 -511 292 l-87 64 26 72 c14 40 27 73 29 75 1 2 48
-6 105 -17 149 -28 356 -45 485 -38 448 24 809 244 981 597 58 121 69 160 52
196 -8 16 -22 30 -31 32 -10 2 -46 -24 -87 -62 -188 -172 -379 -256 -580 -256
-304 1 -499 143 -573 419 -27 102 -29 323 -4 466 47 266 173 522 334 682 142
140 271 187 422 152z"/>
<path d="M2483 3376 c-139 -45 -246 -169 -273 -316 -63 -347 309 -507 856
-369 65 16 129 37 142 45 29 19 27 34 -32 164 -91 205 -236 375 -380 446 -74
36 -87 39 -175 41 -60 2 -112 -3 -138 -11z m202 -72 c33 -8 80 -27 105 -41
109 -64 228 -212 309 -384 l40 -84 -42 -13 c-129 -40 -234 -55 -377 -55 -206
-1 -308 29 -383 112 -45 50 -61 107 -52 186 15 139 111 247 249 281 69 17 82
16 151 -2z"/>
</g>
</svg>
