<?xml version="1.0" encoding="UTF-8"?>
<svg version="1.1" xmlns="http://www.w3.org/2000/svg" width="512" height="512">
<path d="M0 0 C35.4776227 12.11923542 67.08521119 18.77996422 104.76144409 18.25965881 C108.72339791 18.21031085 112.68533071 18.16859847 116.6474762 18.13745117 C119.08818315 18.11771721 121.52883501 18.08811526 123.96928406 18.04751587 C125.0560997 18.03768173 126.14291534 18.0278476 127.26266479 18.01771545 C128.69748955 17.9974807 128.69748955 17.9974807 130.16130066 17.97683716 C132.44894409 18.19715881 132.44894409 18.19715881 134.44894409 20.19715881 C134.1041938 25.76966541 132.4104158 30.67286054 130.49972534 35.88465881 C130.2046257 36.70482483 129.90952606 37.52499084 129.60548401 38.37001038 C128.98069565 40.10243459 128.35268758 41.83370062 127.72164917 43.56385803 C126.77530149 46.15915578 125.83876444 48.75781794 124.90402222 51.35731506 C123.40019803 55.52623799 121.872116 59.68554082 120.32546997 63.83876038 C119.74849221 65.39118854 119.17574324 66.94519602 118.60757446 68.50086975 C117.83334202 70.61366975 117.04073326 72.71855381 116.24191284 74.82215881 C115.79742798 76.01067444 115.35294312 77.19919006 114.89498901 78.42372131 C113.26454623 81.55082414 112.62142091 81.94506849 109.44894409 83.19715881 C102.52621131 84.51852371 95.42477394 84.26057858 88.41378784 84.08387756 C55.91780918 83.1491347 55.91780918 83.1491347 24.44894409 90.19715881 C23.55691284 90.50218323 22.66488159 90.80720764 21.74581909 91.12147522 C15.54508487 93.25076306 9.4841644 95.63913057 3.44894409 98.19715881 C2.60493042 98.55181213 1.76091675 98.90646545 0.8913269 99.27186584 C-36.03120733 114.92978145 -75.82548437 139.24178525 -92.18386841 177.67762756 C-94.03772599 182.44998665 -95.47658377 187.19441655 -96.55105591 192.19715881 C-96.77793091 193.16653381 -97.00480591 194.13590881 -97.23855591 195.13465881 C-98.72574637 209.70912534 -96.54247679 224.25051569 -87.55105591 236.19715881 C-86.9877356 236.95254944 -86.42441528 237.70794006 -85.84402466 238.48622131 C-69.40236559 258.63158043 -40.85541648 266.61328945 -16.0473938 269.48719788 C26.17632807 273.748903 71.02407304 267.16517643 112.14718628 257.67030334 C117.37026809 256.48733109 122.09176124 255.62023143 127.44894409 256.19715881 C131.26059891 259.18847923 132.29597682 265.14312038 133.69894409 269.63465881 C134.12046753 270.90406311 134.12046753 270.90406311 134.55050659 272.19911194 C135.59376079 275.49672485 136.4074187 278.52425866 136.62081909 281.98231506 C134.63455821 285.73634812 131.06160918 287.24462006 127.44894409 289.19715881 C126.41785522 289.77304749 125.38676636 290.34893616 124.32443237 290.942276 C98.69701567 305.12127684 72.4581412 317.78658769 44.94894409 327.88465881 C44.28782623 328.12955048 43.62670837 328.37444214 42.94555664 328.62675476 C28.90573161 333.78952603 14.84895379 337.96737438 -0.23855591 337.63465881 C-1.34014038 337.62072083 -2.44172485 337.60678284 -3.57669067 337.59242249 C-40.66771847 336.77386555 -75.45631145 325.73720412 -102.26589966 299.54481506 C-127.50943476 273.05660643 -133.48518275 238.4961117 -132.83621216 203.16200256 C-132.62669358 194.54700117 -131.77191586 186.53653254 -129.55105591 178.19715881 C-129.37944946 177.52056213 -129.20784302 176.84396545 -129.03103638 176.14686584 C-121.48480269 146.6835102 -106.5951586 121.99283661 -85.55105591 100.19715881 C-84.86527466 99.47141663 -84.17949341 98.74567444 -83.47293091 97.99794006 C-78.22765977 92.57142988 -72.46248535 87.87639056 -66.55105591 83.19715881 C-65.57394653 82.40309631 -64.59683716 81.60903381 -63.59011841 80.79090881 C-54.74424177 73.74985839 -45.2863959 67.92692332 -35.55105591 62.19715881 C-58.64349329 52.89748946 -83.73551034 45.82970174 -107.89089966 55.93153381 C-115.41761991 59.28515483 -122.48965187 63.12079517 -129.25418091 67.84950256 C-131.85604597 69.37610706 -133.5220189 70.12660671 -136.55105591 70.19715881 C-141.36275739 67.43393055 -143.40921383 63.46158583 -145.73855591 58.63465881 C-146.08660278 57.92301575 -146.43464966 57.21137268 -146.79324341 56.47816467 C-149.46114569 50.81589984 -151.09775213 45.47289774 -151.55105591 39.19715881 C-151.65353638 38.10081116 -151.65353638 38.10081116 -151.75808716 36.98231506 C-152.35467216 24.76337032 -148.07052815 12.89726683 -140.35964966 3.53700256 C-104.15064546 -34.99681732 -42.28750308 -14.4478654 0 0 Z M-132.35574341 8.81825256 C-139.04869295 16.07093276 -142.33338894 25.4059495 -142.64871216 35.24403381 C-142.16565982 44.33955592 -140.21914641 52.77710063 -133.55105591 59.19715881 C-132.92763306 58.85459045 -132.30421021 58.51202209 -131.66189575 58.15907288 C-108.42182154 45.47488275 -108.42182154 45.47488275 -96.55105591 43.19715881 C-95.83691528 43.05149475 -95.12277466 42.90583069 -94.38699341 42.75575256 C-71.60967136 39.05326606 -38.90262654 46.29611173 -19.55105591 59.19715881 C-19.36355591 61.82215881 -19.36355591 61.82215881 -19.55105591 64.19715881 C-20.0678894 64.46753967 -20.5847229 64.73792053 -21.11721802 65.01649475 C-38.76161618 74.31306845 -54.65764175 84.93323143 -69.55105591 98.19715881 C-70.07038696 98.654776 -70.58971802 99.11239319 -71.12478638 99.58387756 C-99.11156823 124.30712191 -120.53180444 159.2909436 -123.55105591 197.19715881 C-124.3393479 213.27831548 -124.50187766 229.50275271 -120.55105591 245.19715881 C-120.38476685 245.86811584 -120.21847778 246.53907288 -120.04714966 247.23036194 C-116.15240662 262.33330993 -109.33163537 276.03643834 -99.55105591 288.19715881 C-99.03414185 288.87778381 -98.51722778 289.55840881 -97.98464966 290.25965881 C-78.61368094 314.33986053 -46.13752914 324.55452394 -16.59402466 327.77919006 C-1.441894 329.17221805 12.89959405 328.77276052 27.44894409 324.19715881 C28.67774292 323.81841614 28.67774292 323.81841614 29.93136597 323.43202209 C54.11302222 315.84042034 77.06977156 305.06164354 99.69894409 293.75965881 C100.46620819 293.37706909 101.23347229 292.99447937 102.02398682 292.60029602 C110.36697647 288.42751101 118.52578586 284.1373889 126.44894409 279.19715881 C125.12894409 274.90715881 123.80894409 270.61715881 122.44894409 266.19715881 C115.11094993 266.8620644 107.9794006 268.18952871 100.75292969 269.60865784 C84.72880342 272.73705869 68.66997829 275.30190142 52.44894409 277.19715881 C51.43976929 277.31575256 50.43059448 277.43434631 49.39083862 277.55653381 C7.41528057 282.24451371 -43.90422811 283.50279981 -79.55105591 257.19715881 C-83.04693758 254.34904345 -86.33301527 251.35448171 -89.55105591 248.19715881 C-90.50818481 247.27676819 -90.50818481 247.27676819 -91.48464966 246.33778381 C-102.92273722 234.41567918 -107.10653889 218.24825462 -106.96878052 202.13392639 C-106.32463961 182.9167195 -98.69869569 164.97643633 -86.55105591 150.19715881 C-86.10745728 149.64962952 -85.66385864 149.10210022 -85.20681763 148.53797913 C-60.76759833 118.50863003 -26.95714532 99.5301116 8.82394409 85.94715881 C9.86180054 85.54674377 10.89965698 85.14632874 11.96896362 84.73377991 C15.43412968 83.45535368 18.92162911 82.28912092 22.44894409 81.19715881 C23.524702 80.86029053 23.524702 80.86029053 24.62219238 80.51661682 C40.62177469 75.68056645 56.27748998 75.44927636 72.88644409 75.44715881 C76.74947211 75.42545234 80.61237218 75.39698451 84.47532654 75.36482239 C86.85592844 75.34722207 89.23659778 75.33679759 91.61726379 75.33467102 C93.22668602 75.32896088 93.22668602 75.32896088 94.86862183 75.32313538 C95.80455673 75.32267212 96.74049164 75.32220886 97.70478821 75.32173157 C100.68290362 75.18653807 103.5201077 74.74081515 106.44894409 74.19715881 C108.87226684 67.66519938 111.29308472 61.13231575 113.71212769 54.59877014 C114.53608884 52.37427021 115.36063234 50.1499859 116.1857605 47.92591858 C117.3687558 44.73694386 118.54968376 41.54721037 119.73019409 38.35731506 C120.10204834 37.3562825 120.47390259 36.35524994 120.85702515 35.32388306 C121.19737793 34.403004 121.53773071 33.48212494 121.88839722 32.53334045 C122.19040039 31.71837601 122.49240356 30.90341156 122.80355835 30.06375122 C123.50340657 28.36881119 123.50340657 28.36881119 123.44894409 27.19715881 C122.84633759 27.20382065 122.24373108 27.21048248 121.62286377 27.21734619 C115.22884581 27.28482438 108.8349322 27.32941393 102.44064331 27.36195374 C100.0688566 27.37684345 97.6970964 27.39716187 95.32540894 27.42347717 C75.24647378 27.64033988 55.90101618 26.32753503 36.38644409 21.32215881 C35.24634888 21.03461731 34.10625366 20.74707581 32.93161011 20.45082092 C21.0922435 17.32657644 9.63185184 13.18283305 -1.8833313 9.04750061 C-40.68856615 -4.87788527 -97.59718463 -24.25141072 -132.35574341 8.81825256 Z " fill="#000000" transform="translate(263.5510559082031,147.80284118652344)"/>
<path d="M0 0 C3.32377174 0.40255593 4.33940689 1.38989031 6.70175171 3.72746277 C7.46539032 4.47211288 8.22902893 5.216763 9.01580811 5.98397827 C9.82434235 6.79949661 10.63287659 7.61501495 11.46591187 8.45524597 C12.72403183 9.70263298 12.72403183 9.70263298 14.00756836 10.97521973 C15.77710616 12.73697225 17.54025659 14.50516017 19.29745483 16.27922058 C21.99643072 18.99742272 24.72343212 21.68503725 27.45419312 24.3712616 C29.16820623 26.08498439 30.88050584 27.80042305 32.59091187 29.51774597 C33.41159149 30.32314316 34.23227112 31.12854034 35.07781982 31.95834351 C36.19490829 33.09895988 36.19490829 33.09895988 37.33456421 34.26261902 C37.99676971 34.92658188 38.65897522 35.59054474 39.34124756 36.27462769 C40.62997437 38.31852722 40.62997437 38.31852722 40.44091797 40.90380859 C37.44084422 49.83702411 28.55453203 57.79234883 22.19247437 64.57243347 C20.07306373 66.84369213 18.02374504 69.14612169 16.00497437 71.50602722 C13.38936564 74.49259969 10.73273659 77.43373921 8.00497437 80.31852722 C7.29083374 81.08165222 6.57669312 81.84477722 5.84091187 82.63102722 C3.62997437 84.31852722 3.62997437 84.31852722 1.26278687 84.89665222 C-2.61864539 84.04434959 -5.01482559 81.67826482 -7.87002563 79.06852722 C-8.4802356 78.52712097 -9.09044556 77.98571472 -9.71914673 77.42790222 C-11.61504522 75.73787767 -13.49359458 74.03011662 -15.37002563 72.31852722 C-16.49754176 71.30280448 -17.6251425 70.28717566 -18.75283813 69.27165222 C-21.45004368 66.8267555 -24.11239967 64.34784893 -26.75576782 61.84489441 C-27.86152312 60.79934357 -28.97178896 59.75854825 -30.08584595 58.72184753 C-31.77758609 57.14282639 -33.45064417 55.54613343 -35.12002563 53.94352722 C-35.89080444 53.23003113 -35.89080444 53.23003113 -36.67715454 52.50212097 C-38.91389203 50.31665321 -40.36592736 48.32776099 -41.63565063 45.46696472 C-41.20554857 40.36899024 -37.89491429 37.80453843 -34.37002563 34.31852722 C-33.68940063 33.6250116 -33.00877563 32.93149597 -32.30752563 32.21696472 C-29.46241479 29.34000562 -26.5731639 26.50908698 -23.68643188 23.67399597 C-18.17478815 18.22215307 -13.03114311 12.55974989 -8.11221313 6.56852722 C-7.18795532 5.45477722 -7.18795532 5.45477722 -6.24502563 4.31852722 C-5.62369751 3.55540222 -5.00236938 2.79227722 -4.36221313 2.00602722 C-2.37002563 0.31852722 -2.37002563 0.31852722 0 0 Z M-1.85049438 13.56852722 C-2.69547485 14.43477722 -2.69547485 14.43477722 -3.55752563 15.31852722 C-4.10795532 15.87540222 -4.65838501 16.43227722 -5.22549438 17.00602722 C-7.05874308 18.9828637 -8.82147977 20.99540143 -10.58096313 23.03727722 C-14.46479885 27.49663007 -18.60266955 31.66368315 -22.80752563 35.81852722 C-23.5390686 36.54555847 -24.27061157 37.27258972 -25.02432251 38.02165222 C-26.80392388 39.78962221 -28.58583482 41.555191 -30.37002563 43.31852722 C-29.09742925 46.10660196 -27.78611604 48.1513899 -25.61221313 50.30680847 C-24.80324585 51.11396301 -24.80324585 51.11396301 -23.97793579 51.93742371 C-23.40607544 52.49631287 -22.83421509 53.05520203 -22.24502563 53.63102722 C-21.6589856 54.20989685 -21.07294556 54.78876648 -20.46914673 55.38517761 C-16.2423899 59.53327271 -11.90880795 63.51308528 -7.37002563 67.31852722 C-6.03594249 68.46348747 -4.70257957 69.60928758 -3.37002563 70.75602722 C-1.88502563 72.02446472 -1.88502563 72.02446472 -0.37002563 73.31852722 C12.09983793 67.84395297 21.47825055 51.8140559 29.62997437 41.31852722 C24.70712571 35.34915462 19.35407201 29.85642778 13.88778687 24.39103699 C12.36404923 22.86507888 10.84853006 21.33124577 9.33309937 19.79704285 C8.36483766 18.82585265 7.39610508 17.85513164 6.42684937 16.88493347 C5.55383179 16.00780701 4.68081421 15.13068054 3.78134155 14.22697449 C1.02403378 11.77598708 1.02403378 11.77598708 -1.85049438 13.56852722 Z " fill="#000000" transform="translate(250.37002563476563,26.681472778320313)"/>
</svg>
