<?xml version="1.0" encoding="UTF-8"?>
<svg version="1.1" xmlns="http://www.w3.org/2000/svg" width="512" height="512">
<path d="M0 0 C2.07306223 2.75027185 2.8852331 5.77284621 3.83642578 9.03393555 C4.05222794 9.74219986 4.26803009 10.45046417 4.4903717 11.18019104 C4.95349294 12.70065667 5.41274483 14.22230524 5.86849976 15.74499512 C9.70441159 28.55257868 13.76777366 41.16155662 18.81152344 53.55419922 C19.33625244 54.87641479 19.33625244 54.87641479 19.87158203 56.2253418 C20.17862061 56.97138672 20.48565918 57.71743164 20.80200195 58.48608398 C21.72925629 61.96163753 21.98119231 64.33253151 21.45361328 67.9284668 C19.70455137 69.42446477 17.86928169 70.37476361 15.8378315 71.4535141 C10.92381597 74.1354535 6.45570223 77.07712076 4.53940582 82.52975464 C3.16504445 90.45870636 3.67428629 98.51731911 3.96142578 106.5222168 C3.99725128 109.1928733 4.02643337 111.86278764 4.04673767 114.53352356 C4.10179722 120.21567502 4.21190319 125.89443017 4.3611145 131.57485962 C4.59349263 140.46836344 4.71299207 149.36145111 4.81079102 158.25732422 C4.84462152 161.24571614 4.87892396 164.23410253 4.9132843 167.2224884 C4.92166704 167.96204747 4.93004979 168.70160654 4.93868655 169.4635765 C4.99921104 174.7025831 5.07456986 179.94125326 5.15568542 185.17997742 C5.53653763 210.26574141 5.25904177 235.31005187 4.59102631 260.39053345 C4.49332675 264.10799197 4.40373286 267.8256273 4.31393051 271.54328346 C4.11450767 279.77173459 3.89122925 287.99913267 3.6435051 296.22626686 C3.51053189 300.71606603 3.40168615 305.20563631 3.31380177 309.69654179 C3.25696286 312.52386871 3.18921018 315.35087222 3.11950493 318.17790794 C3.07612347 320.09629843 3.04722407 322.01499944 3.01881409 323.93367004 C2.98883835 325.06785873 2.95886261 326.20204742 2.92797852 327.37060547 C2.89884621 328.84553719 2.89884621 328.84553719 2.86912537 330.3502655 C2.38326801 333.36495053 1.57680329 334.75498369 -0.54638672 336.9284668 C-3.65332031 337.74975586 -3.65332031 337.74975586 -7.44482422 338.1940918 C-8.1167984 338.27721619 -8.78877258 338.36034058 -9.48110962 338.44598389 C-11.62625598 338.70686703 -13.77336373 338.94257902 -15.92138672 339.1784668 C-17.35907615 339.35137809 -18.79657991 339.52584076 -20.23388672 339.7019043 C-32.89029804 341.21544393 -32.89029804 341.21544393 -36.54638672 340.9284668 C-40.61554046 336.85931306 -39.74955355 328.61724283 -40.02368164 323.05981445 C-40.06310505 322.310663 -40.10252846 321.56151155 -40.14314651 320.78965855 C-40.22850614 319.16315658 -40.31261418 317.53658854 -40.39559746 315.90996361 C-40.57756693 312.35060243 -40.76680744 308.79163782 -40.9556284 305.23263454 C-41.05692613 303.32316275 -41.15793527 301.41367562 -41.25867367 299.50417423 C-43.00464421 266.44108242 -44.88798083 233.38804258 -47.29638672 200.3659668 C-47.35547966 199.55557198 -47.4145726 198.74517715 -47.47545624 197.91022491 C-50.99643382 149.85130277 -55.3572772 101.80914544 -60.36959839 53.88256836 C-61.4284682 42.17852011 -61.91682759 31.13645159 -54.62841797 21.35424805 C-43.35013712 7.99996506 -28.02461866 0.70622936 -10.72216797 -0.9074707 C-2.23336621 -1.54755988 -2.23336621 -1.54755988 0 0 Z M-43.73388672 22.3034668 C-52.18558256 32.20084745 -52.20787731 41.82538374 -51.23016357 54.25823975 C-50.88006832 58.30376357 -50.47761587 62.34342386 -50.06225967 66.38271523 C-49.77921563 69.1367127 -49.50480373 71.89146168 -49.23239136 74.64653015 C-48.83860963 78.62393558 -48.44184456 82.60102589 -48.04284668 86.57791138 C-44.77890874 119.18695607 -41.71984918 151.80799413 -39.29638672 184.4909668 C-39.2373605 185.28631458 -39.17833427 186.08166237 -39.11751938 186.9011116 C-36.32664005 224.65208706 -34.13807041 262.44426081 -32.02368164 300.23828125 C-31.98411819 300.93890623 -31.94455473 301.63953121 -31.90379238 302.36138725 C-31.68439747 306.28769402 -31.48304977 310.21431807 -31.29849243 314.14242554 C-31.25650632 315.01000834 -31.21452021 315.87759115 -31.17126179 316.77146435 C-31.09056543 318.44980935 -31.01328883 320.12832329 -30.93990612 321.80700397 C-30.78181609 325.05470462 -30.58006838 327.82742181 -29.54638672 330.9284668 C-27.40004903 330.81244854 -25.25432065 330.68514422 -23.10888672 330.5534668 C-21.91392578 330.48385742 -20.71896484 330.41424805 -19.48779297 330.3425293 C-16.46875059 330.02536528 -13.74125142 329.57614574 -10.80004883 328.90258789 C-10.00030136 328.72069916 -9.20055389 328.53881042 -8.37657166 328.35140991 C-7.77261063 328.21183868 -7.1686496 328.07226746 -6.54638672 327.9284668 C-6.29753125 320.79473809 -6.05407484 313.66084121 -5.81589603 306.5267477 C-5.70491769 303.20671236 -5.59216502 299.88676529 -5.47631836 296.56689453 C-5.15177842 287.24588977 -4.86828406 277.92433556 -4.61816406 268.60105133 C-4.568946 266.76844762 -4.51902384 264.93586271 -4.46850586 263.10329437 C-3.73626005 236.35780815 -3.4573996 209.65340929 -3.87440628 182.9030655 C-3.9554823 177.6897983 -4.02462691 172.47649285 -4.08573914 167.26295471 C-4.09448808 166.52382432 -4.10323703 165.78469393 -4.1122511 165.02316564 C-4.1475367 162.02896844 -4.18251994 159.03476887 -4.21618521 156.04055297 C-4.31104197 147.64001934 -4.43314455 139.24149575 -4.62304688 130.8425293 C-4.77753413 124.000081 -4.8784021 117.1591687 -4.91704381 110.3150537 C-4.93920583 106.74017944 -4.98695928 103.17025201 -5.10177231 99.59705353 C-5.76699528 78.22292696 -5.76699528 78.22292696 -2.00406647 72.64030457 C1.92385954 68.62340696 6.32693381 66.13490543 11.45361328 63.9284668 C10.90348135 60.49733527 10.37473005 57.3050188 9.10595703 54.06518555 C8.83420654 53.35515381 8.56245605 52.64512207 8.2824707 51.91357422 C7.98832275 51.15536377 7.6941748 50.39715332 7.39111328 49.6159668 C3.25474377 38.69887854 -0.24481781 27.59539061 -3.74414062 16.46118164 C-4.64831393 13.60667956 -5.58488453 10.76416616 -6.54638672 7.9284668 C-19.44139472 7.9284668 -34.20888057 13.58426377 -43.73388672 22.3034668 Z " fill="#000000" transform="translate(275.54638671875,86.071533203125)"/>
</svg>
