<svg id="svg" version="1.1" width="400" height="400" viewBox="0 0 400 400" xmlns="http://www.w3.org/2000/svg" xmlns:xlink="http://www.w3.org/1999/xlink"><g id="svgg"><path id="path0" d="M150.000 66.400 C 149.670 66.613,148.556 66.791,147.524 66.794 C 146.492 66.797,145.536 66.980,145.400 67.200 C 145.264 67.420,144.634 67.600,144.000 67.600 C 143.366 67.600,142.736 67.780,142.600 68.000 C 142.464 68.220,141.949 68.400,141.456 68.400 C 140.963 68.400,140.389 68.551,140.180 68.736 C 139.971 68.921,139.170 69.316,138.400 69.615 C 136.558 70.329,131.037 73.568,130.867 74.035 C 130.793 74.236,130.497 74.400,130.208 74.400 C 129.466 74.400,124.126 79.732,121.989 82.606 C 118.337 87.518,117.055 90.302,114.808 98.200 C 114.263 100.115,114.500 113.951,115.150 118.200 C 115.386 119.740,115.757 122.170,115.974 123.600 C 116.191 125.030,116.555 127.235,116.784 128.500 C 118.272 136.731,118.732 139.217,119.169 141.400 C 119.389 142.500,119.756 144.390,119.984 145.600 C 120.213 146.810,120.563 148.610,120.763 149.600 C 121.113 151.333,121.728 154.441,122.388 157.800 C 122.561 158.680,123.096 161.470,123.577 164.000 C 124.057 166.530,124.619 169.153,124.825 169.828 C 125.031 170.504,125.200 171.719,125.200 172.528 C 125.200 173.338,125.362 174.000,125.560 174.000 C 125.758 174.000,126.022 174.765,126.147 175.700 C 126.752 180.216,126.908 181.027,127.241 181.380 C 127.438 181.589,127.600 182.433,127.600 183.256 C 127.600 184.079,127.780 184.864,128.000 185.000 C 128.220 185.136,128.400 186.036,128.400 187.000 C 128.400 187.964,128.580 188.864,128.800 189.000 C 129.020 189.136,129.200 189.921,129.200 190.744 C 129.200 191.567,129.362 192.411,129.559 192.620 C 129.756 192.829,130.015 193.720,130.133 194.600 C 130.251 195.480,130.552 197.100,130.800 198.200 C 131.048 199.300,131.349 200.920,131.467 201.800 C 131.585 202.680,131.844 203.571,132.041 203.780 C 132.238 203.989,132.400 204.808,132.400 205.600 C 132.400 206.392,132.562 207.211,132.759 207.420 C 132.956 207.629,133.215 208.520,133.333 209.400 C 133.451 210.280,133.740 211.855,133.974 212.900 C 135.405 219.284,135.998 222.006,136.393 224.000 C 136.589 224.990,136.942 226.610,137.177 227.600 C 137.412 228.590,137.792 230.300,138.020 231.400 C 138.643 234.405,139.001 236.102,140.214 241.800 C 140.823 244.660,141.402 247.720,141.502 248.600 C 141.601 249.480,141.844 250.371,142.041 250.580 C 142.238 250.789,142.400 251.608,142.400 252.400 C 142.400 253.192,142.562 254.011,142.759 254.220 C 142.956 254.429,143.220 255.320,143.344 256.200 C 143.915 260.250,144.079 261.060,144.504 261.922 C 144.988 262.903,144.774 263.440,142.932 265.860 C 142.455 266.487,140.868 268.620,139.406 270.600 C 131.357 281.497,131.612 281.247,128.837 280.965 C 127.607 280.840,126.240 280.581,125.800 280.390 C 125.360 280.198,124.100 279.939,123.000 279.813 C 118.444 279.292,117.381 279.105,117.020 278.761 C 116.811 278.563,115.787 278.400,114.744 278.400 C 113.701 278.400,112.736 278.220,112.600 278.000 C 112.464 277.780,111.499 277.600,110.456 277.600 C 109.413 277.600,108.389 277.437,108.180 277.239 C 107.971 277.040,106.990 276.781,106.000 276.662 C 105.010 276.544,103.210 276.251,102.000 276.011 C 100.790 275.771,98.990 275.413,98.000 275.216 C 97.010 275.018,94.670 274.568,92.800 274.216 C 90.930 273.863,88.230 273.303,86.800 272.970 C 85.370 272.637,83.390 272.181,82.400 271.957 C 81.410 271.733,79.970 271.389,79.200 271.194 C 78.430 270.998,77.260 270.732,76.600 270.602 C 75.940 270.472,74.590 270.162,73.600 269.913 C 69.543 268.891,67.538 269.206,66.674 271.000 C 66.251 271.880,65.746 272.913,65.552 273.295 C 65.358 273.677,65.200 274.316,65.200 274.715 C 65.200 275.114,65.052 275.611,64.872 275.820 C 64.692 276.029,64.119 277.550,63.600 279.200 C 63.081 280.850,62.508 282.371,62.328 282.580 C 62.148 282.789,62.000 283.374,62.000 283.880 C 62.000 284.386,61.820 284.800,61.600 284.800 C 61.380 284.800,61.200 285.239,61.200 285.776 C 61.200 286.313,61.020 286.864,60.800 287.000 C 59.533 287.783,61.224 289.698,68.202 295.384 C 70.621 297.355,72.690 299.069,72.800 299.194 C 72.910 299.319,73.810 300.041,74.800 300.800 C 75.790 301.559,76.690 302.283,76.800 302.409 C 76.910 302.535,77.630 303.071,78.400 303.600 C 79.170 304.129,80.091 304.886,80.447 305.281 C 80.803 305.676,81.253 306.000,81.447 306.000 C 81.641 306.001,82.275 306.406,82.856 306.900 C 83.437 307.395,85.472 308.880,87.378 310.200 C 89.285 311.520,91.216 312.910,91.670 313.288 C 92.124 313.667,92.834 314.084,93.248 314.215 C 93.661 314.346,94.000 314.600,94.000 314.778 C 94.000 314.957,94.540 315.327,95.200 315.600 C 95.860 315.873,96.400 316.233,96.400 316.400 C 96.400 316.567,96.940 316.927,97.600 317.200 C 98.260 317.473,98.800 317.855,98.800 318.049 C 98.800 318.242,99.036 318.400,99.325 318.400 C 99.613 318.400,100.236 318.760,100.708 319.200 C 101.180 319.640,101.677 320.000,101.811 320.000 C 101.946 320.000,102.841 320.540,103.800 321.200 C 104.759 321.860,105.737 322.400,105.972 322.400 C 106.207 322.400,106.400 322.580,106.400 322.800 C 106.400 323.020,106.745 323.200,107.167 323.200 C 107.588 323.200,107.993 323.344,108.067 323.520 C 108.467 324.481,117.283 327.879,121.600 328.736 C 122.810 328.977,124.340 329.279,125.000 329.408 C 135.874 331.542,173.761 333.696,200.600 333.708 C 220.211 333.717,229.474 333.063,241.000 330.859 C 242.100 330.648,243.720 330.360,244.600 330.217 C 245.480 330.075,246.830 329.799,247.600 329.605 C 248.370 329.410,249.900 329.048,251.000 328.800 C 252.100 328.552,253.630 328.191,254.400 327.998 C 261.942 326.106,264.301 325.469,264.895 325.160 C 265.277 324.962,266.042 324.800,266.595 324.800 C 267.148 324.800,267.600 324.620,267.600 324.400 C 267.600 324.180,268.140 324.000,268.800 324.000 C 269.460 324.000,270.000 323.820,270.000 323.600 C 270.000 323.380,270.439 323.200,270.976 323.200 C 271.513 323.200,272.042 323.056,272.151 322.879 C 272.260 322.703,273.261 322.310,274.375 322.007 C 275.489 321.704,276.400 321.308,276.400 321.128 C 276.400 320.947,276.672 320.800,277.005 320.800 C 277.338 320.800,277.923 320.641,278.305 320.447 C 278.687 320.252,279.450 319.918,280.000 319.703 C 280.550 319.489,281.782 318.928,282.738 318.457 C 283.694 317.986,284.729 317.600,285.038 317.600 C 285.347 317.600,285.600 317.420,285.600 317.200 C 285.600 316.980,285.845 316.800,286.144 316.800 C 286.648 316.800,291.552 314.457,292.000 314.002 C 292.110 313.890,292.740 313.532,293.400 313.205 C 294.060 312.879,295.920 311.844,297.533 310.906 C 299.146 309.968,300.631 309.200,300.833 309.200 C 301.035 309.200,301.200 309.020,301.200 308.800 C 301.200 308.580,301.425 308.400,301.700 308.400 C 301.975 308.399,302.723 307.949,303.362 307.400 C 304.001 306.850,304.664 306.400,304.834 306.400 C 305.004 306.400,305.381 306.169,305.671 305.887 C 305.962 305.605,306.828 304.932,307.596 304.392 C 309.042 303.374,309.279 303.176,313.600 299.386 C 316.989 296.413,322.002 291.289,323.209 289.563 C 323.733 288.813,324.486 287.909,324.881 287.553 C 325.276 287.197,325.600 286.798,325.600 286.667 C 325.600 286.535,326.590 284.909,327.800 283.052 C 329.010 281.196,330.004 279.525,330.009 279.339 C 330.014 279.152,330.370 278.550,330.800 278.000 C 331.230 277.450,331.586 276.685,331.591 276.300 C 331.596 275.915,331.780 275.600,332.000 275.600 C 332.220 275.600,332.400 275.240,332.400 274.800 C 332.400 274.360,332.580 274.000,332.800 274.000 C 333.020 274.000,333.200 273.721,333.200 273.381 C 333.200 273.040,333.560 272.016,334.000 271.106 C 334.440 270.195,334.800 269.134,334.800 268.748 C 334.800 268.363,334.980 267.936,335.200 267.800 C 335.420 267.664,335.600 267.124,335.600 266.600 C 335.600 266.076,335.780 265.536,336.000 265.400 C 336.220 265.264,336.400 264.634,336.400 264.000 C 336.400 263.366,336.580 262.736,336.800 262.600 C 337.020 262.464,337.200 261.654,337.200 260.800 C 337.200 259.946,337.380 259.136,337.600 259.000 C 337.820 258.864,338.000 257.784,338.000 256.600 C 338.000 255.416,338.180 254.336,338.400 254.200 C 338.643 254.050,338.800 251.063,338.800 246.576 C 338.800 241.925,338.652 239.200,338.400 239.200 C 338.180 239.200,338.000 238.748,338.000 238.195 C 338.000 237.642,337.841 236.877,337.647 236.495 C 337.452 236.113,337.071 235.260,336.800 234.600 C 336.529 233.940,336.148 233.087,335.953 232.705 C 335.759 232.323,335.600 231.738,335.600 231.405 C 335.600 231.072,335.462 230.800,335.294 230.800 C 335.126 230.800,334.682 230.125,334.306 229.300 C 333.482 227.486,332.379 225.618,331.700 224.884 C 331.425 224.586,331.200 224.189,331.200 224.000 C 331.200 223.811,330.965 223.419,330.678 223.129 C 330.391 222.838,329.407 221.494,328.492 220.143 C 327.577 218.791,326.591 217.441,326.301 217.143 C 326.011 216.844,325.349 215.996,324.829 215.257 C 322.416 211.827,307.882 197.200,306.886 197.200 C 306.726 197.200,305.831 196.480,304.897 195.600 C 303.963 194.720,303.045 194.000,302.859 194.000 C 302.672 194.000,301.954 193.460,301.263 192.800 C 300.572 192.140,299.860 191.600,299.679 191.600 C 299.499 191.600,299.002 191.285,298.575 190.900 C 297.408 189.848,292.068 186.400,291.605 186.400 C 291.382 186.400,291.199 186.265,291.197 186.100 C 291.195 185.935,290.790 185.613,290.297 185.383 C 288.982 184.772,285.832 183.034,285.600 182.790 C 285.490 182.675,283.780 181.802,281.800 180.849 C 279.820 179.897,277.887 178.957,277.505 178.759 C 277.123 178.562,276.538 178.400,276.205 178.400 C 275.872 178.400,275.600 178.220,275.600 178.000 C 275.600 177.780,275.161 177.600,274.624 177.600 C 274.087 177.600,273.536 177.420,273.400 177.200 C 273.264 176.980,272.724 176.800,272.200 176.800 C 271.676 176.800,271.136 176.620,271.000 176.400 C 270.864 176.180,270.259 176.000,269.656 176.000 C 269.053 176.000,268.389 175.838,268.180 175.641 C 266.799 174.336,248.176 174.344,247.369 175.650 C 247.250 175.843,246.544 176.000,245.800 176.000 C 245.056 176.000,244.336 176.180,244.200 176.400 C 244.064 176.620,243.423 176.800,242.776 176.800 C 242.129 176.800,241.600 176.980,241.600 177.200 C 241.600 177.420,241.238 177.600,240.795 177.600 C 240.352 177.600,239.677 177.759,239.295 177.953 C 238.913 178.148,238.150 178.487,237.600 178.707 C 235.404 179.585,226.191 184.208,226.067 184.494 C 225.993 184.662,225.766 184.800,225.561 184.800 C 225.355 184.800,224.155 185.461,222.894 186.269 C 221.632 187.076,219.520 188.424,218.200 189.264 C 216.880 190.103,215.350 191.150,214.800 191.590 C 214.250 192.030,213.663 192.392,213.496 192.395 C 213.329 192.398,212.628 192.940,211.937 193.600 C 211.246 194.260,210.531 194.800,210.348 194.800 C 210.164 194.800,209.516 195.248,208.907 195.795 C 208.298 196.342,206.435 197.917,204.768 199.295 C 196.277 206.309,193.415 208.939,184.200 218.194 C 178.700 223.717,173.321 229.180,172.246 230.334 C 169.689 233.079,169.456 232.919,169.115 228.168 C 168.959 225.986,168.644 221.635,168.415 218.500 C 168.187 215.365,167.814 210.235,167.587 207.100 C 167.360 203.965,167.004 199.060,166.796 196.200 C 166.379 190.450,165.802 183.120,165.191 175.800 C 164.738 170.380,164.227 163.499,163.601 154.400 C 163.367 150.990,163.012 145.950,162.813 143.200 C 161.511 125.220,161.539 126.716,162.483 125.712 C 162.954 125.210,163.498 124.800,163.691 124.800 C 163.885 124.800,164.619 124.261,165.322 123.602 C 166.025 122.943,166.825 122.403,167.100 122.402 C 167.375 122.401,167.601 122.265,167.603 122.100 C 167.604 121.935,168.273 121.350,169.089 120.800 C 172.836 118.275,174.804 115.744,173.600 115.000 C 173.380 114.864,173.200 114.313,173.200 113.776 C 173.200 113.239,173.059 112.800,172.887 112.800 C 172.715 112.800,172.325 111.945,172.020 110.900 C 171.715 109.855,171.337 108.730,171.179 108.400 C 171.022 108.070,170.671 107.260,170.400 106.600 C 170.129 105.940,169.748 105.087,169.553 104.705 C 169.359 104.323,169.200 103.659,169.200 103.229 C 169.200 102.799,169.056 102.358,168.879 102.249 C 168.703 102.140,168.307 101.128,168.000 100.000 C 167.693 98.872,167.297 97.860,167.121 97.751 C 166.944 97.642,166.800 97.124,166.800 96.600 C 166.800 96.076,166.620 95.536,166.400 95.400 C 166.180 95.264,166.000 94.724,166.000 94.200 C 166.000 93.676,165.820 93.136,165.600 93.000 C 165.380 92.864,165.200 92.324,165.200 91.800 C 165.200 91.276,165.020 90.736,164.800 90.600 C 164.580 90.464,164.400 90.001,164.400 89.571 C 164.400 89.141,164.238 88.477,164.041 88.095 C 163.844 87.713,163.282 86.050,162.793 84.400 C 162.304 82.750,161.754 80.950,161.571 80.400 C 161.216 79.333,159.461 73.254,158.742 70.600 C 158.156 68.436,157.520 67.097,156.800 66.513 C 156.081 65.929,150.862 65.843,150.000 66.400 M153.473 71.113 C 154.038 71.472,154.966 74.284,157.397 83.000 C 157.765 84.320,158.232 85.713,158.433 86.095 C 158.635 86.477,158.800 87.242,158.800 87.795 C 158.800 88.348,158.980 88.800,159.200 88.800 C 159.420 88.800,159.600 89.329,159.600 89.976 C 159.600 90.623,159.780 91.264,160.000 91.400 C 160.220 91.536,160.400 91.999,160.400 92.429 C 160.400 92.859,160.580 93.568,160.800 94.005 C 161.020 94.442,161.380 95.158,161.600 95.595 C 161.820 96.032,162.000 96.741,162.000 97.171 C 162.000 97.601,162.180 98.064,162.400 98.200 C 162.620 98.336,162.800 98.876,162.800 99.400 C 162.800 99.924,162.980 100.464,163.200 100.600 C 163.420 100.736,163.600 101.199,163.600 101.629 C 163.600 102.059,163.759 102.723,163.953 103.105 C 164.429 104.040,165.018 105.507,165.600 107.200 C 166.118 108.708,166.462 109.629,167.097 111.200 C 168.860 115.569,169.182 114.935,162.803 119.657 C 156.256 124.503,156.553 123.887,157.200 131.317 C 157.473 134.443,157.859 139.610,158.058 142.800 C 158.811 154.856,159.806 168.636,160.398 175.200 C 161.023 182.122,161.632 189.909,162.802 205.900 C 163.024 208.925,163.378 213.740,163.589 216.600 C 163.800 219.460,164.160 224.590,164.388 228.000 C 165.198 240.088,165.204 240.135,166.102 241.100 C 167.301 242.389,168.126 242.223,169.866 240.344 C 170.710 239.433,172.300 237.762,173.400 236.631 C 174.500 235.499,176.234 233.589,177.254 232.386 C 179.885 229.282,192.347 216.799,196.607 213.000 C 198.581 211.240,200.646 209.343,201.198 208.785 C 201.749 208.226,202.830 207.333,203.600 206.800 C 204.370 206.267,205.450 205.373,206.000 204.814 C 206.550 204.255,207.630 203.323,208.400 202.744 C 209.170 202.165,210.181 201.355,210.647 200.945 C 211.112 200.535,212.012 199.811,212.647 199.335 C 213.281 198.859,214.674 197.811,215.743 197.005 C 217.885 195.390,223.085 192.000,223.421 192.000 C 223.538 192.000,224.020 191.640,224.492 191.200 C 224.964 190.760,225.587 190.400,225.875 190.400 C 226.164 190.400,226.400 190.241,226.400 190.047 C 226.400 189.852,226.715 189.590,227.100 189.464 C 227.485 189.338,228.520 188.806,229.400 188.281 C 230.749 187.477,232.674 186.467,236.895 184.349 C 237.277 184.157,237.862 184.000,238.195 184.000 C 238.528 184.000,238.800 183.859,238.800 183.687 C 238.800 183.515,239.655 183.129,240.700 182.829 C 241.745 182.529,242.780 182.154,243.000 181.996 C 243.220 181.837,243.850 181.606,244.400 181.482 C 244.950 181.357,246.120 181.048,247.000 180.794 C 251.869 179.389,261.328 178.956,265.600 179.941 C 266.810 180.220,268.387 180.548,269.104 180.669 C 269.821 180.789,270.506 181.049,270.627 181.244 C 270.748 181.440,271.199 181.600,271.629 181.600 C 272.059 181.600,272.813 181.808,273.305 182.062 C 275.182 183.033,275.607 183.200,276.195 183.200 C 276.528 183.200,276.800 183.380,276.800 183.600 C 276.800 183.820,277.034 184.000,277.320 184.000 C 278.056 184.000,279.993 184.941,279.997 185.300 C 279.999 185.465,280.360 185.600,280.800 185.600 C 281.240 185.600,281.600 185.780,281.600 186.000 C 281.600 186.220,281.960 186.400,282.400 186.400 C 282.840 186.400,283.200 186.536,283.200 186.702 C 283.200 186.869,283.785 187.258,284.500 187.568 C 285.215 187.877,286.552 188.641,287.472 189.265 C 288.392 189.889,289.337 190.400,289.572 190.400 C 289.807 190.400,290.000 190.580,290.000 190.800 C 290.000 191.020,290.195 191.200,290.434 191.200 C 290.945 191.200,299.630 197.107,301.463 198.701 C 302.158 199.306,303.148 200.144,303.663 200.565 C 310.308 205.990,319.760 215.583,322.811 220.000 C 323.343 220.770,324.098 221.749,324.489 222.175 C 324.880 222.602,325.200 223.172,325.200 223.442 C 325.200 223.712,325.349 223.993,325.530 224.067 C 326.497 224.457,331.195 232.526,332.827 236.600 C 333.855 239.168,335.021 245.319,334.606 245.990 C 334.457 246.232,334.173 248.448,333.974 250.915 C 333.468 257.221,333.177 259.342,332.761 259.780 C 332.563 259.989,332.400 260.743,332.400 261.456 C 332.400 262.169,332.220 262.864,332.000 263.000 C 331.780 263.136,331.600 263.766,331.600 264.400 C 331.600 265.034,331.420 265.664,331.200 265.800 C 330.980 265.936,330.800 266.399,330.800 266.829 C 330.800 267.259,330.643 267.923,330.450 268.305 C 328.952 271.280,328.400 272.553,328.400 273.038 C 328.400 273.347,328.220 273.600,328.000 273.600 C 327.780 273.600,327.600 273.960,327.600 274.400 C 327.600 274.840,327.420 275.200,327.200 275.200 C 326.980 275.200,326.800 275.560,326.800 276.000 C 326.800 276.440,326.641 276.800,326.447 276.800 C 326.252 276.800,325.993 277.115,325.871 277.500 C 325.627 278.270,324.342 280.483,323.956 280.800 C 323.822 280.910,323.429 281.540,323.083 282.200 C 322.314 283.667,318.908 287.935,316.183 290.846 C 313.476 293.736,311.069 295.884,305.800 300.107 C 302.522 302.735,296.181 306.700,291.000 309.362 C 289.680 310.040,288.510 310.687,288.400 310.798 C 288.290 310.910,287.750 311.200,287.200 311.444 C 286.650 311.687,285.418 312.272,284.462 312.743 C 283.506 313.214,282.471 313.600,282.162 313.600 C 281.853 313.600,281.600 313.780,281.600 314.000 C 281.600 314.220,281.364 314.400,281.075 314.400 C 280.786 314.400,279.805 314.760,278.894 315.200 C 277.984 315.640,277.084 316.000,276.894 316.000 C 276.705 316.000,275.805 316.360,274.894 316.800 C 273.984 317.240,273.048 317.600,272.814 317.600 C 272.580 317.600,272.077 317.774,271.695 317.986 C 270.978 318.384,265.175 320.302,262.000 321.190 C 261.010 321.466,259.750 321.841,259.200 322.021 C 256.477 322.915,248.139 324.731,245.200 325.070 C 244.210 325.184,243.229 325.440,243.020 325.639 C 242.811 325.837,241.902 326.000,241.000 326.000 C 240.098 326.000,239.189 326.165,238.980 326.366 C 238.771 326.568,237.520 326.833,236.200 326.956 C 234.880 327.079,232.270 327.371,230.400 327.605 C 214.165 329.638,176.822 329.286,147.000 326.819 C 144.360 326.601,140.310 326.319,138.000 326.194 C 135.690 326.069,133.440 325.801,133.000 325.599 C 132.560 325.397,131.030 325.147,129.600 325.043 C 122.395 324.523,116.864 323.121,112.400 320.684 C 111.630 320.264,110.280 319.533,109.400 319.060 C 108.520 318.587,107.710 318.110,107.600 318.000 C 107.204 317.604,104.985 316.346,104.300 316.129 C 103.915 316.007,103.600 315.748,103.600 315.553 C 103.600 315.359,103.364 315.200,103.075 315.200 C 102.787 315.200,102.164 314.840,101.692 314.400 C 101.220 313.960,100.680 313.600,100.492 313.600 C 100.304 313.600,99.802 313.285,99.375 312.900 C 98.949 312.515,98.105 311.945,97.500 311.632 C 96.895 311.320,96.400 310.915,96.400 310.732 C 96.400 310.550,96.145 310.400,95.833 310.400 C 95.522 310.400,95.207 310.255,95.133 310.078 C 95.060 309.901,93.470 308.702,91.600 307.414 C 87.372 304.500,81.071 299.844,79.161 298.222 C 77.769 297.040,76.115 295.680,73.206 293.327 C 72.440 292.707,71.306 291.722,70.687 291.139 C 70.068 290.555,68.948 289.656,68.197 289.142 C 66.548 288.012,65.723 286.640,66.256 285.914 C 66.464 285.631,66.863 284.680,67.143 283.800 C 67.677 282.123,68.252 280.674,68.847 279.505 C 69.041 279.123,69.200 278.536,69.200 278.200 C 69.200 277.864,69.367 277.277,69.571 276.895 C 69.775 276.513,70.046 275.868,70.173 275.462 C 70.488 274.456,72.367 274.652,81.000 276.587 C 82.540 276.933,84.700 277.410,85.800 277.648 C 86.900 277.886,88.520 278.244,89.400 278.443 C 91.240 278.859,94.160 279.473,96.900 280.021 C 97.945 280.229,99.745 280.589,100.900 280.820 C 102.055 281.052,103.720 281.332,104.600 281.443 C 105.480 281.554,106.560 281.806,107.000 282.002 C 107.440 282.198,108.655 282.458,109.700 282.579 C 114.456 283.132,115.424 283.301,115.780 283.639 C 115.989 283.837,117.013 284.000,118.056 284.000 C 119.099 284.000,120.064 284.180,120.200 284.400 C 120.336 284.620,121.326 284.800,122.400 284.800 C 123.474 284.800,124.464 284.980,124.600 285.200 C 124.736 285.420,125.726 285.600,126.800 285.600 C 127.874 285.600,128.864 285.780,129.000 286.000 C 129.136 286.220,130.118 286.400,131.183 286.400 C 133.278 286.400,134.061 285.715,138.283 280.189 C 139.117 279.098,140.294 277.663,140.898 277.002 C 141.502 276.341,141.997 275.590,141.998 275.333 C 141.999 275.077,142.152 274.807,142.338 274.733 C 142.524 274.660,143.374 273.610,144.227 272.400 C 145.079 271.190,145.881 270.110,146.008 270.000 C 146.135 269.890,146.675 269.170,147.208 268.400 C 147.742 267.630,148.498 266.651,148.889 266.225 C 149.682 265.360,149.925 260.648,149.200 260.200 C 148.980 260.064,148.800 259.279,148.800 258.456 C 148.800 257.633,148.638 256.789,148.441 256.580 C 148.244 256.371,147.985 255.480,147.867 254.600 C 147.749 253.720,147.460 252.145,147.226 251.100 C 146.992 250.055,146.628 248.435,146.417 247.500 C 146.207 246.565,145.848 244.900,145.620 243.800 C 145.392 242.700,145.044 241.080,144.848 240.200 C 143.523 234.251,142.006 226.428,142.003 225.524 C 142.002 224.932,141.820 224.336,141.600 224.200 C 141.380 224.064,141.200 223.254,141.200 222.400 C 141.200 221.546,141.020 220.736,140.800 220.600 C 140.580 220.464,140.400 219.654,140.400 218.800 C 140.400 217.946,140.220 217.136,140.000 217.000 C 139.780 216.864,139.600 216.054,139.600 215.200 C 139.600 214.346,139.420 213.536,139.200 213.400 C 138.980 213.264,138.800 212.454,138.800 211.600 C 138.800 210.746,138.620 209.936,138.400 209.800 C 138.180 209.664,138.000 208.854,138.000 208.000 C 138.000 207.146,137.820 206.336,137.600 206.200 C 137.380 206.064,137.200 205.279,137.200 204.456 C 137.200 203.633,137.038 202.789,136.841 202.580 C 136.644 202.371,136.385 201.480,136.267 200.600 C 136.149 199.720,135.852 198.100,135.608 197.000 C 135.363 195.900,135.000 194.190,134.800 193.200 C 134.600 192.210,134.238 190.500,133.996 189.400 C 133.754 188.300,133.464 186.770,133.353 186.000 C 133.242 185.230,132.993 184.240,132.800 183.800 C 132.607 183.360,132.358 182.370,132.247 181.600 C 132.136 180.830,131.846 179.300,131.604 178.200 C 131.362 177.100,131.000 175.390,130.800 174.400 C 130.600 173.410,130.240 171.700,130.000 170.600 C 129.760 169.500,129.400 167.790,129.200 166.800 C 129.000 165.810,128.669 164.190,128.464 163.200 C 128.012 161.018,125.764 149.554,125.405 147.600 C 125.264 146.830,125.053 145.390,124.935 144.400 C 124.818 143.410,124.560 142.429,124.361 142.220 C 124.163 142.011,124.000 141.192,124.000 140.400 C 124.000 139.608,123.837 138.789,123.637 138.580 C 123.437 138.371,123.177 137.300,123.058 136.200 C 122.940 135.100,122.645 133.120,122.403 131.800 C 122.161 130.480,121.871 128.590,121.760 127.600 C 121.649 126.610,121.396 125.440,121.198 125.000 C 120.849 124.222,120.594 122.340,120.172 117.400 C 120.059 116.080,119.786 114.636,119.564 114.191 C 118.770 112.593,119.543 96.730,120.442 96.174 C 120.639 96.052,120.800 95.524,120.800 95.000 C 120.800 94.476,120.980 93.936,121.200 93.800 C 121.420 93.664,121.600 93.203,121.600 92.776 C 121.600 92.349,121.780 92.000,122.000 92.000 C 122.220 92.000,122.400 91.640,122.400 91.200 C 122.400 90.760,122.580 90.400,122.800 90.400 C 123.020 90.400,123.200 90.040,123.200 89.600 C 123.200 89.160,123.380 88.800,123.600 88.800 C 123.820 88.800,124.000 88.575,124.000 88.300 C 124.001 88.025,124.451 87.277,125.000 86.638 C 125.550 85.999,126.000 85.333,126.000 85.158 C 126.000 84.168,134.813 76.400,135.936 76.400 C 136.191 76.400,136.400 76.220,136.400 76.000 C 136.400 75.780,136.760 75.600,137.200 75.600 C 137.640 75.600,138.000 75.420,138.000 75.200 C 138.000 74.980,138.360 74.800,138.800 74.800 C 139.240 74.800,139.600 74.620,139.600 74.400 C 139.600 74.180,139.872 74.000,140.205 74.000 C 140.538 74.000,141.168 73.820,141.605 73.600 C 142.042 73.380,142.758 73.020,143.195 72.800 C 143.632 72.580,144.431 72.400,144.971 72.400 C 145.511 72.400,146.064 72.220,146.200 72.000 C 146.336 71.780,147.292 71.597,148.324 71.594 C 149.356 71.591,150.470 71.413,150.800 71.200 C 151.516 70.737,152.816 70.695,153.473 71.113 M245.558 220.170 C 245.425 220.306,244.165 220.573,242.758 220.764 C 236.541 221.606,228.022 224.752,221.556 228.592 C 220.590 229.166,219.485 229.738,219.100 229.864 C 218.715 229.990,218.400 230.252,218.400 230.447 C 218.400 230.641,218.214 230.800,217.987 230.800 C 217.597 230.800,209.229 236.246,208.800 236.779 C 208.690 236.915,207.430 237.864,206.000 238.887 C 204.570 239.910,202.860 241.229,202.200 241.818 C 201.540 242.407,200.375 243.364,199.611 243.945 C 198.847 244.525,197.587 245.602,196.811 246.338 C 196.035 247.073,194.777 248.153,194.015 248.738 C 189.856 251.929,169.078 272.755,163.200 279.625 C 161.990 281.039,160.238 282.964,159.307 283.902 C 157.294 285.929,156.862 287.225,157.748 288.576 C 158.452 289.650,157.052 289.492,174.000 290.414 C 180.860 290.787,205.095 291.588,209.200 291.577 C 216.885 291.557,227.862 291.098,228.176 290.784 C 228.387 290.573,230.108 290.400,232.000 290.400 C 233.892 290.400,235.611 290.235,235.820 290.032 C 236.029 289.830,237.370 289.571,238.800 289.457 C 240.230 289.342,242.570 289.051,244.000 288.809 C 245.430 288.568,247.410 288.270,248.400 288.146 C 249.390 288.023,250.371 287.760,250.580 287.561 C 250.789 287.363,251.723 287.200,252.656 287.200 C 253.589 287.200,254.452 287.039,254.574 286.842 C 254.695 286.645,255.471 286.382,256.297 286.258 C 259.807 285.728,260.820 285.492,261.027 285.156 C 261.148 284.960,261.678 284.800,262.205 284.800 C 262.731 284.800,263.576 284.639,264.081 284.442 C 264.587 284.245,265.810 283.864,266.800 283.596 C 267.790 283.328,268.960 282.974,269.400 282.808 C 269.840 282.643,273.710 281.332,278.000 279.894 C 289.361 276.087,293.383 274.638,293.533 274.300 C 293.607 274.135,293.924 274.000,294.239 274.000 C 294.553 274.000,295.123 273.835,295.505 273.633 C 297.207 272.733,300.044 271.600,300.596 271.600 C 300.928 271.600,301.200 271.420,301.200 271.200 C 301.200 270.980,301.453 270.800,301.762 270.800 C 302.247 270.800,303.520 270.248,306.495 268.750 C 306.877 268.557,307.462 268.400,307.795 268.400 C 308.128 268.400,308.400 268.220,308.400 268.000 C 308.400 267.780,308.760 267.600,309.200 267.600 C 309.640 267.600,310.000 267.420,310.000 267.200 C 310.000 266.980,310.252 266.800,310.559 266.800 C 311.141 266.800,315.401 264.663,316.291 263.925 C 317.625 262.817,316.894 260.917,313.900 257.714 C 304.245 247.386,295.618 239.463,289.375 235.190 C 288.289 234.446,287.174 233.616,286.898 233.345 C 286.621 233.074,286.036 232.738,285.598 232.599 C 285.159 232.460,284.800 232.178,284.800 231.973 C 284.800 231.768,284.603 231.600,284.362 231.600 C 284.121 231.600,283.446 231.261,282.862 230.847 C 280.667 229.291,275.213 226.415,271.200 224.696 C 267.739 223.214,261.351 221.473,256.800 220.772 C 253.448 220.255,245.872 219.850,245.558 220.170 M256.402 225.522 C 260.266 226.030,265.278 227.374,268.600 228.795 C 271.826 230.174,278.225 233.366,278.333 233.651 C 278.407 233.843,278.638 234.000,278.847 234.000 C 279.222 234.000,287.373 239.349,288.255 240.174 C 288.939 240.813,289.933 241.605,292.800 243.796 C 295.773 246.068,308.230 258.333,309.588 260.326 L 310.491 261.651 309.645 261.872 C 309.180 261.994,308.800 262.252,308.800 262.447 C 308.800 262.641,308.440 262.800,308.000 262.800 C 307.560 262.800,307.200 262.980,307.200 263.200 C 307.200 263.420,306.947 263.600,306.638 263.600 C 306.329 263.600,305.384 263.939,304.538 264.353 C 302.692 265.256,299.309 266.782,298.200 267.211 C 297.760 267.381,296.547 267.898,295.504 268.360 C 294.462 268.822,293.461 269.200,293.279 269.200 C 293.098 269.200,292.205 269.560,291.294 270.000 C 290.384 270.440,289.396 270.800,289.099 270.800 C 288.803 270.800,288.389 270.962,288.180 271.160 C 287.971 271.358,284.740 272.539,281.000 273.784 C 277.260 275.029,273.840 276.197,273.400 276.379 C 272.960 276.560,271.790 276.927,270.800 277.193 C 269.810 277.460,268.687 277.840,268.305 278.039 C 267.923 278.238,267.259 278.400,266.829 278.400 C 266.399 278.400,265.936 278.580,265.800 278.800 C 265.664 279.020,265.034 279.200,264.400 279.200 C 263.766 279.200,263.148 279.360,263.027 279.556 C 262.906 279.751,262.176 280.021,261.404 280.156 C 260.632 280.290,259.368 280.510,258.596 280.644 C 257.824 280.779,257.094 281.049,256.973 281.244 C 256.852 281.440,256.054 281.600,255.200 281.600 C 254.346 281.600,253.536 281.780,253.400 282.000 C 253.264 282.220,252.479 282.400,251.656 282.400 C 250.833 282.400,249.989 282.563,249.780 282.763 C 249.571 282.963,248.500 283.225,247.400 283.346 C 246.300 283.466,244.230 283.760,242.800 283.998 C 239.661 284.522,235.687 285.031,229.800 285.664 C 221.117 286.598,169.069 286.069,166.700 285.023 C 164.995 284.271,165.880 283.184,180.225 268.400 C 187.539 260.862,200.394 248.875,203.365 246.823 C 203.824 246.506,204.290 246.133,204.400 245.993 C 205.312 244.841,219.650 234.800,220.385 234.800 C 220.613 234.800,220.800 234.663,220.800 234.496 C 220.800 234.328,222.015 233.563,223.500 232.796 C 224.985 232.028,226.260 231.265,226.333 231.100 C 226.407 230.935,226.627 230.800,226.823 230.800 C 227.019 230.800,228.399 230.241,229.890 229.557 C 233.857 227.738,239.410 226.005,242.533 225.611 C 244.037 225.422,245.383 225.150,245.525 225.009 C 245.847 224.687,252.396 224.996,256.402 225.522 " stroke="none" fill="#000000" fill-rule="evenodd"></path><path id="path1" d="M150.000 66.400 C 149.670 66.613,148.556 66.791,147.524 66.794 C 146.492 66.797,145.536 66.980,145.400 67.200 C 145.264 67.420,144.634 67.600,144.000 67.600 C 143.366 67.600,142.736 67.780,142.600 68.000 C 142.464 68.220,141.949 68.400,141.456 68.400 C 140.963 68.400,140.389 68.551,140.180 68.736 C 139.971 68.921,139.170 69.316,138.400 69.615 C 136.558 70.329,131.037 73.568,130.867 74.035 C 130.793 74.236,130.497 74.400,130.208 74.400 C 129.466 74.400,124.126 79.732,121.989 82.606 C 118.337 87.518,117.055 90.302,114.808 98.200 C 114.263 100.115,114.500 113.951,115.150 118.200 C 115.386 119.740,115.757 122.170,115.974 123.600 C 116.191 125.030,116.555 127.235,116.784 128.500 C 118.272 136.731,118.732 139.217,119.169 141.400 C 119.389 142.500,119.756 144.390,119.984 145.600 C 120.213 146.810,120.563 148.610,120.763 149.600 C 121.113 151.333,121.728 154.441,122.388 157.800 C 122.561 158.680,123.096 161.470,123.577 164.000 C 124.057 166.530,124.619 169.153,124.825 169.828 C 125.031 170.504,125.200 171.719,125.200 172.528 C 125.200 173.338,125.362 174.000,125.560 174.000 C 125.758 174.000,126.022 174.765,126.147 175.700 C 126.752 180.216,126.908 181.027,127.241 181.380 C 127.438 181.589,127.600 182.433,127.600 183.256 C 127.600 184.079,127.780 184.864,128.000 185.000 C 128.220 185.136,128.400 186.036,128.400 187.000 C 128.400 187.964,128.580 188.864,128.800 189.000 C 129.020 189.136,129.200 189.921,129.200 190.744 C 129.200 191.567,129.362 192.411,129.559 192.620 C 129.756 192.829,130.015 193.720,130.133 194.600 C 130.251 195.480,130.552 197.100,130.800 198.200 C 131.048 199.300,131.349 200.920,131.467 201.800 C 131.585 202.680,131.844 203.571,132.041 203.780 C 132.238 203.989,132.400 204.808,132.400 205.600 C 132.400 206.392,132.562 207.211,132.759 207.420 C 132.956 207.629,133.215 208.520,133.333 209.400 C 133.451 210.280,133.740 211.855,133.974 212.900 C 135.405 219.284,135.998 222.006,136.393 224.000 C 136.589 224.990,136.942 226.610,137.177 227.600 C 137.412 228.590,137.792 230.300,138.020 231.400 C 138.643 234.405,139.001 236.102,140.214 241.800 C 140.823 244.660,141.402 247.720,141.502 248.600 C 141.601 249.480,141.844 250.371,142.041 250.580 C 142.238 250.789,142.400 251.608,142.400 252.400 C 142.400 253.192,142.562 254.011,142.759 254.220 C 142.956 254.429,143.220 255.320,143.344 256.200 C 143.915 260.250,144.079 261.060,144.504 261.922 C 144.988 262.903,144.774 263.440,142.932 265.860 C 142.455 266.487,140.868 268.620,139.406 270.600 C 131.357 281.497,131.612 281.247,128.837 280.965 C 127.607 280.840,126.240 280.581,125.800 280.390 C 125.360 280.198,124.100 279.939,123.000 279.813 C 118.444 279.292,117.381 279.105,117.020 278.761 C 116.811 278.563,115.787 278.400,114.744 278.400 C 113.701 278.400,112.736 278.220,112.600 278.000 C 112.464 277.780,111.499 277.600,110.456 277.600 C 109.413 277.600,108.389 277.437,108.180 277.239 C 107.971 277.040,106.990 276.781,106.000 276.662 C 105.010 276.544,103.210 276.251,102.000 276.011 C 100.790 275.771,98.990 275.413,98.000 275.216 C 97.010 275.018,94.670 274.568,92.800 274.216 C 90.930 273.863,88.230 273.303,86.800 272.970 C 85.370 272.637,83.390 272.181,82.400 271.957 C 81.410 271.733,79.970 271.389,79.200 271.194 C 78.430 270.998,77.260 270.732,76.600 270.602 C 75.940 270.472,74.590 270.162,73.600 269.913 C 69.543 268.891,67.538 269.206,66.674 271.000 C 66.251 271.880,65.746 272.913,65.552 273.295 C 65.358 273.677,65.200 274.316,65.200 274.715 C 65.200 275.114,65.052 275.611,64.872 275.820 C 64.692 276.029,64.119 277.550,63.600 279.200 C 63.081 280.850,62.508 282.371,62.328 282.580 C 62.148 282.789,62.000 283.374,62.000 283.880 C 62.000 284.386,61.820 284.800,61.600 284.800 C 61.380 284.800,61.200 285.239,61.200 285.776 C 61.200 286.313,61.020 286.864,60.800 287.000 C 59.533 287.783,61.224 289.698,68.202 295.384 C 70.621 297.355,72.690 299.069,72.800 299.194 C 72.910 299.319,73.810 300.041,74.800 300.800 C 75.790 301.559,76.690 302.283,76.800 302.409 C 76.910 302.535,77.630 303.071,78.400 303.600 C 79.170 304.129,80.091 304.886,80.447 305.281 C 80.803 305.676,81.253 306.000,81.447 306.000 C 81.641 306.001,82.275 306.406,82.856 306.900 C 83.437 307.395,85.472 308.880,87.378 310.200 C 89.285 311.520,91.216 312.910,91.670 313.288 C 92.124 313.667,92.834 314.084,93.248 314.215 C 93.661 314.346,94.000 314.600,94.000 314.778 C 94.000 314.957,94.540 315.327,95.200 315.600 C 95.860 315.873,96.400 316.233,96.400 316.400 C 96.400 316.567,96.940 316.927,97.600 317.200 C 98.260 317.473,98.800 317.855,98.800 318.049 C 98.800 318.242,99.036 318.400,99.325 318.400 C 99.613 318.400,100.236 318.760,100.708 319.200 C 101.180 319.640,101.677 320.000,101.811 320.000 C 101.946 320.000,102.841 320.540,103.800 321.200 C 104.759 321.860,105.737 322.400,105.972 322.400 C 106.207 322.400,106.400 322.580,106.400 322.800 C 106.400 323.020,106.745 323.200,107.167 323.200 C 107.588 323.200,107.993 323.344,108.067 323.520 C 108.467 324.481,117.283 327.879,121.600 328.736 C 122.810 328.977,124.340 329.279,125.000 329.408 C 135.874 331.542,173.761 333.696,200.600 333.708 C 220.211 333.717,229.474 333.063,241.000 330.859 C 242.100 330.648,243.720 330.360,244.600 330.217 C 245.480 330.075,246.830 329.799,247.600 329.605 C 248.370 329.410,249.900 329.048,251.000 328.800 C 252.100 328.552,253.630 328.191,254.400 327.998 C 261.942 326.106,264.301 325.469,264.895 325.160 C 265.277 324.962,266.042 324.800,266.595 324.800 C 267.148 324.800,267.600 324.620,267.600 324.400 C 267.600 324.180,268.140 324.000,268.800 324.000 C 269.460 324.000,270.000 323.820,270.000 323.600 C 270.000 323.380,270.439 323.200,270.976 323.200 C 271.513 323.200,272.042 323.056,272.151 322.879 C 272.260 322.703,273.261 322.310,274.375 322.007 C 275.489 321.704,276.400 321.308,276.400 321.128 C 276.400 320.947,276.672 320.800,277.005 320.800 C 277.338 320.800,277.923 320.641,278.305 320.447 C 278.687 320.252,279.450 319.918,280.000 319.703 C 280.550 319.489,281.782 318.928,282.738 318.457 C 283.694 317.986,284.729 317.600,285.038 317.600 C 285.347 317.600,285.600 317.420,285.600 317.200 C 285.600 316.980,285.845 316.800,286.144 316.800 C 286.648 316.800,291.552 314.457,292.000 314.002 C 292.110 313.890,292.740 313.532,293.400 313.205 C 294.060 312.879,295.920 311.844,297.533 310.906 C 299.146 309.968,300.631 309.200,300.833 309.200 C 301.035 309.200,301.200 309.020,301.200 308.800 C 301.200 308.580,301.425 308.400,301.700 308.400 C 301.975 308.399,302.723 307.949,303.362 307.400 C 304.001 306.850,304.664 306.400,304.834 306.400 C 305.004 306.400,305.381 306.169,305.671 305.887 C 305.962 305.605,306.828 304.932,307.596 304.392 C 309.042 303.374,309.279 303.176,313.600 299.386 C 316.989 296.413,322.002 291.289,323.209 289.563 C 323.733 288.813,324.486 287.909,324.881 287.553 C 325.276 287.197,325.600 286.798,325.600 286.667 C 325.600 286.535,326.590 284.909,327.800 283.052 C 329.010 281.196,330.004 279.525,330.009 279.339 C 330.014 279.152,330.370 278.550,330.800 278.000 C 331.230 277.450,331.586 276.685,331.591 276.300 C 331.596 275.915,331.780 275.600,332.000 275.600 C 332.220 275.600,332.400 275.240,332.400 274.800 C 332.400 274.360,332.580 274.000,332.800 274.000 C 333.020 274.000,333.200 273.721,333.200 273.381 C 333.200 273.040,333.560 272.016,334.000 271.106 C 334.440 270.195,334.800 269.134,334.800 268.748 C 334.800 268.363,334.980 267.936,335.200 267.800 C 335.420 267.664,335.600 267.124,335.600 266.600 C 335.600 266.076,335.780 265.536,336.000 265.400 C 336.220 265.264,336.400 264.634,336.400 264.000 C 336.400 263.366,336.580 262.736,336.800 262.600 C 337.020 262.464,337.200 261.654,337.200 260.800 C 337.200 259.946,337.380 259.136,337.600 259.000 C 337.820 258.864,338.000 257.784,338.000 256.600 C 338.000 255.416,338.180 254.336,338.400 254.200 C 338.643 254.050,338.800 251.063,338.800 246.576 C 338.800 241.925,338.652 239.200,338.400 239.200 C 338.180 239.200,338.000 238.748,338.000 238.195 C 338.000 237.642,337.841 236.877,337.647 236.495 C 337.452 236.113,337.071 235.260,336.800 234.600 C 336.529 233.940,336.148 233.087,335.953 232.705 C 335.759 232.323,335.600 231.738,335.600 231.405 C 335.600 231.072,335.462 230.800,335.294 230.800 C 335.126 230.800,334.682 230.125,334.306 229.300 C 333.482 227.486,332.379 225.618,331.700 224.884 C 331.425 224.586,331.200 224.189,331.200 224.000 C 331.200 223.811,330.965 223.419,330.678 223.129 C 330.391 222.838,329.407 221.494,328.492 220.143 C 327.577 218.791,326.591 217.441,326.301 217.143 C 326.011 216.844,325.349 215.996,324.829 215.257 C 322.416 211.827,307.882 197.200,306.886 197.200 C 306.726 197.200,305.831 196.480,304.897 195.600 C 303.963 194.720,303.045 194.000,302.859 194.000 C 302.672 194.000,301.954 193.460,301.263 192.800 C 300.572 192.140,299.860 191.600,299.679 191.600 C 299.499 191.600,299.002 191.285,298.575 190.900 C 297.408 189.848,292.068 186.400,291.605 186.400 C 291.382 186.400,291.199 186.265,291.197 186.100 C 291.195 185.935,290.790 185.613,290.297 185.383 C 288.982 184.772,285.832 183.034,285.600 182.790 C 285.490 182.675,283.780 181.802,281.800 180.849 C 279.820 179.897,277.887 178.957,277.505 178.759 C 277.123 178.562,276.538 178.400,276.205 178.400 C 275.872 178.400,275.600 178.220,275.600 178.000 C 275.600 177.780,275.161 177.600,274.624 177.600 C 274.087 177.600,273.536 177.420,273.400 177.200 C 273.264 176.980,272.724 176.800,272.200 176.800 C 271.676 176.800,271.136 176.620,271.000 176.400 C 270.864 176.180,270.259 176.000,269.656 176.000 C 269.053 176.000,268.389 175.838,268.180 175.641 C 266.799 174.336,248.176 174.344,247.369 175.650 C 247.250 175.843,246.544 176.000,245.800 176.000 C 245.056 176.000,244.336 176.180,244.200 176.400 C 244.064 176.620,243.423 176.800,242.776 176.800 C 242.129 176.800,241.600 176.980,241.600 177.200 C 241.600 177.420,241.238 177.600,240.795 177.600 C 240.352 177.600,239.677 177.759,239.295 177.953 C 238.913 178.148,238.150 178.487,237.600 178.707 C 235.404 179.585,226.191 184.208,226.067 184.494 C 225.993 184.662,225.766 184.800,225.561 184.800 C 225.355 184.800,224.155 185.461,222.894 186.269 C 221.632 187.076,219.520 188.424,218.200 189.264 C 216.880 190.103,215.350 191.150,214.800 191.590 C 214.250 192.030,213.663 192.392,213.496 192.395 C 213.329 192.398,212.628 192.940,211.937 193.600 C 211.246 194.260,210.531 194.800,210.348 194.800 C 210.164 194.800,209.516 195.248,208.907 195.795 C 208.298 196.342,206.435 197.917,204.768 199.295 C 196.277 206.309,193.415 208.939,184.200 218.194 C 178.700 223.717,173.321 229.180,172.246 230.334 C 169.689 233.079,169.456 232.919,169.115 228.168 C 168.959 225.986,168.644 221.635,168.415 218.500 C 168.187 215.365,167.814 210.235,167.587 207.100 C 167.360 203.965,167.004 199.060,166.796 196.200 C 166.379 190.450,165.802 183.120,165.191 175.800 C 164.738 170.380,164.227 163.499,163.601 154.400 C 163.367 150.990,163.012 145.950,162.813 143.200 C 161.511 125.220,161.539 126.716,162.483 125.712 C 162.954 125.210,163.498 124.800,163.691 124.800 C 163.885 124.800,164.619 124.261,165.322 123.602 C 166.025 122.943,166.825 122.403,167.100 122.402 C 167.375 122.401,167.601 122.265,167.603 122.100 C 167.604 121.935,168.273 121.350,169.089 120.800 C 172.836 118.275,174.804 115.744,173.600 115.000 C 173.380 114.864,173.200 114.313,173.200 113.776 C 173.200 113.239,173.059 112.800,172.887 112.800 C 172.715 112.800,172.325 111.945,172.020 110.900 C 171.715 109.855,171.337 108.730,171.179 108.400 C 171.022 108.070,170.671 107.260,170.400 106.600 C 170.129 105.940,169.748 105.087,169.553 104.705 C 169.359 104.323,169.200 103.659,169.200 103.229 C 169.200 102.799,169.056 102.358,168.879 102.249 C 168.703 102.140,168.307 101.128,168.000 100.000 C 167.693 98.872,167.297 97.860,167.121 97.751 C 166.944 97.642,166.800 97.124,166.800 96.600 C 166.800 96.076,166.620 95.536,166.400 95.400 C 166.180 95.264,166.000 94.724,166.000 94.200 C 166.000 93.676,165.820 93.136,165.600 93.000 C 165.380 92.864,165.200 92.324,165.200 91.800 C 165.200 91.276,165.020 90.736,164.800 90.600 C 164.580 90.464,164.400 90.001,164.400 89.571 C 164.400 89.141,164.238 88.477,164.041 88.095 C 163.844 87.713,163.282 86.050,162.793 84.400 C 162.304 82.750,161.754 80.950,161.571 80.400 C 161.216 79.333,159.461 73.254,158.742 70.600 C 158.156 68.436,157.520 67.097,156.800 66.513 C 156.081 65.929,150.862 65.843,150.000 66.400 M153.473 71.113 C 154.038 71.472,154.966 74.284,157.397 83.000 C 157.765 84.320,158.232 85.713,158.433 86.095 C 158.635 86.477,158.800 87.242,158.800 87.795 C 158.800 88.348,158.980 88.800,159.200 88.800 C 159.420 88.800,159.600 89.329,159.600 89.976 C 159.600 90.623,159.780 91.264,160.000 91.400 C 160.220 91.536,160.400 91.999,160.400 92.429 C 160.400 92.859,160.580 93.568,160.800 94.005 C 161.020 94.442,161.380 95.158,161.600 95.595 C 161.820 96.032,162.000 96.741,162.000 97.171 C 162.000 97.601,162.180 98.064,162.400 98.200 C 162.620 98.336,162.800 98.876,162.800 99.400 C 162.800 99.924,162.980 100.464,163.200 100.600 C 163.420 100.736,163.600 101.199,163.600 101.629 C 163.600 102.059,163.759 102.723,163.953 103.105 C 164.429 104.040,165.018 105.507,165.600 107.200 C 166.118 108.708,166.462 109.629,167.097 111.200 C 168.860 115.569,169.182 114.935,162.803 119.657 C 156.256 124.503,156.553 123.887,157.200 131.317 C 157.473 134.443,157.859 139.610,158.058 142.800 C 158.811 154.856,159.806 168.636,160.398 175.200 C 161.023 182.122,161.632 189.909,162.802 205.900 C 163.024 208.925,163.378 213.740,163.589 216.600 C 163.800 219.460,164.160 224.590,164.388 228.000 C 165.198 240.088,165.204 240.135,166.102 241.100 C 167.301 242.389,168.126 242.223,169.866 240.344 C 170.710 239.433,172.300 237.762,173.400 236.631 C 174.500 235.499,176.234 233.589,177.254 232.386 C 179.885 229.282,192.347 216.799,196.607 213.000 C 198.581 211.240,200.646 209.343,201.198 208.785 C 201.749 208.226,202.830 207.333,203.600 206.800 C 204.370 206.267,205.450 205.373,206.000 204.814 C 206.550 204.255,207.630 203.323,208.400 202.744 C 209.170 202.165,210.181 201.355,210.647 200.945 C 211.112 200.535,212.012 199.811,212.647 199.335 C 213.281 198.859,214.674 197.811,215.743 197.005 C 217.885 195.390,223.085 192.000,223.421 192.000 C 223.538 192.000,224.020 191.640,224.492 191.200 C 224.964 190.760,225.587 190.400,225.875 190.400 C 226.164 190.400,226.400 190.241,226.400 190.047 C 226.400 189.852,226.715 189.590,227.100 189.464 C 227.485 189.338,228.520 188.806,229.400 188.281 C 230.749 187.477,232.674 186.467,236.895 184.349 C 237.277 184.157,237.862 184.000,238.195 184.000 C 238.528 184.000,238.800 183.859,238.800 183.687 C 238.800 183.515,239.655 183.129,240.700 182.829 C 241.745 182.529,242.780 182.154,243.000 181.996 C 243.220 181.837,243.850 181.606,244.400 181.482 C 244.950 181.357,246.120 181.048,247.000 180.794 C 251.869 179.389,261.328 178.956,265.600 179.941 C 266.810 180.220,268.387 180.548,269.104 180.669 C 269.821 180.789,270.506 181.049,270.627 181.244 C 270.748 181.440,271.199 181.600,271.629 181.600 C 272.059 181.600,272.813 181.808,273.305 182.062 C 275.182 183.033,275.607 183.200,276.195 183.200 C 276.528 183.200,276.800 183.380,276.800 183.600 C 276.800 183.820,277.034 184.000,277.320 184.000 C 278.056 184.000,279.993 184.941,279.997 185.300 C 279.999 185.465,280.360 185.600,280.800 185.600 C 281.240 185.600,281.600 185.780,281.600 186.000 C 281.600 186.220,281.960 186.400,282.400 186.400 C 282.840 186.400,283.200 186.536,283.200 186.702 C 283.200 186.869,283.785 187.258,284.500 187.568 C 285.215 187.877,286.552 188.641,287.472 189.265 C 288.392 189.889,289.337 190.400,289.572 190.400 C 289.807 190.400,290.000 190.580,290.000 190.800 C 290.000 191.020,290.195 191.200,290.434 191.200 C 290.945 191.200,299.630 197.107,301.463 198.701 C 302.158 199.306,303.148 200.144,303.663 200.565 C 310.308 205.990,319.760 215.583,322.811 220.000 C 323.343 220.770,324.098 221.749,324.489 222.175 C 324.880 222.602,325.200 223.172,325.200 223.442 C 325.200 223.712,325.349 223.993,325.530 224.067 C 326.497 224.457,331.195 232.526,332.827 236.600 C 333.855 239.168,335.021 245.319,334.606 245.990 C 334.457 246.232,334.173 248.448,333.974 250.915 C 333.468 257.221,333.177 259.342,332.761 259.780 C 332.563 259.989,332.400 260.743,332.400 261.456 C 332.400 262.169,332.220 262.864,332.000 263.000 C 331.780 263.136,331.600 263.766,331.600 264.400 C 331.600 265.034,331.420 265.664,331.200 265.800 C 330.980 265.936,330.800 266.399,330.800 266.829 C 330.800 267.259,330.643 267.923,330.450 268.305 C 328.952 271.280,328.400 272.553,328.400 273.038 C 328.400 273.347,328.220 273.600,328.000 273.600 C 327.780 273.600,327.600 273.960,327.600 274.400 C 327.600 274.840,327.420 275.200,327.200 275.200 C 326.980 275.200,326.800 275.560,326.800 276.000 C 326.800 276.440,326.641 276.800,326.447 276.800 C 326.252 276.800,325.993 277.115,325.871 277.500 C 325.627 278.270,324.342 280.483,323.956 280.800 C 323.822 280.910,323.429 281.540,323.083 282.200 C 322.314 283.667,318.908 287.935,316.183 290.846 C 313.476 293.736,311.069 295.884,305.800 300.107 C 302.522 302.735,296.181 306.700,291.000 309.362 C 289.680 310.040,288.510 310.687,288.400 310.798 C 288.290 310.910,287.750 311.200,287.200 311.444 C 286.650 311.687,285.418 312.272,284.462 312.743 C 283.506 313.214,282.471 313.600,282.162 313.600 C 281.853 313.600,281.600 313.780,281.600 314.000 C 281.600 314.220,281.364 314.400,281.075 314.400 C 280.786 314.400,279.805 314.760,278.894 315.200 C 277.984 315.640,277.084 316.000,276.894 316.000 C 276.705 316.000,275.805 316.360,274.894 316.800 C 273.984 317.240,273.048 317.600,272.814 317.600 C 272.580 317.600,272.077 317.774,271.695 317.986 C 270.978 318.384,265.175 320.302,262.000 321.190 C 261.010 321.466,259.750 321.841,259.200 322.021 C 256.477 322.915,248.139 324.731,245.200 325.070 C 244.210 325.184,243.229 325.440,243.020 325.639 C 242.811 325.837,241.902 326.000,241.000 326.000 C 240.098 326.000,239.189 326.165,238.980 326.366 C 238.771 326.568,237.520 326.833,236.200 326.956 C 234.880 327.079,232.270 327.371,230.400 327.605 C 214.165 329.638,176.822 329.286,147.000 326.819 C 144.360 326.601,140.310 326.319,138.000 326.194 C 135.690 326.069,133.440 325.801,133.000 325.599 C 132.560 325.397,131.030 325.147,129.600 325.043 C 122.395 324.523,116.864 323.121,112.400 320.684 C 111.630 320.264,110.280 319.533,109.400 319.060 C 108.520 318.587,107.710 318.110,107.600 318.000 C 107.204 317.604,104.985 316.346,104.300 316.129 C 103.915 316.007,103.600 315.748,103.600 315.553 C 103.600 315.359,103.364 315.200,103.075 315.200 C 102.787 315.200,102.164 314.840,101.692 314.400 C 101.220 313.960,100.680 313.600,100.492 313.600 C 100.304 313.600,99.802 313.285,99.375 312.900 C 98.949 312.515,98.105 311.945,97.500 311.632 C 96.895 311.320,96.400 310.915,96.400 310.732 C 96.400 310.550,96.145 310.400,95.833 310.400 C 95.522 310.400,95.207 310.255,95.133 310.078 C 95.060 309.901,93.470 308.702,91.600 307.414 C 87.372 304.500,81.071 299.844,79.161 298.222 C 77.769 297.040,76.115 295.680,73.206 293.327 C 72.440 292.707,71.306 291.722,70.687 291.139 C 70.068 290.555,68.948 289.656,68.197 289.142 C 66.548 288.012,65.723 286.640,66.256 285.914 C 66.464 285.631,66.863 284.680,67.143 283.800 C 67.677 282.123,68.252 280.674,68.847 279.505 C 69.041 279.123,69.200 278.536,69.200 278.200 C 69.200 277.864,69.367 277.277,69.571 276.895 C 69.775 276.513,70.046 275.868,70.173 275.462 C 70.488 274.456,72.367 274.652,81.000 276.587 C 82.540 276.933,84.700 277.410,85.800 277.648 C 86.900 277.886,88.520 278.244,89.400 278.443 C 91.240 278.859,94.160 279.473,96.900 280.021 C 97.945 280.229,99.745 280.589,100.900 280.820 C 102.055 281.052,103.720 281.332,104.600 281.443 C 105.480 281.554,106.560 281.806,107.000 282.002 C 107.440 282.198,108.655 282.458,109.700 282.579 C 114.456 283.132,115.424 283.301,115.780 283.639 C 115.989 283.837,117.013 284.000,118.056 284.000 C 119.099 284.000,120.064 284.180,120.200 284.400 C 120.336 284.620,121.326 284.800,122.400 284.800 C 123.474 284.800,124.464 284.980,124.600 285.200 C 124.736 285.420,125.726 285.600,126.800 285.600 C 127.874 285.600,128.864 285.780,129.000 286.000 C 129.136 286.220,130.118 286.400,131.183 286.400 C 133.278 286.400,134.061 285.715,138.283 280.189 C 139.117 279.098,140.294 277.663,140.898 277.002 C 141.502 276.341,141.997 275.590,141.998 275.333 C 141.999 275.077,142.152 274.807,142.338 274.733 C 142.524 274.660,143.374 273.610,144.227 272.400 C 145.079 271.190,145.881 270.110,146.008 270.000 C 146.135 269.890,146.675 269.170,147.208 268.400 C 147.742 267.630,148.498 266.651,148.889 266.225 C 149.682 265.360,149.925 260.648,149.200 260.200 C 148.980 260.064,148.800 259.279,148.800 258.456 C 148.800 257.633,148.638 256.789,148.441 256.580 C 148.244 256.371,147.985 255.480,147.867 254.600 C 147.749 253.720,147.460 252.145,147.226 251.100 C 146.992 250.055,146.628 248.435,146.417 247.500 C 146.207 246.565,145.848 244.900,145.620 243.800 C 145.392 242.700,145.044 241.080,144.848 240.200 C 143.523 234.251,142.006 226.428,142.003 225.524 C 142.002 224.932,141.820 224.336,141.600 224.200 C 141.380 224.064,141.200 223.254,141.200 222.400 C 141.200 221.546,141.020 220.736,140.800 220.600 C 140.580 220.464,140.400 219.654,140.400 218.800 C 140.400 217.946,140.220 217.136,140.000 217.000 C 139.780 216.864,139.600 216.054,139.600 215.200 C 139.600 214.346,139.420 213.536,139.200 213.400 C 138.980 213.264,138.800 212.454,138.800 211.600 C 138.800 210.746,138.620 209.936,138.400 209.800 C 138.180 209.664,138.000 208.854,138.000 208.000 C 138.000 207.146,137.820 206.336,137.600 206.200 C 137.380 206.064,137.200 205.279,137.200 204.456 C 137.200 203.633,137.038 202.789,136.841 202.580 C 136.644 202.371,136.385 201.480,136.267 200.600 C 136.149 199.720,135.852 198.100,135.608 197.000 C 135.363 195.900,135.000 194.190,134.800 193.200 C 134.600 192.210,134.238 190.500,133.996 189.400 C 133.754 188.300,133.464 186.770,133.353 186.000 C 133.242 185.230,132.993 184.240,132.800 183.800 C 132.607 183.360,132.358 182.370,132.247 181.600 C 132.136 180.830,131.846 179.300,131.604 178.200 C 131.362 177.100,131.000 175.390,130.800 174.400 C 130.600 173.410,130.240 171.700,130.000 170.600 C 129.760 169.500,129.400 167.790,129.200 166.800 C 129.000 165.810,128.669 164.190,128.464 163.200 C 128.012 161.018,125.764 149.554,125.405 147.600 C 125.264 146.830,125.053 145.390,124.935 144.400 C 124.818 143.410,124.560 142.429,124.361 142.220 C 124.163 142.011,124.000 141.192,124.000 140.400 C 124.000 139.608,123.837 138.789,123.637 138.580 C 123.437 138.371,123.177 137.300,123.058 136.200 C 122.940 135.100,122.645 133.120,122.403 131.800 C 122.161 130.480,121.871 128.590,121.760 127.600 C 121.649 126.610,121.396 125.440,121.198 125.000 C 120.849 124.222,120.594 122.340,120.172 117.400 C 120.059 116.080,119.786 114.636,119.564 114.191 C 118.770 112.593,119.543 96.730,120.442 96.174 C 120.639 96.052,120.800 95.524,120.800 95.000 C 120.800 94.476,120.980 93.936,121.200 93.800 C 121.420 93.664,121.600 93.203,121.600 92.776 C 121.600 92.349,121.780 92.000,122.000 92.000 C 122.220 92.000,122.400 91.640,122.400 91.200 C 122.400 90.760,122.580 90.400,122.800 90.400 C 123.020 90.400,123.200 90.040,123.200 89.600 C 123.200 89.160,123.380 88.800,123.600 88.800 C 123.820 88.800,124.000 88.575,124.000 88.300 C 124.001 88.025,124.451 87.277,125.000 86.638 C 125.550 85.999,126.000 85.333,126.000 85.158 C 126.000 84.168,134.813 76.400,135.936 76.400 C 136.191 76.400,136.400 76.220,136.400 76.000 C 136.400 75.780,136.760 75.600,137.200 75.600 C 137.640 75.600,138.000 75.420,138.000 75.200 C 138.000 74.980,138.360 74.800,138.800 74.800 C 139.240 74.800,139.600 74.620,139.600 74.400 C 139.600 74.180,139.872 74.000,140.205 74.000 C 140.538 74.000,141.168 73.820,141.605 73.600 C 142.042 73.380,142.758 73.020,143.195 72.800 C 143.632 72.580,144.431 72.400,144.971 72.400 C 145.511 72.400,146.064 72.220,146.200 72.000 C 146.336 71.780,147.292 71.597,148.324 71.594 C 149.356 71.591,150.470 71.413,150.800 71.200 C 151.516 70.737,152.816 70.695,153.473 71.113 M245.558 220.170 C 245.425 220.306,244.165 220.573,242.758 220.764 C 236.541 221.606,228.022 224.752,221.556 228.592 C 220.590 229.166,219.485 229.738,219.100 229.864 C 218.715 229.990,218.400 230.252,218.400 230.447 C 218.400 230.641,218.214 230.800,217.987 230.800 C 217.597 230.800,209.229 236.246,208.800 236.779 C 208.690 236.915,207.430 237.864,206.000 238.887 C 204.570 239.910,202.860 241.229,202.200 241.818 C 201.540 242.407,200.375 243.364,199.611 243.945 C 198.847 244.525,197.587 245.602,196.811 246.338 C 196.035 247.073,194.777 248.153,194.015 248.738 C 189.856 251.929,169.078 272.755,163.200 279.625 C 161.990 281.039,160.238 282.964,159.307 283.902 C 157.294 285.929,156.862 287.225,157.748 288.576 C 158.452 289.650,157.052 289.492,174.000 290.414 C 180.860 290.787,205.095 291.588,209.200 291.577 C 216.885 291.557,227.862 291.098,228.176 290.784 C 228.387 290.573,230.108 290.400,232.000 290.400 C 233.892 290.400,235.611 290.235,235.820 290.032 C 236.029 289.830,237.370 289.571,238.800 289.457 C 240.230 289.342,242.570 289.051,244.000 288.809 C 245.430 288.568,247.410 288.270,248.400 288.146 C 249.390 288.023,250.371 287.760,250.580 287.561 C 250.789 287.363,251.723 287.200,252.656 287.200 C 253.589 287.200,254.452 287.039,254.574 286.842 C 254.695 286.645,255.471 286.382,256.297 286.258 C 259.807 285.728,260.820 285.492,261.027 285.156 C 261.148 284.960,261.678 284.800,262.205 284.800 C 262.731 284.800,263.576 284.639,264.081 284.442 C 264.587 284.245,265.810 283.864,266.800 283.596 C 267.790 283.328,268.960 282.974,269.400 282.808 C 269.840 282.643,273.710 281.332,278.000 279.894 C 289.361 276.087,293.383 274.638,293.533 274.300 C 293.607 274.135,293.924 274.000,294.239 274.000 C 294.553 274.000,295.123 273.835,295.505 273.633 C 297.207 272.733,300.044 271.600,300.596 271.600 C 300.928 271.600,301.200 271.420,301.200 271.200 C 301.200 270.980,301.453 270.800,301.762 270.800 C 302.247 270.800,303.520 270.248,306.495 268.750 C 306.877 268.557,307.462 268.400,307.795 268.400 C 308.128 268.400,308.400 268.220,308.400 268.000 C 308.400 267.780,308.760 267.600,309.200 267.600 C 309.640 267.600,310.000 267.420,310.000 267.200 C 310.000 266.980,310.252 266.800,310.559 266.800 C 311.141 266.800,315.401 264.663,316.291 263.925 C 317.625 262.817,316.894 260.917,313.900 257.714 C 304.245 247.386,295.618 239.463,289.375 235.190 C 288.289 234.446,287.174 233.616,286.898 233.345 C 286.621 233.074,286.036 232.738,285.598 232.599 C 285.159 232.460,284.800 232.178,284.800 231.973 C 284.800 231.768,284.603 231.600,284.362 231.600 C 284.121 231.600,283.446 231.261,282.862 230.847 C 280.667 229.291,275.213 226.415,271.200 224.696 C 267.739 223.214,261.351 221.473,256.800 220.772 C 253.448 220.255,245.872 219.850,245.558 220.170 M256.402 225.522 C 260.266 226.030,265.278 227.374,268.600 228.795 C 271.826 230.174,278.225 233.366,278.333 233.651 C 278.407 233.843,278.638 234.000,278.847 234.000 C 279.222 234.000,287.373 239.349,288.255 240.174 C 288.939 240.813,289.933 241.605,292.800 243.796 C 295.773 246.068,308.230 258.333,309.588 260.326 L 310.491 261.651 309.645 261.872 C 309.180 261.994,308.800 262.252,308.800 262.447 C 308.800 262.641,308.440 262.800,308.000 262.800 C 307.560 262.800,307.200 262.980,307.200 263.200 C 307.200 263.420,306.947 263.600,306.638 263.600 C 306.329 263.600,305.384 263.939,304.538 264.353 C 302.692 265.256,299.309 266.782,298.200 267.211 C 297.760 267.381,296.547 267.898,295.504 268.360 C 294.462 268.822,293.461 269.200,293.279 269.200 C 293.098 269.200,292.205 269.560,291.294 270.000 C 290.384 270.440,289.396 270.800,289.099 270.800 C 288.803 270.800,288.389 270.962,288.180 271.160 C 287.971 271.358,284.740 272.539,281.000 273.784 C 277.260 275.029,273.840 276.197,273.400 276.379 C 272.960 276.560,271.790 276.927,270.800 277.193 C 269.810 277.460,268.687 277.840,268.305 278.039 C 267.923 278.238,267.259 278.400,266.829 278.400 C 266.399 278.400,265.936 278.580,265.800 278.800 C 265.664 279.020,265.034 279.200,264.400 279.200 C 263.766 279.200,263.148 279.360,263.027 279.556 C 262.906 279.751,262.176 280.021,261.404 280.156 C 260.632 280.290,259.368 280.510,258.596 280.644 C 257.824 280.779,257.094 281.049,256.973 281.244 C 256.852 281.440,256.054 281.600,255.200 281.600 C 254.346 281.600,253.536 281.780,253.400 282.000 C 253.264 282.220,252.479 282.400,251.656 282.400 C 250.833 282.400,249.989 282.563,249.780 282.763 C 249.571 282.963,248.500 283.225,247.400 283.346 C 246.300 283.466,244.230 283.760,242.800 283.998 C 239.661 284.522,235.687 285.031,229.800 285.664 C 221.117 286.598,169.069 286.069,166.700 285.023 C 164.995 284.271,165.880 283.184,180.225 268.400 C 187.539 260.862,200.394 248.875,203.365 246.823 C 203.824 246.506,204.290 246.133,204.400 245.993 C 205.312 244.841,219.650 234.800,220.385 234.800 C 220.613 234.800,220.800 234.663,220.800 234.496 C 220.800 234.328,222.015 233.563,223.500 232.796 C 224.985 232.028,226.260 231.265,226.333 231.100 C 226.407 230.935,226.627 230.800,226.823 230.800 C 227.019 230.800,228.399 230.241,229.890 229.557 C 233.857 227.738,239.410 226.005,242.533 225.611 C 244.037 225.422,245.383 225.150,245.525 225.009 C 245.847 224.687,252.396 224.996,256.402 225.522 " stroke="none" fill="#000000" fill-rule="evenodd"></path><path id="path2" d="M150.000 66.400 C 149.670 66.613,148.556 66.791,147.524 66.794 C 146.492 66.797,145.536 66.980,145.400 67.200 C 145.264 67.420,144.634 67.600,144.000 67.600 C 143.366 67.600,142.736 67.780,142.600 68.000 C 142.464 68.220,141.949 68.400,141.456 68.400 C 140.963 68.400,140.389 68.551,140.180 68.736 C 139.971 68.921,139.170 69.316,138.400 69.615 C 136.558 70.329,131.037 73.568,130.867 74.035 C 130.793 74.236,130.497 74.400,130.208 74.400 C 129.466 74.400,124.126 79.732,121.989 82.606 C 118.337 87.518,117.055 90.302,114.808 98.200 C 114.263 100.115,114.500 113.951,115.150 118.200 C 115.386 119.740,115.757 122.170,115.974 123.600 C 116.191 125.030,116.555 127.235,116.784 128.500 C 118.272 136.731,118.732 139.217,119.169 141.400 C 119.389 142.500,119.756 144.390,119.984 145.600 C 120.213 146.810,120.563 148.610,120.763 149.600 C 121.113 151.333,121.728 154.441,122.388 157.800 C 122.561 158.680,123.096 161.470,123.577 164.000 C 124.057 166.530,124.619 169.153,124.825 169.828 C 125.031 170.504,125.200 171.719,125.200 172.528 C 125.200 173.338,125.362 174.000,125.560 174.000 C 125.758 174.000,126.022 174.765,126.147 175.700 C 126.752 180.216,126.908 181.027,127.241 181.380 C 127.438 181.589,127.600 182.433,127.600 183.256 C 127.600 184.079,127.780 184.864,128.000 185.000 C 128.220 185.136,128.400 186.036,128.400 187.000 C 128.400 187.964,128.580 188.864,128.800 189.000 C 129.020 189.136,129.200 189.921,129.200 190.744 C 129.200 191.567,129.362 192.411,129.559 192.620 C 129.756 192.829,130.015 193.720,130.133 194.600 C 130.251 195.480,130.552 197.100,130.800 198.200 C 131.048 199.300,131.349 200.920,131.467 201.800 C 131.585 202.680,131.844 203.571,132.041 203.780 C 132.238 203.989,132.400 204.808,132.400 205.600 C 132.400 206.392,132.562 207.211,132.759 207.420 C 132.956 207.629,133.215 208.520,133.333 209.400 C 133.451 210.280,133.740 211.855,133.974 212.900 C 135.405 219.284,135.998 222.006,136.393 224.000 C 136.589 224.990,136.942 226.610,137.177 227.600 C 137.412 228.590,137.792 230.300,138.020 231.400 C 138.643 234.405,139.001 236.102,140.214 241.800 C 140.823 244.660,141.402 247.720,141.502 248.600 C 141.601 249.480,141.844 250.371,142.041 250.580 C 142.238 250.789,142.400 251.608,142.400 252.400 C 142.400 253.192,142.562 254.011,142.759 254.220 C 142.956 254.429,143.220 255.320,143.344 256.200 C 143.915 260.250,144.079 261.060,144.504 261.922 C 144.988 262.903,144.774 263.440,142.932 265.860 C 142.455 266.487,140.868 268.620,139.406 270.600 C 131.357 281.497,131.612 281.247,128.837 280.965 C 127.607 280.840,126.240 280.581,125.800 280.390 C 125.360 280.198,124.100 279.939,123.000 279.813 C 118.444 279.292,117.381 279.105,117.020 278.761 C 116.811 278.563,115.787 278.400,114.744 278.400 C 113.701 278.400,112.736 278.220,112.600 278.000 C 112.464 277.780,111.499 277.600,110.456 277.600 C 109.413 277.600,108.389 277.437,108.180 277.239 C 107.971 277.040,106.990 276.781,106.000 276.662 C 105.010 276.544,103.210 276.251,102.000 276.011 C 100.790 275.771,98.990 275.413,98.000 275.216 C 97.010 275.018,94.670 274.568,92.800 274.216 C 90.930 273.863,88.230 273.303,86.800 272.970 C 85.370 272.637,83.390 272.181,82.400 271.957 C 81.410 271.733,79.970 271.389,79.200 271.194 C 78.430 270.998,77.260 270.732,76.600 270.602 C 75.940 270.472,74.590 270.162,73.600 269.913 C 69.543 268.891,67.538 269.206,66.674 271.000 C 66.251 271.880,65.746 272.913,65.552 273.295 C 65.358 273.677,65.200 274.316,65.200 274.715 C 65.200 275.114,65.052 275.611,64.872 275.820 C 64.692 276.029,64.119 277.550,63.600 279.200 C 63.081 280.850,62.508 282.371,62.328 282.580 C 62.148 282.789,62.000 283.374,62.000 283.880 C 62.000 284.386,61.820 284.800,61.600 284.800 C 61.380 284.800,61.200 285.239,61.200 285.776 C 61.200 286.313,61.020 286.864,60.800 287.000 C 59.533 287.783,61.224 289.698,68.202 295.384 C 70.621 297.355,72.690 299.069,72.800 299.194 C 72.910 299.319,73.810 300.041,74.800 300.800 C 75.790 301.559,76.690 302.283,76.800 302.409 C 76.910 302.535,77.630 303.071,78.400 303.600 C 79.170 304.129,80.091 304.886,80.447 305.281 C 80.803 305.676,81.253 306.000,81.447 306.000 C 81.641 306.001,82.275 306.406,82.856 306.900 C 83.437 307.395,85.472 308.880,87.378 310.200 C 89.285 311.520,91.216 312.910,91.670 313.288 C 92.124 313.667,92.834 314.084,93.248 314.215 C 93.661 314.346,94.000 314.600,94.000 314.778 C 94.000 314.957,94.540 315.327,95.200 315.600 C 95.860 315.873,96.400 316.233,96.400 316.400 C 96.400 316.567,96.940 316.927,97.600 317.200 C 98.260 317.473,98.800 317.855,98.800 318.049 C 98.800 318.242,99.036 318.400,99.325 318.400 C 99.613 318.400,100.236 318.760,100.708 319.200 C 101.180 319.640,101.677 320.000,101.811 320.000 C 101.946 320.000,102.841 320.540,103.800 321.200 C 104.759 321.860,105.737 322.400,105.972 322.400 C 106.207 322.400,106.400 322.580,106.400 322.800 C 106.400 323.020,106.745 323.200,107.167 323.200 C 107.588 323.200,107.993 323.344,108.067 323.520 C 108.467 324.481,117.283 327.879,121.600 328.736 C 122.810 328.977,124.340 329.279,125.000 329.408 C 135.874 331.542,173.761 333.696,200.600 333.708 C 220.211 333.717,229.474 333.063,241.000 330.859 C 242.100 330.648,243.720 330.360,244.600 330.217 C 245.480 330.075,246.830 329.799,247.600 329.605 C 248.370 329.410,249.900 329.048,251.000 328.800 C 252.100 328.552,253.630 328.191,254.400 327.998 C 261.942 326.106,264.301 325.469,264.895 325.160 C 265.277 324.962,266.042 324.800,266.595 324.800 C 267.148 324.800,267.600 324.620,267.600 324.400 C 267.600 324.180,268.140 324.000,268.800 324.000 C 269.460 324.000,270.000 323.820,270.000 323.600 C 270.000 323.380,270.439 323.200,270.976 323.200 C 271.513 323.200,272.042 323.056,272.151 322.879 C 272.260 322.703,273.261 322.310,274.375 322.007 C 275.489 321.704,276.400 321.308,276.400 321.128 C 276.400 320.947,276.672 320.800,277.005 320.800 C 277.338 320.800,277.923 320.641,278.305 320.447 C 278.687 320.252,279.450 319.918,280.000 319.703 C 280.550 319.489,281.782 318.928,282.738 318.457 C 283.694 317.986,284.729 317.600,285.038 317.600 C 285.347 317.600,285.600 317.420,285.600 317.200 C 285.600 316.980,285.845 316.800,286.144 316.800 C 286.648 316.800,291.552 314.457,292.000 314.002 C 292.110 313.890,292.740 313.532,293.400 313.205 C 294.060 312.879,295.920 311.844,297.533 310.906 C 299.146 309.968,300.631 309.200,300.833 309.200 C 301.035 309.200,301.200 309.020,301.200 308.800 C 301.200 308.580,301.425 308.400,301.700 308.400 C 301.975 308.399,302.723 307.949,303.362 307.400 C 304.001 306.850,304.664 306.400,304.834 306.400 C 305.004 306.400,305.381 306.169,305.671 305.887 C 305.962 305.605,306.828 304.932,307.596 304.392 C 309.042 303.374,309.279 303.176,313.600 299.386 C 316.989 296.413,322.002 291.289,323.209 289.563 C 323.733 288.813,324.486 287.909,324.881 287.553 C 325.276 287.197,325.600 286.798,325.600 286.667 C 325.600 286.535,326.590 284.909,327.800 283.052 C 329.010 281.196,330.004 279.525,330.009 279.339 C 330.014 279.152,330.370 278.550,330.800 278.000 C 331.230 277.450,331.586 276.685,331.591 276.300 C 331.596 275.915,331.780 275.600,332.000 275.600 C 332.220 275.600,332.400 275.240,332.400 274.800 C 332.400 274.360,332.580 274.000,332.800 274.000 C 333.020 274.000,333.200 273.721,333.200 273.381 C 333.200 273.040,333.560 272.016,334.000 271.106 C 334.440 270.195,334.800 269.134,334.800 268.748 C 334.800 268.363,334.980 267.936,335.200 267.800 C 335.420 267.664,335.600 267.124,335.600 266.600 C 335.600 266.076,335.780 265.536,336.000 265.400 C 336.220 265.264,336.400 264.634,336.400 264.000 C 336.400 263.366,336.580 262.736,336.800 262.600 C 337.020 262.464,337.200 261.654,337.200 260.800 C 337.200 259.946,337.380 259.136,337.600 259.000 C 337.820 258.864,338.000 257.784,338.000 256.600 C 338.000 255.416,338.180 254.336,338.400 254.200 C 338.643 254.050,338.800 251.063,338.800 246.576 C 338.800 241.925,338.652 239.200,338.400 239.200 C 338.180 239.200,338.000 238.748,338.000 238.195 C 338.000 237.642,337.841 236.877,337.647 236.495 C 337.452 236.113,337.071 235.260,336.800 234.600 C 336.529 233.940,336.148 233.087,335.953 232.705 C 335.759 232.323,335.600 231.738,335.600 231.405 C 335.600 231.072,335.462 230.800,335.294 230.800 C 335.126 230.800,334.682 230.125,334.306 229.300 C 333.482 227.486,332.379 225.618,331.700 224.884 C 331.425 224.586,331.200 224.189,331.200 224.000 C 331.200 223.811,330.965 223.419,330.678 223.129 C 330.391 222.838,329.407 221.494,328.492 220.143 C 327.577 218.791,326.591 217.441,326.301 217.143 C 326.011 216.844,325.349 215.996,324.829 215.257 C 322.416 211.827,307.882 197.200,306.886 197.200 C 306.726 197.200,305.831 196.480,304.897 195.600 C 303.963 194.720,303.045 194.000,302.859 194.000 C 302.672 194.000,301.954 193.460,301.263 192.800 C 300.572 192.140,299.860 191.600,299.679 191.600 C 299.499 191.600,299.002 191.285,298.575 190.900 C 297.408 189.848,292.068 186.400,291.605 186.400 C 291.382 186.400,291.199 186.265,291.197 186.100 C 291.195 185.935,290.790 185.613,290.297 185.383 C 288.982 184.772,285.832 183.034,285.600 182.790 C 285.490 182.675,283.780 181.802,281.800 180.849 C 279.820 179.897,277.887 178.957,277.505 178.759 C 277.123 178.562,276.538 178.400,276.205 178.400 C 275.872 178.400,275.600 178.220,275.600 178.000 C 275.600 177.780,275.161 177.600,274.624 177.600 C 274.087 177.600,273.536 177.420,273.400 177.200 C 273.264 176.980,272.724 176.800,272.200 176.800 C 271.676 176.800,271.136 176.620,271.000 176.400 C 270.864 176.180,270.259 176.000,269.656 176.000 C 269.053 176.000,268.389 175.838,268.180 175.641 C 266.799 174.336,248.176 174.344,247.369 175.650 C 247.250 175.843,246.544 176.000,245.800 176.000 C 245.056 176.000,244.336 176.180,244.200 176.400 C 244.064 176.620,243.423 176.800,242.776 176.800 C 242.129 176.800,241.600 176.980,241.600 177.200 C 241.600 177.420,241.238 177.600,240.795 177.600 C 240.352 177.600,239.677 177.759,239.295 177.953 C 238.913 178.148,238.150 178.487,237.600 178.707 C 235.404 179.585,226.191 184.208,226.067 184.494 C 225.993 184.662,225.766 184.800,225.561 184.800 C 225.355 184.800,224.155 185.461,222.894 186.269 C 221.632 187.076,219.520 188.424,218.200 189.264 C 216.880 190.103,215.350 191.150,214.800 191.590 C 214.250 192.030,213.663 192.392,213.496 192.395 C 213.329 192.398,212.628 192.940,211.937 193.600 C 211.246 194.260,210.531 194.800,210.348 194.800 C 210.164 194.800,209.516 195.248,208.907 195.795 C 208.298 196.342,206.435 197.917,204.768 199.295 C 196.277 206.309,193.415 208.939,184.200 218.194 C 178.700 223.717,173.321 229.180,172.246 230.334 C 169.689 233.079,169.456 232.919,169.115 228.168 C 168.959 225.986,168.644 221.635,168.415 218.500 C 168.187 215.365,167.814 210.235,167.587 207.100 C 167.360 203.965,167.004 199.060,166.796 196.200 C 166.379 190.450,165.802 183.120,165.191 175.800 C 164.738 170.380,164.227 163.499,163.601 154.400 C 163.367 150.990,163.012 145.950,162.813 143.200 C 161.511 125.220,161.539 126.716,162.483 125.712 C 162.954 125.210,163.498 124.800,163.691 124.800 C 163.885 124.800,164.619 124.261,165.322 123.602 C 166.025 122.943,166.825 122.403,167.100 122.402 C 167.375 122.401,167.601 122.265,167.603 122.100 C 167.604 121.935,168.273 121.350,169.089 120.800 C 172.836 118.275,174.804 115.744,173.600 115.000 C 173.380 114.864,173.200 114.313,173.200 113.776 C 173.200 113.239,173.059 112.800,172.887 112.800 C 172.715 112.800,172.325 111.945,172.020 110.900 C 171.715 109.855,171.337 108.730,171.179 108.400 C 171.022 108.070,170.671 107.260,170.400 106.600 C 170.129 105.940,169.748 105.087,169.553 104.705 C 169.359 104.323,169.200 103.659,169.200 103.229 C 169.200 102.799,169.056 102.358,168.879 102.249 C 168.703 102.140,168.307 101.128,168.000 100.000 C 167.693 98.872,167.297 97.860,167.121 97.751 C 166.944 97.642,166.800 97.124,166.800 96.600 C 166.800 96.076,166.620 95.536,166.400 95.400 C 166.180 95.264,166.000 94.724,166.000 94.200 C 166.000 93.676,165.820 93.136,165.600 93.000 C 165.380 92.864,165.200 92.324,165.200 91.800 C 165.200 91.276,165.020 90.736,164.800 90.600 C 164.580 90.464,164.400 90.001,164.400 89.571 C 164.400 89.141,164.238 88.477,164.041 88.095 C 163.844 87.713,163.282 86.050,162.793 84.400 C 162.304 82.750,161.754 80.950,161.571 80.400 C 161.216 79.333,159.461 73.254,158.742 70.600 C 158.156 68.436,157.520 67.097,156.800 66.513 C 156.081 65.929,150.862 65.843,150.000 66.400 M153.473 71.113 C 154.038 71.472,154.966 74.284,157.397 83.000 C 157.765 84.320,158.232 85.713,158.433 86.095 C 158.635 86.477,158.800 87.242,158.800 87.795 C 158.800 88.348,158.980 88.800,159.200 88.800 C 159.420 88.800,159.600 89.329,159.600 89.976 C 159.600 90.623,159.780 91.264,160.000 91.400 C 160.220 91.536,160.400 91.999,160.400 92.429 C 160.400 92.859,160.580 93.568,160.800 94.005 C 161.020 94.442,161.380 95.158,161.600 95.595 C 161.820 96.032,162.000 96.741,162.000 97.171 C 162.000 97.601,162.180 98.064,162.400 98.200 C 162.620 98.336,162.800 98.876,162.800 99.400 C 162.800 99.924,162.980 100.464,163.200 100.600 C 163.420 100.736,163.600 101.199,163.600 101.629 C 163.600 102.059,163.759 102.723,163.953 103.105 C 164.429 104.040,165.018 105.507,165.600 107.200 C 166.118 108.708,166.462 109.629,167.097 111.200 C 168.860 115.569,169.182 114.935,162.803 119.657 C 156.256 124.503,156.553 123.887,157.200 131.317 C 157.473 134.443,157.859 139.610,158.058 142.800 C 158.811 154.856,159.806 168.636,160.398 175.200 C 161.023 182.122,161.632 189.909,162.802 205.900 C 163.024 208.925,163.378 213.740,163.589 216.600 C 163.800 219.460,164.160 224.590,164.388 228.000 C 165.198 240.088,165.204 240.135,166.102 241.100 C 167.301 242.389,168.126 242.223,169.866 240.344 C 170.710 239.433,172.300 237.762,173.400 236.631 C 174.500 235.499,176.234 233.589,177.254 232.386 C 179.885 229.282,192.347 216.799,196.607 213.000 C 198.581 211.240,200.646 209.343,201.198 208.785 C 201.749 208.226,202.830 207.333,203.600 206.800 C 204.370 206.267,205.450 205.373,206.000 204.814 C 206.550 204.255,207.630 203.323,208.400 202.744 C 209.170 202.165,210.181 201.355,210.647 200.945 C 211.112 200.535,212.012 199.811,212.647 199.335 C 213.281 198.859,214.674 197.811,215.743 197.005 C 217.885 195.390,223.085 192.000,223.421 192.000 C 223.538 192.000,224.020 191.640,224.492 191.200 C 224.964 190.760,225.587 190.400,225.875 190.400 C 226.164 190.400,226.400 190.241,226.400 190.047 C 226.400 189.852,226.715 189.590,227.100 189.464 C 227.485 189.338,228.520 188.806,229.400 188.281 C 230.749 187.477,232.674 186.467,236.895 184.349 C 237.277 184.157,237.862 184.000,238.195 184.000 C 238.528 184.000,238.800 183.859,238.800 183.687 C 238.800 183.515,239.655 183.129,240.700 182.829 C 241.745 182.529,242.780 182.154,243.000 181.996 C 243.220 181.837,243.850 181.606,244.400 181.482 C 244.950 181.357,246.120 181.048,247.000 180.794 C 251.869 179.389,261.328 178.956,265.600 179.941 C 266.810 180.220,268.387 180.548,269.104 180.669 C 269.821 180.789,270.506 181.049,270.627 181.244 C 270.748 181.440,271.199 181.600,271.629 181.600 C 272.059 181.600,272.813 181.808,273.305 182.062 C 275.182 183.033,275.607 183.200,276.195 183.200 C 276.528 183.200,276.800 183.380,276.800 183.600 C 276.800 183.820,277.034 184.000,277.320 184.000 C 278.056 184.000,279.993 184.941,279.997 185.300 C 279.999 185.465,280.360 185.600,280.800 185.600 C 281.240 185.600,281.600 185.780,281.600 186.000 C 281.600 186.220,281.960 186.400,282.400 186.400 C 282.840 186.400,283.200 186.536,283.200 186.702 C 283.200 186.869,283.785 187.258,284.500 187.568 C 285.215 187.877,286.552 188.641,287.472 189.265 C 288.392 189.889,289.337 190.400,289.572 190.400 C 289.807 190.400,290.000 190.580,290.000 190.800 C 290.000 191.020,290.195 191.200,290.434 191.200 C 290.945 191.200,299.630 197.107,301.463 198.701 C 302.158 199.306,303.148 200.144,303.663 200.565 C 310.308 205.990,319.760 215.583,322.811 220.000 C 323.343 220.770,324.098 221.749,324.489 222.175 C 324.880 222.602,325.200 223.172,325.200 223.442 C 325.200 223.712,325.349 223.993,325.530 224.067 C 326.497 224.457,331.195 232.526,332.827 236.600 C 333.855 239.168,335.021 245.319,334.606 245.990 C 334.457 246.232,334.173 248.448,333.974 250.915 C 333.468 257.221,333.177 259.342,332.761 259.780 C 332.563 259.989,332.400 260.743,332.400 261.456 C 332.400 262.169,332.220 262.864,332.000 263.000 C 331.780 263.136,331.600 263.766,331.600 264.400 C 331.600 265.034,331.420 265.664,331.200 265.800 C 330.980 265.936,330.800 266.399,330.800 266.829 C 330.800 267.259,330.643 267.923,330.450 268.305 C 328.952 271.280,328.400 272.553,328.400 273.038 C 328.400 273.347,328.220 273.600,328.000 273.600 C 327.780 273.600,327.600 273.960,327.600 274.400 C 327.600 274.840,327.420 275.200,327.200 275.200 C 326.980 275.200,326.800 275.560,326.800 276.000 C 326.800 276.440,326.641 276.800,326.447 276.800 C 326.252 276.800,325.993 277.115,325.871 277.500 C 325.627 278.270,324.342 280.483,323.956 280.800 C 323.822 280.910,323.429 281.540,323.083 282.200 C 322.314 283.667,318.908 287.935,316.183 290.846 C 313.476 293.736,311.069 295.884,305.800 300.107 C 302.522 302.735,296.181 306.700,291.000 309.362 C 289.680 310.040,288.510 310.687,288.400 310.798 C 288.290 310.910,287.750 311.200,287.200 311.444 C 286.650 311.687,285.418 312.272,284.462 312.743 C 283.506 313.214,282.471 313.600,282.162 313.600 C 281.853 313.600,281.600 313.780,281.600 314.000 C 281.600 314.220,281.364 314.400,281.075 314.400 C 280.786 314.400,279.805 314.760,278.894 315.200 C 277.984 315.640,277.084 316.000,276.894 316.000 C 276.705 316.000,275.805 316.360,274.894 316.800 C 273.984 317.240,273.048 317.600,272.814 317.600 C 272.580 317.600,272.077 317.774,271.695 317.986 C 270.978 318.384,265.175 320.302,262.000 321.190 C 261.010 321.466,259.750 321.841,259.200 322.021 C 256.477 322.915,248.139 324.731,245.200 325.070 C 244.210 325.184,243.229 325.440,243.020 325.639 C 242.811 325.837,241.902 326.000,241.000 326.000 C 240.098 326.000,239.189 326.165,238.980 326.366 C 238.771 326.568,237.520 326.833,236.200 326.956 C 234.880 327.079,232.270 327.371,230.400 327.605 C 214.165 329.638,176.822 329.286,147.000 326.819 C 144.360 326.601,140.310 326.319,138.000 326.194 C 135.690 326.069,133.440 325.801,133.000 325.599 C 132.560 325.397,131.030 325.147,129.600 325.043 C 122.395 324.523,116.864 323.121,112.400 320.684 C 111.630 320.264,110.280 319.533,109.400 319.060 C 108.520 318.587,107.710 318.110,107.600 318.000 C 107.204 317.604,104.985 316.346,104.300 316.129 C 103.915 316.007,103.600 315.748,103.600 315.553 C 103.600 315.359,103.364 315.200,103.075 315.200 C 102.787 315.200,102.164 314.840,101.692 314.400 C 101.220 313.960,100.680 313.600,100.492 313.600 C 100.304 313.600,99.802 313.285,99.375 312.900 C 98.949 312.515,98.105 311.945,97.500 311.632 C 96.895 311.320,96.400 310.915,96.400 310.732 C 96.400 310.550,96.145 310.400,95.833 310.400 C 95.522 310.400,95.207 310.255,95.133 310.078 C 95.060 309.901,93.470 308.702,91.600 307.414 C 87.372 304.500,81.071 299.844,79.161 298.222 C 77.769 297.040,76.115 295.680,73.206 293.327 C 72.440 292.707,71.306 291.722,70.687 291.139 C 70.068 290.555,68.948 289.656,68.197 289.142 C 66.548 288.012,65.723 286.640,66.256 285.914 C 66.464 285.631,66.863 284.680,67.143 283.800 C 67.677 282.123,68.252 280.674,68.847 279.505 C 69.041 279.123,69.200 278.536,69.200 278.200 C 69.200 277.864,69.367 277.277,69.571 276.895 C 69.775 276.513,70.046 275.868,70.173 275.462 C 70.488 274.456,72.367 274.652,81.000 276.587 C 82.540 276.933,84.700 277.410,85.800 277.648 C 86.900 277.886,88.520 278.244,89.400 278.443 C 91.240 278.859,94.160 279.473,96.900 280.021 C 97.945 280.229,99.745 280.589,100.900 280.820 C 102.055 281.052,103.720 281.332,104.600 281.443 C 105.480 281.554,106.560 281.806,107.000 282.002 C 107.440 282.198,108.655 282.458,109.700 282.579 C 114.456 283.132,115.424 283.301,115.780 283.639 C 115.989 283.837,117.013 284.000,118.056 284.000 C 119.099 284.000,120.064 284.180,120.200 284.400 C 120.336 284.620,121.326 284.800,122.400 284.800 C 123.474 284.800,124.464 284.980,124.600 285.200 C 124.736 285.420,125.726 285.600,126.800 285.600 C 127.874 285.600,128.864 285.780,129.000 286.000 C 129.136 286.220,130.118 286.400,131.183 286.400 C 133.278 286.400,134.061 285.715,138.283 280.189 C 139.117 279.098,140.294 277.663,140.898 277.002 C 141.502 276.341,141.997 275.590,141.998 275.333 C 141.999 275.077,142.152 274.807,142.338 274.733 C 142.524 274.660,143.374 273.610,144.227 272.400 C 145.079 271.190,145.881 270.110,146.008 270.000 C 146.135 269.890,146.675 269.170,147.208 268.400 C 147.742 267.630,148.498 266.651,148.889 266.225 C 149.682 265.360,149.925 260.648,149.200 260.200 C 148.980 260.064,148.800 259.279,148.800 258.456 C 148.800 257.633,148.638 256.789,148.441 256.580 C 148.244 256.371,147.985 255.480,147.867 254.600 C 147.749 253.720,147.460 252.145,147.226 251.100 C 146.992 250.055,146.628 248.435,146.417 247.500 C 146.207 246.565,145.848 244.900,145.620 243.800 C 145.392 242.700,145.044 241.080,144.848 240.200 C 143.523 234.251,142.006 226.428,142.003 225.524 C 142.002 224.932,141.820 224.336,141.600 224.200 C 141.380 224.064,141.200 223.254,141.200 222.400 C 141.200 221.546,141.020 220.736,140.800 220.600 C 140.580 220.464,140.400 219.654,140.400 218.800 C 140.400 217.946,140.220 217.136,140.000 217.000 C 139.780 216.864,139.600 216.054,139.600 215.200 C 139.600 214.346,139.420 213.536,139.200 213.400 C 138.980 213.264,138.800 212.454,138.800 211.600 C 138.800 210.746,138.620 209.936,138.400 209.800 C 138.180 209.664,138.000 208.854,138.000 208.000 C 138.000 207.146,137.820 206.336,137.600 206.200 C 137.380 206.064,137.200 205.279,137.200 204.456 C 137.200 203.633,137.038 202.789,136.841 202.580 C 136.644 202.371,136.385 201.480,136.267 200.600 C 136.149 199.720,135.852 198.100,135.608 197.000 C 135.363 195.900,135.000 194.190,134.800 193.200 C 134.600 192.210,134.238 190.500,133.996 189.400 C 133.754 188.300,133.464 186.770,133.353 186.000 C 133.242 185.230,132.993 184.240,132.800 183.800 C 132.607 183.360,132.358 182.370,132.247 181.600 C 132.136 180.830,131.846 179.300,131.604 178.200 C 131.362 177.100,131.000 175.390,130.800 174.400 C 130.600 173.410,130.240 171.700,130.000 170.600 C 129.760 169.500,129.400 167.790,129.200 166.800 C 129.000 165.810,128.669 164.190,128.464 163.200 C 128.012 161.018,125.764 149.554,125.405 147.600 C 125.264 146.830,125.053 145.390,124.935 144.400 C 124.818 143.410,124.560 142.429,124.361 142.220 C 124.163 142.011,124.000 141.192,124.000 140.400 C 124.000 139.608,123.837 138.789,123.637 138.580 C 123.437 138.371,123.177 137.300,123.058 136.200 C 122.940 135.100,122.645 133.120,122.403 131.800 C 122.161 130.480,121.871 128.590,121.760 127.600 C 121.649 126.610,121.396 125.440,121.198 125.000 C 120.849 124.222,120.594 122.340,120.172 117.400 C 120.059 116.080,119.786 114.636,119.564 114.191 C 118.770 112.593,119.543 96.730,120.442 96.174 C 120.639 96.052,120.800 95.524,120.800 95.000 C 120.800 94.476,120.980 93.936,121.200 93.800 C 121.420 93.664,121.600 93.203,121.600 92.776 C 121.600 92.349,121.780 92.000,122.000 92.000 C 122.220 92.000,122.400 91.640,122.400 91.200 C 122.400 90.760,122.580 90.400,122.800 90.400 C 123.020 90.400,123.200 90.040,123.200 89.600 C 123.200 89.160,123.380 88.800,123.600 88.800 C 123.820 88.800,124.000 88.575,124.000 88.300 C 124.001 88.025,124.451 87.277,125.000 86.638 C 125.550 85.999,126.000 85.333,126.000 85.158 C 126.000 84.168,134.813 76.400,135.936 76.400 C 136.191 76.400,136.400 76.220,136.400 76.000 C 136.400 75.780,136.760 75.600,137.200 75.600 C 137.640 75.600,138.000 75.420,138.000 75.200 C 138.000 74.980,138.360 74.800,138.800 74.800 C 139.240 74.800,139.600 74.620,139.600 74.400 C 139.600 74.180,139.872 74.000,140.205 74.000 C 140.538 74.000,141.168 73.820,141.605 73.600 C 142.042 73.380,142.758 73.020,143.195 72.800 C 143.632 72.580,144.431 72.400,144.971 72.400 C 145.511 72.400,146.064 72.220,146.200 72.000 C 146.336 71.780,147.292 71.597,148.324 71.594 C 149.356 71.591,150.470 71.413,150.800 71.200 C 151.516 70.737,152.816 70.695,153.473 71.113 M245.558 220.170 C 245.425 220.306,244.165 220.573,242.758 220.764 C 236.541 221.606,228.022 224.752,221.556 228.592 C 220.590 229.166,219.485 229.738,219.100 229.864 C 218.715 229.990,218.400 230.252,218.400 230.447 C 218.400 230.641,218.214 230.800,217.987 230.800 C 217.597 230.800,209.229 236.246,208.800 236.779 C 208.690 236.915,207.430 237.864,206.000 238.887 C 204.570 239.910,202.860 241.229,202.200 241.818 C 201.540 242.407,200.375 243.364,199.611 243.945 C 198.847 244.525,197.587 245.602,196.811 246.338 C 196.035 247.073,194.777 248.153,194.015 248.738 C 189.856 251.929,169.078 272.755,163.200 279.625 C 161.990 281.039,160.238 282.964,159.307 283.902 C 157.294 285.929,156.862 287.225,157.748 288.576 C 158.452 289.650,157.052 289.492,174.000 290.414 C 180.860 290.787,205.095 291.588,209.200 291.577 C 216.885 291.557,227.862 291.098,228.176 290.784 C 228.387 290.573,230.108 290.400,232.000 290.400 C 233.892 290.400,235.611 290.235,235.820 290.032 C 236.029 289.830,237.370 289.571,238.800 289.457 C 240.230 289.342,242.570 289.051,244.000 288.809 C 245.430 288.568,247.410 288.270,248.400 288.146 C 249.390 288.023,250.371 287.760,250.580 287.561 C 250.789 287.363,251.723 287.200,252.656 287.200 C 253.589 287.200,254.452 287.039,254.574 286.842 C 254.695 286.645,255.471 286.382,256.297 286.258 C 259.807 285.728,260.820 285.492,261.027 285.156 C 261.148 284.960,261.678 284.800,262.205 284.800 C 262.731 284.800,263.576 284.639,264.081 284.442 C 264.587 284.245,265.810 283.864,266.800 283.596 C 267.790 283.328,268.960 282.974,269.400 282.808 C 269.840 282.643,273.710 281.332,278.000 279.894 C 289.361 276.087,293.383 274.638,293.533 274.300 C 293.607 274.135,293.924 274.000,294.239 274.000 C 294.553 274.000,295.123 273.835,295.505 273.633 C 297.207 272.733,300.044 271.600,300.596 271.600 C 300.928 271.600,301.200 271.420,301.200 271.200 C 301.200 270.980,301.453 270.800,301.762 270.800 C 302.247 270.800,303.520 270.248,306.495 268.750 C 306.877 268.557,307.462 268.400,307.795 268.400 C 308.128 268.400,308.400 268.220,308.400 268.000 C 308.400 267.780,308.760 267.600,309.200 267.600 C 309.640 267.600,310.000 267.420,310.000 267.200 C 310.000 266.980,310.252 266.800,310.559 266.800 C 311.141 266.800,315.401 264.663,316.291 263.925 C 317.625 262.817,316.894 260.917,313.900 257.714 C 304.245 247.386,295.618 239.463,289.375 235.190 C 288.289 234.446,287.174 233.616,286.898 233.345 C 286.621 233.074,286.036 232.738,285.598 232.599 C 285.159 232.460,284.800 232.178,284.800 231.973 C 284.800 231.768,284.603 231.600,284.362 231.600 C 284.121 231.600,283.446 231.261,282.862 230.847 C 280.667 229.291,275.213 226.415,271.200 224.696 C 267.739 223.214,261.351 221.473,256.800 220.772 C 253.448 220.255,245.872 219.850,245.558 220.170 M256.402 225.522 C 260.266 226.030,265.278 227.374,268.600 228.795 C 271.826 230.174,278.225 233.366,278.333 233.651 C 278.407 233.843,278.638 234.000,278.847 234.000 C 279.222 234.000,287.373 239.349,288.255 240.174 C 288.939 240.813,289.933 241.605,292.800 243.796 C 295.773 246.068,308.230 258.333,309.588 260.326 L 310.491 261.651 309.645 261.872 C 309.180 261.994,308.800 262.252,308.800 262.447 C 308.800 262.641,308.440 262.800,308.000 262.800 C 307.560 262.800,307.200 262.980,307.200 263.200 C 307.200 263.420,306.947 263.600,306.638 263.600 C 306.329 263.600,305.384 263.939,304.538 264.353 C 302.692 265.256,299.309 266.782,298.200 267.211 C 297.760 267.381,296.547 267.898,295.504 268.360 C 294.462 268.822,293.461 269.200,293.279 269.200 C 293.098 269.200,292.205 269.560,291.294 270.000 C 290.384 270.440,289.396 270.800,289.099 270.800 C 288.803 270.800,288.389 270.962,288.180 271.160 C 287.971 271.358,284.740 272.539,281.000 273.784 C 277.260 275.029,273.840 276.197,273.400 276.379 C 272.960 276.560,271.790 276.927,270.800 277.193 C 269.810 277.460,268.687 277.840,268.305 278.039 C 267.923 278.238,267.259 278.400,266.829 278.400 C 266.399 278.400,265.936 278.580,265.800 278.800 C 265.664 279.020,265.034 279.200,264.400 279.200 C 263.766 279.200,263.148 279.360,263.027 279.556 C 262.906 279.751,262.176 280.021,261.404 280.156 C 260.632 280.290,259.368 280.510,258.596 280.644 C 257.824 280.779,257.094 281.049,256.973 281.244 C 256.852 281.440,256.054 281.600,255.200 281.600 C 254.346 281.600,253.536 281.780,253.400 282.000 C 253.264 282.220,252.479 282.400,251.656 282.400 C 250.833 282.400,249.989 282.563,249.780 282.763 C 249.571 282.963,248.500 283.225,247.400 283.346 C 246.300 283.466,244.230 283.760,242.800 283.998 C 239.661 284.522,235.687 285.031,229.800 285.664 C 221.117 286.598,169.069 286.069,166.700 285.023 C 164.995 284.271,165.880 283.184,180.225 268.400 C 187.539 260.862,200.394 248.875,203.365 246.823 C 203.824 246.506,204.290 246.133,204.400 245.993 C 205.312 244.841,219.650 234.800,220.385 234.800 C 220.613 234.800,220.800 234.663,220.800 234.496 C 220.800 234.328,222.015 233.563,223.500 232.796 C 224.985 232.028,226.260 231.265,226.333 231.100 C 226.407 230.935,226.627 230.800,226.823 230.800 C 227.019 230.800,228.399 230.241,229.890 229.557 C 233.857 227.738,239.410 226.005,242.533 225.611 C 244.037 225.422,245.383 225.150,245.525 225.009 C 245.847 224.687,252.396 224.996,256.402 225.522 " stroke="none" fill="#000000" fill-rule="evenodd"></path><path id="path3" d="" stroke="none" fill="#080404" fill-rule="evenodd"></path><path id="path4" d="" stroke="none" fill="#080404" fill-rule="evenodd"></path></g></svg>