<?xml version="1.0" encoding="UTF-8"?>
<!DOCTYPE svg PUBLIC "-//W3C//DTD SVG 1.1//EN" "http://www.w3.org/Graphics/SVG/1.1/DTD/svg11.dtd">
<svg xmlns="http://www.w3.org/2000/svg" version="1.1" width="512px" height="512px" style="shape-rendering:geometricPrecision; text-rendering:geometricPrecision; image-rendering:optimizeQuality; fill-rule:evenodd; clip-rule:evenodd" xmlns:xlink="http://www.w3.org/1999/xlink">
<g><path style="opacity:1" fill="#000000" d="M 359.5,82.5 C 362.187,82.3359 364.854,82.5026 367.5,83C 368.701,83.9025 369.535,85.0692 370,86.5C 375.804,107.077 382.304,127.41 389.5,147.5C 389.563,149.481 388.896,151.148 387.5,152.5C 383.422,155.623 379.255,158.623 375,161.5C 379.571,213.783 383.904,266.117 388,318.5C 389.342,335.816 389.676,353.149 389,370.5C 386.407,386.682 380.74,401.682 372,415.5C 370.605,417.14 369.105,418.64 367.5,420C 289.575,430.341 211.575,431.008 133.5,422C 129.981,421.605 126.648,420.605 123.5,419C 121.848,417.53 120.848,415.697 120.5,413.5C 121.5,391.67 126.5,370.836 135.5,351C 159.696,354.466 184.029,357.133 208.5,359C 252.68,362.094 296.68,360.427 340.5,354C 345.428,353.574 350.094,352.407 354.5,350.5C 341.53,299.621 329.03,248.621 317,197.5C 312.75,178.002 309.584,158.335 307.5,138.5C 308.181,116.297 318.181,99.7967 337.5,89C 344.689,85.8766 352.022,83.7099 359.5,82.5 Z M 358.5,91.5 C 359.833,91.5 361.167,91.5 362.5,91.5C 366.957,109.87 372.623,127.87 379.5,145.5C 375.2,149.628 370.7,153.628 366,157.5C 369.363,200.829 373.03,244.163 377,287.5C 378.921,311.144 380.421,334.811 381.5,358.5C 380.291,376.958 374.791,393.958 365,409.5C 363.509,411.004 361.676,411.837 359.5,412C 289.611,420.536 219.611,421.536 149.5,415C 142.667,414.62 136.001,413.453 129.5,411.5C 130.969,393.654 134.803,376.32 141,359.5C 213.418,372.632 285.918,372.798 358.5,360C 363.938,359.555 365.771,356.721 364,351.5C 351.018,299.574 338.352,247.574 326,195.5C 321.752,176.677 318.585,157.677 316.5,138.5C 319.264,112.739 333.264,97.0721 358.5,91.5 Z"/></g>
<g><path style="opacity:1" fill="#000000" d="M 242.5,209.5 C 250.45,208.414 257.783,209.914 264.5,214C 268.483,218.454 270.316,223.62 270,229.5C 264.77,234.806 258.77,236.14 252,233.5C 243.538,236.125 237.371,241.459 233.5,249.5C 242.312,252.024 251.312,253.857 260.5,255C 278.118,261.312 281.618,272.146 271,287.5C 256.161,304.587 237.494,314.587 215,317.5C 205.318,317.596 199.818,312.93 198.5,303.5C 198.39,301.626 199.056,300.126 200.5,299C 218.196,297.326 234.196,291.326 248.5,281C 241.604,279.582 234.604,278.249 227.5,277C 210.482,272.829 203.649,261.995 207,244.5C 213.425,227.241 225.258,215.574 242.5,209.5 Z M 243.5,218.5 C 247.514,218.334 251.514,218.501 255.5,219C 262.703,225.127 261.87,226.627 253,223.5C 238.295,227.202 228.295,236.202 223,250.5C 222.333,252.167 222.333,253.833 223,255.5C 226.932,257.589 231.099,259.089 235.5,260C 243.21,261.089 250.877,262.422 258.5,264C 268.946,267.354 270.78,273.187 264,281.5C 250.257,297.121 233.09,305.954 212.5,308C 211.833,307.667 211.167,307.333 210.5,307C 229.076,303.293 245.576,295.46 260,283.5C 261.333,281.5 262.667,279.5 264,277.5C 264.825,275.299 264.325,273.466 262.5,272C 249.253,271.494 236.253,269.494 223.5,266C 216.156,261.464 213.656,254.964 216,246.5C 221.353,233.314 230.52,223.981 243.5,218.5 Z"/></g>
</svg>
