<svg id="svg" version="1.1" width="400" height="400" viewBox="0 0 400 400" xmlns="http://www.w3.org/2000/svg" xmlns:xlink="http://www.w3.org/1999/xlink"><g id="svgg"><path id="path0" d="M310.200 72.004 C 309.540 72.182,308.010 72.540,306.800 72.801 C 303.783 73.450,300.342 74.414,299.505 74.843 C 299.123 75.040,298.448 75.200,298.005 75.200 C 297.562 75.200,297.200 75.380,297.200 75.600 C 297.200 75.820,296.928 76.000,296.595 76.000 C 296.262 76.000,295.677 76.174,295.295 76.388 C 294.913 76.601,293.250 77.413,291.600 78.191 C 289.950 78.970,287.700 80.154,286.600 80.821 C 285.500 81.489,284.285 82.138,283.900 82.264 C 283.515 82.390,283.200 82.652,283.200 82.847 C 283.200 83.041,283.014 83.200,282.787 83.200 C 282.309 83.200,274.887 88.105,271.496 90.662 C 270.228 91.618,269.079 92.400,268.942 92.400 C 268.806 92.400,268.403 92.724,268.047 93.119 C 267.691 93.514,266.770 94.275,266.000 94.810 C 265.230 95.345,264.216 96.162,263.748 96.626 C 263.279 97.089,262.019 98.172,260.948 99.033 C 259.876 99.893,258.730 100.867,258.400 101.198 C 258.070 101.529,256.363 103.060,254.608 104.600 C 250.835 107.909,237.204 121.558,232.852 126.385 C 231.173 128.246,229.080 130.517,228.200 131.430 C 227.320 132.344,226.252 133.521,225.827 134.046 C 224.910 135.177,218.294 142.911,217.996 143.200 C 217.882 143.310,216.985 144.390,216.002 145.600 C 215.019 146.810,213.941 148.070,213.607 148.400 C 213.273 148.731,212.372 149.811,211.606 150.800 C 210.839 151.790,209.989 152.870,209.718 153.200 C 209.447 153.530,208.303 154.970,207.175 156.400 C 206.047 157.830,204.827 159.360,204.462 159.800 C 204.098 160.240,202.785 161.950,201.544 163.600 C 200.303 165.250,198.953 166.981,198.544 167.448 C 198.135 167.914,197.080 169.305,196.200 170.540 C 194.182 173.372,193.501 173.555,189.682 172.300 C 186.097 171.123,185.835 170.595,184.960 162.800 C 184.849 161.810,184.597 160.640,184.400 160.200 C 184.203 159.760,183.951 158.590,183.840 157.600 C 183.729 156.610,183.443 154.720,183.205 153.400 C 182.967 152.080,182.599 149.965,182.386 148.700 C 182.174 147.435,181.826 145.365,181.613 144.100 C 181.225 141.796,180.642 138.122,180.008 134.000 C 179.698 131.981,179.206 128.911,178.482 124.473 C 177.954 121.240,176.796 121.045,172.113 123.397 C 169.961 124.479,168.110 125.462,168.000 125.583 C 167.890 125.703,167.260 126.071,166.600 126.400 C 165.940 126.729,165.310 127.089,165.200 127.199 C 165.090 127.310,164.595 127.625,164.100 127.900 C 163.605 128.175,162.795 128.625,162.300 128.900 C 161.805 129.175,161.310 129.499,161.200 129.619 C 161.090 129.740,160.370 130.277,159.600 130.814 C 158.830 131.350,157.930 132.008,157.600 132.276 C 157.270 132.544,155.830 133.688,154.400 134.818 C 151.120 137.412,147.720 140.643,146.268 142.547 C 145.650 143.356,144.708 144.456,144.173 144.991 C 143.638 145.526,143.200 146.118,143.200 146.306 C 143.200 146.495,142.871 147.002,142.469 147.434 C 141.833 148.117,138.446 154.742,137.580 157.000 C 136.685 159.331,136.146 161.204,135.507 164.200 C 134.949 166.817,134.947 177.695,135.504 180.000 C 136.809 185.396,138.143 189.231,140.998 195.800 C 141.285 196.460,141.761 197.585,142.057 198.300 C 142.353 199.015,142.731 199.600,142.898 199.600 C 143.064 199.600,143.200 199.960,143.200 200.400 C 143.200 200.840,143.380 201.200,143.600 201.200 C 143.820 201.200,144.000 201.560,144.000 202.000 C 144.000 202.440,144.180 202.800,144.400 202.800 C 144.620 202.800,144.800 203.160,144.800 203.600 C 144.800 204.040,144.935 204.401,145.100 204.403 C 145.265 204.405,145.587 204.810,145.817 205.303 C 146.046 205.796,147.201 208.000,148.384 210.200 C 153.164 219.088,154.895 222.389,156.879 226.400 C 158.022 228.710,159.101 230.660,159.278 230.733 C 159.455 230.807,159.600 231.212,159.600 231.633 C 159.600 232.055,159.735 232.401,159.900 232.403 C 160.065 232.405,160.394 232.810,160.631 233.303 C 162.051 236.263,164.645 241.020,164.900 241.133 C 165.065 241.207,165.200 241.612,165.200 242.033 C 165.200 242.455,165.335 242.801,165.500 242.803 C 165.848 242.807,166.800 244.734,166.800 245.434 C 166.800 245.695,166.395 246.177,165.900 246.505 C 165.405 246.834,164.456 247.627,163.791 248.267 C 161.030 250.929,147.778 260.400,146.815 260.400 C 146.587 260.400,146.400 260.559,146.400 260.753 C 146.400 260.948,146.085 261.207,145.700 261.329 C 144.954 261.565,142.734 262.845,142.400 263.231 C 142.199 263.464,132.586 268.146,130.900 268.833 C 130.405 269.035,129.595 269.370,129.100 269.579 C 125.028 271.291,114.088 274.397,112.124 274.399 C 111.422 274.400,110.736 274.580,110.600 274.800 C 110.464 275.020,109.474 275.200,108.400 275.200 C 107.326 275.200,106.336 275.380,106.200 275.600 C 106.064 275.820,104.919 276.000,103.656 276.000 C 102.393 276.000,101.189 276.164,100.980 276.364 C 99.952 277.349,67.201 277.760,62.600 276.846 C 61.280 276.583,59.524 276.267,58.697 276.142 C 57.871 276.017,57.095 275.755,56.974 275.558 C 56.852 275.361,56.223 275.200,55.576 275.200 C 54.929 275.200,54.400 275.020,54.400 274.800 C 54.400 274.580,54.036 274.400,53.591 274.400 C 50.341 274.400,37.200 265.016,37.200 262.695 C 37.200 262.514,36.840 261.980,36.400 261.508 C 35.960 261.036,35.600 260.413,35.600 260.125 C 35.600 259.836,35.453 259.600,35.273 259.600 C 34.741 259.600,31.518 252.510,30.727 249.600 C 28.557 241.613,27.799 235.657,27.803 226.600 C 27.806 218.239,28.531 212.690,30.807 203.600 C 31.055 202.610,31.355 201.213,31.473 200.496 C 31.592 199.779,31.849 199.094,32.044 198.973 C 32.240 198.852,32.400 198.234,32.400 197.600 C 32.400 196.966,32.580 196.336,32.800 196.200 C 34.034 195.437,32.017 192.400,30.277 192.400 C 29.711 192.400,29.136 192.220,29.000 192.000 C 28.864 191.780,28.281 191.600,27.705 191.600 C 27.128 191.600,26.104 191.426,25.428 191.214 C 24.424 190.898,17.524 189.293,14.194 188.600 C 12.170 188.179,11.175 189.509,10.524 193.504 C 10.407 194.221,10.151 194.906,9.956 195.027 C 9.760 195.148,9.600 195.856,9.600 196.600 C 9.600 197.344,9.420 198.064,9.200 198.200 C 8.980 198.336,8.800 199.056,8.800 199.800 C 8.800 200.544,8.644 201.249,8.453 201.367 C 8.262 201.485,8.003 202.351,7.877 203.291 C 7.751 204.231,7.360 206.260,7.009 207.800 C 6.658 209.340,6.179 211.500,5.945 212.600 C 5.711 213.700,5.355 215.320,5.155 216.200 C 3.636 222.867,2.564 230.772,1.954 239.800 C 1.469 246.979,1.470 247.298,1.994 256.200 C 2.461 264.134,2.890 267.466,4.339 274.400 C 5.156 278.309,7.562 286.320,8.664 288.800 C 10.344 292.580,11.449 294.748,12.475 296.272 C 13.094 297.192,13.600 298.057,13.600 298.194 C 13.600 298.463,16.783 303.269,17.180 303.600 C 17.313 303.710,18.043 304.610,18.803 305.600 C 21.332 308.892,26.106 313.326,30.000 316.000 C 30.770 316.529,31.490 317.060,31.600 317.181 C 31.710 317.301,32.160 317.597,32.600 317.838 C 34.540 318.898,35.414 319.414,35.600 319.608 C 35.710 319.723,37.060 320.416,38.600 321.150 C 40.140 321.884,41.713 322.645,42.095 322.842 C 42.477 323.039,43.062 323.200,43.395 323.200 C 43.728 323.200,44.000 323.380,44.000 323.600 C 44.000 323.820,44.540 324.000,45.200 324.000 C 45.860 324.000,46.400 324.180,46.400 324.400 C 46.400 324.620,46.852 324.800,47.405 324.800 C 47.958 324.800,48.723 324.962,49.105 325.160 C 50.250 325.752,56.330 326.943,63.507 327.980 C 67.241 328.519,83.809 328.524,88.555 327.988 C 98.239 326.892,107.290 325.583,108.095 325.163 C 108.477 324.963,109.321 324.800,109.971 324.800 C 110.621 324.800,111.264 324.620,111.400 324.400 C 111.536 324.180,112.256 324.000,113.000 324.000 C 113.744 324.000,114.464 323.820,114.600 323.600 C 114.736 323.380,115.276 323.200,115.800 323.200 C 116.324 323.200,116.864 323.020,117.000 322.800 C 117.136 322.580,117.766 322.400,118.400 322.400 C 119.034 322.400,119.642 322.256,119.751 322.079 C 119.860 321.903,120.872 321.507,122.000 321.200 C 123.128 320.893,124.140 320.497,124.249 320.321 C 124.358 320.144,124.887 320.000,125.424 320.000 C 125.961 320.000,126.400 319.820,126.400 319.600 C 126.400 319.380,126.681 319.200,127.025 319.200 C 128.068 319.200,139.587 313.685,144.333 310.913 C 145.946 309.971,147.431 309.200,147.633 309.200 C 147.835 309.200,148.000 309.050,148.000 308.868 C 148.000 308.685,148.495 308.280,149.100 307.968 C 149.705 307.655,150.549 307.085,150.975 306.700 C 151.402 306.315,151.987 306.000,152.275 306.000 C 152.564 306.000,152.800 305.859,152.800 305.686 C 152.800 305.514,153.333 305.057,153.985 304.672 C 154.637 304.287,155.402 303.747,155.685 303.473 C 155.968 303.198,156.828 302.532,157.595 301.992 C 161.380 299.329,172.203 288.492,174.823 284.743 C 175.339 284.004,175.860 283.310,175.981 283.200 C 176.499 282.727,181.600 274.772,181.600 274.437 C 181.600 274.233,181.745 274.007,181.923 273.933 C 182.101 273.860,183.382 271.460,184.769 268.600 C 186.157 265.740,187.451 263.087,187.646 262.705 C 187.841 262.323,188.000 261.738,188.000 261.405 C 188.000 261.072,188.180 260.800,188.400 260.800 C 188.620 260.800,188.800 260.361,188.800 259.824 C 188.800 259.287,188.980 258.736,189.200 258.600 C 189.420 258.464,189.600 257.924,189.600 257.400 C 189.600 256.876,189.780 256.336,190.000 256.200 C 190.220 256.064,190.400 255.423,190.400 254.776 C 190.400 254.129,190.580 253.600,190.800 253.600 C 191.020 253.600,191.200 252.981,191.200 252.224 C 191.200 251.467,191.355 250.752,191.543 250.635 C 191.732 250.518,192.004 249.383,192.146 248.111 C 192.289 246.840,192.598 244.720,192.832 243.400 C 193.067 242.080,193.327 237.130,193.409 232.400 C 193.491 227.670,193.568 223.665,193.579 223.500 C 193.610 223.049,196.715 223.139,197.000 223.600 C 197.136 223.820,198.011 224.000,198.944 224.000 C 199.877 224.000,200.811 224.163,201.020 224.361 C 201.229 224.560,202.210 224.818,203.200 224.934 C 204.190 225.051,206.080 225.333,207.400 225.561 C 219.065 227.576,230.039 229.037,241.200 230.062 C 248.059 230.692,277.728 230.700,283.600 230.073 C 293.128 229.056,299.061 228.114,308.200 226.165 C 310.840 225.603,313.540 225.053,314.200 224.944 C 314.860 224.835,315.760 224.603,316.200 224.428 C 317.980 223.722,319.905 223.200,320.728 223.200 C 321.208 223.200,321.600 223.020,321.600 222.800 C 321.600 222.580,322.129 222.400,322.776 222.400 C 323.423 222.400,324.064 222.220,324.200 222.000 C 324.336 221.780,324.876 221.600,325.400 221.600 C 325.924 221.600,326.464 221.420,326.600 221.200 C 326.736 220.980,327.251 220.800,327.744 220.800 C 328.237 220.800,328.811 220.657,329.020 220.482 C 329.229 220.307,330.120 219.935,331.000 219.655 C 331.880 219.376,333.005 218.979,333.500 218.774 C 335.244 218.050,336.214 217.676,337.600 217.193 C 340.562 216.163,344.649 214.295,351.400 210.888 C 354.260 209.445,357.004 208.069,357.497 207.832 C 357.990 207.594,358.395 207.265,358.397 207.100 C 358.399 206.935,358.636 206.800,358.925 206.800 C 359.213 206.800,359.798 206.485,360.225 206.100 C 360.651 205.715,361.495 205.145,362.100 204.832 C 362.705 204.520,363.200 204.115,363.200 203.932 C 363.200 203.750,363.470 203.600,363.800 203.600 C 364.130 203.600,364.400 203.459,364.400 203.286 C 364.400 203.114,364.933 202.657,365.585 202.272 C 366.237 201.887,367.007 201.353,367.295 201.086 C 367.584 200.819,368.625 199.976,369.610 199.214 C 374.275 195.601,379.779 189.973,383.322 185.193 C 384.380 183.767,385.505 182.283,385.822 181.895 C 386.140 181.508,386.400 181.090,386.400 180.967 C 386.400 180.845,386.940 179.959,387.600 179.000 C 388.260 178.041,388.800 177.078,388.800 176.861 C 388.800 176.644,388.941 176.407,389.114 176.333 C 389.551 176.147,392.151 170.764,393.428 167.400 C 395.425 162.141,396.099 159.714,397.260 153.600 C 397.917 150.142,398.143 137.686,397.582 135.800 C 396.479 132.086,396.131 131.161,394.611 127.896 C 393.445 125.394,388.915 118.283,388.349 118.067 C 388.157 117.993,388.000 117.744,388.000 117.514 C 388.000 117.283,387.676 116.803,387.281 116.447 C 386.886 116.091,386.128 115.170,385.596 114.400 C 385.065 113.630,384.174 112.550,383.615 112.000 C 383.057 111.450,381.942 110.190,381.139 109.200 C 378.995 106.559,370.945 98.472,368.400 96.403 C 367.190 95.419,365.930 94.335,365.600 93.993 C 364.618 92.975,355.666 86.413,354.592 85.923 C 354.046 85.675,353.600 85.342,353.600 85.184 C 353.600 85.026,353.060 84.673,352.400 84.400 C 351.740 84.127,351.200 83.766,351.200 83.598 C 351.200 83.430,350.885 83.190,350.500 83.064 C 350.115 82.938,348.900 82.285,347.800 81.613 C 346.700 80.940,345.125 80.080,344.300 79.701 C 343.475 79.322,342.800 78.874,342.800 78.706 C 342.800 78.538,342.440 78.400,342.000 78.400 C 341.560 78.400,341.199 78.265,341.197 78.100 C 341.193 77.741,339.256 76.800,338.520 76.800 C 338.234 76.800,338.000 76.620,338.000 76.400 C 338.000 76.180,337.640 76.000,337.200 76.000 C 336.760 76.000,336.400 75.820,336.400 75.600 C 336.400 75.380,335.961 75.200,335.424 75.200 C 334.887 75.200,334.349 75.041,334.230 74.848 C 334.110 74.654,333.604 74.406,333.106 74.296 C 332.608 74.186,331.120 73.800,329.800 73.438 C 323.331 71.664,314.003 70.982,310.200 72.004 M326.200 77.425 C 330.564 78.565,330.983 78.693,333.200 79.575 C 336.288 80.802,341.374 83.311,341.533 83.686 C 341.607 83.859,342.012 84.000,342.433 84.000 C 342.855 84.000,343.200 84.159,343.200 84.353 C 343.200 84.548,343.515 84.807,343.900 84.929 C 344.836 85.225,346.966 86.524,347.133 86.900 C 347.207 87.065,347.439 87.200,347.649 87.200 C 348.620 87.200,359.940 95.318,364.777 99.483 C 369.133 103.233,380.070 114.592,381.986 117.356 C 382.308 117.820,382.983 118.648,383.486 119.196 C 383.988 119.744,384.400 120.316,384.400 120.467 C 384.400 120.619,384.635 120.981,384.922 121.271 C 386.411 122.779,389.694 128.279,391.328 132.000 C 393.117 136.076,393.241 136.956,393.066 144.305 C 392.910 150.871,392.714 152.707,391.651 157.600 C 390.568 162.586,387.172 171.752,386.020 172.800 C 385.899 172.910,385.364 173.810,384.832 174.800 C 383.875 176.579,380.875 181.213,380.430 181.600 C 380.304 181.710,379.575 182.610,378.812 183.600 C 375.664 187.680,370.616 192.723,366.398 196.002 C 365.409 196.771,364.510 197.505,364.400 197.634 C 364.100 197.984,357.134 202.618,355.139 203.794 C 354.182 204.357,351.150 205.909,348.400 207.241 C 345.650 208.573,343.087 209.829,342.705 210.031 C 342.323 210.234,341.738 210.400,341.405 210.400 C 341.072 210.400,340.800 210.580,340.800 210.800 C 340.800 211.020,340.440 211.200,340.000 211.200 C 339.560 211.200,339.200 211.380,339.200 211.600 C 339.200 211.820,338.874 212.000,338.475 212.000 C 338.076 212.000,337.005 212.360,336.094 212.800 C 335.184 213.240,334.248 213.600,334.014 213.600 C 333.780 213.600,333.232 213.780,332.795 214.000 C 332.358 214.220,331.642 214.580,331.205 214.800 C 330.768 215.020,330.059 215.200,329.629 215.200 C 329.199 215.200,328.736 215.380,328.600 215.600 C 328.464 215.820,327.924 216.000,327.400 216.000 C 326.876 216.000,326.336 216.180,326.200 216.400 C 326.064 216.620,325.524 216.800,325.000 216.800 C 324.476 216.800,323.949 216.959,323.829 217.154 C 323.708 217.349,323.113 217.604,322.505 217.721 C 321.897 217.838,320.725 218.129,319.900 218.367 C 315.702 219.579,315.222 219.708,311.000 220.763 C 302.288 222.942,295.241 224.094,283.400 225.277 C 278.314 225.785,248.145 225.789,241.800 225.282 C 229.823 224.326,218.753 222.869,207.600 220.780 C 206.390 220.554,204.500 220.203,203.400 220.000 C 202.300 219.797,200.410 219.435,199.200 219.195 C 197.990 218.956,196.324 218.659,195.497 218.537 C 194.671 218.415,193.895 218.155,193.774 217.958 C 193.436 217.411,189.755 217.532,189.278 218.106 C 189.019 218.418,188.785 222.813,188.665 229.606 C 188.485 239.803,188.239 242.887,187.229 247.600 C 187.017 248.590,186.730 249.940,186.591 250.600 C 186.453 251.260,186.197 252.160,186.022 252.600 C 185.848 253.040,185.312 254.660,184.832 256.200 C 183.812 259.473,183.600 260.018,182.457 262.338 C 181.986 263.294,181.600 264.329,181.600 264.638 C 181.600 264.947,181.420 265.200,181.200 265.200 C 180.980 265.200,180.800 265.472,180.800 265.805 C 180.800 266.366,180.070 267.937,179.595 268.400 C 179.482 268.510,178.942 269.500,178.395 270.600 C 177.848 271.700,177.086 272.949,176.701 273.375 C 176.315 273.802,176.000 274.387,176.000 274.675 C 176.000 274.964,175.849 275.200,175.664 275.200 C 175.480 275.200,175.118 275.661,174.862 276.224 C 172.036 282.427,158.226 296.227,148.000 303.068 C 143.352 306.178,132.485 312.000,131.330 312.000 C 131.038 312.000,130.800 312.180,130.800 312.400 C 130.800 312.620,130.564 312.800,130.275 312.800 C 129.986 312.800,129.005 313.160,128.094 313.600 C 127.184 314.040,126.160 314.400,125.819 314.400 C 125.479 314.400,125.200 314.580,125.200 314.800 C 125.200 315.020,124.838 315.200,124.395 315.200 C 123.952 315.200,123.187 315.408,122.695 315.662 C 120.816 316.634,120.393 316.800,119.800 316.800 C 119.464 316.800,118.877 316.962,118.495 317.161 C 118.113 317.360,116.990 317.737,116.000 318.000 C 115.010 318.263,113.887 318.640,113.505 318.839 C 113.123 319.038,112.279 319.200,111.629 319.200 C 110.979 319.200,110.348 319.361,110.226 319.558 C 110.105 319.755,109.329 320.013,108.503 320.132 C 107.676 320.251,106.100 320.540,105.000 320.774 C 101.497 321.520,98.683 321.997,95.600 322.369 C 93.950 322.567,92.150 322.830,91.600 322.952 C 85.917 324.216,65.735 323.900,57.800 322.422 C 53.631 321.645,48.400 320.249,47.105 319.566 C 46.723 319.365,46.220 319.200,45.986 319.200 C 45.752 319.200,44.816 318.840,43.906 318.400 C 42.995 317.960,42.014 317.600,41.725 317.600 C 41.436 317.600,41.200 317.420,41.200 317.200 C 41.200 316.980,40.840 316.800,40.400 316.800 C 39.960 316.800,39.600 316.664,39.600 316.498 C 39.600 316.331,39.015 315.941,38.300 315.630 C 33.208 313.416,21.362 302.924,20.039 299.457 C 19.951 299.226,19.546 298.679,19.139 298.243 C 18.733 297.806,18.400 297.228,18.400 296.958 C 18.400 296.688,18.265 296.407,18.100 296.333 C 17.186 295.927,13.172 287.485,11.474 282.400 C 9.653 276.944,8.700 272.594,7.532 264.400 C 6.690 258.489,7.093 229.183,8.030 228.220 C 8.234 228.011,8.400 226.979,8.400 225.926 C 8.400 224.873,8.581 223.244,8.803 222.306 C 9.025 221.368,9.584 218.620,10.045 216.200 C 10.506 213.780,11.055 211.080,11.264 210.200 C 11.473 209.320,11.804 207.880,12.000 207.000 C 12.352 205.421,12.836 203.432,13.582 200.500 C 13.792 199.675,14.120 198.280,14.312 197.400 C 15.087 193.836,15.583 193.570,19.480 194.632 C 20.756 194.980,22.925 195.550,24.300 195.899 L 26.800 196.534 26.800 198.443 C 26.800 199.493,26.620 200.464,26.400 200.600 C 26.180 200.736,26.000 201.456,26.000 202.200 C 26.000 202.944,25.820 203.664,25.600 203.800 C 25.380 203.936,25.200 204.746,25.200 205.600 C 25.200 206.454,25.020 207.264,24.800 207.400 C 24.580 207.536,24.396 208.222,24.392 208.924 C 24.388 209.626,24.122 211.640,23.801 213.400 C 22.459 220.764,22.654 234.831,24.223 243.800 C 24.570 245.780,24.951 247.987,25.071 248.704 C 25.190 249.421,25.449 250.106,25.644 250.227 C 25.840 250.348,26.000 250.799,26.000 251.229 C 26.000 251.659,26.180 252.368,26.400 252.805 C 26.620 253.242,26.980 253.958,27.200 254.395 C 27.420 254.832,27.600 255.552,27.600 255.995 C 27.600 256.438,27.780 256.800,28.000 256.800 C 28.220 256.800,28.400 257.160,28.400 257.600 C 28.400 258.040,28.580 258.400,28.800 258.400 C 29.020 258.400,29.200 258.760,29.200 259.200 C 29.200 259.640,29.380 260.000,29.600 260.000 C 29.820 260.000,30.000 260.188,30.000 260.418 C 30.000 262.240,38.319 271.835,42.000 274.259 C 44.122 275.657,48.815 278.067,50.800 278.779 C 51.570 279.055,52.560 279.418,53.000 279.585 C 54.918 280.314,56.719 280.800,57.505 280.800 C 57.971 280.800,58.464 280.980,58.600 281.200 C 58.736 281.420,59.611 281.600,60.544 281.600 C 61.477 281.600,62.411 281.760,62.620 281.956 C 63.673 282.944,80.217 283.250,90.400 282.469 C 104.392 281.397,110.828 280.293,122.600 276.943 C 127.109 275.661,128.406 275.212,130.095 274.353 C 130.477 274.159,131.152 274.000,131.595 274.000 C 132.038 274.000,132.400 273.820,132.400 273.600 C 132.400 273.380,132.672 273.200,133.005 273.200 C 133.338 273.200,133.923 273.027,134.305 272.817 C 134.687 272.606,136.710 271.613,138.800 270.611 C 140.890 269.608,143.410 268.315,144.400 267.737 C 145.390 267.160,146.740 266.378,147.400 266.001 C 149.150 265.001,158.165 259.111,158.400 258.814 C 158.510 258.675,159.230 258.123,160.000 257.586 C 161.392 256.617,162.079 256.078,163.734 254.655 C 164.210 254.246,165.403 253.256,166.385 252.455 C 172.542 247.437,172.987 246.686,171.449 243.914 C 170.926 242.971,169.981 241.210,169.349 240.000 C 168.717 238.790,168.107 237.710,167.994 237.600 C 167.881 237.490,167.050 235.960,166.148 234.200 C 162.835 227.739,159.490 221.377,158.952 220.514 C 158.649 220.027,158.400 219.367,158.400 219.047 C 158.400 218.728,158.265 218.407,158.100 218.333 C 157.806 218.203,157.138 217.017,154.643 212.200 C 153.959 210.880,153.265 209.740,153.100 209.667 C 152.935 209.593,152.800 209.188,152.800 208.767 C 152.800 208.345,152.620 208.000,152.400 208.000 C 152.180 208.000,152.000 207.655,152.000 207.233 C 152.000 206.812,151.865 206.407,151.700 206.333 C 151.240 206.129,147.393 198.748,145.168 193.800 C 143.462 190.007,141.210 183.600,141.204 182.524 C 141.202 182.042,141.020 181.536,140.800 181.400 C 140.580 181.264,140.400 180.479,140.400 179.656 C 140.400 178.833,140.209 177.969,139.976 177.736 C 139.260 177.020,139.899 165.145,140.770 163.000 C 140.949 162.560,141.495 160.940,141.984 159.400 C 144.441 151.655,151.443 142.641,159.229 137.197 C 159.983 136.670,160.690 136.125,160.800 135.987 C 161.928 134.569,172.978 128.229,173.784 128.538 C 174.076 128.651,174.419 129.520,174.546 130.471 C 174.943 133.440,175.485 136.884,176.815 144.900 C 177.043 146.275,177.322 148.210,177.436 149.200 C 177.549 150.190,177.803 151.360,178.000 151.800 C 178.197 152.240,178.458 153.455,178.579 154.500 C 178.701 155.545,178.899 157.255,179.021 158.300 C 179.142 159.345,179.402 160.560,179.598 161.000 C 179.794 161.440,180.048 162.520,180.162 163.400 C 180.276 164.280,180.548 165.990,180.766 167.200 C 180.985 168.410,181.272 170.030,181.404 170.800 C 181.869 173.517,181.985 173.861,182.736 174.726 C 183.153 175.207,183.716 175.600,183.987 175.600 C 184.258 175.600,186.625 176.320,189.248 177.200 C 194.795 179.061,195.338 179.112,196.518 177.881 C 197.921 176.417,199.345 174.685,200.072 173.556 C 200.442 172.982,200.988 172.262,201.286 171.956 C 201.583 171.650,202.262 170.770,202.794 170.000 C 203.326 169.230,203.860 168.510,203.981 168.400 C 204.101 168.290,204.828 167.390,205.594 166.400 C 206.361 165.410,207.208 164.330,207.476 164.000 C 207.744 163.670,209.093 161.960,210.473 160.200 C 211.854 158.440,213.078 156.910,213.194 156.800 C 213.310 156.690,213.911 155.921,214.530 155.091 C 215.148 154.261,216.047 153.180,216.527 152.688 C 217.007 152.197,217.870 151.166,218.445 150.397 C 219.020 149.629,220.010 148.433,220.645 147.740 C 221.280 147.047,222.143 146.057,222.563 145.540 C 222.983 145.023,223.883 143.961,224.563 143.180 C 225.243 142.398,226.700 140.699,227.800 139.404 C 228.900 138.108,230.160 136.677,230.600 136.224 C 231.040 135.770,231.916 134.769,232.547 133.999 C 233.603 132.711,245.290 120.360,249.000 116.612 C 249.880 115.723,251.793 113.917,253.252 112.598 C 260.986 105.605,262.165 104.534,262.948 103.784 C 263.714 103.050,268.699 98.993,272.019 96.400 C 274.511 94.454,280.214 90.427,281.200 89.917 C 281.750 89.633,282.549 89.085,282.975 88.700 C 283.402 88.315,283.987 88.000,284.275 88.000 C 284.564 88.000,284.800 87.841,284.800 87.647 C 284.800 87.452,285.115 87.193,285.500 87.071 C 286.436 86.775,288.566 85.476,288.733 85.100 C 288.807 84.935,289.212 84.800,289.633 84.800 C 290.055 84.800,290.400 84.620,290.400 84.400 C 290.400 84.180,290.745 84.000,291.167 84.000 C 291.588 84.000,291.993 83.858,292.067 83.685 C 292.528 82.596,302.874 78.611,308.400 77.394 C 313.473 76.277,321.859 76.292,326.200 77.425 M307.935 116.998 C 307.821 117.112,306.034 117.381,303.964 117.595 C 298.455 118.166,296.821 118.442,296.574 118.842 C 296.452 119.039,295.834 119.200,295.200 119.200 C 294.566 119.200,293.936 119.380,293.800 119.600 C 293.664 119.820,293.201 120.000,292.771 120.000 C 292.341 120.000,291.677 120.165,291.295 120.366 C 290.913 120.568,289.970 120.994,289.200 121.313 C 285.589 122.810,281.787 124.617,281.667 124.894 C 281.593 125.062,281.188 125.200,280.767 125.200 C 280.345 125.200,280.000 125.359,280.000 125.553 C 280.000 125.748,279.685 126.007,279.300 126.129 C 278.391 126.417,276.447 127.612,275.442 128.500 C 275.006 128.885,274.428 129.200,274.158 129.200 C 273.888 129.200,273.607 129.349,273.533 129.530 C 273.460 129.712,271.993 130.806,270.274 131.960 C 267.141 134.064,259.175 139.919,258.800 140.393 C 258.690 140.533,258.224 140.906,257.765 141.223 C 253.199 144.377,229.181 167.985,222.244 176.136 C 221.169 177.400,219.772 178.988,219.140 179.664 C 216.399 182.598,217.537 184.605,222.141 184.960 C 223.714 185.081,226.800 185.371,229.000 185.603 C 231.200 185.835,234.530 186.115,236.400 186.225 C 238.270 186.334,240.160 186.593,240.600 186.800 C 241.040 187.007,243.020 187.271,245.000 187.387 C 246.980 187.503,251.390 187.798,254.800 188.041 C 264.824 188.757,288.112 188.441,288.980 187.578 C 289.189 187.370,290.728 187.200,292.400 187.200 C 294.072 187.200,295.611 187.035,295.820 186.834 C 296.029 186.632,297.280 186.374,298.600 186.260 C 299.920 186.146,302.080 185.854,303.400 185.611 C 304.720 185.368,306.520 185.076,307.400 184.962 C 308.280 184.848,309.360 184.596,309.800 184.402 C 310.240 184.208,311.320 183.942,312.200 183.809 C 313.080 183.677,314.476 183.467,315.303 183.342 C 316.129 183.218,316.905 182.955,317.026 182.758 C 317.148 182.561,317.856 182.400,318.600 182.400 C 319.344 182.400,320.064 182.220,320.200 182.000 C 320.336 181.780,320.878 181.600,321.405 181.600 C 321.931 181.600,322.776 181.439,323.281 181.242 C 323.787 181.045,324.920 180.686,325.800 180.444 C 328.987 179.569,341.417 175.555,342.095 175.182 C 342.477 174.972,343.152 174.800,343.595 174.800 C 344.038 174.800,344.400 174.620,344.400 174.400 C 344.400 174.180,344.762 174.000,345.205 174.000 C 345.648 174.000,346.323 173.841,346.705 173.647 C 347.087 173.452,347.850 173.110,348.400 172.887 C 348.950 172.663,350.253 172.102,351.296 171.640 C 352.338 171.178,353.463 170.800,353.796 170.800 C 354.128 170.800,354.400 170.620,354.400 170.400 C 354.400 170.180,354.672 170.000,355.005 170.000 C 355.338 170.000,355.968 169.820,356.405 169.600 C 356.842 169.380,357.558 169.020,357.995 168.800 C 358.432 168.580,359.062 168.400,359.395 168.400 C 359.728 168.400,360.000 168.220,360.000 168.000 C 360.000 167.780,360.272 167.600,360.605 167.600 C 360.938 167.600,361.523 167.423,361.905 167.206 C 362.287 166.990,363.860 166.253,365.400 165.570 C 366.940 164.886,369.277 163.803,370.594 163.163 C 371.911 162.523,373.184 162.000,373.424 162.000 C 375.102 162.000,376.089 159.016,374.900 157.541 C 370.818 152.477,359.030 140.798,353.600 136.439 C 351.070 134.408,348.683 132.488,348.295 132.173 C 347.908 131.858,347.507 131.600,347.404 131.600 C 347.301 131.600,346.268 130.881,345.108 130.002 C 343.949 129.123,342.857 128.403,342.683 128.402 C 342.509 128.401,341.980 128.040,341.508 127.600 C 341.036 127.160,340.413 126.800,340.125 126.800 C 339.836 126.800,339.600 126.620,339.600 126.400 C 339.600 126.180,339.255 126.000,338.833 126.000 C 338.412 126.000,338.007 125.856,337.933 125.680 C 337.759 125.261,333.334 123.154,329.800 121.808 C 328.260 121.221,326.687 120.574,326.305 120.370 C 325.923 120.167,325.259 120.000,324.829 120.000 C 324.399 120.000,323.936 119.820,323.800 119.600 C 323.664 119.380,323.059 119.200,322.456 119.200 C 321.853 119.200,321.189 119.038,320.980 118.841 C 320.555 118.440,318.736 118.151,313.320 117.624 C 311.296 117.427,309.303 117.160,308.891 117.029 C 308.479 116.898,308.049 116.884,307.935 116.998 M316.580 122.851 C 316.789 123.043,317.633 123.200,318.456 123.200 C 319.279 123.200,320.064 123.380,320.200 123.600 C 320.336 123.820,320.966 124.000,321.600 124.000 C 322.234 124.000,322.864 124.180,323.000 124.400 C 323.136 124.620,323.676 124.800,324.200 124.800 C 324.724 124.800,325.264 124.980,325.400 125.200 C 325.536 125.420,325.969 125.600,326.362 125.600 C 326.755 125.600,327.600 125.850,328.239 126.156 C 328.877 126.461,331.020 127.484,333.000 128.428 C 334.980 129.372,337.352 130.652,338.272 131.272 C 339.192 131.892,340.137 132.400,340.372 132.400 C 340.607 132.400,340.800 132.558,340.800 132.751 C 340.800 132.945,341.340 133.327,342.000 133.600 C 342.660 133.873,343.200 134.216,343.200 134.362 C 343.200 134.508,343.733 134.943,344.385 135.328 C 345.037 135.713,345.802 136.253,346.085 136.527 C 346.368 136.802,347.230 137.462,348.000 137.994 C 348.770 138.526,349.490 139.061,349.600 139.182 C 349.710 139.303,351.330 140.689,353.200 142.263 C 356.993 145.455,368.100 156.642,368.493 157.666 C 368.785 158.426,367.677 159.600,366.669 159.600 C 366.301 159.600,366.000 159.780,366.000 160.000 C 366.000 160.220,365.640 160.400,365.200 160.400 C 364.760 160.400,364.400 160.580,364.400 160.800 C 364.400 161.020,364.164 161.200,363.875 161.200 C 363.586 161.200,362.605 161.560,361.694 162.000 C 360.784 162.440,359.760 162.800,359.419 162.800 C 359.079 162.800,358.800 162.980,358.800 163.200 C 358.800 163.420,358.440 163.600,358.000 163.600 C 357.560 163.600,357.200 163.780,357.200 164.000 C 357.200 164.220,356.928 164.400,356.595 164.400 C 356.262 164.400,355.677 164.565,355.295 164.767 C 353.990 165.457,350.809 166.800,350.479 166.800 C 350.298 166.800,349.405 167.160,348.494 167.600 C 347.584 168.040,346.596 168.400,346.299 168.400 C 346.003 168.400,345.589 168.559,345.380 168.753 C 345.171 168.948,343.830 169.500,342.400 169.980 C 340.970 170.460,339.440 171.015,339.000 171.214 C 337.475 171.904,329.440 174.400,328.745 174.400 C 328.361 174.400,327.936 174.580,327.800 174.800 C 327.664 175.020,327.111 175.200,326.571 175.200 C 326.031 175.200,325.277 175.358,324.895 175.551 C 324.513 175.744,323.570 176.080,322.800 176.297 C 320.458 176.958,317.885 177.645,316.200 178.060 C 315.320 178.277,314.047 178.622,313.372 178.827 C 312.696 179.032,311.607 179.200,310.952 179.200 C 310.296 179.200,309.589 179.363,309.380 179.561 C 309.171 179.760,308.190 180.021,307.200 180.142 C 306.210 180.263,304.320 180.559,303.000 180.799 C 289.698 183.220,272.612 184.152,257.800 183.263 C 250.200 182.807,247.665 182.601,237.400 181.607 C 234.980 181.373,231.472 181.050,229.604 180.891 C 225.486 180.538,225.204 180.062,227.463 177.281 C 229.614 174.635,252.458 151.807,255.589 149.176 C 257.013 147.979,258.723 146.502,259.389 145.894 C 260.055 145.286,261.655 144.026,262.944 143.094 C 264.233 142.162,265.943 140.819,266.744 140.109 C 267.545 139.399,268.425 138.814,268.700 138.809 C 268.975 138.804,269.200 138.662,269.200 138.494 C 269.200 138.326,269.920 137.744,270.800 137.200 C 271.680 136.656,272.400 136.074,272.400 135.906 C 272.400 135.738,272.636 135.600,272.925 135.600 C 273.213 135.600,273.836 135.240,274.308 134.800 C 274.780 134.360,275.272 134.000,275.401 134.000 C 275.530 134.000,276.933 133.134,278.518 132.075 C 281.480 130.096,287.517 126.914,290.000 126.022 C 291.814 125.371,293.227 124.795,294.095 124.353 C 294.477 124.159,295.231 124.000,295.771 124.000 C 296.311 124.000,296.864 123.820,297.000 123.600 C 297.136 123.380,297.831 123.200,298.544 123.200 C 299.257 123.200,300.012 123.028,300.221 122.819 C 300.985 122.055,315.745 122.084,316.580 122.851 " stroke="none" fill="#000000" fill-rule="evenodd"></path><path id="path1" d="M310.200 72.004 C 309.540 72.182,308.010 72.540,306.800 72.801 C 303.783 73.450,300.342 74.414,299.505 74.843 C 299.123 75.040,298.448 75.200,298.005 75.200 C 297.562 75.200,297.200 75.380,297.200 75.600 C 297.200 75.820,296.928 76.000,296.595 76.000 C 296.262 76.000,295.677 76.174,295.295 76.388 C 294.913 76.601,293.250 77.413,291.600 78.191 C 289.950 78.970,287.700 80.154,286.600 80.821 C 285.500 81.489,284.285 82.138,283.900 82.264 C 283.515 82.390,283.200 82.652,283.200 82.847 C 283.200 83.041,283.014 83.200,282.787 83.200 C 282.309 83.200,274.887 88.105,271.496 90.662 C 270.228 91.618,269.079 92.400,268.942 92.400 C 268.806 92.400,268.403 92.724,268.047 93.119 C 267.691 93.514,266.770 94.275,266.000 94.810 C 265.230 95.345,264.216 96.162,263.748 96.626 C 263.279 97.089,262.019 98.172,260.948 99.033 C 259.876 99.893,258.730 100.867,258.400 101.198 C 258.070 101.529,256.363 103.060,254.608 104.600 C 250.835 107.909,237.204 121.558,232.852 126.385 C 231.173 128.246,229.080 130.517,228.200 131.430 C 227.320 132.344,226.252 133.521,225.827 134.046 C 224.910 135.177,218.294 142.911,217.996 143.200 C 217.882 143.310,216.985 144.390,216.002 145.600 C 215.019 146.810,213.941 148.070,213.607 148.400 C 213.273 148.731,212.372 149.811,211.606 150.800 C 210.839 151.790,209.989 152.870,209.718 153.200 C 209.447 153.530,208.303 154.970,207.175 156.400 C 206.047 157.830,204.827 159.360,204.462 159.800 C 204.098 160.240,202.785 161.950,201.544 163.600 C 200.303 165.250,198.953 166.981,198.544 167.448 C 198.135 167.914,197.080 169.305,196.200 170.540 C 194.182 173.372,193.501 173.555,189.682 172.300 C 186.097 171.123,185.835 170.595,184.960 162.800 C 184.849 161.810,184.597 160.640,184.400 160.200 C 184.203 159.760,183.951 158.590,183.840 157.600 C 183.729 156.610,183.443 154.720,183.205 153.400 C 182.967 152.080,182.599 149.965,182.386 148.700 C 182.174 147.435,181.826 145.365,181.613 144.100 C 181.225 141.796,180.642 138.122,180.008 134.000 C 179.698 131.981,179.206 128.911,178.482 124.473 C 177.954 121.240,176.796 121.045,172.113 123.397 C 169.961 124.479,168.110 125.462,168.000 125.583 C 167.890 125.703,167.260 126.071,166.600 126.400 C 165.940 126.729,165.310 127.089,165.200 127.199 C 165.090 127.310,164.595 127.625,164.100 127.900 C 163.605 128.175,162.795 128.625,162.300 128.900 C 161.805 129.175,161.310 129.499,161.200 129.619 C 161.090 129.740,160.370 130.277,159.600 130.814 C 158.830 131.350,157.930 132.008,157.600 132.276 C 157.270 132.544,155.830 133.688,154.400 134.818 C 151.120 137.412,147.720 140.643,146.268 142.547 C 145.650 143.356,144.708 144.456,144.173 144.991 C 143.638 145.526,143.200 146.118,143.200 146.306 C 143.200 146.495,142.871 147.002,142.469 147.434 C 141.833 148.117,138.446 154.742,137.580 157.000 C 136.685 159.331,136.146 161.204,135.507 164.200 C 134.949 166.817,134.947 177.695,135.504 180.000 C 136.809 185.396,138.143 189.231,140.998 195.800 C 141.285 196.460,141.761 197.585,142.057 198.300 C 142.353 199.015,142.731 199.600,142.898 199.600 C 143.064 199.600,143.200 199.960,143.200 200.400 C 143.200 200.840,143.380 201.200,143.600 201.200 C 143.820 201.200,144.000 201.560,144.000 202.000 C 144.000 202.440,144.180 202.800,144.400 202.800 C 144.620 202.800,144.800 203.160,144.800 203.600 C 144.800 204.040,144.935 204.401,145.100 204.403 C 145.265 204.405,145.587 204.810,145.817 205.303 C 146.046 205.796,147.201 208.000,148.384 210.200 C 153.164 219.088,154.895 222.389,156.879 226.400 C 158.022 228.710,159.101 230.660,159.278 230.733 C 159.455 230.807,159.600 231.212,159.600 231.633 C 159.600 232.055,159.735 232.401,159.900 232.403 C 160.065 232.405,160.394 232.810,160.631 233.303 C 162.051 236.263,164.645 241.020,164.900 241.133 C 165.065 241.207,165.200 241.612,165.200 242.033 C 165.200 242.455,165.335 242.801,165.500 242.803 C 165.848 242.807,166.800 244.734,166.800 245.434 C 166.800 245.695,166.395 246.177,165.900 246.505 C 165.405 246.834,164.456 247.627,163.791 248.267 C 161.030 250.929,147.778 260.400,146.815 260.400 C 146.587 260.400,146.400 260.559,146.400 260.753 C 146.400 260.948,146.085 261.207,145.700 261.329 C 144.954 261.565,142.734 262.845,142.400 263.231 C 142.199 263.464,132.586 268.146,130.900 268.833 C 130.405 269.035,129.595 269.370,129.100 269.579 C 125.028 271.291,114.088 274.397,112.124 274.399 C 111.422 274.400,110.736 274.580,110.600 274.800 C 110.464 275.020,109.474 275.200,108.400 275.200 C 107.326 275.200,106.336 275.380,106.200 275.600 C 106.064 275.820,104.919 276.000,103.656 276.000 C 102.393 276.000,101.189 276.164,100.980 276.364 C 99.952 277.349,67.201 277.760,62.600 276.846 C 61.280 276.583,59.524 276.267,58.697 276.142 C 57.871 276.017,57.095 275.755,56.974 275.558 C 56.852 275.361,56.223 275.200,55.576 275.200 C 54.929 275.200,54.400 275.020,54.400 274.800 C 54.400 274.580,54.036 274.400,53.591 274.400 C 50.341 274.400,37.200 265.016,37.200 262.695 C 37.200 262.514,36.840 261.980,36.400 261.508 C 35.960 261.036,35.600 260.413,35.600 260.125 C 35.600 259.836,35.453 259.600,35.273 259.600 C 34.741 259.600,31.518 252.510,30.727 249.600 C 28.557 241.613,27.799 235.657,27.803 226.600 C 27.806 218.239,28.531 212.690,30.807 203.600 C 31.055 202.610,31.355 201.213,31.473 200.496 C 31.592 199.779,31.849 199.094,32.044 198.973 C 32.240 198.852,32.400 198.234,32.400 197.600 C 32.400 196.966,32.580 196.336,32.800 196.200 C 34.034 195.437,32.017 192.400,30.277 192.400 C 29.711 192.400,29.136 192.220,29.000 192.000 C 28.864 191.780,28.281 191.600,27.705 191.600 C 27.128 191.600,26.104 191.426,25.428 191.214 C 24.424 190.898,17.524 189.293,14.194 188.600 C 12.170 188.179,11.175 189.509,10.524 193.504 C 10.407 194.221,10.151 194.906,9.956 195.027 C 9.760 195.148,9.600 195.856,9.600 196.600 C 9.600 197.344,9.420 198.064,9.200 198.200 C 8.980 198.336,8.800 199.056,8.800 199.800 C 8.800 200.544,8.644 201.249,8.453 201.367 C 8.262 201.485,8.003 202.351,7.877 203.291 C 7.751 204.231,7.360 206.260,7.009 207.800 C 6.658 209.340,6.179 211.500,5.945 212.600 C 5.711 213.700,5.355 215.320,5.155 216.200 C 3.636 222.867,2.564 230.772,1.954 239.800 C 1.469 246.979,1.470 247.298,1.994 256.200 C 2.461 264.134,2.890 267.466,4.339 274.400 C 5.156 278.309,7.562 286.320,8.664 288.800 C 10.344 292.580,11.449 294.748,12.475 296.272 C 13.094 297.192,13.600 298.057,13.600 298.194 C 13.600 298.463,16.783 303.269,17.180 303.600 C 17.313 303.710,18.043 304.610,18.803 305.600 C 21.332 308.892,26.106 313.326,30.000 316.000 C 30.770 316.529,31.490 317.060,31.600 317.181 C 31.710 317.301,32.160 317.597,32.600 317.838 C 34.540 318.898,35.414 319.414,35.600 319.608 C 35.710 319.723,37.060 320.416,38.600 321.150 C 40.140 321.884,41.713 322.645,42.095 322.842 C 42.477 323.039,43.062 323.200,43.395 323.200 C 43.728 323.200,44.000 323.380,44.000 323.600 C 44.000 323.820,44.540 324.000,45.200 324.000 C 45.860 324.000,46.400 324.180,46.400 324.400 C 46.400 324.620,46.852 324.800,47.405 324.800 C 47.958 324.800,48.723 324.962,49.105 325.160 C 50.250 325.752,56.330 326.943,63.507 327.980 C 67.241 328.519,83.809 328.524,88.555 327.988 C 98.239 326.892,107.290 325.583,108.095 325.163 C 108.477 324.963,109.321 324.800,109.971 324.800 C 110.621 324.800,111.264 324.620,111.400 324.400 C 111.536 324.180,112.256 324.000,113.000 324.000 C 113.744 324.000,114.464 323.820,114.600 323.600 C 114.736 323.380,115.276 323.200,115.800 323.200 C 116.324 323.200,116.864 323.020,117.000 322.800 C 117.136 322.580,117.766 322.400,118.400 322.400 C 119.034 322.400,119.642 322.256,119.751 322.079 C 119.860 321.903,120.872 321.507,122.000 321.200 C 123.128 320.893,124.140 320.497,124.249 320.321 C 124.358 320.144,124.887 320.000,125.424 320.000 C 125.961 320.000,126.400 319.820,126.400 319.600 C 126.400 319.380,126.681 319.200,127.025 319.200 C 128.068 319.200,139.587 313.685,144.333 310.913 C 145.946 309.971,147.431 309.200,147.633 309.200 C 147.835 309.200,148.000 309.050,148.000 308.868 C 148.000 308.685,148.495 308.280,149.100 307.968 C 149.705 307.655,150.549 307.085,150.975 306.700 C 151.402 306.315,151.987 306.000,152.275 306.000 C 152.564 306.000,152.800 305.859,152.800 305.686 C 152.800 305.514,153.333 305.057,153.985 304.672 C 154.637 304.287,155.402 303.747,155.685 303.473 C 155.968 303.198,156.828 302.532,157.595 301.992 C 161.380 299.329,172.203 288.492,174.823 284.743 C 175.339 284.004,175.860 283.310,175.981 283.200 C 176.499 282.727,181.600 274.772,181.600 274.437 C 181.600 274.233,181.745 274.007,181.923 273.933 C 182.101 273.860,183.382 271.460,184.769 268.600 C 186.157 265.740,187.451 263.087,187.646 262.705 C 187.841 262.323,188.000 261.738,188.000 261.405 C 188.000 261.072,188.180 260.800,188.400 260.800 C 188.620 260.800,188.800 260.361,188.800 259.824 C 188.800 259.287,188.980 258.736,189.200 258.600 C 189.420 258.464,189.600 257.924,189.600 257.400 C 189.600 256.876,189.780 256.336,190.000 256.200 C 190.220 256.064,190.400 255.423,190.400 254.776 C 190.400 254.129,190.580 253.600,190.800 253.600 C 191.020 253.600,191.200 252.981,191.200 252.224 C 191.200 251.467,191.355 250.752,191.543 250.635 C 191.732 250.518,192.004 249.383,192.146 248.111 C 192.289 246.840,192.598 244.720,192.832 243.400 C 193.067 242.080,193.327 237.130,193.409 232.400 C 193.491 227.670,193.568 223.665,193.579 223.500 C 193.610 223.049,196.715 223.139,197.000 223.600 C 197.136 223.820,198.011 224.000,198.944 224.000 C 199.877 224.000,200.811 224.163,201.020 224.361 C 201.229 224.560,202.210 224.818,203.200 224.934 C 204.190 225.051,206.080 225.333,207.400 225.561 C 219.065 227.576,230.039 229.037,241.200 230.062 C 248.059 230.692,277.728 230.700,283.600 230.073 C 293.128 229.056,299.061 228.114,308.200 226.165 C 310.840 225.603,313.540 225.053,314.200 224.944 C 314.860 224.835,315.760 224.603,316.200 224.428 C 317.980 223.722,319.905 223.200,320.728 223.200 C 321.208 223.200,321.600 223.020,321.600 222.800 C 321.600 222.580,322.129 222.400,322.776 222.400 C 323.423 222.400,324.064 222.220,324.200 222.000 C 324.336 221.780,324.876 221.600,325.400 221.600 C 325.924 221.600,326.464 221.420,326.600 221.200 C 326.736 220.980,327.251 220.800,327.744 220.800 C 328.237 220.800,328.811 220.657,329.020 220.482 C 329.229 220.307,330.120 219.935,331.000 219.655 C 331.880 219.376,333.005 218.979,333.500 218.774 C 335.244 218.050,336.214 217.676,337.600 217.193 C 340.562 216.163,344.649 214.295,351.400 210.888 C 354.260 209.445,357.004 208.069,357.497 207.832 C 357.990 207.594,358.395 207.265,358.397 207.100 C 358.399 206.935,358.636 206.800,358.925 206.800 C 359.213 206.800,359.798 206.485,360.225 206.100 C 360.651 205.715,361.495 205.145,362.100 204.832 C 362.705 204.520,363.200 204.115,363.200 203.932 C 363.200 203.750,363.470 203.600,363.800 203.600 C 364.130 203.600,364.400 203.459,364.400 203.286 C 364.400 203.114,364.933 202.657,365.585 202.272 C 366.237 201.887,367.007 201.353,367.295 201.086 C 367.584 200.819,368.625 199.976,369.610 199.214 C 374.275 195.601,379.779 189.973,383.322 185.193 C 384.380 183.767,385.505 182.283,385.822 181.895 C 386.140 181.508,386.400 181.090,386.400 180.967 C 386.400 180.845,386.940 179.959,387.600 179.000 C 388.260 178.041,388.800 177.078,388.800 176.861 C 388.800 176.644,388.941 176.407,389.114 176.333 C 389.551 176.147,392.151 170.764,393.428 167.400 C 395.425 162.141,396.099 159.714,397.260 153.600 C 397.917 150.142,398.143 137.686,397.582 135.800 C 396.479 132.086,396.131 131.161,394.611 127.896 C 393.445 125.394,388.915 118.283,388.349 118.067 C 388.157 117.993,388.000 117.744,388.000 117.514 C 388.000 117.283,387.676 116.803,387.281 116.447 C 386.886 116.091,386.128 115.170,385.596 114.400 C 385.065 113.630,384.174 112.550,383.615 112.000 C 383.057 111.450,381.942 110.190,381.139 109.200 C 378.995 106.559,370.945 98.472,368.400 96.403 C 367.190 95.419,365.930 94.335,365.600 93.993 C 364.618 92.975,355.666 86.413,354.592 85.923 C 354.046 85.675,353.600 85.342,353.600 85.184 C 353.600 85.026,353.060 84.673,352.400 84.400 C 351.740 84.127,351.200 83.766,351.200 83.598 C 351.200 83.430,350.885 83.190,350.500 83.064 C 350.115 82.938,348.900 82.285,347.800 81.613 C 346.700 80.940,345.125 80.080,344.300 79.701 C 343.475 79.322,342.800 78.874,342.800 78.706 C 342.800 78.538,342.440 78.400,342.000 78.400 C 341.560 78.400,341.199 78.265,341.197 78.100 C 341.193 77.741,339.256 76.800,338.520 76.800 C 338.234 76.800,338.000 76.620,338.000 76.400 C 338.000 76.180,337.640 76.000,337.200 76.000 C 336.760 76.000,336.400 75.820,336.400 75.600 C 336.400 75.380,335.961 75.200,335.424 75.200 C 334.887 75.200,334.349 75.041,334.230 74.848 C 334.110 74.654,333.604 74.406,333.106 74.296 C 332.608 74.186,331.120 73.800,329.800 73.438 C 323.331 71.664,314.003 70.982,310.200 72.004 M326.200 77.425 C 330.564 78.565,330.983 78.693,333.200 79.575 C 336.288 80.802,341.374 83.311,341.533 83.686 C 341.607 83.859,342.012 84.000,342.433 84.000 C 342.855 84.000,343.200 84.159,343.200 84.353 C 343.200 84.548,343.515 84.807,343.900 84.929 C 344.836 85.225,346.966 86.524,347.133 86.900 C 347.207 87.065,347.439 87.200,347.649 87.200 C 348.620 87.200,359.940 95.318,364.777 99.483 C 369.133 103.233,380.070 114.592,381.986 117.356 C 382.308 117.820,382.983 118.648,383.486 119.196 C 383.988 119.744,384.400 120.316,384.400 120.467 C 384.400 120.619,384.635 120.981,384.922 121.271 C 386.411 122.779,389.694 128.279,391.328 132.000 C 393.117 136.076,393.241 136.956,393.066 144.305 C 392.910 150.871,392.714 152.707,391.651 157.600 C 390.568 162.586,387.172 171.752,386.020 172.800 C 385.899 172.910,385.364 173.810,384.832 174.800 C 383.875 176.579,380.875 181.213,380.430 181.600 C 380.304 181.710,379.575 182.610,378.812 183.600 C 375.664 187.680,370.616 192.723,366.398 196.002 C 365.409 196.771,364.510 197.505,364.400 197.634 C 364.100 197.984,357.134 202.618,355.139 203.794 C 354.182 204.357,351.150 205.909,348.400 207.241 C 345.650 208.573,343.087 209.829,342.705 210.031 C 342.323 210.234,341.738 210.400,341.405 210.400 C 341.072 210.400,340.800 210.580,340.800 210.800 C 340.800 211.020,340.440 211.200,340.000 211.200 C 339.560 211.200,339.200 211.380,339.200 211.600 C 339.200 211.820,338.874 212.000,338.475 212.000 C 338.076 212.000,337.005 212.360,336.094 212.800 C 335.184 213.240,334.248 213.600,334.014 213.600 C 333.780 213.600,333.232 213.780,332.795 214.000 C 332.358 214.220,331.642 214.580,331.205 214.800 C 330.768 215.020,330.059 215.200,329.629 215.200 C 329.199 215.200,328.736 215.380,328.600 215.600 C 328.464 215.820,327.924 216.000,327.400 216.000 C 326.876 216.000,326.336 216.180,326.200 216.400 C 326.064 216.620,325.524 216.800,325.000 216.800 C 324.476 216.800,323.949 216.959,323.829 217.154 C 323.708 217.349,323.113 217.604,322.505 217.721 C 321.897 217.838,320.725 218.129,319.900 218.367 C 315.702 219.579,315.222 219.708,311.000 220.763 C 302.288 222.942,295.241 224.094,283.400 225.277 C 278.314 225.785,248.145 225.789,241.800 225.282 C 229.823 224.326,218.753 222.869,207.600 220.780 C 206.390 220.554,204.500 220.203,203.400 220.000 C 202.300 219.797,200.410 219.435,199.200 219.195 C 197.990 218.956,196.324 218.659,195.497 218.537 C 194.671 218.415,193.895 218.155,193.774 217.958 C 193.436 217.411,189.755 217.532,189.278 218.106 C 189.019 218.418,188.785 222.813,188.665 229.606 C 188.485 239.803,188.239 242.887,187.229 247.600 C 187.017 248.590,186.730 249.940,186.591 250.600 C 186.453 251.260,186.197 252.160,186.022 252.600 C 185.848 253.040,185.312 254.660,184.832 256.200 C 183.812 259.473,183.600 260.018,182.457 262.338 C 181.986 263.294,181.600 264.329,181.600 264.638 C 181.600 264.947,181.420 265.200,181.200 265.200 C 180.980 265.200,180.800 265.472,180.800 265.805 C 180.800 266.366,180.070 267.937,179.595 268.400 C 179.482 268.510,178.942 269.500,178.395 270.600 C 177.848 271.700,177.086 272.949,176.701 273.375 C 176.315 273.802,176.000 274.387,176.000 274.675 C 176.000 274.964,175.849 275.200,175.664 275.200 C 175.480 275.200,175.118 275.661,174.862 276.224 C 172.036 282.427,158.226 296.227,148.000 303.068 C 143.352 306.178,132.485 312.000,131.330 312.000 C 131.038 312.000,130.800 312.180,130.800 312.400 C 130.800 312.620,130.564 312.800,130.275 312.800 C 129.986 312.800,129.005 313.160,128.094 313.600 C 127.184 314.040,126.160 314.400,125.819 314.400 C 125.479 314.400,125.200 314.580,125.200 314.800 C 125.200 315.020,124.838 315.200,124.395 315.200 C 123.952 315.200,123.187 315.408,122.695 315.662 C 120.816 316.634,120.393 316.800,119.800 316.800 C 119.464 316.800,118.877 316.962,118.495 317.161 C 118.113 317.360,116.990 317.737,116.000 318.000 C 115.010 318.263,113.887 318.640,113.505 318.839 C 113.123 319.038,112.279 319.200,111.629 319.200 C 110.979 319.200,110.348 319.361,110.226 319.558 C 110.105 319.755,109.329 320.013,108.503 320.132 C 107.676 320.251,106.100 320.540,105.000 320.774 C 101.497 321.520,98.683 321.997,95.600 322.369 C 93.950 322.567,92.150 322.830,91.600 322.952 C 85.917 324.216,65.735 323.900,57.800 322.422 C 53.631 321.645,48.400 320.249,47.105 319.566 C 46.723 319.365,46.220 319.200,45.986 319.200 C 45.752 319.200,44.816 318.840,43.906 318.400 C 42.995 317.960,42.014 317.600,41.725 317.600 C 41.436 317.600,41.200 317.420,41.200 317.200 C 41.200 316.980,40.840 316.800,40.400 316.800 C 39.960 316.800,39.600 316.664,39.600 316.498 C 39.600 316.331,39.015 315.941,38.300 315.630 C 33.208 313.416,21.362 302.924,20.039 299.457 C 19.951 299.226,19.546 298.679,19.139 298.243 C 18.733 297.806,18.400 297.228,18.400 296.958 C 18.400 296.688,18.265 296.407,18.100 296.333 C 17.186 295.927,13.172 287.485,11.474 282.400 C 9.653 276.944,8.700 272.594,7.532 264.400 C 6.690 258.489,7.093 229.183,8.030 228.220 C 8.234 228.011,8.400 226.979,8.400 225.926 C 8.400 224.873,8.581 223.244,8.803 222.306 C 9.025 221.368,9.584 218.620,10.045 216.200 C 10.506 213.780,11.055 211.080,11.264 210.200 C 11.473 209.320,11.804 207.880,12.000 207.000 C 12.352 205.421,12.836 203.432,13.582 200.500 C 13.792 199.675,14.120 198.280,14.312 197.400 C 15.087 193.836,15.583 193.570,19.480 194.632 C 20.756 194.980,22.925 195.550,24.300 195.899 L 26.800 196.534 26.800 198.443 C 26.800 199.493,26.620 200.464,26.400 200.600 C 26.180 200.736,26.000 201.456,26.000 202.200 C 26.000 202.944,25.820 203.664,25.600 203.800 C 25.380 203.936,25.200 204.746,25.200 205.600 C 25.200 206.454,25.020 207.264,24.800 207.400 C 24.580 207.536,24.396 208.222,24.392 208.924 C 24.388 209.626,24.122 211.640,23.801 213.400 C 22.459 220.764,22.654 234.831,24.223 243.800 C 24.570 245.780,24.951 247.987,25.071 248.704 C 25.190 249.421,25.449 250.106,25.644 250.227 C 25.840 250.348,26.000 250.799,26.000 251.229 C 26.000 251.659,26.180 252.368,26.400 252.805 C 26.620 253.242,26.980 253.958,27.200 254.395 C 27.420 254.832,27.600 255.552,27.600 255.995 C 27.600 256.438,27.780 256.800,28.000 256.800 C 28.220 256.800,28.400 257.160,28.400 257.600 C 28.400 258.040,28.580 258.400,28.800 258.400 C 29.020 258.400,29.200 258.760,29.200 259.200 C 29.200 259.640,29.380 260.000,29.600 260.000 C 29.820 260.000,30.000 260.188,30.000 260.418 C 30.000 262.240,38.319 271.835,42.000 274.259 C 44.122 275.657,48.815 278.067,50.800 278.779 C 51.570 279.055,52.560 279.418,53.000 279.585 C 54.918 280.314,56.719 280.800,57.505 280.800 C 57.971 280.800,58.464 280.980,58.600 281.200 C 58.736 281.420,59.611 281.600,60.544 281.600 C 61.477 281.600,62.411 281.760,62.620 281.956 C 63.673 282.944,80.217 283.250,90.400 282.469 C 104.392 281.397,110.828 280.293,122.600 276.943 C 127.109 275.661,128.406 275.212,130.095 274.353 C 130.477 274.159,131.152 274.000,131.595 274.000 C 132.038 274.000,132.400 273.820,132.400 273.600 C 132.400 273.380,132.672 273.200,133.005 273.200 C 133.338 273.200,133.923 273.027,134.305 272.817 C 134.687 272.606,136.710 271.613,138.800 270.611 C 140.890 269.608,143.410 268.315,144.400 267.737 C 145.390 267.160,146.740 266.378,147.400 266.001 C 149.150 265.001,158.165 259.111,158.400 258.814 C 158.510 258.675,159.230 258.123,160.000 257.586 C 161.392 256.617,162.079 256.078,163.734 254.655 C 164.210 254.246,165.403 253.256,166.385 252.455 C 172.542 247.437,172.987 246.686,171.449 243.914 C 170.926 242.971,169.981 241.210,169.349 240.000 C 168.717 238.790,168.107 237.710,167.994 237.600 C 167.881 237.490,167.050 235.960,166.148 234.200 C 162.835 227.739,159.490 221.377,158.952 220.514 C 158.649 220.027,158.400 219.367,158.400 219.047 C 158.400 218.728,158.265 218.407,158.100 218.333 C 157.806 218.203,157.138 217.017,154.643 212.200 C 153.959 210.880,153.265 209.740,153.100 209.667 C 152.935 209.593,152.800 209.188,152.800 208.767 C 152.800 208.345,152.620 208.000,152.400 208.000 C 152.180 208.000,152.000 207.655,152.000 207.233 C 152.000 206.812,151.865 206.407,151.700 206.333 C 151.240 206.129,147.393 198.748,145.168 193.800 C 143.462 190.007,141.210 183.600,141.204 182.524 C 141.202 182.042,141.020 181.536,140.800 181.400 C 140.580 181.264,140.400 180.479,140.400 179.656 C 140.400 178.833,140.209 177.969,139.976 177.736 C 139.260 177.020,139.899 165.145,140.770 163.000 C 140.949 162.560,141.495 160.940,141.984 159.400 C 144.441 151.655,151.443 142.641,159.229 137.197 C 159.983 136.670,160.690 136.125,160.800 135.987 C 161.928 134.569,172.978 128.229,173.784 128.538 C 174.076 128.651,174.419 129.520,174.546 130.471 C 174.943 133.440,175.485 136.884,176.815 144.900 C 177.043 146.275,177.322 148.210,177.436 149.200 C 177.549 150.190,177.803 151.360,178.000 151.800 C 178.197 152.240,178.458 153.455,178.579 154.500 C 178.701 155.545,178.899 157.255,179.021 158.300 C 179.142 159.345,179.402 160.560,179.598 161.000 C 179.794 161.440,180.048 162.520,180.162 163.400 C 180.276 164.280,180.548 165.990,180.766 167.200 C 180.985 168.410,181.272 170.030,181.404 170.800 C 181.869 173.517,181.985 173.861,182.736 174.726 C 183.153 175.207,183.716 175.600,183.987 175.600 C 184.258 175.600,186.625 176.320,189.248 177.200 C 194.795 179.061,195.338 179.112,196.518 177.881 C 197.921 176.417,199.345 174.685,200.072 173.556 C 200.442 172.982,200.988 172.262,201.286 171.956 C 201.583 171.650,202.262 170.770,202.794 170.000 C 203.326 169.230,203.860 168.510,203.981 168.400 C 204.101 168.290,204.828 167.390,205.594 166.400 C 206.361 165.410,207.208 164.330,207.476 164.000 C 207.744 163.670,209.093 161.960,210.473 160.200 C 211.854 158.440,213.078 156.910,213.194 156.800 C 213.310 156.690,213.911 155.921,214.530 155.091 C 215.148 154.261,216.047 153.180,216.527 152.688 C 217.007 152.197,217.870 151.166,218.445 150.397 C 219.020 149.629,220.010 148.433,220.645 147.740 C 221.280 147.047,222.143 146.057,222.563 145.540 C 222.983 145.023,223.883 143.961,224.563 143.180 C 225.243 142.398,226.700 140.699,227.800 139.404 C 228.900 138.108,230.160 136.677,230.600 136.224 C 231.040 135.770,231.916 134.769,232.547 133.999 C 233.603 132.711,245.290 120.360,249.000 116.612 C 249.880 115.723,251.793 113.917,253.252 112.598 C 260.986 105.605,262.165 104.534,262.948 103.784 C 263.714 103.050,268.699 98.993,272.019 96.400 C 274.511 94.454,280.214 90.427,281.200 89.917 C 281.750 89.633,282.549 89.085,282.975 88.700 C 283.402 88.315,283.987 88.000,284.275 88.000 C 284.564 88.000,284.800 87.841,284.800 87.647 C 284.800 87.452,285.115 87.193,285.500 87.071 C 286.436 86.775,288.566 85.476,288.733 85.100 C 288.807 84.935,289.212 84.800,289.633 84.800 C 290.055 84.800,290.400 84.620,290.400 84.400 C 290.400 84.180,290.745 84.000,291.167 84.000 C 291.588 84.000,291.993 83.858,292.067 83.685 C 292.528 82.596,302.874 78.611,308.400 77.394 C 313.473 76.277,321.859 76.292,326.200 77.425 M307.935 116.998 C 307.821 117.112,306.034 117.381,303.964 117.595 C 298.455 118.166,296.821 118.442,296.574 118.842 C 296.452 119.039,295.834 119.200,295.200 119.200 C 294.566 119.200,293.936 119.380,293.800 119.600 C 293.664 119.820,293.201 120.000,292.771 120.000 C 292.341 120.000,291.677 120.165,291.295 120.366 C 290.913 120.568,289.970 120.994,289.200 121.313 C 285.589 122.810,281.787 124.617,281.667 124.894 C 281.593 125.062,281.188 125.200,280.767 125.200 C 280.345 125.200,280.000 125.359,280.000 125.553 C 280.000 125.748,279.685 126.007,279.300 126.129 C 278.391 126.417,276.447 127.612,275.442 128.500 C 275.006 128.885,274.428 129.200,274.158 129.200 C 273.888 129.200,273.607 129.349,273.533 129.530 C 273.460 129.712,271.993 130.806,270.274 131.960 C 267.141 134.064,259.175 139.919,258.800 140.393 C 258.690 140.533,258.224 140.906,257.765 141.223 C 253.199 144.377,229.181 167.985,222.244 176.136 C 221.169 177.400,219.772 178.988,219.140 179.664 C 216.399 182.598,217.537 184.605,222.141 184.960 C 223.714 185.081,226.800 185.371,229.000 185.603 C 231.200 185.835,234.530 186.115,236.400 186.225 C 238.270 186.334,240.160 186.593,240.600 186.800 C 241.040 187.007,243.020 187.271,245.000 187.387 C 246.980 187.503,251.390 187.798,254.800 188.041 C 264.824 188.757,288.112 188.441,288.980 187.578 C 289.189 187.370,290.728 187.200,292.400 187.200 C 294.072 187.200,295.611 187.035,295.820 186.834 C 296.029 186.632,297.280 186.374,298.600 186.260 C 299.920 186.146,302.080 185.854,303.400 185.611 C 304.720 185.368,306.520 185.076,307.400 184.962 C 308.280 184.848,309.360 184.596,309.800 184.402 C 310.240 184.208,311.320 183.942,312.200 183.809 C 313.080 183.677,314.476 183.467,315.303 183.342 C 316.129 183.218,316.905 182.955,317.026 182.758 C 317.148 182.561,317.856 182.400,318.600 182.400 C 319.344 182.400,320.064 182.220,320.200 182.000 C 320.336 181.780,320.878 181.600,321.405 181.600 C 321.931 181.600,322.776 181.439,323.281 181.242 C 323.787 181.045,324.920 180.686,325.800 180.444 C 328.987 179.569,341.417 175.555,342.095 175.182 C 342.477 174.972,343.152 174.800,343.595 174.800 C 344.038 174.800,344.400 174.620,344.400 174.400 C 344.400 174.180,344.762 174.000,345.205 174.000 C 345.648 174.000,346.323 173.841,346.705 173.647 C 347.087 173.452,347.850 173.110,348.400 172.887 C 348.950 172.663,350.253 172.102,351.296 171.640 C 352.338 171.178,353.463 170.800,353.796 170.800 C 354.128 170.800,354.400 170.620,354.400 170.400 C 354.400 170.180,354.672 170.000,355.005 170.000 C 355.338 170.000,355.968 169.820,356.405 169.600 C 356.842 169.380,357.558 169.020,357.995 168.800 C 358.432 168.580,359.062 168.400,359.395 168.400 C 359.728 168.400,360.000 168.220,360.000 168.000 C 360.000 167.780,360.272 167.600,360.605 167.600 C 360.938 167.600,361.523 167.423,361.905 167.206 C 362.287 166.990,363.860 166.253,365.400 165.570 C 366.940 164.886,369.277 163.803,370.594 163.163 C 371.911 162.523,373.184 162.000,373.424 162.000 C 375.102 162.000,376.089 159.016,374.900 157.541 C 370.818 152.477,359.030 140.798,353.600 136.439 C 351.070 134.408,348.683 132.488,348.295 132.173 C 347.908 131.858,347.507 131.600,347.404 131.600 C 347.301 131.600,346.268 130.881,345.108 130.002 C 343.949 129.123,342.857 128.403,342.683 128.402 C 342.509 128.401,341.980 128.040,341.508 127.600 C 341.036 127.160,340.413 126.800,340.125 126.800 C 339.836 126.800,339.600 126.620,339.600 126.400 C 339.600 126.180,339.255 126.000,338.833 126.000 C 338.412 126.000,338.007 125.856,337.933 125.680 C 337.759 125.261,333.334 123.154,329.800 121.808 C 328.260 121.221,326.687 120.574,326.305 120.370 C 325.923 120.167,325.259 120.000,324.829 120.000 C 324.399 120.000,323.936 119.820,323.800 119.600 C 323.664 119.380,323.059 119.200,322.456 119.200 C 321.853 119.200,321.189 119.038,320.980 118.841 C 320.555 118.440,318.736 118.151,313.320 117.624 C 311.296 117.427,309.303 117.160,308.891 117.029 C 308.479 116.898,308.049 116.884,307.935 116.998 M316.580 122.851 C 316.789 123.043,317.633 123.200,318.456 123.200 C 319.279 123.200,320.064 123.380,320.200 123.600 C 320.336 123.820,320.966 124.000,321.600 124.000 C 322.234 124.000,322.864 124.180,323.000 124.400 C 323.136 124.620,323.676 124.800,324.200 124.800 C 324.724 124.800,325.264 124.980,325.400 125.200 C 325.536 125.420,325.969 125.600,326.362 125.600 C 326.755 125.600,327.600 125.850,328.239 126.156 C 328.877 126.461,331.020 127.484,333.000 128.428 C 334.980 129.372,337.352 130.652,338.272 131.272 C 339.192 131.892,340.137 132.400,340.372 132.400 C 340.607 132.400,340.800 132.558,340.800 132.751 C 340.800 132.945,341.340 133.327,342.000 133.600 C 342.660 133.873,343.200 134.216,343.200 134.362 C 343.200 134.508,343.733 134.943,344.385 135.328 C 345.037 135.713,345.802 136.253,346.085 136.527 C 346.368 136.802,347.230 137.462,348.000 137.994 C 348.770 138.526,349.490 139.061,349.600 139.182 C 349.710 139.303,351.330 140.689,353.200 142.263 C 356.993 145.455,368.100 156.642,368.493 157.666 C 368.785 158.426,367.677 159.600,366.669 159.600 C 366.301 159.600,366.000 159.780,366.000 160.000 C 366.000 160.220,365.640 160.400,365.200 160.400 C 364.760 160.400,364.400 160.580,364.400 160.800 C 364.400 161.020,364.164 161.200,363.875 161.200 C 363.586 161.200,362.605 161.560,361.694 162.000 C 360.784 162.440,359.760 162.800,359.419 162.800 C 359.079 162.800,358.800 162.980,358.800 163.200 C 358.800 163.420,358.440 163.600,358.000 163.600 C 357.560 163.600,357.200 163.780,357.200 164.000 C 357.200 164.220,356.928 164.400,356.595 164.400 C 356.262 164.400,355.677 164.565,355.295 164.767 C 353.990 165.457,350.809 166.800,350.479 166.800 C 350.298 166.800,349.405 167.160,348.494 167.600 C 347.584 168.040,346.596 168.400,346.299 168.400 C 346.003 168.400,345.589 168.559,345.380 168.753 C 345.171 168.948,343.830 169.500,342.400 169.980 C 340.970 170.460,339.440 171.015,339.000 171.214 C 337.475 171.904,329.440 174.400,328.745 174.400 C 328.361 174.400,327.936 174.580,327.800 174.800 C 327.664 175.020,327.111 175.200,326.571 175.200 C 326.031 175.200,325.277 175.358,324.895 175.551 C 324.513 175.744,323.570 176.080,322.800 176.297 C 320.458 176.958,317.885 177.645,316.200 178.060 C 315.320 178.277,314.047 178.622,313.372 178.827 C 312.696 179.032,311.607 179.200,310.952 179.200 C 310.296 179.200,309.589 179.363,309.380 179.561 C 309.171 179.760,308.190 180.021,307.200 180.142 C 306.210 180.263,304.320 180.559,303.000 180.799 C 289.698 183.220,272.612 184.152,257.800 183.263 C 250.200 182.807,247.665 182.601,237.400 181.607 C 234.980 181.373,231.472 181.050,229.604 180.891 C 225.486 180.538,225.204 180.062,227.463 177.281 C 229.614 174.635,252.458 151.807,255.589 149.176 C 257.013 147.979,258.723 146.502,259.389 145.894 C 260.055 145.286,261.655 144.026,262.944 143.094 C 264.233 142.162,265.943 140.819,266.744 140.109 C 267.545 139.399,268.425 138.814,268.700 138.809 C 268.975 138.804,269.200 138.662,269.200 138.494 C 269.200 138.326,269.920 137.744,270.800 137.200 C 271.680 136.656,272.400 136.074,272.400 135.906 C 272.400 135.738,272.636 135.600,272.925 135.600 C 273.213 135.600,273.836 135.240,274.308 134.800 C 274.780 134.360,275.272 134.000,275.401 134.000 C 275.530 134.000,276.933 133.134,278.518 132.075 C 281.480 130.096,287.517 126.914,290.000 126.022 C 291.814 125.371,293.227 124.795,294.095 124.353 C 294.477 124.159,295.231 124.000,295.771 124.000 C 296.311 124.000,296.864 123.820,297.000 123.600 C 297.136 123.380,297.831 123.200,298.544 123.200 C 299.257 123.200,300.012 123.028,300.221 122.819 C 300.985 122.055,315.745 122.084,316.580 122.851 " stroke="none" fill="#000000" fill-rule="evenodd"></path><path id="path2" d="" stroke="none" fill="#080404" fill-rule="evenodd"></path><path id="path3" d="" stroke="none" fill="#080404" fill-rule="evenodd"></path><path id="path4" d="" stroke="none" fill="#080404" fill-rule="evenodd"></path></g></svg>
