<?xml version="1.0" encoding="UTF-8"?>
<svg version="1.1" xmlns="http://www.w3.org/2000/svg" width="512" height="512">
<path d="M0 0 C2.58702637 3.59846439 3.83788578 7.23433786 5.06640625 11.46484375 C5.46435012 12.80907454 5.86255838 14.15322707 6.26098633 15.49731445 C6.4715567 16.21650055 6.68212708 16.93568665 6.89907837 17.67666626 C10.53271031 30.05949689 14.40454483 42.35326868 18.515625 54.5859375 C18.90971054 55.75896927 19.30379608 56.93200104 19.70982361 58.14057922 C21.67044022 63.96448937 23.64384078 69.78383048 25.62915039 75.59936523 C43.05018066 126.94000405 48.13882257 177.20965516 24.17773438 227.62695312 C19.24589679 237.56423781 13.28717094 246.61764731 6 255 C4.91912109 256.26263672 4.91912109 256.26263672 3.81640625 257.55078125 C-16.36070083 280.59534549 -42.70216972 292.64985384 -73 295 C-74.25683594 295.14308594 -74.25683594 295.14308594 -75.5390625 295.2890625 C-96.03619806 296.74766016 -117.80226995 278.58888113 -133 267 C-133.68739258 266.47631836 -134.37478516 265.95263672 -135.08300781 265.41308594 C-139.1040706 262.33357825 -143.10184427 259.23406549 -147 256 C-147.80695313 255.38253906 -148.61390625 254.76507813 -149.4453125 254.12890625 C-151 252 -151 252 -150.96484375 248.83203125 C-149.8207497 244.28807877 -148.30137183 240.03290882 -146.5625 235.6875 C-146.24990234 234.87732422 -145.93730469 234.06714844 -145.61523438 233.23242188 C-143.26505623 227.26505623 -143.26505623 227.26505623 -141 225 C-139.02148438 224.953125 -139.02148438 224.953125 -136.59375 225.25 C-135.6965625 225.35957031 -134.799375 225.46914063 -133.875 225.58203125 C-128.0790281 226.42465216 -122.32608057 227.48069358 -116.56640625 228.5390625 C-88.3371836 233.61653342 -57.83735375 232.18058875 -33 216.375 C-15.2660445 203.96586143 -2.8763151 187.67576853 3.98046875 167.05078125 C4.01021528 162.40437294 1.98631355 159.17717118 -0.25 155.1875 C-0.70673096 154.34783691 -1.16346191 153.50817383 -1.6340332 152.64306641 C-5.00895183 146.53519425 -8.67850207 140.6587491 -12.53344727 134.84521484 C-18.80667631 125.36174182 -24.56088186 115.5590487 -30.35253906 105.77685547 C-31.73278732 103.45039671 -33.12493957 101.13190429 -34.5234375 98.81640625 C-44.45568173 82.18450703 -51.12672449 64.19530948 -47.34765625 44.62109375 C-41.6392804 25.83000243 -26.4626719 11.64553415 -10 1.8125 C-6.56162552 0.06774864 -3.87940306 -0.9236674 0 0 Z M-24.796875 24.66796875 C-34.2249571 34.64769395 -39.58161276 44.49357735 -39.48413086 58.31201172 C-38.4874856 84.62231085 -17.27409071 110.60155301 -3.6875 131.9375 C0.06739919 137.83539684 3.68995493 143.78460945 7.125 149.875 C7.49149658 150.52331787 7.85799316 151.17163574 8.2355957 151.83959961 C11.55336152 157.81189503 13.60625234 162.05027802 13 169 C12.186061 171.69818678 11.07238269 174.20199445 9.875 176.75 C9.55370117 177.4517334 9.23240234 178.1534668 8.90136719 178.87646484 C7.95173963 180.92647686 6.97997281 182.96435277 6 185 C5.53335938 185.98742187 5.06671875 186.97484375 4.5859375 187.9921875 C-7.27296 211.3632311 -27.95167192 227.02974756 -52.5859375 235.1875 C-77.52929544 242.42054196 -103.63975213 240.79587097 -128.8125 235.5859375 C-132.11552943 234.87947047 -132.11552943 234.87947047 -136 235 C-136.89395329 236.90790032 -137.76459334 238.82673806 -138.625 240.75 C-139.11226562 241.81734375 -139.59953125 242.8846875 -140.1015625 243.984375 C-141.20336065 246.8195428 -141.20336065 246.8195428 -140.5859375 249.046875 C-138.1285037 252.07327131 -135.1406825 254.21600325 -132 256.5 C-131.29302979 257.02045898 -130.58605957 257.54091797 -129.85766602 258.07714844 C-117.13808144 267.35663505 -104.19987149 276.1401587 -90 283 C-89.24203125 283.391875 -88.4840625 283.78375 -87.703125 284.1875 C-74.90467642 289.74341566 -56.486756 284.46682881 -44 280 C-13.53046168 267.81354857 7.26765278 243.22370962 20.03173828 213.60595703 C40.32369537 163.85957705 29.94336512 117.93807945 13.44010925 69.24272156 C10.65897287 61.02185442 7.95736057 52.77563338 5.27813721 44.52105713 C4.76818945 42.95081482 4.25712156 41.38093574 3.74481201 39.8114624 C0.62684456 30.25937208 -2.3171023 20.68418446 -5 11 C-11.43229318 11 -20.12230821 20.40536918 -24.796875 24.66796875 Z " fill="#000000" transform="translate(311,109)"/>
</svg>
