<?xml version="1.0" encoding="UTF-8"?>
<!DOCTYPE svg PUBLIC "-//W3C//DTD SVG 1.1//EN" "http://www.w3.org/Graphics/SVG/1.1/DTD/svg11.dtd">
<svg xmlns="http://www.w3.org/2000/svg" version="1.1" width="512px" height="512px" style="shape-rendering:geometricPrecision; text-rendering:geometricPrecision; image-rendering:optimizeQuality; fill-rule:evenodd; clip-rule:evenodd" xmlns:xlink="http://www.w3.org/1999/xlink">
<g><path style="opacity:1" fill="#000000" d="M 336.5,20.5 C 341.43,20.1975 346.263,20.5308 351,21.5C 357.437,42.8117 364.271,63.9783 371.5,85C 371.333,86.1667 371.167,87.3333 371,88.5C 366.515,92.4078 361.848,96.0745 357,99.5C 363.516,173.846 370.516,248.179 378,322.5C 389.99,406.058 355.824,460.224 275.5,485C 247.55,491.828 219.55,492.161 191.5,486C 161.819,475.65 143.319,455.15 136,424.5C 132.321,408.359 130.987,392.026 132,375.5C 134.331,352.844 138.831,330.677 145.5,309C 155.322,309.663 164.822,311.83 174,315.5C 172.673,325.496 171.006,335.496 169,345.5C 167.75,359.674 168.75,373.674 172,387.5C 178.176,407.516 191.676,419.016 212.5,422C 246.425,426.053 278.759,420.719 309.5,406C 321.34,399.16 332.34,391.16 342.5,382C 321.941,280.035 304.275,177.535 289.5,74.5C 292.355,45.3141 308.021,27.3141 336.5,20.5 Z M 337.5,29.5 C 339.833,29.5 342.167,29.5 344.5,29.5C 349.256,47.6022 354.923,65.4355 361.5,83C 357.564,87.4011 353.064,91.2344 348,94.5C 347.833,96.5 347.667,98.5 347.5,100.5C 354.517,174.849 361.683,249.182 369,323.5C 380.36,401.649 348.527,452.482 273.5,476C 250.23,481.786 226.73,482.953 203,479.5C 168.41,470.904 148.41,448.904 143,413.5C 140.256,397.878 139.923,382.211 142,366.5C 144.246,350.187 147.746,334.187 152.5,318.5C 156.618,319.528 160.618,320.862 164.5,322.5C 157.693,346.887 157.859,371.221 165,395.5C 171.752,412.586 183.919,423.753 201.5,429C 235.642,435.117 268.976,432.117 301.5,420C 320.166,411.994 336.666,400.828 351,386.5C 351.331,382.473 350.998,378.473 350,374.5C 330.348,274.924 313.182,174.924 298.5,74.5C 301.525,50.7443 314.525,35.7443 337.5,29.5 Z"/></g>
</svg>
