<?xml version="1.0" encoding="UTF-8"?>
<svg version="1.1" xmlns="http://www.w3.org/2000/svg" width="512" height="512">
<path d="M0 0 C0.95245605 0.24717773 1.90491211 0.49435547 2.88623047 0.74902344 C17.14393142 4.55753996 31.05494047 9.36281749 44.98995972 14.19082642 C62.95700271 20.46705522 62.95700271 20.46705522 81.25 25.6875 C82.06041748 25.89455566 82.87083496 26.10161133 83.70581055 26.31494141 C86.45966789 26.96164088 89.21697676 27.49179576 92 28 C92.66344421 28.12795959 93.32688843 28.25591919 94.01043701 28.38775635 C110.68031317 31.51817038 127.22914345 31.25728194 144.125 31 C148.23276722 30.93850648 152.34036097 30.8812167 156.44845581 30.84692383 C158.9827389 30.82439207 161.51694657 30.78830125 164.05081177 30.73706055 C165.18404877 30.72715088 166.31728577 30.71724121 167.48486328 30.70703125 C168.4807547 30.6913208 169.47664612 30.67561035 170.50271606 30.65942383 C173 31 173 31 174.85270691 32.32092285 C176 34 176 34 175.87182617 37.15820312 C174.90411226 41.42253975 173.59206166 45.38403932 172.05078125 49.46875 C171.75568161 50.26671997 171.46058197 51.06468994 171.15653992 51.88684082 C170.2150224 54.42702936 169.26371412 56.96342901 168.3125 59.5 C167.69276254 61.17165385 167.07361701 62.84352728 166.45507812 64.515625 C163.5917496 72.23324861 160.67824231 79.93215133 157.66796875 87.59375 C157.20028076 88.78677734 156.73259277 89.97980469 156.25073242 91.20898438 C155 94 155 94 153 96 C145.9098792 97.13673498 138.8809048 97.11917371 131.71484375 97.10546875 C129.30142346 97.11894368 126.88801143 97.1339702 124.47460938 97.15039062 C120.73009552 97.17299626 116.98651449 97.18766514 113.24194336 97.17504883 C90.69662298 97.11949259 70.6226248 100.64012189 49.75 109.25 C48.58307617 109.72107178 47.41615234 110.19214355 46.21386719 110.67749023 C8.33949494 126.21242867 -31.22196191 150.44480892 -49.875 188.4375 C-56.80849047 205.09268173 -58.80145517 222.59199045 -51.93359375 239.6484375 C-43.64981226 257.41892584 -27.59280792 268.24852816 -9.62646484 274.87548828 C10.69126755 281.87673271 31.55058018 284.48598068 53 284 C54.1125415 283.98114746 54.1125415 283.98114746 55.24755859 283.96191406 C89.616818 283.29109402 125.55555206 278.71940934 158.85571289 270.02929688 C162.89364752 269.01968009 166.06351894 268.48124419 170 270 C171.45988571 272.59223297 172.36457281 274.65257735 173.25 277.4375 C173.6200415 278.52369629 173.6200415 278.52369629 173.99755859 279.63183594 C174.70032962 281.74532682 175.35864736 283.86716574 176 286 C176.31710937 287.03769531 176.63421875 288.07539063 176.9609375 289.14453125 C178.17142542 293.89391622 178.17142542 293.89391622 178 296 C175.20319303 299.23392328 172.2528482 301.1711362 168.50390625 303.1796875 C167.40296631 303.77168945 166.30202637 304.36369141 165.16772461 304.97363281 C163.96640471 305.60822071 162.76465064 306.24198726 161.5625 306.875 C160.94730499 307.20125366 160.33210999 307.52750732 159.69827271 307.86364746 C133.4974713 321.74860288 106.7627462 334.49268051 78.625 344 C77.83609375 344.26675537 77.0471875 344.53351074 76.234375 344.80834961 C64.40864583 348.65196045 53.39752027 350.50948861 40.9375 350.375 C39.9241156 350.36851944 39.9241156 350.36851944 38.89025879 350.36190796 C27.39718704 350.27612109 16.24768129 349.45504117 5 347 C4.20207031 346.82839355 3.40414062 346.65678711 2.58203125 346.47998047 C-8.89977025 343.92669432 -19.43712741 340.14867888 -30 335 C-30.98355469 334.52820313 -31.96710938 334.05640625 -32.98046875 333.5703125 C-57.39347225 321.09960075 -76.19452597 298.55571978 -84.79345703 272.60546875 C-89.416406 257.33969389 -91.44227636 242.17828193 -91.4375 226.25 C-91.43910126 225.10763885 -91.43910126 225.10763885 -91.44073486 223.94219971 C-91.36588062 186.70075619 -77.72597196 150.95109874 -53 123 C-52.14664063 122.02546875 -51.29328125 121.0509375 -50.4140625 120.046875 C-35.6186202 103.38693372 -15.32595967 83.70104099 6 76 C6 75.34 6 74.68 6 74 C5.40316406 73.84144531 4.80632812 73.68289062 4.19140625 73.51953125 C-0.23468651 72.32915563 -4.64718577 71.1211114 -9.0234375 69.7578125 C-34.23869209 61.94140309 -54.70171836 62.72683967 -78.25 74.95703125 C-82.273547 77.10366658 -86.12215348 79.49205878 -89.88671875 82.06640625 C-92.70714261 83.31239757 -94.12187912 83.0275682 -97 82 C-106.29714855 73.64150587 -109.33855184 60.06966756 -110.3125 48.1875 C-109.82467398 34.18402356 -104.9354735 21.71805875 -94.66015625 12.12890625 C-68.97856073 -8.42391248 -30.49038463 -7.94071633 0 0 Z M-92.375 23.4375 C-99.4786228 32.46752898 -101.8375535 42.45176206 -100.61328125 53.82421875 C-99.52296805 59.47023553 -97.63913869 64.88952912 -95 70 C-94.01 70.66 -93.02 71.32 -92 72 C-91.38181396 71.65743164 -90.76362793 71.31486328 -90.12670898 70.96191406 C-64.29793234 56.76148039 -40.63457974 50.97752979 -11.375 59.296875 C15.26744186 67.51162791 15.26744186 67.51162791 22 72 C22.1875 74.625 22.1875 74.625 22 77 C20.89785156 77.58265625 19.79570312 78.1653125 18.66015625 78.765625 C3.30966595 87.0097543 -10.80029598 96.59930477 -24 108 C-25.20462891 109.03833984 -25.20462891 109.03833984 -26.43359375 110.09765625 C-28.99700779 112.35756207 -31.50610007 114.66357099 -34 117 C-34.50289551 117.46889648 -35.00579102 117.93779297 -35.52392578 118.42089844 C-61.30160637 142.6536435 -80.43802626 177.48018001 -82.16113281 213.35473633 C-82.58059237 248.08940159 -78.30853934 280.93149754 -53 307 C-45.75890435 314.38844353 -38.02641251 319.97084357 -29 325 C-28.02160156 325.54527344 -27.04320312 326.09054687 -26.03515625 326.65234375 C-2.13683048 339.25911157 32.35491885 346.32419396 59 340 C60.25554687 339.71511719 61.51109375 339.43023437 62.8046875 339.13671875 C99.50596897 330.16951177 135.10035156 311.14219296 168 293 C166.02 286.07 166.02 286.07 164 279 C162.41058594 279.30292969 160.82117188 279.60585938 159.18359375 279.91796875 C124.33309749 286.50434899 89.52693785 292.10922847 54 293 C53.29842773 293.02191406 52.59685547 293.04382813 51.87402344 293.06640625 C17.11493017 294.08127029 -18.69229537 287.19985501 -45.8125 264.3125 C-57.38102902 253.30704097 -64.52328047 238.88088277 -65.23828125 222.8203125 C-65.92135723 193.95573716 -53.24862405 170.91999602 -33.59960938 150.26293945 C-20.81409597 137.17105767 -5.84412281 127.02182993 10 118 C10.73911621 117.5762207 11.47823242 117.15244141 12.23974609 116.71582031 C28.6735677 107.39771096 46.21358038 100.32814061 64.1875 94.5625 C65.22583984 94.22847168 65.22583984 94.22847168 66.28515625 93.88769531 C68.51175424 93.20606225 70.74927731 92.59719475 73 92 C73.94182129 91.72929687 74.88364258 91.45859375 75.85400391 91.1796875 C87.17754752 88.28900311 98.39337155 88.69902973 110 88.875 C114.02078174 88.92184281 118.04157779 88.95971516 122.0625 88.9921875 C123.49432617 89.00520905 123.49432617 89.00520905 124.95507812 89.01849365 C132.3484807 89.05987223 139.63812227 88.72885141 147 88 C150.72809941 80.00857898 153.79189749 71.79451647 156.85595703 63.53222656 C157.75636371 61.10786561 158.66508503 58.68672479 159.57421875 56.265625 C160.14894262 54.72154208 160.72317923 53.1772777 161.296875 51.6328125 C161.56868591 50.91094757 161.84049683 50.18908264 162.12054443 49.44534302 C163.20954045 46.48928768 164 44.17736985 164 41 C162.31596069 41.00785522 162.31596069 41.00785522 160.59790039 41.01586914 C156.34660674 41.03426406 152.09531643 41.0455551 147.84399414 41.05493164 C146.02009485 41.05989441 144.1961994 41.0666668 142.37231445 41.07543945 C101.89270476 41.26496117 66.78434366 31.96621655 28.81365967 18.63659668 C18.84850319 15.13881502 8.92693737 11.85903666 -1.3125 9.25 C-2.47736938 8.95138062 -2.47736938 8.95138062 -3.66577148 8.64672852 C-15.2332331 5.81474932 -26.53684969 4.65583249 -38.4375 4.6875 C-39.64470703 4.67138672 -40.85191406 4.65527344 -42.09570312 4.63867188 C-60.37419551 4.62889205 -79.64864589 9.47032637 -92.375 23.4375 Z " fill="#000000" transform="translate(222,83)"/>
<path d="M0 0 C2.81640625 -0.46875 2.81640625 -0.46875 6 0 C8.52734375 1.90625 8.52734375 1.90625 10.9375 4.5 C11.80632812 5.42039063 12.67515625 6.34078125 13.5703125 7.2890625 C15.51667374 9.460726 17.42654998 11.65126789 19.3125 13.875 C22.45894237 17.55955128 25.92922411 20.79914191 29.5 24.0625 C30.065979 24.57989746 30.63195801 25.09729492 31.21508789 25.63037109 C32.31310739 26.63287586 33.41132608 27.63516252 34.50976562 28.63720703 C36.44294412 30.40506456 38.36088889 32.18504821 40.25 34 C40.77078125 34.495 41.2915625 34.99 41.828125 35.5 C43.37380453 37.4784698 43.91453125 38.45842917 44 41 C42.74253609 43.30278843 41.49732093 45.22865622 39.9375 47.3125 C39.4943042 47.91916504 39.0511084 48.52583008 38.59448242 49.15087891 C33.42576468 56.04426693 27.47762881 62.20077686 21.51367188 68.40087891 C19.62515319 70.39600752 17.83625993 72.46514873 16.0625 74.5625 C13.93110276 77.010654 11.74326387 79.34067462 9.375 81.5625 C8.58222656 82.30693359 8.58222656 82.30693359 7.7734375 83.06640625 C6 84 6 84 3.66796875 83.95703125 C0.14494495 82.69328186 -2.31078105 80.57745597 -5.0625 78.125 C-5.91448975 77.3829834 -5.91448975 77.3829834 -6.78369141 76.62597656 C-8.53258854 75.09502414 -10.26758366 73.54955847 -12 72 C-12.98613281 71.12601562 -13.97226562 70.25203125 -14.98828125 69.3515625 C-17.45921921 67.12470907 -19.90030245 64.87205814 -22.31689453 62.58642578 C-23.53837578 61.43510795 -24.76685362 60.29119879 -25.99951172 59.15185547 C-28.12234707 57.18243101 -30.21911652 55.18816038 -32.3125 53.1875 C-32.98974121 52.56520508 -33.66698242 51.94291016 -34.36474609 51.30175781 C-34.9830127 50.70073242 -35.6012793 50.09970703 -36.23828125 49.48046875 C-36.79555908 48.95348389 -37.35283691 48.42649902 -37.92700195 47.88354492 C-39 46 -39 46 -39.05981445 43.19799805 C-37.60537654 38.80922076 -35.10571162 36.49524118 -31.8046875 33.3515625 C-31.17901886 32.73534027 -30.55335022 32.11911804 -29.90872192 31.48422241 C-27.90897707 29.51897896 -25.89291311 27.57156788 -23.875 25.625 C-21.24286354 23.05930581 -18.61708337 20.48716162 -15.9921875 17.9140625 C-15.36584412 17.30185852 -14.73950073 16.68965454 -14.09417725 16.05889893 C-8.97248961 11.03090384 -3.99252575 5.98878863 0 0 Z M3 11 C1.28405273 12.81213962 -0.39423903 14.64458922 -2.0625 16.5 C-7.72653981 22.74924777 -13.65349011 28.69379797 -19.74243164 34.52929688 C-24.42140085 39.07035618 -24.42140085 39.07035618 -27 45 C-15.09016397 57.22051957 -15.09016397 57.22051957 -2.13671875 68.30078125 C-0.2834627 69.7745772 1.37077197 71.28641065 3 73 C6.57101809 71.51407301 8.54542756 69.53257153 11.0625 66.625 C13.61231216 63.70912569 16.16207138 60.80550808 18.8203125 57.98828125 C24.13967118 52.33974091 28.99714417 46.68831608 33 40 C29.09693984 36.00351553 25.17249602 32.08407192 20.9375 28.4375 C15.18083056 23.46941542 9.99242024 18.15922783 5.1640625 12.28515625 C4.77992188 11.86105469 4.39578125 11.43695313 4 11 C3.67 11 3.34 11 3 11 Z " fill="#000000" transform="translate(270,242)"/>
</svg>
