<?xml version="1.0" standalone="no"?>
<!DOCTYPE svg PUBLIC "-//W3C//DTD SVG 20010904//EN"
 "http://www.w3.org/TR/2001/REC-SVG-20010904/DTD/svg10.dtd">
<svg version="1.0" xmlns="http://www.w3.org/2000/svg"
 width="1500.000000pt" height="1200.000000pt" viewBox="0 0 1500.000000 1200.000000"
 preserveAspectRatio="xMidYMid meet">
<metadata>
Created by potrace 1.16, written by Peter Selinger 2001-2019
</metadata>
<g transform="translate(0.000000,1200.000000) scale(0.100000,-0.100000)"
fill="#000000" stroke="none">
<path d="M7896 11269 c-86 -13 -176 -58 -234 -119 -48 -50 -52 -52 -188 -91
-76 -21 -184 -51 -239 -65 -55 -14 -114 -32 -132 -40 -17 -8 -39 -14 -48 -14
-19 0 -1032 -272 -1120 -301 -61 -21 -226 -64 -605 -162 -118 -30 -263 -69
-322 -87 l-107 -32 -66 27 c-91 36 -166 48 -265 42 -98 -6 -127 -16 -212 -78
-91 -65 -129 -107 -166 -182 -85 -173 -82 -353 9 -612 108 -308 219 -639 215
-642 -6 -7 -650 -67 -830 -78 -149 -9 -181 -27 -356 -199 l-105 -104 -80 -6
c-176 -15 -208 -42 -298 -251 -19 -44 -47 -106 -61 -137 l-26 -58 39 -20 40
-20 -21 -72 c-11 -40 -64 -208 -118 -373 -54 -165 -128 -399 -165 -520 -108
-356 -83 -309 -210 -382 -60 -34 -132 -75 -160 -89 -494 -261 -841 -496 -936
-632 -55 -79 -61 -127 -65 -537 -2 -198 -4 -363 -4 -366 0 -4 -71 -46 -157
-94 -221 -123 -288 -168 -318 -213 -50 -76 -56 -120 -55 -459 0 -182 4 -323
10 -339 13 -34 6 -44 -32 -44 -21 0 -40 -10 -63 -33 -53 -53 -58 -99 -51 -484
5 -366 6 -370 68 -416 31 -23 49 -25 549 -53 l296 -17 17 -191 c28 -302 65
-441 178 -666 154 -309 390 -545 655 -658 150 -64 236 -77 719 -107 272 -18
346 -14 494 26 334 90 657 386 859 786 99 197 147 341 206 611 3 12 12 22 19
22 10 0 15 -25 20 -97 26 -379 93 -642 232 -913 128 -250 320 -468 522 -589
130 -78 209 -98 527 -137 154 -19 350 -44 435 -56 211 -29 407 -29 512 0 103
28 212 80 317 149 99 66 264 221 321 302 56 80 177 280 195 324 l15 37 58 -5
c129 -12 581 -35 676 -35 384 1 696 226 964 694 48 83 135 327 174 486 11 46
17 56 37 58 34 5 51 -22 51 -77 0 -90 75 -353 145 -512 104 -238 285 -468 463
-588 34 -23 105 -63 157 -88 113 -54 130 -57 540 -75 419 -19 617 -17 685 6
177 61 348 188 470 350 l42 56 85 -80 c91 -87 198 -147 308 -175 74 -19 492
-38 845 -39 l255 -1 80 32 c172 70 355 216 466 373 433 611 475 1612 95 2254
-126 213 -276 357 -454 438 -108 49 -147 55 -597 84 l-110 7 90 18 c225 45
689 134 885 170 118 21 279 51 358 65 78 14 142 28 142 31 0 2 23 194 50 426
28 232 64 543 81 692 16 148 32 279 35 290 3 11 -65 275 -150 585 -85 311
-164 601 -176 645 -12 44 -73 253 -135 465 -62 212 -132 455 -155 540 -23 85
-68 238 -100 340 -33 102 -63 203 -68 225 -24 103 -136 501 -143 509 -4 5 -90
28 -190 53 l-183 44 -188 -71 c-110 -41 -198 -68 -211 -65 -23 5 -503 123
-1442 354 -291 72 -640 158 -775 190 -135 33 -472 114 -750 181 -278 67 -721
175 -985 240 -264 65 -510 123 -548 131 l-67 13 -58 85 c-69 101 -118 142
-204 169 -82 26 -130 31 -202 21z m156 -225 c60 -31 104 -126 162 -343 84
-316 204 -730 403 -1391 118 -393 311 -1037 429 -1430 327 -1085 545 -1785
566 -1812 11 -14 77 -21 423 -47 441 -34 1858 -142 3173 -242 447 -34 815 -59
819 -56 3 4 34 170 68 369 35 200 72 411 83 470 22 114 19 155 -22 252 -47
114 -657 2222 -767 2650 -32 126 -63 232 -70 236 -6 4 -45 16 -87 25 l-76 18
54 19 c91 31 154 33 246 8 l81 -21 15 -52 c234 -827 810 -2836 840 -2930 32
-101 39 -137 35 -175 -3 -26 -17 -139 -32 -252 -15 -113 -46 -375 -70 -583
-23 -208 -45 -380 -48 -383 -2 -3 -483 20 -1068 51 -585 31 -1698 89 -2474
130 l-1410 74 -25 -23 c-51 -46 -335 -300 -339 -303 -2 -2 -2 -5 0 -7 3 -3
281 -10 619 -16 1249 -22 2674 -51 2990 -60 234 -8 381 -7 525 1 110 6 211 9
225 7 44 -6 -288 -48 -475 -59 -128 -7 -351 -7 -775 0 -327 6 -876 15 -1220
21 -344 5 -749 12 -900 15 -151 2 -470 8 -708 11 l-434 7 -206 -209 -207 -209
180 -3 c99 -1 446 -6 770 -10 l590 -7 0 -35 0 -35 -862 -3 c-475 -1 -863 1
-863 6 0 4 84 90 186 192 102 102 217 219 255 261 l69 77 -190 568 c-284 846
-411 1244 -408 1268 3 16 7 12 17 -19 8 -22 110 -301 228 -620 118 -319 262
-708 320 -865 57 -156 108 -290 111 -297 8 -13 460 384 476 418 6 12 3 30 -8
53 -20 42 -63 178 -181 566 -103 340 -568 1830 -737 2365 -67 209 -129 407
-138 440 -10 33 -25 78 -34 100 -9 22 -66 209 -126 415 -109 369 -179 597
-246 796 -45 136 -78 287 -78 355 0 83 73 215 139 252 52 28 133 29 187 1z
m-522 -271 c0 -38 -4 -73 -8 -80 -8 -13 -202 -65 -837 -223 -242 -61 -665
-169 -940 -240 -449 -117 -760 -194 -929 -232 -33 -7 -64 -20 -69 -29 -14 -22
-1 -66 23 -79 10 -5 243 -48 517 -95 541 -92 944 -164 1258 -225 110 -21 227
-41 260 -45 l60 -7 103 -272 c56 -149 102 -275 102 -279 0 -5 -24 -7 -52 -5
-52 3 -53 4 -74 48 -12 25 -52 125 -90 222 l-69 176 -90 17 c-49 9 -175 34
-280 56 -432 91 -728 152 -855 174 -74 13 -227 43 -340 68 -113 24 -256 54
-318 66 -150 28 -187 48 -218 114 -13 29 -24 62 -24 75 0 33 24 84 51 108 29
26 202 76 714 208 204 53 746 196 1205 320 459 123 850 224 868 225 l32 1 0
-67z m1527 -154 c412 -99 915 -220 1118 -269 204 -50 483 -117 620 -150 138
-34 333 -81 435 -105 102 -24 381 -92 620 -150 239 -58 651 -157 915 -221 263
-63 481 -116 482 -118 2 -2 10 -39 17 -82 8 -43 24 -117 36 -163 11 -46 20
-84 18 -86 -2 -1 -185 39 -408 90 -223 51 -648 147 -945 214 -297 68 -695 158
-885 201 -327 74 -978 222 -2095 475 -275 62 -515 116 -533 120 -35 7 -54 35
-67 95 -4 19 -26 101 -50 183 -24 81 -39 147 -34 147 5 0 345 -81 756 -181z
m-4427 -394 c0 -3 -9 -23 -20 -45 -24 -48 -50 -151 -50 -204 0 -56 47 -249 81
-331 15 -38 35 -99 43 -135 8 -36 53 -176 100 -312 73 -214 82 -248 68 -252
-33 -10 -197 -17 -208 -9 -6 4 -41 96 -77 203 -36 107 -100 294 -141 415 -101
294 -114 393 -71 516 34 96 105 139 263 158 6 0 12 -1 12 -4z m4457 -293 c9
-6 22 -210 48 -767 19 -418 42 -897 50 -1065 8 -168 15 -327 14 -355 l-1 -50
-23 71 c-44 133 -54 210 -65 514 -6 162 -24 597 -40 965 -17 369 -30 676 -30
683 0 13 28 16 47 4z m390 -77 l222 -49 5 -70 c3 -39 22 -444 41 -901 49
-1128 83 -1918 105 -2405 5 -118 10 -225 10 -237 0 -22 -4 -23 -62 -22 -117 2
-118 3 -149 99 -15 47 -88 272 -163 500 -148 456 -151 470 -161 745 -3 88 -28
588 -55 1110 -27 523 -52 1002 -55 1065 -3 63 -8 139 -11 169 l-6 54 29 -5
c15 -3 128 -27 250 -53z m817 -219 c3 -17 8 -107 11 -201 3 -93 10 -264 15
-380 6 -115 33 -734 60 -1375 63 -1492 59 -1403 66 -1488 l6 -73 -44 3 -43 3
-46 1165 c-54 1348 -66 1640 -83 2065 -7 171 -12 313 -10 316 2 3 17 4 33 1
25 -3 31 -10 35 -36z m341 -46 c116 -24 214 -46 218 -50 4 -4 21 -324 37 -711
17 -387 34 -803 39 -924 6 -121 24 -566 41 -990 17 -423 33 -785 36 -802 3
-22 11 -33 22 -34 9 0 12 -3 7 -5 -11 -4 -464 42 -470 48 -1 2 -10 176 -19
388 -9 212 -37 828 -61 1370 -86 1892 -81 1765 -67 1757 4 -3 102 -24 217 -47z
m782 -178 c16 -10 18 -31 53 -932 32 -800 48 -1186 80 -1954 13 -304 17 -493
11 -499 -10 -10 -71 0 -71 12 0 16 -33 886 -60 1601 -26 673 -38 979 -65 1643
l-5 137 22 0 c13 0 29 -4 35 -8z m338 -67 c99 -19 189 -37 201 -40 20 -4 21
-14 32 -282 7 -153 28 -631 47 -1063 76 -1716 87 -1972 82 -1976 -2 -3 -102 3
-220 13 l-216 17 -5 70 c-3 39 -13 253 -21 476 -9 223 -22 565 -30 760 -28
671 -45 1096 -60 1475 -8 209 -17 426 -21 483 -6 95 -5 102 13 102 10 0 99
-16 198 -35z m787 -300 c11 -214 46 -1005 78 -1755 16 -388 35 -817 41 -955 6
-137 12 -281 13 -320 l1 -70 -35 -3 -36 -3 -17 388 c-20 444 -48 1106 -77
1823 -11 272 -25 585 -30 695 -18 353 -19 337 23 333 l32 -3 7 -130z m365 54
c56 -12 107 -25 114 -29 8 -6 21 -202 45 -691 60 -1238 85 -1759 103 -2114 9
-192 15 -353 12 -356 -3 -3 -78 0 -166 7 -88 7 -172 13 -187 13 -34 1 -31 -33
-63 691 -55 1253 -114 2466 -121 2507 l-6 31 84 -19 c45 -10 129 -28 185 -40z
m-6094 -249 c116 -11 271 -24 342 -30 157 -12 179 -18 275 -73 41 -24 124 -72
183 -106 59 -35 107 -64 105 -66 -2 -2 -48 1 -103 6 -55 4 -302 22 -550 39
-247 17 -502 34 -566 38 l-116 8 -101 85 c-55 46 -97 87 -93 91 8 8 207 25
324 27 48 0 183 -8 300 -19z m-653 -85 c35 -35 62 -66 59 -68 -2 -2 -128 -13
-279 -25 -151 -12 -781 -62 -1400 -111 -1391 -111 -1280 -103 -1280 -92 0 5
23 30 51 55 68 61 105 70 384 95 127 11 435 39 685 61 881 78 1565 140 1585
144 11 2 45 4 75 5 l56 1 64 -65z m120 -230 c0 -44 -4 -67 -12 -70 -7 -2 -263
-22 -568 -44 -305 -23 -1036 -77 -1624 -121 -587 -44 -1086 -80 -1107 -80
l-38 0 24 51 c13 28 28 56 33 61 5 5 452 45 993 88 541 43 1079 86 1194 95
116 9 390 32 610 50 220 18 421 33 448 34 l47 1 0 -65z m406 25 c159 -11 354
-25 434 -30 80 -6 307 -21 505 -35 198 -14 363 -25 368 -25 4 0 7 -28 7 -61
l0 -61 -72 6 c-40 3 -323 20 -628 36 -305 17 -627 35 -715 40 -88 5 -170 10
-182 10 -22 0 -23 4 -23 70 0 39 4 70 9 70 4 0 138 -9 297 -20z m-430 -207
c-3 -10 -100 -380 -215 -822 -116 -442 -212 -805 -215 -808 -7 -7 -27 7 -91
64 l-57 51 20 64 c12 35 31 101 42 148 12 47 72 263 135 480 62 217 127 449
145 515 17 66 45 162 62 213 35 105 41 110 126 111 46 1 53 -1 48 -16z m-254
-53 c-1 -14 -26 -106 -56 -205 -29 -99 -118 -404 -197 -679 -123 -426 -146
-499 -165 -506 -11 -5 -241 -13 -510 -19 -269 -6 -584 -13 -700 -17 -117 -3
-214 -2 -217 3 -4 7 349 1322 358 1331 4 4 1445 120 1470 118 15 -1 19 -7 17
-26z m799 -20 c228 -16 429 -30 447 -30 l32 0 -2 -712 -3 -712 -80 -18 c-285
-64 -637 -129 -698 -128 -28 1 23 20 105 40 l87 22 3 736 c2 406 1 745 -1 754
-4 22 -30 26 -181 30 l-124 3 -17 -57 c-10 -31 -34 -130 -53 -220 -19 -89 -51
-226 -69 -303 -131 -535 -227 -936 -227 -943 0 -4 59 -30 131 -57 71 -27 132
-52 135 -57 3 -4 -5 -10 -18 -12 -13 -3 -84 -19 -159 -36 -75 -16 -141 -30
-147 -30 -6 0 -20 15 -31 34 -26 41 -22 65 54 351 29 110 79 299 110 420 73
285 223 869 236 918 8 29 15 37 33 37 13 0 210 -13 437 -30z m1097 -36 l82 -6
0 -1806 0 -1805 -151 6 c-149 5 -179 13 -179 43 0 10 16 14 64 14 48 0 70 5
87 19 l24 19 3 792 c2 772 3 793 22 820 27 38 27 118 0 152 -19 25 -19 47 -22
823 l-3 797 -28 24 c-27 23 -33 24 -196 24 -93 0 -183 3 -200 6 -29 6 -31 9
-31 52 l0 45 223 -7 c122 -4 259 -9 305 -12z m-3482 -76 c-5 -27 -290 -1063
-342 -1245 -15 -50 -17 -53 -49 -53 -19 0 -36 4 -39 8 -2 4 34 147 80 317 47
171 116 430 154 576 77 295 113 408 132 420 7 5 26 9 42 9 27 0 28 -2 22 -32z
m-159 9 c-3 -7 -87 -303 -187 -658 -100 -354 -185 -648 -189 -652 -8 -8 -988
-73 -1181 -79 -100 -3 -105 -2 -108 18 -2 12 53 192 122 400 69 209 148 452
175 542 50 159 102 302 121 332 7 12 117 24 552 61 597 51 703 57 695 36z
m9338 -49 c10 -24 19 -72 21 -108 8 -119 88 -1695 101 -1971 5 -125 5 -136
-12 -143 -10 -4 -22 -3 -25 1 -4 4 -17 215 -29 468 -48 1012 -81 1702 -83
1748 -2 26 0 47 3 47 4 0 15 -19 24 -42z m-5855 -734 l0 -686 -22 5 c-50 12
-275 57 -310 62 l-38 6 0 119 0 120 134 0 c112 0 136 3 147 17 11 13 15 102
17 462 1 280 -1 452 -7 461 -8 12 -39 16 -151 18 l-140 4 0 49 0 49 185 0 185
0 0 -686z m-1140 16 l0 -609 -42 -11 c-24 -6 -66 -18 -95 -27 -60 -18 -68 -17
-223 30 -77 23 -115 39 -114 48 1 8 24 102 52 209 27 107 92 366 142 575 51
209 94 383 97 388 2 4 44 7 94 7 l89 0 0 -610z m7350 -883 l0 -658 -57 6 c-32
4 -61 10 -65 14 -6 5 -100 1878 -97 1931 0 8 50 -131 110 -310 l108 -325 1
-658z m-8404 234 c47 -22 48 -23 29 -38 -36 -28 -173 -87 -675 -293 -272 -111
-596 -245 -720 -298 -124 -52 -250 -105 -280 -118 -54 -22 -64 -23 -555 -29
-663 -8 -1168 -21 -1455 -39 -129 -8 -300 -18 -380 -21 l-145 -7 90 68 c176
132 427 287 725 449 69 38 171 95 228 128 228 132 304 140 1517 172 303 8 590
15 639 15 l89 0 -124 -61 c-68 -33 -172 -88 -231 -120 -171 -96 -170 -116 4
-51 139 53 556 184 702 223 197 51 450 60 542 20z m168 -112 c52 -46 109 -124
104 -141 -2 -5 -44 -27 -93 -48 -583 -245 -827 -349 -1034 -440 -135 -59 -286
-125 -335 -146 -100 -42 -142 -79 -184 -157 l-27 -52 -3 -405 -3 -405 -74 -74
c-122 -122 -121 -119 -149 -462 -14 -162 -28 -342 -32 -401 -4 -58 -10 -112
-14 -118 -6 -9 -251 -8 -1061 4 -1002 15 -1501 25 -1506 30 -3 3 -21 650 -34
1265 -11 524 -7 719 15 726 34 12 817 46 1236 55 997 20 1207 23 1254 16 l49
-8 -6 -66 c-4 -37 -14 -130 -22 -207 -8 -77 -42 -407 -75 -734 l-60 -594 -42
-81 c-53 -100 -91 -144 -146 -168 -42 -19 -67 -19 -895 -8 -469 6 -886 13
-927 16 -71 6 -77 8 -112 45 -54 57 -66 110 -78 359 -29 618 -37 1064 -18
1104 19 43 80 63 248 85 499 64 1112 74 1600 26 239 -24 297 -41 325 -95 20
-38 19 -65 -5 -240 -11 -80 -40 -312 -64 -516 -39 -329 -62 -457 -73 -403 -5
23 73 712 97 859 22 138 26 241 9 272 -6 11 -26 26 -44 34 -118 49 -1004 90
-1395 65 -232 -15 -559 -56 -608 -76 -20 -9 -40 -21 -44 -28 -4 -7 -5 -64 -2
-127 2 -63 11 -293 19 -510 9 -217 18 -439 22 -492 l6 -98 203 0 204 0 -1 28
c0 15 -12 298 -27 630 -15 331 -24 602 -20 602 4 0 27 -14 51 -30 l43 -31 17
-596 c10 -327 19 -599 22 -602 2 -4 95 -6 207 -4 112 1 209 3 216 3 9 0 12
131 13 618 1 339 4 629 8 644 l6 27 43 -35 42 -36 0 -609 0 -609 219 0 218 0
7 113 c4 61 20 297 36 522 16 226 32 463 36 528 4 65 10 119 13 121 3 2 21 -9
40 -24 l34 -29 -47 -603 c-26 -332 -46 -609 -46 -615 0 -16 394 -19 434 -3 33
12 72 73 85 132 6 26 15 109 21 185 5 76 26 280 45 453 56 497 56 493 8 550
-66 79 -206 108 -638 130 -504 26 -948 8 -1340 -56 -228 -37 -276 -58 -315
-135 -16 -31 -20 -58 -20 -151 0 -125 37 -1152 44 -1210 6 -52 51 -147 89
-187 66 -69 30 -66 877 -86 914 -22 1077 -23 1123 -2 129 57 256 245 278 413
5 43 41 392 80 774 58 579 73 698 87 712 50 48 844 446 1407 703 99 45 207 96
240 113 33 17 67 31 76 32 9 0 37 -18 63 -41z m1916 -2 l105 -22 3 -58 c3 -66
-9 -92 -38 -77 -9 5 -23 23 -30 40 -10 24 -18 30 -44 30 -40 0 -49 -7 -71 -50
-23 -46 -30 -50 -95 -50 -101 0 -151 -45 -136 -122 15 -81 93 -114 256 -106
80 4 103 9 125 26 15 12 31 19 36 16 11 -6 6 -1475 -5 -1492 -4 -8 -33 -12
-79 -12 l-72 0 -57 73 c-122 155 -282 289 -443 369 -98 50 -136 64 -245 92
l-85 22 -3 647 c-2 514 0 647 10 648 7 0 128 11 268 23 330 30 463 31 600 3z
m-975 -289 c8 -261 3 -993 -8 -1004 -4 -4 -95 1 -202 11 -183 17 -370 17 -470
-1 l-30 -5 3 523 3 523 28 29 c27 27 45 31 322 81 162 29 306 54 320 54 l27 1
7 -212z m-814 -45 c2 -38 2 -270 -1 -517 l-5 -450 -785 -221 c-432 -122 -788
-219 -792 -216 -12 10 -11 643 1 687 29 107 117 172 378 280 88 36 873 371
1073 457 58 25 110 46 116 46 7 1 13 -24 15 -66z m-2895 -1400 c-21 -326 -36
-487 -44 -495 -16 -16 -16 32 3 242 8 91 19 242 25 335 17 261 34 415 45 403
2 -2 -11 -220 -29 -485z m-1117 112 c16 -486 15 -624 -3 -605 -11 12 -15 104
-21 495 -8 569 6 638 24 110z m557 -136 c-3 -254 -9 -466 -12 -471 -20 -32
-22 47 -9 397 8 215 15 423 15 463 0 39 3 72 7 72 3 0 3 -208 -1 -461z m3703
348 c-2 -2 -42 -20 -89 -41 -137 -61 -239 -119 -418 -237 -92 -61 -198 -125
-237 -144 -147 -69 -133 -68 -650 -75 -258 -3 -472 -5 -474 -3 -2 1 -1 8 2 16
6 16 118 59 312 121 620 196 756 238 875 264 168 39 325 66 500 87 74 9 144
17 155 18 20 3 32 0 24 -6z m617 -22 c164 -26 286 -75 444 -176 400 -257 645
-721 770 -1455 18 -107 92 -795 86 -801 -1 -1 -28 -5 -59 -9 l-57 -7 0 70 c0
93 -17 313 -35 448 -82 605 -295 1117 -590 1410 -117 118 -208 181 -337 235
-132 55 -228 73 -378 72 -259 -1 -470 -90 -677 -286 -175 -165 -321 -387 -417
-636 -103 -264 -106 -269 -145 -279 -44 -11 -294 -40 -300 -35 -2 2 6 43 19
91 105 401 265 687 519 926 349 327 789 492 1157 432z m5853 -577 c-125 -123
-252 -287 -329 -426 -13 -23 -27 -39 -31 -35 -3 5 -16 34 -28 66 l-21 58 20
45 c43 99 197 292 266 334 35 22 99 37 168 39 l39 1 -84 -82z m342 72 c16 0
29 -3 29 -7 -1 -5 -26 -26 -57 -48 -196 -141 -416 -463 -529 -775 -20 -58 -40
-108 -44 -113 -3 -4 -17 38 -30 94 l-24 101 34 102 c60 178 169 369 295 518
92 109 156 142 254 132 24 -2 57 -4 72 -4z m-2111 -14 c0 -2 -31 -29 -70 -61
-302 -247 -548 -753 -601 -1236 -20 -179 -1 -534 36 -697 6 -22 4 -23 -72 -20
l-78 3 -12 65 c-63 340 -59 666 11 955 82 333 253 652 462 859 74 73 142 111
224 125 63 10 100 13 100 7z m326 -2 l51 -6 -77 -39 c-213 -107 -466 -453
-580 -796 -76 -228 -104 -429 -104 -728 1 -195 7 -285 30 -417 l7 -38 -71 0
-71 0 -11 56 c-45 214 -62 514 -41 717 42 402 195 788 423 1063 61 74 130 137
189 173 27 17 50 21 119 21 47 0 108 -3 136 -6z m1219 -26 c-22 -17 -92 -84
-155 -148 l-116 -118 -27 38 c-15 21 -27 41 -27 45 0 4 25 39 57 77 65 80 108
105 208 123 101 19 104 18 60 -17z m-1799 9 c-148 -94 -326 -289 -454 -499
-179 -293 -266 -626 -265 -1023 0 -168 19 -394 39 -457 5 -16 -2 -18 -45 -18
l-50 0 -15 53 c-41 144 -50 229 -51 462 0 293 22 446 91 646 154 446 394 751
657 834 23 7 58 13 77 13 31 1 33 -1 16 -11z m2573 -6 c22 -6 16 -12 -68 -80
-237 -189 -389 -451 -480 -823 -83 -342 -82 -707 3 -1050 79 -320 223 -572
418 -735 43 -36 77 -67 75 -70 -9 -8 -132 39 -173 67 -84 59 -180 186 -250
334 -150 317 -222 804 -180 1212 49 471 183 803 428 1060 l90 94 57 -1 c31 -1
67 -4 80 -8z m-1537 -21 c222 -68 450 -347 571 -696 74 -212 103 -419 94 -674
-12 -352 -93 -649 -259 -955 -194 -358 -454 -531 -727 -485 -106 18 -195 67
-297 162 -214 203 -353 518 -405 913 -15 116 -15 426 0 535 80 579 376 1066
726 1197 80 30 207 31 297 3z m2068 -22 c289 -140 516 -554 560 -1023 13 -141
13 -384 0 -516 -57 -564 -313 -986 -670 -1105 -69 -23 -185 -23 -266 1 -204
59 -406 293 -512 596 -115 328 -146 785 -76 1127 76 369 271 715 483 856 117
78 208 106 326 102 68 -2 91 -7 155 -38z m-12497 -190 c4 -116 7 -262 7 -325
l0 -113 -181 0 c-104 0 -188 4 -200 10 -39 21 -49 62 -47 192 l1 123 7 -106
c8 -143 15 -154 113 -163 41 -4 118 -4 171 0 l96 7 0 258 c0 143 0 262 0 267
0 4 -81 8 -180 10 -138 2 -180 5 -180 15 0 33 23 37 205 37 l182 0 6 -212z
m3727 -127 c0 -175 -3 -333 -6 -350 l-6 -31 -440 0 -439 0 6 33 c8 51 35 325
45 467 5 71 16 145 24 164 l15 36 400 0 401 0 0 -319z m3415 173 c108 -71 209
-202 241 -311 l15 -53 155 0 154 0 0 -65 0 -65 -77 0 c-43 0 -115 -3 -160 -7
-82 -6 -82 -6 -88 -37 -8 -40 -56 -136 -67 -136 -5 0 -7 8 -4 18 33 111 32
292 -4 383 -29 75 -107 177 -190 246 -38 32 -69 61 -69 65 -2 13 45 -6 94 -38z
m-7307 6 l72 0 0 -175 0 -175 -125 0 -125 0 0 181 0 182 53 -7 c28 -3 85 -6
125 -6z m7832 -67 c164 -166 204 -366 110 -553 -28 -54 -75 -109 -85 -98 -3 3
10 49 30 103 29 82 35 111 35 179 0 45 -7 108 -15 140 -22 82 -80 189 -138
252 -78 86 -27 67 63 -23z m494 12 c142 -142 168 -398 56 -559 -52 -77 -76
-76 -37 1 95 187 68 412 -69 572 -19 21 -34 42 -34 45 0 13 39 -15 84 -59z
m-3034 -79 c0 -2 -26 -13 -57 -24 -84 -31 -236 -133 -321 -215 -264 -256 -433
-604 -499 -1027 -24 -159 -24 -491 0 -649 92 -588 422 -1115 825 -1317 85 -42
53 -45 -59 -4 -151 55 -258 126 -389 259 -297 302 -470 783 -470 1311 0 269
35 493 116 739 129 393 351 697 620 847 87 49 234 99 234 80z m553 -32 c254
-66 489 -274 631 -562 179 -358 241 -856 160 -1281 -80 -422 -263 -792 -513
-1041 -128 -127 -212 -183 -339 -227 -67 -24 -93 -27 -202 -27 -117 0 -130 2
-210 32 -187 71 -346 208 -489 421 -285 423 -388 1071 -256 1599 120 478 393
857 732 1019 50 24 124 52 165 63 92 24 237 26 321 4z m2497 -253 l0 -58 -46
-7 c-26 -3 -93 -6 -150 -6 l-104 0 0 65 0 65 150 0 150 0 0 -59z m-7520 -366
c510 -14 1069 -27 2255 -55 248 -6 469 -13 491 -16 l42 -5 6 -162 c14 -393 17
-585 9 -590 -4 -3 -118 4 -253 14 -135 10 -614 46 -1065 79 -1040 76 -1440
106 -1685 125 -107 8 -357 26 -555 40 -198 14 -379 28 -402 31 l-43 5 5 270
c2 148 7 274 11 281 8 12 195 10 1184 -17z m3240 -47 c0 -7 9 -137 20 -288 11
-151 23 -316 27 -366 l6 -92 -69 -6 c-38 -3 -119 -8 -180 -12 l-111 -6 -6 89
c-11 159 -31 653 -26 657 2 3 76 11 164 19 88 8 163 15 168 16 4 0 7 -5 7 -11z
m3929 -4 c72 -51 104 -172 60 -227 -28 -37 -61 -43 -334 -68 -300 -28 -340
-29 -340 -9 0 12 42 19 235 37 129 12 258 22 285 22 69 1 123 18 136 42 6 12
8 23 6 26 -3 3 -92 -5 -199 -17 -106 -11 -263 -24 -349 -27 l-156 -6 -29 34
c-53 62 -97 98 -125 104 -53 12 -30 21 84 34 61 7 213 25 337 41 271 33 356
36 389 14z m349 -403 c2 -13 0 -27 -5 -31 -13 -14 -1222 -145 -1232 -134 -5 5
-11 23 -13 39 l-3 30 120 13 c66 7 323 34 570 61 248 27 475 49 505 48 50 -2
55 -4 58 -26z m-73 -337 c-102 -458 -389 -829 -732 -944 -171 -57 -340 -37
-505 61 -82 48 -177 134 -235 213 -42 57 -43 60 -43 137 0 43 3 79 8 79 4 0
27 -31 52 -68 105 -156 258 -286 404 -343 70 -28 94 -33 176 -33 122 -1 209
25 316 95 252 164 471 513 555 884 13 54 14 56 17 26 2 -18 -4 -66 -13 -107z
m-671 51 c-52 -125 -179 -264 -299 -327 -101 -53 -174 -71 -283 -71 -130 0
-140 18 -15 26 113 6 209 35 298 87 75 44 195 163 259 258 27 39 51 70 53 68
2 -1 -4 -20 -13 -41z m-6730 -3 c2 -4 10 -79 16 -167 6 -88 18 -194 26 -235
69 -342 291 -681 637 -975 58 -49 105 -91 103 -92 -12 -13 -235 104 -314 164
-227 172 -406 487 -482 848 -27 131 -41 442 -19 456 17 11 26 11 33 1z m-263
-147 c20 -451 218 -846 594 -1184 l70 -63 -60 32 c-277 148 -501 459 -594 828
-36 143 -73 476 -57 517 3 9 14 15 23 13 16 -3 19 -21 24 -143z m529 126 c5
-11 10 -41 10 -67 0 -63 27 -242 51 -336 104 -411 374 -762 670 -872 222 -82
457 -76 656 18 316 150 567 483 698 926 20 69 41 132 46 140 35 61 -49 -284
-102 -418 -129 -328 -356 -590 -624 -722 -153 -76 -229 -93 -415 -94 -132 -1
-166 3 -233 22 -374 108 -664 461 -765 933 -35 161 -57 461 -35 482 12 13 32
7 43 -12z m571 -126 c38 -205 174 -411 319 -483 47 -23 68 -27 140 -27 75 0
93 4 154 33 125 59 265 227 327 392 23 62 36 80 55 80 23 0 16 -36 -27 -145
-65 -168 -154 -292 -265 -371 -156 -112 -341 -114 -477 -6 -104 83 -196 230
-232 371 -19 73 -36 211 -28 224 10 17 23 -9 34 -68z m2403 -36 c3 -17 6 -70
6 -118 1 -173 49 -413 125 -617 114 -304 329 -625 537 -804 41 -36 74 -67 72
-69 -7 -8 -141 62 -202 106 -245 175 -454 519 -542 896 -42 176 -64 479 -44
600 8 48 39 52 48 6z m-290 -86 c42 -535 247 -1005 595 -1365 57 -60 99 -108
93 -108 -29 0 -180 116 -278 214 -210 212 -345 462 -421 786 -19 82 -26 143
-30 281 -6 192 0 269 22 269 9 0 15 -22 19 -77z m7557 -111 c53 -164 145 -305
330 -510 61 -68 108 -126 106 -129 -13 -12 -139 62 -190 111 -141 139 -262
376 -281 549 -8 75 6 67 35 -21z m-2390 -224 c28 -57 74 -135 103 -173 57 -76
243 -269 316 -329 43 -35 44 -36 15 -30 -105 23 -247 130 -325 244 -65 96
-139 260 -164 363 -12 49 3 29 55 -75z m282 -2 c73 -153 210 -328 375 -480 29
-26 52 -50 49 -52 -2 -2 -29 5 -60 15 -122 42 -221 140 -300 297 -21 41 -107
275 -107 290 0 15 12 -6 43 -70z m282 -48 c78 -154 253 -359 399 -468 32 -24
53 -46 47 -48 -16 -5 -119 27 -179 56 -65 32 -146 116 -188 197 -45 86 -134
335 -120 335 3 0 21 -33 41 -72z m1715 -44 c24 -19 109 -99 188 -176 129 -127
141 -140 110 -134 -101 20 -215 105 -282 208 -44 70 -78 138 -69 138 5 0 28
-16 53 -36z"/>
<path d="M5785 8238 c-162 -6 -1106 -73 -1180 -83 l-41 -6 -51 -187 c-107
-387 -282 -1008 -288 -1025 -7 -16 1 -17 121 -11 71 3 375 14 676 23 302 10
550 20 552 22 9 9 377 1252 374 1263 -2 8 -50 9 -163 4z"/>
<path d="M6750 8260 c-2 -70 1 -1504 3 -1506 1 -1 92 17 202 41 110 24 220 47
245 52 l45 9 -1 677 c-1 373 -3 680 -5 681 -7 7 -489 52 -489 46z m269 -144
c73 -8 127 -19 131 -26 8 -14 17 -801 12 -1016 l-4 -131 -156 -36 c-87 -21
-161 -37 -167 -37 -7 0 -9 216 -8 632 2 348 3 634 3 636 0 2 15 0 33 -3 17 -3
88 -12 156 -19z"/>
<path d="M3910 8110 c-107 -10 -328 -28 -490 -39 -162 -12 -315 -25 -340 -29
l-45 -7 -199 -593 c-109 -326 -196 -595 -193 -599 7 -6 123 1 729 47 213 17
414 30 447 30 l60 0 12 43 c6 23 49 179 96 347 152 549 223 808 223 814 0 9
-89 5 -300 -14z"/>
<path d="M2800 6334 c-603 -18 -717 -41 -862 -176 -48 -44 -50 -49 -25 -43 74
15 249 35 407 46 196 13 1140 18 1240 6 l65 -7 -50 45 c-62 57 -130 91 -220
110 -73 15 -349 25 -555 19z"/>
<path d="M1512 4253 c-18 -13 11 -102 42 -132 l24 -23 598 -4 c330 -2 747 -8
929 -13 366 -10 356 -11 414 55 33 37 68 100 60 108 -9 9 -2054 17 -2067 9z"/>
<path d="M11346 4179 c-249 -62 -457 -361 -521 -748 -14 -83 -16 -139 -12
-280 8 -229 38 -357 123 -524 51 -100 82 -142 157 -215 78 -74 148 -108 249
-121 65 -8 81 -6 146 15 40 13 91 36 113 50 175 110 306 344 365 649 28 142
24 415 -9 565 -46 217 -116 359 -237 481 -94 95 -161 129 -264 134 -39 3 -89
0 -110 -6z m201 -115 c82 -40 173 -144 232 -266 78 -158 111 -319 111 -543 0
-274 -74 -527 -198 -680 -83 -102 -205 -168 -314 -167 -178 0 -347 190 -423
473 -54 204 -54 440 0 656 31 120 115 295 182 378 126 155 284 213 410 149z"/>
<path d="M11327 3935 c-251 -96 -397 -547 -312 -958 38 -182 131 -333 240
-389 25 -14 67 -23 113 -26 66 -4 78 -2 140 28 210 104 324 372 309 729 -16
372 -163 610 -387 626 -43 3 -78 0 -103 -10z m296 -199 c99 -41 164 -254 154
-501 -12 -286 -100 -465 -231 -465 -166 0 -262 471 -159 780 31 95 56 135 106
171 44 32 80 36 130 15z"/>
<path d="M13389 4241 c-62 -20 -151 -77 -205 -129 -194 -193 -295 -494 -281
-842 14 -345 108 -602 274 -750 74 -66 142 -93 243 -98 83 -4 87 -3 166 37
197 99 335 335 389 666 22 133 20 355 -5 475 -78 381 -268 632 -488 645 -37 3
-79 1 -93 -4z m120 -102 c157 -33 301 -215 365 -459 123 -469 -16 -977 -306
-1120 -62 -30 -74 -32 -135 -28 -46 3 -85 14 -119 31 -126 64 -246 260 -294
481 -19 88 -28 258 -18 376 21 277 133 533 280 645 56 43 134 84 160 85 9 0
40 -5 67 -11z"/>
<path d="M13420 3989 c-81 -29 -144 -84 -214 -189 -127 -192 -164 -532 -86
-787 43 -141 128 -261 214 -303 138 -66 328 36 424 229 63 126 77 202 77 431
0 222 -11 276 -87 423 -87 167 -207 239 -328 196z m286 -222 c66 -72 99 -237
91 -462 -5 -164 -19 -232 -68 -332 -69 -143 -182 -144 -254 -3 -51 100 -60
153 -60 345 0 200 11 259 66 373 60 122 155 156 225 79z"/>
<path d="M4071 4484 c-16 -111 -25 -327 -17 -416 l8 -78 281 1 c345 1 434 7
453 34 11 15 14 70 14 261 0 133 -3 249 -6 258 -5 14 -47 16 -364 16 l-358 0
-11 -76z m649 -211 l0 -196 -142 6 c-79 4 -207 7 -285 7 l-143 0 0 190 0 190
285 0 285 0 0 -197z"/>
<path d="M6562 3830 c-152 -40 -305 -151 -407 -295 -86 -122 -166 -309 -200
-470 -103 -488 65 -1036 380 -1234 218 -138 461 -108 661 82 159 150 270 369
321 627 26 135 25 467 -1 595 -97 468 -434 780 -754 695z m209 -108 c151 -42
268 -151 361 -337 131 -259 156 -639 64 -955 -109 -377 -382 -617 -647 -572
-167 29 -306 143 -403 331 -295 574 -70 1405 416 1535 73 20 132 19 209 -2z"/>
<path d="M6556 3550 c-114 -29 -229 -123 -310 -252 -181 -292 -182 -760 -1
-1032 56 -85 140 -162 215 -199 57 -28 74 -32 150 -32 76 0 92 3 153 33 178
88 315 293 369 552 16 78 19 121 15 235 -6 167 -27 259 -92 390 -75 153 -170
249 -287 291 -54 19 -161 26 -212 14z m353 -262 c149 -200 188 -499 100 -762
-33 -100 -92 -207 -139 -251 l-31 -30 -55 30 c-71 38 -153 125 -192 201 -46
92 -62 167 -62 296 0 201 54 354 164 464 61 60 125 103 158 104 10 0 35 -24
57 -52z"/>
<path d="M690 3556 l0 -74 153 -6 c188 -8 3308 -96 3395 -96 l62 0 0 69 0 69
-72 6 c-40 3 -176 8 -303 11 -126 3 -696 19 -1265 35 -569 16 -1206 34 -1415
40 -209 5 -419 12 -467 15 l-88 5 0 -74z"/>
</g>
</svg>
