<?xml version="1.0" standalone="no"?>
<!DOCTYPE svg PUBLIC "-//W3C//DTD SVG 20010904//EN"
 "http://www.w3.org/TR/2001/REC-SVG-20010904/DTD/svg10.dtd">
<svg version="1.0" xmlns="http://www.w3.org/2000/svg"
 width="1304.000000pt" height="2000.000000pt" viewBox="0 0 1304.000000 2000.000000"
 preserveAspectRatio="xMidYMid meet">
<metadata>
Created by potrace 1.16, written by Peter Selinger 2001-2019
</metadata>
<g transform="translate(0.000000,2000.000000) scale(0.100000,-0.100000)"
fill="none" stroke="#000000">
<path d="M6400 19486 c-67 -14 -173 -52 -228 -80 -17 -9 -75 -65 -129 -124
-290 -319 -537 -651 -758 -1017 -93 -153 -290 -541 -360 -705 -218 -517 -362
-1038 -440 -1589 -27 -196 -28 -217 -100 -2196 -14 -379 -29 -809 -35 -955
-11 -270 -56 -1510 -110 -2990 -16 -454 -34 -946 -40 -1095 -6 -148 -15 -405
-20 -571 l-9 -300 -32 -60 c-353 -650 -787 -1134 -1329 -1480 -149 -96 -212
-130 -585 -317 -890 -448 -1167 -659 -1424 -1081 -246 -402 -385 -893 -455
-1601 -26 -263 -26 -269 32 -284 34 -9 440 -94 1372 -285 716 -147 2206 -455
2258 -466 l52 -12 0 -255 c-1 -182 2 -259 11 -269 9 -11 62 -14 291 -14 261 0
279 -1 274 -17 -18 -62 -73 -634 -78 -816 -4 -116 -3 -117 155 -117 l120 0 -7
-47 c-3 -26 -9 -84 -12 -128 -6 -68 -4 -84 10 -98 16 -16 68 -17 666 -17 599
0 650 1 666 17 15 15 16 32 10 145 l-7 128 85 0 c125 0 120 -11 112 242 -6
186 -36 571 -52 671 -6 38 -5 38 22 35 l29 -3 7 -255 c4 -140 10 -273 13 -295
13 -93 115 -205 187 -205 66 0 142 62 182 150 17 39 21 75 27 275 4 127 8 254
8 283 l1 52 60 0 c71 0 68 18 41 -200 -19 -149 -44 -440 -55 -623 -7 -122 -2
-127 140 -127 l107 0 -7 -32 c-15 -72 -19 -214 -7 -236 l12 -22 653 0 c637 0
653 0 671 20 16 17 17 32 10 131 -4 62 -9 118 -12 126 -4 10 16 13 100 13 137
0 137 0 137 128 0 157 -33 618 -56 780 l-6 42 195 0 c156 0 197 3 206 14 9 10
12 87 11 269 l0 255 52 12 c55 12 1615 334 2258 466 913 187 1338 276 1371
284 53 14 57 32 42 194 -76 869 -249 1416 -594 1881 -219 295 -518 501 -1294
892 -401 202 -489 251 -672 376 -381 258 -717 599 -992 1007 -99 147 -178 277
-246 405 l-37 70 -9 300 c-5 165 -13 422 -19 570 -6 149 -21 576 -35 950 -14
374 -29 804 -35 955 -6 151 -21 583 -35 960 -14 377 -32 865 -40 1085 -8 220
-31 832 -50 1360 -59 1625 -64 1736 -80 1860 -126 956 -454 1838 -978 2625
-165 248 -468 638 -616 793 -63 66 -152 120 -244 149 -81 25 -241 32 -327 14z
m290 -123 c96 -26 154 -67 250 -177 589 -676 997 -1380 1258 -2176 47 -141
113 -372 109 -376 -2 -2 -84 7 -183 21 -226 30 -515 60 -809 82 -332 25 -1313
25 -1635 0 -263 -21 -619 -60 -809 -88 -73 -11 -135 -19 -137 -16 -2 2 12 59
31 128 188 661 474 1265 865 1824 137 196 236 322 417 528 117 133 168 184
202 201 139 70 301 88 441 49z m270 -2723 c406 -17 780 -49 1130 -96 279 -37
245 -22 269 -123 60 -256 107 -603 116 -841 3 -91 8 -221 10 -290 3 -69 17
-433 30 -810 27 -748 42 -1151 50 -1360 3 -74 17 -441 30 -815 14 -374 41
-1112 60 -1640 19 -528 46 -1268 60 -1645 13 -377 26 -730 29 -785 l5 -100
-20 45 c-11 25 -33 83 -49 130 -28 84 -29 90 -54 615 -55 1125 -145 2893 -151
2955 -7 79 -46 271 -81 400 -143 528 -417 1024 -813 1470 -233 262 -617 610
-729 660 -175 79 -430 83 -630 10 -152 -56 -640 -506 -898 -830 -375 -470
-614 -971 -728 -1525 -33 -156 -33 -161 -56 -630 -11 -220 -38 -755 -60 -1190
-22 -434 -51 -1017 -65 -1295 -13 -278 -26 -523 -28 -545 -4 -40 -72 -232 -88
-249 -4 -5 -6 33 -3 85 2 52 11 281 19 509 15 425 114 3130 170 4645 24 658
64 1745 75 2065 6 162 18 347 26 410 25 191 76 479 105 594 l11 43 108 17
c398 61 825 101 1295 119 186 8 645 6 855 -3z m-257 -2299 c106 -28 135 -45
282 -171 240 -205 519 -493 674 -695 30 -38 58 -75 62 -81 5 -6 -44 5 -109 23
-748 216 -1494 215 -2147 -2 -88 -29 -161 -52 -163 -50 -5 5 129 177 220 281
233 270 635 628 749 670 129 46 307 56 432 25z m259 -905 c273 -39 496 -89
744 -167 l135 -43 56 -90 c166 -266 306 -588 387 -887 72 -265 73 -274 116
-1114 22 -429 40 -784 39 -790 0 -5 -13 40 -29 100 -87 333 -250 675 -427 894
-256 317 -576 513 -983 602 -93 20 -138 23 -409 26 -274 3 -315 2 -430 -18
-754 -127 -1288 -723 -1485 -1658 -30 -141 -32 -174 -10 -195 23 -23 395 -24
414 -1 7 8 28 61 47 117 65 197 189 384 360 548 218 210 506 351 843 415 218
41 231 43 269 34 20 -4 83 -15 141 -24 380 -62 686 -211 925 -450 164 -164
272 -335 336 -535 17 -52 35 -101 41 -108 9 -10 56 -12 210 -10 109 2 198 3
199 3 3 0 36 -651 33 -654 -2 -2 -93 6 -201 17 -725 80 -1292 107 -2023 99
-617 -7 -976 -30 -1488 -93 -117 -15 -214 -25 -216 -23 -3 4 41 886 99 1999
21 410 29 503 50 602 79 378 204 704 396 1034 l59 101 77 36 c279 130 585 207
998 251 95 10 624 -3 727 -18z m-502 -1851 c0 -274 0 -275 -21 -275 -12 0 -78
-11 -146 -25 -380 -77 -679 -232 -922 -477 -152 -154 -277 -348 -347 -541
l-29 -78 -110 3 -110 3 3 30 c2 17 21 98 43 182 171 668 520 1128 1013 1334
169 70 380 116 544 118 l82 1 0 -275z m500 250 c690 -130 1171 -668 1365
-1529 14 -60 25 -110 25 -112 0 -2 -51 -4 -113 -4 l-113 0 -18 56 c-51 162
-210 416 -347 554 -262 265 -619 441 -1016 501 l-83 12 0 275 0 275 108 -6
c59 -4 145 -14 192 -22z m-60 -2340 c437 -8 925 -43 1488 -106 56 -7 102 -15
102 -18 0 -7 103 -2047 120 -2390 6 -112 10 -205 8 -206 -2 -2 -52 3 -113 10
-670 83 -1173 115 -1885 122 -825 8 -1378 -23 -2007 -113 -94 -13 -177 -24
-184 -24 -8 0 -10 27 -5 108 4 59 24 467 46 907 73 1447 80 1579 87 1586 20
19 643 85 1028 110 211 13 770 27 935 22 63 -1 234 -5 380 -8z m-2569 -1586
c-10 -30 -37 -99 -61 -154 -259 -608 -678 -1144 -1175 -1504 -167 -122 -264
-177 -675 -386 -843 -430 -1070 -607 -1310 -1026 -211 -368 -326 -796 -385
-1438 -16 -167 -16 -175 2 -192 13 -13 99 -35 313 -79 162 -34 630 -130 1040
-215 1372 -283 1774 -366 1935 -398 l160 -32 3 -58 c3 -53 1 -58 -15 -53 -18
5 -624 131 -1308 271 -198 41 -567 117 -820 169 -783 162 -1437 296 -1516 313
l-76 15 3 42 c45 495 104 821 206 1135 113 351 299 677 500 879 226 227 524
409 1328 812 426 213 696 405 1006 714 330 330 621 740 809 1139 28 58 51 104
53 103 1 -2 -6 -27 -17 -57z m4576 -351 c337 -567 782 -1032 1298 -1354 72
-45 227 -130 345 -189 1107 -555 1337 -725 1611 -1184 147 -246 265 -573 338
-936 43 -213 106 -730 92 -747 -7 -8 -117 -32 -731 -158 -217 -45 -602 -124
-855 -176 -253 -52 -622 -128 -820 -169 -684 -140 -1290 -266 -1308 -271 -16
-5 -18 0 -15 52 l3 58 160 32 c166 34 668 137 1935 399 410 85 877 181 1039
215 196 40 301 66 314 77 21 20 21 18 -14 343 -60 553 -172 946 -369 1289
-241 419 -466 596 -1310 1026 -217 110 -436 226 -485 257 -540 336 -988 846
-1284 1460 -72 147 -151 336 -151 355 0 5 35 -59 78 -142 43 -82 101 -189 129
-237z m-4582 -388 c-13 -256 -31 -717 -40 -1025 -8 -308 -24 -870 -35 -1250
-11 -379 -22 -808 -26 -952 -7 -258 -7 -263 -28 -263 -12 0 -94 12 -184 26
-98 16 -166 24 -172 18 -14 -15 -100 -507 -100 -576 0 -21 6 -29 23 -33 68
-15 378 -67 381 -64 1 2 15 90 30 194 15 105 30 192 33 195 3 3 3 -62 -1 -145
-3 -82 -9 -273 -12 -422 -4 -150 -10 -273 -14 -273 -5 0 -237 47 -516 105
-280 58 -619 128 -754 156 -268 55 -1776 366 -1958 404 -63 13 -116 25 -118
28 -7 7 23 299 46 452 73 478 182 802 376 1115 213 345 434 506 1274 933 535
271 728 405 1040 717 291 291 526 621 708 991 37 75 68 136 69 135 1 0 -9
-210 -22 -466z m4442 320 c278 -550 671 -1018 1127 -1344 159 -113 276 -181
618 -354 502 -255 719 -380 903 -520 337 -257 580 -697 699 -1267 44 -212 107
-698 92 -712 -3 -3 -78 -20 -168 -39 -90 -18 -500 -103 -913 -188 -412 -85
-970 -200 -1240 -256 -843 -174 -1020 -210 -1026 -210 -3 0 -9 125 -13 278 -3
152 -8 342 -11 422 -5 167 2 150 36 -87 13 -91 28 -163 34 -163 14 0 398 70
400 73 8 13 -92 587 -105 601 -5 5 -77 -2 -173 -18 -229 -37 -207 -44 -207 67
0 50 -5 238 -10 417 -5 179 -23 813 -40 1410 -25 916 -51 1588 -74 1954 -3 43
-4 77 -1 75 2 -2 34 -65 72 -139z m-1597 -640 c489 -23 1401 -106 1442 -131
10 -6 15 -79 21 -291 4 -156 21 -735 36 -1288 16 -553 27 -1007 25 -1010 -3
-7 -353 36 -361 43 -3 4 -20 70 -38 149 -131 567 -351 977 -621 1157 -112 75
-184 96 -330 96 l-121 0 -85 -42 c-98 -49 -174 -119 -241 -220 l-42 -64 -5
193 c-5 147 -10 202 -22 230 -41 92 -166 181 -258 182 -53 1 -139 -36 -193
-83 -20 -18 -48 -56 -62 -85 -24 -50 -26 -65 -32 -244 l-6 -190 -38 59 c-83
128 -189 213 -311 250 -58 18 -87 21 -171 17 -162 -8 -284 -67 -421 -203 -211
-210 -373 -547 -489 -1021 l-41 -171 -196 -28 c-107 -16 -212 -30 -233 -33
l-38 -4 6 98 c3 55 19 626 36 1269 16 644 32 1184 35 1201 l4 31 108 17 c394
61 932 108 1447 126 266 10 883 4 1195 -10z m-524 -1142 c95 -64 89 -21 87
-689 -2 -698 -21 -1629 -68 -3283 -14 -480 -17 -533 -35 -573 -10 -24 -24 -43
-29 -43 -8 0 -11 665 -11 2210 0 2018 -1 2211 -16 2217 -9 3 -20 0 -25 -8 -5
-8 -9 -959 -9 -2218 0 -2173 0 -2204 -19 -2187 -31 28 -39 95 -46 346 -3 129
-10 397 -15 595 -42 1570 -60 2437 -62 3025 -1 539 0 545 65 593 78 56 117 59
183 15z m-761 -253 c142 -37 260 -165 339 -365 55 -141 56 -152 66 -665 9
-449 36 -1687 42 -1910 l3 -100 -769 -3 -769 -2 7 287 c24 1025 94 1540 272
2016 207 555 498 822 809 742z m1570 0 c32 -9 86 -30 119 -48 77 -40 216 -177
280 -275 200 -308 351 -791 410 -1307 34 -300 61 -785 68 -1220 l3 -190 -769
-3 -769 -2 7 242 c11 397 35 1455 42 1863 7 416 11 447 74 599 114 274 311
399 535 341z m-2660 -1347 c-47 -206 -103 -966 -106 -1463 0 -93 -3 -200 -6
-237 l-6 -68 -188 0 -189 0 0 128 c0 222 41 1587 48 1594 4 4 81 18 172 32
288 44 282 43 275 14z m3748 -14 c84 -10 150 -22 152 -28 5 -15 45 -1448 45
-1603 l0 -123 -145 0 -145 0 0 134 c0 473 -55 1339 -100 1577 -14 71 -14 71
18 65 15 -3 94 -13 175 -22z m-4338 -1854 c4 -6 104 -10 266 -10 243 0 260 -1
256 -17 -2 -10 -19 -96 -38 -190 l-34 -173 -242 0 -243 0 0 200 c0 167 2 200
14 200 8 0 18 -4 21 -10z m4665 -190 l0 -200 -158 0 -159 0 -18 111 c-10 61
-25 147 -35 190 l-17 79 173 0 c104 0 175 4 179 10 3 6 13 10 21 10 12 0 14
-33 14 -200z m-2527 83 c4 -54 7 -140 7 -190 l0 -93 -35 0 c-28 0 -35 4 -35
19 0 11 -12 82 -26 158 -14 76 -28 153 -31 171 l-6 32 60 0 60 0 6 -97z m652
70 c-4 -16 -22 -100 -40 -188 l-32 -160 -73 -3 -73 -3 6 68 c4 37 7 123 7 191
l0 122 106 0 106 0 -7 -27z m-1580 -98 c292 -3 571 -8 621 -11 l92 -6 9 -61
10 -60 -356 7 c-196 3 -499 9 -674 13 l-318 6 7 41 c12 74 21 88 52 82 15 -3
266 -7 557 -11z m2260 0 c292 -3 573 -8 626 -11 l96 -6 10 -61 10 -60 -361 7
c-199 3 -502 9 -674 13 l-313 6 7 41 c11 70 21 87 46 82 13 -3 262 -8 553 -11z
m-1879 -321 l382 -7 11 -87 c6 -47 11 -99 11 -113 l0 -27 -272 6 c-150 3 -479
9 -731 13 -251 4 -459 10 -462 12 -2 3 3 54 12 113 l17 109 325 -7 c179 -3
498 -9 707 -12z m2240 0 l412 -7 12 -109 c7 -60 11 -111 8 -113 -2 -3 -252 0
-554 5 -302 5 -629 11 -726 13 -97 1 -180 5 -183 9 -3 3 2 54 11 113 l17 108
296 -7 c163 -3 481 -9 707 -12z m-2681 -409 c259 -3 559 -8 667 -11 l198 -7 4
-31 c3 -17 7 -64 9 -105 l5 -74 -257 6 c-141 4 -481 10 -756 13 -275 4 -507 8
-515 9 -12 2 -14 16 -13 66 2 35 5 83 9 107 l5 43 87 -5 c48 -3 299 -8 557
-11z m2559 -5 c313 -6 571 -12 574 -15 4 -4 20 -197 17 -202 -1 -2 -349 2
-774 9 l-773 12 7 80 c3 45 8 92 11 106 l5 26 182 -3 c100 -2 438 -8 751 -13z
m-1996 -406 l332 -6 0 -29 0 -29 -790 0 -790 0 0 38 c0 21 2 41 4 43 4 4 617
-4 1244 -17z m2207 1 c209 -3 384 -10 388 -15 5 -4 7 -16 5 -26 -3 -18 -33
-19 -791 -22 l-787 -2 0 38 c0 21 2 41 4 43 4 4 426 -2 1181 -16z m-2080 -232
c3 -32 7 -71 8 -88 l2 -30 -564 -3 -564 -2 7 67 c4 38 9 78 13 91 l5 22 543 0
544 0 6 -57z m2239 5 c3 -29 6 -70 6 -90 l0 -38 -561 0 -562 0 7 82 c4 44 9
85 12 90 3 4 250 8 548 8 l543 0 7 -52z"/>
<path d="M6510 11039 c-338 -17 -655 -125 -896 -306 -102 -75 -241 -225 -318
-341 -61 -92 -145 -255 -160 -312 l-7 -25 18 25 c291 404 689 676 1093 745
135 22 400 30 545 16 215 -22 438 -82 595 -161 185 -94 369 -254 479 -420 71
-106 72 -93 1 56 -91 193 -222 354 -383 468 -149 106 -428 222 -593 245 -95
14 -226 17 -374 10z"/>
<path d="M1027 4173 c-10 -16 -71 -533 -64 -540 7 -7 308 -65 312 -61 3 4 51
395 61 489 l6 67 -28 6 c-16 3 -74 12 -129 21 -55 8 -112 18 -127 21 -14 3
-28 2 -31 -3z"/>
<path d="M1426 4094 c-3 -9 -6 -30 -6 -48 0 -30 -45 -399 -56 -461 l-5 -31
153 -28 c84 -15 165 -30 179 -33 26 -5 26 -4 33 74 4 43 18 170 31 282 14 113
23 207 20 209 -5 6 -290 51 -321 52 -12 0 -25 -7 -28 -16z"/>
<path d="M1865 4036 c-2 -6 -15 -119 -30 -251 -14 -132 -27 -255 -30 -273 -2
-20 1 -35 8 -38 23 -8 391 -73 395 -69 7 6 74 566 69 571 -3 3 -85 18 -184 34
-98 16 -188 31 -201 33 -13 3 -25 -1 -27 -7z"/>
<path d="M2365 3936 c-9 -57 -65 -516 -65 -534 0 -16 24 -23 173 -50 209 -39
207 -39 207 -8 0 29 41 275 71 428 12 59 19 113 16 121 -3 8 -35 18 -84 25
-43 7 -131 20 -195 30 l-118 19 -5 -31z"/>
<path d="M2836 3748 c-42 -222 -78 -440 -72 -445 4 -4 407 -82 427 -83 4 0 9
24 13 53 4 28 23 147 42 262 53 315 51 282 18 289 -16 3 -101 17 -189 31 -88
14 -172 28 -186 31 l-26 5 -27 -143z"/>
<path d="M3361 3696 c-25 -135 -82 -489 -78 -492 6 -4 359 -65 362 -62 2 2 13
68 25 147 11 79 34 214 50 300 16 85 28 156 27 157 -1 1 -76 14 -167 29 -91
14 -172 27 -182 29 -13 3 -20 -15 -37 -108z"/>
<path d="M11875 4159 c-60 -10 -125 -21 -144 -24 l-33 -6 6 -67 c10 -95 58
-486 61 -490 4 -4 305 54 311 61 7 7 -54 524 -63 540 -5 9 -2 9 -138 -14z"/>
<path d="M11407 4085 c-75 -12 -139 -24 -142 -27 -3 -2 2 -60 10 -129 8 -68
23 -195 32 -282 l17 -158 26 5 c14 2 94 17 178 32 l153 28 -5 31 c-11 62 -56
431 -56 461 0 74 0 74 -213 39z"/>
<path d="M10967 4015 c-108 -18 -200 -35 -203 -38 -6 -6 61 -565 68 -572 3 -3
393 64 405 69 1 1 -25 254 -48 451 -6 61 -15 113 -18 116 -3 3 -95 -9 -204
-26z"/>
<path d="M10465 3934 c-110 -18 -200 -33 -201 -33 0 -1 17 -90 37 -198 21
-109 44 -240 50 -290 10 -73 16 -93 28 -93 20 0 355 61 360 66 5 5 -59 544
-68 565 -5 14 -27 12 -206 -17z"/>
<path d="M9985 3859 c-266 -44 -238 -34 -232 -77 3 -20 24 -145 46 -277 23
-132 41 -250 41 -262 0 -13 1 -23 3 -23 1 0 65 12 142 26 77 14 173 31 213 38
40 7 75 15 78 18 4 5 -17 160 -35 248 -6 25 -22 111 -36 193 -17 91 -31 147
-39 146 -6 -1 -87 -14 -181 -30z"/>
<path d="M9440 3773 c-79 -13 -146 -26 -147 -27 -2 -2 8 -60 21 -129 14 -70
37 -205 52 -299 14 -95 28 -175 30 -177 1 -1 83 12 181 30 l179 33 -13 101
c-16 115 -58 365 -75 443 -11 51 -12 52 -47 51 -20 -1 -101 -12 -181 -26z"/>
</g>
</svg>
