<?xml version="1.0" standalone="no"?>
<!DOCTYPE svg PUBLIC "-//W3C//DTD SVG 20010904//EN"
 "http://www.w3.org/TR/2001/REC-SVG-20010904/DTD/svg10.dtd">
<svg version="1.0" xmlns="http://www.w3.org/2000/svg"
 width="643.000000pt" height="572.000000pt" viewBox="0 0 643.000000 572.000000"
 preserveAspectRatio="xMidYMid meet">
<metadata>
Created by potrace 1.16, written by Peter Selinger 2001-2019
</metadata>
<g transform="translate(0.000000,572.000000) scale(0.100000,-0.100000)"
fill="none" stroke="#000000">
<path d="M2682 4929 c-16 -17 -38 -56 -48 -87 -22 -65 -22 -139 -12 -1557 l6
-790 -25 90 c-43 162 -113 388 -163 525 -59 163 -156 400 -170 414 -24 24 -19
-9 15 -86 113 -256 177 -441 259 -753 30 -115 64 -237 76 -269 16 -47 20 -84
20 -183 0 -81 4 -123 11 -123 7 0 10 49 9 153 -1 83 0 267 1 407 l3 255 6
-240 c4 -188 6 -139 6 225 1 256 -2 449 -5 430 -7 -35 -7 -34 -16 20 -11 64
-7 783 4 880 6 46 9 54 10 27 0 -21 5 -36 10 -33 10 7 17 -96 33 -501 6 -178
15 -323 20 -323 4 0 8 262 8 582 0 320 1 583 3 585 9 9 99 -121 117 -169 22
-61 33 -250 46 -830 6 -248 10 -308 21 -308 16 0 16 16 3 425 -5 171 -12 369
-14 440 l-4 130 29 -80 c32 -88 169 -347 187 -353 6 -2 -18 59 -55 135 -71
149 -183 409 -183 424 0 5 -4 9 -9 9 -5 0 -11 9 -14 21 -4 16 -3 18 9 8 24
-20 15 6 -10 30 -13 13 -27 34 -31 48 -3 14 -8 23 -11 20 -3 -3 -23 14 -44 36
l-38 42 -7 145 c-5 85 -11 136 -15 124 -13 -35 -30 -256 -32 -421 l-2 -158 -6
155 c-3 88 -11 167 -18 183 -28 65 -8 219 38 285 35 49 25 55 -18 11z"/>
<path d="M3300 4653 c0 -5 21 -19 48 -32 26 -13 184 -96 352 -186 312 -166
604 -315 617 -315 15 1 -124 77 -317 174 -107 55 -206 107 -220 116 -46 33
-480 252 -480 243z"/>
<path d="M1657 4383 c-21 -47 -22 -59 -24 -443 -3 -766 -13 -1616 -21 -1718
-7 -92 -2 -136 12 -122 7 8 75 804 76 889 0 13 -3 21 -7 17 -5 -4 -15 -76 -24
-159 l-16 -152 -3 210 c-3 219 -3 227 10 415 5 78 6 43 3 -110 -3 -124 -3
-223 0 -220 6 6 16 148 17 230 0 31 3 41 11 33 9 -9 14 -100 7 -148 -2 -12 3
-20 12 -20 12 0 16 20 21 95 4 52 23 187 44 300 40 221 98 565 110 644 10 70
-10 50 -25 -26 -7 -35 -14 -72 -14 -83 -1 -11 -4 -25 -8 -30 -6 -10 -62 -288
-70 -345 -3 -25 -2 687 1 725 1 14 19 -7 56 -65 60 -93 73 -99 24 -11 -67 118
-79 133 -95 121 -8 -7 -14 -21 -14 -32 0 -10 -4 -17 -9 -14 -12 8 -17 -97 -11
-209 6 -107 -8 -467 -19 -477 -4 -5 -6 22 -5 60 l3 67 -9 -55 c-4 -30 -9 -104
-11 -165 l-2 -110 -7 150 c-4 84 -4 172 2 200 5 28 8 160 7 295 -1 163 2 254
10 273 14 35 14 37 0 37 -5 0 -20 -21 -32 -47z"/>
<path d="M1932 4158 c23 -68 299 -606 313 -612 8 -3 15 0 15 6 0 33 -318 638
-335 638 -2 0 1 -15 7 -32z"/>
<path d="M4340 4115 c0 -3 14 -18 31 -32 47 -40 112 -132 106 -151 -42 -133
-92 -264 -121 -319 -61 -116 -251 -353 -282 -353 -18 0 -116 -41 -111 -46 2
-2 36 7 75 20 l71 24 268 -97 c147 -54 316 -119 375 -143 59 -25 109 -43 112
-40 12 12 5 24 -10 18 -9 -4 -23 -1 -32 6 -13 11 -11 14 9 20 20 5 18 6 -11 6
-38 0 -90 18 -130 43 -14 9 -34 21 -45 27 -16 9 0 12 75 13 78 2 86 3 45 8
-27 4 -72 5 -100 3 -27 -2 -70 3 -95 10 -45 12 -45 12 -15 19 17 4 57 8 90 9
33 1 71 6 85 10 15 5 -25 6 -95 3 -66 -3 -124 -6 -130 -5 -125 14 -120 17 49
31 94 7 179 17 190 22 22 8 -33 6 -240 -12 -108 -9 -161 -3 -188 22 -6 5 -18
9 -27 9 -9 0 -48 7 -87 16 l-70 16 37 34 c21 18 51 52 66 75 16 22 45 49 64
60 20 11 26 17 14 14 -25 -7 -31 6 -10 22 6 6 28 16 47 22 36 11 79 43 166
120 61 54 27 38 -93 -45 -50 -35 -94 -64 -97 -64 -19 0 31 50 104 104 47 35
105 82 130 106 l45 42 -40 -28 c-22 -15 -69 -50 -105 -79 -80 -63 -90 -69 -90
-54 0 6 33 46 74 88 41 42 85 93 99 114 l26 38 42 -76 c26 -48 45 -73 51 -67
21 21 -80 187 -173 287 -35 38 -57 65 -49 60 94 -55 213 -147 293 -227 91 -91
117 -111 117 -90 0 19 -156 175 -230 231 -99 74 -280 176 -280 156z"/>
<path d="M3321 3895 c29 -38 72 -92 94 -120 36 -44 42 -57 43 -105 4 -109 54
-332 144 -642 29 -97 54 -176 56 -174 1 2 -13 75 -33 162 -60 266 -145 649
-145 654 0 3 5 -3 11 -12 5 -10 17 -18 25 -18 14 0 13 4 -3 29 -63 100 -98
145 -167 216 l-78 80 53 -70z"/>
<path d="M4840 3706 c0 -2 21 -34 46 -72 61 -90 96 -167 131 -289 26 -93 28
-111 26 -260 -1 -88 -7 -209 -12 -270 -5 -60 -8 -112 -6 -114 3 -2 10 9 17 25
9 21 13 102 13 294 0 262 -1 266 -28 355 -46 149 -145 335 -178 335 -5 0 -9
-2 -9 -4z"/>
<path d="M3555 3578 c-6 -15 92 -183 562 -965 91 -150 167 -273 169 -273 16 0
-448 829 -463 830 -7 0 -13 7 -13 16 0 15 -189 331 -230 384 -16 21 -20 22
-25 8z"/>
<path d="M3270 3547 c0 -10 64 -138 142 -285 78 -147 170 -327 205 -399 35
-73 68 -133 73 -133 14 0 13 5 -10 51 -12 22 -18 45 -14 51 4 6 3 8 -3 5 -5
-3 -28 33 -52 81 -39 80 -330 632 -338 641 -1 2 -3 -3 -3 -12z"/>
<path d="M2726 3343 c-4 -9 -6 -284 -5 -610 1 -327 -1 -597 -5 -600 -3 -4 -6
265 -6 597 0 332 -3 601 -6 598 -10 -11 -4 -1223 6 -1226 6 -2 10 -60 10 -138
0 -127 -1 -134 -20 -134 -19 0 -20 7 -22 108 l-2 107 -6 -110 -6 -110 -2 102
c-3 139 -22 147 -22 9 l0 -105 -52 -5 c-92 -10 -385 -25 -623 -32 l-230 -7 3
51 4 52 56 1 c32 1 156 5 277 10 121 5 283 9 360 8 80 0 151 4 165 10 18 8
-83 10 -370 6 -217 -3 -404 -5 -415 -5 -11 1 -68 3 -127 6 -65 3 -108 2 -108
-4 0 -5 9 -12 19 -15 15 -4 20 -16 23 -58 2 -30 2 -58 0 -63 -6 -11 -495 1
-597 14 -97 13 -155 16 -147 8 4 -3 16 -8 27 -10 15 -2 21 -12 23 -40 l3 -36
-119 5 c-115 6 -119 5 -125 -16 -3 -14 -1 -21 9 -21 8 0 14 6 14 13 0 10 30 9
143 -7 185 -25 503 -29 517 -6 7 12 12 12 22 2 9 -9 188 -12 813 -12 782 0
965 4 965 21 0 5 -51 10 -112 10 l-113 1 133 13 c73 8 145 16 160 19 15 4 151
24 302 46 151 22 310 45 353 52 52 7 77 15 77 25 0 7 -7 13 -15 13 -16 0 -18
12 -9 46 5 18 17 22 81 30 75 10 75 10 85 -15 l10 -26 10 28 c8 21 18 28 49
33 39 7 55 24 22 24 -10 0 -92 -11 -183 -24 -91 -14 -300 -41 -465 -61 -311
-37 -439 -58 -318 -51 65 4 73 -1 73 -45 0 -11 5 -17 10 -14 6 3 10 19 10 35
0 31 2 32 165 45 39 4 81 8 95 11 21 4 28 -1 37 -23 9 -24 11 -25 12 -7 1 12
7 26 14 31 11 9 257 47 262 40 1 -1 5 -16 8 -33 l6 -32 -57 -7 c-31 -3 -142
-20 -246 -36 -340 -54 -489 -69 -500 -51 -3 5 -6 26 -8 47 l-2 37 -61 -6 c-33
-4 -115 -9 -182 -12 l-121 -6 -1 89 c-1 48 -3 98 -5 110 -3 12 -6 315 -8 673
-2 357 -4 650 -4 650 -1 0 -5 -8 -8 -17z m368 -1516 c-3 -8 -1 -25 5 -38 l9
-25 -165 -22 c-91 -12 -173 -27 -183 -32 -10 -6 -102 -10 -204 -10 l-186 0 0
39 c0 22 3 42 8 44 4 3 43 6 86 8 l80 4 8 -32 c13 -48 28 -50 28 -4 0 38 2 41
29 41 24 0 30 -5 36 -32 l8 -33 6 35 c5 31 10 35 39 38 30 3 32 2 33 -30 l1
-33 10 31 c8 26 17 33 47 38 74 12 88 8 95 -24 3 -16 11 -30 17 -30 7 0 9 11
6 30 -6 27 -4 30 26 34 110 18 168 19 161 3z m-751 -64 c3 -16 9 -36 12 -45 7
-17 -8 -18 -229 -18 l-236 0 0 29 c0 27 3 29 53 35 28 3 93 6 143 6 90 0 92
-1 98 -25 9 -34 22 -32 29 4 6 27 10 30 54 34 26 2 53 4 59 5 6 1 14 -10 17
-25z"/>
<path d="M2910 3198 c-1 -106 -19 -539 -25 -600 -7 -61 -7 -62 10 -39 21 28
32 166 37 475 2 161 0 210 -9 213 -9 3 -13 -10 -13 -49z"/>
<path d="M4937 2363 c-3 -10 -15 -67 -27 -128 -11 -60 -27 -115 -34 -120 -7
-6 -13 -19 -13 -30 1 -64 -2 -73 -34 -77 -30 -5 -30 -4 -27 36 2 30 -1 41 -12
44 -12 2 -14 -6 -12 -42 l4 -44 -64 -11 c-101 -17 -108 -16 -108 19 0 34 -2
32 90 54 61 14 62 15 15 10 -113 -11 -113 -12 -121 -60 -4 -27 -12 -45 -23
-48 -9 -3 -119 -19 -246 -36 -298 -40 -305 -41 -305 -51 0 -13 43 -11 140 7
47 8 103 17 125 20 69 7 444 64 598 90 81 13 232 36 335 49 151 20 414 58 682
99 33 5 32 5 -5 -6 -22 -6 -44 -17 -48 -24 -5 -9 -18 -11 -36 -8 -26 5 -78 -6
-331 -75 -21 -5 -27 -10 -15 -10 22 -1 469 88 543 108 63 17 54 35 -15 28
l-58 -5 42 11 c50 14 69 29 27 22 -33 -6 -188 -29 -559 -85 -143 -21 -280 -42
-304 -46 l-44 -7 7 47 c8 53 10 52 -79 31 -60 -15 -125 -20 -125 -10 0 3 11
62 25 132 14 69 23 128 21 130 -2 3 -7 -4 -9 -14z"/>
<path d="M3535 2009 c-268 -37 -633 -79 -680 -79 l-37 0 6 53 c4 35 3 46 -3
32 -5 -11 -10 -34 -10 -51 -1 -21 -9 -37 -23 -47 -39 -26 259 -15 467 17 149
23 513 91 540 101 27 10 -70 0 -260 -26z"/>
<path d="M5110 1968 c-56 -12 -75 -28 -34 -28 l29 -1 -35 -19 c-19 -11 -47
-19 -62 -20 -47 0 -189 -62 -222 -96 -18 -18 -99 -74 -181 -125 -213 -131
-403 -295 -485 -417 -15 -23 -17 -23 -152 -16 -76 4 -138 10 -138 14 0 4 35
15 78 24 80 17 125 36 88 36 -10 0 -75 -12 -145 -26 -69 -14 -155 -29 -191
-32 -65 -7 -81 -21 -38 -34 13 -3 64 -6 113 -7 109 -1 303 -23 445 -51 434
-84 690 -110 690 -71 0 5 -14 14 -31 20 -32 11 -381 71 -548 93 l-93 13 78 62
c44 33 129 107 189 162 61 56 153 135 205 175 130 100 457 317 497 329 18 6
33 14 33 19 0 10 -32 9 -90 -4z m-140 -103 c0 -2 -102 -77 -227 -166 -271
-193 -389 -286 -500 -392 -55 -53 -88 -77 -100 -75 -14 3 18 41 132 156 193
197 189 194 580 418 117 68 115 66 115 59z"/>
<path d="M4825 1949 c-104 -19 -290 -61 -300 -69 -5 -4 -30 -8 -55 -8 -58 0
-719 -109 -745 -122 -48 -24 288 18 602 75 290 54 351 66 458 91 146 35 172
57 40 33z"/>
<path d="M4705 1849 c-236 -56 -797 -167 -1000 -198 -120 -18 -302 -34 -885
-77 -286 -21 -328 -36 -80 -30 324 9 991 83 1355 151 290 54 704 152 745 176
25 14 -3 10 -135 -22z"/>
<path d="M564 1784 c-15 -6 -1 -101 24 -157 29 -65 85 -144 206 -289 58 -71
106 -132 106 -137 0 -4 9 -20 20 -33 l20 -26 -108 -37 c-121 -43 -202 -81
-202 -95 0 -21 97 -14 185 12 50 15 141 42 203 59 117 34 150 52 42 24 -34 -9
-64 -14 -66 -12 -7 6 182 54 281 71 50 9 140 15 200 15 l110 -1 -65 -19 c-172
-51 -230 -71 -252 -88 -26 -20 -122 -53 -210 -72 -32 -7 -58 -16 -58 -22 0 -5
12 -6 28 -2 15 4 63 8 107 10 45 2 98 11 120 21 22 9 92 34 155 56 87 29 104
38 70 34 -29 -3 -39 -2 -29 4 23 13 270 76 359 92 101 18 542 17 728 -1 78 -8
145 -11 149 -7 3 3 1 17 -5 30 -10 22 -18 25 -109 31 -96 8 -529 0 -588 -10
-16 -2 -141 -7 -276 -9 -291 -6 -461 -20 -609 -50 l-107 -22 -16 43 c-9 24
-36 74 -61 113 l-45 70 225 -1 c125 0 229 2 232 6 3 3 -12 5 -34 5 -54 0 -456
28 -458 32 -29 42 -97 174 -107 206 -7 23 -16 42 -21 42 -13 0 -9 -35 7 -56 8
-10 15 -28 15 -40 0 -18 17 -49 87 -160 7 -10 45 -72 84 -137 73 -121 89 -165
29 -79 -19 26 -70 97 -115 157 -44 61 -100 140 -124 178 -24 37 -47 67 -52 67
-5 0 -9 9 -9 20 0 12 -11 43 -25 70 -34 67 -33 73 14 65 44 -7 68 11 26 20
-53 11 -70 13 -81 9z"/>
<path d="M2265 1649 c-1251 -12 -1211 -11 -1105 -21 52 -4 433 -6 845 -4 413
2 792 4 843 4 55 1 92 5 92 11 0 5 -3 11 -7 13 -5 2 -305 0 -668 -3z"/>
<path d="M3960 1619 c-36 -5 -150 -22 -255 -38 -208 -32 -238 -36 -430 -51
-172 -14 -246 -18 -525 -30 -284 -12 -363 -20 -335 -31 29 -11 238 -11 421 2
349 23 999 94 1154 125 139 29 120 43 -30 23z"/>
<path d="M863 1579 c84 -27 192 -38 416 -43 195 -5 193 -1 -19 22 -52 6 -151
18 -220 27 -68 8 -149 15 -180 14 l-55 -1 58 -19z"/>
<path d="M3980 1564 c-342 -72 -616 -114 -841 -131 -62 -4 -93 -11 -110 -24
l-24 -19 40 5 c22 3 83 9 135 15 210 23 926 143 1005 169 l60 19 -50 0 c-27 1
-124 -15 -215 -34z"/>
<path d="M4185 1535 c-246 -63 -619 -134 -785 -150 -115 -11 -140 -16 -140
-31 0 -8 1 -14 3 -14 9 0 388 51 439 60 106 16 359 69 438 91 151 41 240 70
240 80 0 13 -6 12 -195 -36z"/>
<path d="M1808 1540 c-163 -3 -300 -9 -305 -13 -14 -15 899 -4 922 10 22 14
-43 14 -617 3z"/>
<path d="M833 1486 c35 -27 259 -43 728 -52 272 -5 368 -4 373 4 5 9 -30 12
-136 12 -186 0 -849 32 -948 46 -32 4 -33 3 -17 -10z"/>
<path d="M2095 1390 c-375 -3 -565 -8 -555 -15 24 -15 588 -19 870 -5 230 11
273 14 259 23 -2 1 -260 0 -574 -3z"/>
<path d="M3775 1355 c-115 -19 -348 -51 -517 -71 -210 -26 -302 -41 -291 -48
9 -5 62 -6 121 -2 134 8 463 55 479 68 7 6 20 8 28 4 15 -5 191 25 365 63 130
29 48 22 -185 -14z"/>
<path d="M1089 1307 c5 -5 107 -13 227 -19 223 -11 887 3 932 19 12 5 -246 8
-573 8 -327 0 -590 -4 -586 -8z"/>
<path d="M3395 1235 c-71 -7 -170 -18 -220 -25 -73 -10 -119 -9 -240 3 -137
13 -151 13 -161 -2 -21 -28 1 -51 51 -51 24 0 47 -4 50 -10 3 -6 -4 -10 -17
-10 -13 0 -59 -15 -104 -33 -54 -22 -89 -31 -105 -26 -14 3 -72 9 -129 12
l-105 5 85 -13 c47 -7 102 -14 123 -14 21 -1 36 -5 32 -10 -3 -6 -38 -8 -78
-6 l-72 5 90 -15 c59 -10 97 -12 110 -6 11 5 42 12 68 15 45 5 254 52 352 78
32 8 36 12 21 17 -35 13 216 59 340 62 32 1 62 3 66 6 11 6 -3 33 -16 32 -6
-1 -69 -7 -141 -14z"/>
<path d="M1900 1139 c-146 -23 -160 -27 -141 -38 7 -5 -9 -11 -43 -15 -58 -6
-112 -23 -104 -32 3 -2 63 2 134 10 70 9 131 12 134 8 3 -4 142 -7 310 -7 299
0 294 3 -25 21 -106 6 -140 10 -115 15 19 4 -28 6 -105 4 l-140 -4 123 21 c67
12 122 25 122 30 0 10 2 10 -150 -13z"/>
<path d="M3303 1102 c-100 -14 -63 -20 93 -14 110 3 155 2 150 -6 -7 -11 54
-18 259 -27 66 -3 149 -7 185 -10 99 -6 50 4 -90 19 l-125 14 110 2 c92 2 103
4 65 11 -61 11 -582 20 -647 11z"/>
</g>
</svg>
