<?xml version="1.0" standalone="no"?>
<!DOCTYPE svg PUBLIC "-//W3C//DTD SVG 20010904//EN"
 "http://www.w3.org/TR/2001/REC-SVG-20010904/DTD/svg10.dtd">
<svg version="1.0" xmlns="http://www.w3.org/2000/svg"
 width="707.000000pt" height="706.000000pt" viewBox="0 0 707.000000 706.000000"
 preserveAspectRatio="xMidYMid meet">
<metadata>
Created by potrace 1.16, written by Peter Selinger 2001-2019
</metadata>
<g transform="translate(0.000000,706.000000) scale(0.100000,-0.100000)"
fill="#000000" stroke="none">
<path d="M3920 4651 c-14 -28 -13 -224 2 -239 28 -28 108 5 130 53 6 14 15 25
20 25 15 0 46 -81 54 -137 l6 -52 -28 1 c-65 2 -158 -16 -176 -34 -38 -38 -9
-118 45 -118 12 0 60 9 105 20 46 11 88 18 93 14 21 -13 39 -64 33 -94 -4 -20
0 -45 11 -71 10 -21 15 -42 11 -46 -4 -4 -35 1 -70 10 -36 9 -83 17 -105 17
-31 0 -43 5 -52 21 -10 19 -16 20 -67 14 -80 -9 -90 -13 -94 -38 -3 -18 -18
-26 -102 -48 -127 -34 -263 -88 -350 -139 -46 -27 -80 -40 -105 -40 -20 0 -81
-12 -136 -26 -76 -20 -127 -26 -210 -27 -137 -2 -210 21 -317 96 l-73 52 -203
3 -203 3 -27 -30 -26 -31 -133 0 -133 0 -6 -25 c-3 -14 -10 -25 -16 -25 -13 0
-38 -64 -38 -100 0 -17 5 -39 12 -50 11 -17 2 -29 -73 -107 -47 -49 -88 -99
-91 -111 -8 -30 16 -52 57 -52 51 0 82 16 141 70 88 79 231 150 306 150 16 0
109 -27 207 -60 98 -33 187 -60 198 -60 33 0 34 -11 3 -49 -17 -19 -30 -42
-30 -49 0 -10 -6 -12 -17 -6 -108 47 -160 58 -268 58 -123 -1 -194 -21 -300
-85 -249 -151 -336 -503 -187 -759 62 -108 187 -209 310 -252 97 -33 258 -32
358 4 134 47 239 136 310 264 20 35 41 64 47 64 6 0 48 -7 93 -15 73 -14 86
-14 118 -1 32 13 41 13 103 -6 61 -18 101 -21 370 -25 497 -8 512 -2 682 297
88 154 94 170 102 241 7 56 31 137 90 300 45 123 85 228 89 233 5 4 15 -5 24
-22 8 -16 24 -32 35 -35 14 -3 34 -34 61 -92 22 -48 40 -93 40 -100 0 -7 -26
-34 -57 -60 -153 -124 -249 -319 -241 -487 l3 -63 45 1 46 2 16 -77 c25 -122
60 -185 153 -277 155 -155 329 -205 529 -154 212 54 364 202 411 401 20 85 19
231 -1 300 -44 149 -157 281 -300 350 l-83 40 16 35 c16 32 16 36 0 52 -25 25
-226 30 -320 8 -38 -9 -70 -16 -72 -16 -2 0 -25 42 -51 93 -30 58 -46 104 -46
125 1 24 -8 43 -35 73 l-36 40 29 -8 c16 -4 56 -8 89 -8 56 0 60 2 75 30 11
22 15 64 15 166 0 121 -2 139 -19 158 -23 26 -92 28 -156 6 -58 -20 -70 -18
-37 6 40 30 36 64 -15 116 -23 24 -47 43 -52 43 -6 0 -38 -28 -72 -61 -38 -38
-68 -60 -77 -56 -8 3 -23 23 -34 44 -11 21 -36 49 -56 62 -24 16 -37 32 -37
47 0 52 -42 158 -75 189 -18 16 -40 47 -48 67 -27 64 -114 101 -137 59z m698
-627 c2 -38 0 -97 -3 -131 -6 -56 -9 -63 -28 -63 -47 0 -124 70 -142 128 -14
46 44 104 135 135 29 10 35 0 38 -69z m-195 -130 c37 -74 65 -139 62 -145 -4
-5 -14 -9 -24 -9 -13 0 -35 36 -80 130 -60 123 -68 160 -39 160 7 0 44 -61 81
-136z m-94 -29 c31 -67 42 -100 37 -118 -10 -42 -128 -358 -132 -354 -2 2 1
19 6 38 14 49 12 91 -6 117 -14 20 -13 24 9 54 70 93 81 183 34 277 -21 41
-25 57 -16 67 6 8 14 14 18 14 3 -1 26 -43 50 -95z m-194 74 c79 -22 134 -113
119 -197 -13 -75 -47 -122 -109 -156 -39 -21 -47 -21 -465 -18 -233 2 -426 4
-427 6 -2 2 15 35 38 75 36 63 49 76 111 112 222 130 587 218 733 178z m-1559
-158 c108 -85 205 -116 359 -114 84 1 134 7 210 27 55 14 106 26 113 26 15 0
-40 -107 -75 -146 l-22 -24 -223 0 -223 1 -275 124 c-151 68 -276 128 -278
134 -3 8 53 11 181 11 l184 0 49 -39z m-431 -35 c57 -18 534 -229 535 -237 0
-10 -75 -29 -111 -29 -33 0 -247 69 -514 165 -118 42 -185 81 -185 107 0 14
223 9 275 -6z m-282 -65 c23 -25 57 -42 157 -77 9 -3 -8 -14 -42 -28 -82 -34
-136 -67 -206 -130 -61 -55 -92 -69 -92 -43 0 7 45 57 100 112 55 55 100 105
100 113 0 7 -14 15 -31 19 -32 6 -45 23 -35 48 8 22 18 19 49 -14z m2877 -442
c102 -214 185 -397 185 -406 0 -43 -28 -17 -68 64 -136 271 -338 707 -333 719
3 8 11 14 18 14 7 0 96 -176 198 -391z m-1360 276 c0 -2 -43 -97 -95 -210 -52
-114 -101 -226 -110 -251 -21 -63 -18 -137 9 -219 14 -42 20 -74 15 -79 -6 -6
-12 -6 -17 0 -7 7 -200 277 -291 405 -11 16 -3 14 53 -12 81 -38 175 -45 219
-16 32 21 179 315 180 360 0 19 5 27 19 27 10 0 18 -2 18 -5z m300 -19 c0 -18
-278 -152 -290 -140 -17 17 -2 40 44 63 181 90 246 110 246 77z m344 -52 c115
-65 138 -86 119 -105 -7 -7 -57 15 -144 62 -74 40 -136 74 -138 75 -7 6 21 34
34 34 7 0 65 -30 129 -66z m-740 47 c6 -10 -119 -287 -140 -310 -15 -16 -91
-17 -143 0 -53 17 -92 50 -171 143 -78 93 -110 153 -88 167 18 12 535 11 542
0z m1751 -60 c3 -5 -7 -19 -22 -31 -22 -17 -35 -19 -71 -14 -24 4 -77 1 -118
-6 -60 -10 -77 -10 -89 0 -24 20 -13 33 36 46 53 14 255 18 264 5z m-1211 -22
c48 -38 25 -119 -38 -135 -28 -7 -81 18 -90 41 -32 84 57 150 128 94z m-1528
-70 c32 -6 80 -20 106 -31 l46 -20 -16 -29 c-23 -40 -35 -42 -109 -19 -242 75
-492 -86 -536 -346 -38 -220 122 -438 350 -477 161 -28 347 59 430 201 25 42
28 44 61 38 19 -3 39 -9 44 -14 13 -13 -84 -154 -135 -197 -82 -70 -231 -124
-344 -125 -159 0 -320 91 -416 238 -64 97 -82 158 -81 272 1 107 25 185 85
286 65 108 184 189 319 218 81 18 121 19 196 5z m2299 -19 c5 -15 -11 -35 -70
-91 -86 -82 -136 -170 -159 -282 -15 -71 -29 -97 -52 -97 -19 0 -18 60 1 135
28 107 74 184 161 273 83 84 108 97 119 62z m538 -24 c69 -33 173 -127 215
-194 150 -234 53 -585 -198 -716 -205 -108 -436 -72 -601 93 -191 192 -196
492 -12 691 78 85 89 89 110 46 l16 -35 -50 -54 c-108 -114 -146 -255 -108
-400 22 -84 51 -135 109 -192 211 -205 554 -144 677 120 81 173 42 373 -97
495 -82 72 -226 117 -332 104 -43 -5 -57 -3 -72 11 -27 24 -25 52 3 58 12 3
81 4 152 4 121 -2 134 -4 188 -31z m-1719 -52 c58 -79 66 -97 41 -88 -28 11
-105 -7 -134 -32 -33 -28 -61 -31 -61 -8 0 18 86 204 94 204 2 0 30 -34 60
-76z m-655 9 c46 -59 48 -68 21 -103 -25 -32 -25 -48 0 -85 26 -40 25 -45 -9
-45 -26 0 -33 7 -54 53 -13 28 -41 74 -61 101 -30 38 -35 51 -24 57 7 5 16 9
20 9 3 0 16 16 28 35 12 20 26 35 30 33 4 -2 26 -26 49 -55z m1398 -64 c15
-73 3 -112 -78 -256 -99 -176 -112 -195 -159 -235 -68 -59 -97 -63 -460 -63
-287 0 -332 2 -382 18 -45 14 -58 23 -58 38 0 19 4 20 48 12 26 -4 200 -7 387
-5 452 4 423 -9 572 257 71 127 78 145 79 197 1 52 15 88 34 88 4 0 12 -23 17
-51z m-1831 -4 l36 -15 -21 -26 c-12 -15 -21 -37 -21 -50 0 -27 4 -26 -106
-28 -71 -1 -86 -5 -129 -31 -66 -41 -105 -105 -112 -183 -13 -146 111 -266
259 -249 57 7 94 26 135 68 l32 32 65 -13 c36 -7 66 -16 66 -22 0 -45 -86
-128 -178 -171 -57 -27 -77 -31 -147 -31 -150 1 -270 76 -337 212 -30 60 -33
76 -33 152 0 79 3 92 38 162 55 112 145 184 261 208 53 12 146 4 192 -15z
m2722 -7 c71 -26 163 -112 199 -186 25 -51 28 -68 28 -157 0 -89 -3 -106 -28
-157 -73 -149 -233 -234 -391 -208 -124 20 -215 89 -273 208 -35 70 -38 83
-38 161 0 73 4 94 27 141 15 30 46 75 69 100 39 42 42 44 55 26 7 -11 21 -39
30 -62 16 -42 16 -43 -15 -107 -38 -78 -40 -132 -7 -203 65 -139 240 -176 357
-75 54 46 79 100 79 175 0 122 -93 226 -204 228 -17 0 -39 5 -48 9 -17 9 -58
90 -58 115 0 29 131 24 218 -8z m-2410 -69 c31 -51 49 -96 41 -103 -2 -2 -20
-6 -40 -9 -36 -5 -38 -4 -73 56 l-36 61 27 28 c15 16 32 27 38 25 5 -2 25 -28
43 -58z m1217 -10 c70 -38 75 -43 75 -74 0 -18 7 -38 15 -45 23 -19 19 -33
-27 -111 -30 -50 -55 -78 -84 -95 -39 -23 -48 -24 -242 -24 l-201 0 -16 30
-16 30 57 0 c118 0 193 82 181 198 l-6 57 67 37 c37 20 80 37 95 37 15 1 61
-17 102 -40z m-374 -4 c36 -19 69 -70 69 -108 0 -66 -58 -127 -122 -127 -78 0
-128 50 -128 127 0 90 100 149 181 108z m-1236 -94 c0 -9 -19 -20 -50 -27 -57
-15 -91 -48 -101 -98 -13 -72 37 -122 138 -136 109 -16 120 -28 58 -64 -44
-26 -123 -27 -172 -3 -76 38 -115 139 -84 220 19 49 67 100 111 115 42 15 100
11 100 -7z m2755 -11 c81 -41 114 -154 70 -240 -71 -140 -284 -119 -329 32
-15 48 -6 109 19 140 l18 23 44 -90 c35 -73 48 -91 68 -94 30 -4 88 26 95 49
3 10 -12 57 -35 105 -22 48 -40 89 -40 91 0 11 56 1 90 -16z m-2143 -34 c15
-13 25 -27 22 -31 -4 -3 -49 -13 -100 -21 -87 -14 -100 -14 -171 2 -43 10 -75
20 -73 23 4 4 169 33 287 50 4 1 20 -10 35 -23z m-239 -101 c271 -58 310 -69
330 -91 12 -14 22 -35 22 -48 0 -30 -33 -59 -68 -59 -37 0 -622 122 -645 135
-57 30 -30 127 36 128 9 0 155 -29 325 -65z"/>
<path d="M3689 3075 c-99 -54 -79 -205 32 -235 104 -28 195 83 146 180 -30 59
-119 87 -178 55z m116 -60 c46 -45 24 -115 -40 -131 -47 -12 -104 48 -88 93
22 62 86 81 128 38z"/>
</g>
</svg>
