<?xml version="1.0" standalone="no"?>
<!DOCTYPE svg PUBLIC "-//W3C//DTD SVG 20010904//EN"
 "http://www.w3.org/TR/2001/REC-SVG-20010904/DTD/svg10.dtd">
<svg version="1.0" xmlns="http://www.w3.org/2000/svg"
 width="670.000000pt" height="558.000000pt" viewBox="0 0 670.000000 558.000000"
 preserveAspectRatio="xMidYMid meet">
<metadata>
Created by potrace 1.16, written by Peter Selinger 2001-2019
</metadata>
<g transform="translate(0.000000,558.000000) scale(0.100000,-0.100000)"
fill="none" stroke="#000000">
<path d="M5435 4799 c-93 -38 -489 -204 -670 -282 -283 -122 -762 -364 -945
-477 -51 -32 -149 -77 -263 -120 -100 -37 -198 -75 -217 -82 -25 -11 -70 -14
-161 -12 l-126 2 -284 147 c-156 81 -342 178 -414 215 -71 38 -292 152 -490
255 l-360 187 -110 -36 c-138 -45 -147 -50 -120 -70 39 -28 465 -236 636 -309
182 -78 391 -154 644 -232 144 -45 297 -106 416 -166 55 -27 56 -29 50 -60 -6
-30 -14 -36 -86 -64 -275 -109 -2118 -851 -2202 -886 -57 -24 -100 -46 -95
-50 4 -3 58 -27 121 -52 l113 -46 72 34 c39 19 211 94 381 166 517 219 919
419 1237 616 97 60 135 77 349 164 145 58 147 59 183 44 31 -13 36 -20 36 -48
0 -31 -2 -33 -79 -60 -144 -51 -308 -166 -466 -326 -57 -58 -122 -129 -145
-158 -35 -44 -57 -59 -147 -102 -132 -64 -207 -117 -304 -217 -99 -103 -164
-192 -288 -399 -138 -228 -245 -446 -267 -541 -19 -85 -14 -125 22 -201 29
-60 78 -103 159 -138 31 -14 53 -29 50 -34 -9 -15 -107 -69 -156 -86 -24 -9
-73 -20 -108 -25 -35 -5 -71 -16 -80 -25 -15 -15 -14 -18 9 -37 22 -18 35 -20
110 -16 112 5 174 34 340 156 15 11 35 9 116 -7 197 -39 401 -36 620 9 53 11
100 20 104 20 4 0 33 -21 64 -46 105 -87 201 -240 213 -343 l5 -46 -82 -54
c-99 -65 -138 -80 -208 -81 -63 0 -92 -13 -92 -40 0 -26 35 -35 135 -35 61 0
92 6 128 23 27 12 200 127 385 255 554 385 828 571 960 652 62 38 63 39 40 51
-47 27 -143 5 -213 -49 -19 -15 -22 -11 -64 76 -36 76 -58 106 -122 170 l-79
78 53 62 c112 132 237 322 303 460 30 63 44 81 82 105 285 178 391 245 472
297 52 33 120 75 151 93 l57 32 198 -81 c110 -44 211 -85 226 -91 22 -8 44 -3
120 25 115 43 148 58 148 67 0 4 -110 51 -245 104 -135 54 -245 101 -245 105
0 3 28 22 63 41 34 18 113 64 176 102 63 37 119 68 124 68 5 0 66 -56 134
-126 105 -105 130 -125 152 -122 19 2 27 9 29 28 2 20 -25 105 -62 190 -5 13
4 15 66 12 66 -3 78 0 124 27 36 21 64 49 92 91 56 83 76 154 76 270 1 79 -3
104 -23 148 -42 94 -125 124 -228 83 -29 -11 -53 -18 -53 -15 0 6 43 171 94
359 24 88 35 106 92 142 26 17 -39 -5 -137 -46 -65 -27 -77 -36 -86 -64 -6
-17 -39 -93 -73 -167 -34 -74 -98 -218 -142 -320 -121 -278 -99 -250 -225
-297 -59 -23 -173 -67 -253 -98 -244 -94 -388 -145 -409 -145 -11 0 -30 4 -43
9 -13 5 -198 50 -413 101 -326 77 -666 175 -715 205 -5 3 -10 15 -10 25 0 10
-4 22 -10 25 -33 21 19 46 286 140 100 35 410 156 690 268 280 113 610 243
734 290 186 71 434 167 688 265 23 9 42 19 42 23 0 8 -182 74 -225 82 -21 4
-59 -6 -130 -34z m163 5 l37 -16 -30 -14 c-16 -7 -122 -50 -235 -94 -113 -45
-252 -101 -310 -125 -537 -224 -903 -377 -979 -411 -108 -48 -58 -15 111 74
277 145 642 310 1083 492 39 16 113 47 165 69 52 22 101 40 108 41 7 0 29 -7
50 -16z m-4047 -318 c90 -47 256 -127 369 -179 256 -117 571 -269 567 -274
-10 -10 -379 126 -602 222 -135 58 -575 271 -575 279 0 7 52 35 66 36 7 0 86
-38 175 -84z m4189 -50 c0 -8 -27 -110 -59 -226 -52 -185 -63 -216 -89 -240
-39 -35 -87 -131 -110 -217 -17 -66 -19 -68 -60 -83 -32 -11 -44 -12 -53 -3
-13 13 -6 28 177 438 37 83 82 186 101 230 31 73 61 115 84 115 5 0 9 -6 9
-14z m-74 -476 c-88 -128 -121 -331 -70 -432 15 -31 15 -32 -1 -16 -10 9 -23
38 -30 65 -11 42 -16 48 -38 46 -23 -1 -221 -108 -508 -273 l-122 -71 -64 22
c-36 12 -61 24 -56 28 8 8 482 234 615 294 57 26 79 32 87 24 16 -16 21 -7 66
117 21 56 49 119 63 141 22 36 81 105 89 105 2 0 -12 -23 -31 -50z m-2414
-170 c20 -6 46 -18 58 -28 l22 -17 -21 -19 c-27 -25 -113 -32 -179 -16 -56 13
-93 43 -75 61 26 26 133 36 195 19z m315 -194 c137 -46 271 -94 298 -107 l50
-22 -63 -15 c-62 -14 -65 -13 -120 11 -338 151 -330 148 -414 148 l-68 0 0 29
c0 24 5 29 28 33 15 2 30 5 34 6 4 0 119 -37 255 -83z m1762 39 c-6 -5 -247
-125 -449 -222 l-155 -75 -53 19 -54 18 34 14 c56 23 338 131 423 161 44 16
114 43 155 59 68 27 111 38 99 26z m-2199 -87 c0 -7 -20 -21 -45 -31 -88 -37
-125 -122 -70 -165 77 -61 272 -54 339 13 38 39 1 124 -68 156 l-41 19 58 -5
c71 -6 183 -43 291 -93 l80 -38 -93 -38 c-220 -91 -560 -289 -1011 -588 -157
-105 -167 -110 -207 -105 -24 2 -50 10 -58 17 -26 21 -17 77 25 161 125 251
436 554 691 674 79 36 109 43 109 23z m2444 -111 c25 -57 53 -123 61 -147 l15
-43 -22 19 c-12 10 -67 62 -121 115 l-98 96 48 31 c26 18 53 32 59 32 6 0 32
-47 58 -103z m-1268 -2 c219 -54 454 -128 684 -217 259 -100 460 -183 460
-189 0 -4 -13 -12 -29 -18 -25 -11 -44 -6 -177 44 -412 156 -545 205 -849 311
-181 64 -332 118 -334 120 -10 10 34 1 245 -51z m-277 -16 c17 -6 31 -16 30
-22 0 -7 -15 -52 -32 -102 l-32 -90 -95 -16 c-52 -9 -113 -20 -134 -24 -35 -7
-38 -6 -33 9 4 10 10 62 14 117 l6 99 36 10 c120 32 187 37 240 19z m-1669
-33 c0 -3 -48 -30 -107 -62 -60 -31 -148 -78 -198 -105 -131 -69 -381 -184
-695 -319 -151 -65 -322 -139 -380 -165 -100 -44 -107 -46 -147 -34 -24 6 -43
14 -43 18 0 3 31 19 68 35 168 73 644 276 812 346 102 43 277 117 390 165 184
79 290 123 298 125 1 0 2 -2 2 -4z m1870 -37 c41 -17 79 -34 83 -38 5 -5 -29
-23 -75 -41 -88 -33 -175 -57 -183 -49 -2 3 8 42 23 88 31 94 21 92 152 40z
m-519 -82 c-6 -53 -11 -101 -11 -106 0 -5 -8 -12 -17 -15 -270 -75 -547 -175
-888 -323 -231 -100 -236 -101 -122 -25 213 143 600 377 757 457 104 54 275
123 283 115 5 -4 4 -51 -2 -103z m768 -23 c7 -6 5 -7 -154 -84 -138 -66 -151
-70 -160 -53 -5 10 -24 32 -42 49 l-32 31 62 17 c34 10 98 32 142 50 l80 33
50 -19 c28 -11 52 -22 54 -24z m191 -80 l35 -15 -125 -73 c-69 -40 -199 -115
-290 -166 -216 -122 -212 -119 -234 -182 -48 -135 -189 -382 -247 -434 -89
-78 -337 -237 -524 -334 -107 -57 -306 -150 -319 -150 -2 0 14 33 35 73 84
157 138 388 125 529 -8 72 -35 165 -62 206 -9 13 -14 25 -12 27 9 10 257 98
508 182 157 53 293 100 303 105 37 19 11 94 -60 169 l-25 27 72 12 c39 7 108
10 152 8 91 -4 97 -8 123 -92 27 -83 28 -84 39 -32 11 46 14 49 61 67 28 10
104 45 170 77 l120 59 60 -25 c33 -13 76 -31 95 -38z m-872 -88 c47 -51 74
-99 66 -119 -3 -8 -145 -61 -338 -125 -367 -122 -511 -181 -622 -253 -80 -53
-164 -125 -164 -142 0 -6 17 5 38 24 52 50 119 101 177 135 81 49 82 49 106 1
56 -109 66 -288 25 -448 -25 -100 -106 -291 -140 -334 -25 -31 -173 -87 -386
-146 -260 -72 -514 -105 -720 -95 -142 7 -162 15 -195 84 -11 23 -23 41 -26
42 -4 0 -9 -13 -12 -29 -6 -30 -31 -61 -49 -61 -6 0 -27 17 -48 38 -69 69 -61
164 28 342 l47 95 46 -1 c25 -1 65 -11 90 -21 87 -39 86 -40 137 62 65 130
162 283 259 409 29 37 53 73 53 80 0 6 -29 24 -64 39 -35 16 -74 39 -87 53
l-23 24 30 31 c71 76 291 215 310 197 3 -4 -7 -29 -23 -55 -43 -70 -63 -127
-63 -177 0 -54 29 -82 94 -91 73 -11 154 16 531 177 176 75 279 116 475 185
147 52 372 122 396 123 6 0 30 -20 52 -44z m-1744 -457 c43 -19 46 -22 34 -39
-87 -122 -205 -305 -249 -387 -46 -87 -57 -102 -74 -97 -11 4 -23 9 -28 13 -4
4 15 57 43 117 62 131 212 414 221 414 4 0 28 -9 53 -21z m1646 -470 c-132
-116 -474 -314 -712 -413 -487 -201 -1076 -297 -1321 -216 -37 13 -66 25 -63
27 2 2 53 -1 112 -8 266 -29 645 20 975 127 315 101 683 280 936 455 110 76
140 88 73 28z m46 -192 c74 -77 125 -163 144 -239 7 -27 17 -48 23 -48 5 0 40
20 76 45 36 24 80 47 96 51 18 3 -13 -20 -79 -60 -61 -36 -114 -62 -118 -58
-4 4 -19 40 -32 80 -32 92 -84 170 -157 234 -55 47 -65 68 -35 68 8 0 44 -33
82 -73z m-83 -8 c20 -17 37 -34 37 -37 0 -4 -26 -23 -57 -41 -99 -58 -675
-411 -730 -447 -29 -19 -56 -34 -61 -34 -10 0 -107 98 -101 103 2 2 27 12 54
22 89 32 347 154 440 207 116 66 246 156 310 213 28 24 55 44 60 45 6 0 27
-14 48 -31z m-168 -5 c-129 -109 -439 -282 -667 -373 -106 -42 -132 -49 -153
-41 -37 14 -40 13 -80 -22 -27 -23 -55 -35 -103 -45 -84 -17 -418 -29 -452
-15 -19 7 -6 11 69 16 209 17 565 107 821 208 150 59 371 167 495 242 102 61
113 66 70 30z m230 -63 c-6 -5 -80 -52 -165 -103 -368 -224 -579 -353 -628
-385 -30 -19 -58 -33 -63 -31 -12 4 78 62 281 183 91 54 235 142 320 195 85
53 175 109 200 123 45 26 73 35 55 18z m48 -58 c50 -79 63 -64 -205 -235 -134
-86 -306 -195 -383 -243 -77 -47 -159 -100 -183 -117 -24 -17 -44 -29 -46 -27
-12 15 -66 125 -66 133 0 12 34 33 435 276 149 90 302 183 340 206 39 24 73
44 77 44 4 0 18 -17 31 -37z m67 -156 c0 -8 -78 -66 -172 -130 -95 -64 -285
-193 -423 -287 l-250 -171 -9 31 c-7 23 -6 34 5 44 8 7 106 71 219 141 113 71
297 186 409 257 112 70 208 128 213 128 4 0 8 -6 8 -13z m25 -47 c-9 -15 -832
-586 -860 -596 -8 -4 -15 -2 -15 4 0 13 47 46 385 277 149 101 317 215 373
254 98 67 131 84 117 61z m-1169 -139 c150 -112 233 -248 278 -453 6 -25 -1
-32 -85 -89 -51 -34 -111 -70 -134 -80 -41 -18 -139 -28 -152 -16 -3 4 8 7 25
7 50 0 135 37 231 100 l90 59 -15 63 c-32 141 -144 309 -260 389 -24 16 -44
34 -44 39 0 18 27 10 66 -19z"/>
<path d="M3780 2819 c-19 -5 -72 -21 -117 -35 l-83 -25 0 -112 c0 -62 -5 -158
-12 -215 -14 -127 -9 -137 55 -93 137 94 256 314 245 450 -3 30 -7 36 -28 38
-14 1 -41 -3 -60 -8z m17 -110 c-4 -28 -17 -74 -30 -102 -29 -62 -112 -177
-128 -177 -8 0 -10 18 -5 61 3 34 6 99 6 144 l0 82 73 21 c39 11 76 21 81 21
5 1 6 -22 3 -50z"/>
<path d="M3365 2686 c-71 -23 -145 -51 -164 -60 -32 -17 -33 -20 -27 -59 29
-179 28 -218 -1 -375 -11 -60 -12 -87 -5 -94 16 -16 86 13 179 75 124 83 170
177 179 367 6 105 -3 181 -21 186 -6 2 -68 -16 -140 -40z m103 -86 c5 -67 -15
-194 -39 -250 -12 -27 -41 -67 -64 -89 -43 -40 -118 -84 -127 -75 -3 2 -2 24
3 47 11 59 11 224 -1 287 -6 29 -8 55 -6 57 9 10 203 73 216 70 10 -1 16 -17
18 -47z"/>
<path d="M2188 2538 c-102 -121 -181 -244 -260 -400 -26 -54 -48 -107 -48
-118 0 -17 15 -28 68 -51 175 -77 320 -163 416 -245 22 -19 45 -34 52 -34 49
0 190 313 230 512 19 92 14 168 -15 233 -19 42 -19 42 -112 65 -52 12 -131 38
-176 56 -45 19 -88 34 -96 34 -8 0 -35 -24 -59 -52z m260 -70 c42 -12 81 -24
85 -28 11 -9 -229 -522 -265 -567 -7 -9 -19 -7 -47 11 -20 13 -65 38 -99 55
-34 17 -62 36 -62 41 0 16 133 277 191 376 74 126 89 146 106 140 8 -3 49 -16
91 -28z m127 -262 c-46 -159 -161 -426 -183 -426 -5 0 -16 6 -25 13 -16 11 -9
30 81 222 54 116 106 229 117 253 31 71 37 32 10 -62z"/>
<path d="M2904 2482 c-59 -43 -121 -118 -153 -186 -30 -63 -144 -384 -166
-468 -18 -66 -5 -75 66 -48 144 57 247 149 292 264 34 85 57 215 57 327 0 143
-20 166 -96 111z m30 -152 c-22 -255 -68 -355 -197 -440 -34 -22 -67 -40 -73
-40 -15 0 85 309 130 406 40 85 122 177 137 154 5 -8 7 -44 3 -80z"/>
</g>
</svg>
