<?xml version="1.0" standalone="no"?>
<!DOCTYPE svg PUBLIC "-//W3C//DTD SVG 20010904//EN"
 "http://www.w3.org/TR/2001/REC-SVG-20010904/DTD/svg10.dtd">
<svg version="1.0" xmlns="http://www.w3.org/2000/svg"
 width="668.000000pt" height="457.000000pt" viewBox="0 0 668.000000 457.000000"
 preserveAspectRatio="xMidYMid meet">
<metadata>
Created by potrace 1.16, written by Peter Selinger 2001-2019
</metadata>
<g transform="translate(0.000000,457.000000) scale(0.100000,-0.100000)"
fill="none" stroke="#000000">
<path d="M1400 3661 c-16 -16 -32 -41 -36 -56 -9 -35 10 -97 40 -132 24 -28
26 -28 155 -31 l131 -4 0 -34 0 -34 -194 0 c-113 0 -207 -4 -223 -11 -59 -22
-138 -120 -207 -257 -35 -69 -111 -258 -134 -332 -6 -19 -25 -81 -42 -137
l-31 -103 -172 0 c-202 0 -227 -8 -265 -80 -22 -44 -22 -48 -22 -475 0 -427 0
-431 22 -475 33 -65 72 -83 183 -88 l91 -4 11 -64 c29 -168 136 -287 297 -330
66 -18 240 -19 254 -1 6 6 13 26 17 42 4 17 19 71 33 120 24 83 31 94 87 150
127 126 317 176 499 129 173 -44 323 -197 371 -379 7 -30 17 -60 20 -65 7 -12
1904 -14 1921 -2 6 4 19 34 29 67 54 189 196 334 370 380 72 18 191 19 266 1
73 -17 182 -77 237 -129 58 -56 117 -157 138 -237 10 -36 22 -71 28 -78 7 -10
60 -13 250 -10 239 3 242 3 299 30 80 37 128 78 171 142 50 76 66 146 66 293
l0 123 95 0 95 0 0 55 0 55 -95 0 c-94 0 -95 0 -95 25 0 23 3 24 78 27 l77 3
0 105 0 105 -82 3 c-78 3 -82 4 -91 30 -13 37 -64 98 -109 133 -109 83 -433
125 -1036 136 -353 6 -357 6 -362 27 -2 12 -11 59 -20 106 -49 275 -155 542
-305 763 -59 89 -100 128 -165 161 -80 40 -126 45 -357 46 l-218 0 0 34 0 34
121 4 121 3 39 44 c33 37 39 51 39 88 0 38 -5 50 -34 79 l-34 34 -1147 0
-1147 0 -28 -29z m350 -81 l0 -60 -152 0 c-127 0 -154 3 -170 17 -22 20 -23
61 -1 85 14 16 34 18 170 18 l153 0 0 -60z m400 0 l0 -60 -180 0 -180 0 0 60
0 60 180 0 180 0 0 -60z m400 0 l0 -60 -180 0 -180 0 0 60 0 60 180 0 180 0 0
-60z m430 0 l0 -60 -195 0 -195 0 0 60 0 60 195 0 195 0 0 -60z m400 0 l0 -59
-170 -3 c-94 -2 -175 -1 -180 0 -6 2 -10 30 -10 63 l0 59 180 0 180 0 0 -60z
m345 46 c11 -8 18 -25 17 -45 -1 -58 -9 -61 -173 -61 l-149 0 0 60 0 60 143 0
c104 0 148 -4 162 -14z m-385 -221 l0 -35 -760 0 -760 0 0 35 0 35 760 0 760
0 0 -35z m611 -143 c61 -21 118 -66 159 -124 l38 -56 -24 -23 c-29 -27 -44
-77 -35 -116 15 -70 156 -468 175 -496 25 -38 79 -67 123 -67 38 0 39 -1 48
-67 l7 -53 -96 0 -96 0 0 30 c0 28 -46 166 -202 605 -27 77 -58 163 -68 192
-25 70 -45 99 -85 117 -29 14 -101 16 -581 16 l-547 0 -43 -44 -42 -44 -24 25
c-12 14 -40 34 -60 44 -35 18 -65 19 -533 19 -437 0 -500 -2 -528 -16 -45 -23
-66 -44 -88 -86 -18 -35 -19 -65 -19 -448 l0 -410 -260 0 -260 0 0 28 c0 72
-3 70 158 74 138 3 150 5 192 30 28 16 55 43 70 70 25 42 25 46 25 273 0 219
-1 232 -22 272 -25 47 -67 80 -118 94 l-35 10 22 41 c13 22 41 61 64 85 l41
43 1304 -2 c1005 -3 1312 -6 1340 -16z m-1361 -93 c21 -12 47 -38 59 -59 20
-37 21 -49 21 -418 0 -328 -2 -381 -15 -386 -8 -3 -15 -15 -15 -26 0 -20 -4
-20 -590 -20 l-591 0 3 414 c3 403 4 415 24 443 11 15 36 38 54 51 l33 22 490
0 c480 0 490 0 527 -21z m1301 -2 c37 -25 43 -38 114 -242 108 -307 128 -366
167 -470 22 -60 43 -129 46 -152 l5 -43 -742 0 c-718 0 -741 1 -741 19 0 10
-7 24 -15 31 -13 11 -15 66 -15 384 0 204 5 389 10 411 5 22 21 50 35 63 l26
22 538 0 538 0 34 -23z m-2660 -186 l29 -29 0 -217 0 -217 -29 -29 -29 -29
-131 0 -130 0 14 48 c7 26 23 83 35 126 23 82 102 300 126 349 21 39 74 38
115 -2z m3017 -68 c54 -114 94 -218 122 -318 12 -44 24 -88 27 -98 4 -15 0
-18 -23 -15 -28 3 -31 10 -111 242 -75 215 -89 276 -64 276 4 0 26 -39 49 -87z
m-2818 -917 c0 -136 3 -167 16 -180 19 -20 15 -20 110 6 65 17 108 21 244 22
184 1 242 -11 386 -80 83 -39 203 -146 258 -227 19 -30 42 -59 50 -67 35 -28
141 15 175 71 l18 29 22 -31 c12 -17 37 -39 54 -50 31 -18 57 -19 700 -19 739
0 713 -2 760 64 21 30 22 39 25 329 l3 297 547 0 c563 0 653 -5 902 -46 114
-20 145 -31 194 -74 57 -51 64 -72 68 -210 l3 -125 -65 -5 -65 -5 -3 -52 -3
-52 68 -3 68 -3 3 -55 c4 -71 -20 -132 -75 -191 -24 -26 -67 -57 -96 -70 -49
-22 -65 -24 -241 -24 l-188 0 -23 62 c-34 95 -83 168 -161 243 -190 181 -450
219 -690 101 -161 -80 -258 -200 -318 -393 -5 -17 -56 -18 -886 -18 -623 0
-880 3 -880 11 0 23 -55 146 -84 189 -145 213 -384 314 -627 266 -166 -34
-304 -128 -398 -271 -26 -39 -55 -99 -66 -134 l-19 -63 -51 6 c-124 14 -222
80 -266 178 -22 49 -24 67 -27 258 -3 189 9 351 35 458 l5 22 259 0 259 0 0
-164z m1210 145 c0 -10 7 -24 15 -31 11 -9 15 -34 15 -100 0 -66 -4 -91 -15
-100 -11 -9 -15 -34 -15 -101 0 -79 2 -89 21 -103 21 -14 21 -18 10 -73 -14
-69 -56 -118 -115 -134 -45 -12 -35 -21 -115 92 -84 117 -230 216 -386 261
-69 20 -103 23 -240 23 -117 0 -182 -5 -243 -18 -46 -10 -90 -16 -98 -13 -11
4 -14 35 -14 161 l0 155 590 0 c571 0 590 -1 590 -19z m1578 -276 l-3 -295
-33 -32 -32 -33 -665 -3 c-721 -3 -714 -3 -750 51 -9 14 -19 51 -22 82 -5 47
-3 59 10 67 24 13 25 189 2 208 -11 9 -15 34 -15 95 0 61 4 86 15 95 8 7 15
20 15 30 0 9 3 20 7 23 3 4 337 7 740 7 l734 0 -3 -295z m1972 -5 l0 -80 -65
0 -65 0 0 80 0 80 65 0 65 0 0 -80z"/>
<path d="M1685 3125 c-5 -2 -22 -6 -37 -9 -39 -9 -88 -54 -109 -101 -16 -35
-19 -69 -19 -271 0 -248 7 -292 53 -343 46 -50 56 -51 499 -51 410 0 413 1
453 23 52 30 82 76 90 140 4 29 5 149 3 267 -3 230 -7 249 -60 296 -54 49 -50
49 -468 51 -217 1 -399 0 -405 -2z m810 -120 l25 -24 0 -245 0 -244 -31 -26
-31 -26 -383 0 c-260 0 -392 4 -408 11 -43 19 -47 46 -47 295 l0 235 25 24 24
25 401 0 401 0 24 -25z"/>
<path d="M2885 3105 c-53 -19 -92 -66 -106 -129 -7 -33 -10 -134 -7 -281 l3
-230 28 -47 c48 -82 17 -78 630 -78 l544 0 34 23 c45 30 79 83 79 121 0 17
-19 81 -41 141 -23 61 -62 169 -88 240 -26 72 -58 149 -69 172 -41 79 -30 78
-527 80 -360 2 -447 0 -480 -12z m916 -101 c11 -14 107 -263 174 -457 l24 -69
-24 -24 -24 -24 -520 0 -520 0 -20 26 c-20 25 -21 39 -21 271 l0 244 25 24 24
25 434 0 c384 0 436 -2 448 -16z"/>
<path d="M5479 2071 c-43 -43 -36 -91 17 -119 11 -6 62 -18 114 -27 90 -16 94
-16 119 3 33 24 40 79 13 112 -14 17 -40 27 -113 41 -121 24 -116 24 -150 -10z
m145 -20 c90 -19 106 -29 106 -68 0 -38 -31 -46 -120 -29 -45 9 -90 20 -100
26 -26 14 -27 65 -2 79 21 13 11 14 116 -8z"/>
<path d="M2910 2076 c-6 -8 -10 -25 -8 -38 3 -22 6 -23 108 -23 104 0 105 0
108 24 6 39 -21 51 -114 51 -59 0 -85 -4 -94 -14z"/>
<path d="M1660 1382 c-127 -33 -230 -117 -287 -233 -66 -133 -65 -270 1 -405
45 -90 112 -154 214 -202 74 -36 81 -37 187 -37 106 0 113 1 185 36 98 47 168
116 216 214 31 63 38 89 42 156 8 143 -29 249 -121 347 -63 66 -119 100 -206
124 -80 22 -146 22 -231 0z m263 -111 c67 -32 138 -105 173 -176 25 -52 29
-71 29 -145 0 -76 -4 -93 -32 -151 -64 -129 -177 -201 -318 -202 -136 0 -262
78 -322 202 -25 49 -28 67 -28 151 0 87 3 100 32 155 45 87 127 158 213 186
14 5 66 7 115 6 70 -2 101 -8 138 -26z"/>
<path d="M1727 1157 c-158 -49 -198 -251 -71 -355 102 -84 251 -52 312 68 58
115 -8 257 -134 289 -51 13 -58 13 -107 -2z m133 -86 c107 -74 55 -244 -75
-244 -125 0 -181 151 -87 236 43 39 113 42 162 8z"/>
<path d="M4630 1382 c-127 -33 -226 -116 -288 -241 -36 -74 -37 -77 -37 -195
0 -118 1 -123 35 -191 168 -339 645 -339 810 -1 124 255 -18 558 -295 631 -75
19 -143 18 -225 -3z m242 -102 c72 -27 147 -95 189 -172 32 -59 34 -69 34
-158 0 -83 -3 -102 -27 -151 -38 -75 -100 -136 -177 -172 -172 -81 -386 0
-467 175 -25 54 -29 75 -29 148 1 70 5 95 26 140 44 95 116 160 217 196 57 20
172 17 234 -6z"/>
<path d="M4710 1161 c-80 -26 -128 -73 -150 -148 -56 -188 179 -340 326 -211
106 93 97 260 -17 330 -47 30 -118 42 -159 29z m118 -88 c95 -60 74 -208 -35
-244 -72 -24 -160 38 -170 119 -13 105 115 183 205 125z"/>
</g>
</svg>
