<?xml version="1.0" standalone="no"?>
<!DOCTYPE svg PUBLIC "-//W3C//DTD SVG 20010904//EN"
 "http://www.w3.org/TR/2001/REC-SVG-20010904/DTD/svg10.dtd">
<svg version="1.0" xmlns="http://www.w3.org/2000/svg"
 width="1500.000000pt" height="977.000000pt" viewBox="0 0 1500.000000 977.000000"
 preserveAspectRatio="xMidYMid meet">
<metadata>
Created by potrace 1.16, written by Peter Selinger 2001-2019
</metadata>
<g transform="translate(0.000000,977.000000) scale(0.100000,-0.100000)"
fill="none" stroke="#000000">
<path d="M9348 9759 c-12 -7 -18 -22 -18 -48 l0 -37 -112 -47 c-367 -151
-1457 -587 -2103 -842 -220 -87 -551 -218 -735 -292 -444 -179 -680 -272 -880
-348 -91 -34 -264 -101 -385 -148 -121 -47 -332 -129 -470 -182 -137 -53 -318
-123 -401 -156 -83 -32 -154 -59 -158 -59 -4 0 -66 -23 -139 -51 -73 -29 -233
-89 -357 -134 -332 -122 -781 -294 -1049 -402 -658 -266 -532 -228 -1126 -338
-455 -83 -733 -141 -749 -154 -9 -7 -82 -110 -162 -229 -81 -120 -184 -264
-228 -322 -44 -58 -106 -139 -138 -181 -34 -46 -70 -82 -88 -89 -39 -16 -50
-37 -50 -98 0 -107 -4 -103 148 -156 76 -27 172 -59 215 -73 l78 -26 162 36
c89 20 333 75 542 122 209 47 463 104 565 125 102 22 232 52 290 66 58 14 240
54 405 89 497 106 533 114 720 161 99 25 252 61 340 79 88 19 373 81 634 140
260 58 478 105 485 105 6 0 20 -22 32 -48 18 -40 30 -52 83 -80 34 -19 99 -46
144 -61 98 -34 349 -132 358 -140 7 -7 15 -261 29 -921 4 -234 13 -623 19
-865 6 -242 15 -636 21 -875 5 -239 14 -601 20 -805 5 -203 11 -501 14 -662
l6 -291 -34 -20 c-46 -27 -59 -87 -50 -239 l7 -114 30 -16 c23 -11 50 -14 105
-11 l73 5 -7 -51 c-11 -81 -31 -137 -61 -168 -72 -75 -5 -178 116 -178 71 0
151 80 183 183 10 32 9 40 -3 48 -29 18 -49 9 -69 -31 -28 -55 -88 -120 -111
-120 -27 0 -25 43 6 133 14 40 31 102 39 137 l13 64 73 30 c94 38 99 50 105
243 l5 146 -36 33 -35 33 6 368 c3 203 10 708 15 1123 5 415 12 901 15 1080 7
426 25 1712 25 1789 0 60 0 61 38 80 38 19 51 36 151 198 18 28 38 56 45 62 6
6 108 30 225 55 117 25 215 47 218 49 7 7 -67 47 -154 83 -83 34 -83 34 -141
20 -31 -8 -70 -16 -87 -18 -29 -3 -30 -2 -30 41 0 41 2 45 30 53 54 15 386 87
590 128 182 37 416 86 970 205 369 80 1061 215 1097 215 15 0 17 -18 20 -150
3 -167 1 -162 76 -182 l42 -12 1 -146 c1 -80 2 -1363 3 -2852 l2 -2708 -73
-30 c-139 -58 -348 -137 -443 -168 -52 -17 -134 -47 -183 -67 l-87 -37 0 -98
0 -98 43 -17 c23 -10 139 -50 257 -90 201 -68 307 -107 750 -272 96 -36 258
-94 360 -129 102 -36 208 -74 236 -85 l50 -21 80 32 c123 49 467 178 589 220
61 21 191 68 290 105 209 78 459 166 563 200 117 37 122 42 122 128 0 43 -5
80 -12 90 -17 21 -110 63 -273 121 -157 57 -494 185 -515 196 -12 7 -15 90
-17 602 -1 326 -1 604 -1 618 0 14 1 266 1 560 0 294 0 567 1 605 0 39 0 230
0 425 -1 195 -1 373 -1 395 0 22 0 400 0 840 0 440 -1 829 -2 865 -2 36 -1
149 0 252 5 218 -9 193 139 256 271 115 376 162 399 180 25 19 26 21 32 193 3
96 6 319 5 497 l-1 324 -33 29 c-18 16 -49 31 -72 35 -49 8 -44 19 12 28 24 4
138 29 253 56 116 27 237 54 270 60 33 6 170 36 305 65 135 30 299 66 365 80
66 14 203 45 305 70 276 65 621 137 628 131 11 -11 14 -280 4 -333 -15 -84 -9
-97 61 -127 34 -14 108 -39 165 -55 56 -16 121 -38 145 -49 23 -11 78 -30 122
-42 44 -12 118 -36 165 -52 97 -34 145 -34 260 2 36 11 153 43 260 71 107 27
199 54 203 58 9 9 10 745 1 801 l-6 36 69 13 c139 25 378 84 385 95 10 15 10
58 -1 75 -5 7 -30 17 -57 22 -69 13 -100 27 -112 52 -7 16 -37 32 -103 56
-162 59 -191 88 -169 169 6 23 8 52 4 66 -6 27 -8 27 -164 76 -58 18 -170 57
-250 87 -176 66 -221 73 -314 44 -38 -12 -94 -24 -125 -27 -31 -3 -92 -14
-136 -24 -44 -10 -122 -23 -174 -30 -120 -14 -181 -27 -205 -45 -13 -10 -23
-37 -31 -82 -8 -50 -15 -67 -26 -64 -8 2 -45 9 -84 16 -38 7 -95 20 -125 28
-30 9 -134 31 -230 48 -96 17 -218 42 -270 56 -52 14 -149 35 -215 48 -66 13
-145 30 -175 39 -30 8 -117 27 -192 41 -76 13 -209 40 -295 59 -87 19 -244 53
-350 75 -106 22 -220 48 -255 57 -88 23 -335 77 -588 128 -118 24 -292 62
-386 85 l-171 40 -91 -30 -90 -30 -108 25 c-60 13 -116 27 -124 30 -8 3 -23 1
-32 -5z m850 -150 c130 -28 343 -75 472 -104 129 -30 316 -70 415 -90 99 -20
244 -52 322 -71 78 -18 150 -34 160 -34 10 0 68 -12 128 -26 61 -14 187 -41
280 -60 94 -19 224 -48 290 -64 66 -15 136 -31 155 -35 33 -6 206 -43 545
-116 178 -38 185 -41 185 -79 0 -20 -5 -30 -15 -30 -19 0 -305 58 -555 114
-300 66 -863 185 -1030 216 -157 30 -504 105 -665 145 -55 13 -206 47 -335 75
-269 59 -562 132 -614 154 -25 10 -36 21 -36 35 0 31 28 28 298 -30z m-783
-13 l30 -25 -80 -36 c-44 -21 -125 -54 -180 -75 -55 -21 -257 -102 -450 -180
-1540 -626 -2397 -967 -3080 -1225 -209 -79 -486 -185 -615 -235 -129 -50
-368 -142 -530 -205 -498 -191 -1122 -432 -1390 -537 -281 -110 -441 -167
-570 -203 -84 -23 -330 -75 -353 -75 -7 1 202 82 463 180 992 376 1687 642
2575 987 584 227 892 348 1935 763 217 86 600 239 850 338 507 202 1241 499
1310 531 56 25 49 26 85 -3z m817 -135 c16 -6 85 -22 155 -36 71 -14 148 -32
173 -41 25 -8 92 -24 150 -35 57 -11 118 -26 135 -33 17 -7 53 -16 80 -20 28
-4 70 -13 95 -21 49 -15 99 -25 256 -55 56 -10 137 -27 180 -38 44 -11 122
-27 174 -36 52 -9 122 -22 155 -30 59 -15 248 -54 394 -81 41 -8 113 -23 160
-34 47 -11 120 -27 161 -36 41 -9 93 -20 115 -24 22 -5 83 -16 135 -25 103
-18 200 -45 200 -57 0 -4 -55 -17 -122 -29 -68 -11 -154 -30 -193 -40 -38 -11
-108 -24 -155 -31 -47 -6 -119 -19 -160 -29 -41 -10 -113 -24 -160 -30 -47 -6
-105 -18 -130 -25 -25 -8 -76 -19 -115 -25 -38 -6 -115 -21 -170 -35 -55 -13
-201 -42 -325 -65 -123 -22 -265 -51 -315 -65 -49 -13 -115 -27 -145 -30 -30
-4 -86 -15 -125 -25 -38 -11 -119 -26 -180 -35 -60 -10 -146 -25 -190 -35
-123 -28 -152 -30 -165 -15 -6 8 -22 56 -35 108 -13 52 -35 119 -49 149 -14
30 -26 66 -26 79 0 13 -14 62 -31 109 -17 47 -47 141 -68 210 -21 69 -65 212
-99 319 -34 107 -62 197 -62 201 0 8 260 -43 302 -59z m-758 -28 c-42 -126
-276 -1030 -341 -1318 -9 -38 -17 -71 -17 -72 -1 -1 -242 -40 -536 -88 -294
-47 -654 -107 -800 -131 -146 -25 -362 -61 -480 -80 -217 -35 -765 -133 -1005
-179 -71 -14 -211 -38 -310 -55 -99 -16 -319 -54 -490 -85 -409 -73 -926 -164
-995 -175 -194 -30 -885 -148 -1088 -186 -234 -44 -301 -52 -210 -25 64 19
540 197 638 238 128 54 222 90 985 378 77 29 237 91 355 138 118 47 312 122
430 168 118 45 312 119 430 164 273 105 914 359 1407 559 210 85 444 178 520
206 76 29 208 82 293 118 205 86 1116 454 1200 485 34 12 36 5 14 -60z m396
-3 c41 -57 103 -250 87 -266 -3 -3 -37 11 -76 30 l-71 36 0 48 c0 26 3 77 7
115 7 76 19 84 53 37z m-285 -117 l45 -68 0 -98 c0 -54 -4 -97 -8 -95 -5 2
-43 17 -85 33 -42 17 -77 35 -77 41 0 6 11 42 23 80 13 38 30 93 36 122 7 28
15 52 17 52 2 0 24 -30 49 -67z m4530 -90 c44 -17 127 -46 185 -64 58 -19 104
-38 103 -44 -1 -5 -32 -17 -70 -26 -37 -9 -135 -32 -218 -52 -227 -55 -224
-54 -340 -9 -55 22 -165 61 -245 88 -80 27 -136 50 -125 52 11 1 119 23 240
47 271 54 346 55 470 8z m-4215 -88 c39 -19 70 -38 70 -41 0 -3 -23 -31 -51
-62 -28 -32 -65 -81 -81 -110 -17 -29 -32 -51 -34 -50 -7 8 10 298 18 298 5 0
40 -16 78 -35z m3505 -45 c85 -25 382 -123 437 -145 24 -9 41 -78 36 -142 -3
-29 -7 -55 -10 -58 -6 -6 -229 64 -241 75 -5 4 -2 21 7 38 9 17 16 38 16 46 0
19 -66 39 -273 81 -86 17 -159 34 -162 36 -2 3 -1 30 2 60 l6 56 41 -9 c22 -5
86 -22 141 -38z m-3856 -66 l71 -35 0 -80 c0 -43 -3 -79 -7 -79 -5 0 -24 24
-43 52 -19 29 -56 75 -82 104 -78 84 -57 97 61 38z m505 -142 c30 -92 58 -187
62 -212 4 -24 20 -72 34 -105 27 -58 90 -264 90 -291 0 -9 -18 -2 -52 19 -29
19 -99 60 -155 91 l-102 58 74 89 c100 119 100 121 71 156 -14 16 -65 58 -115
93 -50 35 -91 68 -91 74 0 18 114 196 125 196 2 0 29 -75 59 -168z m-585 70
c16 -32 55 -96 85 -142 31 -46 55 -85 53 -86 -6 -6 -249 -55 -253 -51 -11 10
68 337 81 337 3 0 18 -26 34 -58z m4512 -657 c-3 -522 -6 -643 -17 -654 -7 -8
-17 -11 -21 -7 -10 9 -17 1180 -8 1254 6 47 9 53 28 50 l22 -3 -4 -640z m-888
458 c9 -21 19 -55 23 -77 8 -46 13 -46 -143 20 -57 24 -107 44 -113 44 -5 0
-10 4 -10 9 0 5 29 12 65 16 35 3 77 10 92 15 55 16 69 12 86 -27z m-319 -68
c10 -22 21 -59 24 -83 l5 -42 -69 31 c-38 17 -81 37 -97 45 -15 9 -51 23 -80
33 l-52 19 40 6 c22 4 67 13 100 21 91 20 107 17 129 -30z m191 -42 c22 -11
64 -28 93 -37 28 -10 52 -22 52 -26 0 -5 -17 -12 -37 -15 -21 -3 -69 -13 -108
-21 -38 -8 -78 -17 -87 -19 -14 -2 -18 4 -18 23 -1 15 -9 52 -20 82 -11 30
-19 58 -20 62 0 9 93 -23 145 -49z m-3354 10 c14 -16 20 -176 8 -188 -3 -3
-67 30 -142 72 -74 43 -134 79 -133 81 3 2 224 48 247 51 4 1 13 -6 20 -16z
m2832 -22 c19 -47 34 -145 21 -139 -100 48 -261 118 -273 118 -60 0 133 53
215 58 17 2 26 -8 37 -37z m-2413 11 c0 -4 -32 -47 -70 -95 l-71 -87 -39 26
-40 27 0 68 0 69 110 0 c61 0 110 -3 110 -8z m2575 -51 c55 -26 117 -54 138
-61 23 -7 35 -16 30 -21 -9 -9 -110 -32 -194 -43 -53 -8 -54 -6 -69 79 -5 28
-12 60 -16 73 -3 12 -3 22 2 22 4 0 53 -22 109 -49z m952 -8 c7 -19 -47 -41
-155 -63 -131 -26 -227 -31 -227 -10 0 20 74 44 215 68 126 22 161 23 167 5z
m-1477 -19 c6 -14 10 -52 10 -84 l0 -58 -47 24 c-92 45 -178 83 -206 90 -15 3
-26 8 -23 11 9 9 171 41 214 42 37 1 44 -2 52 -25z m-2592 -88 c56 -32 102
-59 102 -61 0 -2 -50 -30 -110 -64 -61 -33 -134 -79 -163 -100 -74 -56 -108
-121 -63 -121 7 0 20 -15 29 -34 21 -46 32 -106 19 -106 -6 0 -14 15 -18 34
-4 24 -16 42 -40 58 -19 13 -34 27 -34 31 0 5 25 103 55 218 30 115 55 216 55
225 0 14 4 14 33 -3 17 -11 78 -45 135 -77z m2780 45 c59 -26 124 -54 145 -60
20 -7 37 -16 37 -20 0 -10 -144 -42 -216 -48 -73 -7 -77 -3 -98 107 -12 66
-12 70 6 70 10 0 67 -22 126 -49z m-527 -17 c5 -15 12 -53 16 -84 6 -63 -3
-79 -36 -58 -11 6 -70 32 -133 57 -62 25 -111 50 -108 56 5 10 182 51 228 54
16 1 25 -7 33 -25z m1397 -5 c4 -23 -52 -43 -176 -64 -77 -13 -106 -15 -115
-6 -21 21 16 40 123 65 119 28 163 29 168 5z m-1231 -44 c106 -44 187 -85 180
-91 -4 -4 -251 -54 -267 -54 -3 0 -4 17 -2 38 1 20 -3 61 -11 90 -17 64 -16
65 100 17z m-528 -40 c8 -16 17 -58 19 -92 l4 -62 -48 24 c-27 13 -95 46 -152
72 l-103 48 108 22 c138 27 154 26 172 -12z m1429 18 c-5 -25 -50 -44 -153
-65 -115 -22 -155 -23 -155 -2 0 20 55 42 160 65 114 24 152 24 148 2z m-1240
-64 c56 -27 107 -49 112 -49 15 0 60 -23 60 -30 0 -4 -21 -11 -47 -15 -27 -4
-73 -13 -103 -21 -85 -22 -119 -19 -130 12 -6 14 -10 43 -10 65 0 22 -7 54
-16 70 -15 30 -15 31 8 24 13 -4 69 -29 126 -56z m2307 -1 c8 -58 2 -695 -7
-703 -4 -4 -35 4 -70 18 -35 14 -175 62 -313 107 -137 46 -251 84 -253 85 -7
6 -2 389 5 396 11 11 560 135 610 138 18 1 23 -6 28 -41z m-3861 -24 c57 -30
115 -66 131 -78 l28 -23 -109 -26 c-154 -38 -242 -55 -249 -49 -3 3 -5 29 -5
59 0 46 5 60 43 112 23 33 46 60 50 60 5 1 55 -24 111 -55z m1004 24 c6 -7 11
-17 12 -23 1 -5 6 -20 11 -33 5 -13 9 -43 9 -67 l0 -44 -32 19 c-18 10 -67 31
-108 46 -75 27 -120 50 -120 63 0 9 155 49 191 50 15 1 31 -5 37 -11z m1452
-7 c0 -27 -66 -50 -214 -76 -114 -19 -126 -19 -126 3 0 24 31 38 127 56 43 9
98 19 123 25 73 15 90 13 90 -8z m-2841 -103 c1 -100 -11 -108 -215 -140 -67
-11 -72 -10 -102 12 -18 13 -32 27 -32 30 0 12 112 86 225 149 127 70 122 72
124 -51z m1575 38 c56 -24 119 -52 141 -63 46 -24 45 -24 -85 -47 -155 -27
-144 -30 -151 39 -4 33 -10 72 -14 88 -4 15 -4 27 0 27 3 0 52 -20 109 -44z
m-499 -57 c18 -66 19 -161 3 -177 -17 -17 -35 -15 -84 9 l-42 22 1 98 1 99 25
1 c14 0 35 4 46 9 27 11 34 2 50 -61z m-187 1 c5 -74 -8 -294 -17 -309 -6 -10
-16 -9 -43 2 -29 12 -37 22 -42 51 -4 21 -25 92 -46 159 -21 67 -38 123 -36
124 7 7 134 31 156 30 23 -2 25 -6 28 -57z m1572 41 c0 -24 -55 -47 -147 -61
-37 -5 -83 -12 -100 -15 -28 -5 -33 -3 -33 15 0 26 23 36 135 59 122 26 145
26 145 2z m-1122 -96 c75 -36 83 -49 35 -58 -16 -3 -53 -12 -83 -20 -30 -8
-75 -17 -100 -21 l-46 -7 1 43 c0 24 -4 66 -8 95 l-8 52 68 -25 c37 -14 101
-40 141 -59z m802 29 c0 -22 -73 -51 -174 -69 -133 -23 -161 -19 -133 19 8 11
52 25 127 40 142 29 180 32 180 10z m-352 -72 c6 -20 -77 -51 -199 -71 -111
-19 -128 -18 -129 11 0 15 48 32 155 54 119 24 166 26 173 6z m-1660 -194 c3
-138 -6 -188 -32 -188 -33 0 -46 41 -46 146 0 128 7 163 34 174 12 5 26 7 31
6 6 -2 11 -59 13 -138z m1310 125 c-7 -35 -83 -62 -245 -88 -41 -6 -43 -6 -43
19 0 28 9 32 160 65 113 25 132 25 128 4z m-1463 -65 c3 -24 5 -71 3 -105 l-3
-62 -107 87 c-59 48 -107 90 -108 93 0 7 116 25 172 27 36 2 37 1 43 -40z
m500 -27 c175 -43 278 -78 270 -91 -3 -5 -31 -14 -63 -20 -31 -7 -93 -22 -137
-35 -92 -26 -332 -71 -339 -64 -8 7 29 178 47 222 14 31 20 37 39 33 13 -3 95
-23 183 -45z m-990 -58 c-7 -36 -54 -195 -60 -201 -2 -2 -58 38 -125 90 -69
52 -116 94 -108 97 20 7 250 48 277 50 22 1 23 -2 16 -36z m-450 -55 c-69
-296 -88 -375 -94 -386 -5 -9 -73 32 -237 144 -264 181 -238 163 -233 168 5 5
515 93 547 95 18 1 21 -3 17 -21z m2165 -95 c113 -37 204 -72 202 -78 -4 -13
-42 -26 -212 -75 -254 -73 -258 -73 -347 -45 -43 13 -170 49 -282 80 -112 31
-209 59 -214 62 -6 4 59 21 144 40 85 18 201 46 259 62 154 43 196 39 450 -46z
m-2105 -300 c-4 -40 -11 -73 -15 -73 -5 0 -21 5 -36 10 -26 10 -27 12 -21 73
5 55 43 237 64 307 10 33 16 -222 8 -317z m-820 265 c-2 -13 -12 -75 -20 -138
-9 -63 -21 -143 -27 -177 l-10 -63 -40 0 c-43 0 -48 3 -193 110 -49 37 -134
97 -188 133 -54 37 -97 67 -95 68 43 11 514 88 541 88 34 1 37 -1 32 -21z m92
-155 c-5 -154 -8 -179 -23 -190 -10 -7 -21 -13 -26 -13 -14 0 -8 122 12 243
11 65 20 123 20 128 0 5 5 9 12 9 8 0 10 -47 5 -177z m291 16 c54 -38 113 -83
132 -99 l35 -29 -31 -1 c-17 0 -51 13 -80 31 -56 36 -194 151 -239 200 l-30
32 58 -32 c32 -18 102 -63 155 -102z m1705 71 c124 -32 502 -153 527 -170 13
-8 15 -74 16 -487 1 -263 -3 -488 -7 -500 -12 -34 -51 -38 -148 -15 -108 25
-232 74 -418 163 l-143 68 0 253 c0 139 3 358 7 486 7 272 -13 247 166 202z
m-1902 -36 c13 -14 63 -58 112 -96 48 -39 87 -74 87 -79 0 -4 -17 -11 -37 -14
-21 -3 -69 -12 -107 -20 -96 -21 -98 -19 -95 122 1 62 5 113 9 113 4 0 17 -12
31 -26z m-946 -11 c-18 -48 -70 -239 -86 -322 -11 -52 -20 -96 -22 -97 -1 -1
-18 -4 -38 -8 -40 -7 -40 -7 -325 209 -155 117 -157 120 -129 128 27 7 561
103 594 106 9 1 11 -5 6 -16z m2259 -30 c22 -64 32 -168 17 -177 -39 -24 -151
68 -151 123 0 29 42 91 61 91 5 0 22 -19 39 -42 34 -47 35 -46 15 11 -8 22
-10 41 -5 41 4 0 15 -21 24 -47z m1660 -4 c8 -41 8 -670 0 -776 l-7 -81 -63
-31 c-64 -31 -202 -88 -326 -135 -61 -23 -68 -23 -69 -8 -1 9 -2 225 -3 479
l-1 461 40 7 c50 8 263 69 330 94 75 29 91 27 99 -10z m-3606 -68 c139 -95
237 -172 234 -186 -5 -26 -58 -5 -144 55 -94 66 -238 194 -238 212 0 16 24 3
148 -81z m1532 44 c10 -12 9 -25 -7 -68 l-20 -52 -75 -14 c-103 -19 -110 -15
-106 56 l3 58 85 17 c109 21 105 21 120 3z m-1800 -210 c-12 -114 -20 -135
-51 -135 -15 0 -19 7 -19 38 0 45 23 145 53 232 l22 65 3 -45 c2 -25 -1 -94
-8 -155z m243 32 l107 -82 -42 -9 c-24 -4 -90 -18 -148 -31 -58 -13 -106 -22
-108 -20 -4 3 18 243 24 263 3 9 12 5 31 -13 16 -15 76 -63 136 -108z m-1143
89 c0 -2 -11 -61 -24 -132 -14 -71 -30 -175 -37 -232 -12 -97 -14 -103 -39
-108 -14 -3 -32 -8 -40 -10 -20 -5 -567 364 -549 370 8 3 106 21 219 40 113
20 255 44 315 55 111 19 155 24 155 17z m327 -98 c78 -57 176 -134 218 -171
76 -67 152 -112 230 -137 91 -29 87 -53 -7 -44 -69 6 -79 10 -168 72 -276 189
-430 318 -430 358 0 13 4 24 8 24 5 0 72 -46 149 -102z m-227 -17 c0 -72 -29
-300 -41 -322 -6 -11 -18 -19 -27 -17 -34 6 -27 121 19 321 17 73 23 86 35 76
8 -7 14 -30 14 -58z m1997 22 l56 -38 -189 -37 c-104 -21 -192 -38 -196 -38
-5 0 -8 22 -8 49 l0 50 53 10 c28 6 81 17 117 25 96 21 105 19 167 -21z
m-2864 -54 c24 -13 470 -309 501 -334 24 -18 19 -24 -30 -35 -37 -8 -41 -6
-163 87 -245 187 -402 330 -308 282z m1065 -100 c70 -56 128 -103 130 -104 2
-1 -59 -17 -135 -35 -76 -18 -144 -35 -152 -38 -10 -4 -12 4 -8 34 4 21 9 85
13 142 3 56 10 102 15 102 5 0 66 -46 137 -101z m-1238 75 c0 -9 -20 -116 -45
-238 -25 -123 -45 -235 -45 -248 0 -27 -20 -38 -70 -38 -26 0 -580 364 -587
386 -2 7 29 17 79 27 46 9 166 32 268 51 102 20 230 44 285 55 55 10 103 19
108 20 4 0 7 -6 7 -15z m4081 -98 c30 -74 38 -107 33 -132 -3 -18 0 -48 7 -68
7 -19 10 -38 6 -42 -8 -8 -77 9 -151 37 l-54 20 -6 82 c-4 45 -3 105 1 132 8
49 9 50 53 62 25 6 51 11 58 10 8 -1 32 -47 53 -101z m-231 -46 l0 -110 -27 6
c-16 3 -45 13 -65 21 -43 18 -46 29 -22 109 16 57 45 83 92 84 21 0 22 -2 22
-110z m-3783 -57 c-6 -150 -31 -408 -43 -445 -6 -21 -14 -22 -38 -5 -24 18
-23 94 4 248 27 152 72 359 78 359 3 0 2 -71 -1 -157z m2224 120 c45 -32 49
-38 33 -45 -17 -6 -334 -76 -423 -92 l-34 -6 7 52 c4 29 12 58 17 63 10 10
272 63 321 64 17 1 48 -13 79 -36z m1373 -38 c-39 -67 -55 -72 -163 -45 -50
12 -91 26 -91 30 0 7 271 70 278 64 2 -1 -9 -23 -24 -49z m-3414 -51 c111 -85
241 -204 228 -209 -7 -2 -80 -18 -163 -35 -82 -16 -161 -33 -174 -37 -24 -6
-24 -6 -18 58 4 35 10 117 13 182 l7 117 26 -16 c14 -10 51 -36 81 -60z m-892
-120 c175 -114 342 -235 342 -250 0 -7 -14 -15 -30 -19 -36 -8 -47 -2 -260
146 -221 154 -274 199 -278 233 l-4 29 56 -32 c31 -17 109 -66 174 -107z
m-408 104 c0 -21 -60 -511 -63 -513 -1 -1 -38 -9 -82 -18 l-80 -15 -120 76
c-274 174 -452 285 -487 305 -63 35 -68 32 157 71 214 37 626 103 653 105 12
0 22 -5 22 -11z m90 -73 c0 -96 -17 -388 -31 -525 -7 -75 -14 -108 -26 -117
-9 -7 -20 -10 -26 -6 -29 18 44 723 74 723 5 0 9 -34 9 -75z m4615 -20 c110
-35 310 -96 445 -135 135 -39 256 -75 270 -79 22 -7 25 -14 28 -64 l3 -57 62
-32 62 -32 -50 -7 c-131 -19 -143 -16 -546 117 -210 69 -409 131 -443 138
l-61 13 -3 108 c-2 99 -1 107 15 101 9 -4 108 -36 218 -71z m-2181 21 c54 -38
55 -37 -54 -56 -36 -6 -124 -25 -196 -42 -161 -38 -181 -34 -154 36 11 29 62
47 219 76 131 25 131 25 185 -14z m-2173 -172 c101 -75 185 -139 187 -143 1
-4 -88 -28 -199 -53 l-202 -45 7 121 c7 132 17 256 21 256 1 0 85 -61 186
-136z m-1233 32 c123 -62 460 -269 647 -397 128 -88 141 -99 150 -126 19 -66
-143 13 -454 221 -124 83 -256 170 -291 193 -83 53 -120 89 -120 113 0 26 11
25 68 -4z m-252 -13 c-3 -10 -28 -139 -57 -288 -28 -148 -53 -272 -55 -274 -2
-2 -33 -10 -68 -16 -72 -14 -94 -8 -168 43 -24 16 -144 87 -268 157 -275 157
-336 196 -318 206 7 4 51 14 98 24 47 9 231 47 410 85 421 89 435 91 426 63z
m2784 -53 c40 -34 42 -39 22 -40 -17 0 -412 -75 -494 -94 -15 -4 -18 3 -18 45
0 42 3 49 23 53 12 2 99 20 192 39 221 46 220 46 275 -3z m-2698 -51 c-7 -159
-72 -612 -91 -632 -4 -4 -16 1 -26 12 -16 19 -17 28 -5 118 11 90 66 408 91
525 16 71 35 57 31 -23z m228 -87 c240 -163 300 -205 300 -214 0 -4 -10 -8
-22 -8 -13 0 -124 -23 -248 -50 -123 -27 -225 -48 -226 -47 -1 1 9 90 22 197
13 107 24 201 24 208 0 16 -8 20 150 -86z m5445 71 c4 -10 10 -98 13 -195 4
-156 3 -178 -11 -178 -9 0 -23 7 -31 16 -13 13 -16 45 -16 195 0 169 1 179 19
179 10 0 22 -8 26 -17z m-3802 -49 c18 -9 63 -39 100 -67 71 -52 74 -67 13
-67 -47 0 -211 100 -203 124 2 6 14 13 28 17 13 4 25 7 27 8 2 1 17 -6 35 -15z
m4032 -17 l100 -34 -35 -18 c-19 -10 -72 -37 -116 -61 -45 -24 -84 -44 -87
-44 -10 0 -18 90 -11 139 8 63 13 63 149 18z m-7016 -53 c76 -34 263 -138 481
-267 102 -60 234 -134 294 -164 116 -58 186 -101 186 -113 0 -5 -21 -15 -46
-24 -45 -15 -47 -15 -97 11 -29 14 -108 61 -177 103 -69 43 -186 113 -260 156
-267 154 -397 241 -455 304 -30 32 -30 32 -5 25 14 -4 49 -18 79 -31z m2811 0
c14 -7 39 -23 57 -36 l32 -24 -157 -32 c-86 -18 -206 -43 -267 -56 -60 -13
-127 -26 -147 -30 l-38 -7 0 60 0 60 38 7 c20 3 123 23 227 44 190 38 208 39
255 14z m-3040 3 c0 -2 -16 -73 -35 -158 -20 -85 -47 -207 -61 -272 -41 -194
-39 -190 -109 -204 l-60 -12 -145 81 c-80 45 -212 121 -295 169 -82 48 -199
113 -260 146 -87 46 -105 59 -85 61 14 2 106 18 205 37 99 18 259 48 355 65
96 17 238 44 315 60 137 27 175 33 175 27z m7488 -27 c17 -9 -11 -26 -235
-141 -94 -49 -181 -89 -193 -89 -59 0 26 66 222 172 142 77 161 82 206 58z
m-7432 -102 c-5 -100 -36 -348 -52 -420 -3 -18 -15 -30 -36 -37 -17 -6 -34 -9
-37 -6 -3 3 1 38 7 78 15 89 114 497 120 497 3 0 2 -51 -2 -112z m3942 -20
l-3 -81 -120 -23 c-147 -27 -566 -123 -657 -150 -16 -5 -18 3 -18 73 l0 78
278 68 c220 55 453 107 515 116 4 0 7 -36 5 -81z m3582 -12 l0 -83 -45 -42
c-41 -37 -49 -41 -98 -41 -52 0 -196 15 -251 26 -26 6 -16 13 100 74 71 37
161 86 199 108 39 23 76 41 83 41 9 1 12 -22 12 -83z m137 53 c22 -9 44 -26
47 -36 3 -10 5 -157 5 -326 -1 -321 -2 -329 -41 -276 -20 27 -23 94 -20 428 1
85 0 157 -3 159 -2 2 -16 -5 -31 -17 -15 -11 -31 -21 -35 -21 -5 0 -9 27 -9
61 0 68 -3 67 87 28z m380 16 c63 -19 267 -153 353 -233 71 -65 75 -93 7 -45
-23 16 -118 75 -212 130 -186 110 -228 140 -220 154 8 12 13 12 72 -6z m-7891
-53 c32 -21 149 -92 258 -157 187 -112 197 -120 170 -127 -108 -28 -537 -118
-542 -114 -3 3 2 77 12 163 9 87 19 184 23 216 3 31 9 57 13 57 4 0 33 -17 66
-38z m7646 -23 c9 -58 10 -447 1 -572 -4 -71 -9 -95 -17 -87 -17 17 -20 713
-3 707 6 -2 15 -24 19 -48z m209 -29 c57 -34 133 -83 169 -108 l65 -47 -65 -7
c-85 -10 -293 1 -302 16 -9 14 -10 178 -2 201 8 20 8 20 135 -55z m-6043 -47
c63 -39 72 -48 56 -54 -10 -4 -98 -24 -194 -45 -96 -20 -253 -54 -349 -75 -96
-22 -177 -39 -181 -39 -6 0 8 121 15 128 2 2 83 21 181 42 99 22 226 50 284
64 58 13 107 25 109 25 2 1 38 -20 79 -46z m6549 -5 c7 -8 9 -95 7 -228 -2
-118 -2 -285 -1 -370 2 -184 2 -272 0 -440 -1 -69 0 -469 2 -890 3 -750 0
-886 -20 -884 -5 1 -14 19 -18 40 -9 45 -10 675 -2 716 8 36 -15 56 -235 198
-102 66 -237 156 -300 200 -63 44 -130 88 -147 97 l-33 17 0 467 c0 287 4 470
10 474 5 3 16 -5 24 -18 13 -19 14 -34 6 -82 -5 -33 -10 -227 -10 -431 l0
-371 311 -209 c379 -255 369 -248 376 -241 3 4 0 41 -6 84 -6 43 -11 134 -11
203 1 69 1 134 0 145 -2 41 18 324 24 334 12 19 -19 69 -66 108 -26 21 -169
117 -318 213 -240 156 -298 200 -258 200 21 0 122 -62 348 -215 204 -138 279
-185 295 -185 11 0 5 38 -12 70 -15 30 -15 56 -5 279 15 321 18 572 8 643 -11
76 3 111 31 76z m-9498 -102 c317 -190 555 -328 644 -372 100 -50 177 -96 177
-105 0 -3 -25 -10 -56 -16 l-55 -10 -157 87 c-272 151 -537 311 -664 403 -57
41 -68 53 -68 78 0 16 5 29 11 29 6 0 81 -42 168 -94z m8065 -13 c168 -98 242
-148 454 -306 159 -119 172 -131 172 -160 4 -373 -1 -5241 -5 -5245 -3 -3 -11
0 -18 7 -9 9 -13 111 -15 411 l-3 400 -97 57 c-181 106 -491 320 -535 370 -22
26 -8 38 31 28 51 -13 252 -144 500 -327 52 -38 96 -67 98 -65 3 2 3 782 2
1733 -1 951 -2 1920 -3 2154 0 234 2 437 5 451 5 25 -9 36 -225 179 -126 84
-281 190 -343 236 -61 46 -116 84 -120 84 -5 0 -18 9 -30 20 -24 22 -29 50
-10 50 6 0 70 -34 142 -77z m-4288 -4 c82 -25 127 -47 120 -58 -10 -16 -151
-33 -179 -22 -27 11 -47 45 -47 82 0 25 20 24 106 -2z m-4091 -91 c-3 -51 -13
-151 -21 -223 -12 -110 -17 -133 -35 -147 -30 -25 -39 -22 -39 11 0 41 65 375
85 439 12 36 16 1 10 -80z m312 -59 c100 -65 202 -128 227 -141 25 -13 46 -26
46 -29 0 -6 -88 -28 -327 -80 -201 -43 -214 -45 -208 -26 4 11 35 369 35 403
0 20 8 15 227 -127z m-437 -105 l-56 -237 -144 -33 c-80 -19 -145 -34 -146
-34 -1 0 53 74 120 164 66 90 156 211 198 270 43 58 79 106 81 106 2 0 -22
-106 -53 -236z m8833 220 c47 -4 84 -12 93 -21 9 -10 14 -36 14 -80 l0 -65
-37 23 c-50 30 -205 138 -218 151 -7 7 3 8 30 4 22 -3 75 -8 118 -12z m-460
-6 c16 -12 17 -47 15 -433 l-3 -420 -23 23 -23 23 2 410 c1 225 5 409 8 409 4
0 15 -6 24 -12z m1352 -34 c-29 -23 -101 -59 -275 -141 l-155 -72 -3 47 c-3
42 0 49 30 74 95 78 179 104 348 106 70 1 74 0 55 -14z m155 -18 c0 -13 -565
-346 -587 -346 -8 0 -13 12 -13 29 0 35 37 60 260 171 234 117 340 163 340
146z m-7712 -40 c114 -58 115 -61 41 -75 -35 -7 -220 -48 -410 -92 -190 -43
-351 -79 -358 -79 -8 0 -10 18 -5 68 4 37 8 68 9 70 1 1 103 24 226 51 123 27
265 58 314 69 117 26 106 27 183 -12z m2537 5 c94 -54 129 -108 85 -131 -25
-13 -25 -13 -128 74 -68 58 -80 72 -65 77 33 14 58 9 108 -20z m-214 -2 c23
-11 75 -54 117 -95 75 -73 76 -74 37 -59 -22 9 -105 43 -185 74 -80 32 -154
62 -165 66 -15 7 -3 11 50 21 98 17 101 16 146 -7z m4082 -67 c56 -38 154
-103 217 -145 63 -41 124 -82 135 -90 18 -13 2 -23 -214 -131 -129 -64 -238
-116 -243 -116 -4 0 -8 124 -8 275 0 151 2 275 5 275 3 0 51 -31 108 -68z
m-3441 -64 c6 -19 1 -996 -10 -1783 -5 -385 -9 -738 -9 -785 -2 -423 -29
-1839 -35 -1845 -2 -2 -61 -22 -130 -43 -124 -38 -127 -38 -132 -18 -2 12 -7
161 -11 331 -3 171 -8 366 -11 435 -2 69 -9 328 -14 575 -5 248 -14 605 -20
795 -6 190 -15 561 -21 825 -13 635 -27 1135 -34 1215 -3 36 -2 94 2 130 l8
64 185 57 c197 61 225 66 232 47z m4691 -136 c1 -59 1 -134 0 -167 0 -33 0
-94 1 -135 1 -41 -2 -83 -7 -93 -6 -17 -10 -16 -48 14 -22 17 -74 50 -114 73
-127 70 -325 200 -317 207 6 6 186 96 412 207 44 22 57 25 63 14 5 -8 9 -62
10 -120z m-7407 111 c-17 -9 -113 -33 -215 -54 -433 -88 -1750 -386 -2074
-469 -225 -57 -254 -56 -475 22 -107 38 -112 41 -112 68 0 16 4 31 9 34 23 14
325 -93 382 -135 12 -9 59 -1 220 39 273 68 1022 239 1779 406 234 52 434 96
445 99 11 3 31 5 45 5 25 1 25 1 -4 -15z m-1522 -137 l88 -54 -58 -11 c-53
-11 -698 -156 -745 -168 -17 -5 -19 0 -18 53 2 113 -21 100 283 165 320 69
305 66 336 68 15 0 62 -21 114 -53z m8170 -96 c-33 -32 -578 -300 -609 -300
-24 0 -28 20 -8 42 20 22 344 184 493 247 73 31 99 37 113 29 11 -5 15 -14 11
-18z m-9138 -87 c-12 -65 -26 -113 -34 -113 -8 0 -201 63 -232 76 -15 6 206
71 249 73 22 1 23 -2 17 -36z m9089 -126 l4 -95 -78 -50 -78 -51 -87 19 c-111
25 -178 54 -170 74 6 17 33 30 202 105 90 39 114 47 119 35 3 -8 2 -21 -1 -30
-4 -9 -4 -38 0 -64 5 -41 9 -47 26 -42 27 7 37 39 35 114 -1 57 8 97 20 85 2
-3 6 -48 8 -100z m393 -15 c48 -32 120 -78 159 -101 40 -23 85 -52 100 -65
l27 -23 -95 -7 c-52 -4 -138 -11 -192 -17 -53 -5 -102 -7 -107 -4 -13 8 -13
85 0 105 5 8 28 24 51 35 62 29 61 43 -3 47 l-53 3 -3 49 c-4 59 -5 59 116
-22z m-821 -188 c167 -98 230 -139 356 -232 87 -65 87 -66 87 -110 l0 -44 -62
46 c-35 25 -156 109 -270 186 -199 136 -268 194 -268 225 0 8 2 15 5 15 2 0
71 -39 152 -86z m-209 4 c15 -15 18 -878 3 -878 -6 0 -17 10 -25 22 -14 19
-16 79 -16 445 0 436 1 448 38 411z m1288 -67 c-6 -9 -209 -111 -309 -155
l-58 -25 -10 27 c-11 29 -6 89 10 105 5 5 74 16 153 23 79 8 157 18 173 23 40
12 47 13 41 2z m221 -18 c8 -21 -26 -48 -142 -112 -96 -54 -429 -211 -446
-211 -6 0 -9 15 -7 33 3 28 13 39 77 81 79 53 452 225 489 226 12 0 25 -7 29
-17z m-1015 -272 c32 -25 58 -49 58 -53 0 -14 -448 -233 -458 -223 -11 11 -14
184 -7 370 l7 184 172 -116 c94 -64 197 -137 228 -162z m945 -154 c-1 -135 -5
-248 -9 -252 -3 -3 -27 10 -54 30 -26 20 -65 45 -86 56 -22 11 -65 39 -97 62
-31 23 -93 64 -139 92 -45 27 -78 53 -74 57 4 3 106 56 227 117 160 80 222
106 227 97 4 -7 6 -123 5 -259z m-780 36 c8 -23 -50 -64 -181 -128 -143 -69
-404 -185 -418 -185 -5 0 -8 12 -6 28 3 30 -12 22 358 201 198 96 239 110 247
84z m184 -94 c11 -39 10 -769 -2 -769 -20 0 -26 51 -30 240 -6 336 -1 562 13
558 7 -3 16 -15 19 -29z m-318 -135 l37 -7 0 -99 c0 -90 -2 -99 -17 -94 -10 3
-56 15 -103 26 -47 11 -125 31 -175 44 -87 24 -89 25 -60 36 17 6 73 30 125
54 96 45 125 51 193 40z m614 -61 c110 -74 123 -83 123 -92 0 -20 -328 -87
-345 -70 -15 15 -11 114 6 135 18 22 130 76 146 69 7 -2 38 -21 70 -42z m-995
-114 c144 -91 354 -239 475 -336 22 -18 44 -103 27 -103 -5 0 -56 34 -114 76
-58 42 -177 126 -264 187 -197 139 -216 156 -216 196 0 17 2 31 5 31 3 0 42
-23 87 -51z m305 -61 c105 -30 113 -35 114 -58 0 -14 3 -37 5 -52 3 -18 0 -28
-7 -28 -14 0 -236 146 -245 161 -9 15 15 11 133 -23z m914 9 c-6 -8 -110 -64
-231 -126 l-220 -112 0 70 0 69 43 17 c165 63 438 117 408 82z m-1360 -14 c11
-13 14 -91 14 -414 0 -218 -4 -401 -8 -406 -5 -4 -17 3 -28 16 -18 22 -19 43
-19 346 0 322 7 475 20 475 4 0 14 -7 21 -17z m1493 -52 c16 -18 15 -20 -12
-43 -32 -27 -172 -101 -212 -113 -14 -4 -45 -20 -70 -35 -25 -16 -82 -42 -127
-60 -45 -17 -93 -40 -106 -50 -44 -35 -74 -20 -56 27 13 34 78 76 274 176 250
128 275 136 309 98z m-1318 -69 c111 -77 354 -262 354 -270 0 -4 -53 -31 -118
-61 -64 -30 -161 -76 -215 -103 -54 -26 -100 -48 -103 -48 -2 0 -4 119 -4 265
0 146 4 265 8 265 5 0 40 -22 78 -48z m1268 -160 c0 -31 -2 -66 -3 -77 -1 -11
1 -69 5 -130 4 -64 2 -125 -3 -145 -6 -21 -7 -45 -2 -59 5 -12 6 -33 3 -46 -5
-22 -10 -21 -117 50 -62 41 -143 96 -182 123 -38 27 -98 64 -132 83 -35 18
-63 36 -63 39 0 3 95 50 211 105 116 55 223 108 237 117 36 24 47 10 46 -60z
m-788 -165 c9 -28 -19 -50 -141 -107 -132 -63 -431 -190 -444 -190 -6 0 -11 9
-11 20 0 13 22 32 73 61 112 66 490 247 504 242 7 -3 15 -14 19 -26z m513
-212 c240 -161 357 -234 373 -232 l23 2 1 -413 c0 -417 -3 -453 -36 -460 -13
-2 -15 49 -15 385 0 214 -3 399 -7 413 -5 18 -52 55 -160 128 -363 244 -533
368 -536 390 -2 12 -1 22 2 22 2 0 162 -106 355 -235z m-618 -32 c14 -16 18
-167 5 -180 -6 -6 -159 33 -291 74 l-80 25 50 26 c133 68 284 94 316 55z m557
-52 c32 -21 64 -46 72 -56 7 -9 34 -27 59 -41 25 -13 59 -34 75 -48 l29 -24
-23 -12 c-21 -12 -268 -7 -362 6 l-38 6 0 74 0 75 63 29 c34 16 63 29 65 29 2
1 29 -17 60 -38z m-871 -127 c132 -83 243 -159 346 -236 73 -56 77 -61 77 -98
0 -22 -4 -40 -9 -40 -25 0 -565 401 -581 430 -30 56 9 43 167 -56z m-237 21
c18 -21 16 -2480 -2 -2480 -37 0 -38 19 -38 1175 0 1072 4 1320 20 1320 4 0
13 -7 20 -15z m295 -225 c178 -134 254 -193 254 -201 1 -4 -14 -12 -31 -20
-18 -7 -118 -52 -221 -101 -104 -48 -193 -88 -198 -88 -5 0 -9 119 -9 281 l0
280 33 -23 c17 -12 95 -70 172 -128z m1156 100 l24 -20 -25 -20 c-51 -40 -502
-270 -530 -270 -4 0 -11 8 -14 17 -14 36 29 68 230 168 110 55 213 110 229
122 37 28 56 28 86 3z m-271 -18 c0 -15 -217 -132 -245 -132 -3 0 -5 32 -5 70
l0 70 125 0 c69 0 125 -4 125 -8z m263 -167 c5 -22 6 -116 2 -210 -6 -180 -7
-188 -5 -249 2 -49 -5 -54 -33 -29 -12 12 -47 37 -77 56 -30 19 -82 58 -115
86 -33 27 -97 74 -142 103 -45 29 -82 56 -83 60 0 10 60 45 244 140 94 48 178
87 186 85 8 -1 18 -20 23 -42z m-592 -161 c13 -15 58 -52 99 -83 91 -69 490
-352 566 -401 l54 -35 0 -775 c0 -698 -2 -778 -16 -799 -34 -49 -39 -13 -36
303 2 167 0 315 -4 330 -7 29 -104 117 -411 371 -99 83 -179 152 -177 154 5 6
46 -22 233 -163 277 -209 344 -257 355 -253 11 4 11 675 0 762 -4 38 -11 45
-132 135 -70 52 -217 159 -327 238 -237 170 -245 177 -245 214 0 35 10 35 41
2z m-193 -12 c4 -27 -17 -41 -203 -131 -197 -95 -341 -155 -359 -148 -41 16
-13 40 127 105 78 37 203 97 277 134 74 36 140 65 145 64 6 -1 11 -12 13 -24z
m-88 -262 l0 -110 -27 0 c-76 1 -316 44 -336 60 -4 3 64 36 150 73 87 37 165
72 173 77 36 23 40 13 40 -100z m439 28 c42 -28 105 -74 139 -101 55 -43 61
-52 46 -60 -17 -10 -179 -4 -243 9 l-31 7 -2 71 c0 39 -2 83 -3 99 -1 15 2 27
8 27 5 0 44 -23 86 -52z m-811 -160 c53 -34 177 -118 275 -186 l177 -123 0
-51 c0 -48 -1 -50 -18 -35 -10 9 -113 83 -230 165 -311 218 -332 236 -332 273
0 39 2 38 128 -43z m646 -60 c8 -30 8 -1992 0 -2012 -3 -9 -12 -16 -20 -16
-12 0 -14 150 -14 988 0 543 3 1004 6 1025 7 42 19 48 28 15z m446 -17 c0 -19
-93 -70 -362 -199 -5 -2 -8 25 -8 60 l0 64 64 45 63 44 122 -3 c66 -2 121 -7
121 -11z m-984 -162 c110 -77 206 -145 214 -149 22 -13 12 -19 -155 -95 -82
-37 -173 -79 -201 -91 -28 -13 -56 -24 -62 -24 -9 0 -12 68 -12 250 0 138 4
250 9 250 5 0 98 -63 207 -141z m1115 102 c35 -29 18 -48 -92 -104 -52 -27
-128 -68 -169 -92 -127 -72 -201 -106 -223 -103 -33 5 -34 48 -3 77 24 22 429
237 452 240 7 0 22 -8 35 -18z m22 -146 c2 -14 1 -40 -2 -58 -4 -18 -3 -51 2
-75 5 -24 6 -89 3 -145 -7 -136 -7 -127 0 -169 3 -21 3 -50 0 -64 l-7 -27 -37
35 c-20 19 -66 55 -102 78 -36 24 -83 60 -106 80 -22 20 -72 56 -112 80 -40
23 -75 46 -78 51 -2 5 71 47 163 93 92 47 188 99 213 115 25 17 48 31 51 31 4
0 9 -11 12 -25z m-812 -191 c10 -13 10 -17 -2 -25 -60 -41 -525 -259 -551
-259 -28 0 -21 27 15 53 53 40 483 247 513 247 6 0 17 -7 25 -16z m409 -207
c99 -73 160 -125 160 -139 0 -4 -66 -8 -147 -7 l-148 0 50 21 c28 11 61 25 75
30 24 10 24 11 5 18 -11 5 -34 9 -52 9 -59 2 -63 7 -63 83 0 53 3 67 13 62 6
-4 55 -39 107 -77z m-480 -38 l0 -102 -155 8 c-85 3 -167 10 -181 14 l-27 7
25 16 c28 18 318 157 331 157 4 1 7 -45 7 -100z m-118 -190 c64 -31 118 -87
118 -121 l0 -28 -52 32 c-73 44 -208 139 -208 145 0 13 101 -7 142 -28z m812
13 c3 -5 -8 -18 -23 -30 -54 -40 -281 -172 -295 -172 -24 0 -28 17 -12 49 11
21 43 43 114 80 55 27 105 57 112 66 13 16 95 21 104 7z m167 -94 c12 -22 -30
-55 -126 -99 -39 -18 -86 -43 -106 -56 -20 -13 -82 -44 -138 -69 -81 -35 -106
-42 -117 -33 -42 35 22 92 234 208 198 108 182 102 215 83 16 -10 33 -25 38
-34z m-1288 8 c18 -13 114 -80 214 -149 l183 -125 -53 -30 c-65 -37 -361 -172
-376 -172 -8 0 -11 71 -11 250 0 138 3 250 6 250 3 0 20 -11 37 -24z m1308
-206 c3 -125 3 -283 1 -310 -2 -14 0 -39 4 -56 3 -18 2 -34 -3 -37 -15 -9
-418 265 -418 284 0 6 74 46 165 90 91 43 181 89 200 102 22 14 38 19 42 13 4
-6 8 -44 9 -86z m-4691 45 c17 -20 -2 -63 -72 -160 -105 -145 -159 -205 -185
-205 -17 0 -23 5 -21 15 4 19 250 365 259 365 4 0 12 -7 19 -15z m-160 -50 c0
-8 -37 -63 -82 -122 -149 -197 -148 -196 -148 -139 0 27 16 56 75 134 75 100
116 142 141 142 8 0 14 -7 14 -15z m3976 -189 c3 -13 4 -36 2 -52 -3 -26 -11
-32 -93 -62 -63 -24 -121 -37 -192 -45 -103 -11 -134 -6 -99 16 25 16 359 167
368 167 4 0 10 -11 14 -24z m428 -13 c85 -51 178 -114 174 -118 -2 -2 -52 3
-113 11 -60 7 -118 13 -127 14 -15 0 -18 9 -18 49 0 48 7 81 17 81 3 0 33 -17
67 -37z m-1064 -272 c0 -5 -30 -24 -66 -41 -56 -26 -354 -186 -362 -194 -4 -4
303 -116 882 -321 165 -59 318 -116 340 -127 37 -19 52 -20 176 -15 178 8 313
36 490 104 240 91 475 177 665 243 99 34 184 66 189 71 15 13 -116 69 -339
144 -171 58 -265 97 -265 110 0 2 -3 10 -6 19 -5 13 2 12 53 -3 152 -47 668
-245 678 -261 8 -13 -56 -44 -145 -70 -41 -13 -273 -93 -515 -177 -242 -85
-525 -184 -630 -220 -104 -36 -201 -71 -215 -78 -24 -12 -40 -8 -190 52 -187
74 -512 195 -1030 382 -195 71 -366 133 -380 139 -23 9 -24 9 -4 20 26 14 336
133 489 188 115 41 185 54 185 35z m-430 -392 c384 -143 1006 -372 1138 -419
132 -47 199 -96 162 -120 -21 -14 -59 -5 -175 42 -55 22 -269 100 -475 175
-206 74 -478 172 -605 218 -126 46 -263 93 -302 106 l-73 23 0 48 c0 26 1 48
3 48 1 0 149 -54 327 -121z"/>
<path d="M9971 7558 c5 -40 15 -154 24 -253 17 -199 41 -357 58 -394 10 -21
47 -37 217 -97 134 -47 208 -69 215 -63 13 12 19 634 8 680 -8 29 -18 36 -78
62 -71 29 -417 137 -439 137 -9 0 -10 -18 -5 -72z"/>
<path d="M10890 7499 c-58 -21 -136 -45 -175 -55 l-70 -17 0 -317 c0 -175 4
-322 8 -326 10 -10 280 79 325 106 36 22 40 51 43 305 4 263 1 332 -13 337 -7
3 -60 -12 -118 -33z"/>
</g>
</svg>
