<?xml version="1.0" standalone="no"?>
<!DOCTYPE svg PUBLIC "-//W3C//DTD SVG 20010904//EN"
 "http://www.w3.org/TR/2001/REC-SVG-20010904/DTD/svg10.dtd">
<svg version="1.0" xmlns="http://www.w3.org/2000/svg"
 width="692.000000pt" height="651.000000pt" viewBox="0 0 692.000000 651.000000"
 preserveAspectRatio="xMidYMid meet">
<metadata>
Created by potrace 1.16, written by Peter Selinger 2001-2019
</metadata>
<g transform="translate(0.000000,651.000000) scale(0.100000,-0.100000)"
fill="none" stroke="#000000">
<path d="M4215 5661 c-33 -14 -56 -47 -62 -89 -8 -60 19 -82 146 -117 83 -23
112 -35 148 -67 49 -42 100 -51 140 -23 18 13 30 14 68 4 25 -6 48 -15 50 -20
3 -4 2 -32 -1 -62 l-6 -54 -247 -118 c-135 -65 -255 -126 -265 -136 -19 -17
-19 -19 4 -71 30 -71 37 -78 68 -72 26 5 28 2 56 -80 23 -68 26 -88 17 -100
-9 -11 -10 -20 -2 -35 12 -22 9 -23 -259 -99 -58 -17 -177 -51 -265 -77 -88
-26 -227 -66 -310 -90 -150 -43 -339 -98 -765 -222 -360 -104 -424 -122 -429
-117 -16 15 -69 183 -64 202 6 26 -12 52 -37 52 -13 0 -26 21 -48 78 -51 133
-57 117 55 151 155 48 297 79 389 87 75 6 87 10 105 32 38 49 -3 127 -89 169
-54 26 -65 28 -187 28 -71 0 -186 -4 -253 -9 -88 -6 -170 -5 -284 4 -185 15
-267 7 -354 -35 -88 -43 -125 -127 -90 -208 31 -72 160 -160 275 -187 65 -15
156 -8 201 15 32 17 33 17 56 -10 34 -40 70 -153 55 -177 -15 -24 -14 -48 3
-67 8 -9 35 -70 60 -136 l45 -119 -136 -235 c-74 -130 -136 -238 -138 -240 -2
-2 -44 13 -92 32 -144 58 -271 81 -458 81 -223 0 -382 -36 -580 -130 -305
-144 -576 -456 -678 -780 -49 -156 -60 -241 -54 -444 4 -156 9 -201 31 -289
123 -486 546 -879 1040 -968 110 -19 340 -22 446 -4 101 16 265 72 375 128
274 139 514 404 620 685 10 27 20 48 22 48 2 0 58 -16 124 -35 177 -51 246
-58 324 -32 18 6 25 -3 54 -60 32 -66 31 -82 -6 -83 -20 0 -53 -51 -53 -81 0
-17 11 -41 27 -59 28 -29 29 -30 171 -36 131 -6 144 -5 163 12 28 24 69 112
62 131 -8 20 -46 33 -101 33 -26 0 -57 6 -68 14 -28 20 -111 204 -98 220 77
105 97 159 97 266 0 69 -5 97 -26 149 -15 36 -27 68 -27 73 0 5 76 93 168 196
92 103 332 371 532 597 768 862 708 797 719 776 8 -14 7 -22 -4 -31 -8 -6 -17
-20 -20 -31 -8 -24 22 -87 43 -91 17 -3 129 -321 114 -326 -31 -10 -171 -102
-239 -156 -259 -209 -445 -525 -504 -856 -20 -108 -17 -364 4 -473 51 -255
175 -478 373 -668 360 -345 875 -467 1342 -318 396 127 723 433 856 801 58
159 71 240 71 438 0 244 -37 405 -137 605 -69 138 -145 243 -263 360 -196 195
-409 312 -668 366 -123 26 -353 30 -490 9 -48 -7 -90 -11 -93 -7 -3 3 -27 75
-53 160 -42 136 -46 156 -32 164 14 9 14 15 -6 56 -19 39 -27 46 -55 49 -25 2
-35 9 -42 29 -8 23 -2 32 63 97 73 74 155 190 210 300 42 83 97 250 110 332
16 95 13 274 -5 350 -34 146 -136 294 -254 370 -30 19 -50 39 -50 50 0 49 -42
78 -139 99 -40 8 -66 22 -97 51 -36 33 -51 40 -84 40 -23 0 -49 -4 -58 -9 -11
-6 -48 1 -112 20 -121 36 -141 40 -165 30z m98 -65 c29 -8 71 -20 94 -26 42
-10 42 -11 31 -43 -6 -17 -14 -35 -17 -39 -6 -7 -178 33 -200 46 -12 8 -14 35
-5 60 8 20 31 20 97 2z m442 -127 c61 -18 66 -22 60 -42 -11 -33 -10 -44 5
-155 8 -62 10 -106 4 -112 -11 -11 -565 -272 -569 -268 -9 12 -26 50 -23 54 2
2 125 62 272 134 l268 130 -4 91 c-3 100 -6 103 -74 114 -50 7 -57 14 -48 50
8 31 22 31 109 4z m178 -164 c60 -46 134 -151 163 -231 88 -240 29 -575 -148
-846 -63 -96 -160 -202 -179 -196 -7 2 -17 17 -22 34 -14 42 -133 373 -173
481 -19 51 -34 106 -34 123 0 23 -6 33 -24 40 -19 7 -30 28 -55 101 -17 50
-28 95 -26 99 2 4 103 54 224 111 121 57 223 109 226 117 4 12 -8 120 -21 180
-7 32 15 28 69 -13z m-2362 -558 c46 -19 89 -62 89 -87 0 -18 -6 -20 -54 -20
-30 0 -90 -7 -135 -15 -106 -20 -443 -125 -551 -172 -85 -36 -85 -36 -155 -24
-90 15 -182 58 -234 110 -35 35 -41 47 -41 85 0 49 24 82 81 112 44 23 176 29
374 16 110 -7 188 -6 290 4 163 14 289 11 336 -9z m1933 -169 c16 -37 206
-578 206 -584 0 -5 -27 -16 -66 -28 -19 -6 -25 4 -62 106 -78 212 -182 502
-182 505 0 6 63 32 78 33 7 0 19 -15 26 -32z m-133 -65 c5 -14 9 -33 7 -41 -2
-10 -74 -36 -223 -79 -121 -35 -290 -84 -375 -109 -161 -48 -373 -109 -1060
-309 -223 -65 -409 -121 -414 -125 -4 -5 57 -197 137 -427 208 -601 340 -993
336 -997 -2 -2 -20 -6 -39 -8 l-35 -3 -71 205 c-90 259 -428 1223 -488 1393
l-46 128 35 15 c19 7 38 14 42 14 4 0 26 -51 48 -113 34 -95 43 -112 63 -115
13 -2 29 1 36 7 8 6 121 43 252 81 132 38 347 100 479 139 132 38 319 92 415
120 96 28 326 96 510 150 184 55 345 100 358 100 16 1 26 -7 33 -26z m53 -145
c8 -24 33 -92 56 -152 22 -60 40 -113 40 -118 0 -5 -172 -198 -382 -430 -211
-232 -453 -499 -538 -593 -85 -95 -254 -281 -375 -414 l-219 -242 -51 7 c-27
4 -63 8 -80 9 -36 3 -31 -8 -135 295 -43 124 -144 414 -224 644 -80 231 -146
425 -146 432 0 7 8 15 18 18 9 3 305 89 657 191 932 270 1114 324 1300 379 28
8 53 15 57 15 3 1 13 -18 22 -41z m140 -384 l19 -45 -25 -27 c-14 -15 -106
-117 -204 -227 -98 -110 -253 -283 -344 -384 -91 -102 -248 -277 -349 -390
-342 -382 -523 -581 -530 -581 -3 0 -21 13 -40 29 l-35 29 28 33 c16 19 90
102 165 184 75 83 263 290 416 460 154 171 404 447 555 614 151 167 283 314
293 327 10 13 22 24 25 24 4 0 15 -21 26 -46z m-2380 -189 c5 -20 -22 -72
-143 -273 -176 -293 -365 -627 -560 -992 -78 -146 -150 -271 -161 -279 -43
-29 -24 -39 88 -45 289 -18 1042 -101 1084 -121 31 -14 27 -15 -77 -11 -266
11 -1015 72 -1065 86 -55 16 -82 13 -78 -7 2 -12 19 -22 47 -29 53 -12 61 -26
26 -42 -77 -35 -158 16 -158 98 0 43 34 85 69 85 26 0 34 11 104 135 42 74
188 333 325 575 317 562 326 578 410 727 39 69 73 124 76 122 4 -2 10 -15 13
-29z m2692 -185 c200 -631 273 -868 349 -1130 69 -239 78 -261 115 -282 51
-29 38 -109 -20 -123 -45 -11 -76 25 -106 123 -15 48 -56 166 -92 262 -35 96
-123 346 -194 555 -71 209 -153 452 -183 539 -30 88 -55 167 -55 176 0 11 16
22 48 32 83 28 79 32 138 -152z m-2653 38 c39 -111 381 -1112 402 -1175 l23
-73 -22 0 c-20 0 -25 10 -40 78 -76 321 -257 603 -510 794 -45 33 -80 64 -79
67 2 8 206 351 209 351 1 0 9 -19 17 -42z m-678 -197 c110 -24 277 -82 283
-98 2 -7 -3 -13 -12 -13 -10 0 -13 -6 -9 -17 5 -13 3 -15 -13 -9 -200 82 -282
99 -484 99 -189 0 -254 -11 -415 -72 -173 -65 -306 -153 -442 -291 -42 -43
-80 -77 -84 -74 -6 4 -54 -50 -73 -83 -16 -28 2 -11 34 32 18 25 35 43 38 41
2 -2 -11 -24 -28 -48 -89 -121 -161 -281 -203 -448 -17 -69 -21 -116 -21 -245
0 -90 6 -193 13 -235 29 -159 116 -364 210 -489 22 -30 38 -59 34 -65 -3 -6
-2 -8 2 -3 9 8 45 -20 45 -36 0 -6 -10 -2 -23 9 -20 17 -20 16 2 -9 14 -15 26
-25 29 -22 2 2 39 -27 82 -64 176 -155 359 -247 585 -292 88 -18 338 -18 420
-1 351 75 620 264 805 567 24 39 49 84 56 100 55 130 53 128 71 114 9 -8 19
-13 22 -12 24 7 -65 -178 -136 -286 -152 -226 -428 -430 -683 -504 -218 -63
-493 -62 -705 4 -380 117 -716 463 -829 853 -100 345 -58 684 122 991 151 259
405 469 674 559 199 67 449 85 633 47z m3900 -22 c-15 -7 -7 -8 29 -5 32 2 44
1 35 -6 -10 -6 -7 -8 11 -7 14 1 32 0 40 -3 86 -31 184 -57 192 -52 7 5 8 2 3
-6 -6 -10 -4 -12 11 -6 10 4 15 4 12 0 -9 -8 131 -76 142 -69 5 3 12 0 16 -6
4 -8 3 -9 -4 -5 -7 4 -12 5 -12 2 0 -8 58 -37 83 -42 12 -2 32 -15 44 -29 12
-14 25 -25 28 -25 4 0 25 -19 48 -43 28 -28 32 -31 12 -8 l-30 36 42 -39 c23
-22 40 -42 38 -46 -2 -4 12 -22 33 -41 20 -19 27 -22 14 -8 -12 14 -22 29 -22
34 0 4 19 -14 43 -40 51 -58 75 -91 59 -81 -19 12 -14 -2 19 -47 17 -23 35
-41 40 -40 14 4 84 -125 127 -233 66 -164 87 -281 86 -469 0 -187 -22 -311
-80 -455 -161 -402 -565 -719 -1005 -786 -123 -19 -318 -14 -447 11 -249 48
-479 172 -666 358 -175 175 -293 400 -337 647 -20 107 -17 343 6 460 55 292
224 576 454 764 81 66 230 166 248 166 21 0 15 -17 -14 -40 -23 -17 -24 -19
-5 -10 50 24 42 2 -9 -27 -148 -83 -340 -262 -431 -400 -249 -377 -284 -835
-93 -1218 66 -134 128 -217 240 -324 237 -223 534 -342 860 -343 260 -1 474
64 694 209 115 76 263 225 341 343 77 118 133 227 126 247 -3 8 -2 12 3 9 10
-7 47 116 61 204 5 36 9 119 8 185 l-2 120 -6 -130 -6 -130 -2 121 c-1 67 -4
141 -6 165 -3 35 -2 38 4 14 10 -39 12 -4 3 50 -5 32 -8 36 -15 20 -6 -15 -7
-12 -3 9 8 39 -47 221 -97 321 -106 210 -281 407 -443 499 -30 17 -30 17 -5
-1 185 -136 322 -286 415 -453 19 -36 -16 10 -66 85 -113 171 -318 346 -503
430 -218 99 -509 141 -696 100 -85 -19 -101 -19 -76 0 19 15 19 15 -2 15 -29
0 -29 20 1 21 21 0 21 1 2 8 -13 5 -1 8 35 8 30 0 123 5 205 10 83 5 159 10
170 11 l20 1 -20 -10z m-4007 -74 c2 -2 -4 -172 -13 -377 l-17 -373 -56 -98
c-30 -53 -57 -96 -58 -94 -2 2 -13 48 -23 103 -11 54 -52 262 -92 462 -39 200
-70 365 -67 367 18 18 309 28 326 10z m150 -25 c74 -18 182 -62 182 -76 0 -2
-48 -88 -106 -190 -58 -102 -128 -228 -156 -280 -28 -52 -52 -93 -55 -91 -5 5
17 625 23 645 5 16 14 15 112 -8z m-421 -455 c51 -253 91 -466 90 -474 -4 -27
-91 86 -172 224 -45 77 -141 240 -213 361 -73 122 -132 224 -132 226 0 17 288
130 320 125 11 -2 37 -111 107 -462z m4253 429 c0 -23 -68 -698 -88 -869 l-8
-70 -32 100 c-81 256 -252 821 -252 831 0 16 118 31 263 33 l117 1 0 -26z
m136 -4 c103 -28 244 -81 244 -90 0 -11 -437 -900 -442 -900 -2 0 2 55 9 123
18 175 60 599 74 755 15 151 6 143 115 112z m-3532 -62 c75 -49 211 -183 277
-272 76 -102 129 -197 174 -314 34 -90 78 -252 70 -260 -10 -10 -23 11 -29 47
-28 175 -150 424 -281 571 -57 65 -184 182 -229 211 -17 11 -11 3 14 -18 100
-84 205 -192 264 -270 106 -141 199 -354 222 -507 11 -71 -12 -28 -35 67 -28
116 -95 266 -166 373 -69 103 -216 259 -302 321 -59 42 -84 73 -47 59 14 -5
15 -4 4 9 -22 27 12 18 64 -17z m2800 -105 c93 -262 124 -353 121 -353 -2 0
-39 57 -82 128 -130 208 -156 252 -152 256 9 8 74 46 80 46 3 0 18 -35 33 -77z
m-4084 15 c22 -41 275 -469 407 -689 64 -108 74 -133 49 -127 -20 4 -735 631
-735 644 -2 22 216 212 245 213 6 1 21 -18 34 -41z m1339 -102 c35 -35 61 -69
57 -74 -5 -8 -312 -250 -605 -476 -10 -8 -9 0 4 24 22 43 248 452 318 576 l52
92 55 -39 c30 -21 84 -67 119 -103z m3859 87 c47 -31 112 -81 145 -112 l59
-57 -323 -300 c-362 -337 -429 -397 -435 -391 -8 7 446 917 457 917 7 0 50
-25 97 -57z m-1244 -8 c3 -8 70 -122 150 -252 79 -131 153 -258 165 -283 35
-79 91 -223 87 -228 -4 -3 -192 163 -356 314 -25 23 -99 90 -165 149 -66 59
-121 113 -123 120 -4 17 199 193 224 194 7 1 14 -6 18 -14z m-2468 -247 c49
-71 114 -180 114 -191 0 -3 -96 -58 -212 -122 -117 -65 -239 -133 -271 -152
-61 -37 -45 -34 -329 -59 -44 -4 -78 -3 -78 2 0 24 43 71 117 127 45 34 137
106 205 159 67 53 183 144 257 202 74 58 138 106 141 106 4 0 29 -33 56 -72z
m-1703 -10 c688 -605 650 -570 629 -590 -19 -20 -24 -18 -453 173 -239 105
-438 195 -442 199 -18 16 146 290 174 290 6 0 47 -32 92 -72z m5712 -11 c28
-36 70 -102 93 -145 l42 -79 -38 -16 c-70 -30 -227 -95 -562 -232 -184 -76
-338 -139 -342 -142 -5 -2 -8 -2 -8 1 0 4 221 210 425 396 39 36 126 116 194
178 67 62 127 112 134 109 6 -2 34 -33 62 -70z m-1747 1 c31 -29 59 -56 62
-59 12 -13 470 -419 518 -458 46 -38 80 -86 69 -97 -3 -3 -898 354 -906 362
-15 15 166 304 191 304 5 0 35 -24 66 -52z m-2110 -260 c23 -63 48 -143 56
-179 l6 -27 -158 -6 c-86 -4 -220 -9 -297 -12 -163 -7 -166 -14 35 96 74 41
178 98 230 127 52 29 98 53 102 53 4 0 15 -24 26 -52z m-1971 -52 c92 -40 238
-105 323 -144 85 -38 209 -94 275 -123 65 -30 117 -58 115 -64 -7 -13 -83 -10
-541 25 -213 17 -394 30 -404 30 -14 0 -16 8 -10 58 12 101 58 292 71 292 2 0
79 -33 171 -74z m6017 -56 c30 -101 46 -188 46 -246 l0 -41 -327 -7 c-181 -3
-412 -9 -514 -12 -139 -5 -188 -3 -194 5 -4 7 -5 15 -2 18 3 3 216 92 474 197
345 142 471 190 480 182 6 -6 23 -49 37 -96z m-1734 -107 c245 -97 449 -180
455 -185 5 -4 -219 -7 -500 -6 l-510 3 3 55 c3 77 19 153 49 243 21 60 30 76
42 72 9 -3 216 -85 461 -182z m-1666 -47 c155 -91 201 -297 102 -455 l-28 -44
-44 79 c-32 57 -44 90 -44 121 0 47 -34 97 -74 107 -19 5 -32 24 -60 92 -20
48 -39 98 -43 112 l-6 25 76 -5 c58 -4 85 -11 121 -32z m-211 12 c46 -112 77
-191 75 -192 -2 -1 -20 -9 -41 -19 -26 -12 -43 -28 -50 -48 -11 -29 -15 -30
-52 -25 -22 3 -68 8 -103 12 l-62 7 6 36 c16 95 78 176 169 221 47 23 51 24
58 8z m-363 -108 c0 -61 -3 -80 -14 -80 -18 0 -589 67 -694 81 l-84 11 42 24
c38 22 54 24 184 25 77 1 206 5 286 9 80 3 175 7 213 8 l67 2 0 -80z m-1735
-45 c366 -27 405 -31 405 -45 0 -10 -13 -14 -390 -121 -157 -44 -337 -96 -400
-114 -63 -18 -118 -30 -123 -26 -11 11 -35 146 -43 250 l-7 94 109 -7 c60 -3
262 -18 449 -31z m5752 -142 c-3 -83 -12 -142 -30 -201 -13 -45 -26 -85 -29
-87 -2 -3 -103 34 -224 81 -251 98 -301 117 -552 212 -101 38 -183 73 -183 78
1 8 542 27 895 32 l129 2 -6 -117z m-1394 100 c53 -3 97 -9 97 -12 0 -7 -147
-59 -650 -235 l-325 -114 -12 27 c-17 40 -41 165 -49 259 l-7 82 424 0 c233 0
468 -3 522 -7z m-3929 -68 c0 -5 -52 -48 -115 -96 -118 -89 -620 -436 -642
-444 -23 -9 -176 267 -164 297 4 12 77 34 517 155 91 24 210 58 265 73 101 29
141 33 139 15z m4036 6 c0 -10 -16 -24 -220 -192 -145 -120 -570 -449 -579
-449 -15 0 -69 87 -124 197 l-56 111 87 30 c242 84 855 302 860 307 9 8 32 6
32 -4z m422 -60 c163 -64 439 -170 655 -253 l133 -50 -60 -117 c-32 -64 -72
-131 -87 -150 l-28 -33 -105 83 c-131 104 -396 316 -560 449 -120 98 -149 130
-116 130 8 0 84 -27 168 -59z m-4047 14 c104 -22 145 -37 310 -117 370 -177
454 -222 449 -238 -10 -31 -98 -170 -133 -210 l-36 -41 -350 301 c-388 334
-383 330 -370 330 6 0 64 -11 130 -25z m530 -5 c154 -11 294 -23 312 -25 l31
-6 -15 -57 c-9 -31 -19 -60 -22 -64 -4 -4 -54 5 -111 21 -58 16 -193 53 -300
81 -107 29 -215 58 -240 66 l-45 14 55 -5 c30 -3 181 -14 335 -25z m-916 -36
c-11 -19 -129 -197 -260 -395 -230 -345 -240 -359 -262 -348 -12 7 -74 63
-137 125 -99 99 -113 116 -100 128 8 7 110 78 225 156 116 79 260 177 320 218
61 41 135 94 164 118 30 24 59 40 63 38 5 -3 -1 -21 -13 -40z m3965 -105 c-43
-74 -112 -197 -154 -274 -218 -399 -256 -465 -266 -465 -20 0 -158 104 -236
179 l-80 76 322 255 c459 364 484 382 488 372 1 -5 -32 -70 -74 -143z m-2408
131 c51 0 54 -2 68 -32 17 -41 52 -73 88 -82 22 -5 35 -21 63 -76 19 -38 35
-72 35 -74 0 -3 -24 -9 -52 -15 -95 -20 -204 21 -273 102 -30 35 -75 142 -75
179 0 7 17 8 46 4 26 -3 71 -6 100 -6z m3070 -310 l394 -314 -52 -54 c-46 -46
-201 -172 -212 -172 -7 0 -532 818 -542 844 -5 12 -3 17 5 15 6 -2 189 -146
407 -319z m-4216 155 c91 -77 181 -154 201 -170 20 -17 104 -88 188 -159 l152
-129 -53 -54 c-61 -62 -209 -167 -219 -156 -15 16 -452 787 -457 806 -7 28 -2
24 188 -138z m-375 -42 c-20 -92 -55 -242 -75 -333 -21 -91 -51 -220 -66 -287
-15 -68 -31 -123 -35 -123 -23 0 -207 73 -263 104 l-65 36 91 143 c123 193
374 574 405 615 47 63 49 27 8 -155z m385 -247 c267 -456 254 -404 111 -456
-117 -43 -221 -66 -230 -52 -4 6 -19 94 -34 194 -16 101 -46 296 -68 435 -21
138 -39 264 -39 279 0 24 2 26 14 14 7 -8 118 -194 246 -414z m3719 387 c31
-125 193 -945 187 -951 -4 -4 -87 -9 -183 -10 l-176 -4 7 49 c4 26 20 140 35
253 53 376 92 655 97 678 7 34 22 27 33 -15z m117 -85 c43 -68 125 -195 182
-283 162 -247 282 -435 282 -440 0 -3 -36 -23 -79 -45 -74 -36 -266 -99 -275
-89 -2 2 -31 141 -66 309 -34 168 -77 378 -96 467 -32 153 -40 203 -30 203 3
0 39 -55 82 -122z m-4101 -120 c19 -122 50 -320 69 -438 20 -119 36 -228 36
-243 l0 -27 -105 0 c-113 0 -255 17 -255 31 0 8 71 318 141 611 16 69 36 161
44 203 15 77 23 100 32 92 2 -3 20 -106 38 -229z m3891 30 c-79 -561 -110
-773 -113 -777 -1 -2 -54 11 -115 29 -123 36 -242 85 -235 97 2 4 111 199 243
432 131 234 240 419 242 413 2 -6 -8 -93 -22 -194z m-3200 133 c77 -22 186
-52 242 -67 57 -15 106 -33 109 -40 2 -7 -4 -30 -14 -53 l-18 -40 -245 120
c-134 65 -237 119 -229 119 9 0 79 -18 155 -39z"/>
</g>
</svg>
