<?xml version="1.0" standalone="no"?>
<!DOCTYPE svg PUBLIC "-//W3C//DTD SVG 20010904//EN"
 "http://www.w3.org/TR/2001/REC-SVG-20010904/DTD/svg10.dtd">
<svg version="1.0" xmlns="http://www.w3.org/2000/svg"
 width="1500.000000pt" height="974.000000pt" viewBox="0 0 1500.000000 974.000000"
 preserveAspectRatio="xMidYMid meet">
<metadata>
Created by potrace 1.16, written by Peter Selinger 2001-2019
</metadata>
<g transform="translate(0.000000,974.000000) scale(0.100000,-0.100000)"
fill="none" stroke="#000000">
<path d="M4263 7375 c-3 -9 0 -330 6 -713 16 -988 15 -1099 -6 -1111 -21 -11
-31 -104 -32 -281 l-1 -116 -322 -32 c-566 -57 -855 -103 -963 -157 -69 -33
-128 -95 -186 -194 -82 -140 -112 -288 -113 -569 l-1 -173 -59 -24 c-32 -13
-72 -36 -87 -51 l-29 -28 0 -163 c0 -123 4 -171 14 -192 16 -30 83 -81 108
-81 25 0 35 -20 47 -90 7 -36 14 -77 17 -92 l6 -28 434 0 c407 0 434 1 434 18
1 74 22 258 35 307 58 222 234 429 450 531 126 58 215 78 355 77 244 -1 434
-80 604 -249 164 -165 240 -341 253 -581 l6 -113 2067 0 2067 0 7 84 c9 108
47 267 84 349 108 238 324 423 571 489 103 27 346 30 438 5 283 -78 516 -302
601 -579 17 -55 42 -223 42 -284 0 -19 198 -19 451 1 192 16 790 80 847 91 37
7 51 37 89 180 l28 109 0 390 c0 417 -9 530 -57 683 -62 201 -135 266 -337
297 -134 21 -570 68 -876 95 -132 12 -249 23 -260 25 -13 3 -46 47 -94 127
-320 531 -529 759 -836 909 -193 94 -398 145 -820 204 -104 15 -191 29 -193
33 -2 7 -108 249 -170 390 l-36 82 -587 0 -586 0 -92 -216 c-51 -118 -97 -228
-102 -244 -10 -27 -14 -29 -82 -34 -876 -66 -939 -87 -1362 -461 -82 -73 -276
-249 -429 -391 -324 -300 -380 -350 -407 -365 -11 -6 -98 -17 -192 -25 -95 -8
-246 -21 -337 -28 -107 -10 -169 -11 -176 -5 -7 5 -36 46 -64 89 -52 80 -53
81 -57 172 -3 66 -9 98 -20 110 -14 16 -17 115 -29 845 -15 910 -18 993 -40
993 -8 0 -17 -7 -21 -15z m4543 -483 c9 -5 138 -277 171 -359 4 -10 -142 -13
-711 -13 -394 0 -716 3 -716 8 0 9 122 298 144 340 l17 32 542 0 c298 0 547
-4 553 -8z m289 -492 c292 -25 599 -76 763 -125 123 -37 295 -123 388 -194
183 -137 384 -389 604 -754 l97 -162 129 -12 c1002 -96 1156 -118 1231 -172
75 -55 125 -185 160 -419 14 -94 17 -185 18 -457 0 -360 -5 -404 -57 -572 -26
-86 -40 -80 -18 8 23 88 37 206 45 372 l6 127 -123 0 c-68 0 -397 -5 -732 -11
l-608 -10 -16 23 c-30 46 -129 135 -206 187 -178 120 -323 164 -546 164 -164
0 -248 -20 -395 -92 -234 -116 -429 -322 -495 -526 -26 -78 -21 -14 5 77 46
162 96 250 200 353 77 77 110 102 230 169 170 95 231 140 285 212 l41 54 977
-2 977 -3 3 -217 2 -218 201 0 200 0 -6 78 c-31 400 -59 515 -139 570 -35 24
-217 67 -242 58 -11 -4 -14 -33 -14 -121 l0 -115 -971 0 -970 0 7 23 c3 12 12
34 20 48 17 35 52 172 60 239 8 74 -15 204 -65 361 -131 407 -381 790 -581
887 -152 74 -495 113 -1136 128 l-281 7 -7 -54 c-30 -252 -83 -1006 -96 -1364
-5 -148 -10 -271 -10 -272 0 -2 -22 -3 -50 -3 -60 0 -56 -42 -30 345 22 327
58 721 98 1089 23 208 25 249 14 254 -23 8 -818 -6 -932 -18 -249 -24 -412
-61 -524 -117 l-48 -25 -34 33 c-19 18 -34 36 -34 40 0 8 122 44 215 63 146
30 427 59 740 76 209 11 1495 3 1650 -10z m-1049 -107 c-40 -292 -100 -945
-122 -1314 -9 -156 -18 -290 -20 -296 -3 -10 -237 -13 -1130 -13 l-1127 0 7
62 c10 86 59 276 85 326 l21 42 1069 0 1068 0 7 113 c9 148 49 533 86 834 17
134 30 247 30 253 0 13 -675 13 -846 0 -374 -30 -534 -98 -744 -317 -221 -229
-639 -765 -709 -908 -34 -69 -67 -191 -85 -314 l-12 -86 -345 -7 c-864 -17
-1415 -30 -1666 -38 l-272 -10 -48 30 c-60 37 -116 47 -321 58 -89 5 -165 12
-168 15 -21 21 50 127 116 172 134 93 423 136 1555 230 752 62 696 60 901 30
191 -28 267 -29 308 -2 14 9 101 117 193 240 290 384 513 645 621 727 226 171
476 214 1286 218 l269 2 -7 -47z m834 22 c543 -37 667 -71 825 -230 190 -189
389 -577 450 -874 38 -185 28 -312 -35 -465 l-32 -76 -1014 0 -1014 0 0 58 c1
333 46 1056 97 1551 l6 64 251 -7 c138 -4 348 -13 466 -21z m-2395 -106 l35
-31 -84 -80 c-125 -116 -399 -446 -625 -751 -124 -168 -141 -180 -234 -173
-121 9 -297 39 -297 50 0 16 596 571 846 787 131 115 284 229 306 229 10 0 33
-14 53 -31z m1451 -36 c-4 -15 -59 -373 -82 -538 -10 -70 -190 -441 -218 -450
-30 -9 -925 -19 -968 -11 -29 5 -52 27 -150 144 -63 75 -145 169 -181 207
l-65 70 -23 -22 -23 -23 24 -32 c13 -18 60 -75 103 -126 l80 -93 -54 -55 c-29
-30 -56 -54 -59 -54 -4 0 -12 33 -18 73 -17 107 -29 140 -72 205 -22 33 -40
66 -40 74 0 20 253 320 333 395 115 107 269 185 432 218 127 25 255 32 633 34
332 1 353 0 348 -16z m4311 -1355 c55 -20 103 -66 103 -99 0 -16 -3 -18 -19
-10 -10 6 -49 13 -87 16 -141 12 -134 9 -134 70 l0 53 43 -5 c23 -3 65 -14 94
-25z m59 -163 c28 -11 82 -80 72 -90 -2 -3 -44 0 -94 6 -49 6 -108 13 -131 15
l-43 5 0 46 0 46 82 -8 c46 -4 97 -13 114 -20z m-9178 -5 c129 -17 170 -51
193 -158 11 -57 0 -215 -17 -232 -17 -17 -145 -22 -358 -15 l-216 7 5 47 c16
134 36 300 41 329 l6 32 137 0 c75 0 169 -5 209 -10z m2493 -235 c4 -121 14
-269 23 -330 20 -138 54 -328 62 -349 6 -14 -14 -16 -195 -16 -183 0 -202 2
-207 18 -72 228 -258 452 -457 551 -163 81 -212 93 -403 98 -134 4 -188 2
-251 -11 -324 -66 -605 -317 -708 -634 l-17 -53 -42 6 c-58 9 -66 25 -67 124
l-1 86 -21 -45 c-29 -62 -31 -251 -3 -323 22 -58 15 -72 -14 -26 -57 94 -54
217 10 401 25 70 42 129 39 132 -3 4 -118 2 -255 -4 -137 -5 -288 -10 -336
-10 l-88 0 0 39 c0 21 3 59 6 84 l6 45 310 3 c358 5 337 -2 357 112 15 86 14
151 -4 217 -8 30 -13 56 -10 58 15 15 1456 47 2120 47 l140 0 6 -220z m2281
-42 c-2 -148 -5 -274 -7 -280 -4 -10 -215 -13 -1012 -13 -604 0 -1014 -4
-1023 -10 -8 -5 -11 -13 -6 -17 4 -4 465 -10 1024 -13 l1017 -5 6 -75 c4 -41
7 -112 8 -157 l1 -83 -1089 0 -1088 0 -17 78 c-45 213 -82 588 -74 757 l3 70
200 5 c110 3 619 7 1130 8 l930 2 -3 -267z m132 10 c4 -142 8 -267 9 -278 2
-17 -5 -20 -40 -23 -23 -2 -52 2 -64 9 l-22 11 7 261 c4 143 9 264 12 269 3 4
24 8 48 8 l43 0 7 -257z m1721 248 l310 -6 -67 -65 c-45 -45 -102 -86 -180
-129 -62 -35 -135 -77 -163 -94 -99 -60 -229 -205 -270 -302 -36 -84 -76 -212
-82 -262 l-6 -53 -607 0 -608 0 -6 118 c-4 64 -9 136 -12 160 l-5 42 580 0
c566 0 661 5 621 30 -9 6 -259 10 -601 10 l-587 0 -5 26 c-2 14 -5 137 -6 274
l-2 250 273 3 c521 5 1115 4 1423 -2z m2606 -149 c33 -37 40 -79 12 -67 -10 4
-73 12 -140 18 l-123 11 0 39 0 39 111 -4 c111 -3 111 -3 140 -36z m-22 -118
c30 -18 61 -62 61 -87 0 -23 -22 -27 -161 -27 l-129 0 0 63 c0 35 3 67 7 70
13 14 193 -2 222 -19z m-4295 -451 c4 -71 8 -143 11 -160 l4 -33 -58 0 c-72 0
-71 -4 -71 183 l0 137 54 0 54 0 6 -127z"/>
<path d="M7740 6710 l0 -150 85 0 85 0 0 150 0 150 -85 0 -85 0 0 -150z"/>
<path d="M7954 6838 c3 -13 6 -80 6 -150 l0 -128 85 0 85 0 0 150 0 150 -91 0
c-90 0 -91 0 -85 -22z"/>
<path d="M8180 6710 l0 -150 85 0 85 0 0 150 0 150 -85 0 -85 0 0 -150z"/>
<path d="M8393 6793 c4 -38 7 -105 7 -150 l0 -83 85 0 85 0 0 150 0 150 -91 0
-92 0 6 -67z"/>
<path d="M8620 6710 l0 -150 85 0 85 0 0 150 0 150 -85 0 -85 0 0 -150z"/>
<path d="M5200 5029 c-983 -72 -1566 -130 -1782 -178 -44 -10 -53 -16 -44 -29
3 -5 33 -4 73 4 221 42 980 119 1503 154 516 33 500 32 500 51 0 10 -87 10
-250 -2z"/>
<path d="M7340 5010 c-18 -33 -8 -73 20 -87 17 -9 77 -13 188 -13 149 0 164 2
182 20 25 25 26 62 2 83 -16 15 -45 17 -200 17 -173 0 -182 -1 -192 -20z"/>
<path d="M8176 6234 c-12 -147 -45 -648 -57 -882 -11 -203 -11 -235 1 -243 19
-11 1990 -12 2009 0 12 8 12 19 2 71 -18 92 -76 250 -131 361 -129 256 -412
603 -533 654 -103 43 -634 98 -1068 112 l-216 6 -7 -79z m759 -79 c94 -8 196
-17 228 -21 l57 -7 0 -473 0 -474 -490 0 -491 0 6 128 c12 280 25 663 25 766
l0 109 248 -7 c136 -3 324 -13 417 -21z m521 -71 c86 -31 398 -398 398 -468 0
-36 -104 -248 -172 -351 l-47 -70 -135 0 -135 0 -3 458 -2 457 27 -5 c16 -4
47 -13 69 -21z"/>
<path d="M9606 5016 c-33 -32 -33 -59 0 -85 25 -19 40 -21 188 -21 l162 0 28
29 c20 21 26 35 21 50 -12 38 -43 45 -212 49 l-162 4 -25 -26z"/>
<path d="M10180 4180 c-109 -11 -164 -27 -267 -76 -222 -106 -377 -290 -444
-529 -31 -109 -31 -293 0 -409 39 -148 138 -301 263 -406 75 -63 212 -139 288
-161 25 -7 48 -15 52 -18 4 -3 -1234 -6 -2752 -6 -1517 0 -2756 3 -2753 8 2 4
12 7 21 7 30 0 165 64 232 110 129 87 246 230 307 375 39 92 56 208 50 335 -3
63 -11 133 -17 155 -77 277 -258 474 -529 577 -86 32 -87 33 -266 33 l-180 0
-90 -35 c-274 -107 -465 -335 -519 -619 -28 -147 -18 -288 30 -425 38 -108 80
-170 194 -287 97 -98 113 -111 210 -157 58 -28 137 -59 175 -69 l70 -18 -190
-7 c-536 -19 -1038 -47 -1152 -64 -47 -7 -56 -19 -20 -27 84 -21 724 -53 1552
-77 1648 -48 3990 -52 5565 -10 729 20 1627 58 1770 76 113 14 131 27 53 38
-147 20 -699 50 -1156 62 -136 4 -250 11 -253 16 -3 4 2 8 11 8 29 0 157 49
219 84 260 148 417 412 417 705 0 227 -89 432 -258 593 -174 164 -398 242
-633 218z m-5665 -361 c110 -34 213 -126 273 -244 30 -60 45 -154 40 -248 -11
-210 -168 -378 -390 -418 -140 -25 -305 29 -411 134 -183 183 -184 461 -3 654
127 136 303 180 491 122z m5805 20 c36 -5 92 -22 125 -38 70 -32 173 -123 208
-184 97 -164 89 -382 -17 -524 -213 -283 -654 -238 -812 82 -60 122 -58 276 6
413 54 116 186 217 323 247 78 17 88 17 167 4z"/>
<path d="M4249 3787 c-105 -30 -210 -123 -271 -238 -32 -62 -33 -68 -33 -179
0 -111 1 -118 34 -185 44 -89 120 -166 203 -205 59 -28 71 -30 184 -30 115 0
124 1 183 31 89 44 164 117 203 197 32 64 33 71 33 187 0 116 -1 123 -33 187
-47 97 -109 161 -197 204 -66 33 -84 37 -167 40 -57 3 -111 -1 -139 -9z m151
-92 c0 -48 2 -55 20 -55 13 0 21 9 26 28 3 15 10 37 15 50 8 22 10 22 46 7 20
-9 39 -17 41 -19 2 -2 -9 -27 -25 -55 -24 -44 -26 -53 -13 -61 12 -8 23 -1 50
30 19 22 41 40 47 40 7 0 27 -19 43 -42 l31 -42 -23 -18 c-13 -10 -30 -20 -40
-23 -23 -8 -31 -35 -11 -42 9 -3 30 -1 47 6 64 26 64 26 76 -19 6 -23 9 -44 6
-47 -2 -3 -24 -7 -48 -10 -50 -7 -69 -19 -61 -39 4 -10 22 -14 64 -14 l59 0 0
-35 c0 -43 -18 -54 -78 -44 -31 4 -49 3 -54 -5 -13 -20 -2 -31 45 -44 26 -7
47 -17 47 -22 0 -21 -21 -61 -51 -94 l-32 -37 -43 42 c-61 60 -87 38 -39 -33
31 -46 31 -52 0 -66 -39 -18 -42 -16 -63 32 -22 49 -39 63 -54 48 -8 -8 -6
-25 5 -58 9 -27 13 -52 11 -56 -3 -4 -25 -8 -50 -8 l-44 0 0 59 c0 34 -5 63
-12 67 -18 11 -38 -26 -38 -73 0 -35 -3 -43 -19 -43 -19 0 -81 19 -81 26 0 2
14 25 30 51 18 28 26 51 21 56 -16 16 -49 -3 -70 -38 -11 -19 -27 -35 -36 -35
-27 0 -28 29 -1 64 14 19 26 42 26 50 0 26 -34 18 -65 -14 -16 -16 -32 -30
-35 -30 -3 0 -16 21 -29 47 -23 48 -19 62 21 63 32 0 48 12 48 36 0 22 -3 23
-57 21 l-58 -2 -3 37 -3 37 48 3 c41 3 48 6 51 25 3 19 -3 23 -44 29 l-46 7 5
39 c3 22 8 42 11 46 4 3 22 -2 41 -11 48 -23 75 -22 75 2 0 13 -15 28 -40 42
-22 13 -40 25 -40 29 0 3 17 22 38 43 l37 37 28 -35 c28 -35 67 -47 67 -21 0
7 -11 30 -25 51 -15 20 -25 38 -23 40 12 10 70 35 81 35 7 0 20 -21 28 -47 11
-37 19 -48 34 -48 18 0 20 6 17 58 l-4 57 36 0 36 0 0 -55z"/>
<path d="M4275 3576 c-38 -16 -90 -68 -111 -109 -22 -42 -20 -137 5 -184 77
-150 266 -165 359 -29 28 43 32 56 32 118 0 77 -12 107 -62 155 -61 59 -154
79 -223 49z m137 -26 c43 -12 101 -73 118 -125 26 -78 -7 -159 -85 -210 -34
-23 -48 -26 -97 -23 -99 7 -168 79 -168 176 0 91 39 150 117 177 46 17 67 18
115 5z"/>
<path d="M4276 3507 c-95 -54 -101 -176 -12 -255 68 -59 165 -38 224 48 19 28
23 44 19 83 -5 60 -30 95 -87 125 -56 28 -94 28 -144 -1z"/>
<path d="M10139 3785 c-110 -35 -213 -123 -268 -229 -30 -56 -31 -63 -31 -183
0 -115 2 -128 28 -181 158 -326 616 -331 777 -9 34 67 35 74 35 181 0 106 -2
115 -34 181 -47 100 -112 167 -201 211 -66 33 -84 37 -167 40 -64 3 -108 -1
-139 -11z m143 -91 c-2 -31 1 -55 8 -59 18 -11 40 15 46 56 6 34 10 39 33 39
15 0 36 -6 47 -14 19 -14 19 -15 -5 -59 -23 -42 -24 -77 -1 -77 6 0 25 20 42
44 27 39 34 43 48 33 21 -15 74 -77 69 -80 -39 -26 -79 -60 -79 -68 0 -19 32
-21 71 -4 21 10 42 16 45 12 3 -3 12 -23 19 -44 15 -42 7 -51 -46 -52 -14 -1
-34 -8 -45 -16 -19 -15 -19 -15 0 -30 11 -9 40 -15 68 -15 33 0 46 -4 44 -12
-3 -7 -7 -25 -10 -40 -6 -25 -8 -26 -68 -25 -81 2 -87 -20 -13 -45 30 -10 49
-22 47 -30 -5 -20 -50 -82 -78 -109 l-25 -24 -35 43 c-20 23 -42 42 -50 42
-22 0 -16 -40 11 -76 14 -18 25 -35 25 -38 0 -8 -57 -36 -73 -36 -8 0 -18 12
-21 28 -14 57 -28 82 -48 82 -18 0 -20 -4 -14 -42 4 -24 9 -53 13 -65 5 -21 2
-23 -40 -23 l-46 0 -3 63 c-3 54 -5 62 -23 62 -16 0 -21 -9 -27 -48 -4 -27 -9
-51 -12 -54 -7 -8 -73 16 -85 31 -8 9 -4 22 14 46 50 67 19 98 -34 34 -19 -24
-35 -35 -45 -31 -18 7 -85 97 -86 115 0 7 15 19 33 27 79 33 72 76 -9 56 -50
-13 -64 -6 -64 31 0 9 -3 23 -6 32 -5 13 3 16 49 16 31 0 59 5 62 10 12 19
-16 39 -58 42 -41 3 -42 3 -39 38 5 52 15 56 72 36 28 -10 53 -16 56 -13 12
12 -8 43 -41 66 -19 13 -35 26 -35 30 0 3 15 22 32 41 29 32 32 33 42 15 6
-10 22 -30 34 -43 22 -22 25 -23 40 -9 14 15 13 20 -12 56 -31 45 -28 57 20
77 48 20 53 18 60 -26 14 -84 60 -78 51 7 l-6 54 42 -3 42 -3 -3 -51z"/>
<path d="M10185 3582 c-138 -45 -189 -226 -96 -342 42 -53 96 -80 162 -80 179
0 275 201 164 346 -48 63 -158 99 -230 76z m116 -34 c81 -27 129 -91 129 -172
0 -56 -14 -93 -48 -129 -39 -41 -74 -57 -127 -57 -118 0 -198 98 -180 219 6
37 16 55 55 93 59 57 104 69 171 46z"/>
<path d="M10180 3508 c-144 -73 -90 -288 73 -288 98 0 153 63 145 164 -4 47
-10 62 -38 91 -31 32 -81 55 -120 55 -9 0 -36 -10 -60 -22z"/>
</g>
</svg>
