<?xml version="1.0" standalone="no"?>
<!DOCTYPE svg PUBLIC "-//W3C//DTD SVG 20010904//EN"
 "http://www.w3.org/TR/2001/REC-SVG-20010904/DTD/svg10.dtd">
<svg version="1.0" xmlns="http://www.w3.org/2000/svg"
 width="670.000000pt" height="288.000000pt" viewBox="0 0 670.000000 288.000000"
 preserveAspectRatio="xMidYMid meet">
<metadata>
Created by potrace 1.16, written by Peter Selinger 2001-2019
</metadata>
<g transform="translate(0.000000,288.000000) scale(0.100000,-0.100000)"
fill="none" stroke="#000000">
<path d="M3610 2813 c-36 -2 -140 -10 -231 -18 -536 -49 -916 -155 -1384 -385
-240 -118 -566 -318 -680 -417 l-30 -26 30 19 c17 10 84 53 150 95 496 316
997 529 1470 624 449 90 1130 111 1720 54 185 -18 601 -77 769 -109 174 -34
225 -35 68 -2 -571 122 -1355 190 -1882 165z"/>
<path d="M3600 2619 c-294 -18 -651 -76 -866 -142 -243 -75 -542 -225 -816
-408 -112 -76 -125 -96 -16 -26 118 76 259 157 358 207 159 80 371 169 387
163 12 -5 14 -3 8 7 -6 10 -4 12 8 7 10 -4 17 -2 17 4 0 6 7 9 15 5 8 -3 15
-2 15 3 0 4 6 8 13 8 6 0 53 13 102 27 178 53 600 115 898 132 l117 6 -2 -283
-3 -284 -587 -3 -588 -2 0 40 c0 33 -7 47 -36 78 l-37 37 32 -38 c43 -53 43
-98 -1 -125 -91 -56 -299 -81 -686 -84 l-307 -3 250 -2 c137 -2 253 -7 258
-12 4 -4 -24 -64 -63 -132 -39 -68 -77 -146 -84 -174 -11 -38 -14 -126 -13
-380 l2 -330 28 -57 c16 -32 46 -73 69 -92 80 -69 46 -66 917 -65 432 1 957 5
1166 8 l380 7 -332 2 -331 2 -5 93 c-2 50 -16 144 -30 207 -40 176 -54 393
-38 591 7 88 10 163 8 165 -11 12 -32 -238 -31 -376 1 -152 14 -264 54 -470
10 -52 22 -121 25 -154 l7 -59 -834 5 -833 5 -50 25 c-66 34 -103 71 -132 135
l-24 51 3 339 3 338 26 50 c14 28 52 98 85 157 l59 107 832 1 c656 0 832 -3
836 -12 4 -10 6 -10 6 0 1 9 129 12 605 12 l604 0 6 -27 c3 -16 19 -109 36
-208 32 -185 47 -260 49 -237 1 17 -68 438 -76 457 -4 13 50 15 409 15 383 0
414 -1 424 -18 19 -30 306 -396 327 -417 30 -30 -27 49 -182 250 -76 99 -136
182 -134 185 2 2 81 7 176 10 l172 7 -192 3 c-106 1 -197 4 -203 5 -5 1 -187
3 -404 4 l-395 1 34 51 c19 27 39 67 45 87 14 50 11 129 -5 177 -14 39 -14 39
-8 5 22 -121 -4 -219 -75 -282 l-42 -38 -578 0 -577 0 -1 30 -1 30 491 0 c456
0 494 2 532 19 71 32 112 112 99 191 -9 55 -58 151 -94 184 -18 18 -27 32 -21
36 15 9 -180 73 -315 104 -155 35 -293 54 -490 66 -190 11 -246 11 -455 -1z
m700 -39 c183 -26 319 -53 425 -85 76 -23 95 -34 137 -76 66 -66 92 -126 93
-211 0 -52 -4 -73 -21 -95 -47 -62 -31 -61 -579 -64 l-500 -4 -3 284 -3 284
158 -7 c87 -4 219 -16 293 -26z m-465 -590 l0 -35 -735 -2 c-670 -2 -728 0
-655 13 91 16 172 41 181 55 3 6 237 8 607 7 l602 -3 0 -35z"/>
<path d="M835 1836 c-382 -117 -584 -232 -623 -356 -41 -130 -66 -605 -39
-748 20 -103 39 -138 101 -179 68 -46 135 -64 258 -70 l107 -6 38 -64 c49 -85
152 -181 242 -226 282 -141 619 -44 772 222 l34 60 1580 1 1580 0 29 -53 c41
-72 158 -186 233 -225 293 -154 642 -49 802 240 l26 48 112 0 c61 0 123 4 136
9 66 25 120 98 168 226 11 30 37 79 57 108 l37 52 -1 230 c-1 127 -5 248 -10
270 l-9 40 -75 -6 -75 -5 72 -2 72 -2 6 -55 c4 -30 8 -146 9 -257 l1 -203 -32
-43 c-17 -24 -46 -77 -63 -118 -48 -116 -86 -171 -138 -202 -44 -25 -54 -27
-151 -25 -57 2 -105 4 -106 5 -2 2 5 35 15 73 49 185 -7 387 -148 536 -58 63
-150 126 -207 144 -11 4 12 -11 50 -32 91 -49 189 -148 238 -241 165 -309 11
-694 -325 -814 -86 -30 -275 -33 -358 -4 -92 32 -162 76 -235 150 -171 173
-214 424 -110 644 19 39 32 72 29 72 -12 0 -75 -149 -84 -199 -15 -78 -12
-198 5 -265 9 -33 13 -62 9 -65 -9 -9 -3014 -13 -3014 -4 0 4 -25 6 -56 4 -52
-3 -56 -1 -50 15 4 11 14 51 23 89 26 124 -2 280 -73 402 -40 70 -159 183
-230 221 -78 40 -98 42 -25 2 125 -69 221 -169 271 -283 54 -122 61 -276 20
-410 -25 -81 -104 -202 -168 -257 -178 -152 -428 -183 -642 -78 -95 47 -206
161 -253 258 -46 96 -56 144 -57 258 0 152 48 272 156 394 l56 63 -65 -67
c-70 -72 -126 -172 -147 -263 -16 -69 -14 -219 4 -285 8 -30 13 -56 12 -57 -8
-8 -159 -4 -193 6 l-43 12 -1 247 c-1 162 -5 226 -9 187 -4 -33 -8 -142 -9
-242 -1 -101 -3 -183 -5 -183 -15 0 -79 34 -103 54 -83 70 -113 298 -77 598 8
73 16 142 16 153 2 57 23 154 40 182 27 45 75 83 104 83 14 0 23 4 20 9 -15
23 225 132 463 211 205 69 209 78 6 16z"/>
<path d="M1130 1417 c-3 -3 -27 -7 -55 -10 -140 -14 -317 -114 -422 -238 -112
-133 -164 -280 -162 -453 l2 -101 7 115 c13 195 66 316 200 451 72 73 100 93
180 132 208 101 402 101 610 0 78 -38 109 -61 175 -127 130 -130 191 -272 205
-471 l7 -110 1 100 c2 126 -17 216 -67 319 -90 184 -241 308 -451 370 -55 16
-220 33 -230 23z"/>
<path d="M5252 1390 c-102 -27 -221 -99 -313 -190 -42 -41 -81 -86 -88 -100
-9 -17 -4 -14 15 10 92 117 225 212 354 252 108 33 302 33 410 0 251 -78 440
-302 479 -567 5 -37 9 -48 10 -28 2 46 -17 128 -47 203 -85 216 -265 371 -494
425 -88 21 -236 18 -326 -5z"/>
<path d="M1527 882 c62 -124 53 -263 -23 -378 -43 -64 -91 -105 -171 -142 -50
-23 -71 -27 -149 -27 -84 0 -95 2 -166 38 -133 65 -206 174 -215 322 -3 46 1
87 11 120 20 66 13 70 -9 4 -13 -38 -16 -73 -13 -134 6 -108 45 -192 123 -263
68 -62 121 -88 212 -103 135 -22 263 26 359 135 65 75 88 140 88 256 1 84 -3
102 -28 157 -16 35 -34 67 -40 72 -7 6 3 -20 21 -57z"/>
<path d="M5773 880 c30 -60 32 -72 32 -165 0 -89 -3 -106 -28 -156 -43 -88
-98 -143 -185 -186 -71 -36 -82 -38 -167 -38 -85 0 -96 2 -167 38 -89 44 -136
92 -182 187 -28 58 -31 75 -31 155 0 77 4 98 27 148 15 31 25 57 22 57 -3 0
-17 -26 -32 -57 -24 -51 -27 -70 -27 -158 0 -89 3 -106 28 -157 85 -173 263
-263 446 -224 125 26 216 98 274 216 30 60 32 72 32 170 0 108 -14 159 -59
215 -9 11 -1 -9 17 -45z"/>
</g>
</svg>
