<?xml version="1.0" standalone="no"?>
<!DOCTYPE svg PUBLIC "-//W3C//DTD SVG 20010904//EN"
 "http://www.w3.org/TR/2001/REC-SVG-20010904/DTD/svg10.dtd">
<svg version="1.0" xmlns="http://www.w3.org/2000/svg"
 width="962.000000pt" height="595.000000pt" viewBox="0 0 962.000000 595.000000"
 preserveAspectRatio="xMidYMid meet">
<metadata>
Created by potrace 1.16, written by Peter Selinger 2001-2019
</metadata>
<g transform="translate(0.000000,595.000000) scale(0.100000,-0.100000)"
fill="none" stroke="#000000">
<path d="M5989 4863 c-47 -40 -119 -141 -119 -168 0 -28 29 -55 60 -55 34 0
170 150 170 187 0 18 -45 63 -64 63 -8 0 -29 -12 -47 -27z"/>
<path d="M7677 4827 c-15 -11 -17 -28 -15 -137 l3 -125 28 -13 c22 -11 32 -11
55 0 27 13 27 13 30 132 2 100 0 122 -14 137 -20 22 -62 25 -87 6z"/>
<path d="M5300 4719 c-140 -10 -475 -32 -745 -49 -601 -38 -1280 -83 -2010
-135 -115 -8 -370 -26 -565 -40 -457 -32 -500 -36 -527 -46 -31 -11 -40 -53
-18 -86 l17 -26 128 6 c95 5 131 3 138 -6 5 -7 15 -97 22 -201 12 -173 11
-190 -4 -201 -10 -7 -56 -13 -113 -14 -117 -2 -147 -14 -151 -58 -5 -54 25
-65 163 -62 126 4 138 -1 133 -51 l-3 -25 -245 -5 c-216 -4 -249 -7 -274 -23
-57 -38 -56 -18 -56 -855 0 -614 -3 -772 -13 -786 -9 -12 -34 -20 -76 -25 -44
-5 -68 -13 -77 -26 -11 -15 -14 -74 -14 -266 0 -136 4 -259 10 -273 13 -36 50
-56 112 -63 45 -5 56 -10 73 -37 35 -53 49 -55 548 -55 427 -1 458 -2 463 -18
27 -83 82 -171 159 -252 l85 -88 -388 -7 c-633 -11 -1286 -37 -1301 -52 -3 -2
0 -9 6 -15 20 -20 204 -30 1063 -54 113 -3 696 -10 1295 -15 2819 -25 5820 7
5955 63 23 9 20 11 -30 18 -171 25 -915 59 -1278 59 l-94 0 81 86 c64 68 90
105 126 179 l44 94 368 3 c406 3 395 2 461 69 54 55 64 97 60 256 -3 162 -10
176 -86 195 -58 14 -64 34 -56 172 8 148 -11 580 -31 686 -23 122 -267 998
-300 1077 -29 68 -102 133 -150 133 -34 0 -45 14 -60 75 -19 72 -51 116 -110
151 -26 15 -47 35 -49 47 -3 12 -8 40 -11 62 -14 82 -74 159 -150 191 -25 10
-67 17 -110 17 -146 0 -234 -80 -252 -230 -6 -52 -8 -55 -59 -89 -57 -38 -104
-113 -104 -165 0 -50 -23 -56 -193 -52 -83 2 -162 6 -174 9 -16 3 -25 17 -38
59 -20 69 -60 116 -127 146 -46 20 -68 24 -158 23 -130 -2 -176 -14 -229 -62
-32 -28 -48 -53 -65 -102 l-22 -65 -274 -5 c-254 -5 -278 -7 -310 -26 -37 -21
-80 -85 -80 -119 0 -12 -5 -26 -12 -33 -9 -9 -396 -12 -1679 -12 -1850 0
-1697 -6 -1686 67 4 20 11 39 17 43 6 4 60 10 118 13 59 3 195 13 302 21 462
36 1441 103 2140 146 894 54 871 53 895 76 23 23 19 70 -7 89 -19 13 -41 14
-130 9 -106 -7 -107 -7 -117 17 -13 33 -32 382 -21 393 5 5 59 12 121 16 100
7 115 10 131 30 23 29 23 55 -2 80 -24 24 -46 24 -400 -1z m13 -143 c9 -23 31
-372 24 -388 -4 -11 -26 -18 -69 -22 -85 -8 -187 -10 -194 -3 -11 11 -32 392
-22 404 5 7 40 14 76 16 160 8 180 7 185 -7z m-409 -19 c14 -11 19 -37 26
-152 5 -77 12 -163 15 -192 8 -67 3 -70 -150 -74 l-119 -4 -7 35 c-12 61 -29
364 -21 372 5 5 58 12 118 17 60 4 112 9 115 10 3 0 13 -5 23 -12z m-405 -36
c20 -20 25 -59 37 -272 4 -76 3 -119 -4 -123 -19 -11 -236 -25 -248 -15 -6 5
-16 82 -23 176 -7 93 -14 177 -16 188 -8 37 10 48 87 55 129 12 147 11 167 -9z
m-384 -21 c3 -5 10 -74 15 -152 5 -79 12 -161 15 -183 9 -67 -3 -75 -136 -82
-108 -5 -117 -5 -126 13 -14 26 -38 383 -27 394 17 16 249 26 259 10z m-406
-19 c8 -5 15 -30 17 -57 2 -27 8 -114 14 -193 9 -117 9 -146 -2 -156 -8 -8
-57 -16 -125 -20 -109 -7 -111 -7 -126 16 -21 33 -45 375 -28 392 7 7 55 15
109 18 53 3 104 6 112 7 8 1 21 -2 29 -7z m-395 -43 c9 -15 16 -68 20 -153 3
-71 8 -151 12 -176 9 -67 -3 -75 -133 -82 -78 -5 -111 -3 -120 6 -16 17 -47
387 -33 401 9 9 74 16 212 24 19 1 32 -5 42 -20z m-398 -19 c3 -6 13 -94 22
-195 13 -160 13 -187 1 -199 -8 -8 -56 -20 -112 -27 -85 -11 -102 -10 -125 3
-27 15 -27 15 -39 203 -9 136 -10 193 -2 202 10 12 37 15 201 22 26 1 50 -3
54 -9z m-392 -51 c12 -88 26 -372 18 -380 -5 -5 -61 -11 -124 -15 -114 -6
-116 -6 -131 18 -19 31 -42 366 -26 385 11 14 57 19 181 22 l77 2 5 -32z
m-409 -8 c4 -6 13 -95 20 -198 11 -145 11 -190 2 -198 -7 -6 -62 -14 -124 -17
-91 -5 -113 -4 -123 8 -13 16 -42 368 -33 392 7 19 247 31 258 13z m5674 -58
c41 -22 73 -76 69 -117 l-3 -30 -131 -3 c-152 -3 -160 1 -143 64 13 46 24 61
64 86 38 23 101 23 144 0z m-1049 -307 c26 -23 40 -54 33 -72 -4 -10 -47 -13
-169 -13 -182 0 -189 2 -159 60 22 43 45 50 166 47 91 -2 110 -5 129 -22z
m1241 15 c10 -6 26 -24 35 -41 30 -59 25 -60 -300 -57 l-291 3 -3 31 c-2 25 3
37 24 53 26 20 37 21 271 21 148 0 252 -4 264 -10z m-5852 -194 c7 -8 11 -32
9 -53 l-3 -38 -118 -3 -117 -3 -10 27 c-14 35 -4 63 23 69 12 3 56 6 97 8 41
2 82 4 91 5 9 1 22 -4 28 -12z m6087 -70 c40 -40 45 -76 12 -76 -142 -2 -190
-18 -209 -68 -13 -32 -7 -54 118 -461 88 -287 115 -362 141 -383 9 -8 55 -15
113 -18 120 -7 133 -16 148 -105 19 -105 76 -95 -558 -95 -307 0 -638 -3 -737
-6 -152 -5 -182 -4 -199 9 -19 15 -20 25 -16 284 5 399 -8 830 -25 837 -7 3
-20 -2 -29 -10 -13 -13 -15 -85 -15 -559 0 -502 -1 -545 -17 -554 -10 -5 -141
-7 -333 -4 -174 4 -329 3 -344 -1 -21 -5 -27 -12 -24 -29 l3 -22 345 -5 c190
-3 351 -9 358 -13 7 -5 12 -32 12 -72 0 -53 -4 -68 -25 -93 -14 -16 -43 -37
-65 -46 -22 -8 -57 -31 -78 -51 -75 -67 -79 -68 -456 -69 -219 -1 -344 3 -353
9 -12 9 -14 55 -13 251 0 196 -2 243 -14 259 -25 34 -50 8 -56 -56 l-5 -54
-70 0 -70 0 -3 602 c-2 537 0 603 14 617 14 14 135 16 1216 16 l1200 0 34 -34z
m-2596 -175 c6 -13 10 -192 10 -514 0 -411 -2 -497 -14 -506 -9 -8 -52 -11
-127 -9 l-114 3 -8 440 c-9 477 -9 475 -65 496 -18 7 -213 9 -572 7 -637 -4
-596 3 -602 -100 -2 -35 -5 -442 -7 -905 -1 -587 1 -854 9 -882 19 -73 -1 -71
615 -71 612 0 595 -2 614 68 6 20 11 132 11 249 0 159 3 214 13 220 19 12 231
3 239 -10 4 -7 7 -147 5 -312 l-2 -300 -285 -7 c-413 -10 -1797 2 -1809 16 -5
6 -12 47 -15 91 -23 267 -146 444 -387 560 -253 121 -549 66 -753 -139 -112
-113 -172 -248 -183 -409 -3 -48 -11 -94 -17 -102 -9 -12 -78 -14 -424 -16
-312 -2 -416 1 -425 10 -9 9 -13 257 -15 1061 -2 946 -1 1050 14 1064 14 15
215 16 2149 16 2100 0 2134 0 2145 -19z m2671 -42 c6 -12 51 -161 100 -332 81
-286 87 -313 72 -324 -24 -18 -77 -16 -102 5 -20 16 -30 47 -186 562 -12 41
-20 80 -18 87 4 11 29 16 100 21 14 1 27 -6 34 -19z m-3078 -168 l24 -9 7
-832 c7 -783 7 -833 -10 -851 -16 -18 -36 -19 -489 -19 -380 0 -475 3 -484 13
-13 16 -17 1675 -4 1688 5 5 193 10 418 12 226 1 433 3 462 5 28 1 63 -2 76
-7z m400 -913 c15 -18 17 -39 15 -162 l-3 -141 -125 0 -125 0 -3 149 c-2 97 1
153 8 162 14 15 62 21 150 16 50 -3 69 -9 83 -24z m267 12 c18 -18 20 -33 20
-165 0 -127 -2 -145 -17 -153 -26 -14 -114 -7 -124 9 -5 8 -9 80 -9 161 0 130
2 148 18 157 30 18 90 13 112 -9z m2540 16 c0 -2 -12 -25 -27 -52 -24 -42 -28
-63 -33 -161 -4 -86 -9 -116 -20 -123 -8 -5 -110 -10 -226 -10 l-211 0 -74 55
c-89 67 -209 128 -304 156 -103 30 -268 36 -390 14 -53 -9 -99 -14 -103 -10
-14 14 -8 115 8 125 14 9 1380 15 1380 6z m138 -254 l2 -162 -25 0 c-46 0 -57
34 -53 170 3 115 4 123 27 141 13 11 29 18 35 16 7 -2 12 -59 14 -165z m-1059
58 c265 -74 494 -295 573 -553 16 -54 22 -98 22 -177 l1 -105 -55 -3 c-70 -4
-80 9 -80 102 -1 94 -13 145 -61 243 -84 175 -215 287 -414 351 -75 25 -301
23 -375 -2 -150 -51 -274 -145 -358 -271 -62 -92 -90 -175 -105 -312 l-12
-108 -440 0 -440 0 -3 304 c-2 237 1 306 10 313 7 4 36 8 65 8 40 0 55 -4 62
-17 5 -10 11 -95 12 -188 6 -260 2 -257 329 -262 168 -2 231 0 250 10 19 10
32 34 58 107 42 123 80 199 141 282 115 154 307 266 514 299 77 12 223 2 306
-21z m-865 -222 c-4 -7 -20 -31 -34 -53 -42 -62 -80 -141 -116 -240 l-32 -90
-219 -3 c-177 -2 -222 0 -238 12 -18 13 -20 30 -25 183 -3 92 -2 176 3 186 7
16 33 17 338 17 261 0 329 -3 323 -12z m1755 -41 c30 -56 57 -74 123 -83 41
-6 48 -10 53 -35 4 -15 1 -37 -5 -48 -10 -20 -19 -21 -185 -21 l-174 0 -35
-30 -34 -30 -31 65 c-17 37 -55 104 -86 151 l-55 84 202 -2 201 -3 26 -48z
m-5410 8 c230 -55 395 -258 408 -505 14 -237 -134 -450 -367 -531 -92 -32
-248 -32 -340 0 -187 64 -321 223 -356 421 -32 187 29 361 174 490 133 119
310 165 481 125z m4496 -16 c199 -67 337 -244 360 -460 10 -95 -9 -191 -56
-288 -126 -257 -440 -371 -696 -252 -113 54 -191 126 -247 231 -176 332 13
724 382 790 67 12 186 2 257 -21z m-6287 -278 c1 -104 -2 -189 -7 -194 -5 -5
-18 -6 -30 -2 -20 6 -21 12 -21 189 0 100 3 186 7 190 4 4 16 6 28 4 19 -3 20
-10 23 -187z m7518 -46 c3 -13 4 -63 3 -111 -4 -79 -6 -87 -32 -110 -28 -24
-31 -24 -233 -24 -165 0 -206 3 -210 14 -3 7 -6 61 -7 118 -1 76 2 109 12 121
12 15 40 17 237 17 l224 0 6 -25z m-2043 -392 c8 -10 26 -44 40 -75 33 -75 65
-120 135 -193 l58 -60 -1817 0 -1817 0 60 64 c70 75 115 143 147 224 l23 57
1578 0 c1489 0 1578 -1 1593 -17z"/>
<path d="M6007 3656 c-96 -35 -99 -50 -95 -473 3 -328 4 -343 24 -370 11 -15
36 -38 54 -50 33 -23 36 -23 389 -23 407 0 407 0 449 81 l24 44 -5 350 c-4
387 -5 393 -67 429 -33 20 -52 21 -385 23 -279 2 -358 0 -388 -11z"/>
<path d="M7240 3661 c-48 -10 -74 -25 -96 -58 -18 -26 -19 -54 -22 -388 -3
-402 -2 -406 67 -452 34 -23 36 -23 413 -23 354 0 381 1 416 19 95 48 94 122
-7 436 -38 121 -84 263 -101 316 -31 98 -52 129 -103 148 -31 12 -509 13 -567
2z m534 -143 c8 -13 26 -61 39 -108 14 -47 55 -181 91 -299 37 -118 65 -220
62 -228 -4 -10 -72 -13 -355 -13 -336 0 -351 1 -361 19 -6 12 -10 131 -10 316
0 185 4 304 10 316 10 18 24 19 260 19 248 0 250 0 264 -22z"/>
<path d="M6064 2535 c-13 -19 -15 -45 -12 -131 3 -97 5 -107 27 -125 29 -24
53 -24 82 0 19 16 24 30 27 90 5 88 -4 156 -24 176 -25 25 -81 19 -100 -10z"/>
<path d="M1557 3480 c-138 -8 -127 39 -127 -527 0 -548 -4 -525 84 -543 82
-17 1073 -10 1104 8 50 29 52 47 51 534 -1 249 -4 464 -8 478 -4 15 -21 32
-41 42 -31 16 -76 18 -505 16 -258 -2 -510 -5 -558 -8z m871 -239 c8 -5 12
-17 10 -27 -3 -18 -20 -19 -393 -19 -373 0 -390 1 -393 19 -2 10 2 22 10 27 7
5 180 9 383 9 204 0 376 -4 383 -9z m6 -177 c9 -8 16 -19 16 -23 0 -29 -36
-31 -411 -29 l-384 3 0 25 0 25 200 5 c451 12 562 11 579 -6z m-6 -183 c8 -5
12 -17 10 -27 -3 -18 -20 -19 -393 -19 -373 0 -390 1 -393 19 -2 10 2 22 10
27 7 5 180 9 383 9 204 0 376 -4 383 -9z m12 -186 c10 -12 10 -18 0 -30 -11
-13 -67 -15 -395 -15 -328 0 -384 2 -395 15 -10 12 -10 18 0 30 11 13 67 15
395 15 328 0 384 -2 395 -15z"/>
<path d="M2830 3473 c-24 -13 -37 -28 -42 -51 -5 -18 -7 -242 -6 -498 l3 -466
28 -24 28 -24 555 0 556 0 29 30 30 29 -3 485 -3 485 -23 23 -23 23 -547 3
c-506 2 -550 1 -582 -15z m950 -238 c7 -8 10 -22 6 -30 -5 -13 -55 -15 -380
-15 -206 0 -381 3 -390 6 -9 3 -16 12 -16 18 0 34 20 36 396 36 317 0 373 -2
384 -15z m-6 -168 c10 -7 16 -22 14 -33 -3 -18 -16 -19 -393 -19 -377 0 -390
1 -393 19 -9 44 11 46 393 46 283 0 365 -3 379 -13z m11 -207 l0 -25 -388 -3
c-338 -2 -388 0 -393 13 -4 8 -4 22 0 30 5 13 55 15 393 13 l388 -3 0 -25z m0
-180 l0 -25 -388 -3 c-338 -2 -388 0 -393 13 -4 8 -4 22 0 30 5 13 55 15 393
13 l388 -3 0 -25z"/>
<path d="M1494 2273 c-12 -2 -30 -13 -40 -25 -18 -18 -19 -45 -22 -329 -3
-350 -2 -359 66 -379 24 -7 118 -10 264 -8 221 3 228 4 250 26 23 23 23 23 23
343 l0 321 -33 29 -32 29 -228 -1 c-125 -1 -237 -4 -248 -6z m409 -130 c3 -5
8 -110 12 -234 6 -191 5 -228 -8 -240 -21 -21 -334 -20 -348 2 -10 15 -13 438
-3 463 5 14 30 16 174 16 93 0 171 -3 173 -7z"/>
<path d="M3653 2193 c-13 -2 -32 -16 -43 -30 -18 -23 -20 -40 -20 -158 0 -128
1 -132 26 -156 24 -23 33 -24 172 -27 168 -3 186 4 202 73 13 54 12 192 -1
238 -15 56 -50 67 -196 66 -65 -1 -128 -4 -140 -6z m209 -132 c8 -11 12 -37
10 -65 l-4 -46 -72 0 c-82 0 -96 9 -96 58 0 61 13 72 85 72 51 0 66 -4 77 -19z"/>
<path d="M4354 3235 c-4 -8 -4 -22 0 -30 5 -13 55 -15 393 -13 370 3 388 4
391 22 2 10 -2 22 -10 27 -7 5 -183 9 -391 9 -327 0 -378 -2 -383 -15z"/>
<path d="M4382 3073 c-29 -4 -33 -8 -30 -31 l3 -27 370 -3 c204 -1 380 0 393
3 27 7 30 40 4 54 -18 10 -668 13 -740 4z"/>
<path d="M4354 2875 c-4 -8 -4 -22 0 -30 5 -13 55 -15 393 -13 l388 3 0 25 0
25 -388 3 c-338 2 -388 0 -393 -13z"/>
<path d="M4354 2695 c-4 -8 -4 -22 0 -30 5 -13 55 -15 393 -13 l388 3 3 28 3
27 -391 0 c-338 0 -391 -2 -396 -15z"/>
<path d="M4347 2516 c-3 -8 0 -21 6 -30 11 -15 53 -16 397 -14 l385 3 0 25 0
25 -391 3 c-330 2 -393 0 -397 -12z"/>
<path d="M4367 2353 c-13 -3 -17 -12 -15 -31 l3 -27 390 0 390 0 3 23 c2 12
-3 24 -10 26 -19 6 -740 15 -761 9z"/>
<path d="M4347 2156 c-3 -8 0 -21 6 -30 11 -15 53 -16 397 -14 l385 3 0 25 0
25 -391 3 c-330 2 -393 0 -397 -12z"/>
<path d="M4363 1993 c-18 -7 -16 -50 3 -57 24 -9 747 -7 762 3 8 5 12 17 10
27 -3 17 -17 20 -138 25 -163 8 -620 9 -637 2z"/>
<path d="M4357 1813 c-16 -15 -6 -51 16 -57 29 -8 731 -8 751 0 21 8 21 50 0
58 -21 8 -759 8 -767 -1z"/>
<path d="M8043 2382 c-52 -16 -75 -59 -57 -107 22 -56 205 -63 241 -9 23 36
10 90 -27 109 -29 15 -116 19 -157 7z"/>
<path d="M2742 1802 c-217 -78 -278 -370 -111 -531 163 -159 439 -96 519 117
57 152 -12 327 -157 398 -73 36 -176 42 -251 16z"/>
<path d="M7200 1804 c-136 -50 -210 -158 -210 -310 0 -88 31 -166 90 -224 158
-159 444 -96 517 113 26 77 24 188 -6 254 -27 62 -94 126 -159 156 -63 27
-172 33 -232 11z"/>
<path d="M7296 4709 c-47 -37 -37 -69 52 -161 70 -72 81 -80 105 -74 34 8 61
48 52 76 -8 26 -155 180 -171 180 -6 0 -23 -9 -38 -21z"/>
<path d="M8060 4706 c-41 -28 -92 -90 -117 -140 -16 -35 -16 -37 4 -64 36 -49
62 -42 131 36 84 95 95 117 76 154 -8 15 -19 28 -23 28 -5 0 -15 2 -23 5 -7 3
-29 -6 -48 -19z"/>
<path d="M6088 4625 c-32 -8 -80 -26 -108 -40 -42 -21 -50 -30 -50 -54 0 -15
9 -36 20 -46 20 -18 24 -18 138 9 151 36 164 45 160 99 l-3 42 -50 2 c-27 1
-76 -5 -107 -12z"/>
<path d="M5990 4393 c-37 -14 -42 -75 -7 -97 27 -17 202 -49 242 -44 36 4 61
43 52 80 -9 33 -19 37 -147 54 -114 15 -118 15 -140 7z"/>
<path d="M8145 4363 c-67 -8 -95 -52 -61 -99 13 -17 27 -19 124 -19 78 0 114
4 125 14 20 16 23 74 5 89 -15 12 -136 22 -193 15z"/>
<path d="M7101 4351 c-22 -14 -19 -80 4 -97 28 -21 203 -19 233 2 29 20 31 79
3 94 -24 12 -221 13 -240 1z"/>
<path d="M5925 4195 c-14 -13 -25 -32 -25 -41 0 -9 36 -52 80 -96 74 -74 82
-79 117 -76 28 2 41 9 52 29 14 26 13 29 -27 76 -44 53 -141 133 -161 133 -6
0 -23 -11 -36 -25z"/>
</g>
</svg>
