<?xml version="1.0" standalone="no"?>
<!DOCTYPE svg PUBLIC "-//W3C//DTD SVG 20010904//EN"
 "http://www.w3.org/TR/2001/REC-SVG-20010904/DTD/svg10.dtd">
<svg version="1.0" xmlns="http://www.w3.org/2000/svg"
 width="1500.000000pt" height="1251.000000pt" viewBox="0 0 1500.000000 1251.000000"
 preserveAspectRatio="xMidYMid meet">
<metadata>
Created by potrace 1.16, written by Peter Selinger 2001-2019
</metadata>
<g transform="translate(0.000000,1251.000000) scale(0.100000,-0.100000)"
fill="#000000" stroke="none">
<path d="M9006 11839 c-77 -110 -143 -202 -146 -204 -3 -2 -30 12 -60 30 -30
18 -58 31 -62 29 -4 -3 -80 -90 -168 -194 -88 -105 -164 -190 -168 -190 -4 0
-46 19 -94 42 l-88 41 -209 -66 c-116 -37 -216 -67 -223 -67 -7 0 -46 33 -88
74 l-75 74 -240 -69 c-132 -37 -248 -68 -257 -69 -15 0 -18 9 -18 44 l0 44
-40 4 c-23 2 -45 1 -49 -2 -4 -3 -11 -148 -14 -323 -3 -176 -8 -321 -10 -324
-4 -3 -315 -38 -1367 -152 -849 -92 -1078 -117 -1380 -150 -190 -21 -348 -36
-352 -34 -9 5 -11 487 -2 518 4 15 57 47 189 112 l183 92 138 -39 c77 -22 144
-40 151 -40 6 0 78 48 159 106 81 58 157 112 170 120 16 11 81 17 260 25 l238
9 355 190 354 190 136 1 136 0 -115 59 c-63 32 -122 59 -130 59 -8 1 -196 -72
-418 -160 l-403 -162 -208 23 c-115 12 -219 22 -232 23 -16 1 -76 -37 -176
-112 -99 -73 -157 -110 -165 -105 -7 4 -59 41 -114 81 l-102 74 -193 -55
c-157 -44 -203 -53 -241 -49 l-48 6 0 -99 c0 -55 -7 -361 -15 -681 l-14 -582
-79 -153 c-44 -84 -171 -333 -282 -553 -111 -220 -269 -530 -350 -690 -81
-159 -288 -567 -460 -905 -511 -1006 -636 -1253 -765 -1505 -67 -132 -223
-438 -345 -680 -122 -242 -251 -494 -285 -560 -34 -66 -192 -376 -350 -690
-159 -313 -294 -579 -302 -590 -15 -22 -17 -44 -5 -62 6 -10 39 -8 152 6 248
33 385 42 710 48 368 6 730 -14 730 -41 0 -14 -110 -298 -120 -309 -6 -7 -277
60 -495 123 l-70 20 -33 -36 c-19 -19 -32 -41 -29 -47 6 -17 543 -1663 584
-1790 24 -76 41 -112 57 -122 12 -8 60 -22 106 -31 207 -39 420 -122 567 -221
212 -143 369 -350 452 -599 20 -58 39 -97 56 -111 l26 -23 3215 0 3215 0 52
26 c126 64 332 215 473 347 83 77 221 237 300 347 300 416 494 949 570 1560 8
68 16 125 17 126 1 1 259 106 572 234 314 128 617 251 675 275 438 179 1213
495 1605 655 259 105 473 195 477 199 5 4 0 26 -9 49 -15 39 -19 42 -45 37
-25 -6 -41 4 -145 97 -65 56 -273 240 -463 408 -480 423 -1598 1410 -1695
1495 -44 39 -352 311 -685 605 -333 293 -657 579 -720 635 -63 56 -234 207
-380 335 -146 129 -319 282 -385 340 -66 58 -316 279 -555 490 -492 434 -734
647 -1060 935 -654 578 -1060 936 -1117 985 l-64 55 3 60 3 60 215 77 c118 42
223 77 233 77 11 1 61 -24 113 -54 l93 -55 230 120 230 121 99 -29 98 -29 162
197 161 198 70 -21 c39 -12 72 -19 74 -16 2 2 69 100 147 217 135 199 146 212
175 212 16 0 248 -20 515 -45 266 -24 485 -43 487 -42 1 2 -141 43 -315 92
-174 48 -410 115 -524 147 -114 32 -213 58 -220 58 -7 -1 -76 -91 -152 -201z
m-2011 -1546 c-7 -382 -10 -472 -17 -476 -3 -1 -153 138 -333 308 -180 171
-343 323 -361 338 l-34 28 -43 -26 -44 -25 52 -163 c203 -628 256 -1119 179
-1657 -21 -152 -57 -331 -125 -623 -40 -177 -56 -264 -50 -275 23 -42 44 -50
181 -61 152 -13 339 -48 459 -86 l81 -26 -1 -137 c0 -75 -4 -159 -7 -186 l-7
-48 -19 21 c-11 11 -24 21 -29 21 -5 0 -40 19 -76 42 -108 68 -1159 734 -1523
965 l-337 215 -41 -29 c-22 -15 -40 -31 -40 -36 0 -4 33 -141 74 -305 450
-1797 593 -2691 613 -3840 l6 -342 -179 -465 c-98 -256 -181 -465 -184 -465
-3 0 -34 118 -69 263 -35 144 -92 381 -128 527 -79 329 -75 311 -178 740 -132
548 -231 960 -395 1640 -83 344 -169 699 -190 790 -22 91 -85 352 -140 580
-55 228 -123 508 -150 622 l-50 207 2 983 3 983 125 13 c205 21 1551 167 2360
256 316 35 585 64 598 65 l23 1 -6 -337z m288 144 c89 -79 333 -294 542 -478
209 -184 538 -474 730 -644 193 -169 414 -365 492 -433 l143 -125 128 -211
c500 -819 1120 -1953 1405 -2571 33 -71 39 -78 -134 136 -64 79 -148 182 -186
229 -38 47 -138 171 -223 275 -650 802 -813 1003 -950 1171 -85 105 -200 247
-255 315 -56 68 -343 423 -640 789 -297 366 -694 855 -882 1088 l-343 423 0
89 c0 50 3 90 6 90 3 0 78 -64 167 -143z m200 -605 c194 -240 468 -579 609
-752 l255 -316 81 -199 c591 -1458 1045 -2881 1301 -4075 39 -184 141 -714
141 -734 0 -3 15 -13 33 -24 32 -19 33 -19 192 4 719 104 1409 110 2042 19
269 -39 302 -48 335 -87 15 -18 28 -37 28 -43 0 -5 -188 -79 -418 -164 -436
-162 -640 -237 -1472 -546 -277 -104 -554 -201 -615 -217 -376 -97 -805 -185
-1218 -248 -105 -16 -192 -28 -192 -27 -5 7 -55 255 -55 270 0 13 6 16 23 13
12 -3 86 -17 165 -32 169 -31 193 -27 222 40 36 85 171 507 209 656 92 357
124 591 125 905 1 351 -37 618 -155 1090 -57 227 -131 489 -143 507 -12 17
-107 78 -931 600 -181 115 -336 215 -344 223 -13 13 -116 474 -107 482 9 9
226 -218 289 -302 62 -83 156 -253 184 -333 11 -32 13 -33 65 -30 l53 3 42
125 c130 391 135 834 13 1328 -64 261 -152 507 -303 853 l-63 144 -382 360
-382 360 0 298 c0 194 3 296 10 292 5 -3 169 -203 363 -443z m-808 97 c4 -10
13 -19 22 -19 15 0 121 -97 498 -455 94 -89 262 -249 375 -354 l205 -193 63
-125 c34 -69 62 -132 62 -140 0 -7 10 -27 21 -43 14 -19 20 -36 16 -52 -9 -32
6 -83 24 -83 21 0 25 -8 79 -173 152 -461 199 -877 145 -1282 -16 -118 -55
-300 -64 -300 -3 0 -24 33 -46 72 -130 235 -386 490 -664 662 -153 94 -356
187 -518 236 -46 14 -73 27 -73 36 0 16 -12 18 -26 4 -6 -6 -53 0 -129 15 -66
14 -166 28 -223 32 -56 3 -104 9 -106 12 -2 3 14 87 36 186 104 483 132 720
133 1125 0 407 -25 612 -120 985 -25 98 -45 181 -45 183 0 11 330 -312 335
-329z m-2891 -1269 c-22 -1875 -44 -3895 -49 -4495 -6 -614 -11 -875 -19 -882
-2 -2 -57 20 -123 50 -218 101 -469 193 -693 253 -52 14 -101 33 -108 42 -8
11 -15 13 -23 5 -7 -7 -33 -5 -87 8 -206 48 -507 90 -772 109 -162 12 -596 14
-663 3 l-38 -6 7 42 c5 33 4 41 -8 41 -10 0 -18 -14 -22 -39 l-6 -38 -156 -13
c-86 -7 -200 -18 -255 -24 -54 -7 -99 -9 -99 -6 0 5 328 641 595 1155 169 325
513 992 550 1065 21 41 40 69 42 63 3 -7 11 -13 19 -13 10 0 14 13 14 47 0 50
16 83 400 818 32 61 86 166 121 235 63 124 64 125 69 87 3 -21 10 -39 15 -40
14 -3 19 72 5 88 -9 10 33 99 185 392 108 208 224 433 258 501 34 67 64 122
67 122 3 0 5 -15 5 -32 0 -23 5 -33 15 -33 11 0 14 10 11 40 -1 22 -7 43 -12
46 -5 3 35 91 89 195 181 348 248 477 437 844 190 370 235 454 239 448 1 -2
-4 -487 -10 -1078z m6133 -566 c241 -212 508 -448 593 -523 85 -75 461 -406
835 -736 374 -330 905 -798 1180 -1040 774 -682 842 -742 1134 -999 l273 -241
-233 -7 c-635 -19 -1266 -122 -1916 -314 -87 -26 -166 -47 -177 -48 -15 -1
-28 25 -67 134 -419 1147 -914 2187 -1636 3432 -124 214 -377 639 -421 706 -8
12 -12 22 -9 22 4 0 203 -174 444 -386z m-1077 36 c101 -124 252 -308 334
-410 83 -102 249 -306 371 -455 121 -148 306 -376 412 -505 105 -129 358 -440
562 -690 239 -293 381 -475 397 -510 130 -278 368 -866 506 -1248 105 -291 78
-275 340 -199 235 69 286 82 291 76 102 -123 276 -343 274 -346 -2 -1 -62 6
-133 17 -634 96 -1324 92 -2073 -10 -80 -11 -146 -18 -148 -16 -2 1 -21 97
-43 212 -250 1327 -650 2654 -1250 4154 -45 113 -84 212 -87 220 -5 17 1 9
247 -290z m-3710 60 c58 -37 193 -122 300 -190 107 -68 317 -201 465 -295 506
-322 689 -437 700 -442 7 -2 18 -15 25 -29 8 -14 21 -23 31 -22 15 3 350 -207
1398 -874 196 -124 355 -232 353 -238 -5 -22 19 -80 34 -80 17 0 18 14 3 42
-6 11 -8 22 -5 25 3 3 106 -59 229 -137 l225 -142 51 -197 c64 -250 96 -387
131 -581 56 -305 65 -409 65 -745 -1 -330 -8 -415 -61 -690 -44 -227 -75 -344
-170 -644 l-58 -183 -41 5 c-22 3 -105 17 -185 30 -815 142 -1842 80 -2875
-172 -66 -16 -121 -29 -122 -28 -1 1 2 63 7 137 35 572 39 1669 6 2130 -65
919 -168 1493 -540 3002 -53 213 -96 390 -96 393 0 7 -5 10 130 -75z m2014
-744 c6 -28 27 -408 23 -412 -1 -2 -17 6 -35 18 l-32 20 0 173 c0 193 5 236
26 228 8 -3 16 -15 18 -27z m-2694 -2524 c261 -1387 470 -2525 467 -2529 -4
-3 -37 -2 -73 3 l-66 9 -108 190 -108 190 -31 245 c-17 135 -62 490 -101 790
-38 300 -99 779 -135 1065 -36 286 -84 657 -105 825 -154 1208 -210 1652 -216
1695 -4 28 -4 48 -2 45 3 -3 218 -1140 478 -2528z m2831 2260 c13 -125 21
-228 17 -230 -4 -2 -21 6 -36 17 -28 20 -29 22 -36 143 -3 68 -9 167 -13 221
l-6 98 25 -11 c24 -11 25 -17 49 -238z m-3327 -97 c19 -154 72 -566 116 -915
171 -1343 361 -2835 390 -3064 17 -131 29 -241 26 -243 -4 -4 -248 16 -253 21
-2 2 -28 357 -223 3081 -103 1437 -102 1423 -95 1410 2 -5 20 -136 39 -290z
m3412 257 c18 -15 27 -50 58 -247 20 -126 36 -235 36 -242 0 -7 -19 1 -45 18
-25 17 -45 37 -45 45 0 20 -39 383 -45 417 -5 32 10 35 41 9z m144 -96 c0 -1
23 -110 50 -241 28 -131 49 -242 48 -247 -2 -4 -19 3 -38 16 l-35 24 -33 205
c-18 113 -36 222 -39 242 l-6 37 26 -17 c15 -9 27 -18 27 -19z m-3396 -113
c14 -61 48 -203 75 -315 44 -180 255 -1053 546 -2263 96 -400 161 -670 301
-1250 41 -170 83 -344 94 -386 l19 -76 -78 -202 c-43 -110 -80 -204 -83 -207
-4 -3 -11 18 -17 48 -16 78 -882 4697 -888 4738 -12 71 6 21 31 -87z m-154
-1293 c33 -481 94 -1341 135 -1910 41 -569 72 -1036 70 -1038 -4 -4 -166 12
-248 25 l-38 6 2 1916 c1 1054 5 1907 10 1896 4 -11 35 -414 69 -895z m10161
-1432 c24 -20 68 -58 98 -85 l53 -48 -278 -104 c-1359 -505 -1407 -522 -1419
-509 -7 7 -70 85 -141 173 -70 88 -168 209 -217 268 -49 60 -87 110 -85 112 4
5 328 79 433 99 278 55 685 108 955 125 74 5 230 8 346 7 l211 -1 44 -37z
m-8574 -1025 l-7 -317 -101 -326 c-56 -179 -105 -331 -109 -339 -7 -14 -115
406 -113 439 1 8 72 197 158 420 87 223 159 413 162 423 3 9 8 17 11 17 3 0 2
-143 -1 -317z m-3185 206 c47 -6 92 -15 98 -19 8 -5 -3 -55 -40 -176 -29 -93
-56 -173 -60 -177 -11 -12 -262 53 -257 67 3 6 33 82 67 169 56 144 64 158 84
153 11 -2 60 -10 108 -17z m400 -80 c26 -6 50 -15 53 -20 5 -7 -71 -360 -78
-365 -2 -2 -311 67 -314 70 -3 3 103 341 111 354 4 7 35 4 93 -9 49 -11 109
-24 135 -30z m260 -75 c62 -19 116 -39 121 -43 7 -7 -37 -328 -46 -337 -5 -5
-285 51 -292 58 -4 4 55 288 71 341 7 23 16 22 146 -19z m269 -93 c99 -38 310
-131 327 -144 10 -8 11 -36 6 -121 -4 -61 -8 -113 -10 -114 -4 -6 -438 69
-446 77 -8 7 36 331 46 331 1 0 35 -13 77 -29z m-1601 -74 l115 -32 3 -174 c2
-137 0 -172 -10 -168 -7 3 -41 17 -75 32 l-63 28 -55 169 c-30 93 -55 171 -55
173 0 9 24 4 140 -28z m355 -93 l145 -36 0 -203 0 -203 -97 38 c-54 21 -120
47 -148 58 l-50 20 -3 181 c-1 99 0 181 3 181 3 0 71 -16 150 -36z m420 -102
l110 -27 3 -210 c1 -115 0 -215 -2 -222 -4 -8 -44 1 -143 34 -76 25 -142 49
-146 53 -4 4 -9 98 -11 209 l-3 203 41 -7 c23 -3 91 -18 151 -33z m370 -81
l120 -26 3 -238 c1 -130 -1 -237 -5 -237 -4 0 -72 19 -150 42 l-143 41 0 229
0 228 28 -7 c15 -3 81 -18 147 -32z m513 -101 c1 0 2 -112 2 -250 0 -193 -3
-250 -12 -250 -7 0 -73 16 -147 35 -74 19 -136 35 -138 35 -2 0 -3 109 -3 243
l0 243 148 -27 c81 -16 148 -28 150 -29z m7622 -187 c-39 -272 -39 -274 -85
-300 -22 -12 -52 -25 -68 -28 l-27 -7 2 228 3 227 95 32 c88 30 95 31 98 14 2
-10 -6 -85 -18 -166z m-7395 152 c61 -9 120 -18 133 -21 l22 -4 0 -265 c0
-146 -3 -265 -6 -265 -14 0 -277 61 -285 66 -5 3 -9 120 -9 260 0 238 1 255
18 250 9 -3 67 -12 127 -21z m430 -59 l110 -12 3 -282 c2 -222 0 -282 -10
-282 -7 1 -74 13 -148 28 l-135 28 -3 272 -2 272 37 -6 c21 -3 88 -11 148 -18z
m6705 -235 c0 -209 -2 -229 -17 -236 -35 -14 -247 -85 -255 -85 -4 0 -8 104
-8 230 0 230 0 230 23 240 35 14 231 78 245 79 9 1 12 -51 12 -228z m-5195 96
l-7 -124 32 -26 c37 -32 35 -32 129 -7 71 19 111 25 111 16 0 -8 -51 -220 -53
-223 -5 -4 -338 35 -344 41 -6 6 127 446 135 446 3 0 1 -56 -3 -123z m-1090
97 c22 -4 36 -16 53 -44 21 -38 22 -48 22 -301 l0 -261 -37 6 c-21 4 -89 16
-150 27 l-113 21 0 285 0 285 98 -6 c53 -4 111 -9 127 -12z m3029 -269 c9
-148 16 -283 16 -299 l0 -28 -137 6 c-76 4 -162 9 -190 13 l-53 5 0 279 c0
215 3 281 13 284 20 7 321 21 328 15 4 -3 14 -126 23 -275z m317 268 c0 -10
15 -148 33 -308 18 -159 30 -293 27 -296 -3 -3 -71 -3 -151 0 l-145 6 -17 255
c-9 140 -17 279 -17 308 l-1 52 135 0 c122 0 135 -2 136 -17z m279 7 c30 0 61
-4 69 -9 9 -6 24 -72 42 -182 34 -206 33 -199 14 -199 -45 0 -76 -32 -125
-130 l-50 -100 -49 0 -50 0 -6 43 c-6 43 -65 574 -65 584 0 3 37 3 83 0 45 -4
107 -7 137 -7z m310 -30 c52 -6 95 -12 96 -13 4 -5 64 -300 62 -303 -4 -3
-224 -34 -247 -34 -15 0 -21 23 -44 168 -34 212 -35 202 6 196 17 -2 75 -9
127 -14z m-3099 -381 c-5 -6 -202 15 -222 23 -5 2 59 177 126 343 6 15 21 -32
55 -170 26 -104 44 -193 41 -196z m1586 274 c-4 -54 -7 -171 -7 -260 l0 -163
-57 0 c-83 1 -602 45 -609 52 -9 9 46 362 57 369 17 10 538 95 603 98 18 1 19
-5 13 -96z m3503 -177 l0 -234 -125 -31 c-68 -17 -129 -31 -135 -31 -6 0 -10
79 -10 228 l0 228 128 36 c70 20 130 37 135 37 4 1 7 -104 7 -233z m-4195 132
c-11 -69 -45 -297 -45 -307 0 -6 -19 -11 -41 -11 -38 0 -271 21 -276 25 -7 4
51 241 61 252 8 8 249 67 299 72 4 1 5 -14 2 -31z m3842 -225 l-2 -228 -100
-22 c-55 -12 -117 -25 -137 -28 l-38 -7 0 225 0 225 123 30 c67 16 130 30 139
31 16 1 17 -18 15 -226z m-5341 44 c33 -56 54 -82 77 -92 18 -8 181 -32 362
-55 836 -102 1544 -161 2465 -205 368 -18 461 -19 494 -4 18 9 41 43 77 115
29 57 56 104 60 104 5 0 9 -85 9 -189 l0 -189 -127 -8 c-187 -12 -914 -9
-1163 5 -722 39 -1539 125 -2155 226 -82 14 -153 25 -157 25 -4 0 -8 84 -7
188 0 129 3 182 10 172 6 -8 31 -50 55 -93z m4984 -128 c0 -120 -3 -219 -7
-219 -5 0 -68 -11 -140 -24 l-133 -23 0 218 c0 219 0 219 23 224 116 27 243
51 250 48 4 -2 7 -103 7 -224z m-360 -63 l0 -214 -77 -11 c-43 -6 -106 -15
-140 -20 l-63 -8 0 211 0 212 118 21 c64 11 127 21 140 22 l22 1 0 -214z
m-6930 48 c1295 -357 2602 -588 3830 -679 565 -41 1414 -53 1865 -26 824 49
1483 144 2155 311 190 47 460 123 549 155 49 17 71 19 71 7 0 -13 -127 -160
-153 -176 -45 -30 -675 -165 -1122 -241 -517 -88 -1005 -147 -1530 -185 -705
-50 -1561 -44 -2285 16 -1239 102 -2481 356 -3670 749 l-165 55 -26 75 c-14
41 -24 77 -22 78 2 2 63 -14 136 -35 72 -22 238 -68 367 -104z m6570 -103 l0
-208 -52 -6 c-29 -4 -92 -10 -140 -13 l-88 -7 0 200 0 200 123 20 c67 11 130
21 140 22 16 1 17 -15 17 -208z m-360 -45 c0 -177 -2 -195 -17 -200 -10 -2
-73 -8 -140 -11 l-123 -7 0 190 0 191 43 6 c137 19 166 23 200 24 l37 1 0
-194z m-6539 9 c694 -238 1757 -498 2484 -610 550 -84 920 -127 1370 -159 444
-32 703 -39 1254 -33 767 8 1267 44 1976 143 430 60 1197 204 1403 263 17 5
32 6 32 2 0 -8 -108 -97 -188 -155 -60 -43 -99 -54 -552 -146 -716 -145 -1388
-232 -2175 -280 -228 -14 -1032 -20 -1275 -10 -1421 62 -2737 299 -4245 766
l-111 34 -32 98 c-18 54 -32 101 -32 105 0 11 12 9 91 -18z m171 -329 c390
-121 972 -275 1400 -371 2104 -468 4116 -494 6187 -80 151 30 276 53 278 51 7
-6 -219 -113 -347 -164 -478 -190 -1016 -298 -1765 -354 -221 -17 -1101 -17
-1370 0 -1148 72 -2138 211 -3725 522 -256 51 -524 103 -596 117 l-130 25 -41
126 c-55 170 -56 172 -44 172 5 0 74 -20 153 -44z"/>
</g>
</svg>
