<svg viewBox="0 0 200 200" xmlns="http://www.w3.org/2000/svg"><!-- Cabin (front engine) --><rect x="30" y="85" width="35" height="45" rx="4" fill="none" stroke="black" stroke-width="2"/><!-- Smokestack --><rect x="38" y="60" width="8" height="30" fill="none" stroke="black" stroke-width="2" rx="2"/><path d="M40 60 Q35 50 42 50" stroke="black" stroke-width="1.5" stroke-linecap="round"/><!-- Cargo cars (multiple) --><rect x="65" y="75" width="50" height="55" rx="3" fill="none" stroke="black" stroke-width="2"/><rect x="117" y="75" width="45" height="55" rx="3" fill="none" stroke="black" stroke-width="2"/><!-- Cargo division lines --><line x1="80" y1="75" x2="80" y2="130" stroke="black" stroke-width="1"/><line x1="95" y1="75" x2="95" y2="130" stroke="black" stroke-width="1"/><!-- Wheels (freight train) --><circle cx="50" cy="140" r="11" fill="none" stroke="black" stroke-width="2" /><circle cx="50" cy="140" r="6" fill="none" stroke="black" stroke-width="1.5"/><circle cx="90" cy="140" r="11" fill="none" stroke="black" stroke-width="2" /><circle cx="90" cy="140" r="6" fill="none" stroke="black" stroke-width="1.5"/><circle cx="140" cy="140" r="11" fill="none" stroke="black" stroke-width="2" /><circle cx="140" cy="140" r="6" fill="none" stroke="black" stroke-width="1.5"/><!-- Coupling rods --><path d="M65 120 L60 140 M68 120 L50 140" stroke="black" stroke-width="1.5" stroke-linecap="round"/></svg>