<?xml version="1.0" standalone="no"?>
<!DOCTYPE svg PUBLIC "-//W3C//DTD SVG 20010904//EN"
 "http://www.w3.org/TR/2001/REC-SVG-20010904/DTD/svg10.dtd">
<svg version="1.0" xmlns="http://www.w3.org/2000/svg"
 width="506.000000pt" height="511.000000pt" viewBox="0 0 506.000000 511.000000"
 preserveAspectRatio="xMidYMid meet">
<metadata>
Created by potrace 1.16, written by Peter Selinger 2001-2019
</metadata>
<g transform="translate(0.000000,511.000000) scale(0.100000,-0.100000)"
fill="none" stroke="#000000">
<path d="M2055 5029 c-185 -12 -374 -39 -440 -62 -177 -60 -508 -215 -627
-294 -100 -66 -131 -107 -166 -221 -17 -54 -33 -109 -36 -124 -3 -15 -15 -29
-26 -33 -10 -3 -31 -20 -45 -37 l-26 -31 2 -176 c1 -159 -1 -193 -30 -351 -17
-96 -34 -185 -36 -197 -5 -20 -12 -23 -53 -25 -41 -1 -38 -2 23 -8 39 -4 93
-7 120 -7 49 0 49 0 -16 9 l-65 10 30 179 c28 164 43 203 45 116 1 -22 8 -30
31 -38 35 -13 35 -17 15 -122 -8 -43 -15 -83 -15 -88 0 -4 35 -6 79 -2 l79 6
16 -35 c18 -38 45 -56 97 -67 33 -6 35 -9 71 -115 20 -59 41 -113 48 -120 21
-20 36 18 49 124 12 90 15 100 34 100 22 0 23 17 -7 -205 -8 -60 -17 -143 -21
-182 -7 -70 -8 -73 -34 -73 -16 0 -21 -3 -14 -8 9 -6 5 -19 -14 -51 l-25 -43
-39 38 c-43 42 -41 47 25 59 22 3 35 10 29 13 -6 4 -21 49 -33 100 -12 51 -24
91 -27 88 -3 -2 5 -43 16 -90 12 -46 21 -89 21 -94 0 -5 -19 -12 -42 -15 -23
-3 -45 -13 -50 -21 -8 -14 -36 -16 -193 -16 l-184 0 -6 38 c-41 259 -93 393
-187 477 l-49 44 63 4 c35 2 15 3 -44 3 l-107 -1 -36 -35 c-66 -63 -102 -163
-139 -390 -36 -216 -49 -473 -25 -497 7 -7 7 -76 -1 -234 -35 -674 80 -1325
243 -1378 18 -6 66 -12 107 -15 41 -2 121 -7 178 -11 74 -6 102 -5 102 4 0 6
17 11 40 11 33 0 40 -4 44 -22 29 -137 41 -186 67 -261 56 -169 102 -223 200
-237 118 -16 369 -24 369 -11 0 7 24 11 68 11 49 0 80 6 118 24 48 22 118 90
134 131 5 11 18 46 30 78 13 31 28 61 35 65 14 8 47 112 36 112 -10 0 27 151
41 167 15 18 28 87 18 93 -10 6 12 187 27 215 17 32 25 105 12 105 -13 0 -8
221 6 253 7 16 29 17 264 17 l256 -1 65 -33 c36 -18 90 -46 120 -62 54 -28 59
-29 241 -33 l187 -3 6 -42 c11 -71 66 -233 99 -288 47 -78 71 -87 283 -100
137 -9 179 -9 182 0 2 7 21 12 42 12 l39 0 12 -57 c44 -211 94 -345 152 -408
50 -55 70 -59 313 -70 116 -5 163 -4 168 4 4 6 33 11 64 11 31 0 72 4 91 10
58 16 156 109 166 157 6 31 47 118 61 128 15 12 43 105 37 123 -6 15 26 143
39 159 15 19 28 87 18 93 -10 6 15 196 28 213 13 16 20 107 8 107 -12 0 2 242
14 254 6 6 10 36 10 68 0 46 -3 58 -15 58 -14 0 -15 23 -13 181 3 163 1 181
-14 190 -10 6 -18 22 -18 36 0 15 -7 64 -16 111 -8 46 -13 90 -10 97 5 14 -19
101 -33 119 -13 16 -81 201 -81 221 0 25 -41 95 -56 95 -7 0 -30 20 -51 44
-21 23 -48 46 -60 50 -34 11 -29 36 7 36 61 0 132 45 161 103 59 114 -37 248
-190 263 -60 7 -63 8 -83 48 -11 22 -45 66 -75 97 -54 57 -54 58 -35 77 17 17
21 40 28 178 13 258 12 289 -12 321 -35 48 -97 73 -186 73 -85 0 -124 -13
-134 -43 -3 -11 -3 -117 1 -235 7 -206 7 -214 -11 -209 -44 13 -171 40 -348
76 -156 31 -191 41 -198 57 -8 20 -108 620 -108 650 0 9 20 39 45 65 50 54 54
74 25 133 -27 55 -68 80 -180 111 -333 89 -819 131 -1215 104z m676 -24 c223
-24 449 -64 587 -104 103 -30 162 -114 127 -180 -21 -41 -75 -82 -94 -71 -9 4
-50 19 -91 33 -219 73 -437 115 -660 125 -155 8 -426 -2 -500 -17 l-45 -10 55
4 c30 3 154 8 274 11 297 9 487 -14 756 -89 98 -27 110 -32 77 -35 -20 -2 -74
6 -120 17 -188 48 -430 71 -702 69 -71 0 -155 2 -185 5 -52 5 -53 5 -4 -1 67
-9 122 -47 214 -146 41 -44 115 -120 164 -169 89 -90 95 -106 41 -107 -30 0
-58 21 -175 135 -110 106 -172 153 -243 185 -45 21 -112 26 -136 11 -10 -6 0
-8 27 -4 51 7 110 -14 177 -62 l48 -34 -49 -4 -49 -3 59 -2 59 -2 95 -92 c52
-51 103 -111 114 -133 15 -31 18 -34 13 -12 -5 25 -4 27 14 18 29 -16 66 -13
91 7 l22 17 -45 33 c-25 17 -89 81 -141 141 -53 60 -119 130 -147 155 l-51 46
213 0 c214 0 345 -12 502 -45 44 -9 90 -21 104 -26 25 -9 25 -10 7 -25 -17
-13 -15 -13 13 1 46 22 105 19 137 -6 35 -27 33 -35 -11 -47 l-38 -11 40 2 40
2 12 -70 c6 -38 30 -177 52 -307 23 -130 41 -239 41 -242 0 -2 -8 -7 -17 -9
-14 -4 -12 -5 5 -6 15 -1 22 5 22 17 0 9 -21 134 -46 277 -24 143 -48 284 -51
313 -4 35 -14 60 -29 77 -26 28 -24 30 23 13 18 -7 35 -19 37 -27 3 -9 28
-162 57 -341 29 -179 57 -330 63 -336 6 -6 76 -23 156 -39 182 -34 424 -89
512 -114 132 -38 204 -89 277 -195 46 -67 49 -76 22 -76 -10 0 -38 -18 -62
-39 l-45 -39 -249 -10 -250 -10 250 3 c219 3 248 2 231 -11 -13 -9 -15 -14 -6
-14 7 0 10 -3 6 -7 -4 -5 -55 -13 -114 -20 l-107 -12 108 4 107 5 0 -30 c0
-27 -3 -29 -42 -33 l-43 -4 50 -2 c41 -3 46 -4 25 -11 -23 -7 -23 -8 -3 -9 12
-1 30 -14 42 -33 l20 -33 -32 -6 c-28 -6 -26 -7 16 -8 l49 -1 -25 30 c-91 108
-36 255 108 285 29 6 29 5 -7 -14 -104 -58 -129 -190 -52 -280 21 -24 30 -41
22 -41 -8 0 -18 4 -23 9 -6 6 -25 6 -45 1 -24 -5 -28 -8 -12 -9 24 -1 27 -12
12 -42 -8 -15 -22 -19 -63 -20 -29 -1 -79 -5 -112 -9 -48 -7 -37 -8 55 -5 124
3 127 0 10 -14 l-75 -10 83 2 c79 2 92 -3 74 -29 -4 -6 -63 -16 -132 -22
l-125 -10 125 3 c136 3 139 0 15 -15 l-80 -9 88 3 c95 3 103 -4 49 -41 -26
-17 -53 -22 -150 -28 -146 -8 -162 -13 -52 -16 82 -2 83 -2 35 -10 -27 -5
-246 -10 -485 -11 -338 -1 -407 -4 -310 -10 69 -5 276 -6 460 -4 351 5 400 10
488 55 52 27 58 36 96 142 19 51 38 94 42 96 5 1 16 -2 24 -7 12 -8 13 -16 2
-57 -17 -67 -52 -155 -70 -175 -20 -24 -94 -57 -176 -78 -39 -10 -62 -19 -51
-19 31 -1 118 24 179 52 62 29 77 52 125 200 21 62 25 67 52 67 16 0 29 -4 29
-8 0 -49 -97 -432 -205 -808 l-57 -201 -87 -27 c-47 -15 -120 -33 -161 -40
-56 -10 -66 -14 -37 -15 34 -1 105 15 245 56 30 8 56 12 59 9 3 -3 -24 -94
-61 -202 -53 -160 -72 -204 -98 -231 -54 -55 -124 -84 -245 -98 -150 -18 -729
-38 -958 -34 -181 4 -193 5 -248 31 -66 31 -154 115 -188 179 -31 58 -31 154
0 264 38 138 52 146 164 95 79 -36 201 -70 242 -69 20 1 10 5 -30 13 -73 15
-152 41 -222 72 -90 41 -121 30 -148 -51 -64 -194 -60 -276 22 -388 l35 -47
-49 21 c-26 12 -95 41 -153 66 -103 44 -334 157 -378 184 -22 14 -29 47 -13
65 11 12 -8 157 -22 166 -12 7 -35 133 -42 222 -2 33 -7 72 -10 88 -4 15 -5
28 -2 28 6 0 170 -68 405 -169 117 -50 215 -91 218 -91 8 0 4 142 -11 410 -29
519 -46 605 -141 710 -94 104 -321 146 -572 105 -220 -36 -232 -67 -187 -482
l5 -42 -33 5 c-17 3 -63 12 -101 21 -51 12 -96 14 -173 10 l-105 -6 6 42 c3
23 11 85 16 137 6 52 16 133 23 180 12 83 13 85 42 91 17 3 -40 9 -125 13
-160 8 -200 18 -220 56 -12 23 -60 262 -60 302 0 34 27 38 39 6 5 -13 19 -81
32 -152 30 -165 24 -160 213 -163 78 -1 133 0 124 3 -10 3 -18 9 -18 14 0 21
65 353 101 515 79 354 137 567 161 591 59 57 184 101 423 150 61 12 98 22 82
23 -30 1 -225 -40 -302 -63 -67 -21 -68 -21 -50 14 19 37 20 144 1 198 -17 48
-23 45 104 61 191 25 247 28 521 30 194 1 333 -4 430 -14z m-1056 -175 c0
-104 -16 -131 -100 -175 -31 -17 -63 -38 -72 -47 -29 -32 -253 -1004 -253
-1097 0 -16 -6 -21 -26 -21 -26 0 -26 0 -20 63 42 416 102 774 157 940 16 49
29 90 29 92 0 11 -286 -98 -373 -141 -67 -34 -94 -59 -102 -95 -6 -27 -10 -29
-50 -29 -24 0 -50 -3 -58 -6 -12 -4 -12 6 4 65 31 114 59 179 91 211 87 87
335 217 668 348 l75 30 15 -27 c10 -17 15 -55 15 -111z m-329 -341 c-50 -149
-104 -476 -147 -882 l-13 -118 -81 7 c-44 4 -81 11 -83 15 -2 5 -8 9 -13 9 -6
0 -7 -6 -3 -12 4 -7 5 -11 1 -8 -3 3 -5 8 -4 12 1 4 -5 13 -14 20 -15 11 -57
185 -47 192 1 1 19 7 38 12 33 9 35 13 42 59 3 28 7 150 7 272 1 218 1 222
-21 237 -12 9 -37 16 -55 16 -37 0 -40 8 -18 49 17 34 111 81 285 146 131 49
144 53 148 50 1 -1 -8 -36 -22 -76z m-341 -199 c17 -14 17 -32 11 -270 -6
-223 -9 -257 -24 -268 -30 -23 -54 -10 -66 33 -12 42 -36 56 -62 34 -10 -8
-12 -22 -8 -45 l6 -34 -54 0 c-85 0 -87 4 -98 160 -5 74 -9 177 -10 227 0 87
2 94 28 123 15 17 45 37 67 45 52 19 185 16 210 -5z m3301 -3 c56 -29 64 -52
64 -194 -1 -181 -15 -322 -34 -341 -14 -14 -20 -13 -65 8 -33 15 -51 30 -55
46 -5 17 -13 24 -32 24 -13 0 -27 -6 -30 -14 -4 -11 -12 -11 -47 -1 l-42 12
-8 174 c-10 248 -8 280 23 297 34 18 185 10 226 -11z m-3427 -629 c7 -40 15
-83 18 -95 5 -22 3 -23 -72 -23 -68 0 -76 2 -71 18 3 9 10 46 16 82 15 91 15
90 58 90 l38 0 13 -72z m-477 -215 c92 -63 166 -241 201 -486 l6 -38 -101 3
c-115 3 -110 0 -128 97 -45 249 -159 307 -225 116 -13 -38 -24 -64 -24 -57 -1
12 4 35 31 152 26 114 62 186 113 222 45 33 68 32 127 -9z m4266 17 c45 -28
76 -97 67 -151 -9 -49 -54 -104 -98 -117 -50 -16 -115 -23 -97 -12 13 8 13 10
-2 10 -27 0 -75 47 -92 91 -27 66 -2 139 60 180 40 26 119 25 162 -1z m-2601
3 c14 -6 8 -9 -22 -14 -26 -4 -4 -7 63 -8 88 -1 110 -5 152 -26 155 -79 191
-193 219 -695 21 -365 22 -400 13 -400 -7 0 -449 186 -557 235 -16 7 -46 20
-66 28 l-36 15 -12 143 c-6 79 -16 197 -22 261 -6 65 -12 165 -13 222 -1 91 2
108 20 133 26 35 54 49 136 68 l63 15 -55 -6 c-76 -7 -141 -40 -162 -84 -22
-46 -22 -87 2 -375 11 -132 20 -256 20 -275 l-1 -35 -14 25 c-8 14 -14 35 -15
47 0 30 -39 103 -54 103 -7 0 -35 24 -63 54 l-51 54 -12 111 c-18 174 -17 283
3 315 33 50 77 67 222 86 82 10 219 12 242 3z m-893 -95 c-8 -80 -24 -157 -34
-163 -7 -4 -29 54 -70 188 l-9 27 59 0 59 0 -5 -52z m-894 -143 c10 -13 10
-19 -2 -33 -23 -26 -63 -109 -86 -182 -25 -75 -68 -285 -78 -378 -5 -44 -10
-60 -17 -53 -7 7 -5 64 8 183 11 95 19 194 20 220 0 25 3 42 6 36 4 -5 9 7 13
29 25 140 93 230 136 178z m69 -126 c11 -35 23 -84 27 -109 10 -69 17 -77 75
-82 35 -4 55 -11 62 -23 7 -14 11 -15 18 -4 10 16 13 8 27 -63 6 -31 6 -50 -1
-57 -12 -12 10 -163 25 -172 13 -9 28 -139 17 -159 -8 -18 0 -139 11 -155 10
-15 4 -370 -8 -440 -6 -36 -6 -61 0 -63 11 -5 -1 -122 -14 -139 -6 -7 -12 -56
-14 -110 -4 -108 -10 -146 -29 -183 -24 -45 -36 -93 -25 -100 15 -9 -18 -101
-45 -125 -13 -11 -28 -30 -34 -42 -10 -19 -9 -23 4 -23 26 0 -1 -39 -38 -56
-18 -8 -40 -20 -49 -26 -14 -10 -22 -9 -45 8 -77 57 -148 278 -187 585 -79
607 -4 1395 152 1607 23 32 25 32 37 15 8 -11 23 -48 34 -84z m4225 -33 c14
18 16 18 51 -17 l36 -36 -22 -42 -21 -42 19 -51 c11 -29 24 -53 30 -55 5 -2
18 15 28 37 20 44 30 50 38 23 3 -10 17 -49 31 -88 14 -38 26 -76 26 -85 0 -8
-16 -30 -35 -50 l-34 -35 16 -63 16 -64 38 44 c23 25 38 37 39 28 0 -8 9 -64
20 -125 l19 -109 -41 -35 -40 -34 7 -61 c3 -34 9 -74 12 -89 l5 -29 32 31 c18
17 35 31 39 31 4 0 7 -42 7 -94 l0 -94 -35 -26 c-34 -26 -35 -30 -35 -92 0
-35 3 -64 7 -64 4 0 20 12 35 27 l28 27 0 -121 0 -121 -30 -25 c-16 -14 -34
-27 -40 -29 -12 -4 -33 -129 -24 -138 4 -3 21 13 40 34 32 37 34 38 34 15 0
-13 -5 -61 -11 -106 l-12 -83 -47 -32 c-40 -28 -48 -39 -57 -80 -5 -26 -7 -48
-4 -48 3 1 22 14 41 31 19 16 36 25 38 20 8 -25 -29 -137 -50 -151 -56 -38
-87 -73 -101 -117 -9 -26 -15 -49 -13 -50 1 -1 19 9 40 23 21 14 40 24 42 21
3 -3 -6 -28 -20 -55 -18 -36 -38 -57 -67 -74 -30 -16 -47 -35 -60 -66 -23 -52
-46 -62 -145 -62 -71 0 -76 1 -103 32 -31 34 -40 33 -72 -15 l-22 -32 32 30
31 29 33 -32 32 -32 -35 0 c-19 0 -72 3 -118 7 l-83 6 31 31 c16 18 30 34 30
36 0 3 -22 3 -50 2 -27 -2 -50 0 -50 5 0 26 34 49 91 63 63 16 64 17 82 64 10
27 16 51 13 53 -3 3 -30 -7 -62 -21 -31 -14 -58 -26 -60 -26 -2 0 4 19 12 43
9 23 17 70 18 104 1 35 4 64 7 66 2 2 36 25 74 51 76 50 87 47 65 -18 -9 -29
-22 -40 -76 -66 -36 -17 -64 -34 -61 -36 3 -3 34 10 71 28 63 31 66 34 81 84
16 57 18 74 9 74 -4 0 -35 -18 -70 -40 -35 -22 -64 -36 -64 -30 0 5 6 42 12
81 l13 72 76 53 c46 32 79 63 82 77 12 45 19 127 13 127 -6 0 -43 -26 -143
-103 -10 -7 -12 4 -7 54 8 99 9 100 92 169 l79 65 6 70 c3 38 4 72 1 75 -3 3
-41 -33 -85 -80 l-78 -85 -1 77 0 77 86 72 87 72 -6 84 c-3 46 -7 87 -10 89
-3 3 -39 -30 -81 -73 l-75 -78 -1 61 0 62 76 86 76 87 -7 62 c-11 107 -12 108
-57 57 -24 -27 -38 -37 -34 -25 62 219 88 315 106 385 11 47 23 91 25 98 3 9
28 1 85 -28 50 -25 80 -35 80 -28 0 7 -14 48 -32 91 -27 66 -36 79 -65 89 -37
13 -38 16 -22 73 10 37 12 38 25 20 14 -18 14 -18 28 1z m-3136 -105 c36 -7
99 -47 89 -57 -1 -2 -41 9 -87 23 -105 31 -155 40 -80 14 98 -34 192 -62 196
-58 2 2 -5 16 -17 30 -16 22 -18 27 -5 27 14 0 56 -37 56 -49 0 -3 5 -13 10
-21 8 -13 11 -13 22 3 16 22 35 15 65 -23 l23 -28 -22 -39 -22 -39 26 -64 25
-63 23 46 c13 25 27 44 31 42 8 -6 54 -125 65 -168 5 -24 1 -35 -29 -65 l-36
-37 12 -52 c7 -28 15 -54 19 -58 4 -4 20 8 36 27 17 18 33 30 37 26 4 -3 15
-55 24 -115 l18 -108 -38 -40 c-39 -41 -39 -41 -33 -105 3 -36 8 -76 10 -90
l5 -24 29 32 c44 50 50 43 50 -62 l0 -93 -35 -24 c-34 -23 -35 -26 -35 -91 0
-38 3 -68 7 -68 4 0 20 12 35 27 l28 27 0 -118 c0 -108 -2 -119 -23 -140 -12
-12 -31 -27 -42 -33 -13 -8 -20 -28 -26 -74 -4 -35 -5 -66 -2 -69 3 -3 20 13
40 35 l34 40 -6 -70 c-11 -124 -16 -137 -67 -175 -38 -27 -48 -42 -53 -73 -4
-21 -4 -41 -1 -44 3 -3 20 7 38 22 38 33 45 22 28 -43 -7 -26 -14 -54 -16 -63
-3 -9 -28 -32 -57 -52 -45 -31 -56 -45 -70 -89 -9 -28 -15 -53 -14 -55 2 -1
20 9 41 23 21 14 40 24 42 21 3 -3 -6 -27 -19 -54 -17 -33 -38 -55 -66 -71
-29 -17 -48 -37 -64 -70 -19 -42 -27 -48 -62 -54 -22 -4 -65 -7 -96 -7 -50 -1
-58 2 -88 33 l-33 34 -35 -39 c-32 -36 -40 -39 -86 -39 l-51 0 32 33 c18 18
32 36 32 40 0 3 -22 3 -50 0 -54 -6 -61 1 -32 36 10 12 40 26 76 33 57 13 59
14 78 62 10 27 17 51 14 53 -2 2 -27 -6 -55 -18 -29 -12 -54 -19 -57 -16 -3 3
2 32 11 65 17 59 17 59 86 93 61 29 70 37 79 69 20 78 22 90 13 90 -6 0 -38
-18 -72 -40 l-62 -40 6 47 c17 115 16 114 94 168 40 28 76 57 81 65 11 22 22
140 13 140 -4 -1 -37 -23 -73 -50 -68 -52 -86 -60 -76 -34 3 9 6 42 6 74 l0
58 84 68 84 69 7 68 c4 38 4 71 0 75 -4 4 -43 -31 -86 -78 l-79 -85 0 51 c0
97 6 111 91 181 l79 65 0 76 c0 116 -7 118 -85 34 -37 -40 -71 -72 -76 -72 -5
0 -9 25 -9 55 0 54 14 79 80 145 3 3 20 23 39 44 32 38 33 40 26 105 -11 103
-14 104 -86 17 -35 -43 -64 -74 -66 -69 -1 4 -7 42 -12 83 l-10 75 61 88 61
89 -13 53 c-21 86 -23 86 -83 20 l-55 -60 -7 50 c-4 28 -11 60 -16 71 -5 16 3
42 30 98 l38 77 -33 51 -32 51 -27 -43 -27 -43 -37 69 c-34 63 -36 71 -24 96
15 28 33 35 123 41 87 7 125 6 168 -2z m-379 -81 c39 -40 40 -40 54 -20 14 21
15 20 35 -13 35 -60 47 -103 35 -129 -6 -13 -7 -31 -2 -43 5 -11 16 -46 25
-78 12 -45 19 -56 29 -47 22 18 47 -113 26 -136 -12 -12 18 -176 35 -189 13
-10 17 -72 16 -250 -1 -44 2 -82 7 -85 9 -6 9 -431 -1 -445 -3 -6 -6 -65 -5
-131 1 -88 -2 -126 -11 -137 -9 -10 -15 -52 -17 -114 -4 -110 -18 -192 -33
-202 -14 -9 -33 -95 -26 -115 8 -21 -24 -113 -44 -128 -17 -13 -52 -62 -52
-73 0 -3 7 -5 15 -5 25 0 -11 -48 -49 -65 -17 -8 -39 -20 -48 -27 -53 -38
-141 97 -193 297 -77 298 -113 735 -94 1144 19 419 69 713 154 907 22 50 79
124 96 124 5 0 27 -18 48 -40z m-249 -53 c14 -42 33 -82 43 -90 18 -13 18 -16
2 -68 -22 -73 -65 -285 -65 -320 0 -27 -20 -53 -20 -27 0 7 -32 -21 -70 -62
l-69 -75 -1 59 c0 58 0 59 66 133 l66 74 -7 74 c-4 41 -10 75 -13 75 -4 -1
-33 -32 -65 -71 -33 -41 -59 -65 -61 -57 -3 7 -7 42 -9 78 -4 65 -4 65 50 144
l55 80 -13 45 c-20 76 -21 76 -73 21 -26 -27 -48 -50 -50 -50 -2 0 -6 17 -9
38 -3 20 -8 45 -12 54 -6 15 2 18 57 21 34 2 88 3 118 2 l55 -1 25 -77z m-121
-11 c10 -38 9 -41 -48 -123 l-59 -83 -11 65 c-13 73 -14 69 54 147 22 26 43
43 47 40 3 -4 11 -24 17 -46z m607 -49 c15 -27 14 -32 -26 -115 l-42 -87 -19
60 c-10 33 -19 65 -19 70 0 6 16 37 36 69 39 61 38 61 70 3z m875 -326 c268
-115 325 -142 327 -160 2 -11 -1 -21 -6 -21 -6 0 -77 29 -159 64 -81 35 -220
94 -308 131 -88 37 -166 75 -172 83 -12 14 -18 42 -10 42 2 0 150 -62 328
-139z m-1427 98 c12 -63 7 -81 -41 -137 -27 -30 -58 -66 -70 -81 l-22 -26 -1
65 c0 64 1 66 58 138 31 39 60 72 63 72 4 0 9 -14 13 -31z m665 -54 c6 -25 8
-51 4 -58 -3 -7 -32 -48 -62 -92 l-56 -80 -12 50 c-20 86 -17 96 43 168 31 36
60 65 64 62 4 -3 13 -25 19 -50z m3015 -151 l6 -56 -47 -55 c-27 -30 -55 -64
-63 -74 -9 -11 -20 -15 -27 -11 -22 14 28 164 72 217 20 25 40 43 44 40 5 -2
11 -30 15 -61z m-3655 -101 l0 -68 -56 -45 c-100 -82 -93 -80 -93 -17 0 55 1
57 66 126 37 39 71 71 75 71 5 0 9 -30 8 -67z m705 -84 l6 -61 -73 -84 c-39
-46 -75 -84 -79 -84 -5 0 -8 29 -8 64 0 64 0 64 65 145 36 45 69 81 74 81 4 0
11 -27 15 -61z m-721 -112 c-4 -8 -34 -43 -65 -77 l-58 -63 0 71 0 71 63 51
62 50 3 -45 c2 -25 -1 -51 -5 -58z m3695 -27 l1 -55 -82 -67 -82 -67 -3 60 -3
59 78 85 c87 95 91 94 91 -15z m-175 -178 c-5 -391 -8 -448 -22 -466 -9 -10
-15 -50 -17 -113 -4 -123 -11 -167 -37 -217 -13 -24 -22 -61 -22 -91 -2 -65
-23 -133 -45 -140 -9 -3 -24 -21 -33 -40 -15 -31 -15 -35 -1 -35 24 0 -21 -58
-51 -66 -13 -3 -29 -12 -36 -20 -32 -39 -86 1 -134 99 -71 144 -129 411 -150
692 -3 44 -9 92 -11 108 -5 26 -4 27 39 27 l44 0 7 -62 c11 -107 47 -250 81
-324 48 -105 96 -130 150 -76 71 69 121 262 145 547 8 98 17 143 52 248 24 70
43 127 43 127 0 0 -1 -89 -2 -198z m-1938 -94 l80 -36 -216 -1 -217 -1 -6 45
c-4 25 -11 45 -17 45 -5 0 -9 31 -9 69 l0 69 153 -77 c83 -42 188 -93 232
-113z m-836 70 c1 -34 -5 -42 -81 -107 l-83 -69 -3 59 -3 59 78 86 78 85 7
-38 c4 -21 7 -55 7 -75z m-750 25 c-1 -32 -5 -66 -7 -75 -4 -17 -122 -112
-129 -104 -2 2 -1 33 3 69 7 66 7 66 66 117 33 27 62 50 65 50 2 0 3 -26 2
-57z m3691 -96 c-4 -47 -10 -57 -45 -87 -22 -19 -59 -52 -82 -74 l-43 -40 0
39 c0 36 9 49 81 128 45 48 84 87 88 87 3 0 4 -24 1 -53z m-3702 -74 c0 -81
18 -376 27 -448 8 -59 7 -60 -12 -42 -19 17 -20 16 -38 -23 -20 -44 -20 -45
47 -112 14 -15 28 -39 30 -55 3 -27 1 -28 -41 -31 -38 -3 -48 1 -77 29 l-33
32 -27 -32 c-25 -30 -30 -32 -88 -30 -33 1 -65 1 -71 -1 -28 -7 -76 1 -73 13
4 11 80 34 122 36 18 1 18 0 1 -19 -22 -24 -9 -27 17 -3 30 27 21 36 -27 31
-25 -3 -45 -2 -45 2 0 22 41 50 90 62 52 12 56 15 70 55 17 51 11 59 -27 40
-15 -8 -38 -17 -50 -21 l-21 -7 17 58 c16 56 20 59 82 93 60 33 65 38 76 85 7
28 12 53 10 58 -1 4 -28 -9 -60 -29 -32 -20 -60 -34 -62 -32 -2 2 1 34 8 71
l11 67 69 46 c37 25 66 48 63 51 -3 3 -35 -16 -72 -41 -36 -26 -68 -45 -70
-44 -1 2 0 25 4 50 6 43 13 51 72 96 36 28 68 51 71 51 4 1 7 -25 7 -56z
m3422 -82 c-25 -209 -69 -358 -120 -406 -42 -40 -75 -28 -113 42 -31 58 -71
204 -82 301 l-7 62 31 0 c86 0 194 40 258 95 47 41 49 35 33 -94z m-2702 -110
c-18 -14 -57 -48 -85 -75 l-53 -49 0 39 c0 35 9 48 83 128 l82 90 3 -54 c3
-50 1 -55 -30 -79z m2372 66 c0 -48 46 -240 70 -294 42 -96 98 -127 148 -80
l25 22 -17 -32 c-9 -18 -28 -40 -42 -49 -70 -47 -140 74 -184 320 -22 123 -25
160 -10 151 6 -3 10 -21 10 -38z m-126 1 c3 -18 7 -69 10 -112 6 -76 5 -78
-12 -63 -17 16 -19 15 -35 -18 -9 -20 -17 -40 -17 -44 0 -5 20 -31 44 -58 25
-27 48 -62 51 -76 7 -26 6 -27 -41 -27 -40 0 -53 5 -80 31 l-33 32 -26 -32
c-23 -26 -33 -31 -73 -31 l-45 0 21 23 c32 34 27 40 -23 35 -25 -3 -45 -4 -45
-1 0 2 7 14 16 28 10 16 29 26 57 30 58 10 73 20 86 56 20 57 16 61 -39 39
-28 -11 -52 -20 -54 -20 -2 0 4 26 14 58 17 55 19 58 78 87 44 22 63 37 68 55
10 38 13 40 44 40 25 0 30 -4 34 -32z m-194 15 c0 -3 -6 -14 -14 -22 -16 -20
-37 -101 -25 -101 17 0 -24 -104 -52 -132 -29 -30 -38 -58 -18 -58 6 0 1 -13
-11 -30 -12 -16 -30 -30 -39 -30 -10 0 -24 -7 -31 -15 -51 -61 -145 85 -195
303 -8 35 -15 67 -15 72 0 5 53 11 118 13 64 1 154 4 200 5 45 1 82 -1 82 -5z
m899 -148 c-6 -32 -11 -60 -12 -61 -1 0 -38 -25 -81 -54 l-79 -53 6 33 c4 18
7 43 7 56 0 18 20 38 82 84 45 33 83 59 84 57 1 -1 -2 -29 -7 -62z m-2942
-142 c-3 -10 -8 -38 -12 -63 -6 -43 -9 -47 -87 -99 l-81 -53 6 38 c4 22 7 47
7 56 0 15 143 136 163 137 5 1 6 -7 4 -16z"/>
<path d="M2040 4719 c-19 -4 -73 -15 -120 -24 -108 -21 -241 -52 -302 -71
l-47 -15 -25 -107 c-38 -163 -131 -710 -121 -720 1 -1 24 7 50 18 106 46 329
109 341 97 2 -2 -24 -11 -58 -20 -102 -25 -180 -49 -175 -53 2 -3 38 4 78 15
241 64 498 88 619 57 36 -9 90 -31 120 -49 67 -39 181 -151 234 -230 l39 -57
-43 -37 c-73 -63 -98 -151 -64 -231 30 -72 108 -132 174 -132 24 0 29 -5 40
-47 19 -70 63 -163 94 -200 29 -34 125 -76 160 -70 14 2 8 6 -19 12 -48 10
-109 34 -102 41 2 2 16 0 31 -6 15 -5 39 -9 54 -9 20 1 13 5 -23 14 -47 13
-41 13 85 10 134 -4 135 -4 45 6 -49 6 -113 8 -142 6 -29 -2 -50 0 -47 5 3 4
-7 9 -23 10 -16 0 -7 4 22 8 43 6 45 7 15 9 -56 2 -77 11 -89 37 -15 33 -14
34 12 35 18 1 16 3 -8 9 -27 7 -25 8 20 10 l50 3 -48 6 c-60 9 -95 50 -44 52
18 1 16 3 -8 9 -27 7 -25 8 20 10 34 2 40 4 20 7 -90 11 -101 28 -22 37 77 9
81 9 217 3 141 -6 127 -1 -30 12 -62 5 -97 11 -85 15 11 4 31 22 45 41 l25 33
140 -4 c171 -5 167 2 -6 11 l-126 7 10 39 9 39 62 2 61 2 -55 3 c-92 7 -75 18
23 16 102 -2 93 3 -26 12 -68 6 -79 10 -86 28 -5 12 -7 23 -6 25 1 2 69 -4
150 -13 81 -8 202 -14 269 -13 l121 1 -155 7 c-85 5 -209 14 -274 21 -112 12
-122 14 -155 44 -64 57 -97 69 -195 70 l-88 1 -13 32 c-22 52 -89 144 -138
189 -57 53 -107 84 -182 114 -55 22 -74 24 -234 24 -96 0 -162 3 -145 6 27 6
27 7 4 8 -64 3 -342 -65 -455 -110 -38 -16 -72 -29 -73 -29 -15 0 89 611 125
743 l16 57 66 19 c151 44 355 85 377 77 7 -3 23 4 36 14 13 11 21 19 18 19 -3
-1 -21 -5 -40 -10z m690 -1182 c-88 -46 -125 -129 -106 -232 8 -38 81 -125
107 -125 8 0 -1 10 -19 21 -71 46 -102 152 -68 232 31 75 132 128 205 109 l36
-10 -43 -1 c-99 -2 -173 -77 -174 -173 -1 -64 18 -105 68 -146 l35 -29 -25 -7
c-50 -12 -125 34 -158 97 -34 65 -30 141 10 199 35 51 95 85 151 87 19 1 16
-4 -19 -22z m208 -44 c15 -11 38 -35 50 -54 20 -29 23 -44 20 -94 -6 -101 -67
-156 -183 -168 -27 -3 -42 -3 -32 0 14 4 9 9 -22 25 -59 29 -85 70 -89 143 -3
50 0 66 20 95 13 19 39 45 58 58 29 20 44 23 93 20 37 -3 67 -12 85 -25z"/>
<path d="M2102 4507 c-78 -83 -80 -311 -3 -407 15 -19 45 -45 66 -57 84 -47
246 -55 323 -16 36 19 82 74 82 97 -1 6 -10 -6 -21 -26 -31 -59 -85 -83 -189
-83 -47 0 -106 7 -132 14 -72 21 -159 105 -158 153 1 7 8 0 17 -17 24 -46 45
-66 88 -86 52 -24 79 -24 133 2 47 23 87 75 97 124 4 23 2 21 -10 -10 -58
-150 -229 -164 -298 -24 -14 28 -28 44 -31 37 -3 -7 -3 12 -1 42 3 45 2 49 -5
25 -7 -22 -8 -10 -6 50 4 85 23 145 58 182 12 13 19 23 16 23 -2 0 -14 -10
-26 -23z"/>
<path d="M2200 4403 c-31 -11 -68 -56 -80 -97 -15 -56 0 -114 41 -155 41 -42
103 -43 149 -4 38 31 52 63 52 119 0 95 -84 166 -162 137z"/>
<path d="M2975 4360 c-76 -31 -97 -146 -37 -205 33 -33 65 -40 103 -24 90 37
92 188 4 225 -39 16 -42 16 -70 4z"/>
<path d="M1836 3664 c-9 -8 -16 -19 -16 -24 0 -5 -3 -15 -6 -24 -5 -14 12 -16
155 -16 l161 0 0 30 c0 43 -23 50 -159 50 -95 0 -123 -3 -135 -16z m265 -4
c10 -6 19 -20 19 -30 0 -19 -8 -20 -146 -20 -144 0 -145 0 -142 22 2 14 13 25
28 29 40 11 219 10 241 -1z"/>
<path d="M2869 2747 c-38 -29 -41 -52 -29 -200 13 -164 31 -239 63 -262 47
-33 177 -66 361 -90 112 -15 408 -19 501 -7 28 4 -62 7 -200 7 -256 0 -322 6
-500 47 -91 20 -157 48 -171 70 -5 8 -2 9 12 4 91 -36 281 -77 348 -75 37 1
35 2 -19 10 -179 27 -298 58 -337 89 -31 24 -48 120 -48 274 0 125 5 132 94
130 46 -1 54 0 31 6 -46 12 -88 11 -106 -3z"/>
<path d="M4170 2750 l-25 -8 27 -1 c32 -1 32 -1 -8 -165 -32 -130 -72 -224
-107 -250 -15 -11 -67 -30 -115 -43 -65 -17 -75 -22 -40 -18 70 7 160 41 183
70 35 42 84 193 115 348 11 55 13 58 38 55 21 -2 28 -9 30 -32 7 -56 -63 -307
-105 -379 -34 -58 -90 -81 -272 -112 -42 -7 -62 -13 -46 -14 89 -3 276 51 309
90 44 52 126 321 126 414 0 50 -41 67 -110 45z"/>
<path d="M2553 2123 c-15 -6 -60 -142 -69 -211 -12 -90 58 -204 160 -263 75
-43 92 -40 120 24 30 67 55 168 63 251 9 97 7 100 -174 182 -50 23 -75 28
-100 17z m141 -49 c117 -56 130 -72 121 -151 -15 -125 -62 -279 -90 -289 -39
-15 -165 84 -205 162 -32 63 -31 123 4 231 36 111 37 111 170 47z"/>
<path d="M1917 3373 c-16 -15 -5 -112 28 -250 66 -281 124 -502 138 -530 51
-98 233 -194 294 -155 28 18 35 65 23 172 -42 386 -65 531 -95 594 -28 58
-114 113 -244 155 -63 21 -131 27 -144 14z m53 -22 c-21 -41 -14 -81 89 -498
58 -239 75 -287 115 -332 l21 -25 -32 23 c-60 41 -80 93 -158 409 -98 394
-103 442 -50 442 22 0 24 -3 15 -19z m196 -46 c100 -48 127 -83 152 -192 51
-219 88 -633 60 -661 -41 -41 -163 24 -223 119 -20 31 -87 279 -165 612 -21
91 -25 148 -12 161 15 16 118 -6 188 -39z"/>
<path d="M302 2800 c-85 -80 -135 -334 -136 -695 0 -304 29 -510 91 -642 74
-159 162 -111 222 122 67 254 69 724 5 1006 -19 87 -56 174 -86 206 -27 28
-67 29 -96 3z m73 2 c17 -11 60 -77 45 -67 -9 6 -12 4 -7 -6 39 -90 58 -146
71 -209 64 -315 35 -864 -54 -1018 -11 -17 -17 -38 -14 -46 7 -18 -43 -76 -65
-76 -79 0 -147 219 -172 549 -25 333 30 735 117 849 24 31 56 41 79 24z"/>
<path d="M312 2747 c-69 -73 -112 -280 -119 -579 -8 -305 21 -529 87 -664 35
-72 67 -94 105 -74 14 7 25 18 25 24 0 6 -5 5 -12 -2 -7 -7 -25 -12 -40 -12
-21 0 -34 9 -52 38 -147 226 -135 1098 16 1259 22 24 52 30 63 13 3 -5 11 -10
17 -10 7 0 6 6 -2 15 -18 22 -63 18 -88 -8z"/>
<path d="M385 2347 c-49 -118 -39 -393 16 -443 15 -13 22 -14 33 -5 31 26 41
84 41 241 0 135 -3 160 -20 195 -26 53 -51 57 -70 12z m51 6 c4 -10 8 -25 9
-33 0 -8 7 -35 14 -60 16 -55 11 -244 -8 -278 -30 -55 -59 17 -60 149 -1 88
18 175 41 191 10 7 10 9 -2 6 -33 -9 -45 -59 -45 -193 0 -140 13 -191 48 -189
16 2 17 0 4 -20 -22 -32 -30 -26 -50 33 -38 114 -14 411 32 411 5 0 12 -8 17
-17z"/>
<path d="M4470 2773 c1 -5 11 -45 23 -91 l23 -83 104 -69 c58 -39 107 -65 109
-59 3 9 -5 45 -30 140 -8 32 -23 46 -110 103 -98 64 -120 74 -119 59z m137
-85 c76 -51 76 -51 101 -165 l10 -42 -96 64 -96 65 -18 62 c-24 86 -23 92 5
77 12 -7 54 -34 94 -61z"/>
<path d="M4544 2438 c3 -13 7 -42 11 -66 4 -36 21 -61 111 -165 58 -67 109
-123 114 -125 5 -2 6 14 4 35 -19 166 -23 195 -26 197 -1 1 -47 35 -100 74
-54 40 -102 72 -108 72 -6 0 -8 -10 -6 -22z m156 -97 c25 -19 46 -36 47 -36 6
-2 24 -148 21 -171 -3 -25 -6 -23 -55 37 -29 35 -72 85 -96 110 -38 40 -45 54
-52 104 l-7 57 49 -33 c26 -18 68 -49 93 -68z"/>
<path d="M4582 2070 l4 -95 78 -100 c43 -54 85 -110 93 -122 9 -13 19 -23 24
-23 5 0 9 47 9 104 l0 103 -42 49 c-23 27 -71 78 -106 114 l-63 65 3 -95z
m111 -41 l87 -97 0 -86 c0 -47 -3 -86 -7 -85 -12 1 -167 207 -175 232 -9 33
-9 139 0 135 5 -1 47 -46 95 -99z"/>
<path d="M4586 1763 c-13 -84 -9 -99 76 -239 91 -151 88 -150 103 -25 l7 61
-77 110 c-97 138 -101 141 -109 93z m98 -99 c73 -103 75 -108 70 -153 -12
-102 -10 -102 -71 0 -30 52 -64 106 -74 121 -19 26 -24 73 -13 116 4 12 8 22
9 22 2 0 37 -48 79 -106z"/>
<path d="M4567 1460 c-23 -141 -27 -172 -20 -184 20 -33 138 -186 143 -186 4
0 14 36 23 81 l16 80 -67 104 c-37 56 -72 111 -78 122 -10 16 -12 14 -17 -17z
m83 -110 c61 -92 62 -95 56 -146 -12 -104 -14 -104 -89 -3 l-68 90 10 50 c6
28 11 64 11 80 0 17 4 29 9 27 5 -1 37 -46 71 -98z"/>
<path d="M4498 1134 c-2 -5 -13 -37 -23 -71 l-18 -62 35 -43 c50 -61 116 -128
127 -128 4 0 16 27 25 61 l17 60 -58 71 c-32 39 -67 82 -79 96 -11 14 -23 21
-26 16z m60 -77 c94 -109 94 -108 76 -160 -9 -26 -20 -47 -24 -47 -9 0 -119
121 -133 145 -8 16 21 118 33 113 4 -2 26 -24 48 -51z"/>
<path d="M4391 841 c-16 -30 -19 -46 -12 -60 11 -20 138 -141 149 -141 4 0 17
17 29 38 l22 38 -84 83 -83 83 -21 -41z"/>
<path d="M1385 2834 c19 -25 47 -65 60 -89 22 -36 41 -51 130 -96 57 -30 107
-51 111 -47 4 4 -8 44 -27 89 l-34 81 -128 54 c-71 30 -133 54 -138 54 -5 0 7
-21 26 -46z m145 -36 c79 -31 88 -39 116 -104 15 -35 24 -67 21 -70 -9 -9
-196 89 -202 106 -3 8 -21 39 -40 68 -19 30 -35 56 -35 58 0 2 26 -8 58 -22
31 -14 68 -30 82 -36z"/>
<path d="M1520 2583 c1 -5 11 -45 23 -91 l23 -83 104 -69 c57 -38 106 -67 108
-65 2 2 -4 41 -14 87 -21 95 -29 105 -149 179 -78 49 -95 56 -95 42z m89 -53
c111 -67 120 -77 141 -160 10 -41 18 -75 17 -76 -1 -1 -45 27 -97 62 l-95 64
-16 64 c-9 35 -19 68 -23 75 -12 19 6 12 73 -29z"/>
<path d="M1593 2254 c3 -16 9 -49 13 -73 5 -37 21 -61 103 -153 53 -61 100
-116 104 -124 18 -31 22 -9 15 74 -4 48 -10 100 -14 115 -6 29 -57 74 -168
149 l-58 40 5 -28z m127 -79 c41 -31 78 -64 81 -73 4 -9 10 -55 14 -102 6 -73
5 -83 -7 -70 -8 8 -53 60 -101 116 -78 91 -86 105 -93 153 -8 63 -10 64 106
-24z"/>
<path d="M1630 1884 l0 -91 86 -109 c47 -60 90 -117 95 -127 19 -35 29 -4 29
94 l0 99 -69 77 c-38 43 -85 94 -105 112 l-36 35 0 -90z m108 -38 l92 -104 0
-86 c0 -88 -6 -101 -28 -65 -7 11 -44 59 -82 108 l-69 87 -7 82 c-4 45 -5 82
-2 82 2 0 46 -47 96 -104z"/>
<path d="M1636 1597 c-3 -12 -6 -46 -6 -75 0 -48 7 -63 82 -188 90 -149 91
-149 102 -29 l6 70 -67 95 c-38 53 -78 108 -89 123 -22 27 -22 27 -28 4z m119
-150 l55 -78 -7 -60 c-3 -33 -9 -62 -13 -64 -4 -3 -27 28 -51 68 -23 39 -55
91 -71 114 -26 38 -28 47 -22 100 l7 57 23 -29 c13 -17 48 -65 79 -108z"/>
<path d="M1531 888 c-12 -34 -21 -67 -21 -74 0 -17 150 -175 160 -169 5 3 16
30 25 61 l16 56 -76 94 c-43 52 -78 94 -80 94 -2 0 -13 -28 -24 -62z m97 -43
l71 -85 -14 -46 c-7 -25 -17 -49 -20 -52 -7 -7 -75 63 -121 124 -24 30 -24 31
-7 87 10 31 18 57 19 57 1 0 33 -38 72 -85z"/>
<path d="M1438 649 c-12 -28 -14 -47 -8 -58 11 -21 137 -141 148 -141 5 0 18
17 30 38 l21 38 -82 82 c-45 45 -85 82 -87 82 -3 0 -13 -19 -22 -41z"/>
<path d="M998 2473 c-169 -105 -227 -977 -93 -1402 60 -188 134 -227 213 -111
77 113 131 504 117 840 -15 357 -74 600 -161 669 -32 25 -41 26 -76 4z m70
-10 c11 -10 28 -31 38 -48 l19 -30 -29 23 c-38 29 -67 28 -99 -6 -90 -94 -145
-419 -134 -797 10 -326 57 -546 135 -628 31 -33 60 -34 98 -5 l28 22 -20 -33
c-91 -157 -190 5 -245 404 -19 136 -16 542 5 689 31 210 82 365 134 407 30 24
44 24 70 2z m31 -79 c88 -108 146 -513 122 -854 -20 -280 -63 -464 -125 -536
-27 -32 -36 -36 -59 -30 -118 29 -201 571 -152 996 22 200 47 305 91 392 39
78 77 87 123 32z"/>
<path d="M1087 1983 c-29 -34 -41 -105 -41 -253 -1 -150 15 -232 50 -261 20
-16 47 9 63 59 19 55 26 267 12 347 -20 112 -48 148 -84 108z m63 -85 c18 -49
24 -224 11 -290 -16 -76 -34 -90 -58 -46 -14 27 -18 57 -18 163 0 133 14 205
40 205 7 0 18 -15 25 -32z"/>
</g>
</svg>
