<?xml version="1.0" standalone="no"?>
<!DOCTYPE svg PUBLIC "-//W3C//DTD SVG 20010904//EN"
 "http://www.w3.org/TR/2001/REC-SVG-20010904/DTD/svg10.dtd">
<svg version="1.0" xmlns="http://www.w3.org/2000/svg"
 width="1500.000000pt" height="1500.000000pt" viewBox="0 0 1500.000000 1500.000000"
 preserveAspectRatio="xMidYMid meet">
<metadata>
Created by potrace 1.16, written by Peter Selinger 2001-2019
</metadata>
<g transform="translate(0.000000,1500.000000) scale(0.100000,-0.100000)"
fill="none" stroke="#000000">
<path d="M9545 12978 c-53 -19 -80 -45 -220 -207 -75 -88 -146 -163 -158 -168
-12 -4 -69 -6 -127 -4 -109 2 -90 5 -1360 -199 -135 -22 -261 -44 -280 -50
-55 -15 -126 -65 -158 -109 -32 -45 -75 -142 -92 -209 -21 -82 -20 -82 -271
-82 l-221 0 6 323 c4 177 7 338 7 357 0 79 -82 194 -147 206 -79 15 -154 -28
-196 -110 -21 -41 -21 -44 -9 -410 14 -424 18 -403 -77 -441 -128 -51 -136
-76 -122 -354 6 -113 15 -320 20 -459 10 -278 10 -283 -47 -359 -68 -93 -237
-285 -257 -292 -11 -5 -349 -90 -751 -190 -401 -100 -742 -187 -758 -193 -37
-14 -77 -64 -77 -96 0 -50 -38 -108 -100 -151 -33 -23 -71 -57 -85 -76 -31
-39 -10 132 -180 -1470 -25 -231 -47 -434 -50 -452 -9 -51 -28 -63 -99 -63
-154 0 -261 -64 -375 -226 -23 -32 -57 -79 -76 -104 -61 -80 -68 -111 -74
-357 l-6 -221 -60 25 c-33 13 -145 61 -249 105 -123 53 -201 81 -226 81 -44 0
-124 -41 -183 -93 -37 -33 -40 -39 -39 -86 2 -52 58 -226 141 -431 58 -141 70
-233 48 -349 -15 -80 -36 -128 -203 -464 -111 -225 -198 -388 -217 -408 -18
-19 -57 -46 -87 -62 -73 -37 -96 -64 -125 -146 -35 -98 -33 -129 7 -154 38
-23 70 -25 132 -8 41 11 47 10 67 -8 18 -16 20 -25 14 -64 -13 -80 -10 -118
12 -147 34 -47 62 -50 141 -19 77 31 90 30 142 -13 34 -29 35 -31 41 -122 4
-80 8 -94 28 -110 33 -27 72 -24 131 11 88 52 110 49 182 -18 27 -24 28 -30
28 -118 0 -85 2 -93 26 -118 34 -34 64 -33 142 4 35 17 77 30 92 30 36 0 115
-47 129 -76 5 -13 7 -62 4 -117 l-6 -96 31 -31 c35 -35 60 -34 124 6 20 13 57
29 82 35 43 11 50 9 102 -17 88 -44 96 -60 88 -168 -6 -84 -4 -93 16 -119 32
-41 94 -38 176 8 34 19 70 35 79 35 24 0 145 -73 179 -108 l28 -30 -12 -70
c-7 -38 -10 -86 -6 -107 8 -42 54 -95 82 -95 10 0 51 17 92 37 93 46 143 48
202 9 64 -42 80 -76 80 -176 0 -75 3 -90 25 -123 24 -34 30 -37 73 -37 36 0
59 8 102 35 30 19 64 35 76 35 29 0 128 -53 182 -97 l43 -35 -2 -106 -2 -105
32 -29 c42 -38 78 -36 168 9 l74 38 72 -37 c39 -21 89 -52 111 -70 l38 -32 -6
-102 c-6 -84 -4 -108 8 -133 31 -59 87 -67 155 -21 104 70 163 61 286 -46 46
-40 100 -94 121 -118 48 -58 81 -72 129 -56 20 7 123 59 228 117 106 58 271
145 367 193 261 131 340 199 410 353 16 36 39 71 49 77 22 11 178 12 391 1
145 -7 146 -7 206 -44 80 -50 113 -49 212 5 103 55 112 64 112 107 0 54 20 74
114 115 92 39 118 43 156 21 43 -25 86 -17 180 30 97 49 115 69 106 120 -8 39
5 50 124 110 l74 37 49 -17 c72 -26 113 -22 192 18 88 44 105 62 103 112 -2
45 18 64 115 114 70 36 117 39 172 11 52 -26 70 -25 141 9 80 39 98 61 104
129 4 51 9 59 39 79 61 41 133 56 233 48 84 -6 93 -5 144 20 56 27 104 78 104
110 0 52 97 141 164 152 21 3 52 -2 80 -12 59 -23 100 -16 181 30 57 32 66 40
75 78 18 65 52 109 111 141 40 23 64 29 99 27 167 -9 183 -7 229 24 41 28 59
54 105 153 6 13 37 38 69 55 l59 31 49 -27 48 -28 43 22 c81 41 117 71 138
113 26 54 49 75 134 122 68 37 68 37 98 20 59 -35 145 12 214 116 26 40 75
102 108 138 165 178 266 331 282 424 3 22 39 122 79 221 78 190 131 355 161
495 14 65 18 128 18 265 0 163 -3 194 -31 330 -64 301 -102 387 -323 720 -84
127 -159 244 -166 261 -7 16 -31 140 -54 274 -24 135 -46 255 -50 266 -5 12
-38 61 -75 108 -78 103 -64 51 -210 791 -52 264 -103 497 -112 518 -21 48 -58
75 -114 82 -68 10 -119 35 -136 69 -9 17 -19 63 -24 103 -14 131 -64 210 -149
238 -26 9 -56 26 -68 38 -14 15 -47 118 -105 326 -66 235 -90 309 -108 327
-16 16 -93 48 -224 93 -161 55 -204 74 -220 96 -19 25 -20 48 -27 346 -8 384
-22 595 -43 667 -20 65 -78 132 -143 164 -26 13 -164 52 -306 88 l-260 65 2
60 c2 33 7 118 13 189 12 147 7 190 -24 210 -24 16 -418 106 -457 105 -14 0
-38 -5 -55 -11z m103 -140 c67 -16 92 -26 92 -37 0 -9 -14 -94 -32 -189 -30
-162 -33 -173 -52 -168 -12 2 -110 19 -219 37 -178 29 -196 34 -184 48 8 9 71
84 141 168 112 134 135 158 156 162 3 1 47 -9 98 -21z m340 -42 c5 -6 -24
-395 -30 -401 -2 -2 -57 5 -121 17 -102 19 -117 24 -117 41 0 59 53 324 68
341 15 16 27 18 106 12 49 -3 91 -8 94 -10z m-3430 -658 l2 -418 -65 0 -65 0
0 418 0 417 63 0 62 0 3 -417z m2817 311 c756 -135 945 -174 945 -199 0 -5
-19 -11 -42 -15 -24 -4 -119 -22 -213 -40 -93 -18 -390 -72 -658 -121 l-489
-88 -191 32 c-1191 201 -1327 226 -1292 238 6 2 143 24 307 49 163 25 401 63
530 85 240 41 630 106 683 113 52 7 132 -3 420 -54z m1185 -255 c64 -35 114
-91 134 -152 19 -55 21 -152 3 -176 -14 -19 2 -16 -912 -212 -319 -68 -587
-126 -596 -128 -12 -2 -38 47 -111 213 -89 205 -93 216 -74 223 19 7 407 82
821 159 311 58 490 92 525 100 66 15 154 4 210 -27z m-2682 -75 c899 -151 980
-166 1022 -190 82 -46 167 -195 197 -346 l17 -88 -132 -1054 c-73 -580 -134
-1056 -136 -1058 -3 -3 -330 111 -396 139 -66 28 -64 21 -71 347 -6 311 -11
347 -60 444 l-20 37 168 -6 c189 -8 219 -1 249 57 18 35 62 281 134 744 102
661 101 653 38 679 -34 14 -232 50 -858 156 -421 72 -637 115 -656 131 -25 20
-15 89 12 89 8 0 230 -36 492 -81z m-602 -150 c-39 -181 -213 -879 -221 -888
-3 -2 -10 0 -16 6 -9 9 7 92 59 310 39 164 80 345 92 403 11 58 28 130 36 160
18 66 77 197 82 182 1 -5 -13 -83 -32 -173z m794 -34 c338 -58 644 -110 680
-116 101 -17 130 -28 140 -55 7 -18 -3 -111 -36 -327 -155 -1024 -154 -1020
-205 -1048 -56 -29 -308 -19 -504 21 -50 10 -201 46 -335 79 -135 33 -333 81
-440 107 -107 25 -199 50 -204 55 -10 9 234 1129 245 1129 4 0 -2 -42 -12 -92
-113 -571 -151 -787 -147 -838 7 -104 54 -140 268 -204 178 -53 439 -109 483
-103 45 6 84 38 104 86 18 41 163 1030 163 1108 0 45 -4 58 -26 78 -14 13 -48
28 -76 34 -97 21 -414 80 -524 97 -105 16 -115 17 -156 1 -24 -9 -47 -17 -51
-17 -4 0 -7 27 -7 60 0 43 3 58 13 55 6 -3 289 -52 627 -110z m-325 -91 c77
-14 203 -36 280 -50 77 -14 145 -30 152 -36 7 -6 13 -19 13 -30 0 -11 -29
-219 -64 -462 -35 -242 -67 -470 -71 -506 -4 -36 -13 -80 -21 -97 -12 -31 -16
-33 -61 -33 -51 0 -389 84 -487 121 -33 12 -71 33 -84 46 -23 23 -24 30 -19
96 2 40 42 278 88 530 l83 458 25 -6 c14 -3 89 -17 166 -31z m-659 -81 c-4
-27 -32 -152 -62 -279 -30 -127 -54 -239 -54 -248 0 -26 -53 -76 -87 -82 l-33
-6 0 198 c1 110 5 244 10 298 11 129 26 147 132 156 40 4 79 8 87 9 10 1 12
-9 7 -46z m3636 -35 c1 -46 3 -219 3 -385 l0 -302 26 -27 c18 -18 74 -42 185
-79 200 -66 268 -97 288 -128 9 -13 42 -112 72 -218 118 -410 234 -833 234
-852 0 -15 -5 -18 -22 -14 -13 3 -49 9 -81 12 -32 4 -67 15 -78 24 -16 13 -48
117 -140 465 -66 246 -127 459 -136 473 -22 33 -50 46 -214 97 l-142 44 6
-231 c6 -207 24 -615 58 -1315 12 -257 9 -281 -42 -308 -16 -8 -221 -83 -456
-168 -236 -85 -639 -231 -897 -325 -259 -94 -476 -171 -484 -171 -12 0 -13 78
-9 548 6 638 6 646 113 1502 135 1085 137 1099 186 1120 13 5 176 41 363 80
187 38 516 108 730 154 215 47 400 85 413 85 21 1 22 -3 24 -81z m-4361 -79
c11 -5 24 -21 29 -35 6 -15 10 -326 10 -780 l0 -754 -27 6 c-16 4 -47 14 -70
24 -35 15 -43 24 -47 52 -6 33 -20 559 -32 1177 l-7 334 62 -6 c34 -4 71 -12
82 -18z m387 -746 l-3 -766 -152 -42 c-84 -23 -155 -40 -158 -37 -3 3 -5 358
-5 789 0 619 3 783 13 784 9 0 239 29 300 38 4 1 6 -344 5 -766z m282 67 c0
-26 -52 -218 -68 -249 -13 -26 -30 -41 -69 -58 l-53 -23 0 134 c0 106 3 136
15 146 12 10 143 57 168 59 4 1 7 -4 7 -9z m3855 -271 c52 -14 75 -36 75 -70
0 -33 -48 -246 -62 -271 -6 -12 -20 -18 -43 -18 l-35 0 0 185 c0 203 -4 193
65 174z m-3538 -133 c84 -19 297 -72 474 -117 241 -62 316 -85 303 -92 -19
-11 -129 -42 -1373 -388 -626 -174 -838 -229 -880 -229 -31 0 -207 27 -391 59
-663 118 -905 161 -934 169 -32 9 -31 9 1068 287 296 75 540 134 542 132 3 -2
5 -32 7 -65 2 -61 2 -62 -42 -102 -40 -37 -43 -42 -36 -77 12 -70 35 -95 126
-141 153 -77 264 -79 498 -8 125 38 154 54 181 99 31 50 26 109 -15 183 -26
46 -39 85 -47 143 -15 101 -6 124 54 140 23 6 75 20 113 31 90 26 153 21 352
-24z m3702 -121 c21 -71 38 -131 37 -132 -3 -3 -140 18 -144 22 -3 3 45 217
55 245 6 18 4 25 52 -135z m-2775 -148 c26 -26 56 -138 56 -210 0 -44 -27 -86
-48 -73 -5 3 -14 38 -21 79 -14 86 -40 134 -77 143 -19 5 -248 -56 -823 -219
-1115 -317 -1118 -318 -1233 -325 -82 -4 -98 -2 -98 10 0 17 92 44 900 268
595 165 1075 298 1185 329 96 27 131 26 159 -2z m2725 -110 c122 -26 129 -33
160 -146 l21 -74 -79 6 c-97 8 -152 29 -192 75 -30 34 -63 98 -75 149 -7 28
-21 29 165 -10z m-2814 3 c8 -13 139 27 -990 -301 -533 -155 -973 -284 -977
-288 -4 -4 -1 -47 8 -95 15 -86 10 -117 -14 -102 -14 9 -26 201 -13 224 6 11
29 27 51 36 23 9 281 84 573 167 293 83 703 200 912 259 370 106 437 121 450
100z m35 -59 c18 -35 11 -58 -27 -90 l-38 -31 31 6 c43 8 52 -12 12 -25 -25
-8 -844 -252 -1830 -547 -34 -10 -18 13 20 30 l37 16 -35 -5 c-120 -19 -115
-19 -128 9 -21 47 -15 84 16 100 15 8 169 55 342 105 653 188 1437 414 1495
431 78 24 92 24 105 1z m-1400 -40 c0 -23 -87 -56 -263 -100 l-118 -29 3 26
c3 26 10 29 173 74 196 54 205 55 205 29z m4735 -3 c37 -29 65 -93 65 -150 0
-44 -32 -152 -49 -162 -6 -4 -71 289 -71 322 0 19 24 14 55 -10z m-6425 -269
c404 -72 737 -133 739 -135 4 -3 -59 -367 -64 -372 -5 -5 -84 14 -605 142
-234 58 -528 130 -654 161 -127 30 -231 57 -233 58 -1 2 9 63 22 137 14 73 25
137 25 142 0 5 8 7 18 4 9 -3 348 -64 752 -137z m3206 -66 c-3 -109 -8 -351
-11 -538 -11 -731 -15 -836 -36 -885 -14 -31 -62 -88 -157 -182 -75 -76 -141
-138 -146 -138 -6 0 -7 287 -3 739 4 431 3 762 -3 795 -18 114 -66 166 -152
166 -57 0 -46 8 -676 -435 -290 -203 -561 -393 -603 -422 -93 -64 -169 -143
-203 -211 -47 -93 -54 -151 -61 -537 -3 -198 -8 -362 -10 -365 -2 -4 -5 -87
-6 -186 -3 -174 -2 -181 23 -235 29 -63 87 -133 129 -155 56 -28 98 -18 411
100 325 122 565 202 575 192 9 -9 -81 -100 -136 -138 -32 -22 -226 -91 -714
-254 -369 -123 -672 -222 -675 -220 -5 5 6 140 93 1151 113 1312 110 1274 127
1291 8 8 156 57 329 109 173 51 559 166 859 255 300 90 646 193 770 231 124
37 238 68 253 68 l29 1 -6 -197z m2678 122 c129 -17 173 -30 186 -55 18 -33
11 -40 -40 -40 -109 0 -266 46 -304 89 -19 21 -19 21 15 21 19 0 83 -7 143
-15z m393 -176 c259 -43 481 -84 492 -91 28 -17 33 -35 85 -308 53 -280 153
-787 167 -849 5 -24 7 -46 4 -49 -16 -17 -947 156 -971 180 -8 7 -21 54 -29
103 -20 117 -49 204 -85 253 -32 44 -100 82 -148 82 -17 0 -34 5 -37 10 -6 9
-44 633 -45 728 l0 33 48 -7 c26 -3 259 -41 519 -85z m-5375 -34 c57 -9 106
-19 109 -23 4 -4 9 -64 12 -133 l5 -127 -155 -42 c-85 -23 -156 -40 -158 -38
-3 3 62 339 70 366 5 15 -5 15 117 -3z m1847 -14 c16 -10 -1 -22 -719 -516
-294 -202 -557 -388 -583 -414 -29 -27 -63 -76 -85 -119 l-36 -74 -7 -276 c-5
-153 -13 -417 -19 -589 -11 -304 -11 -312 9 -357 12 -29 32 -53 51 -64 65 -35
68 -40 37 -47 -78 -20 -181 50 -212 145 -16 49 -17 83 -6 509 15 588 22 685
55 756 49 108 28 92 925 715 201 139 393 272 428 296 51 35 73 44 106 44 23 0
48 -4 56 -9z m-3152 -152 c758 -182 804 -193 952 -228 68 -17 125 -32 128 -35
6 -6 -18 -226 -154 -1391 -58 -500 -106 -929 -107 -953 -1 -35 4 -47 24 -62
l25 -20 -26 0 c-37 0 -135 -52 -199 -105 -40 -33 -64 -45 -87 -45 -33 0 -133
44 -853 375 -498 229 -470 214 -488 251 -13 29 -13 36 7 88 11 31 21 65 21 76
0 10 5 22 10 25 9 5 359 -124 1343 -496 76 -28 140 -49 143 -46 4 3 19 129 34
279 16 150 63 579 105 953 50 448 74 695 70 726 -9 62 -35 102 -81 124 -37 17
-349 102 -879 237 -279 72 -354 79 -418 40 -46 -29 -82 -90 -96 -162 -13 -72
-36 -346 -101 -1245 -26 -363 -27 -365 -50 -365 -11 0 -26 10 -34 23 -13 19
-12 66 15 417 88 1175 99 1306 115 1353 19 55 54 87 98 87 17 0 119 -23 226
-51 816 -211 1152 -290 1167 -276 13 13 -18 25 -132 53 -60 14 -361 88 -669
165 -307 76 -576 139 -598 139 -56 0 -93 -23 -112 -69 -18 -47 -67 -401 -101
-736 -25 -254 -64 -869 -65 -1028 0 -24 -4 -28 -22 -25 -20 3 -23 10 -26 51
-4 63 40 590 79 932 35 317 117 988 125 1025 10 44 15 60 20 60 2 0 268 -64
591 -141z m3212 45 c15 -85 5 -1521 -11 -1574 -7 -25 -57 -82 -167 -193 -86
-88 -175 -172 -198 -188 -43 -30 -515 -205 -882 -328 -51 -17 -142 -14 -170 5
-55 39 -61 111 -41 554 5 118 10 303 10 411 0 107 5 222 11 254 14 78 57 160
111 212 48 47 1295 913 1314 913 7 0 17 -28 23 -66z m683 -135 l218 -74 0
-509 0 -508 -67 58 c-38 32 -92 80 -121 106 -71 63 -105 70 -184 32 -92 -44
-92 -44 -96 182 -2 104 0 221 3 261 l7 71 35 -24 c37 -25 82 -31 113 -14 14 7
28 2 64 -26 86 -65 139 -66 172 -2 22 42 31 173 15 221 -17 50 -70 93 -143
115 -35 11 -80 30 -101 42 -38 22 -93 24 -139 5 -16 -6 -18 0 -18 70 0 58 3
76 13 73 6 -3 110 -38 229 -79z m-83 -128 c27 -26 31 -35 31 -83 -1 -102 -57
-176 -115 -150 -21 10 -49 68 -39 81 2 2 18 -6 37 -18 19 -11 37 -21 40 -21
10 0 27 72 27 110 0 50 -24 80 -63 80 -30 1 -31 1 -13 15 30 23 61 18 95 -14z
m-2499 -40 c0 -17 -18 -238 -40 -493 -115 -1319 -140 -1616 -152 -1756 -6 -84
-15 -157 -19 -163 -4 -7 -45 -2 -129 17 l-122 28 6 76 c14 156 229 2052 246
2163 6 38 17 81 25 97 19 36 70 56 148 59 35 1 37 -1 37 -28z m-1607 -140
c200 -71 1099 -401 1107 -406 10 -6 2 -105 -10 -118 -4 -5 -191 64 -416 153
-225 89 -483 191 -574 227 -202 79 -210 84 -210 127 0 30 6 46 17 46 3 0 41
-13 86 -29z m488 -96 c310 -88 504 -157 596 -211 31 -18 40 -28 36 -43 -5 -18
-10 -18 -101 16 -54 19 -270 97 -482 173 -212 76 -393 142 -402 145 -10 4 -15
11 -12 17 3 5 13 6 23 3 9 -4 163 -49 342 -100z m19 -255 c322 -122 587 -223
590 -225 11 -7 -2 -117 -15 -121 -21 -8 -1166 484 -1193 513 -18 20 -20 28
-11 45 6 12 17 18 27 15 10 -2 280 -104 602 -227z m6074 184 c9 -8 20 -23 25
-32 18 -33 83 -283 77 -297 -4 -12 -12 -11 -43 8 -32 18 -53 22 -128 22 -88 0
-97 -3 -385 -102 -162 -56 -473 -162 -690 -236 -217 -74 -519 -178 -671 -230
l-276 -94 -17 98 c-24 146 -33 130 107 179 110 38 568 205 1157 420 118 44
334 124 480 179 273 102 333 116 364 85z m-6139 -346 c303 -116 567 -219 587
-229 44 -23 52 -44 43 -116 -6 -46 -9 -53 -23 -48 -9 4 -62 24 -117 45 -107
41 -558 227 -860 355 -99 41 -190 85 -202 97 -17 16 -23 33 -23 63 0 47 7 58
29 49 9 -3 264 -100 566 -216z m1 -193 c326 -130 598 -243 605 -252 12 -13 15
-130 4 -141 -14 -14 -1164 466 -1206 504 -10 9 -21 28 -24 43 -6 28 8 81 22
81 4 0 273 -106 599 -235z m6150 184 c19 -11 34 -24 34 -29 0 -4 -35 -7 -77
-7 -75 0 -91 -5 -433 -131 -195 -71 -385 -141 -422 -155 -59 -23 -68 -24 -79
-11 -10 13 -7 21 22 49 37 37 34 35 534 206 317 108 360 116 421 78z m-2432
-124 c60 -29 85 -118 51 -184 -19 -38 -68 -78 -104 -86 -76 -17 -158 85 -137
169 13 52 90 115 139 116 11 0 33 -7 51 -15z m-3724 -269 c512 -197 605 -236
604 -252 -1 -11 -5 -45 -9 -77 -6 -54 -8 -57 -28 -51 -53 16 -703 292 -917
388 -232 105 -280 135 -280 176 0 23 10 50 19 50 3 0 278 -106 611 -234z
m7285 168 c47 -9 95 -24 106 -33 23 -19 35 -64 44 -170 6 -67 5 -74 -7 -61
-75 76 -258 279 -258 285 0 4 6 5 14 2 8 -3 53 -13 101 -23z m-1360 -55 c279
-31 355 -42 355 -49 0 -13 -146 -30 -248 -30 -53 0 -182 9 -287 20 -104 11
-216 20 -247 20 -44 0 -58 4 -58 14 0 17 11 21 95 35 115 20 127 20 390 -10z
m-816 -92 c-71 -85 -1171 -1028 -1185 -1015 -2 3 -7 106 -10 229 -5 189 -4
235 10 294 19 77 53 143 91 173 28 22 170 75 720 270 348 124 392 137 407 124
16 -14 14 -19 -33 -75z m1941 86 c0 -5 -17 -54 -37 -111 l-37 -102 -155 2
-155 3 -14 46 c-24 76 1 128 73 154 43 15 325 22 325 8z m-3531 -66 c22 -35
41 -68 41 -74 0 -5 -26 -34 -57 -64 -62 -58 -1075 -1052 -1538 -1509 -154
-152 -306 -301 -337 -330 l-58 -52 -11 28 c-6 16 -13 50 -16 76 -10 86 19 127
259 357 117 113 308 297 423 410 756 741 1247 1220 1251 1221 1 0 20 -28 43
-63z m3648 6 c72 -62 169 -182 234 -290 l52 -86 -29 -24 c-64 -51 -114 -83
-109 -71 4 9 -48 59 -136 133 -78 66 -145 130 -150 142 -6 17 0 47 22 109 43
123 48 134 54 134 4 0 31 -21 62 -47z m-7474 -117 c177 -74 442 -182 589 -241
146 -58 274 -115 283 -125 14 -16 17 -31 12 -76 -3 -31 -10 -61 -16 -67 -7 -7
-41 3 -103 31 -51 22 -219 95 -373 162 -154 67 -359 156 -455 197 -219 93
-255 113 -269 155 -10 28 -6 98 6 98 2 0 149 -60 326 -134z m6914 29 c5 -58 4
-63 -27 -98 -22 -25 -77 -60 -175 -109 -79 -40 -147 -70 -150 -66 -4 4 -12 41
-18 83 -17 119 -8 128 228 232 137 60 134 61 142 -42z m-833 55 c121 -11 250
-20 287 -20 57 0 200 20 329 46 31 7 33 5 22 -8 -27 -34 -132 -70 -216 -75
-114 -7 -693 60 -715 82 -3 4 12 5 34 1 22 -3 139 -15 259 -26z m-1800 -17 c8
-29 36 -184 36 -202 0 -9 -25 -49 -55 -89 -85 -113 -89 -132 -91 -444 -1 -240
-3 -270 -19 -295 -27 -42 86 33 -945 -618 -935 -590 -1083 -686 -1193 -772
-91 -71 -109 -81 -114 -66 -4 10 -7 88 -8 173 0 154 12 246 41 301 11 23 367
375 1630 1610 122 119 233 224 247 234 29 19 435 184 454 185 6 0 14 -8 17
-17z m1719 -35 c255 -27 406 -46 404 -53 -7 -20 -189 -8 -497 35 -173 24 -319
47 -324 52 -14 12 -29 13 417 -34z m-124 -82 c168 -20 318 -36 334 -36 16 0
27 -4 25 -9 -7 -21 -166 -143 -218 -169 -48 -23 -67 -27 -145 -27 -77 1 -555
52 -681 73 l-42 7 86 75 c47 41 111 88 142 103 66 35 61 35 499 -17z m-5799
-176 c566 -232 753 -311 768 -322 21 -18 29 -70 19 -133 -5 -33 -10 -61 -11
-63 -2 -1 -56 22 -122 52 -65 29 -306 138 -534 241 -228 103 -438 197 -465
211 -53 25 -85 65 -85 107 0 33 18 80 27 74 5 -3 186 -78 403 -167z m6414 48
c23 -118 22 -129 -21 -169 -59 -56 -320 -259 -332 -259 -16 0 -71 119 -71 152
0 16 12 41 28 58 26 30 361 298 373 299 4 1 14 -36 23 -81z m593 -16 c77 -40
71 -47 -35 -47 -89 0 -102 -2 -151 -30 -30 -16 -83 -58 -117 -93 -207 -206
-307 -482 -275 -758 30 -264 110 -378 303 -433 l63 -18 -48 -8 c-121 -19 -248
29 -323 122 -95 116 -143 346 -115 544 22 154 102 358 191 489 76 112 222 223
326 249 55 14 135 6 181 -17z m-1544 -102 c208 -21 381 -41 385 -44 3 -3 2 -9
-1 -13 -12 -12 -827 80 -827 94 0 8 11 10 33 7 17 -3 202 -23 410 -44z m1576
4 c92 -27 168 -121 204 -254 60 -214 -2 -533 -144 -744 -81 -120 -160 -184
-262 -210 -76 -20 -134 -12 -199 28 -199 120 -244 525 -92 829 91 181 222 310
357 352 56 18 74 18 136 -1z m816 -255 c77 -133 141 -247 143 -253 1 -6 -27
-40 -63 -76 -56 -56 -67 -62 -78 -50 -8 8 -52 78 -99 155 -47 77 -113 187
-148 244 -51 82 -61 105 -49 111 7 5 43 31 79 59 36 27 67 50 70 50 3 1 68
-108 145 -240z m-7950 103 c138 -55 378 -150 535 -212 157 -62 295 -118 308
-126 24 -16 31 -69 12 -104 -9 -17 -19 -14 -152 40 -188 76 -967 417 -996 436
-28 18 -47 57 -39 78 7 19 -6 23 332 -112z m5435 46 c212 -28 387 -53 390 -56
3 -2 -20 -25 -50 -50 -30 -26 -98 -88 -151 -138 -76 -73 -107 -95 -150 -109
-65 -22 -153 -22 -235 -1 -32 8 -126 24 -209 36 -82 11 -197 27 -254 35 -57 8
-107 18 -110 21 -6 6 110 119 252 245 55 49 85 69 105 69 15 0 200 -23 412
-52z m2123 -21 c32 -18 64 -62 182 -254 79 -128 140 -233 135 -233 -18 0 -152
155 -218 252 -77 115 -158 258 -145 258 4 0 25 -10 46 -23z m-1593 -35 c0 -9
-463 -382 -474 -382 -20 0 1 30 42 57 26 18 97 78 157 134 152 140 275 225
275 191z m80 -72 c17 -34 30 -75 30 -97 0 -33 -8 -45 -72 -108 -105 -102 -369
-335 -380 -335 -11 0 -68 119 -68 140 1 33 36 71 241 261 118 109 215 198 216
198 2 1 16 -26 33 -59z m-6770 8 c18 -13 48 -44 66 -70 36 -54 36 -66 -9 -173
-49 -117 -57 -189 -57 -515 0 -165 -2 -300 -4 -300 -7 0 -356 181 -356 185 0
2 41 -10 91 -27 69 -24 96 -29 116 -22 61 22 82 99 83 304 0 114 0 116 -31
153 -36 44 -83 69 -239 127 -63 23 -118 45 -122 49 -20 17 205 263 267 292 59
27 152 26 195 -3z m1017 -209 c307 -122 560 -223 561 -225 2 -1 0 -9 -5 -17
-7 -13 -30 -6 -143 40 -74 30 -283 115 -465 188 -181 73 -372 151 -424 172
-52 21 -96 44 -99 51 -2 6 1 12 7 12 5 0 261 -100 568 -221z m4676 -69 c199
-33 370 -63 380 -66 9 -3 17 -12 17 -21 0 -13 -8 -15 -42 -10 -43 5 -670 112
-720 123 -29 6 -39 34 -12 34 8 0 178 -27 377 -60z m-28 -70 c215 -39 394 -71
398 -73 6 -2 -351 -277 -391 -301 -7 -4 -28 -8 -45 -8 -32 0 -757 158 -766
167 -6 6 -25 -10 183 149 124 95 187 136 205 136 14 0 202 -32 416 -70z
m-4972 -291 c342 -160 647 -304 678 -320 l57 -28 -40 -153 c-21 -84 -41 -159
-43 -165 -5 -15 -34 -2 -470 212 -176 87 -428 210 -560 274 -198 97 -242 122
-253 145 -9 21 -11 66 -6 177 4 82 9 149 11 149 3 0 285 -131 626 -291z m8228
209 c59 -97 97 -214 115 -351 13 -103 13 -111 -3 -130 -18 -19 -116 -88 -120
-84 -1 2 -43 117 -94 257 -50 140 -93 260 -96 266 -5 13 127 126 142 121 5 -2
31 -37 56 -79z m-2251 -40 c13 -62 37 -183 55 -268 18 -85 32 -156 30 -158 -2
-2 -49 -19 -610 -215 -558 -196 -736 -257 -746 -257 -29 0 9 26 168 115 98 55
198 116 223 136 44 35 530 470 740 662 58 53 108 96 111 97 3 0 16 -51 29
-112z m-3715 -303 c-209 -206 -383 -374 -387 -375 -5 0 -8 14 -8 30 0 41 -23
84 -59 109 -16 12 -91 37 -167 56 -149 39 -375 102 -380 108 -3 3 321 111
1136 378 129 42 237 75 240 72 3 -2 -166 -173 -375 -378z m3335 189 c0 -6 -46
-53 -102 -106 -296 -273 -458 -418 -465 -418 -4 0 -26 39 -47 87 -36 80 -38
89 -25 112 8 14 136 130 284 257 l270 232 42 -76 c24 -43 43 -82 43 -88z
m-6475 126 c55 -34 69 -78 61 -189 -11 -176 -18 -221 -33 -221 -20 0 -86 35
-122 66 -95 80 -109 251 -29 352 16 19 87 14 123 -8z m8797 1 c43 -18 43 -19
122 -197 113 -258 118 -271 102 -277 -9 -4 -37 37 -84 126 -38 73 -97 185
-132 250 -34 64 -59 117 -57 117 3 0 25 -8 49 -19z m-1672 -86 c10 -9 35 -67
56 -128 20 -62 43 -125 51 -140 8 -16 13 -31 10 -33 -7 -7 -171 38 -184 50
-10 10 -83 246 -83 270 0 16 129 0 150 -19z m1410 -50 c0 -2 -55 -41 -122 -87
-191 -127 -240 -183 -387 -435 -23 -40 -47 -73 -52 -73 -7 0 -8 20 -3 57 11
89 18 107 50 122 50 23 72 51 105 130 80 192 198 288 357 290 28 1 52 -1 52
-4z m-3161 -90 c212 -47 387 -87 389 -90 3 -2 2 -10 -1 -18 -4 -11 -82 4 -393
77 -221 52 -389 97 -392 104 -2 7 0 12 5 12 4 0 181 -38 392 -85z m-342 9 c37
-8 160 -38 273 -65 113 -28 252 -61 310 -75 138 -33 141 -34 135 -45 -12 -19
-82 -7 -461 81 -430 99 -414 95 -414 110 0 15 79 12 157 -6z m3661 -8 c26 -13
57 -35 69 -48 25 -27 93 -137 93 -151 0 -5 -21 9 -46 33 -87 80 -179 99 -265
54 -87 -45 -204 -186 -268 -326 -56 -120 -75 -210 -74 -348 2 -268 77 -408
230 -426 82 -10 145 17 224 95 153 154 239 389 239 655 0 76 3 97 12 88 17
-17 22 -208 8 -303 -25 -174 -93 -333 -196 -461 -92 -114 -196 -182 -321 -212
-172 -40 -306 99 -337 351 -8 59 -20 146 -26 193 -12 81 -11 90 14 183 53 202
139 358 269 494 138 143 263 186 375 129z m-9163 -242 c1998 -896 2296 -1025
3230 -1403 164 -67 301 -124 304 -127 7 -6 -27 -30 -79 -55 -34 -16 -58 -20
-105 -17 -52 4 -108 26 -430 172 -203 93 -890 404 -1525 691 -1467 664 -1894
859 -1970 900 l-35 18 40 19 c25 12 53 17 75 13 19 -2 242 -97 495 -211z
m5695 121 c211 -53 388 -99 393 -104 7 -7 -169 -106 -428 -240 l-80 -41 -369
104 c-202 58 -370 106 -371 108 -9 8 423 267 445 268 14 0 198 -43 410 -95z
m-4780 -36 c91 -45 206 -100 255 -124 50 -24 234 -114 410 -200 176 -86 344
-168 373 -182 l54 -24 -6 -82 c-4 -45 -9 -107 -12 -139 l-6 -56 -32 13 c-18 8
-237 106 -487 218 -250 112 -503 226 -564 252 -65 28 -121 58 -137 76 -28 29
-28 29 -28 179 0 83 4 150 8 150 4 0 82 -36 172 -81z m-1408 -195 c104 -296
125 -418 94 -564 -20 -92 -318 -880 -333 -880 -14 0 -133 72 -130 78 35 65
328 698 361 782 80 199 83 292 12 477 -35 91 -88 255 -100 308 -7 28 -6 29 9
14 9 -9 48 -106 87 -215z m9704 193 c88 -45 119 -130 118 -317 -1 -146 -14
-222 -61 -339 -91 -229 -211 -353 -343 -355 -68 0 -111 21 -150 76 -49 67 -64
135 -65 283 0 164 20 257 85 390 50 105 137 213 204 254 65 41 144 43 212 8z
m-6443 -98 c171 -56 316 -105 320 -109 5 -4 -39 -42 -96 -84 -119 -86 -161
-129 -190 -195 -20 -43 -21 -67 -22 -349 -1 -166 -4 -304 -6 -307 -3 -2 -67
21 -143 53 -132 55 -136 58 -114 71 13 8 44 36 69 62 63 63 83 124 82 249 -1
109 -19 166 -64 204 -36 30 -329 147 -386 153 -64 8 -66 -2 -71 -280 l-4 -239
-27 7 c-53 13 -54 15 -52 262 2 285 12 332 86 433 66 89 195 169 278 170 15 0
168 -46 340 -101z m-2982 -45 c59 -27 69 -43 69 -111 0 -102 138 -177 227
-123 17 10 37 28 43 39 6 12 17 21 24 21 13 0 244 -103 1571 -705 385 -174
805 -364 934 -423 265 -120 266 -120 277 -236 9 -86 28 -110 105 -124 30 -6
92 -18 139 -27 104 -20 135 -38 160 -91 47 -96 96 -393 85 -509 -7 -70 -34
-196 -45 -208 -9 -10 -3610 1791 -3642 1820 -33 30 -37 46 -53 200 -8 81 -27
229 -40 328 -14 100 -25 191 -25 203 l0 22 57 -25 c31 -14 82 -37 114 -51z
m7669 26 c29 -29 25 -49 -15 -66 -20 -8 -412 -159 -873 -335 -460 -177 -906
-348 -991 -380 -85 -32 -158 -59 -162 -59 -22 0 -5 21 39 46 26 15 110 68 187
117 216 140 282 171 578 272 149 51 443 155 652 230 525 190 538 195 553 195
6 0 21 -9 32 -20z m-1178 -75 c23 -46 40 -86 38 -88 -8 -6 -554 -373 -568
-381 -17 -10 -93 151 -85 182 4 15 74 66 232 166 303 192 325 206 334 206 4 0
26 -38 49 -85z m3442 24 c18 -89 1 -267 -40 -428 -31 -123 -42 -135 -139 -139
-41 -2 -75 -3 -75 -1 1 36 93 496 104 517 20 39 76 72 137 81 4 1 9 -13 13
-30z m-4556 -111 c217 -60 332 -97 332 -105 0 -7 -2 -13 -5 -13 -3 0 -160 45
-350 100 -190 55 -347 100 -350 100 -3 0 -5 5 -5 11 0 7 9 9 23 6 12 -4 172
-48 355 -99z m4345 41 c10 -37 -11 -173 -48 -321 -20 -79 -38 -144 -40 -146
-23 -24 -1 181 50 456 7 36 30 43 38 11z m-4683 -14 c58 -14 173 -46 255 -71
83 -26 203 -62 268 -82 97 -29 117 -38 117 -55 0 -24 37 -33 -410 99 -421 124
-383 112 -375 124 9 15 29 13 145 -15z m-1655 3 c11 -33 65 -559 70 -688 l6
-145 -29 -46 c-33 -52 -108 -105 -161 -115 -64 -12 -185 37 -210 85 -13 24
-36 543 -27 604 12 79 52 127 193 226 128 91 150 102 158 79z m4715 -6 c0 -13
-28 -27 -117 -59 -65 -23 -352 -125 -638 -228 -286 -103 -668 -240 -850 -305
-181 -65 -506 -181 -722 -259 -215 -78 -394 -141 -397 -141 -12 0 -6 31 7 35
12 4 1383 501 1852 671 502 182 840 302 853 303 6 1 12 -7 12 -17z m-2873
-138 c208 -64 379 -117 381 -119 2 -2 -105 -62 -387 -217 -114 -63 -149 -78
-170 -73 -64 15 -661 241 -658 248 4 14 421 276 439 277 10 0 188 -52 395
-116z m3092 -21 c14 -56 22 -105 19 -108 -8 -9 -372 -154 -376 -150 -7 7 -62
219 -59 228 4 12 355 137 377 134 9 -1 23 -36 39 -104z m-5771 -19 c1 -1 -9
-35 -23 -77 -34 -102 -34 -209 0 -343 14 -53 23 -99 21 -101 -2 -2 -25 5 -52
15 -86 34 -86 35 -86 303 0 129 0 237 1 241 1 5 120 -28 139 -38z m5326 -93
c43 -96 29 -154 -41 -175 -24 -8 -20 -16 -57 130 -21 80 -21 78 12 91 50 20
58 16 86 -46z m-5173 28 c78 -27 127 -88 144 -180 5 -28 -1 -56 -30 -129 -57
-148 -100 -189 -164 -155 -87 45 -135 233 -100 395 16 75 64 97 150 69z m5874
-28 c-6 -5 -307 -130 -670 -276 -363 -147 -804 -325 -980 -397 -176 -71 -513
-207 -750 -303 -236 -96 -551 -223 -700 -283 -148 -60 -421 -170 -605 -245
-184 -74 -413 -167 -507 -206 -103 -41 -175 -66 -179 -60 -3 6 -4 12 -2 14 4
4 177 75 1088 445 261 106 610 248 775 315 165 67 428 174 585 238 157 64 656
266 1110 451 747 303 881 352 835 307z m-2718 -81 l41 -89 -307 -204 c-168
-112 -318 -211 -332 -220 l-25 -17 -48 90 c-31 59 -45 97 -41 110 6 17 63 55
520 338 72 44 135 81 140 81 6 1 29 -39 52 -89z m1863 -35 c16 -61 26 -113 22
-116 -11 -9 -736 -299 -747 -299 -9 0 -75 217 -75 247 0 13 19 20 450 177 173
63 316 111 318 107 1 -3 15 -56 32 -116z m-2050 108 c-1 -10 -522 -326 -535
-324 -5 0 -10 5 -10 11 0 9 521 320 537 320 4 0 8 -3 8 -7z m2990 -99 c22 -53
25 -72 24 -194 0 -159 -20 -231 -70 -265 -43 -29 -4253 -1899 -4260 -1893 -7
8 -156 589 -152 594 2 2 238 99 523 217 1198 493 2094 863 2965 1223 509 210
930 381 935 380 6 -1 21 -29 35 -62z m-3990 -86 c292 -111 341 -132 329 -141
-6 -6 -677 237 -678 246 -3 24 1 29 17 22 9 -3 159 -60 332 -127z m-54 -59
c181 -66 335 -124 343 -129 13 -7 11 -11 -12 -19 -16 -6 -33 -11 -38 -11 -34
0 -649 247 -673 271 -33 31 93 -6 380 -112z m-119 -60 c175 -67 326 -124 336
-128 15 -6 -13 -34 -145 -147 -265 -227 -252 -218 -290 -205 -50 17 -729 304
-726 306 2 1 102 68 223 149 168 112 227 146 252 146 17 0 175 -54 350 -121z
m5022 -152 c-92 -188 -117 -225 -134 -197 -6 10 23 65 167 323 89 158 69 81
-33 -126z m339 186 c-6 -21 -209 -516 -213 -522 -5 -5 -185 92 -185 100 0 3
43 98 96 211 66 142 102 209 117 216 12 6 60 11 106 11 75 1 83 -1 79 -16z
m-2953 -138 c19 -65 34 -120 32 -121 -2 -2 -28 -14 -59 -28 l-55 -24 -37 117
c-20 65 -36 123 -36 129 0 9 110 53 118 47 1 -1 18 -55 37 -120z m-5169 -827
c1012 -506 1840 -922 1842 -923 7 -6 -115 -320 -123 -318 -6 1 -221 115 -480
253 -258 139 -542 290 -630 338 -88 47 -286 153 -440 235 -460 246 -933 500
-1405 752 -648 347 -684 366 -693 374 -8 8 72 211 84 211 3 0 834 -415 1845
-922z m4974 767 c40 -146 41 -145 -108 -208 -333 -141 -755 -308 -762 -300 -4
4 -28 70 -53 146 -32 96 -42 139 -34 142 7 3 165 61 352 129 187 68 387 142
445 164 58 22 110 40 116 41 7 1 26 -51 44 -114z m-1593 -23 c65 -98 68 -124
21 -169 -35 -33 -535 -383 -548 -383 -15 0 -120 143 -120 164 0 12 10 32 23
43 23 22 578 393 587 393 3 0 19 -21 37 -48z m-1117 -192 c320 -135 372 -160
339 -160 -23 0 -709 292 -709 303 0 14 5 12 370 -143z m-3453 -286 c417 -224
1035 -555 1373 -736 338 -182 818 -438 1065 -571 248 -132 452 -242 454 -244
2 -1 -28 -87 -67 -190 -173 -459 -234 -619 -241 -630 -6 -12 -84 35 -1241 749
-517 318 -1380 851 -1942 1197 -357 220 -425 266 -420 281 26 68 248 549 254
550 4 0 348 -183 765 -406z m3387 235 c193 -83 357 -156 364 -161 23 -20 12
-31 -25 -25 -37 5 -704 288 -731 310 -11 8 -11 12 0 18 7 5 19 9 27 9 7 0 172
-68 365 -151z m4638 -37 c-41 -196 -125 -340 -257 -440 -208 -156 -369 -114
-495 129 -23 44 -40 82 -38 83 10 9 48 26 57 26 6 0 23 -24 37 -52 119 -237
272 -272 435 -102 73 78 102 129 159 284 55 151 88 207 109 186 11 -12 10 -29
-7 -114z m-4797 1 c361 -151 470 -200 470 -211 0 -12 -196 -252 -206 -252 -3
0 -11 26 -18 58 -32 146 -51 168 -196 221 -86 31 -412 161 -458 182 l-28 12
33 35 c51 53 88 73 123 66 16 -4 142 -54 280 -111z m5575 62 c7 -8 10 -21 7
-30 -18 -44 -111 -169 -173 -231 -66 -66 -88 -79 -256 -162 -100 -49 -250
-129 -333 -176 -82 -48 -303 -164 -490 -258 -187 -94 -452 -228 -590 -298
-874 -446 -2134 -1073 -2207 -1098 -48 -17 -124 -38 -168 -46 -97 -19 -293
-20 -365 -2 l-50 13 65 6 c36 3 121 11 190 17 149 13 227 29 335 72 134 52
2671 1319 3130 1562 649 345 613 324 685 396 36 36 81 93 100 128 65 116 70
122 89 122 10 0 24 -7 31 -15z m-894 -51 c-14 -118 -74 -240 -164 -331 -112
-113 -215 -129 -298 -46 -34 34 -91 140 -80 150 2 3 71 10 152 16 94 8 149 16
151 24 5 14 -10 19 -120 33 -48 7 -86 14 -84 16 6 6 431 193 441 193 5 1 6
-24 2 -55z m-2746 6 c6 -22 24 -84 40 -136 17 -53 30 -102 30 -108 0 -6 -14
-17 -31 -23 -29 -11 -33 -10 -54 15 -12 15 -59 72 -104 127 l-83 99 64 23 c35
13 72 28 83 33 35 16 44 11 55 -30z m3488 -42 c-51 -97 -115 -154 -271 -242
-76 -43 -141 -75 -144 -72 -8 7 -15 2 81 61 99 61 239 178 308 256 28 32 53
59 55 59 2 0 -11 -28 -29 -62z m325 8 c48 -26 87 -54 85 -61 -7 -28 -234 -324
-249 -324 -9 -1 -44 17 -78 40 -85 57 -84 63 41 248 56 83 104 150 107 149 4
-2 46 -25 94 -52z m-432 -4 c-18 -33 -120 -122 -198 -172 -77 -49 -194 -105
-326 -154 l-68 -25 18 30 c18 31 60 56 423 258 80 44 149 81 153 81 4 0 3 -8
-2 -18z m-3667 -60 c70 -33 163 -117 199 -180 l18 -31 -30 -16 c-43 -22 -83
-19 -122 10 -124 90 -165 106 -269 106 -182 1 -334 -110 -505 -367 -40 -61
-89 -124 -108 -141 -32 -28 -92 -52 -103 -40 -3 2 25 62 60 133 126 249 289
422 483 511 90 41 142 53 228 50 66 -3 93 -9 149 -35z m-906 -205 l33 -34
-198 -266 c-109 -147 -201 -266 -204 -267 -4 0 -23 60 -42 133 -37 135 -40
149 -38 180 0 9 73 96 162 192 l161 175 47 -39 c25 -22 61 -55 79 -74z m832
29 c19 -10 59 -36 89 -59 41 -30 50 -42 39 -48 -39 -22 -761 -309 -766 -305
-8 9 28 85 69 146 38 57 129 151 189 196 39 28 121 72 160 85 43 14 181 4 220
-15z m-661 -45 c-8 -11 -113 -141 -234 -290 -136 -168 -223 -267 -229 -261
-28 28 235 366 401 512 70 61 84 70 62 39z m2996 -58 c-18 -202 -97 -375 -235
-513 -80 -80 -150 -113 -248 -118 -66 -4 -79 -1 -138 28 -107 53 -149 130
-122 226 l14 48 31 -49 c72 -115 122 -150 213 -150 57 0 72 4 118 33 123 80
223 262 247 452 9 70 19 88 58 105 65 29 70 24 62 -62z m-3720 20 c8 -21 227
-850 384 -1454 61 -235 111 -444 111 -465 0 -22 -18 -92 -40 -158 -86 -254
-122 -294 -363 -396 -61 -26 -256 -115 -432 -197 -294 -138 -385 -177 -390
-171 -1 2 2 36 6 76 10 74 109 341 417 1122 177 446 197 529 195 790 -1 193
-19 286 -103 549 -34 105 -61 194 -58 196 6 6 251 123 259 124 4 1 10 -7 14
-16z m-4540 -28 l30 -25 -49 -46 c-64 -59 -98 -77 -128 -65 -24 10 -105 88
-97 95 2 2 31 17 64 34 78 40 138 42 180 7z m8095 -37 c0 -77 -18 -136 -66
-229 -70 -132 -160 -208 -247 -209 -85 0 -151 58 -205 181 l-31 70 97 45 c53
25 174 80 267 123 94 44 173 80 178 80 4 1 7 -27 7 -61z m1240 48 c0 -4 -850
-452 -975 -514 -67 -33 -116 -50 -100 -35 6 6 138 77 295 158 157 81 371 193
475 248 281 148 279 147 292 147 7 0 13 -2 13 -4z m497 -27 c30 -17 52 -36 51
-41 -3 -9 -110 -74 -290 -177 l-57 -32 -46 71 c-25 38 -45 73 -45 75 0 3 59
35 131 70 153 76 177 79 256 34z m-9475 -187 c40 -26 73 -52 75 -58 1 -5 -45
-42 -104 -83 -73 -52 -110 -71 -119 -65 -7 5 -54 36 -103 69 -50 33 -91 63
-91 67 0 6 163 111 190 121 33 13 84 -4 152 -51z m9052 42 c14 -6 81 -123 74
-129 -3 -2 -516 -257 -529 -263 -11 -5 -17 87 -9 125 12 53 62 97 154 137 45
19 122 57 171 85 90 50 109 57 139 45z m-5117 -164 c109 -271 137 -533 83
-783 -25 -112 -36 -143 -383 -1052 -36 -93 -70 -171 -76 -173 -16 -5 -111 49
-133 77 -14 19 -18 34 -13 59 7 39 202 563 333 897 50 127 100 266 111 310 56
224 54 412 -5 649 -14 54 -23 105 -20 113 4 9 16 13 33 11 25 -3 32 -14 70
-108z m4263 101 c21 -6 -2 -21 -158 -99 -100 -51 -182 -89 -182 -85 0 26 79
115 130 146 61 38 151 54 210 38z m-1060 -45 c0 -21 -159 -360 -210 -446 -113
-194 -339 -343 -495 -327 -114 12 -213 94 -284 235 l-40 80 40 16 c21 9 41 16
44 16 2 0 22 -31 44 -68 92 -158 207 -200 352 -127 132 67 227 181 334 400 45
91 86 162 107 182 48 46 108 68 108 39z m1138 -30 c-1 -2 -75 -40 -163 -86
-88 -45 -212 -110 -275 -143 -96 -50 -111 -56 -90 -33 50 55 127 103 319 197
159 78 198 94 204 82 5 -8 7 -16 5 -17z m-8098 -19 c-1 -7 -46 -43 -101 -82
-126 -87 -143 -107 -135 -158 7 -39 -8 -82 -25 -72 -12 8 -11 101 2 150 23 82
85 138 182 165 64 18 77 17 77 -3z m6710 -109 c-49 -135 -111 -240 -184 -314
-127 -127 -247 -162 -336 -99 -41 29 -106 121 -112 159 -2 15 52 44 322 172
178 84 326 151 329 149 2 -2 -7 -33 -19 -67z m-6538 3 c35 -18 74 -41 88 -53
l25 -20 -30 -24 c-77 -63 -179 -124 -204 -124 -29 0 -201 104 -201 121 0 17
89 106 123 123 48 25 123 16 199 -23z m8198 -7 c25 -65 4 -135 -52 -177 -40
-30 -492 -257 -512 -257 -30 0 -37 125 -8 159 15 19 534 300 555 301 4 0 12
-12 17 -26z m-7987 -116 c3 -11 -235 -198 -252 -198 -3 0 -15 12 -27 27 l-22
28 87 64 c47 35 100 70 116 77 38 17 92 18 98 2z m205 -129 c56 -33 102 -64
102 -68 0 -10 -100 -89 -164 -130 -81 -50 -127 -39 -254 62 l-63 50 108 73
c74 50 118 73 139 73 20 1 64 -19 132 -60z m5887 -499 c-561 -280 -1058 -525
-1104 -545 -162 -69 -348 -102 -503 -90 -142 11 -155 22 -28 22 200 1 354 45
661 189 208 97 887 420 1459 694 514 246 499 239 520 238 8 0 -444 -229 -1005
-508z m1271 425 c3 -13 7 -46 7 -74 2 -40 -3 -54 -22 -75 -21 -23 -617 -336
-639 -336 -14 0 -6 168 9 186 12 14 613 322 631 323 4 1 10 -10 14 -24z
m-6965 -51 c7 -8 10 -16 8 -18 -13 -13 -244 -179 -255 -183 -15 -6 -28 30 -19
56 6 19 131 122 186 152 32 18 61 15 80 -7z m4949 -47 c0 -59 -39 -189 -85
-283 -133 -274 -385 -487 -612 -519 -165 -22 -349 86 -424 250 -16 35 -29 67
-29 70 0 3 23 16 51 29 l50 24 27 -25 c62 -59 158 -124 211 -144 45 -17 72
-20 141 -17 123 6 214 52 330 168 93 93 144 173 190 295 48 126 58 144 92 165
47 28 58 26 58 -13z m-4799 -40 c105 -63 189 -120 189 -127 0 -11 -157 -128
-204 -152 -70 -36 -146 -8 -265 99 l-44 39 89 66 c99 73 154 108 170 108 5 0
35 -15 65 -33z m4659 8 c0 -2 -14 -39 -31 -82 -67 -169 -153 -288 -267 -370
-147 -105 -263 -125 -384 -65 -63 31 -162 124 -155 145 2 8 814 377 830 377 4
0 7 -2 7 -5z m-4381 -181 l23 -16 -29 -30 c-15 -17 -65 -55 -111 -86 -93 -61
-131 -108 -140 -174 -5 -38 -7 -40 -13 -18 -12 43 -10 120 6 149 25 50 195
191 229 191 7 0 22 -7 35 -16z m5835 -51 c13 -81 8 -118 -21 -146 -26 -23
-522 -287 -542 -287 -11 0 -21 51 -21 110 0 38 5 53 28 75 21 22 519 282 543
284 4 1 9 -16 13 -36z m-5599 -94 c80 -51 145 -94 144 -98 -1 -11 -238 -206
-248 -204 -5 2 -69 41 -141 88 -72 47 -138 89 -146 92 -8 3 -14 9 -12 14 3 8
246 199 254 199 2 0 69 -41 149 -91z m4569 60 c5 -5 8 -10 5 -12 -14 -10 -374
-175 -377 -172 -5 4 66 144 91 179 l20 29 126 -8 c69 -3 130 -11 135 -16z
m-4322 -207 c13 -5 -13 -32 -117 -117 -146 -120 -172 -154 -157 -208 6 -19 5
-42 0 -57 -9 -24 -10 -24 -20 -6 -16 28 -3 153 20 208 52 119 193 212 274 180z
m4732 -54 c3 -13 6 -49 6 -81 0 -53 -3 -62 -31 -88 -17 -16 -113 -70 -213
-120 -99 -51 -249 -127 -333 -170 l-152 -79 -7 35 c-7 40 3 141 18 169 8 15
676 355 699 356 4 0 9 -10 13 -22z m-4518 -85 c79 -49 144 -90 143 -93 0 -3
-23 -24 -52 -46 -29 -23 -91 -73 -138 -112 l-86 -71 -141 92 c-77 51 -141 97
-141 102 0 11 248 213 262 214 5 1 74 -38 153 -86z m239 -153 c17 -19 26 -10
-269 -251 -20 -16 -20 -17 2 -67 12 -28 20 -57 17 -64 -6 -14 -44 -42 -50 -36
-8 7 -17 198 -11 222 6 25 212 207 246 218 22 7 46 -1 65 -22z m257 -152 c81
-51 147 -96 145 -100 -2 -7 -266 -248 -271 -248 -3 0 -325 217 -334 225 -4 4
182 155 233 189 21 14 47 26 58 26 12 0 87 -42 169 -92z m3255 -59 c4 -46 1
-59 -19 -89 -43 -65 -339 -194 -536 -235 -75 -15 -142 -20 -142 -9 0 3 7 46
16 95 l16 88 47 16 c25 8 170 58 321 109 151 52 279 91 283 86 5 -4 11 -31 14
-61z m-888 -73 c96 -30 178 -59 181 -63 11 -12 -16 -171 -31 -189 -25 -30
-178 -8 -360 52 l-77 25 42 120 c31 90 45 119 56 116 8 -3 93 -30 189 -61z
m-2138 -13 c21 -16 38 -30 38 -33 0 -3 -68 -60 -150 -128 l-150 -123 -29 21
c-17 12 -30 25 -30 30 0 8 269 260 278 260 2 0 21 -12 43 -27z m274 -170 c85
-54 155 -101 155 -104 0 -8 -261 -250 -276 -256 -9 -3 -297 188 -332 221 -10
10 13 34 120 124 84 70 141 112 156 112 12 0 92 -44 177 -97z m268 -171 c20
-18 31 -7 -172 -169 -89 -72 -122 -93 -146 -93 -16 0 -35 4 -42 8 -15 10 245
274 278 283 25 6 52 -3 82 -29z m99 -73 c18 -24 18 -29 -9 -222 l-28 -197
-143 95 c-79 53 -142 100 -140 104 6 16 283 250 292 247 6 -1 18 -13 28 -27z
m1032 -41 c-15 -50 -46 -98 -76 -121 -18 -13 -114 -66 -213 -117 -99 -51 -276
-144 -393 -207 -117 -63 -217 -113 -222 -111 -5 2 -25 28 -44 58 -35 55 -35
55 -13 65 12 6 231 110 487 232 256 122 469 222 473 222 5 1 5 -9 1 -21z"/>
<path d="M8365 11780 c-49 -19 -58 -52 -95 -333 -17 -128 -49 -360 -71 -515
-28 -192 -39 -298 -34 -328 13 -86 71 -124 250 -165 155 -34 218 -10 250 94
30 99 181 1111 172 1149 -11 43 -49 60 -195 85 -140 23 -241 28 -277 13z m225
-109 c78 -16 144 -32 147 -35 3 -3 -14 -138 -38 -301 l-44 -295 -42 0 c-24 0
-43 -2 -43 -4 0 -2 -9 -49 -21 -105 -11 -57 -19 -105 -16 -107 3 -3 19 20 37
50 28 50 60 74 60 46 0 -42 -54 -357 -62 -368 -30 -36 -60 -41 -143 -25 -168
31 -168 32 -121 368 20 138 53 375 73 528 32 234 40 277 54 277 9 0 81 -13
159 -29z"/>
<path d="M10525 11703 c-11 -2 -113 -24 -226 -48 -222 -47 -274 -66 -312 -117
-54 -72 -52 -30 -49 -1168 2 -580 5 -1067 8 -1082 l5 -26 67 18 c37 10 141 42
231 70 235 74 304 112 360 198 61 96 62 105 68 792 6 729 -6 1245 -30 1302
-20 47 -70 72 -122 61z m48 -619 c-1 -311 -4 -569 -7 -572 -3 -3 -6 241 -6
541 l0 547 -50 0 -50 0 -2 -567 -3 -567 -185 -67 c-102 -38 -188 -68 -192 -69
-4 0 -14 8 -24 17 -16 16 -17 54 -11 557 7 589 7 585 67 628 21 15 403 114
450 117 13 1 15 -67 13 -565z m57 -981 c0 -439 -11 -504 -96 -587 -39 -38
-122 -71 -379 -152 -82 -25 -156 -49 -162 -51 -10 -4 -13 97 -13 486 l0 492
37 -26 c62 -42 100 -36 358 59 127 47 236 85 243 85 9 1 12 -67 12 -306z"/>
<path d="M9685 11509 c-44 -11 -146 -36 -227 -54 -158 -36 -214 -59 -247 -101
-38 -48 -32 -7 -151 -1059 -76 -672 -74 -655 -75 -963 l0 -294 28 -24 c17 -15
41 -24 60 -24 18 0 124 30 237 66 113 36 277 88 365 116 89 28 170 59 183 71
l22 20 0 802 c0 441 2 804 5 806 2 3 6 133 7 290 3 318 0 336 -63 358 -41 14
-48 14 -144 -10z m138 -47 c31 -34 35 -114 28 -630 l-6 -514 -28 -24 c-15 -13
-40 -24 -55 -24 l-27 1 27 15 c15 8 36 29 45 47 16 29 18 78 21 544 2 361 0
518 -8 532 -15 28 -44 26 -68 -4 -19 -23 -20 -51 -28 -517 -5 -271 -8 -523 -6
-560 3 -62 2 -68 -16 -68 -11 0 -153 -45 -315 -100 -161 -55 -298 -100 -303
-100 -6 0 -1 78 13 198 12 108 41 359 63 557 53 477 53 481 101 527 40 38 20
32 404 122 88 20 139 20 158 -2z m17 -1716 c0 -418 -1 -455 -17 -474 -13 -15
-117 -51 -358 -125 -399 -123 -383 -119 -406 -106 -29 15 -37 39 -49 135 -9
76 -6 137 19 427 16 185 32 341 35 345 3 5 38 15 78 22 71 14 302 89 558 183
69 25 128 46 133 46 4 1 7 -203 7 -453z"/>
<path d="M11515 7391 c-42 -25 -61 -49 -86 -106 -30 -68 -31 -154 -3 -192 65
-88 158 -54 220 81 22 47 25 67 21 107 -13 108 -79 156 -152 110z m87 -118
c10 -9 18 -24 18 -34 0 -35 -32 -99 -60 -119 -25 -18 -29 -18 -40 -5 -7 9 -15
37 -17 63 -7 85 49 140 99 95z"/>
<path d="M12164 6441 c-98 -45 -155 -208 -110 -316 33 -78 151 -86 198 -13 30
46 52 133 52 210 1 70 -1 80 -24 102 -35 35 -68 39 -116 17z m96 -90 c24 -47
3 -149 -40 -193 -34 -33 -53 -35 -80 -8 -42 42 -11 158 53 199 40 26 54 26 67
2z"/>
</g>
</svg>
