<?xml version="1.0" standalone="no"?>
<!DOCTYPE svg PUBLIC "-//W3C//DTD SVG 20010904//EN"
 "http://www.w3.org/TR/2001/REC-SVG-20010904/DTD/svg10.dtd">
<svg version="1.0" xmlns="http://www.w3.org/2000/svg"
 width="1500.000000pt" height="620.000000pt" viewBox="0 0 1500.000000 620.000000"
 preserveAspectRatio="xMidYMid meet">
<metadata>
Created by potrace 1.16, written by Peter Selinger 2001-2019
</metadata>
<g transform="translate(0.000000,620.000000) scale(0.100000,-0.100000)"
fill="none" stroke="#000000">
<path d="M8500 6189 c-1045 -58 -2041 -363 -2787 -851 -203 -133 -287 -209
-368 -332 -37 -55 -52 -67 -175 -139 -74 -43 -170 -101 -212 -129 l-77 -50
-147 114 c-263 203 -558 443 -557 453 2 13 180 75 393 136 96 28 193 60 215
72 74 41 71 112 -8 151 -36 17 -48 18 -155 7 -601 -56 -881 -81 -931 -81 l-60
0 -11 40 c-5 22 -15 58 -21 81 -16 64 -23 38 -9 -36 13 -66 10 -83 -9 -70 -7
3 -11 42 -11 91 0 49 -4 84 -10 84 -10 0 -12 -22 -15 -145 l-1 -60 -55 -7
c-30 -4 -119 -14 -199 -23 -309 -33 -399 -52 -990 -210 -379 -101 -713 -187
-918 -235 -96 -22 -187 -47 -203 -55 -67 -35 -75 -100 -16 -132 27 -15 57 -18
187 -17 220 0 391 24 1155 160 143 25 273 47 289 47 l30 2 78 -335 c43 -184
91 -393 108 -465 16 -71 45 -194 63 -273 l35 -143 -22 -9 c-20 -7 -290 -124
-741 -320 -104 -46 -224 -105 -266 -131 -54 -35 -127 -66 -260 -113 -430 -150
-1290 -466 -1399 -515 -175 -78 -268 -155 -285 -239 -10 -48 25 -113 85 -157
72 -53 274 -146 442 -204 172 -59 202 -73 223 -105 47 -71 -47 -151 -361 -310
-144 -73 -205 -112 -230 -151 -16 -25 -16 -27 5 -48 21 -21 29 -22 204 -22
103 1 251 9 342 19 248 27 694 83 968 121 137 19 267 35 288 35 39 0 94 -23
227 -97 35 -20 61 -37 59 -40 -3 -2 -123 -26 -268 -54 -478 -90 -1149 -219
-1479 -284 -179 -35 -356 -70 -394 -77 -38 -6 -64 -14 -59 -15 10 -4 168 18
1188 163 489 70 886 134 928 150 9 3 17 4 17 1 0 -2 -49 -30 -110 -60 -327
-169 -508 -304 -538 -405 -18 -59 2 -98 67 -132 126 -65 853 -1 2251 200 838
120 1466 229 2325 405 204 41 377 74 385 72 13 -3 13 -5 0 -10 -8 -3 -139 -37
-290 -76 -569 -145 -1381 -364 -1970 -531 -118 -33 -285 -80 -370 -104 -743
-209 -1593 -450 -1970 -558 -250 -71 -521 -148 -603 -171 -81 -22 -145 -42
-143 -44 2 -2 71 12 153 31 81 20 301 72 488 117 962 227 2187 529 2815 693
187 49 334 83 347 80 16 -5 36 5 72 34 71 56 124 69 204 49 61 -15 63 -14 103
9 56 33 95 31 137 -6 28 -24 44 -30 80 -30 44 0 46 1 58 38 38 117 142 192
265 192 87 0 148 -36 175 -104 18 -44 27 -47 67 -20 19 13 45 24 57 24 66 0
84 11 101 62 27 83 100 138 184 138 23 0 25 4 26 43 0 23 10 65 23 94 19 43
35 59 104 107 92 63 123 69 188 36 34 -18 91 -80 101 -112 3 -9 147 14 168 27
4 3 10 19 14 36 18 92 70 139 152 139 41 -1 56 -6 87 -34 l39 -33 39 20 c22
11 69 22 104 25 42 3 65 9 65 17 0 7 20 31 45 54 51 47 86 52 156 25 37 -15
44 -16 74 -1 32 15 32 16 23 59 -31 132 98 284 250 296 72 6 130 -18 183 -76
38 -40 47 -46 80 -43 20 1 52 -4 72 -12 45 -19 68 -5 85 52 25 83 148 153 237
137 42 -8 88 -46 105 -86 7 -16 17 -30 23 -30 17 0 902 285 1472 475 956 317
1708 592 2073 756 97 43 177 77 179 75 7 -6 -130 -116 -213 -171 -168 -112
-359 -201 -759 -357 -634 -247 -1446 -513 -2163 -709 -141 -38 -328 -91 -414
-116 l-158 -46 0 -53 c0 -52 1 -54 37 -72 l37 -19 63 29 c62 29 64 30 108 14
44 -14 47 -14 94 10 27 13 58 24 68 24 14 0 26 15 42 55 54 130 204 183 340
120 l53 -25 37 29 c62 50 101 50 156 1 18 -16 26 -16 66 -6 26 7 61 24 79 39
17 15 57 34 88 43 258 72 900 282 1237 404 696 252 1060 436 1292 654 51 48
149 155 219 239 141 170 143 172 339 336 754 633 1330 1213 1469 1481 164 317
-56 574 -583 680 -492 99 -1474 50 -2843 -142 l-227 -31 -168 61 c-259 94
-470 152 -795 217 -566 113 -1226 158 -1828 124z m710 -169 c616 -26 1203
-118 1634 -257 263 -84 568 -204 555 -218 -3 -2 -122 -25 -264 -50 -291 -51
-941 -182 -1690 -338 -851 -179 -934 -192 -1240 -191 -191 0 -278 5 -515 31
-157 18 -366 37 -465 44 -206 13 -615 7 -1030 -15 -148 -8 -353 -18 -455 -21
l-185 -6 40 37 c38 35 204 147 373 253 181 112 437 236 717 346 758 298 1585
424 2525 385z m4967 -194 c212 -27 400 -73 488 -119 l40 -21 -125 -8 c-353
-20 -605 -45 -945 -93 -3047 -430 -7073 -1534 -10555 -2895 -390 -152 -353
-140 -375 -123 -102 76 -226 105 -595 137 -566 51 -1023 48 -1367 -7 -87 -14
-105 -10 -50 11 98 40 919 332 1070 383 263 87 305 93 587 85 302 -9 592 -23
800 -41 90 -8 166 -13 168 -11 5 6 -216 64 -363 96 -206 44 -311 59 -495 70
-91 6 -171 12 -179 13 -25 3 678 310 943 412 219 83 307 103 520 116 254 16
818 -15 908 -50 23 -9 23 -9 -7 -20 -237 -90 -598 -272 -998 -503 -136 -79
-168 -104 -91 -72 163 69 912 321 1604 539 168 53 456 145 640 205 1081 351
1799 563 2825 834 1150 303 2211 535 3118 682 92 15 167 30 167 33 0 8 -140
87 -249 141 -45 23 -81 43 -79 45 7 7 622 83 883 109 251 25 548 49 810 66
210 13 756 4 902 -14z m567 -175 c21 -9 76 -74 76 -92 0 -3 -35 -9 -77 -13
-89 -7 -777 -143 -1213 -240 -922 -204 -1822 -415 -1837 -430 -4 -3 3 -16 14
-29 11 -12 33 -44 49 -70 28 -47 30 -48 67 -42 21 3 127 30 235 59 207 57
1024 272 1712 451 344 90 775 204 993 263 62 17 61 17 71 -15 9 -29 -17 -42
-284 -145 -682 -264 -1357 -507 -2205 -793 l-570 -192 -43 -61 c-111 -158
-286 -212 -448 -138 l-62 28 -448 -135 c-1557 -469 -3694 -1055 -5619 -1542
-297 -75 -709 -181 -915 -235 -206 -53 -419 -108 -472 -121 -54 -12 -96 -24
-94 -26 3 -3 1508 297 2036 407 1123 233 3056 677 4120 946 2047 518 3387
1030 4826 1844 97 55 178 99 180 97 7 -7 -46 -106 -88 -162 -199 -267 -619
-602 -1240 -988 -311 -194 -739 -416 -1078 -561 -771 -327 -2061 -714 -4440
-1331 -1618 -419 -4524 -1124 -4546 -1102 -13 13 474 372 551 407 129 59 268
93 995 245 709 148 1110 235 1563 340 577 132 996 237 1862 465 193 51 385
102 428 113 43 11 76 22 73 24 -3 3 -67 -11 -143 -30 -156 -40 -843 -199
-1225 -283 -1193 -261 -3010 -603 -3753 -704 -234 -32 -383 -17 -548 58 -227
103 -366 261 -501 567 l-24 54 791 261 c436 144 945 313 1132 376 1723 585
3194 1030 4560 1379 187 48 392 100 455 116 63 17 282 70 485 119 1489 357
2593 578 3728 746 379 56 748 110 802 117 17 2 33 5 37 6 4 0 18 -3 32 -8z
m-10144 -150 c0 -5 -10 -11 -22 -13 -13 -3 -76 -19 -141 -37 -246 -65 -434
-98 -1417 -256 -1030 -165 -1224 -195 -1234 -192 -6 2 84 22 199 45 116 22
372 73 570 112 902 178 1552 294 1835 329 184 22 210 24 210 12z m-478 -424
c369 -260 1423 -966 1588 -1066 l82 -49 -88 -27 c-79 -23 -701 -221 -730 -232
-11 -4 -194 202 -509 572 -66 77 -205 239 -310 360 -243 282 -388 455 -384
459 2 2 29 11 59 21 30 10 73 26 95 36 22 10 45 19 52 19 7 0 72 -42 145 -93z
m-542 -21 c30 -34 197 -216 370 -405 173 -190 313 -347 310 -350 -17 -17 -515
-261 -534 -261 -13 0 -38 10 -56 23 -55 37 -227 243 -262 314 l-32 65 12 132
c6 72 22 216 36 321 23 170 28 191 48 207 13 10 30 17 38 17 8 -1 40 -29 70
-63z m3765 -186 c316 -18 777 -70 745 -83 -8 -3 -94 -27 -190 -52 -96 -26
-323 -88 -505 -140 -181 -51 -343 -96 -360 -99 -16 -4 -100 2 -185 13 -488 61
-970 76 -1481 46 -234 -14 -319 -12 -319 6 0 15 128 115 383 299 17 12 75 16
296 21 378 9 1396 2 1616 -11z m-1550 -430 c256 -15 614 -58 654 -80 8 -4 -15
-17 -65 -35 -44 -16 -174 -63 -290 -106 l-212 -78 -88 24 c-95 25 -169 52
-237 86 -60 31 -287 181 -287 191 0 11 306 10 525 -2z m-1395 -277 c12 -16 48
-56 81 -89 32 -34 59 -64 59 -66 0 -3 -87 -8 -192 -12 -106 -4 -282 -15 -390
-24 -109 -10 -198 -16 -198 -14 0 10 574 231 602 232 9 0 26 -12 38 -27z
m8850 -218 c0 -3 -39 -31 -87 -62 -324 -210 -1007 -558 -1583 -805 -751 -322
-1354 -524 -2375 -794 -154 -41 -468 -114 -472 -111 -4 5 58 27 587 217 1358
486 2718 1001 3255 1231 116 49 314 143 440 209 250 129 235 122 235 115z
m-11364 -1332 c17 -8 44 -27 60 -44 l28 -29 -24 -18 c-13 -9 -65 -42 -114 -72
-119 -72 -129 -80 -150 -112 -10 -16 -25 -28 -33 -28 -23 0 -73 29 -154 90
l-76 57 -294 7 c-862 19 -919 22 -681 40 271 21 846 78 1072 106 238 30 307
31 366 3z m698 -127 c24 -18 39 -40 46 -67 22 -79 -42 -146 -149 -157 -44 -4
-49 -1 -105 48 -32 28 -71 56 -85 61 -14 6 -119 13 -233 16 -115 3 -207 8
-204 10 2 2 97 19 212 38 115 19 247 46 294 60 109 31 175 29 224 -9z"/>
<path d="M8380 5923 c-710 -49 -1228 -169 -1795 -415 -211 -91 -583 -283 -572
-294 2 -2 48 0 103 6 214 21 510 30 989 30 l500 0 36 24 c356 242 902 489
1389 627 l45 13 -85 7 c-84 7 -522 9 -610 2z"/>
<path d="M9750 5829 c-437 -45 -894 -200 -1390 -472 -236 -129 -253 -149 -181
-217 66 -63 99 -62 596 21 495 82 1168 212 1327 256 136 37 198 196 126 324
-49 88 -203 116 -478 88z"/>
<path d="M10398 5755 c-26 -14 -28 -21 -28 -73 0 -71 27 -131 71 -163 51 -36
165 -31 394 16 99 20 181 38 183 40 16 15 -197 107 -353 151 -145 42 -228 51
-267 29z"/>
<path d="M14030 5254 c-47 -13 -233 -64 -415 -113 -353 -96 -565 -154 -1320
-364 l-480 -133 -3 -77 c-2 -48 1 -77 7 -77 29 0 1523 504 2071 699 255 90
300 111 140 65z"/>
<path d="M11403 4891 c-229 -59 -322 -406 -159 -598 40 -48 126 -86 194 -87
107 -1 217 76 274 192 30 61 33 74 33 162 0 83 -3 102 -28 155 -32 68 -85 128
-139 156 -42 22 -129 32 -175 20z m74 -226 c29 -21 57 -97 49 -136 -18 -91
-72 -141 -128 -118 -80 33 -97 171 -30 242 29 31 75 36 109 12z"/>
<path d="M11110 4721 c-8 -5 -139 -43 -290 -86 -881 -248 -2930 -851 -3820
-1125 -52 -16 -464 -140 -915 -275 -451 -135 -887 -268 -970 -295 -388 -126
-775 -250 -1160 -370 -533 -167 -887 -281 -882 -286 2 -2 19 1 38 6 19 6 313
85 654 176 341 91 807 219 1035 284 228 65 451 128 495 140 44 12 530 150
1080 307 1741 495 2069 588 2550 723 259 72 682 191 940 265 570 162 814 230
1050 293 l180 49 3 34 c2 19 10 63 18 98 8 35 13 65 12 67 -2 1 -10 -1 -18 -5z"/>
<path d="M11045 4423 c-40 -10 -302 -84 -875 -246 -322 -91 -925 -261 -1340
-377 -919 -257 -1140 -319 -1340 -375 -966 -272 -1793 -500 -2655 -734 -739
-200 -965 -261 -1205 -329 -135 -38 -277 -77 -317 -88 -40 -10 -71 -20 -69
-22 5 -4 954 204 1441 317 1112 258 2197 531 3720 937 623 166 1622 445 2150
600 66 20 217 64 335 99 118 35 227 66 242 69 l26 6 -26 75 c-28 78 -32 81
-87 68z"/>
<path d="M8053 4216 c32 -82 82 -189 92 -192 6 -3 49 7 95 21 47 13 178 50
293 81 180 50 207 60 207 77 0 24 -4 24 -284 -38 -302 -66 -267 -65 -312 -10
-42 51 -102 91 -91 61z"/>
<path d="M5324 3372 c-68 -24 -103 -47 -114 -78 -8 -20 -40 -285 -36 -291 1
-1 21 3 44 9 l42 10 2 72 c1 39 1 94 -1 122 -2 45 1 54 24 72 14 11 39 23 54
27 52 11 98 76 54 75 -10 -1 -41 -9 -69 -18z"/>
<path d="M5085 3285 c-22 -8 -41 -15 -42 -15 -3 0 -60 -156 -83 -225 -12 -38
-26 -74 -31 -80 -11 -12 -12 -55 0 -55 4 0 22 5 40 11 26 9 31 16 32 42 1 56
5 71 35 147 28 72 29 73 32 40 2 -19 -2 -68 -9 -108 -6 -40 -9 -75 -5 -79 3
-4 21 1 40 9 29 14 34 23 40 64 8 65 8 264 -1 264 -5 -1 -26 -7 -48 -15z"/>
<path d="M5315 3241 c-37 -16 -38 -18 -17 -25 27 -9 27 -8 -3 -103 -13 -42
-23 -79 -21 -80 2 -2 20 0 41 5 43 9 46 14 69 150 13 71 13 72 -8 72 -12 0
-39 -9 -61 -19z"/>
<path d="M4855 3196 c-98 -24 -108 -37 -120 -148 -7 -60 -5 -67 13 -77 23 -12
22 -14 36 93 6 43 19 60 54 71 21 6 23 4 18 -13 -4 -11 -2 -23 4 -27 14 -9 13
-25 -3 -25 -19 0 -70 -57 -63 -69 4 -6 20 -11 36 -11 35 0 65 38 58 73 -2 13
2 29 10 36 9 9 12 25 9 45 -3 20 1 37 11 49 18 21 11 21 -63 3z"/>
<path d="M4657 3138 c-10 -8 -22 -39 -28 -73 -17 -91 -28 -101 -29 -24 0 36
-3 68 -6 71 -11 12 -63 -17 -68 -37 -5 -19 -36 -284 -36 -305 0 -10 40 -1 57
12 6 5 15 24 18 41 11 54 16 67 26 67 5 0 9 -20 9 -45 0 -48 5 -51 43 -34 22
10 25 18 31 107 4 54 13 127 20 165 12 61 11 67 -4 67 -9 0 -24 -6 -33 -12z"/>
<path d="M3950 929 c-457 -95 -1056 -230 -1635 -368 -389 -93 -1546 -386
-1537 -389 5 -1 108 17 228 42 121 25 406 83 634 130 1252 257 1605 342 2415
582 174 52 176 52 150 52 -11 0 -126 -22 -255 -49z"/>
</g>
</svg>
