<?xml version="1.0" standalone="no"?>
<!DOCTYPE svg PUBLIC "-//W3C//DTD SVG 20010904//EN"
 "http://www.w3.org/TR/2001/REC-SVG-20010904/DTD/svg10.dtd">
<svg version="1.0" xmlns="http://www.w3.org/2000/svg"
 width="678.000000pt" height="528.000000pt" viewBox="0 0 678.000000 528.000000"
 preserveAspectRatio="xMidYMid meet">
<metadata>
Created by potrace 1.16, written by Peter Selinger 2001-2019
</metadata>
<g transform="translate(0.000000,528.000000) scale(0.100000,-0.100000)"
fill="none" stroke="#000000">
<path d="M3322 4508 c-9 -9 -12 -132 -12 -490 l0 -478 -25 0 c-13 0 -40 -14
-60 -31 -28 -25 -36 -28 -41 -16 -5 13 -1 141 8 237 2 28 -1 37 -19 45 -23 10
-23 10 -23 257 0 211 -2 249 -16 262 -21 21 -47 20 -67 -2 -15 -16 -17 -50
-17 -264 l0 -246 -25 -6 c-28 -7 -45 -50 -26 -69 7 -7 11 -52 11 -118 l0 -108
-42 -5 c-24 -3 -70 -8 -103 -11 -63 -7 -136 -34 -169 -63 -29 -26 -43 -69 -82
-243 -38 -177 -60 -231 -102 -253 -18 -9 -83 -16 -197 -20 -854 -34 -1254 -92
-1555 -228 -101 -45 -253 -153 -349 -247 -188 -186 -199 -312 -46 -527 197
-276 552 -391 1475 -478 361 -34 506 -40 1010 -40 524 0 759 11 1080 49 443
54 930 176 1395 350 77 29 150 56 162 59 18 6 32 -7 96 -91 155 -204 182 -217
382 -173 132 29 209 57 236 86 24 25 24 27 27 279 l3 253 38 7 c61 10 101 40
101 75 0 38 -26 61 -93 80 l-52 16 -6 360 c-6 372 -8 392 -49 414 -30 16 -235
33 -330 27 -105 -7 -161 -28 -203 -77 -17 -21 -72 -113 -120 -204 -49 -91 -94
-166 -100 -166 -7 0 -46 9 -87 21 -83 22 -427 83 -560 99 -123 14 -450 38
-630 45 -85 3 -197 8 -247 11 -91 6 -93 6 -112 37 -24 40 -37 103 -61 289 -11
81 -26 161 -34 177 -22 43 -72 80 -116 87 -25 4 -45 15 -54 30 -11 16 -29 25
-61 29 l-45 7 0 473 c0 444 -1 473 -18 488 -22 20 -53 22 -70 5z m50 -503 c3
-437 2 -465 -14 -465 -17 0 -18 29 -18 465 0 404 2 465 15 465 13 0 15 -62 17
-465z m221 -580 c30 -14 67 -60 67 -82 0 -5 -136 -7 -322 -5 -178 2 -395 -1
-483 -6 -88 -5 -162 -8 -164 -6 -2 2 14 21 35 42 34 34 48 41 110 51 187 32
695 36 757 6z m70 -115 c8 -7 45 -284 40 -292 -2 -5 -165 -9 -361 -9 -196 -1
-439 -4 -540 -8 -180 -6 -183 -6 -178 14 3 11 17 79 32 150 14 72 28 132 29
134 2 1 28 7 57 11 56 8 913 8 921 0z m2371 -526 c4 -180 5 -328 3 -331 -2 -2
-55 23 -118 56 -63 32 -171 81 -241 107 -71 26 -128 51 -128 56 0 4 47 104
105 223 l105 215 134 0 133 0 7 -326z m95 315 c19 -7 36 -22 42 -36 5 -13 9
-143 9 -289 l0 -264 -65 0 -65 0 0 178 c0 99 -3 234 -7 300 l-6 122 30 0 c16
0 45 -5 62 -11z m-497 -212 c-98 -202 -105 -214 -129 -209 -13 3 -27 10 -29
17 -5 12 153 309 188 355 17 22 54 49 68 50 3 0 -41 -96 -98 -213z m-1912 85
c0 -10 9 -35 20 -57 11 -21 19 -40 17 -41 -1 -1 -164 2 -362 7 -198 4 -467 8
-597 8 l-237 1 27 44 27 45 115 3 c63 2 312 5 553 6 414 2 437 1 437 -16z
m-734 -156 c26 -46 61 -149 70 -204 l6 -39 -223 -6 c-123 -4 -372 -7 -554 -8
l-330 -1 -16 85 c-9 46 -26 106 -38 132 -12 27 -20 49 -18 51 2 2 355 20 537
27 41 2 181 3 310 3 l234 -1 22 -39z m727 37 l188 -6 28 -56 c26 -50 47 -115
65 -193 l6 -28 -465 0 -465 0 0 33 c0 46 -23 125 -54 186 -14 29 -26 57 -26
62 0 11 445 12 723 2z m662 -29 c138 -9 255 -20 261 -25 23 -19 101 -223 90
-236 -1 -1 -161 1 -357 4 l-355 6 -11 56 c-6 31 -23 86 -37 121 -15 36 -30 72
-32 80 -6 19 76 18 441 -6z m-2487 -61 c26 -68 41 -135 42 -180 l0 -33 -123 0
c-67 0 -194 -5 -282 -10 -88 -6 -182 -11 -209 -13 l-49 -2 -23 85 c-12 47 -27
97 -33 112 -8 20 -7 28 4 32 8 3 106 16 217 30 264 33 260 33 353 34 l80 2 23
-57z m2997 11 c55 -8 109 -17 121 -19 14 -3 30 -26 52 -72 38 -84 45 -128 20
-127 -10 0 -89 1 -177 2 l-159 2 -6 43 c-4 23 -22 77 -41 120 l-34 79 62 -7
c34 -3 107 -13 162 -21z m-3666 -133 c22 -81 26 -121 13 -121 -42 0 -280 -36
-366 -56 l-110 -24 -70 41 -70 42 30 24 c68 56 250 130 434 177 112 29 108 32
139 -83z m4051 62 c178 -39 319 -79 337 -96 7 -7 16 -28 19 -46 l7 -34 -114 6
c-63 4 -178 10 -256 14 l-142 6 -17 56 c-9 30 -24 72 -35 93 -10 20 -19 40
-19 42 0 7 28 2 220 -41z m95 -178 c241 -13 453 -39 544 -65 22 -6 31 -5 31 3
0 7 5 4 10 -5 6 -9 22 -19 38 -23 15 -3 50 -22 77 -43 l50 -37 -140 -6 c-208
-9 -403 -46 -496 -94 -35 -18 -38 -41 -6 -51 12 -4 153 -10 312 -13 232 -5
276 -8 220 -15 -38 -5 -152 -6 -252 -3 -100 3 -185 2 -188 -2 -4 -3 35 -11 87
-16 l93 -10 -215 -52 c-898 -218 -1509 -313 -2275 -353 -484 -25 -937 -8
-1555 59 -137 15 -436 64 -445 72 -2 2 3 49 12 104 11 75 14 154 10 318 l-4
217 26 0 c14 0 103 5 196 11 481 30 3354 33 3870 4z m-4735 -32 c13 -9 46 -29
73 -44 l49 -27 82 18 c44 10 115 23 156 29 41 6 87 14 102 16 17 3 28 -1 32
-11 3 -8 11 -78 17 -155 11 -138 -1 -404 -19 -421 -10 -9 -298 63 -451 113
-68 22 -126 38 -128 35 -15 -15 330 -120 515 -157 l63 -13 -7 -31 c-19 -91
-109 -275 -135 -275 -32 0 -248 80 -323 118 -104 55 -215 153 -276 244 l-41
61 45 46 c79 81 83 142 14 217 l-39 42 62 66 c63 68 80 76 113 51 33 -25 43
-16 11 11 l-30 25 35 29 c41 35 48 36 80 13z m627 -70 c12 -118 7 -347 -10
-452 -9 -51 -17 -95 -19 -96 -4 -4 -77 11 -83 17 -2 2 1 39 7 83 10 79 4 434
-8 487 -7 29 3 35 68 37 l36 1 9 -77z m4987 -118 c112 -24 130 -56 24 -44 -35
4 -188 11 -341 15 -152 4 -275 9 -273 11 2 2 50 10 107 17 145 19 397 19 483
1z m31 -63 l30 -8 -25 -9 c-33 -11 -589 -19 -708 -10 -93 7 -107 17 -49 35 39
12 708 5 752 -8z m-200 -108 c-219 -138 -892 -397 -1360 -523 -142 -37 -518
-121 -548 -121 -9 0 -21 28 -32 76 -17 66 -22 75 -40 70 -41 -10 -265 -36
-435 -50 -325 -28 -682 -39 -1044 -33 -367 6 -575 21 -874 62 -97 14 -187 25
-199 25 -17 0 -35 -18 -69 -70 -41 -62 -51 -70 -78 -70 -28 0 -183 22 -247 36
l-26 5 42 82 c23 45 50 115 60 155 17 71 18 73 44 67 110 -23 592 -83 861
-107 199 -18 1187 -18 1405 0 668 55 1310 164 2040 349 150 38 208 48 345 58
91 7 172 13 180 13 8 1 -3 -10 -25 -24z m117 -191 c2 -120 -1 -231 -6 -246 -8
-27 -50 -57 -80 -57 -20 0 -24 30 -31 225 -3 88 -8 174 -11 190 -5 27 0 34 43
67 84 64 82 69 85 -179z m-131 -182 l4 -135 -85 -22 c-47 -12 -88 -20 -93 -17
-10 6 -207 303 -207 312 0 4 39 24 88 45 48 21 130 59 182 86 l95 48 6 -92 c4
-50 8 -151 10 -225z m-301 -22 c55 -82 100 -152 100 -155 0 -2 -19 -4 -42 -4
-28 0 -51 8 -74 25 -29 22 -135 152 -179 219 l-17 26 43 19 c24 11 50 20 56
20 7 1 58 -67 113 -150z m-4571 125 c23 -5 31 -12 31 -29 0 -48 -84 -249 -115
-275 -9 -8 -28 -10 -53 -5 l-39 6 43 84 c24 47 50 110 59 142 23 82 23 83 33
83 5 0 24 -3 41 -6z m541 -264 c285 -40 486 -52 910 -57 527 -7 1055 18 1354
63 55 8 103 11 106 7 8 -9 30 -94 30 -116 0 -17 -63 -28 -352 -57 -282 -29
-551 -40 -968 -40 -376 0 -595 9 -855 35 -247 25 -498 54 -502 59 -2 2 15 33
39 70 37 59 45 66 68 61 14 -2 90 -14 170 -25z"/>
<path d="M2909 3251 c-84 -85 36 -216 126 -138 18 15 28 36 32 64 5 37 2 45
-25 73 -42 41 -92 42 -133 1z m120 -17 c12 -15 21 -37 21 -49 0 -38 -37 -75
-76 -75 -45 0 -74 29 -74 75 0 72 86 104 129 49z"/>
<path d="M3391 3266 c-87 -48 -50 -186 49 -186 51 0 100 49 100 99 0 74 -84
123 -149 87z m104 -31 c16 -15 25 -36 25 -55 0 -19 -9 -40 -25 -55 -15 -16
-36 -25 -55 -25 -19 0 -40 9 -55 25 -16 15 -25 36 -25 55 0 19 9 40 25 55 15
16 36 25 55 25 19 0 40 -9 55 -25z"/>
<path d="M1509 2321 c-43 -43 -41 -101 5 -147 26 -26 42 -34 71 -34 29 0 45 8
71 34 71 71 29 176 -71 176 -38 0 -52 -5 -76 -29z m139 -17 c33 -37 30 -86 -9
-118 -33 -28 -59 -32 -92 -14 -32 17 -46 39 -47 73 -1 84 92 121 148 59z"/>
<path d="M1540 2300 c-26 -26 -26 -81 -2 -103 29 -27 77 -22 102 10 52 66 -41
152 -100 93z"/>
</g>
</svg>
