<?xml version="1.0" standalone="no"?>
<!DOCTYPE svg PUBLIC "-//W3C//DTD SVG 20010904//EN"
 "http://www.w3.org/TR/2001/REC-SVG-20010904/DTD/svg10.dtd">
<svg version="1.0" xmlns="http://www.w3.org/2000/svg"
 width="1500.000000pt" height="1500.000000pt" viewBox="0 0 1500.000000 1500.000000"
 preserveAspectRatio="xMidYMid meet">
<metadata>
Created by potrace 1.16, written by Peter Selinger 2001-2019
</metadata>
<g transform="translate(0.000000,1500.000000) scale(0.100000,-0.100000)"
fill="none" stroke="#000000">
<path d="M4295 12875 c-38 -7 -113 -24 -165 -38 -52 -14 -129 -29 -170 -32
-129 -12 -181 -49 -200 -142 -25 -119 17 -198 120 -226 30 -8 93 -22 139 -30
115 -22 202 -66 276 -141 98 -100 145 -216 145 -358 0 -90 12 -85 -133 -62
-56 9 -165 17 -242 17 -157 1 -234 -14 -345 -66 -35 -16 -100 -36 -145 -44
-263 -45 -505 -169 -671 -344 -90 -95 -141 -170 -214 -311 l-65 -126 -89 80
c-48 44 -120 100 -159 125 -104 67 -167 131 -291 298 -181 243 -305 385 -371
424 -108 65 -219 88 -288 58 l-28 -12 69 -57 c140 -115 170 -193 182 -483 14
-335 39 -418 200 -690 118 -199 215 -339 401 -580 197 -254 239 -315 263 -379
18 -48 18 -49 0 -63 -17 -13 -26 -7 -102 74 -46 48 -116 129 -156 178 -120
146 -186 198 -326 250 -147 55 -232 117 -329 239 -91 114 -190 165 -360 185
-51 7 -105 18 -120 25 -38 20 -77 65 -95 110 -20 48 -34 39 -47 -29 -17 -93
17 -172 112 -261 167 -155 260 -291 336 -494 65 -172 121 -234 393 -439 219
-165 540 -422 540 -432 0 -13 -43 -39 -66 -39 -12 0 -41 17 -65 38 -73 64
-121 92 -158 92 -33 0 -33 -1 -27 -32 4 -23 30 -56 78 -105 61 -62 70 -74 58
-87 -21 -26 -47 -18 -82 25 -108 134 -173 185 -318 249 -220 96 -289 152 -551
441 -84 93 -157 142 -275 185 -54 20 -82 25 -109 20 -34 -7 -36 -9 -23 -28 8
-11 36 -29 64 -39 62 -23 126 -77 158 -132 14 -23 39 -96 56 -162 63 -244 137
-432 213 -545 47 -69 140 -166 195 -201 24 -15 39 -29 35 -32 -4 -3 -33 -8
-63 -12 -78 -10 -85 -16 -60 -47 40 -51 131 -80 197 -62 l22 6 -29 43 c-17 24
-30 46 -30 50 0 3 65 -47 144 -111 213 -173 194 -175 -191 -27 l-278 108 -95
0 c-102 0 -143 -13 -195 -61 -22 -20 -25 -27 -15 -39 7 -8 22 -15 33 -15 48 0
109 -44 213 -156 130 -139 197 -194 349 -283 96 -57 113 -70 96 -76 -12 -3
-84 -10 -161 -14 -156 -8 -179 -17 -213 -82 -15 -29 -18 -53 -15 -154 5 -135
11 -153 72 -206 l41 -37 2 -1157 c2 -636 -1 -1180 -5 -1208 l-7 -51 -67 -11
c-37 -6 -80 -20 -95 -31 -54 -40 -58 -61 -56 -271 2 -209 11 -253 64 -302 58
-54 101 -60 482 -60 209 -1 267 -4 265 -14 -4 -22 52 -126 83 -151 17 -14 63
-35 102 -47 40 -11 78 -22 85 -25 18 -5 16 -120 -4 -152 -9 -15 -33 -39 -54
-54 -54 -37 -59 -72 -31 -212 40 -200 84 -371 100 -390 20 -24 72 -46 107 -46
23 0 25 -3 20 -23 -4 -12 -10 -49 -13 -82 -5 -55 -2 -70 42 -175 47 -116 95
-203 138 -251 13 -14 59 -54 103 -89 43 -34 137 -113 208 -174 l129 -111 -205
-7 c-188 -6 -342 -24 -401 -48 -19 -8 -18 -9 13 -9 286 -7 825 -38 1095 -64
324 -31 618 -29 985 7 347 35 732 45 905 25 193 -22 429 -17 830 20 198 18
370 36 383 41 34 15 29 54 -10 78 -46 28 -93 41 -210 60 -57 9 -103 22 -103
27 0 11 -2 11 297 51 216 29 241 35 221 55 -10 10 -218 2 -400 -17 -29 -3 -53
-2 -53 2 0 3 30 40 67 83 100 113 98 110 86 122 -7 7 -72 -29 -203 -111 -106
-66 -194 -119 -196 -117 -2 2 41 109 96 237 56 128 99 234 98 235 -2 1 -113
-95 -248 -215 l-245 -218 -13 32 c-19 43 -19 43 -52 11 -16 -16 -32 -26 -35
-24 -2 3 54 137 125 299 71 161 127 297 124 301 -3 5 -9 9 -14 9 -4 0 -71 -53
-147 -117 -266 -224 -332 -273 -451 -331 -169 -82 -268 -181 -294 -292 -20
-87 -4 -85 122 20 61 51 114 90 117 86 3 -3 -9 -44 -27 -90 -41 -107 -32 -130
32 -83 31 22 301 345 350 419 35 52 36 54 44 35 3 -9 -36 -115 -90 -243 -53
-125 -95 -229 -93 -230 1 -2 22 2 46 8 34 9 45 8 51 -3 5 -7 6 -17 4 -21 -3
-4 18 -8 47 -8 79 0 130 31 256 152 61 59 114 108 117 108 3 0 -22 -56 -56
-125 -44 -87 -59 -128 -52 -135 8 -8 35 0 91 24 l81 34 -2 -31 -1 -32 160 -5
c88 -3 155 -7 148 -8 -323 -56 -709 -69 -1103 -37 -118 9 -293 20 -387 24
l-173 6 113 75 c143 95 248 198 283 276 34 75 58 102 106 114 54 15 80 43 141
150 178 313 186 343 111 433 -34 41 -33 100 2 124 53 36 83 71 93 109 5 21 18
113 28 204 l18 165 45 2 c220 12 340 58 547 207 18 13 53 27 79 31 25 3 393 4
818 0 l771 -7 120 -31 c108 -28 139 -32 320 -37 220 -6 202 -1 335 -85 86 -55
196 -86 328 -92 71 -4 112 -10 112 -17 0 -38 31 -414 39 -468 16 -111 50 -154
131 -165 39 -5 41 -8 35 -31 -3 -14 -16 -39 -27 -55 -31 -44 -27 -98 15 -189
40 -86 170 -258 270 -358 70 -70 91 -107 81 -146 -3 -13 -8 -24 -9 -24 -2 0
-39 25 -82 56 -74 54 -279 161 -289 151 -2 -2 37 -73 88 -156 73 -121 89 -154
78 -161 -9 -6 -22 -3 -36 8 -13 9 -102 77 -199 151 -96 74 -178 131 -182 127
-3 -3 6 -28 20 -55 15 -27 27 -54 27 -60 0 -7 -95 -12 -317 -13 -275 -3 -313
-5 -278 -16 22 -7 126 -17 230 -23 409 -21 429 -26 423 -98 -3 -36 -3 -36 -63
-43 -32 -4 -82 -15 -111 -23 -52 -15 -146 -72 -148 -90 -1 -6 55 -13 129 -16
72 -4 177 -13 235 -22 208 -31 382 -40 687 -34 174 3 348 12 418 21 177 23
197 22 216 -12 l16 -29 514 -6 c283 -3 559 -2 614 3 124 11 600 5 922 -10 364
-18 760 3 1222 66 101 13 187 27 191 29 13 8 190 8 328 0 114 -7 132 -6 132 8
0 44 -125 81 -508 148 l-301 53 84 88 c77 79 102 118 75 118 -5 0 -102 -46
-215 -101 -190 -94 -234 -110 -208 -77 140 180 273 359 273 367 0 6 -5 11 -11
11 -6 0 -134 -84 -286 -186 -249 -169 -277 -185 -291 -171 -14 15 0 42 151
294 91 152 164 279 162 281 -8 8 -232 -146 -323 -222 -86 -72 -196 -188 -249
-261 -28 -40 -34 -31 -16 28 11 38 31 66 98 132 46 47 89 94 96 106 14 27 15
27 -119 -69 -56 -41 -104 -73 -106 -71 -2 2 23 114 55 249 32 135 58 250 59
257 1 27 -57 -11 -106 -70 -28 -34 -112 -136 -186 -227 -165 -201 -190 -225
-256 -250 -29 -11 -52 -18 -52 -15 0 3 15 25 34 49 61 81 68 137 24 196 -19
26 -20 31 -6 52 8 13 25 49 37 80 26 64 78 118 115 118 40 0 71 49 94 148 50
214 94 464 88 497 -4 21 -19 43 -39 59 -87 70 -89 86 -9 86 60 0 142 13 387
60 161 30 224 36 490 45 299 11 361 22 413 77 37 41 44 83 49 309 5 203 4 219
-15 263 -30 68 -62 79 -240 84 -128 4 -143 6 -137 21 4 9 21 72 38 141 25 100
32 146 32 230 0 99 -2 108 -32 167 -18 34 -33 76 -33 94 0 17 17 68 37 113 51
114 57 203 18 314 l-28 80 15 132 c13 116 13 144 0 224 -12 76 -12 106 -2 182
17 124 2 175 -75 264 -37 43 -60 80 -70 114 -8 28 -31 110 -51 181 -19 72 -49
155 -65 186 -35 64 -115 150 -175 185 -56 33 -307 120 -429 149 -109 26 -462
72 -1044 135 -235 26 -385 46 -402 56 -36 18 -48 41 -93 184 -20 63 -120 366
-221 673 -102 306 -185 566 -185 576 0 16 11 22 55 31 114 24 144 83 100 196
-92 233 -195 371 -308 413 -123 45 -151 46 -1132 46 -959 0 -997 -1 -1168 -41
-186 -44 -350 -235 -381 -445 -15 -97 -50 -177 -70 -160 -19 16 -40 180 -33
253 6 59 97 389 119 433 19 37 53 67 122 108 67 38 69 41 45 50 -13 6 -62 11
-109 11 -134 0 -172 -25 -328 -217 -70 -87 -86 -97 -110 -73 -15 15 -14 21 17
84 48 98 128 215 209 310 94 108 132 180 185 342 51 156 79 216 152 320 29 41
59 89 67 105 18 35 33 125 21 125 -4 0 -39 -27 -78 -60 -38 -34 -81 -64 -95
-67 -110 -27 -271 -123 -400 -238 -41 -36 -97 -78 -125 -92 -151 -77 -261
-173 -314 -273 -42 -79 -149 -242 -169 -257 -22 -18 -42 -16 -42 4 0 9 21 74
48 145 46 125 47 127 77 126 45 -2 71 16 93 64 22 48 36 108 24 108 -4 0 -22
-4 -40 -9 -18 -6 -32 -7 -30 -3 102 193 129 289 135 477 4 124 -1 181 -41 496
-46 362 -79 519 -110 519 -22 0 -38 -34 -129 -266 -134 -343 -186 -457 -294
-644 -69 -121 -103 -195 -123 -274 l-17 -70 -81 160 c-161 317 -293 447 -573
561 -279 114 -514 179 -676 188 -59 3 -136 8 -170 11 l-63 6 -14 51 c-8 29
-56 212 -107 407 -50 195 -100 378 -110 405 -26 69 -69 118 -131 149 -46 23
-63 26 -152 25 -56 -1 -132 -7 -171 -14z m240 -150 c55 -32 74 -64 123 -205
54 -156 104 -355 167 -665 30 -143 72 -325 95 -405 51 -182 46 -229 -19 -195
-23 11 -34 28 -46 68 -22 74 -65 294 -65 333 0 18 -3 35 -7 37 -5 3 -7 -102
-5 -234 2 -147 0 -239 -6 -239 -5 0 -18 17 -28 38 -17 32 -19 67 -22 275 -3
180 -6 237 -16 237 -8 0 -18 -47 -30 -152 -23 -203 -43 -296 -69 -335 -36 -53
-75 -55 -96 -4 -10 23 -7 42 18 122 59 183 74 265 74 399 0 153 -24 262 -87
394 -59 124 -121 204 -211 272 -41 31 -75 59 -75 61 0 3 35 2 78 -2 69 -6 76
-5 62 9 -8 8 -33 24 -55 35 l-40 19 37 7 c63 12 136 -12 189 -61 54 -52 83
-110 180 -367 37 -100 73 -183 80 -186 7 -2 10 2 8 10 -3 8 -45 157 -94 332
-61 217 -94 317 -103 317 -11 0 -12 -11 -7 -51 l7 -51 -53 40 c-123 91 -188
100 -379 53 -68 -17 -138 -31 -155 -31 -75 0 -101 30 -42 49 17 6 95 24 172
41 77 16 172 39 210 50 86 25 151 20 210 -15z m-364 -1024 c74 -28 126 -68
155 -117 33 -56 47 -104 30 -104 -12 0 -485 196 -494 204 -6 7 33 25 75 36 54
13 173 4 234 -19z m2922 -141 c20 -74 41 -169 48 -210 17 -106 14 -271 -5
-354 -29 -121 -105 -244 -196 -316 -67 -53 -65 -24 3 58 58 70 151 205 164
238 14 36 -21 6 -78 -66 -35 -44 -65 -78 -67 -76 -8 8 19 164 39 223 11 34 33
80 50 102 16 23 29 42 29 44 0 2 -16 1 -36 -1 l-36 -4 6 38 c3 22 11 137 17
257 7 120 16 214 19 210 4 -4 24 -69 43 -143z m-1735 125 c29 -9 52 -20 52
-25 0 -5 -55 -46 -121 -91 l-121 -81 4 41 c2 23 1 41 -2 41 -3 0 -25 -14 -49
-31 -32 -24 -45 -29 -54 -20 -18 18 29 98 75 128 44 30 103 52 139 53 14 0 49
-7 77 -15z m-3538 -133 c40 -100 122 -363 115 -370 -2 -2 -21 6 -44 17 -22 12
-43 21 -45 21 -3 0 41 -64 98 -142 106 -146 115 -171 58 -160 -33 6 -50 28
178 -237 243 -283 283 -331 278 -336 -8 -8 -253 77 -277 97 -29 22 -60 67
-197 285 -181 288 -211 396 -229 828 -7 166 -2 165 65 -3z m2113 63 c80 -17
159 -52 202 -89 l30 -27 -50 25 c-117 56 -189 71 -350 71 -115 0 -176 -6 -264
-23 -62 -13 -115 -21 -117 -19 -6 6 116 46 186 61 86 19 277 19 363 1z m3008
-370 c-37 -267 -58 -385 -66 -385 -18 0 -22 24 -24 141 -2 113 -8 152 -22 143
-5 -3 -9 -118 -9 -255 0 -233 -1 -250 -17 -247 -16 3 -18 20 -21 156 -2 126
-5 152 -17 152 -13 0 -15 -34 -15 -229 l0 -228 -52 -7 c-29 -3 -75 -5 -103 -5
l-50 1 52 24 c60 29 55 11 78 274 27 307 19 280 170 572 74 143 135 264 135
269 0 5 4 9 8 9 4 0 -17 -173 -47 -385z m-1193 300 c173 -41 394 -191 507
-345 40 -54 98 -167 93 -181 -2 -5 -54 45 -117 111 -62 66 -118 120 -123 120
-25 0 -15 -34 26 -90 170 -231 253 -442 280 -709 9 -83 22 -166 31 -187 28
-67 15 -141 -29 -162 -11 -6 -55 -13 -96 -15 -41 -3 -98 -12 -125 -21 -63 -19
-160 -78 -221 -134 -76 -68 -63 -39 17 40 89 88 156 123 287 150 103 21 172
50 172 73 0 9 -13 15 -37 17 l-38 3 -20 197 c-11 108 -24 200 -28 204 -12 12
-27 -16 -27 -51 -1 -66 -17 -50 -95 97 -143 270 -246 411 -365 503 -60 46
-167 104 -232 125 -72 22 -48 35 86 44 44 3 82 9 85 12 27 27 -194 33 -310 9
-40 -9 -74 -14 -76 -12 -3 3 50 49 96 84 2 2 2 5 -1 8 -3 3 -52 -13 -108 -35
-56 -22 -107 -39 -112 -38 -16 6 59 84 114 119 114 73 236 95 366 64z m-3778
-96 c34 -50 84 -123 111 -164 63 -93 147 -171 236 -218 125 -65 172 -141 193
-312 7 -54 0 -141 -16 -219 l-6 -28 -19 28 c-28 42 -38 86 -49 202 -14 150
-26 158 -35 21 -4 -63 -11 -122 -14 -132 -6 -17 -8 -17 -33 3 -15 11 -39 45
-53 75 -23 46 -28 74 -35 187 -5 73 -13 144 -18 158 -10 26 -13 6 -28 -173 -6
-62 -9 -75 -20 -66 -29 24 -117 225 -178 406 -36 105 -78 218 -95 251 -28 55
-30 72 -10 72 4 0 35 -41 69 -91z m1833 16 c77 -16 178 -59 202 -85 19 -21 15
-23 -57 -36 -68 -12 -40 -23 52 -20 82 3 113 -4 96 -21 -3 -4 -33 -10 -67 -15
-156 -21 -272 -119 -431 -363 -209 -321 -321 -674 -349 -1095 -14 -218 -2
-395 29 -421 20 -16 128 -36 139 -25 3 2 -3 58 -12 123 -56 380 26 881 205
1250 72 151 115 215 186 285 111 108 229 154 379 146 84 -5 103 -9 184 -48 50
-24 91 -46 91 -50 0 -4 -12 -17 -26 -31 -72 -67 -160 -212 -209 -344 -23 -62
-60 -233 -52 -241 2 -2 14 24 27 58 39 108 111 238 162 291 32 34 48 45 45 32
-3 -11 -28 -101 -55 -200 -144 -520 -201 -1042 -162 -1484 6 -63 8 -116 6
-119 -7 -6 -328 94 -384 120 -56 27 -123 91 -151 145 -11 22 -42 115 -70 208
-28 93 -54 171 -58 174 -13 12 7 -170 27 -250 40 -154 78 -238 135 -295 46
-46 61 -54 155 -83 212 -66 325 -139 406 -265 27 -41 52 -75 56 -75 3 -1 19
32 35 71 98 252 280 390 600 453 194 39 226 65 232 196 1 43 7 79 12 79 9 0
32 -40 48 -83 18 -46 -57 -165 -118 -188 -14 -6 -75 -19 -135 -29 -327 -56
-498 -190 -630 -492 -14 -32 -29 -58 -34 -58 -5 0 -38 34 -72 76 -103 124
-243 219 -375 254 -108 29 -162 56 -215 110 -89 89 -124 203 -155 505 -9 88
-20 169 -24 180 -5 11 -8 -91 -7 -227 1 -137 -1 -248 -4 -248 -3 0 -34 9 -68
20 -35 11 -76 20 -90 20 -47 -1 -105 -35 -167 -99 -33 -33 -62 -61 -65 -61
-13 0 -101 184 -124 260 -64 214 -91 424 -83 640 7 176 28 297 81 455 59 177
188 410 285 518 18 21 32 40 29 42 -2 2 -22 -7 -44 -22 -166 -110 -275 -263
-396 -553 -41 -101 -47 -110 -48 -77 0 20 -4 37 -10 37 -7 0 -10 -155 -11
-442 l-1 -443 -25 55 c-70 153 -103 404 -84 638 32 400 142 666 370 893 137
137 278 214 461 253 86 19 248 19 333 1z m1777 -311 c80 -18 190 -71 251 -121
96 -78 232 -301 287 -468 50 -151 69 -323 40 -366 -9 -14 -51 -42 -94 -64 -64
-31 -99 -58 -188 -147 -60 -59 -111 -108 -114 -108 -3 0 -16 10 -29 22 l-23
21 0 -156 c0 -89 -4 -157 -9 -157 -15 0 -38 85 -61 220 -55 324 -168 678 -320
997 -61 127 -65 140 -43 125 60 -39 135 -149 224 -327 50 -99 87 -169 83 -155
-23 88 -81 256 -110 318 -65 143 -137 224 -257 292 -31 17 -57 33 -57 35 0 2
26 13 58 25 104 40 225 44 362 14z m-662 -109 c119 -36 258 -159 336 -298 83
-148 179 -473 226 -764 12 -75 52 -153 88 -172 19 -10 68 -108 59 -118 -3 -2
-26 23 -52 57 -58 76 -112 116 -184 136 -70 21 -146 13 -217 -21 -65 -32 -141
-113 -150 -161 -6 -31 -2 -39 40 -84 27 -29 46 -59 46 -72 0 -40 -44 -150 -71
-179 -24 -26 -34 -29 -86 -29 -115 0 -245 -46 -389 -136 -138 -85 -183 -92
-210 -28 -49 116 -79 526 -55 755 21 204 109 597 170 760 29 76 84 165 156
249 95 112 174 140 293 105z m2933 -241 c-64 -296 -217 -488 -473 -594 -63
-27 -68 -30 -33 -26 l40 5 -50 -24 c-79 -38 -150 -49 -212 -35 -29 6 -55 15
-57 18 -6 10 63 122 74 122 8 0 6 -40 -5 -92 -2 -10 0 -18 4 -18 5 0 88 44
186 97 157 85 176 98 157 106 -12 6 -22 13 -22 17 0 3 36 21 80 39 44 18 80
36 80 41 0 5 -16 10 -35 12 l-35 3 120 154 c161 207 145 220 -38 30 -76 -79
-156 -164 -178 -188 l-39 -44 -5 49 -5 49 -27 -55 c-15 -30 -47 -80 -71 -110
-45 -56 -137 -130 -137 -110 0 22 100 222 130 260 41 52 434 346 545 408 29
16 30 -6 6 -114z m-6445 -369 c37 -16 84 -56 165 -137 112 -113 116 -115 254
-182 157 -76 243 -137 360 -256 59 -60 331 -296 434 -377 3 -2 -2 -11 -11 -19
-14 -14 -28 -7 -149 75 -123 85 -134 90 -144 72 -9 -18 -16 -15 -103 38 -187
113 -292 213 -352 336 l-30 60 7 -60 c7 -69 21 -73 -112 35 -179 147 -182 149
-158 114 25 -35 253 -287 265 -292 4 -2 8 -8 8 -13 0 -4 -36 5 -81 21 -44 17
-85 30 -90 30 -34 0 19 -30 226 -130 129 -63 235 -120 235 -127 0 -9 -16 -13
-55 -13 -30 0 -55 -4 -55 -9 0 -7 185 -55 298 -77 17 -4 32 -13 32 -20 0 -11
-17 -14 -69 -14 -39 0 -73 -4 -76 -10 -3 -5 0 -10 7 -11 7 -1 28 -2 47 -4 189
-16 315 -61 393 -142 l33 -34 -65 24 c-144 55 -178 65 -255 77 -208 31 -426
155 -663 376 -81 75 -86 83 -153 223 -38 80 -82 173 -99 205 -16 33 -28 61
-27 62 2 2 29 -18 61 -43 l58 -46 -53 77 c-48 72 -53 76 -69 61 -17 -15 -21
-13 -58 42 -22 32 -47 65 -56 73 -10 7 -22 22 -27 33 -10 18 -8 19 33 12 23
-4 66 -17 94 -30z m5271 -80 c53 -37 117 -171 128 -270 6 -55 5 -58 -9 -41
-18 22 -18 22 -36 -22 -7 -18 -14 -31 -17 -29 -2 2 -10 41 -18 87 -8 46 -17
85 -20 88 -3 3 -5 -28 -5 -69 0 -51 -3 -69 -10 -59 -5 8 -9 56 -9 105 1 103
-9 136 -52 176 -17 16 -28 33 -24 39 9 15 47 12 72 -5z m603 -401 c126 -42
263 -164 323 -288 53 -108 71 -253 51 -407 l-7 -54 -23 101 c-43 193 -109 328
-217 441 -74 79 -94 84 -38 10 86 -115 142 -293 156 -502 11 -156 -38 -332
-119 -430 -22 -27 -18 -9 38 187 35 119 61 220 58 223 -16 15 -30 0 -40 -45
-17 -72 -63 -168 -111 -227 -54 -69 -71 -69 -71 -2 0 66 -44 395 -69 515 -28
133 -61 194 -163 297 -85 85 -134 144 -127 152 2 2 24 15 49 30 42 24 51 26
150 22 67 -3 125 -11 160 -23z m-955 -2 c-6 -5 -40 -29 -76 -55 -84 -58 -180
-162 -254 -273 -68 -102 -85 -152 -85 -245 0 -37 -3 -74 -6 -83 -9 -24 -40
-19 -63 10 -17 22 -21 41 -21 104 0 143 52 260 170 379 88 90 142 128 213 152
53 19 139 26 122 11z m184 -19 l22 -18 -86 -115 c-47 -63 -106 -155 -130 -205
-51 -106 -131 -343 -118 -355 8 -8 112 -50 124 -50 4 0 9 69 12 153 5 163 18
222 74 316 58 100 153 176 211 169 37 -4 38 -31 13 -226 -24 -189 -35 -312
-27 -312 9 0 25 70 51 221 32 189 63 279 95 279 14 0 24 -35 58 -206 22 -113
43 -209 47 -212 20 -21 19 37 -6 213 -15 110 -28 214 -28 232 l-1 31 51 -13
c70 -19 91 -35 153 -118 99 -131 123 -202 147 -417 29 -272 -44 -560 -194
-764 l-51 -68 -41 124 c-97 289 -178 393 -389 500 -95 48 -280 110 -397 134
l-86 18 4 110 c5 143 26 239 69 325 53 105 158 195 294 251 57 24 102 25 129
3z m3801 -59 c163 -9 255 -48 314 -132 30 -44 66 -132 66 -162 0 -20 -9 -20
-1222 -20 -672 0 -1219 2 -1216 6 3 3 111 12 239 21 253 18 1248 24 1794 12
154 -4 244 -3 200 1 -587 59 -1632 61 -2296 6 -76 -6 -139 -7 -139 -3 0 19 74
118 120 161 28 26 70 56 93 66 38 17 190 43 307 54 64 5 1625 -3 1740 -10z
m-4954 -203 c21 -15 62 -52 90 -82 59 -63 87 -129 163 -383 45 -148 53 -206
31 -206 -18 0 -60 64 -79 122 -36 106 -41 103 -41 -19 0 -89 -3 -113 -14 -113
-15 0 -21 34 -32 185 -7 92 -22 95 -23 5 -1 -63 -17 -114 -43 -136 l-21 -19 7
35 c21 109 28 184 24 270 -4 88 -8 103 -52 201 -27 59 -59 118 -72 132 -13 15
-24 29 -24 32 0 15 52 1 86 -24z m-3882 -395 c63 -45 225 -130 306 -160 67
-25 132 -86 206 -193 48 -68 63 -98 56 -105 -16 -16 -90 48 -148 127 -26 36
-51 65 -56 65 -10 0 -11 5 7 -60 8 -30 15 -56 15 -58 0 -1 -13 4 -28 12 -35
18 -95 83 -118 128 -9 18 -31 53 -48 77 l-31 44 -5 -47 -5 -46 -105 80 c-57
44 -108 80 -112 80 -27 0 8 -39 127 -145 l136 -120 -26 -21 -26 -21 85 -32
c49 -18 112 -52 147 -78 33 -25 77 -52 97 -58 48 -17 50 -28 7 -48 -55 -26
-81 -21 -174 35 -307 184 -446 365 -535 697 l-25 93 96 -101 c52 -56 123 -121
157 -145z m8527 164 c347 0 348 0 374 -22 19 -18 59 -118 176 -443 351 -977
420 -1179 420 -1225 0 -25 -14 -103 -32 -175 l-31 -130 -5 -411 -5 -411 -140
-7 c-592 -28 -1034 -217 -1409 -603 -158 -163 -261 -312 -364 -525 -121 -253
-188 -490 -250 -884 l-5 -31 -273 -8 c-149 -4 -295 -8 -323 -9 -63 -1 -89 19
-103 78 l-9 41 -1 -51 c-1 -37 4 -58 18 -75 22 -27 0 -26 421 -20 203 3 250
-1 250 -19 0 -12 -78 -19 -310 -27 -339 -13 -374 -11 -407 13 -15 11 -37 38
-48 60 -20 39 -20 62 -23 1924 -3 2070 5 2737 31 2808 45 118 93 143 297 153
80 4 428 5 774 3 346 -2 786 -4 977 -4z m821 -805 c142 -429 258 -786 258
-792 0 -19 -17 -16 -25 5 -4 9 -71 206 -150 437 -242 711 -302 886 -343 1007
-22 64 -38 119 -34 122 25 26 46 -29 294 -779z m-8376 674 c127 -41 127 -41
104 -59 -23 -17 -21 -18 93 -25 64 -4 117 -11 117 -16 0 -15 -108 -41 -169
-40 -69 0 -116 18 -183 68 -51 39 -116 113 -99 113 6 0 67 -19 137 -41z m901
-47 c9 -6 0 -27 -34 -77 -57 -85 -83 -151 -83 -209 0 -24 -3 -71 -6 -105 l-7
-61 -60 0 -60 0 7 71 c19 210 161 433 243 381z m1821 -186 c28 -16 52 -32 52
-36 0 -4 -38 -32 -85 -64 -281 -187 -424 -428 -442 -744 -8 -148 -20 -146 -92
15 -30 67 -58 120 -63 117 -4 -3 -8 -31 -8 -62 0 -48 7 -71 46 -145 42 -83 43
-88 22 -82 -42 12 -73 41 -98 91 -22 45 -24 60 -24 179 0 139 14 208 60 313
32 73 120 189 179 238 26 21 42 40 37 42 -22 7 -104 -39 -160 -90 -31 -29 -70
-64 -86 -78 l-29 -25 28 50 c86 153 193 243 355 297 42 14 79 17 155 15 88 -2
106 -6 153 -31z m-2237 -45 c22 -7 40 -21 47 -36 10 -22 9 -25 -14 -31 -14 -4
-44 1 -70 11 -40 15 -58 16 -159 6 -142 -14 -190 -29 -95 -30 71 -1 178 -25
197 -44 10 -9 -17 -12 -120 -13 -217 -2 -326 -43 -457 -174 -118 -117 -181
-260 -196 -442 -9 -101 -29 -106 -40 -10 -13 104 -8 163 21 248 85 254 298
457 540 518 69 18 286 16 346 -3z m3323 3 c33 -8 104 -36 156 -62 153 -74 233
-171 296 -355 56 -163 78 -333 53 -417 l-12 -45 -8 45 c-4 25 -13 87 -19 138
-20 158 -70 297 -141 398 -36 49 -118 116 -163 134 l-29 11 25 -33 c105 -138
180 -271 220 -393 31 -95 32 -241 2 -298 l-20 -39 -12 69 c-6 37 -17 98 -23
136 -7 40 -16 67 -23 67 -8 0 -11 -10 -8 -29 6 -44 -16 -47 -34 -4 -173 399
-299 528 -603 619 -11 4 -8 9 10 22 72 50 215 66 333 36z m-2513 -118 c284
-61 508 -282 538 -533 4 -35 5 -63 1 -63 -3 0 -12 21 -19 48 -26 86 -120 257
-177 320 -132 146 -325 216 -531 194 -40 -5 -73 -7 -73 -5 0 7 74 36 110 43
54 12 80 11 151 -4z m1579 -20 c22 -7 34 -17 32 -26 -2 -8 -38 -72 -79 -143
-48 -81 -72 -132 -66 -138 6 -6 29 19 61 65 53 75 69 92 78 83 3 -3 -6 -74
-21 -159 -14 -84 -37 -224 -50 -311 -23 -158 -32 -182 -70 -197 -32 -12 -303
9 -336 26 -50 25 -64 66 -64 184 1 117 18 190 70 306 61 135 152 246 245 298
51 29 138 34 200 12z m692 -26 c112 -42 239 -150 316 -269 62 -97 123 -274
138 -407 11 -90 -22 -117 -158 -130 -133 -12 -140 -5 -182 167 -14 58 -46 165
-71 239 -25 74 -45 138 -45 143 0 5 16 -5 36 -23 20 -17 38 -29 41 -26 7 6
-24 42 -166 195 -58 62 -105 116 -104 120 3 9 74 18 113 13 19 -3 56 -13 82
-22z m-3227 -1 c36 -10 38 -13 21 -23 -10 -6 -48 -33 -85 -61 -197 -147 -328
-362 -374 -611 -19 -102 -37 -97 -67 21 -15 58 -29 95 -37 95 -18 0 -17 -10
11 -125 14 -55 23 -102 20 -104 -10 -10 -55 21 -69 49 -27 52 -40 189 -26 287
26 183 105 317 240 404 98 63 269 95 366 68z m2911 -18 c98 -70 199 -200 249
-320 61 -147 93 -357 61 -405 -34 -53 -58 -57 -330 -63 -308 -7 -294 -13 -307
123 -23 246 58 568 168 664 46 41 104 41 159 1z m2034 16 c0 -6 -33 -62 -73
-122 -40 -61 -95 -151 -121 -201 -27 -50 -77 -131 -113 -179 -59 -80 -64 -90
-58 -124 10 -60 -53 -135 -125 -150 -40 -8 -110 -2 -110 10 0 4 38 39 84 78
81 68 116 116 116 161 0 21 -2 20 -39 -9 -24 -19 -42 -27 -46 -21 -8 13 86
149 181 262 41 47 74 90 74 93 0 9 -97 -71 -168 -139 -59 -56 -128 -147 -162
-216 -36 -72 -71 -110 -90 -100 -13 7 -29 -6 -74 -60 -37 -46 -61 -67 -71 -64
-21 9 -20 14 28 111 38 80 55 99 192 234 178 175 324 299 455 385 96 64 120
74 120 51z m-3968 -37 c104 -32 214 -114 298 -222 32 -41 86 -166 99 -226 23
-112 9 -216 -37 -265 -25 -26 -96 -56 -107 -45 -3 3 -24 74 -46 158 -79 303
-122 371 -349 541 l-85 64 35 6 c68 12 129 9 192 -11z m-849 -75 c-49 -39
-129 -146 -163 -216 -29 -62 -65 -198 -58 -220 2 -6 30 54 62 133 91 219 127
266 212 276 47 5 151 -14 160 -30 3 -5 -10 -26 -28 -46 -115 -127 -172 -268
-198 -488 -15 -132 -24 -144 -100 -144 -94 0 -262 21 -296 36 -48 23 -56 51
-44 152 29 255 154 444 360 541 36 17 79 31 95 31 l30 0 -32 -25z m607 -26
c67 -15 176 -76 226 -127 123 -123 170 -360 100 -504 l-26 -53 6 70 c3 39 8
80 11 93 3 14 1 22 -8 22 -8 0 -27 -34 -43 -78 -20 -51 -31 -70 -34 -57 -2 11
-18 63 -34 115 -65 204 -166 361 -310 481 -56 46 -57 48 -30 51 33 5 83 0 142
-13z m-110 -108 c129 -109 240 -373 211 -502 -20 -88 -47 -95 -351 -98 -261
-2 -267 4 -257 284 7 195 16 223 99 300 32 30 63 55 68 55 4 0 11 -17 14 -37
6 -36 66 -483 66 -490 0 -2 7 -3 15 -3 19 0 19 103 1 345 -13 168 -12 194 8
207 15 10 76 -19 126 -61z m-1999 -102 c263 -91 344 -125 385 -161 39 -34 67
-101 62 -149 l-3 -34 -55 80 -55 80 -65 7 c-74 8 -123 25 -233 80 -70 35 -107
42 -92 18 3 -4 88 -55 190 -112 101 -56 185 -109 185 -115 0 -19 -12 -16 -101
18 -103 40 -213 113 -303 203 -79 79 -143 156 -128 156 5 0 101 -32 213 -71z
m6309 -564 c12 -15 28 -134 19 -135 -21 -3 -762 -12 -1634 -20 -588 -5 -1279
-12 -1535 -15 -256 -3 -982 -10 -1615 -15 -632 -6 -1239 -12 -1347 -14 l-198
-4 0 79 0 79 43 0 c23 0 404 5 847 10 443 5 1152 12 1575 16 424 4 1274 12
1890 18 1921 20 1940 20 1955 1z m3715 -225 c539 -36 962 -97 1315 -191 322
-85 445 -221 475 -526 6 -64 5 -73 -9 -73 -14 0 -364 19 -1884 104 -226 12
-245 15 -265 35 -21 20 -21 28 -18 207 3 203 12 257 61 360 38 78 77 106 140
98 14 -2 97 -8 185 -14z m-3791 -52 c14 -20 16 -159 16 -1295 l0 -1273 -24
-15 c-25 -17 -51 -12 -60 11 -3 9 -6 587 -6 1286 0 1174 1 1273 16 1290 22 24
39 23 58 -4z m-229 -38 c0 -8 -14 -17 -33 -21 -19 -4 -455 -10 -970 -13 -516
-4 -1526 -11 -2247 -16 -1564 -12 -2336 -13 -2358 -4 -10 3 -17 14 -17 24 0
16 36 17 538 23 295 3 895 7 1332 8 437 1 1279 5 1870 9 1601 10 1885 8 1885
-10z m-5827 -12 c9 -9 12 -297 12 -1237 0 -675 -4 -1231 -8 -1238 -4 -6 -19
-14 -34 -18 -24 -6 -29 -3 -38 20 -7 17 -10 441 -10 1233 0 1077 2 1210 16
1230 17 24 43 29 62 10z m5447 -141 c17 -3 97 -8 180 -12 115 -4 156 -10 175
-22 l25 -17 -35 -8 c-79 -19 -502 -20 -770 -3 -372 24 -765 29 -1110 16 -162
-6 -459 -14 -659 -18 -201 -3 -356 -9 -345 -13 10 -4 422 -10 914 -14 1655
-12 1991 -17 1998 -34 3 -8 6 -42 6 -76 l1 -61 -332 -3 c-276 -2 -333 -5 -333
-16 0 -16 60 -20 440 -33 179 -7 215 -11 218 -23 2 -10 -16 -22 -55 -36 l-58
-22 42 -7 c71 -12 78 -23 75 -106 -2 -40 -7 -78 -13 -85 -7 -8 -58 -13 -157
-16 -145 -3 -189 -11 -161 -29 8 -5 48 -9 90 -9 42 0 110 -3 152 -6 90 -8 99
-22 35 -55 -61 -31 -216 -38 -895 -38 -556 -1 -616 -4 -574 -31 7 -4 337 -10
733 -14 661 -7 724 -9 756 -25 l34 -18 -33 -14 c-29 -12 -427 -14 -2784 -11
-1512 2 -2762 6 -2778 8 -37 7 -34 21 8 41 40 19 44 30 14 35 -12 2 -31 15
-41 29 -17 22 -19 35 -13 83 l7 56 104 0 c81 0 104 3 104 14 0 9 -21 15 -67
20 -116 12 -143 18 -143 32 0 12 51 14 290 14 283 0 290 1 290 20 0 19 -8 20
-287 22 l-288 3 -3 83 c-2 60 1 84 10 87 7 2 177 12 378 22 310 15 365 20 365
33 0 13 -48 15 -365 18 -201 1 -371 2 -377 2 -9 0 -13 19 -13 64 l0 63 37 7
c21 3 62 6 91 6 39 0 52 4 52 15 0 12 -14 15 -68 15 -81 0 -118 18 -91 45 15
15 146 17 1555 22 847 3 1541 8 1544 10 7 7 2089 -3 2125 -10z m4595 -597
c234 -11 587 -27 785 -35 898 -40 901 -40 928 -58 36 -23 45 -75 21 -124 -16
-33 -33 -45 -114 -84 -70 -34 -107 -59 -137 -92 -72 -82 -81 -157 -85 -657
l-2 -275 26 -56 c22 -49 33 -60 79 -83 39 -18 82 -29 153 -36 54 -5 102 -13
107 -16 22 -13 3 -131 -48 -292 -20 -63 -34 -90 -60 -112 -38 -33 -29 -33
-335 -34 -178 -1 -192 6 -221 100 -72 234 -107 326 -167 449 -116 239 -231
397 -425 583 -249 239 -551 398 -943 497 -73 18 -140 39 -149 46 -21 18 -16
237 7 264 34 41 26 41 580 15z m-4405 -387 c102 -6 136 -12 158 -27 l29 -20
-34 -17 c-30 -17 -78 -18 -618 -20 -322 0 -574 -5 -560 -9 14 -4 93 -9 175 -9
83 -1 276 -6 430 -11 154 -5 343 -10 419 -11 77 -1 150 -4 163 -7 21 -4 21 -6
8 -31 -16 -31 -52 -51 -98 -52 -18 -1 -43 -5 -57 -9 -17 -5 8 -8 71 -9 l97 -1
7 -46 c3 -25 4 -48 2 -50 -8 -8 -2761 -6 -2783 2 -10 4 -66 27 -123 51 -129
54 -295 105 -426 129 -152 29 -472 27 -616 -4 -147 -30 -264 -65 -388 -116
-58 -24 -128 -48 -154 -55 -35 -8 -204 -12 -585 -12 l-537 0 0 58 0 58 60 1
c84 1 97 3 90 13 -3 5 -30 13 -60 16 -64 8 -73 24 -15 26 22 1 45 3 50 4 6 1
17 3 25 4 8 0 15 5 15 10 0 5 -28 12 -62 16 -74 8 -98 14 -98 24 0 4 285 7
634 7 349 -1 632 2 630 5 -2 4 -68 9 -146 13 -79 4 -177 9 -218 11 -41 2 -253
7 -470 11 -217 3 -405 10 -417 15 -26 9 -29 28 -10 48 10 10 537 11 2647 7
1449 -3 2694 -9 2765 -13z m3723 -34 c602 -66 1137 -412 1412 -912 124 -224
207 -472 245 -723 21 -138 21 -360 0 -410 -38 -92 -204 -76 -243 23 -6 16 -20
65 -32 110 -94 380 -339 718 -676 935 -70 45 -215 114 -308 147 -334 118 -757
120 -1106 5 -112 -37 -303 -135 -409 -211 -129 -92 -282 -247 -359 -361 -100
-150 -137 -236 -232 -537 -17 -55 -43 -115 -57 -134 -69 -90 -227 -75 -269 25
-26 62 -13 278 28 479 25 126 92 328 152 464 323 733 1084 1185 1854 1100z
m2257 -76 c-38 -108 -44 -179 -46 -500 -2 -348 -4 -342 83 -368 28 -8 60 -15
70 -15 10 0 18 -4 18 -10 0 -19 -113 -11 -148 10 -64 39 -65 53 -58 447 7 354
11 394 42 442 14 20 52 59 60 61 1 0 -9 -30 -21 -67z m174 -7 c32 -33 33 -38
27 -82 -11 -83 -54 -119 -115 -98 -39 14 -55 55 -38 96 14 32 76 116 88 117 3
1 20 -15 38 -33z m-9263 -190 c287 -61 525 -176 732 -356 303 -262 525 -691
628 -1213 24 -119 25 -130 10 -152 -20 -31 -72 -33 -131 -6 -73 34 -100 74
-185 276 -213 503 -482 802 -857 953 -517 207 -1092 84 -1498 -323 -164 -163
-256 -309 -368 -580 -77 -186 -107 -249 -135 -279 -80 -85 -162 -112 -182 -60
-12 31 31 258 86 448 160 555 464 962 873 1166 144 72 306 117 546 154 17 2
104 3 195 1 130 -3 191 -9 286 -29z m-1356 -131 c0 -2 -24 -26 -52 -52 -212
-191 -329 -348 -469 -625 -37 -75 -78 -144 -91 -152 -18 -13 -51 -16 -165 -16
-79 0 -143 4 -143 9 0 11 52 18 193 27 73 4 107 10 104 18 -2 7 -56 12 -165
14 -94 1 -162 6 -162 12 0 14 38 36 98 55 28 9 52 18 52 20 0 2 -38 8 -85 15
-47 7 -85 13 -85 15 0 35 52 65 113 65 30 0 53 7 68 20 l24 19 -102 1 -103 0
0 94 c0 79 3 97 20 119 20 25 20 28 5 56 -8 17 -15 36 -15 44 0 25 49 37 145
37 78 0 95 3 95 15 0 11 -13 15 -52 15 -95 0 -188 12 -188 25 0 8 85 16 288
28 313 19 386 26 377 35 -3 4 -144 7 -313 8 -169 0 -317 2 -329 2 -20 2 -23 8
-23 42 l0 40 480 0 c264 0 480 -2 480 -5z m4650 -42 c0 -27 -3 -58 -6 -70 l-6
-23 -259 0 c-222 0 -259 -2 -259 -15 0 -13 38 -15 263 -17 l262 -3 3 -28 c6
-51 -9 -57 -133 -57 -87 0 -114 -3 -118 -14 -6 -16 51 -26 154 -26 102 0 99 3
99 -111 l0 -99 -240 0 c-207 0 -240 -2 -240 -15 0 -13 32 -15 229 -15 l229 0
5 -28 c3 -16 9 -85 13 -154 5 -95 4 -127 -6 -133 -7 -4 -436 -7 -953 -6 -708
2 -948 5 -967 14 -18 9 -47 55 -102 159 -106 205 -183 312 -327 461 -68 70
-121 127 -117 127 19 0 147 -93 197 -142 79 -78 134 -158 233 -343 48 -88 101
-174 119 -191 l33 -31 289 -6 c422 -10 897 -8 915 3 11 7 6 10 -20 10 -19 0
-141 5 -270 10 -129 5 -363 11 -520 15 -157 3 -305 11 -329 17 -63 16 -98 57
-185 217 -93 169 -175 281 -250 339 -68 53 -71 67 -13 58 23 -4 59 -9 80 -13
37 -6 54 10 20 19 -10 3 -108 29 -218 58 -110 29 -202 54 -204 56 -25 22 92
24 1305 24 l1294 0 0 -47z m5978 -75 c23 -22 42 -44 42 -47 0 -3 -22 -30 -49
-58 -39 -43 -54 -53 -80 -53 -27 0 -34 5 -47 37 -30 72 7 163 66 163 17 0 40
-14 68 -42z m-2628 -551 c6 -164 11 -173 95 -163 28 3 60 6 73 6 12 0 22 4 22
9 0 5 -31 12 -70 16 l-70 7 0 135 0 134 43 -3 42 -3 5 -60 5 -60 95 -27 c132
-37 164 -36 204 5 17 18 36 40 41 50 6 9 24 20 41 23 28 5 32 3 38 -21 6 -22
-3 -48 -39 -117 -41 -81 -48 -108 -27 -108 4 0 25 34 46 75 44 84 58 99 99
109 26 6 27 5 27 -31 0 -25 -14 -63 -40 -111 -44 -80 -47 -92 -26 -92 8 0 38
33 67 73 28 39 53 73 55 75 3 5 62 -26 68 -36 3 -5 -2 -22 -11 -38 -40 -75
-30 -119 34 -149 21 -10 70 -40 110 -67 40 -26 75 -48 79 -48 4 0 21 10 38 23
50 38 54 39 76 17 11 -11 20 -24 20 -29 0 -5 -22 -37 -50 -71 -85 -106 -55
-124 58 -33 49 40 48 40 112 -37 l39 -47 -65 -79 c-107 -128 -107 -138 -12
-278 57 -84 74 -104 85 -95 11 10 9 20 -13 58 -15 25 -39 63 -55 83 -46 58
-52 82 -27 113 11 14 26 25 34 23 7 -2 54 -61 104 -131 l90 -128 -65 -30 c-36
-17 -65 -37 -65 -45 0 -17 1 -17 75 1 82 20 102 19 115 -6 24 -43 -30 -87
-133 -109 -46 -9 -57 -15 -53 -28 3 -9 12 -55 21 -102 26 -132 41 -136 51 -12
4 45 9 82 11 82 2 0 20 -12 39 -27 30 -25 34 -34 34 -73 0 -94 57 -150 154
-150 45 0 48 -2 43 -22 -3 -13 -9 -44 -12 -70 -4 -27 -12 -48 -19 -48 -6 0
-38 7 -71 15 -122 29 -147 10 -31 -24 41 -12 80 -28 86 -36 14 -17 3 -79 -19
-107 -17 -21 -18 -21 -64 -3 -40 15 -65 17 -173 11 -70 -4 -136 -12 -148 -17
-28 -13 -188 -261 -177 -272 12 -12 89 72 127 138 58 102 93 125 196 125 82 0
221 -44 216 -69 -4 -22 -42 -26 -107 -10 -77 18 -91 7 -163 -129 -51 -97 -58
-115 -45 -125 19 -16 31 -104 14 -110 -7 -2 -41 17 -77 42 l-65 46 45 -54 c25
-29 66 -79 92 -110 26 -31 48 -59 48 -63 0 -4 -14 -16 -31 -28 l-30 -22 -64
61 c-57 55 -85 73 -85 55 0 -4 25 -35 56 -70 60 -69 61 -76 11 -122 -35 -33
-55 -24 -129 60 -69 77 -107 102 -141 93 -25 -8 -205 -113 -212 -125 -3 -4 7
-60 22 -123 22 -96 25 -121 15 -142 -11 -25 -13 -25 -42 -10 -25 13 -34 29
-61 115 -29 95 -49 127 -49 78 0 -13 9 -61 20 -108 28 -124 28 -125 -27 -140
-27 -7 -52 -13 -57 -14 -7 -1 -36 87 -77 237 -10 40 -29 50 -29 17 0 -12 10
-70 21 -130 12 -60 19 -116 15 -125 -4 -12 -16 -15 -42 -13 -35 3 -38 6 -54
56 -10 30 -23 59 -29 65 -8 8 -64 13 -156 15 l-145 3 0 54 c0 48 -12 76 -26
62 -3 -3 -11 -55 -17 -116 -7 -62 -15 -112 -20 -112 -26 -3 -128 15 -133 22
-5 8 5 95 21 192 3 18 0 27 -9 27 -9 0 -22 -32 -37 -95 -13 -52 -25 -99 -29
-104 -3 -4 -22 -6 -42 -3 l-38 4 0 71 0 70 -25 -23 c-31 -30 -68 -28 -130 4
-92 50 -166 31 -209 -53 -12 -22 -24 -31 -41 -31 -14 0 -25 2 -25 4 0 3 16 42
35 87 19 46 35 87 35 91 0 20 -20 2 -68 -62 -29 -38 -56 -70 -61 -70 -16 0
-61 42 -61 56 0 9 11 34 25 57 15 27 22 51 19 64 -7 25 -226 213 -247 213 -8
0 -25 -8 -38 -19 -50 -39 -68 -44 -95 -26 -13 8 -24 19 -24 23 0 4 41 32 90
61 97 57 107 66 89 77 -7 4 -57 -15 -111 -42 l-100 -49 -24 30 c-43 53 -33 68
105 150 45 27 67 47 77 71 8 18 14 36 14 38 0 3 -52 -26 -116 -65 -63 -39
-123 -69 -132 -67 -10 2 -18 14 -20 29 -2 21 7 35 48 69 51 43 51 43 45 90 -4
26 -14 78 -24 116 l-18 69 -84 -3 c-76 -3 -87 -1 -104 18 -18 20 -18 21 1 40
12 13 45 24 95 31 121 19 155 -8 189 -151 27 -110 29 -115 40 -104 5 5 -4 64
-23 144 -39 164 -34 160 -198 160 -146 0 -151 4 -147 111 l3 74 75 -2 c41 -2
96 -5 123 -8 35 -4 47 -2 47 7 0 9 -32 19 -91 30 -66 12 -98 23 -116 40 -22
21 -23 23 -7 35 10 7 45 13 79 13 80 0 100 15 116 85 7 30 23 72 36 92 l24 38
-6 -115 c-5 -111 -5 -114 10 -80 14 30 44 141 45 162 0 3 -43 43 -95 89 -52
45 -95 89 -95 98 0 9 7 24 15 35 13 17 18 16 100 -29 82 -44 106 -51 90 -25
-4 6 -40 36 -81 66 -58 43 -74 60 -74 80 0 26 26 90 40 99 3 2 30 -11 58 -30
l51 -35 55 85 c31 47 60 85 65 85 5 0 17 3 26 7 15 5 17 1 12 -28 -2 -19 -17
-63 -32 -97 -14 -35 -25 -66 -22 -68 3 -3 79 122 114 188 2 4 -121 112 -165
143 -2 2 7 19 19 39 24 42 13 45 124 -33 l59 -41 44 42 c107 103 122 150 76
239 -29 58 -28 96 3 116 21 14 23 12 79 -106 31 -67 63 -121 70 -121 21 0 17
17 -31 129 -54 123 -56 145 -16 166 l30 15 46 -61 c26 -33 49 -58 52 -56 2 3
-9 32 -26 66 -17 33 -31 65 -31 70 0 16 59 43 80 36 11 -3 33 -31 50 -61 17
-29 38 -54 45 -54 8 0 49 14 92 32 66 27 91 32 161 33 l82 0 0 70 c0 93 16
117 73 113 l42 -3 5 -138z m-7081 -7 c17 -131 21 -150 32 -150 6 0 9 41 7 110
-3 124 1 132 62 128 l35 -3 3 -102 c1 -57 5 -103 7 -103 3 0 47 -7 98 -15 138
-22 185 -22 206 1 17 17 50 107 65 177 5 22 12 27 37 27 69 0 80 -26 58 -131
-20 -92 18 -160 97 -175 57 -11 79 2 135 78 l53 71 21 -28 c44 -62 86 -102
125 -120 22 -10 39 -22 38 -26 -2 -4 -38 -49 -81 -98 -106 -123 -90 -139 24
-25 63 63 92 85 99 78 8 -8 2 -26 -21 -63 -58 -93 -48 -189 25 -236 24 -16 27
-15 70 10 84 49 91 4 11 -75 -30 -29 -53 -55 -51 -57 2 -2 34 8 71 23 76 30
94 27 107 -22 8 -30 4 -36 -53 -76 -24 -17 -23 -17 35 -11 50 5 61 3 72 -12
23 -31 15 -48 -41 -90 -30 -22 -55 -43 -55 -46 0 -14 29 -17 69 -6 66 18 90
-1 119 -91 30 -91 48 -105 139 -103 95 1 103 -3 103 -50 0 -36 -2 -39 -22 -35
-13 3 -77 10 -143 16 -66 7 -123 14 -127 16 -3 2 -9 27 -13 54 -8 57 -20 65
-29 19 -20 -102 -3 -116 158 -129 121 -10 140 -15 168 -47 15 -17 15 -19 -1
-39 -24 -30 -48 -41 -108 -49 -29 -4 -55 -10 -58 -15 -2 -4 37 -10 87 -14 51
-4 94 -9 96 -11 2 -2 1 -22 -3 -43 l-6 -40 -109 -4 c-63 -2 -114 -8 -120 -14
-11 -11 -32 -85 -26 -91 2 -2 15 15 30 37 14 22 33 40 42 40 21 0 14 -42 -27
-161 -16 -48 -29 -94 -29 -102 0 -9 32 -51 70 -93 74 -82 84 -108 50 -139 -19
-17 -22 -14 -137 94 -64 61 -119 108 -121 106 -7 -7 44 -71 119 -150 65 -69
89 -103 89 -125 0 -6 -11 -22 -25 -36 l-26 -25 -64 50 c-60 47 -85 60 -85 45
0 -3 32 -35 70 -71 66 -61 86 -93 58 -93 -7 0 -49 23 -93 50 l-80 49 -23 -27
c-12 -15 -51 -70 -87 -123 -79 -116 -83 -145 -31 -206 l35 -40 -44 -43 c-25
-24 -46 -42 -48 -39 -2 2 -44 58 -92 124 -48 66 -89 122 -92 124 -2 3 -8 0
-15 -7 -8 -8 11 -45 70 -141 l81 -131 -25 -30 c-14 -16 -30 -30 -35 -30 -6 0
-42 34 -81 75 -45 48 -78 75 -92 75 -30 0 -123 -56 -142 -85 -14 -21 -15 -32
-5 -69 15 -63 14 -112 -5 -130 -26 -27 -61 1 -85 67 -18 52 -27 46 -16 -12 8
-36 7 -56 -2 -80 -13 -31 -14 -31 -41 -14 -19 11 -38 38 -56 80 -36 86 -49 93
-165 92 -52 -1 -105 0 -119 2 -25 4 -25 3 -40 -111 l-15 -115 -43 -3 c-37 -3
-43 0 -51 21 -6 15 -6 40 0 63 16 72 12 112 -16 130 -32 21 -159 54 -210 54
-51 0 -78 -19 -111 -78 -55 -96 -51 -92 -84 -81 -16 6 -30 15 -30 20 0 4 19
58 42 119 63 168 32 161 -53 -12 -43 -87 -45 -89 -74 -84 -40 8 -47 18 -37 47
26 67 49 169 41 175 -5 3 -29 -35 -52 -85 -41 -89 -42 -90 -67 -78 -33 16 -36
46 -11 96 37 71 27 100 -52 161 -29 22 -79 63 -112 90 -73 62 -99 64 -167 14
-48 -34 -51 -35 -69 -18 -10 9 -19 25 -19 34 0 10 47 73 105 141 73 86 101
127 94 134 -8 7 -48 -29 -133 -119 l-122 -128 -27 63 c-15 35 -27 69 -27 76 0
6 34 40 75 74 68 56 88 79 68 79 -5 0 -42 -23 -83 -50 -41 -27 -78 -50 -82
-50 -19 0 -5 34 28 68 62 64 64 83 18 199 -28 71 -30 89 -9 97 11 4 26 -15 54
-72 40 -78 78 -135 67 -100 -3 10 -17 57 -32 105 -15 49 -30 92 -35 97 -4 4
-54 -3 -111 -17 -77 -18 -110 -22 -131 -15 -35 13 -39 21 -27 53 7 18 28 34
72 54 l63 29 -70 -5 c-53 -4 -75 -1 -90 10 -20 15 -20 16 3 40 12 13 42 30 65
38 l42 13 -57 6 c-36 3 -64 12 -75 23 -17 17 -17 19 1 33 11 8 42 14 72 14 36
0 56 5 65 16 19 23 50 261 38 292 -5 13 -22 28 -39 33 -35 13 -38 27 -11 60
l19 23 57 -18 c63 -19 82 -15 44 11 -13 10 -40 32 -59 50 -31 28 -33 32 -16
39 12 5 36 -3 71 -21 50 -28 54 -28 78 -13 13 9 43 50 65 90 22 40 65 109 96
153 31 44 56 84 56 89 0 5 -34 51 -76 103 l-76 95 36 36 36 36 46 -32 c51 -37
65 -36 40 2 -16 26 -21 62 -10 90 11 28 66 20 99 -14 24 -25 36 -30 77 -30 45
0 52 4 132 75 46 42 87 83 90 91 11 28 6 71 -13 135 -23 72 -17 94 30 104 17
4 32 5 33 3 1 -1 24 -54 51 -115 27 -62 50 -113 53 -113 2 0 22 16 45 35 22
19 49 35 58 35 33 0 68 22 77 49 5 14 7 56 4 93 l-4 67 33 5 c36 6 83 12 86
11 1 0 6 -38 12 -85z m348 -10 c69 -15 76 -21 62 -52 -21 -47 -84 -59 -191
-37 -29 6 -54 12 -56 14 -6 6 20 61 35 73 20 15 85 16 150 2z m3378 -280 c4
-7 -313 -10 -944 -10 -627 0 -951 3 -951 10 0 7 321 10 944 10 619 0 947 -3
951 -10z m-5666 -126 c24 -30 14 -275 -12 -301 -16 -16 -38 -18 -190 -18 -95
0 -184 3 -199 8 -41 11 -51 41 -56 169 -4 112 -4 117 20 140 23 24 25 24 222
23 185 -1 200 -2 215 -21z m309 -73 c5 -55 -5 -78 -40 -90 -33 -12 -98 -5 -99
10 0 5 0 32 0 59 0 28 0 52 0 55 1 3 31 5 69 3 l67 -3 3 -34z m5712 -151 l0
-190 -26 -16 c-23 -16 -99 -17 -1022 -10 -548 4 -1014 10 -1034 13 -21 3 -38
9 -38 14 0 5 455 9 1040 9 970 0 1107 3 1018 25 -13 3 -479 7 -1036 8 -1178 4
-1043 -14 -1067 136 -9 51 -13 96 -10 101 3 4 32 7 65 6 58 -2 76 6 44 18 -9
3 -35 6 -59 6 -47 0 -75 19 -75 51 0 19 20 19 1100 19 l1100 0 0 -190z m5912
41 c43 -3 48 -24 48 -192 0 -211 6 -204 -181 -214 -74 -3 -210 -5 -303 -3
l-169 3 -21 28 c-19 25 -21 44 -24 180 -3 123 -1 156 11 172 14 18 30 20 189
25 145 4 388 5 450 1z m-10923 -88 c1 -12 -37 -81 -84 -153 l-86 -130 -34 26
-34 25 112 145 c113 146 124 154 126 87z m9871 -1656 c0 -31 -65 -218 -96
-278 -19 -36 -69 -108 -109 -159 -41 -51 -75 -96 -75 -100 0 -23 25 -9 136 76
68 53 124 91 124 85 0 -6 -14 -40 -32 -75 -18 -36 -29 -69 -24 -73 4 -4 37 8
74 27 53 27 95 63 198 168 84 86 134 130 139 123 4 -7 -32 -82 -83 -174 -50
-89 -89 -164 -87 -166 3 -2 18 2 36 9 24 10 32 11 38 1 5 -7 27 -15 49 -18 37
-5 54 1 163 61 67 37 129 66 137 64 9 -2 -25 -34 -81 -78 -53 -41 -93 -78 -89
-82 4 -4 54 0 112 8 82 11 110 12 127 3 28 -15 66 -16 362 -5 205 7 243 6 239
-5 -5 -15 -236 -44 -588 -74 -240 -20 -714 -30 -953 -20 -167 7 -180 9 -206
31 -28 23 -31 24 -302 26 l-273 3 169 113 c98 67 171 110 177 104 5 -5 -12
-36 -42 -75 -39 -52 -47 -67 -33 -67 34 0 138 57 247 134 60 43 106 72 103 64
-3 -8 -26 -47 -51 -87 -63 -98 -62 -120 5 -93 23 9 62 39 91 71 74 81 368 449
368 461 0 6 7 10 15 10 8 0 15 -6 15 -13z m-921 -110 l22 -24 -100 -61 c-97
-59 -101 -61 -112 -41 -21 39 -3 65 73 108 40 22 78 41 84 41 6 0 20 -11 33
-23z m-2099 -392 c67 -41 123 -75 124 -75 2 0 15 31 30 70 l27 69 116 -77 116
-77 -124 -6 c-68 -4 -188 -14 -266 -23 -170 -19 -391 -21 -482 -3 l-66 12 75
5 75 5 -3 35 c-2 19 -6 43 -9 53 -4 16 -1 18 19 12 12 -4 43 -18 68 -30 72
-36 120 -47 165 -38 37 8 40 11 37 38 -2 17 -10 47 -17 68 -7 20 -11 37 -10
37 2 0 58 -34 125 -75z"/>
<path d="M2971 10265 c-1 -11 -6 -54 -12 -95 -17 -130 -13 -381 10 -510 23
-136 105 -390 125 -390 3 0 28 27 56 61 l50 60 -1 87 c0 48 -6 123 -13 167
l-12 80 -11 -40 c-6 -22 -16 -64 -23 -93 -15 -63 -25 -71 -43 -35 -60 117
-106 342 -116 563 -4 91 -9 156 -10 145z"/>
<path d="M4086 9843 c-3 -16 -20 -162 -38 -325 l-33 -298 -25 0 c-15 0 -49 7
-77 15 -42 12 -63 28 -114 83 -44 48 -59 60 -54 42 33 -110 131 -174 298 -195
l57 -7 0 356 c0 196 -2 356 -4 356 -3 0 -7 -12 -10 -27z"/>
<path d="M4532 10557 c-11 -43 -92 -551 -88 -554 2 -3 18 37 34 89 41 128 64
274 60 383 -2 50 -5 86 -6 82z"/>
<path d="M7021 9233 c-45 -130 -87 -222 -113 -250 -38 -41 -68 -31 -167 55
-62 52 -125 95 -198 132 -97 49 -110 59 -130 99 -31 62 -37 63 -28 6 9 -64 30
-86 124 -131 218 -103 319 -228 396 -487 30 -101 34 -101 84 -13 46 80 92 229
98 315 l4 76 -23 -36 c-13 -20 -45 -80 -73 -133 -27 -53 -52 -96 -55 -96 -3 0
-20 25 -37 56 l-33 55 51 52 c34 34 66 83 96 144 38 79 46 105 50 173 4 46 2
80 -3 80 -5 0 -25 -44 -43 -97z"/>
<path d="M8597 9350 c-108 -19 -190 -86 -224 -184 -16 -47 -17 -112 -18 -776
l0 -725 24 -53 c29 -63 85 -115 156 -141 84 -32 223 -41 603 -41 243 0 361 -3
369 -11 7 -7 135 -9 419 -7 508 5 491 2 649 146 38 35 87 74 107 86 21 11 43
34 49 49 14 33 4 518 -11 578 -14 51 -50 80 -112 90 -33 5 -60 17 -74 31 -16
16 -46 99 -98 273 -41 138 -89 290 -106 339 -54 160 -154 282 -268 328 l-57
23 -680 2 c-374 0 -701 -3 -728 -7z m1143 -152 c229 -3 248 -4 285 -25 52 -28
88 -66 118 -128 40 -80 206 -622 207 -672 0 -8 -14 -13 -36 -13 -45 0 -101
-26 -120 -55 -28 -42 -34 -90 -40 -285 -4 -162 -2 -216 14 -318 21 -139 23
-134 -51 -135 -127 -2 -809 6 -1100 14 -377 9 -426 16 -470 69 -47 55 -49 94
-43 763 4 342 9 638 12 657 8 52 31 88 67 107 27 16 69 19 292 23 143 3 341 4
440 3 99 -2 290 -4 425 -5z m803 -962 c69 -29 72 -38 76 -246 l3 -189 -25 -24
c-48 -49 -228 -49 -273 0 -24 25 -24 29 -24 223 0 153 3 200 14 216 11 15 31
20 93 25 43 3 84 6 91 7 7 1 27 -4 45 -12z"/>
<path d="M8606 8951 c-4 -6 -9 -273 -12 -593 l-6 -583 24 -44 c28 -55 62 -81
119 -92 24 -4 270 -8 547 -9 423 0 502 2 502 14 0 8 -8 17 -17 21 -10 4 -227
11 -483 15 -315 5 -480 12 -512 20 -63 16 -95 49 -107 113 -6 29 -15 246 -21
482 -11 471 -18 656 -24 662 -2 3 -7 0 -10 -6z"/>
<path d="M8772 8180 c0 -333 10 -380 90 -407 45 -15 390 -28 368 -14 -9 5 -79
17 -155 26 -171 19 -211 29 -230 58 -18 28 -22 56 -50 333 l-23 229 0 -225z"/>
<path d="M8127 9186 c-16 -65 -33 -157 -39 -205 -10 -87 -3 -3668 8 -3836 9
-145 36 -440 40 -444 2 -2 4 955 4 2127 0 1436 4 2180 11 2280 6 82 9 160 7
173 -1 13 -16 -29 -31 -95z"/>
<path d="M8443 7220 c-112 -12 -169 -56 -180 -138 -7 -56 18 -122 62 -161 45
-40 127 -47 407 -35 237 10 243 12 292 78 27 36 29 145 3 193 -33 62 -57 68
-297 69 -118 1 -248 -2 -287 -6z m471 -113 c32 -42 32 -47 -2 -72 -24 -18 -50
-21 -266 -27 -267 -9 -276 -7 -276 56 1 71 17 75 287 76 l232 0 25 -33z"/>
<path d="M10460 6685 c-8 -2 -49 -9 -90 -15 -114 -18 -326 -92 -473 -164 -401
-197 -778 -534 -946 -847 -23 -42 -50 -102 -61 -135 -21 -61 -40 -134 -35
-134 2 0 31 53 65 117 145 277 320 500 530 675 300 251 639 403 1080 482 l135
24 -95 0 c-52 0 -102 -2 -110 -3z"/>
<path d="M4866 8349 c-21 -107 9 -206 74 -240 72 -39 193 -16 250 46 24 26 24
26 -28 -6 -67 -41 -131 -43 -196 -5 -54 32 -76 81 -76 171 0 68 -13 87 -24 34z"/>
<path d="M5907 8325 c-4 -22 -7 -63 -7 -92 0 -41 -5 -58 -26 -82 -24 -28 -31
-31 -87 -31 -90 0 -238 20 -269 36 -37 19 -68 54 -68 76 0 10 -4 18 -9 18 -6
0 -7 -17 -4 -37 15 -96 41 -107 254 -107 233 -1 249 10 233 171 -8 80 -10 84
-17 48z"/>
<path d="M3100 8132 c0 -85 33 -91 335 -66 44 4 82 14 103 26 18 11 31 22 29
24 -2 3 -76 -3 -164 -11 -88 -9 -182 -15 -209 -13 -42 3 -51 7 -71 37 l-23 34
0 -31z"/>
<path d="M2853 7823 c269 -2 705 -2 970 0 265 1 46 2 -488 2 -533 0 -750 -1
-482 -2z"/>
<path d="M11460 7286 c0 -9 6 -16 13 -16 6 0 157 -10 334 -22 281 -19 350 -20
332 -4 -2 2 -132 13 -289 25 -157 12 -309 24 -337 27 -45 5 -53 4 -53 -10z"/>
<path d="M11195 7242 c-3 -3 -5 -13 -5 -22 0 -14 21 -18 153 -29 83 -6 373
-29 642 -51 270 -22 496 -40 503 -40 6 0 12 6 12 14 0 18 6 17 -435 65 -442
49 -854 79 -870 63z"/>
<path d="M5570 7208 c-96 -4 -249 -14 -340 -22 -159 -13 -136 -14 588 -17 413
-2 752 -1 752 2 0 6 -23 9 -230 29 -146 14 -560 19 -770 8z"/>
<path d="M2700 7184 c181 -44 630 -44 770 0 40 13 -1 14 -390 14 -384 0 -429
-2 -380 -14z"/>
<path d="M2432 6715 c3 -3 524 -5 1158 -5 634 0 1155 2 1158 5 3 3 -518 5
-1158 5 -640 0 -1161 -2 -1158 -5z"/>
<path d="M13199 6674 c-99 -30 -192 -119 -234 -221 -17 -44 -20 -80 -23 -401
-2 -195 0 -361 3 -370 5 -14 9 -13 19 8 16 30 26 162 35 475 7 223 8 232 35
287 34 72 93 124 196 173 44 22 80 45 80 52 0 17 -51 16 -111 -3z"/>
<path d="M11302 6645 c2 -2 44 -18 93 -36 437 -154 791 -421 1050 -794 65 -94
75 -102 35 -30 -204 372 -631 717 -1023 829 -79 22 -164 39 -155 31z"/>
<path d="M12704 5288 c20 -103 69 -232 101 -266 33 -37 34 -37 107 -35 40 1
123 3 183 3 124 1 148 11 171 65 19 47 18 52 -8 28 -51 -46 -105 -55 -159 -27
-28 14 -34 14 -85 -5 -101 -38 -180 -20 -224 51 -11 18 -34 75 -51 126 -31 92
-47 120 -35 60z"/>
<path d="M3630 6430 c0 -7 318 -10 935 -10 617 0 935 3 935 10 0 7 -318 10
-935 10 -617 0 -935 -3 -935 -10z"/>
<path d="M10690 5854 c-343 -33 -632 -128 -879 -292 -103 -68 -262 -219 -341
-323 -115 -153 -216 -360 -274 -561 -40 -138 -38 -159 2 -43 73 207 129 325
219 465 232 357 576 582 1043 680 129 27 420 39 550 21 260 -34 549 -143 790
-297 111 -71 55 -23 -78 67 -307 207 -698 314 -1032 283z"/>
<path d="M3620 5866 c-236 -37 -438 -115 -633 -246 -277 -186 -438 -401 -658
-876 -45 -99 -87 -185 -92 -192 -5 -7 -8 -15 -5 -18 11 -10 84 115 205 350
156 303 229 412 358 541 229 228 512 366 842 410 140 19 241 19 370 -1 200
-29 347 -85 588 -224 61 -34 115 -65 120 -68 34 -18 -62 68 -115 103 -147 96
-319 167 -495 206 -117 26 -367 33 -485 15z"/>
<path d="M4819 5435 c18 -22 59 -74 93 -115 134 -165 250 -362 332 -566 39
-100 89 -194 101 -194 21 0 -203 462 -302 622 -36 59 -91 127 -156 192 -54 56
-85 83 -68 61z"/>
<path d="M5525 5940 c-17 -27 -1 -29 443 -46 117 -5 162 -4 162 4 0 17 -22 19
-305 32 -143 6 -267 14 -277 16 -9 3 -19 0 -23 -6z"/>
<path d="M6295 5650 c-93 -4 -216 -9 -272 -11 -227 -8 -40 -35 212 -31 193 3
377 22 383 40 4 13 -36 14 -323 2z"/>
<path d="M10755 5161 c-35 -6 -30 -7 40 -13 44 -4 110 -14 146 -23 67 -15 258
-79 292 -96 30 -17 18 5 -16 28 -122 83 -317 127 -462 104z"/>
<path d="M10612 5019 c-383 -64 -704 -413 -772 -841 -16 -97 -8 -301 15 -388
23 -90 103 -253 158 -326 308 -406 841 -529 1297 -299 220 111 395 289 463
471 53 141 59 175 64 329 4 137 2 159 -21 249 -104 403 -468 728 -900 805 -70
13 -228 12 -304 0z m384 -145 c215 -44 424 -168 561 -333 63 -77 144 -236 169
-336 28 -109 26 -335 -4 -438 -85 -295 -317 -506 -650 -594 -169 -44 -354 -34
-522 28 -75 28 -165 77 -187 101 -15 17 -7 15 42 -9 155 -78 304 -115 460
-115 135 0 232 23 360 86 251 124 409 319 461 573 22 102 14 287 -15 388 -88
300 -341 549 -636 625 -155 40 -354 24 -510 -40 -149 -63 -246 -134 -336 -247
-201 -253 -250 -631 -118 -913 16 -35 48 -94 71 -130 35 -56 37 -61 14 -40
-40 37 -111 155 -141 235 -74 195 -74 445 0 642 125 330 463 555 811 538 50
-2 127 -12 170 -21z m19 -134 c267 -68 463 -257 537 -517 29 -101 31 -294 5
-393 -69 -256 -255 -445 -514 -521 -96 -28 -275 -36 -373 -15 -204 43 -391
190 -490 385 -53 103 -71 175 -77 302 -8 176 29 317 122 459 106 164 287 287
467 320 75 13 231 4 323 -20z"/>
<path d="M10715 4686 c-266 -51 -478 -246 -539 -497 -79 -323 111 -681 422
-799 83 -31 173 -41 287 -29 308 30 517 182 595 434 32 100 39 285 15 391 -53
241 -227 427 -455 490 -79 21 -241 26 -325 10z m274 -91 c98 -24 188 -72 264
-144 124 -117 181 -248 181 -416 0 -259 -150 -473 -390 -555 -87 -30 -94 -26
-41 28 l48 49 -36 31 c-20 18 -45 32 -56 32 -20 0 -79 -53 -79 -70 0 -4 14
-24 30 -45 17 -21 30 -41 30 -45 0 -23 -178 -27 -256 -6 -94 25 -194 85 -274
166 -121 121 -172 241 -171 400 0 156 58 289 175 405 153 152 375 217 575 170z"/>
<path d="M10806 4476 c-20 -24 -36 -54 -36 -66 0 -25 51 -80 74 -80 22 0 86
59 86 80 0 17 -63 101 -80 108 -4 1 -23 -17 -44 -42z"/>
<path d="M10463 4367 c-31 -45 -29 -80 3 -106 15 -12 35 -21 46 -21 26 0 68
44 68 71 0 37 -41 89 -70 89 -17 0 -32 -11 -47 -33z"/>
<path d="M11176 4298 c-20 -23 -36 -47 -36 -54 0 -16 46 -71 70 -84 13 -7 25
-1 54 24 20 19 36 42 36 53 0 20 -65 103 -80 103 -5 0 -25 -19 -44 -42z"/>
<path d="M10715 4252 c-212 -73 -260 -317 -93 -467 120 -108 293 -102 409 14
88 88 115 211 68 308 -27 56 -107 127 -166 147 -61 21 -155 20 -218 -2z m135
-108 c14 -10 42 -33 62 -52 l37 -35 -37 -45 c-35 -43 -37 -44 -85 -39 -74 7
-104 45 -99 123 5 54 72 81 122 48z m-112 -222 c85 -66 138 -68 210 -7 47 41
56 29 19 -26 -33 -50 -80 -71 -150 -66 -82 5 -137 51 -153 127 -5 29 -4 33 7
24 8 -6 38 -29 67 -52z"/>
<path d="M10309 3978 c-3 -96 2 -123 29 -162 15 -22 32 -41 37 -43 6 -1 25 6
43 17 39 24 41 52 11 113 -21 41 -96 127 -111 127 -4 0 -9 -24 -9 -52z"/>
<path d="M11194 3844 c-19 -19 -34 -42 -34 -50 0 -20 54 -74 73 -74 17 0 117
76 117 89 0 12 -86 71 -105 71 -10 0 -33 -16 -51 -36z"/>
<path d="M10538 3671 c-36 -50 -35 -60 5 -99 40 -39 66 -40 97 -7 l24 25 -40
57 c-22 31 -45 58 -50 60 -5 1 -21 -15 -36 -36z"/>
<path d="M10185 4898 c-21 -24 -84 -92 -140 -153 -193 -209 -189 -205 -177
-217 9 -9 15 -9 25 2 8 8 78 87 157 175 79 88 155 172 169 188 17 19 22 30 14
38 -7 7 -22 -3 -48 -33z"/>
<path d="M9900 3447 c0 -14 53 -112 91 -168 42 -62 135 -151 183 -176 30 -15
31 -15 15 3 -9 11 -71 87 -139 169 -139 169 -150 182 -150 172z"/>
<path d="M11535 3150 c-252 -118 -435 -210 -414 -210 100 0 304 96 434 204 35
30 33 30 -20 6z"/>
<path d="M3554 4995 c-34 -7 -81 -23 -105 -35 -52 -27 -121 -72 -116 -76 4 -4
408 114 415 121 11 10 -135 3 -194 -10z"/>
<path d="M3815 4973 c-150 -19 -302 -61 -400 -110 -162 -81 -354 -247 -439
-380 -86 -133 -136 -295 -136 -437 0 -39 -5 -77 -11 -83 -13 -13 47 -258 89
-362 58 -145 205 -322 345 -414 397 -263 993 -180 1334 186 173 185 256 389
256 627 0 127 -11 202 -50 318 -94 286 -370 590 -587 648 -48 13 -320 18 -401
7z m276 -108 c258 -70 481 -288 575 -562 46 -136 61 -263 45 -395 -52 -431
-361 -718 -827 -769 -165 -17 -294 6 -437 78 -99 49 -150 85 -231 162 -195
187 -286 425 -257 674 52 450 336 751 776 822 107 17 274 13 356 -10z"/>
<path d="M3660 4824 c-239 -51 -432 -191 -544 -395 -130 -236 -145 -555 -37
-786 104 -222 309 -395 543 -459 86 -24 266 -24 377 0 272 58 491 222 600 449
64 132 75 188 76 377 0 154 -2 170 -27 245 -95 278 -373 523 -652 574 -81 15
-257 12 -336 -5z m385 -114 c130 -41 222 -96 315 -190 96 -96 148 -179 187
-295 23 -69 27 -97 27 -205 1 -145 -18 -221 -87 -355 -52 -101 -188 -242 -292
-303 -215 -126 -457 -135 -673 -27 -186 94 -316 237 -388 427 -25 67 -28 85
-28 208 0 163 16 237 79 365 105 215 286 353 521 395 83 15 260 5 339 -20z"/>
<path d="M3720 4674 c-50 -10 -156 -48 -200 -72 -157 -86 -268 -217 -326 -387
-23 -68 -27 -96 -28 -190 0 -131 18 -207 74 -320 115 -235 331 -368 595 -368
316 0 591 209 671 508 37 141 13 349 -58 492 -41 83 -147 197 -229 246 -107
63 -204 89 -349 92 -69 2 -136 1 -150 -1z m275 -99 c217 -46 397 -219 440
-422 19 -88 19 -136 -1 -230 -60 -293 -326 -516 -610 -512 -44 1 -89 4 -102 7
-22 7 -22 8 18 47 30 30 40 47 40 71 0 65 -89 88 -142 37 -36 -34 -35 -50 3
-96 17 -21 30 -40 28 -42 -8 -7 -81 24 -135 56 -122 74 -230 224 -265 369 -21
86 -17 222 9 308 89 287 412 471 717 407z"/>
<path d="M4070 4461 c0 -30 45 -145 67 -171 22 -27 31 -31 57 -26 56 11 93 66
68 102 -8 12 -124 78 -164 93 -16 6 -28 7 -28 2z"/>
<path d="M3756 4429 c-14 -11 -26 -29 -26 -40 0 -27 58 -111 71 -103 13 8 69
85 69 95 0 16 -53 69 -70 69 -9 0 -29 -9 -44 -21z"/>
<path d="M3421 4250 c-39 -56 -37 -81 7 -123 l28 -27 42 36 c34 29 41 41 36
57 -7 22 -65 106 -74 107 -3 0 -20 -22 -39 -50z"/>
<path d="M3715 4220 c-58 -23 -117 -76 -148 -134 -18 -33 -22 -58 -22 -131 0
-78 4 -97 27 -141 54 -103 138 -148 273 -149 76 0 99 4 146 26 134 63 199 190
178 349 -11 78 -30 114 -79 146 -82 55 -276 72 -375 34z m208 -111 c37 -28 52
-83 38 -136 -16 -57 -51 -83 -113 -83 -43 0 -54 4 -84 34 -30 30 -34 41 -34
84 0 53 24 96 64 112 40 16 102 11 129 -11z m-212 -212 c36 -44 95 -77 139
-77 35 0 96 23 122 47 26 24 30 12 9 -28 -35 -65 -122 -95 -202 -67 -78 26
-120 79 -133 168 l-6 45 20 -25 c11 -14 34 -42 51 -63z"/>
<path d="M3045 4666 c-74 -75 -168 -198 -226 -298 -42 -72 -118 -231 -101
-213 5 6 78 109 162 230 85 121 174 248 198 283 24 34 41 62 38 62 -4 0 -35
-29 -71 -64z"/>
<path d="M4730 3366 c-91 -121 -167 -225 -169 -231 -11 -27 128 107 185 179
58 72 164 260 153 270 -2 2 -78 -96 -169 -218z"/>
<path d="M3925 2990 c-217 -32 -245 -38 -210 -46 73 -15 264 -10 330 10 59 18
155 62 155 71 0 7 7 8 -275 -35z"/>
<path d="M1331 4807 c-1 -71 9 -91 50 -106 36 -12 157 -13 238 -2 59 9 91 35
91 76 0 22 -2 21 -34 -11 -37 -37 -36 -37 -191 -36 -84 1 -91 3 -112 27 -13
14 -23 36 -24 48 0 12 -4 31 -9 42 -6 14 -9 4 -9 -38z"/>
<path d="M13630 4597 c0 -36 -25 -96 -52 -124 -21 -22 -27 -23 -219 -23 -130
0 -207 4 -224 12 -30 13 -41 47 -26 76 16 30 -8 41 -30 14 -20 -25 -12 -84 16
-111 18 -19 125 -29 310 -30 142 -1 189 9 224 44 22 21 26 34 25 78 0 57 -23
118 -24 64z"/>
<path d="M2356 11428 c11 -82 35 -149 64 -181 15 -17 32 -28 37 -24 4 5 8 34
8 65 0 64 -30 120 -85 161 l-30 22 6 -43z"/>
<path d="M1902 10438 c2 -58 8 -84 24 -104 35 -47 67 -66 108 -62 l37 3 -71
105 c-104 151 -103 151 -98 58z"/>
<path d="M1454 9585 c-8 -20 152 -202 197 -225 l37 -19 6 22 c13 49 6 77 -31
118 -40 44 -96 80 -161 103 -37 13 -44 13 -48 1z"/>
<path d="M1499 3218 c5 -13 57 -129 116 -258 59 -129 107 -239 108 -244 6 -35
-57 8 -273 184 -134 110 -248 200 -252 200 -18 0 -2 -34 118 -242 75 -130 123
-223 118 -228 -6 -6 -99 19 -229 59 -136 43 -224 65 -230 59 -6 -6 -6 -11 1
-16 37 -24 194 -168 194 -178 0 -8 -41 -13 -132 -17 -144 -5 -217 -23 -352
-88 -89 -43 -74 -50 96 -47 104 2 158 -2 250 -19 220 -42 688 -52 1023 -22
168 15 185 19 185 40 0 18 -20 19 -591 19 -460 0 -590 3 -587 12 3 9 55 13
194 15 104 1 190 2 192 2 2 1 -6 17 -18 37 -12 19 -21 37 -18 39 2 2 51 -9
108 -26 58 -16 106 -29 107 -29 1 0 -18 44 -43 98 -25 53 -48 103 -51 110 -13
31 27 5 114 -75 l95 -86 -7 36 c-4 20 -5 37 -2 37 3 0 58 -22 122 -50 131 -56
125 -54 125 -39 0 12 -1 14 -158 267 -79 127 -98 164 -86 169 21 8 41 -12 174
-177 141 -173 215 -249 230 -234 7 7 6 22 -5 48 -9 21 -15 42 -13 47 2 5 29
-14 61 -42 32 -28 59 -50 61 -48 2 2 -18 81 -44 176 -57 208 -49 228 35 98 30
-47 79 -123 109 -169 51 -78 105 -132 125 -124 4 2 0 44 -10 93 -9 50 -16 91
-15 92 0 1 35 -30 76 -69 84 -79 153 -118 158 -91 2 8 -12 47 -31 87 -46 92
-178 226 -224 226 -16 0 -34 -5 -41 -12 -6 -6 -13 -10 -15 -7 -262 333 -323
409 -329 409 -5 0 -11 -7 -14 -15 -5 -13 35 -332 52 -419 l6 -29 -29 21 c-16
11 -100 88 -187 171 -153 147 -227 206 -313 250 -54 27 -65 27 -54 -1z"/>
<path d="M6580 2632 c-41 -10 -74 -21 -72 -27 1 -7 347 -10 1012 -10 667 0
1010 3 1010 10 0 6 -96 17 -237 27 -347 24 -1601 24 -1713 0z"/>
<path d="M7623 2453 c21 -34 591 -51 717 -21 63 15 52 16 -305 17 -203 1 -381
4 -394 8 -15 4 -22 2 -18 -4z"/>
<path d="M6775 2374 c-165 -7 -396 -15 -512 -19 -173 -6 -213 -10 -213 -21 0
-27 983 -12 1078 17 60 17 56 41 -5 37 -27 -2 -183 -8 -348 -14z"/>
<path d="M8230 2321 c-252 -6 -253 -13 -5 -31 169 -12 1110 -19 1068 -8 -142
36 -545 51 -1063 39z"/>
<path d="M4533 2299 c-366 -23 -328 -26 337 -26 613 0 667 1 590 14 -105 17
-721 25 -927 12z"/>
<path d="M2370 2298 c-3 -3 -75 -8 -160 -12 -206 -9 -260 -15 -260 -32 0 -12
130 -14 798 -13 809 2 833 3 497 35 -160 14 -864 32 -875 22z"/>
<path d="M9905 2229 c-66 -4 -138 -12 -160 -17 -27 -7 136 -10 505 -10 358 0
526 3 491 9 -144 24 -603 34 -836 18z"/>
<path d="M11620 2200 c0 -7 205 -10 595 -10 390 0 595 3 595 10 0 7 -205 10
-595 10 -390 0 -595 -3 -595 -10z"/>
<path d="M4479 2186 c-2 -2 -224 -7 -494 -10 -533 -7 -595 -11 -595 -32 0 -10
8 -13 23 -10 12 3 202 7 422 10 731 11 925 18 925 33 0 10 -29 13 -138 13 -76
0 -141 -2 -143 -4z"/>
<path d="M10865 2145 c-11 -2 -120 -9 -243 -16 -122 -6 -224 -15 -226 -18 -2
-3 263 -6 589 -6 327 0 591 3 587 6 -16 15 -234 31 -452 34 -129 2 -244 1
-255 0z"/>
</g>
</svg>
