<?xml version="1.0" standalone="no"?>
<!DOCTYPE svg PUBLIC "-//W3C//DTD SVG 20010904//EN"
 "http://www.w3.org/TR/2001/REC-SVG-20010904/DTD/svg10.dtd">
<svg version="1.0" xmlns="http://www.w3.org/2000/svg"
 width="1500.000000pt" height="1500.000000pt" viewBox="0 0 1500.000000 1500.000000"
 preserveAspectRatio="xMidYMid meet">
<metadata>
Created by potrace 1.16, written by Peter Selinger 2001-2019
</metadata>
<g transform="translate(0.000000,1500.000000) scale(0.100000,-0.100000)"
fill="none" stroke="#000000">
<path d="M10794 11295 c-94 -17 -183 -58 -229 -105 l-37 -38 9 -301 8 -302
-33 -27 c-58 -48 -74 -129 -47 -237 22 -86 63 -161 121 -225 l51 -55 2 -616 2
-617 -53 -6 c-82 -10 -724 -66 -753 -66 l-25 0 0 235 c0 152 4 235 10 235 6 0
19 15 30 33 25 41 28 153 4 202 -27 58 -106 107 -232 145 l-72 22 0 41 c0 106
-60 190 -156 218 -72 21 -237 19 -296 -4 -82 -32 -128 -110 -128 -217 0 -26
-5 -30 -42 -40 -98 -24 -125 -33 -171 -58 -89 -48 -125 -118 -112 -219 5 -44
14 -61 46 -95 l39 -42 -2 -270 -3 -271 -513 -50 c-282 -28 -515 -49 -518 -46
-2 2 -4 150 -4 328 0 374 -5 356 97 368 70 8 118 22 131 38 9 10 16 146 13
260 -1 51 -25 71 -102 87 -99 20 -123 33 -218 121 -231 213 -480 337 -813 403
-185 38 -360 49 -628 43 -280 -6 -337 -14 -985 -122 -275 -47 -594 -100 -710
-120 -664 -111 -1503 -249 -1650 -271 -522 -78 -764 -179 -1020 -426 -101 -97
-103 -98 -151 -98 -64 0 -122 -17 -133 -38 -16 -31 -22 -109 -15 -188 6 -63
12 -83 31 -102 23 -23 27 -24 124 -17 l99 7 0 -1337 c0 -1494 -5 -1394 69
-1415 20 -5 74 -10 120 -10 77 0 88 -3 133 -31 26 -17 48 -33 48 -36 0 -3 -11
-36 -24 -73 -32 -88 -56 -215 -56 -296 l0 -64 -32 0 c-18 0 -143 9 -278 20
-314 25 -366 25 -407 0 -86 -52 -95 -181 -18 -249 40 -35 98 -46 315 -61 85
-6 193 -15 240 -20 47 -5 126 -12 177 -15 l92 -7 31 -48 c42 -65 130 -147 187
-173 41 -18 68 -22 173 -23 69 0 150 -7 179 -14 41 -10 103 -11 248 -6 l193 7
57 -41 c73 -52 138 -71 238 -70 44 1 89 1 100 0 63 -7 207 1 320 16 148 21
242 22 335 2 64 -14 65 -14 71 -53 8 -47 56 -95 97 -95 15 0 133 12 262 27
l235 26 140 -17 c204 -26 192 -21 199 -68 15 -93 72 -127 184 -109 37 6 141
22 232 37 l164 26 232 -33 232 -32 11 -57 c12 -61 38 -94 81 -105 14 -3 93 6
175 20 288 48 338 50 540 25 99 -12 189 -26 201 -30 16 -7 23 -20 28 -58 8
-63 46 -107 100 -118 25 -4 104 4 234 25 354 56 317 55 597 19 l250 -33 7 -44
c9 -54 29 -86 71 -112 38 -24 54 -23 322 20 307 50 288 50 752 -16 39 -5 42
-8 48 -44 14 -80 80 -139 156 -139 20 0 128 18 240 41 243 48 260 48 646 -1
l262 -34 11 -53 c18 -86 82 -143 159 -143 41 0 286 46 404 75 76 20 143 27
300 35 296 14 518 47 743 111 79 22 121 29 154 25 25 -3 178 -21 340 -40 162
-20 340 -43 394 -52 119 -20 185 -14 237 21 108 71 103 251 -9 309 -43 22
-119 33 -512 76 -201 22 -430 49 -510 60 -80 10 -162 19 -182 20 -21 0 -38 4
-38 8 0 4 29 22 66 40 57 28 80 34 192 42 277 22 312 28 352 54 74 49 113 191
73 266 -10 19 -153 208 -318 420 -569 732 -691 891 -693 904 -1 4 28 10 65 12
86 6 124 18 154 50 22 24 24 35 28 145 4 153 -4 204 -36 237 l-25 25 -244 -7
-244 -7 -2 138 c-4 219 -3 224 41 305 92 170 141 397 141 655 0 233 -40 428
-130 628 -75 167 -223 347 -358 436 -66 43 -191 94 -252 101 l-25 3 -3 605 -2
605 30 20 c74 49 147 187 157 297 8 82 -3 122 -44 165 l-35 38 1 160 c1 88 4
224 7 303 l7 143 -46 43 c-99 96 -319 138 -523 101z m368 -147 c44 -20 59 -33
64 -54 8 -30 -1 -483 -10 -491 -3 -3 -40 3 -83 13 -100 24 -299 24 -393 1 -35
-9 -66 -15 -68 -13 -2 2 -6 116 -9 253 l-6 249 35 22 c65 40 132 52 278 49
122 -2 141 -5 192 -29z m-50 -658 c46 -11 94 -20 109 -20 15 0 38 -13 58 -34
33 -34 34 -37 27 -93 -3 -32 -19 -83 -34 -113 -32 -65 -38 -66 -171 -30 -70
18 -103 21 -205 18 -108 -3 -127 -6 -176 -30 l-55 -27 -21 20 c-51 48 -87 190
-62 239 8 15 27 28 48 33 19 5 60 17 90 28 72 24 87 26 207 28 71 1 127 -5
185 -19z m-29 -414 l37 -16 -2 -622 -3 -622 -150 -18 c-82 -9 -162 -17 -177
-17 l-28 -1 0 649 0 649 48 10 c67 15 228 8 275 -12z m-4261 -86 c192 -40 382
-119 544 -226 83 -55 264 -208 264 -224 0 -16 37 -30 108 -43 l67 -12 0 -70 0
-70 -87 0 c-78 0 -89 -2 -112 -24 l-26 -24 0 -394 c0 -346 -2 -394 -15 -400
-9 -3 -18 -3 -21 -1 -2 3 -6 149 -7 324 -3 472 11 454 -381 487 -140 11 -268
17 -289 13 -47 -9 -99 -59 -115 -113 -15 -49 -17 -1295 -3 -1357 6 -24 25 -55
51 -81 l42 -43 -7 -61 -7 -61 -96 0 c-54 0 -284 7 -512 15 -228 8 -441 15
-472 15 l-58 0 0 864 c0 988 9 903 -89 892 -31 -3 -72 -8 -91 -12 -33 -5 -37
-3 -62 37 -20 31 -28 56 -28 88 0 42 4 49 58 101 106 103 327 239 504 309 86
34 254 77 353 90 111 15 374 5 487 -19z m-1052 2 c-94 -64 -219 -157 -301
-222 l-96 -76 -114 -17 c-63 -9 -307 -46 -542 -81 -236 -36 -472 -72 -525 -80
-315 -48 -1367 -208 -1417 -216 -33 -6 -195 -30 -360 -55 -165 -25 -340 -52
-389 -60 -50 -8 -92 -12 -94 -10 -16 16 147 129 283 198 130 65 223 95 328
108 50 6 229 33 397 60 168 27 418 68 555 90 726 117 1325 217 1705 284 509
90 527 92 565 93 l30 1 -25 -17z m3600 -278 c47 -19 60 -38 60 -90 l0 -37 -46
7 c-26 3 -102 6 -170 6 l-124 0 0 33 c0 33 21 61 65 85 31 17 168 15 215 -4z
m-4060 -202 c0 -27 7 -70 16 -96 9 -26 15 -49 13 -50 -2 -2 -402 -54 -889
-115 -487 -61 -1316 -165 -1844 -232 -785 -99 -960 -118 -967 -107 -5 7 -9 32
-9 55 0 37 3 42 27 47 16 3 287 44 603 91 316 47 769 115 1005 150 237 35 689
103 1005 150 598 89 947 141 990 148 14 2 31 5 38 6 8 1 12 -15 12 -47z m4204
-57 c148 -31 246 -81 246 -127 0 -22 -17 -19 -80 12 -107 54 -283 85 -475 84
-164 -1 -252 -15 -357 -59 -82 -34 -82 -34 -86 -9 -7 45 78 83 243 110 107 18
402 11 509 -11z m-35 -164 c46 -12 112 -35 146 -50 l62 -28 6 -66 c6 -65 0
-392 -8 -433 -3 -13 -44 -47 -107 -91 -136 -93 -216 -136 -313 -169 -173 -59
-368 -22 -402 76 -8 24 -12 137 -12 367 l-1 332 27 20 c59 47 197 71 383 67
99 -2 157 -9 219 -25z m-3891 -828 l-3 -818 -52 -3 -53 -3 0 815 c0 767 1 815
18 819 9 3 34 5 55 6 l37 1 -2 -817z m-213 -19 l0 -809 -120 -3 c-66 -1 -246
-6 -400 -11 -154 -5 -283 -6 -287 -4 -5 2 -8 345 -8 763 l0 758 88 13 c48 7
227 33 397 59 171 26 315 46 320 45 7 -1 10 -279 10 -811z m1803 706 c103 -11
199 -23 215 -26 l27 -6 0 -317 0 -318 -82 -6 c-46 -4 -160 -7 -255 -7 l-171 0
-7 103 c-9 129 -3 568 8 585 11 16 47 15 265 -8z m-2760 -788 l2 -751 -32 -5
c-18 -3 -184 -8 -368 -11 -184 -3 -359 -8 -387 -11 l-53 -6 0 715 0 716 53 6
c28 4 212 28 407 55 195 26 360 47 365 45 7 -1 11 -262 13 -753z m-978 -81 l0
-698 -172 -7 c-95 -3 -266 -9 -380 -12 l-208 -7 0 667 c0 366 1 666 3 666 72
13 668 88 705 89 l52 1 0 -699z m-896 222 c3 -203 6 -497 6 -655 l-1 -286 -37
-6 c-20 -3 -169 -8 -329 -12 l-293 -6 -1 43 c-2 75 3 1214 5 1216 4 4 564 71
602 72 l41 1 7 -367z m8768 164 c255 -81 469 -369 553 -747 11 -46 19 -140 22
-245 4 -146 2 -184 -16 -271 -29 -140 -64 -241 -128 -366 -77 -151 -159 -263
-298 -405 l-120 -123 -65 0 c-139 0 -299 58 -429 156 -172 129 -319 379 -385
654 -62 255 -61 453 0 695 75 292 229 521 417 617 119 60 320 76 449 35z
m-662 -32 c0 -3 -26 -32 -57 -63 -68 -69 -139 -176 -188 -287 l-37 -82 -52 -6
c-80 -9 -806 -31 -812 -24 -3 3 8 31 26 62 65 114 247 320 291 329 18 4 719
68 812 75 9 0 17 -1 17 -4z m-1940 -152 c0 -3 -13 -27 -29 -52 -17 -25 -60
-107 -96 -183 l-66 -136 -67 -6 c-37 -3 -148 -10 -247 -16 -99 -5 -210 -12
-248 -15 -56 -4 -69 -2 -74 11 -19 49 164 291 255 338 22 11 77 21 155 27 111
9 391 35 410 38 4 0 7 -2 7 -6z m777 -126 c-40 -56 -83 -126 -96 -154 l-24
-51 -116 -6 c-64 -4 -221 -13 -350 -22 -254 -17 -256 -16 -241 37 12 42 90
185 120 219 l25 30 56 -35 c153 -95 353 -82 589 38 47 24 90 44 97 45 6 1 -21
-44 -60 -101z m-1578 -13 c-28 -37 -77 -113 -110 -169 l-61 -103 -106 -6
c-225 -13 -542 -19 -542 -10 0 14 51 95 90 147 42 54 122 114 186 139 52 21
396 64 531 67 l62 1 -50 -66z m-802 -56 c-53 -53 -89 -101 -131 -175 -31 -57
-59 -103 -62 -103 -2 0 -4 79 -4 175 l0 175 135 0 136 0 -74 -72z m3229 -245
c-15 -71 -36 -232 -42 -330 -9 -147 9 -293 56 -465 21 -78 37 -144 36 -146 -2
-1 -199 -6 -438 -9 l-434 -6 -26 55 c-67 140 -101 304 -101 483 0 137 10 214
45 333 20 69 22 72 52 72 17 0 163 7 326 15 162 8 331 16 375 18 44 2 97 4
118 5 37 2 38 1 33 -25z m-1010 -26 c3 -8 -7 -67 -22 -133 -49 -217 -37 -411
42 -670 19 -63 34 -116 34 -118 0 -3 -138 -5 -307 -6 -170 0 -335 -3 -368 -6
-134 -12 -151 13 -167 241 -16 236 12 538 59 634 l18 36 275 16 c369 21 429
22 436 6z m-846 -57 c0 -17 -9 -71 -20 -121 -41 -184 -45 -363 -14 -669 3 -30
1 -61 -5 -69 -7 -12 -59 -15 -272 -19 -317 -5 -343 -2 -365 39 -34 67 -57 340
-44 519 9 108 40 268 59 299 9 14 392 47 569 50 l92 1 0 -30z m-786 -50 c0
-19 -8 -71 -19 -115 -27 -123 -26 -441 3 -589 12 -60 21 -111 19 -112 -6 -7
-709 -5 -715 1 -4 4 -7 131 -7 283 0 285 7 356 51 509 l15 52 152 4 c84 1 231
3 327 2 l175 0 -1 -35z m-2104 -795 c0 -311 -3 -395 -15 -442 -9 -32 -27 -141
-40 -243 -27 -201 -29 -210 -45 -210 -7 0 -10 207 -10 640 l0 640 55 0 55 0 0
-385z m-210 -253 c0 -346 -2 -631 -4 -633 -3 -2 -109 1 -238 7 -128 7 -311 15
-405 19 l-173 7 0 604 0 604 28 1 c120 6 460 16 610 17 l182 2 0 -628z m1444
441 c3 -104 13 -228 21 -278 8 -49 14 -99 15 -110 0 -20 -4 -20 -282 -13 -156
5 -389 9 -519 10 l-235 3 -64 -33 c-35 -18 -64 -31 -64 -30 -1 2 0 146 2 321
l4 317 557 0 558 0 7 -187z m-2384 -433 l0 -600 -22 0 c-13 0 -203 9 -423 20
-220 11 -406 20 -412 20 -10 0 -13 121 -13 570 0 449 3 570 13 571 31 4 501
15 670 17 l187 2 0 -600z m-992 13 l2 -563 -67 0 c-38 0 -203 7 -368 15 -165
8 -310 15 -322 15 l-23 0 0 540 0 540 73 1 c39 1 182 5 317 9 135 4 277 6 315
6 l70 -1 3 -562z m-903 7 c0 -351 -3 -534 -10 -533 -5 0 -116 4 -245 7 -129 4
-272 9 -318 12 l-82 6 2 516 3 517 270 5 c149 3 295 6 325 5 l55 0 0 -535z
m5208 25 c9 -20 17 -37 17 -39 0 -2 -26 -2 -57 0 -32 2 -198 5 -369 8 -172 2
-317 7 -323 10 -6 4 -11 18 -11 32 l0 24 363 0 363 0 17 -35z m758 6 c42 -51
44 -51 -295 -51 -173 0 -317 3 -319 8 -2 4 -7 19 -11 34 -4 20 -2 28 11 32 10
3 148 4 307 3 l288 -3 19 -23z m1978 -30 l24 -44 -544 6 c-299 4 -701 7 -894
8 -192 0 -366 3 -386 6 -34 5 -59 32 -59 64 0 6 337 8 917 7 l918 -3 24 -44z
m-4299 -96 c436 -19 1106 -36 1760 -45 1508 -19 2098 -34 2177 -56 106 -29
184 -120 218 -252 9 -37 19 -124 22 -194 l6 -128 -45 0 c-25 0 -65 -3 -90 -6
l-45 -6 -6 84 c-15 184 -65 260 -187 281 -19 4 -363 11 -765 17 -1003 14
-1557 32 -2640 86 -676 34 -667 34 -702 9 -53 -39 -79 -113 -127 -370 -25
-132 -48 -250 -51 -263 -5 -21 -10 -23 -73 -20 -47 2 -66 7 -65 15 12 57 46
289 63 423 34 265 54 322 142 393 47 37 90 46 198 41 47 -2 141 -6 210 -9z
m6060 -459 l0 -94 -62 -6 c-55 -5 -536 -29 -1416 -69 -140 -7 -258 -9 -263 -6
-5 3 -14 46 -19 95 -6 49 -12 94 -15 101 -6 18 40 20 755 43 360 11 669 22
685 24 17 1 99 4 183 4 l152 2 0 -94z m-5575 14 c151 -65 294 -251 345 -449
l18 -66 -75 -3 c-43 -2 -80 2 -88 8 -7 6 -21 34 -30 63 -42 129 -149 250 -250
282 -192 60 -370 -88 -446 -371 -31 -112 -31 -325 0 -439 80 -303 283 -470
486 -402 117 40 205 165 255 365 l11 42 54 0 c95 0 96 -2 65 -124 -45 -171
-157 -330 -271 -384 -106 -51 -240 -47 -356 9 -147 71 -262 272 -309 539 -25
147 -15 395 20 515 63 210 185 366 335 427 59 24 165 19 236 -12z m2115 -77
c218 -59 401 -270 486 -558 36 -123 44 -327 20 -475 -50 -297 -177 -507 -382
-630 -57 -34 -61 -35 -164 -34 -167 1 -264 33 -369 122 -136 116 -237 284
-271 453 -11 51 -17 95 -14 98 5 6 55 -21 100 -55 l32 -23 3 -114 c4 -107 6
-118 39 -183 21 -41 48 -77 67 -90 43 -28 232 -59 311 -50 257 30 466 343 464
696 0 139 -23 236 -83 360 -53 107 -171 231 -264 276 -55 26 -69 29 -165 29
-96 0 -110 -3 -165 -29 -68 -34 -145 -106 -195 -183 -29 -46 -37 -53 -67 -53
l-33 0 21 53 c44 112 94 193 164 263 133 135 285 176 465 127z m-6398 -38
c181 -8 346 -15 368 -15 l40 0 0 -55 0 -55 -62 0 c-35 0 -227 9 -428 20 -201
11 -377 20 -392 20 -27 0 -28 2 -28 55 l0 56 88 -6 c48 -3 234 -12 414 -20z
m1460 -65 c480 -22 1011 -47 1180 -55 169 -8 341 -15 383 -15 l77 0 -7 -67
c-4 -38 -11 -72 -17 -78 -11 -13 23 -14 -1103 55 -528 33 -1050 64 -1160 70
-110 5 -221 13 -247 16 l-48 6 0 54 0 54 35 0 c19 0 427 -18 907 -40z m2742
-90 c62 -23 142 -126 171 -218 l7 -24 -79 6 c-167 14 -151 6 -215 104 -32 49
-58 93 -58 99 0 30 122 53 174 33z m4401 -150 c19 -63 58 -213 86 -335 28
-121 102 -426 165 -678 63 -253 111 -464 107 -469 -8 -13 -332 -3 -346 11 -8
8 -15 178 -36 916 -6 198 -14 432 -17 520 -4 88 -4 157 0 154 3 -3 21 -57 41
-119z m173 66 c111 -56 114 -62 267 -451 154 -390 212 -534 313 -775 70 -166
109 -276 101 -284 -2 -2 -84 -10 -183 -18 -177 -14 -178 -14 -187 7 -5 11 -95
362 -200 780 -105 418 -193 763 -196 768 -9 15 20 6 85 -27z m960 -98 c54 -68
204 -262 333 -433 130 -170 306 -402 393 -515 189 -245 194 -252 172 -303 -15
-37 -38 -52 -88 -58 -23 -3 -43 23 -240 316 -118 176 -265 392 -328 480 -227
320 -301 429 -298 445 2 8 -9 42 -23 75 -32 72 -43 115 -30 115 6 0 55 -55
109 -122z m-9574 102 c114 -10 117 -12 167 -118 44 -95 62 -181 62 -312 0
-130 -16 -207 -64 -303 -36 -71 -111 -155 -156 -173 -82 -35 -203 0 -263 76
-78 98 -118 223 -126 390 -9 180 26 308 111 408 36 42 37 42 103 42 37 -1 112
-5 166 -10z m6124 -5 l51 -15 -15 -53 c-29 -101 -66 -207 -72 -207 -3 0 -32 7
-64 17 l-59 16 -45 90 c-25 49 -43 96 -40 104 9 22 106 62 152 62 22 1 63 -6
92 -14z m2942 -135 c48 -80 145 -255 215 -390 70 -135 186 -350 256 -478 71
-127 154 -281 184 -342 l55 -109 -33 -6 c-28 -5 -291 -35 -309 -35 -5 0 -399
979 -556 1380 -3 8 18 -5 48 -30 l53 -45 -6 40 c-18 115 -20 168 -7 163 7 -2
52 -69 100 -148z m-900 135 c0 -5 -96 -471 -235 -1140 -36 -171 -65 -314 -65
-319 0 -17 -220 21 -227 40 -3 7 95 316 218 686 199 603 225 676 254 705 29
29 55 42 55 28z m-7712 -30 c3 -3 -61 -107 -91 -149 -23 -33 -44 -12 -71 74
-14 45 -26 82 -26 84 0 4 183 -5 188 -9z m8745 -11 c72 -37 138 -81 165 -113
77 -88 852 -1227 852 -1252 0 -5 -6 -9 -12 -9 -7 0 -67 -7 -133 -15 -66 -8
-129 -15 -141 -15 -16 0 -33 23 -76 103 -31 56 -199 368 -375 692 -379 699
-345 635 -338 635 3 0 29 -12 58 -26z m-8231 -15 c46 -12 122 -98 162 -182
106 -224 60 -530 -106 -712 -75 -82 -124 -103 -198 -85 -75 18 -157 83 -216
172 -162 241 -149 590 28 772 l53 54 120 -5 c66 -3 137 -9 157 -14z m5343 -71
c47 -53 140 -228 133 -250 -3 -7 -44 -20 -94 -29 l-89 -17 -35 41 c-19 22 -39
46 -43 54 -9 15 61 253 74 253 4 0 28 -23 54 -52z m-3950 -13 c396 -25 726
-47 733 -50 8 -3 12 -34 12 -105 l0 -101 -47 6 c-27 3 -390 35 -807 70 -418
36 -761 67 -763 68 -5 6 -53 150 -53 160 0 6 39 7 103 3 56 -3 426 -27 822
-51z m-1020 -66 c46 -148 54 -284 24 -455 -14 -82 -18 -87 -57 -73 -31 11 -32
12 -24 52 4 23 7 114 6 202 -1 140 -4 172 -27 258 -15 53 -27 99 -27 102 0 2
11 0 25 -5 22 -8 25 -7 25 13 1 22 1 22 16 2 8 -11 25 -54 39 -96z m6928 -66
c3 -60 13 -216 21 -348 19 -297 36 -678 36 -808 l0 -98 -67 6 c-145 13 -278
26 -281 29 -3 4 52 270 178 866 39 184 76 363 82 398 6 34 14 62 18 62 4 0 10
-48 13 -107z m-4497 15 c98 -94 93 -171 -14 -246 -35 -24 -66 -42 -69 -38 -3
3 -8 47 -11 99 -5 97 13 237 30 237 5 0 34 -24 64 -52z m1642 -24 c369 -6 384
-7 414 -28 54 -36 72 -70 76 -141 5 -80 -11 -142 -48 -187 -26 -31 -32 -33
-83 -31 -30 1 -97 13 -148 27 -215 57 -575 102 -1299 161 -301 24 -296 24
-324 50 -21 19 -26 34 -26 69 0 38 5 48 32 71 l32 27 496 -6 c272 -3 667 -9
878 -12z m-5026 -146 c-2 -62 1 -153 7 -202 7 -48 10 -91 7 -93 -3 -3 -25 -8
-51 -10 -54 -7 -52 -11 -25 118 12 56 20 133 20 191 0 81 3 99 17 107 10 5 20
8 24 5 3 -2 4 -54 1 -116z m2038 -38 c465 -39 875 -73 911 -77 l67 -6 30 -123
c37 -147 77 -248 139 -344 25 -39 44 -73 42 -75 -3 -3 -728 94 -1339 179 -96
13 -320 44 -498 67 -309 42 -323 44 -319 64 28 118 37 177 43 276 l7 117 36
-4 c20 -3 416 -36 881 -74z m3656 39 c49 -30 74 -77 74 -138 0 -45 -4 -57 -30
-83 -28 -27 -36 -30 -76 -25 -25 2 -47 7 -49 9 -2 2 2 26 11 53 8 28 18 85 21
128 3 42 8 77 11 77 2 0 20 -9 38 -21z m1187 -136 c41 -221 36 -271 -34 -341
-39 -40 -66 -54 -139 -76 -54 -16 -289 -51 -296 -44 -2 2 8 38 21 80 20 64 47
221 57 335 3 31 5 30 91 -73 55 -65 95 -104 107 -104 25 0 35 22 101 213 29
86 56 157 59 157 4 0 18 -66 33 -147z m-800 -12 c-3 -86 -20 -174 -51 -248 -9
-24 -20 -42 -24 -40 -3 1 -40 40 -81 86 -69 77 -74 87 -65 110 5 14 15 53 22
86 l12 60 74 17 c118 26 115 28 113 -71z m-7274 -1 c172 -10 315 -21 318 -23
2 -2 8 -18 13 -36 10 -37 23 -36 -165 -16 -77 8 -210 19 -295 25 -186 13 -230
23 -230 50 0 24 -29 24 359 0z m4989 -40 c60 0 59 7 20 -98 -38 -102 -119
-182 -185 -182 -28 0 -33 3 -29 18 3 9 17 67 31 127 37 160 31 148 74 141 20
-3 60 -6 89 -6z m647 -39 l40 -6 -78 -48 c-68 -41 -192 -85 -205 -72 -2 2 2
36 9 75 l13 72 90 -7 c50 -4 109 -10 131 -14z m590 -128 c12 -79 54 -213 95
-300 46 -98 87 -160 154 -231 27 -29 47 -54 45 -56 -2 -2 -150 16 -329 40
-179 24 -467 62 -640 84 -173 22 -332 43 -353 46 l-37 6 41 46 c23 26 52 66
66 90 16 27 34 44 51 48 83 19 115 30 192 70 58 30 142 60 265 94 99 27 223
62 275 79 52 16 111 30 131 30 36 1 37 0 44 -46z m848 -78 l89 -96 -17 -26
c-50 -75 -201 -181 -225 -157 -9 9 -25 117 -36 245 l-6 76 43 26 c24 14 49 25
54 26 6 1 50 -42 98 -94z m-282 23 c4 -6 10 -49 13 -96 4 -48 12 -109 17 -136
5 -28 6 -53 1 -58 -13 -13 -95 47 -151 112 l-52 60 19 53 c11 28 25 64 31 79
l10 26 53 -15 c29 -9 56 -20 59 -25z m1713 3 c5 -8 -54 -187 -149 -449 -52
-142 -56 -188 -21 -221 28 -26 117 -56 197 -66 70 -9 83 -16 74 -44 -7 -24
-19 -25 -120 -10 -237 34 -1163 149 -1205 149 -5 0 27 36 73 79 45 44 105 113
132 154 l50 75 69 7 c169 16 345 52 413 84 82 39 152 109 191 192 l27 59 132
0 c72 0 134 -4 137 -9z m-6044 -111 c217 -28 445 -57 505 -65 61 -8 180 -24
265 -35 85 -11 207 -27 270 -35 132 -17 338 -44 1730 -225 1291 -168 1607
-209 2500 -325 404 -53 836 -109 960 -125 1431 -185 1777 -230 1790 -233 19
-4 -90 -24 -205 -37 -227 -25 -402 -12 -1120 85 -482 65 -1342 178 -1710 225
-782 99 -1117 144 -1355 180 -140 22 -664 96 -1165 165 -500 69 -1070 148
-1265 176 -653 92 -974 137 -1165 164 -104 14 -263 37 -352 52 l-162 25 17 35
c13 28 20 33 42 29 14 -3 203 -28 420 -56z m6570 -715 c91 -3 239 -15 330 -26
91 -11 184 -23 208 -25 33 -4 42 -9 42 -24 0 -16 -5 -19 -27 -15 -16 3 -194
23 -398 45 -203 23 -383 45 -400 50 -24 8 -19 9 25 5 30 -3 129 -7 220 -10z
m1260 -35 c219 -32 939 -126 1230 -160 233 -27 351 -45 367 -55 42 -28 21 -95
-30 -95 -27 0 -57 4 -742 85 -302 36 -703 84 -890 105 -383 45 -485 60 -485
69 0 12 319 58 405 59 44 1 109 -3 145 -8z"/>
<path d="M5819 9383 c-17 -15 -37 -41 -44 -58 -19 -44 -24 -1460 -6 -1524 16
-56 66 -108 112 -115 68 -11 619 -24 655 -16 43 10 79 34 108 74 21 27 21 38
24 737 2 478 -1 723 -8 750 -15 53 -63 106 -109 119 -20 5 -88 14 -151 20 -63
5 -182 17 -265 25 -227 23 -276 21 -316 -12z m336 -153 c222 -20 305 -32 325
-49 19 -16 20 -33 21 -669 0 -524 -2 -656 -13 -669 -11 -14 -37 -15 -213 -8
-110 4 -231 10 -270 14 l-70 6 -5 665 c-3 366 -3 677 -1 693 3 26 6 27 60 27
31 0 106 -4 166 -10z"/>
<path d="M5055 9109 c-66 -10 -171 -23 -233 -29 -63 -6 -126 -17 -141 -24 -57
-30 -56 -20 -59 -656 -3 -654 -3 -652 58 -682 32 -15 58 -15 295 -4 270 12
286 15 316 60 19 28 26 1254 8 1299 -26 62 -52 66 -244 36z m107 -151 c3 -7 3
-252 0 -545 l-5 -531 -81 -6 c-44 -3 -111 -7 -148 -10 l-68 -4 0 538 0 537
123 15 c160 20 174 20 179 6z"/>
<path d="M4155 8979 c-33 -4 -143 -17 -244 -29 -196 -22 -242 -35 -262 -71 -9
-17 -11 -157 -10 -578 2 -598 3 -605 55 -629 15 -7 116 -7 317 0 254 8 297 12
319 27 51 36 50 30 52 640 2 561 2 571 -18 598 -39 53 -76 60 -209 42z m69
-165 c3 -9 6 -233 6 -499 l0 -483 -62 -6 c-35 -3 -118 -7 -185 -10 l-123 -4 0
492 0 492 133 16 c185 21 224 22 231 2z"/>
<path d="M3056 8864 c-233 -25 -280 -38 -303 -84 -10 -19 -13 -145 -11 -557
l3 -533 26 -25 26 -26 247 1 c188 0 256 4 281 14 66 28 64 7 71 588 4 381 3
536 -5 561 -14 43 -47 73 -86 80 -16 3 -129 -6 -249 -19z m144 -126 c7 -34 10
-937 4 -941 -5 -3 -67 -8 -137 -12 l-127 -8 0 466 0 466 43 6 c179 24 216 28
217 23z"/>
<path d="M2175 8764 c-71 -8 -149 -21 -173 -30 -75 -28 -73 -9 -70 -575 l3
-501 34 -30 33 -30 212 7 c148 5 219 12 238 21 58 30 58 28 58 561 0 305 -4
502 -10 525 -21 73 -61 79 -325 52z m155 -567 l0 -444 -101 -6 c-56 -4 -106
-4 -110 -1 -5 3 -9 200 -9 438 l0 434 88 9 c48 6 97 11 110 12 l22 1 0 -443z"/>
<path d="M11415 8251 c-117 -30 -215 -119 -279 -254 -68 -142 -81 -204 -81
-397 0 -141 3 -177 23 -250 70 -259 211 -410 384 -412 137 -3 235 77 169 136
-18 16 -23 16 -89 -4 -79 -24 -123 -19 -178 22 -133 98 -216 375 -185 614 41
311 216 497 385 409 38 -20 59 -19 79 3 23 25 21 45 -7 75 -44 47 -152 76
-221 58z"/>
<path d="M11433 7905 c-129 -78 -179 -313 -103 -491 22 -50 82 -119 121 -140
88 -45 198 14 255 138 23 53 29 80 32 164 5 118 -10 184 -59 257 -61 93 -161
122 -246 72z m116 -99 c36 -19 55 -49 75 -116 9 -30 16 -55 16 -58 0 -2 -14 8
-31 22 -37 32 -41 32 -75 3 -23 -20 -28 -34 -32 -84 -3 -43 0 -69 13 -92 15
-29 21 -33 51 -29 21 3 34 0 34 -8 0 -18 -38 -62 -60 -69 -30 -9 -77 29 -107
88 -22 43 -27 65 -27 132 -1 68 3 88 26 131 15 29 40 61 55 73 34 25 28 24 62
7z"/>
<path d="M2385 5921 c-52 -24 -109 -84 -134 -141 -49 -114 -47 -295 5 -409 64
-140 194 -200 292 -133 50 34 75 65 110 139 25 54 27 67 27 188 0 113 -3 138
-23 188 -62 154 -169 218 -277 168z m127 -311 c21 -6 40 -15 43 -20 20 -33
-77 -93 -142 -88 -34 3 -38 6 -41 34 -2 19 5 40 18 57 24 30 58 34 122 17z"/>
<path d="M3255 5847 c-111 -63 -177 -309 -131 -484 32 -119 104 -210 182 -232
52 -15 59 -14 102 8 84 43 152 157 172 288 27 176 -49 384 -157 429 -50 21
-122 17 -168 -9z m169 -308 c15 -11 26 -31 26 -44 0 -42 -158 -90 -181 -54
-17 26 -9 61 20 90 37 36 94 40 135 8z"/>
</g>
</svg>
