<?xml version="1.0" standalone="no"?>
<!DOCTYPE svg PUBLIC "-//W3C//DTD SVG 20010904//EN"
 "http://www.w3.org/TR/2001/REC-SVG-20010904/DTD/svg10.dtd">
<svg version="1.0" xmlns="http://www.w3.org/2000/svg"
 width="1500.000000pt" height="1167.000000pt" viewBox="0 0 1500.000000 1167.000000"
 preserveAspectRatio="xMidYMid meet">
<metadata>
Created by potrace 1.16, written by Peter Selinger 2001-2019
</metadata>
<g transform="translate(0.000000,1167.000000) scale(0.100000,-0.100000)"
fill="none" stroke="#000000">
<path d="M7515 10420 c-17 -6 -21 -19 -25 -81 l-5 -74 -84 -2 c-55 -1 -88 -6
-97 -15 -10 -10 -14 -65 -16 -234 -3 -254 -5 -249 86 -283 l51 -19 3 -88 c2
-61 -1 -95 -10 -106 -7 -9 -229 -117 -493 -238 -264 -122 -495 -233 -514 -247
-67 -51 -65 -38 -69 -653 -2 -305 -7 -559 -11 -563 -4 -4 -129 37 -277 92
-395 146 -458 171 -471 184 -8 8 -13 53 -14 126 -1 100 1 116 17 128 10 7 26
13 35 13 10 0 27 12 38 26 18 23 21 41 21 135 0 59 -3 114 -6 123 -5 13 -22
16 -85 16 l-79 0 0 264 c0 256 -7 322 -31 314 -8 -3 -11 -86 -10 -285 l2 -281
-95 -4 c-59 -2 -100 -8 -108 -16 -8 -8 -12 -49 -13 -132 0 -138 4 -147 81
-158 l49 -7 3 -121 c2 -104 0 -124 -15 -143 -18 -22 -118 -60 -531 -202 -231
-79 -269 -96 -305 -138 -47 -56 -49 -96 -46 -779 l4 -635 -55 -46 c-114 -96
-178 -165 -190 -208 -11 -37 -10 -46 7 -80 13 -24 34 -45 61 -58 l41 -20 -2
-179 -2 -178 -165 -50 c-386 -115 -443 -135 -488 -174 -82 -70 -92 -122 -34
-185 l37 -42 0 -200 0 -201 -83 -16 c-45 -9 -87 -21 -93 -27 -6 -6 -10 -64
-10 -144 1 -116 3 -136 18 -147 10 -7 29 -10 43 -8 14 3 42 8 62 12 l38 6 0
-191 0 -191 -423 0 c-323 0 -427 -3 -440 -13 -13 -10 -16 -37 -19 -164 -3
-144 -4 -153 -26 -173 -16 -15 -21 -28 -16 -43 7 -24 284 -489 528 -887 171
-280 243 -424 314 -630 52 -151 152 -529 152 -574 0 -21 -10 -31 -60 -56 -107
-54 -233 -90 -356 -103 -154 -15 -238 -3 -349 52 -95 46 -125 51 -125 21 0
-60 158 -138 325 -161 153 -20 320 14 530 108 121 54 219 77 295 68 71 -8 195
-43 395 -110 233 -78 299 -90 495 -90 192 0 235 10 571 126 251 86 322 102
474 102 137 0 171 -9 478 -118 272 -97 317 -107 492 -112 136 -4 159 -2 248
21 55 14 149 46 210 72 219 92 272 107 377 107 112 0 155 -11 350 -86 397
-153 570 -153 925 -4 184 78 237 90 365 85 102 -4 110 -6 275 -73 94 -37 199
-76 233 -86 98 -28 235 -40 331 -29 111 13 167 30 346 106 168 71 251 94 341
94 79 0 227 -39 366 -95 181 -75 251 -89 413 -88 154 1 251 20 413 83 64 24
86 38 97 60 19 38 20 37 -14 43 -21 5 -48 -3 -98 -28 -135 -66 -301 -94 -457
-75 -118 14 -184 33 -354 100 -165 64 -215 78 -317 86 -109 9 -212 -13 -379
-81 -157 -63 -272 -100 -340 -109 l-49 -6 7 50 c18 138 100 393 186 582 82
181 160 311 399 663 696 1026 909 1356 1048 1622 44 84 81 140 120 180 30 32
104 114 164 181 141 161 142 162 95 333 -44 161 -79 249 -165 414 -172 332
-382 618 -692 940 -178 187 -204 229 -204 338 0 74 -2 80 -28 103 -21 18 -40
24 -77 24 -44 0 -55 5 -117 56 -113 92 -185 167 -205 212 -35 78 -58 227 -64
412 -8 263 -15 275 -199 335 -241 79 -612 253 -632 297 -6 13 -11 76 -11 140
0 124 10 158 48 158 10 0 28 12 40 27 20 26 21 35 15 123 -9 122 -16 130 -107
130 l-68 0 -1 53 c-6 276 -15 497 -21 503 -26 25 -37 -79 -37 -348 l-1 -208
-69 0 c-94 0 -96 -3 -96 -154 l0 -121 43 -9 42 -10 0 -88 c0 -48 -4 -88 -8
-88 -11 0 -655 434 -722 486 -30 24 -79 65 -109 92 -50 45 -54 53 -62 106 -11
84 -39 118 -154 189 -136 84 -365 277 -574 485 -111 109 -178 169 -184 163 -6
-6 -2 -22 11 -43 21 -33 226 -238 382 -381 l85 -78 -95 47 c-133 65 -429 223
-462 246 -27 19 -28 23 -28 108 l0 89 40 12 c22 7 44 17 49 23 11 14 18 487 7
504 -5 8 -37 12 -95 12 l-88 0 -5 65 c-7 85 -32 113 -83 95z m215 -335 l0
-105 -182 2 -183 3 -3 103 -3 102 186 0 185 0 0 -105z m-10 -220 l0 -55 -180
0 -180 0 0 55 0 55 180 0 180 0 0 -55z m-122 -472 l-3 -318 -42 0 c-24 0 -43
3 -43 8 0 4 0 147 0 317 l0 310 45 0 45 0 -2 -317z m-181 -30 c-4 -49 -14
-115 -22 -148 -9 -33 -21 -77 -26 -97 l-10 -38 -356 0 c-221 0 -353 4 -347 9
10 11 744 359 758 360 5 1 6 -37 3 -86z m645 -90 c180 -98 328 -181 328 -185
0 -16 -81 -20 -291 -16 -202 3 -221 5 -238 23 -15 17 -141 326 -141 348 0 4 3
7 7 7 4 0 155 -80 335 -177z m-308 -46 c25 -71 46 -133 46 -138 0 -5 -25 -9
-55 -9 l-55 0 0 147 c0 82 4 143 9 138 4 -6 29 -68 55 -138z m-416 -252 c6 -5
-91 -449 -143 -655 -92 -361 -182 -642 -304 -948 -57 -143 -194 -424 -214
-441 -9 -7 -37 -16 -61 -18 l-45 -5 -15 53 c-37 130 -43 236 -25 409 7 63 9
144 4 203 -7 97 -8 100 -56 170 l-50 72 6 535 c3 294 8 549 11 566 5 38 29 61
69 66 30 5 817 -3 823 -7z m476 1 c23 -10 39 -27 54 -57 132 -280 185 -388
288 -589 127 -247 356 -664 402 -734 57 -84 56 -83 60 -370 2 -149 1 -284 -2
-301 l-6 -31 -98 12 c-53 8 -123 13 -155 14 -72 0 -120 21 -146 64 -30 49
-142 340 -205 534 -65 200 -143 507 -180 702 -56 301 -126 744 -119 751 8 7
37 16 61 18 7 0 28 -5 46 -13z m-394 -1011 l0 -993 -62 -6 c-96 -9 -611 -37
-614 -33 -2 2 24 59 57 127 227 465 405 1030 534 1690 42 216 49 237 70 220
13 -11 15 -142 15 -1005z m180 10 l0 -1005 -45 0 -45 0 0 998 c0 549 3 1002 7
1005 3 4 24 7 45 7 l38 0 0 -1005z m961 937 l59 -63 0 -257 c0 -141 1 -421 2
-622 1 -204 -2 -364 -7 -364 -12 2 -219 366 -360 633 -107 203 -365 724 -365
737 0 2 138 4 306 2 l306 -3 59 -63z m269 -238 c189 -155 386 -294 643 -454
129 -80 155 -106 137 -139 -6 -11 -18 -25 -28 -30 -19 -10 -380 -149 -567
-218 -202 -75 -234 -102 -255 -223 -22 -130 -32 -170 -41 -170 -5 0 -9 260 -9
660 0 363 3 660 8 660 4 0 54 -39 112 -86z m-1090 -242 c76 -464 201 -920 365
-1323 36 -89 64 -163 63 -165 -2 -1 -104 2 -228 7 -193 8 -227 11 -237 26 -10
13 -13 206 -12 892 1 565 5 853 10 811 5 -36 23 -147 39 -248z m2130 113 l0
-75 -150 0 -150 0 0 65 c0 50 4 66 18 74 9 6 77 11 150 11 l132 0 0 -75z
m-4240 5 l0 -60 -160 0 -160 0 0 60 0 60 160 0 160 0 0 -60z m-32 -135 c3 -3
-14 -5 -37 -5 -57 0 -65 -22 -56 -165 5 -91 3 -113 -9 -130 -16 -20 -16 -20
-31 -1 -11 15 -15 49 -15 142 0 116 -1 124 -22 138 -12 9 -35 16 -50 16 -16 0
-28 3 -28 8 0 8 239 6 248 -3z m4161 -1137 c-1 -607 -4 -1114 -8 -1128 -4 -15
-15 -26 -29 -28 l-22 -3 0 1024 c0 563 -3 1072 -7 1130 l-6 107 36 0 37 0 -1
-1102z m-4379 637 l0 -115 -290 0 c-159 0 -290 4 -290 8 0 4 120 52 268 106
147 54 274 102 282 107 8 5 18 9 23 9 4 0 7 -52 7 -115z m525 -10 c127 -48
234 -92 239 -96 6 -5 -114 -9 -277 -9 l-287 0 0 115 0 115 48 -19 c26 -10 151
-58 277 -106z m4001 77 c43 -21 157 -74 252 -117 94 -44 172 -83 172 -89 0 -5
-59 -7 -152 -3 -83 4 -176 7 -206 7 -52 0 -57 2 -103 49 l-49 48 0 72 c0 39 2
71 3 71 2 0 39 -17 83 -38z m-296 -82 l0 -110 -257 0 c-174 0 -254 3 -247 10
7 7 435 185 502 209 1 1 2 -48 2 -109z m-4105 -202 c2 -13 4 -318 2 -678 -2
-632 -3 -655 -21 -658 -10 -2 -22 2 -27 10 -10 15 -12 1331 -2 1341 15 15 43
6 48 -15z m-131 6 c14 -6 16 -73 16 -664 0 -585 -2 -660 -16 -674 -13 -14 -63
-16 -394 -16 -335 0 -379 2 -384 16 -3 9 -6 300 -6 647 0 489 3 638 13 657
l13 25 229 5 c396 9 513 10 529 4z m4234 -10 c9 -3 12 -171 12 -798 0 -681 -2
-797 -15 -809 -18 -18 -80 -31 -99 -20 -15 8 -142 197 -171 253 -18 34 -17 37
17 54 22 11 23 16 23 141 -1 145 -10 175 -67 218 -42 32 -103 57 -137 57 -53
0 -90 40 -191 205 -53 88 -122 201 -153 252 -32 51 -57 104 -57 117 0 30 65
247 86 288 29 56 46 58 409 52 182 -3 336 -7 343 -10z m-3286 -404 c-3 -298
-7 -408 -16 -417 -6 -7 -83 -33 -171 -58 -203 -58 -318 -113 -360 -173 -26
-38 -30 -54 -33 -120 -2 -42 1 -96 6 -119 12 -51 8 -53 -94 -53 l-74 0 0 675
0 675 373 -2 372 -3 -3 -405z m3592 389 c30 -8 103 -71 337 -290 164 -154 303
-288 309 -299 11 -20 14 -645 4 -687 -3 -12 -18 -26 -32 -32 -53 -20 -674
-211 -688 -211 -12 0 -14 115 -14 759 0 812 -3 760 40 770 3 0 22 -4 44 -10z
m629 -11 c16 -12 17 -36 15 -257 l-3 -244 -272 252 c-150 139 -273 255 -273
257 0 2 116 4 258 4 191 0 263 -3 275 -12z m-4094 -430 c7 -40 24 -120 37
-178 35 -156 33 -170 -32 -170 -18 0 -24 5 -24 23 0 12 -1 106 -3 210 -1 103
0 187 3 187 3 0 12 -33 19 -72z m2437 -173 c122 -202 139 -235 120 -235 -11 0
-82 11 -156 25 -74 14 -137 25 -138 25 -2 0 -2 89 0 198 3 182 8 222 26 222 4
0 71 -106 148 -235z m1901 -161 c136 -114 157 -142 147 -199 -4 -22 -7 -72 -8
-112 -1 -40 -6 -77 -12 -83 -14 -14 -244 -93 -251 -86 -13 13 -9 576 4 576 3
0 57 -43 120 -96z m-2762 -40 c356 -24 719 -70 997 -128 236 -48 265 -66 268
-162 4 -99 7 -94 -52 -78 -127 32 -686 105 -1018 131 -325 25 -1179 26 -1430
0 -318 -32 -522 -67 -793 -134 -164 -41 -167 -41 -167 27 0 77 63 126 244 189
242 85 549 135 981 161 149 9 816 5 970 -6z m3045 -327 c0 -168 0 -171 -36
-281 -45 -141 -103 -379 -149 -616 -20 -102 -54 -271 -76 -376 -40 -191 -51
-285 -36 -301 13 -13 35 24 47 81 6 28 31 155 55 281 45 234 170 773 181 784
8 7 -3 -373 -17 -599 -47 -777 -240 -1540 -700 -2774 -102 -273 -139 -361
-154 -367 -17 -7 -276 -39 -282 -35 -3 2 334 1259 558 2081 169 618 247 895
386 1360 53 176 107 358 120 405 22 75 26 112 32 303 6 229 9 241 52 230 18
-5 19 -17 19 -176z m-3215 18 c331 -9 841 -57 1179 -110 88 -14 163 -25 168
-25 4 0 8 -95 8 -210 l0 -211 -62 6 c-35 3 -207 12 -383 20 -1033 48 -1713 48
-2290 -1 -179 -15 -573 -62 -586 -69 -3 -3 -9 80 -12 183 -6 202 -2 224 45
235 13 2 66 16 118 31 351 97 1063 172 1520 159 63 -1 196 -5 295 -8z m3371
-237 c333 -342 634 -758 786 -1087 54 -115 118 -311 125 -377 8 -76 -11 -69
-26 9 -69 355 -403 880 -826 1297 -64 63 -123 127 -131 142 -15 29 -19 88 -6
88 4 0 39 -33 78 -72z m-342 5 c-10 -7 -45 -22 -79 -32 -33 -10 -130 -41 -215
-69 -85 -28 -425 -134 -755 -236 -1400 -432 -1915 -620 -2725 -994 -401 -185
-1260 -621 -1329 -674 -13 -10 -29 -18 -35 -18 -23 0 95 74 234 147 80 42 168
88 195 103 109 60 586 295 860 425 961 454 1332 602 2201 875 231 73 694 219
1029 327 336 107 615 196 620 197 18 5 17 -38 -1 -51z m-1477 -300 c-116 -22
-107 -31 -107 110 0 68 3 127 7 130 3 4 42 -46 85 -110 l78 -118 -63 -12z
m-3627 185 l0 -53 -612 3 c-337 1 -623 0 -636 -3 -12 -3 -46 -30 -75 -59 -28
-30 -62 -57 -74 -61 -20 -6 -23 -3 -23 23 0 30 48 83 130 143 80 59 63 58 703
58 l587 1 0 -52z m5115 -20 c-9 -43 -138 -495 -176 -619 -16 -53 -35 -101 -42
-107 -6 -6 -158 -45 -337 -87 -965 -227 -1423 -354 -2780 -775 -316 -98 -789
-244 -1050 -325 -261 -81 -516 -160 -567 -176 -51 -16 -111 -32 -134 -35 l-42
-7 6 47 c9 61 39 119 79 149 113 84 1107 569 1673 817 618 271 936 382 2425
850 388 122 757 239 820 260 63 21 119 39 123 39 5 1 5 -14 2 -31z m337 -105
c457 -468 791 -988 823 -1280 8 -74 -4 -104 -73 -182 l-48 -55 -48 80 c-145
239 -362 469 -671 711 -111 86 -120 105 -111 242 3 58 8 203 12 321 5 199 9
260 18 260 2 0 46 -44 98 -97z m-5621 11 c18 -10 6 -121 -15 -142 -18 -18 -95
-23 -148 -9 -27 7 -28 10 -28 67 0 48 4 64 21 81 19 19 29 21 90 16 38 -3 74
-9 80 -13z m-751 -87 c0 -59 4 -97 12 -105 9 -9 82 -12 267 -12 140 0 251 -3
248 -7 -8 -8 -906 -282 -925 -283 -10 0 -12 42 -10 206 l4 206 46 44 47 44
155 0 156 0 0 -93z m230 13 l0 -81 -87 3 -88 3 -3 64 c-2 35 -1 70 2 77 4 10
28 14 91 14 l85 0 0 -80z m270 0 l0 -80 -100 0 -100 0 0 80 0 80 100 0 100 0
0 -80z m3050 -30 c523 -20 778 -34 786 -43 6 -6 -85 -39 -406 -144 l-265 -88
-1005 0 -1005 0 -275 -27 c-151 -16 -294 -31 -317 -34 l-43 -6 0 124 0 125 58
7 c490 60 733 78 1317 100 146 6 889 -3 1155 -14z m-2625 -99 c12 -20 53 -6
-1240 -411 -824 -258 -803 -251 -810 -240 -11 17 49 50 153 84 59 19 490 150
957 291 707 213 910 275 932 284 1 1 4 -3 8 -8z m5 -139 c0 -16 -45 -33 -227
-86 -214 -62 -536 -160 -928 -281 -639 -197 -806 -246 -817 -242 -23 7 642
221 1452 467 184 56 367 112 405 125 72 24 115 31 115 17z m0 -305 c0 -117 -4
-218 -9 -226 -10 -15 -260 -86 -270 -76 -11 12 -3 427 9 439 12 13 251 84 263
78 4 -2 7 -99 7 -215z m2438 206 c46 -3 79 -9 75 -13 -4 -4 -40 -19 -79 -34
-69 -26 -71 -26 -115 -10 -36 14 -79 17 -247 16 -139 -1 -208 -5 -218 -13 -11
-9 -14 -42 -14 -138 0 -130 -6 -151 -41 -151 -15 0 -17 16 -17 141 0 91 -5
146 -12 153 -7 7 -87 11 -248 11 l-237 0 0 -175 0 -175 182 0 c100 0 179 -3
175 -6 -4 -3 -70 -33 -147 -66 -340 -147 -942 -441 -1290 -630 l-110 -60 -3
536 c-2 469 0 537 13 547 28 21 369 52 693 63 273 10 1529 13 1640 4z m-2778
-303 c0 -193 -1 -210 -18 -219 -37 -20 -42 3 -42 205 0 106 3 199 6 208 3 9
17 16 30 16 l24 0 0 -210z m-119 -253 c-8 -8 -253 -77 -273 -77 -5 0 -8 94 -8
209 0 164 3 211 14 220 7 6 71 28 142 49 l129 38 3 -215 c1 -122 -2 -219 -7
-224z m-331 134 c0 -171 -2 -202 -16 -216 -9 -9 -26 -15 -38 -13 -20 3 -21 8
-24 188 -3 203 0 226 26 233 54 14 52 23 52 -192z m-130 -40 c0 -147 -3 -201
-12 -208 -7 -6 -61 -22 -119 -36 -58 -15 -113 -29 -122 -33 -16 -6 -17 10 -17
187 0 107 4 200 9 207 8 13 209 80 244 81 16 1 17 -15 17 -198z m5790 181 c0
-5 -20 -80 -44 -168 -24 -87 -67 -246 -96 -353 -28 -106 -56 -204 -62 -217
-14 -30 -38 -37 -343 -99 -442 -90 -978 -212 -1900 -434 -891 -214 -884 -212
-1284 -302 -775 -174 -1657 -337 -2161 -398 -260 -32 -511 -55 -780 -71 -216
-13 -855 -25 -900 -17 -32 6 -43 19 -110 124 -41 64 -77 120 -78 125 -2 4 126
8 285 8 404 0 778 28 1254 95 679 96 1021 183 2519 643 979 301 2170 657 2595
776 286 81 1078 294 1093 295 6 1 12 -3 12 -7z m596 -127 c174 -141 344 -306
440 -428 68 -84 162 -230 171 -266 2 -9 -15 -45 -40 -81 -24 -36 -99 -164
-166 -285 -68 -121 -129 -226 -136 -233 -10 -11 -23 1 -70 69 -65 93 -153 193
-343 389 -104 107 -131 141 -132 163 0 45 17 67 51 67 62 0 140 127 160 260
18 128 -9 177 -89 159 -20 -4 -37 -7 -39 -6 -6 7 32 317 39 315 4 -2 74 -57
154 -123z m-6706 -145 c0 -177 -1 -190 -19 -200 -50 -26 -51 -23 -51 174 0
196 5 216 51 216 18 0 19 -9 19 -190z m-120 -29 c0 -119 -4 -192 -10 -196 -17
-11 -244 -64 -249 -59 -9 8 -14 251 -6 309 l6 55 122 39 c67 22 125 40 130 40
4 1 7 -84 7 -188z m-310 -80 c-1 -92 -5 -172 -8 -178 -4 -5 -17 -15 -30 -22
-33 -17 -35 -4 -30 181 4 153 5 162 27 179 13 11 27 16 32 13 6 -3 9 -79 9
-173z m1665 1 c-7 -8 -790 -196 -1868 -449 -153 -35 -284 -62 -292 -59 -22 8
-20 79 3 99 10 9 468 129 1087 285 l1070 269 3 -70 c2 -38 0 -72 -3 -75z
m-1780 -43 l0 -174 -90 -22 c-49 -12 -96 -22 -102 -23 -10 0 -13 38 -13 158 0
86 4 163 8 170 9 13 170 72 187 68 6 -2 10 -69 10 -177z m1783 -101 l-3 -43
-980 -217 c-539 -120 -989 -219 -1000 -220 -24 -4 -33 33 -13 49 7 6 135 38
283 73 525 121 1501 350 1595 374 128 32 122 33 118 -16z m8 -162 c3 -19 4
-75 3 -125 -4 -84 -6 -92 -34 -121 -27 -29 -84 -66 -88 -58 -1 2 0 73 3 158
l5 154 40 12 c59 18 64 17 71 -20z m-172 -28 c3 -13 4 -93 2 -178 -3 -121 -9
-170 -25 -225 -12 -38 -26 -99 -32 -134 -17 -108 -45 -141 -134 -156 -22 -4
-62 -13 -89 -21 -27 -8 -56 -14 -63 -14 -10 0 -13 64 -13 335 0 310 1 336 18
342 21 9 291 70 313 72 9 0 19 -9 23 -21z m-406 -398 c2 -230 -1 -327 -9 -336
-15 -19 -45 -18 -53 2 -9 23 -7 627 2 640 8 13 33 23 47 20 6 -2 11 -121 13
-326z m-122 -355 c-10 -15 -44 -27 -132 -47 -66 -14 -121 -24 -124 -21 -9 8
-11 647 -2 661 5 6 64 25 133 41 l124 28 7 -321 c6 -259 5 -325 -6 -341z
m5324 583 c0 -13 -38 -155 -230 -863 -76 -280 -187 -688 -245 -905 -59 -217
-111 -403 -116 -412 -10 -18 -54 -32 -129 -42 -25 -3 -238 -33 -475 -66 -606
-84 -1348 -173 -1800 -214 -809 -75 -1663 -85 -2505 -31 -434 29 -1157 101
-1185 120 -12 7 -29 38 -39 71 -56 179 -129 323 -384 747 -101 169 -183 309
-181 311 2 2 222 9 489 15 603 14 851 34 1465 122 815 116 1355 227 3075 634
245 58 589 139 765 180 176 42 574 135 885 209 311 74 575 134 588 135 12 1
22 -4 22 -11z m-5642 -330 l-3 -333 -32 -3 -33 -3 0 313 c0 236 3 318 13 330
11 14 31 25 50 27 4 1 6 -149 5 -331z m-113 -60 c0 -158 -4 -290 -7 -294 -10
-10 -221 -45 -227 -38 -9 9 -2 637 7 646 4 4 54 17 112 30 l105 24 6 -41 c3
-22 5 -169 4 -327z m6367 255 c170 -153 418 -462 418 -520 0 -11 -36 -72 -80
-136 -195 -286 -525 -782 -744 -1117 -131 -201 -244 -370 -250 -377 -16 -18
-116 78 -116 112 0 13 41 133 91 267 225 600 421 1197 550 1675 24 90 47 163
50 163 4 0 40 -30 81 -67z m-6662 -277 l0 -324 -35 -4 -35 -4 0 318 0 319 23
9 c49 19 47 30 47 -314z m-130 -24 l0 -318 -106 -13 c-59 -7 -108 -11 -110 -9
-7 8 -5 601 2 608 10 10 157 47 192 49 l22 1 0 -318z m-276 221 c8 -49 8 -536
0 -557 -4 -10 -18 -16 -40 -16 l-34 0 0 289 c0 288 0 290 22 305 34 24 45 20
52 -21z m-116 -133 c1 -74 -1 -205 -5 -290 -8 -150 -9 -155 -30 -158 -17 -3
-24 3 -29 24 -8 33 2 540 11 555 4 5 17 9 28 7 21 -3 22 -8 25 -138z m-790
-347 l-3 -118 -80 0 -80 0 -3 118 -3 117 86 0 86 0 -3 -117z m252 -3 l0 -120
-85 0 -85 0 0 120 0 120 85 0 85 0 0 -120z m250 0 l0 -121 -82 3 -83 3 -3 118
-3 117 86 0 85 0 0 -120z m6608 -1512 c-3 -7 -62 -206 -133 -443 -71 -236
-132 -434 -135 -438 -11 -12 -170 55 -186 78 -12 18 -5 57 50 305 69 308 109
457 129 477 6 6 57 16 112 21 150 14 168 14 163 0z m109 -110 c38 -29 52 -46
47 -57 -57 -141 -164 -461 -195 -581 -22 -91 -45 -160 -54 -166 -11 -8 -28 -9
-58 -2 -23 5 -43 10 -44 12 -5 5 51 235 86 354 65 214 153 482 159 482 3 0 29
-19 59 -42z m-487 -6 c0 -13 -150 -665 -154 -669 -2 -2 -32 6 -67 18 -45 15
-97 23 -175 27 -135 5 -228 -15 -379 -84 -161 -74 -242 -96 -380 -101 -170 -7
-250 9 -514 101 -331 117 -464 115 -731 -9 -136 -63 -219 -90 -328 -105 -138
-19 -273 8 -647 126 -312 98 -412 116 -574 102 -109 -10 -213 -36 -400 -103
-85 -30 -204 -70 -265 -87 -104 -31 -120 -33 -266 -33 -178 0 -245 12 -463 81
-288 91 -384 114 -484 114 -60 0 -94 4 -99 12 -7 11 -104 401 -100 405 1 1 35
-2 76 -7 217 -27 1061 -102 1360 -122 262 -17 1245 -17 1525 0 829 51 1699
143 2575 272 184 27 367 54 405 59 39 4 73 9 78 10 4 0 7 -2 7 -7z"/>
<path d="M7634 6495 c-3 -7 -4 -75 -2 -151 l3 -139 243 -3 242 -2 0 144 0 144
-122 6 c-319 15 -359 15 -364 1z"/>
<path d="M7148 6493 c-36 -3 -61 -10 -70 -20 -9 -11 -13 -54 -14 -149 l-1
-134 241 6 c299 8 278 -6 274 173 l-3 126 -185 1 c-102 0 -211 -1 -242 -3z"/>
<path d="M6690 6473 c-96 -7 -181 -16 -188 -18 -10 -4 -12 -37 -10 -141 3
-115 6 -139 20 -147 17 -11 481 13 493 25 8 8 8 275 0 288 -8 13 -94 11 -315
-7z"/>
<path d="M8197 6482 c-15 -3 -17 -20 -17 -148 0 -79 3 -144 8 -144 4 0 106 -9
227 -20 121 -11 232 -20 248 -20 l27 0 0 139 c0 100 -4 142 -12 147 -15 9
-455 51 -481 46z"/>
<path d="M6365 6443 c-11 -2 -87 -17 -170 -33 -82 -16 -167 -34 -188 -41 l-39
-10 7 -137 c4 -75 8 -138 10 -140 2 -3 447 67 451 71 6 6 6 276 -1 286 -6 11
-33 13 -70 4z"/>
<path d="M8740 6311 c0 -176 -11 -166 208 -188 152 -15 174 -16 182 -3 6 8 10
63 10 121 0 128 -7 141 -95 163 -67 17 -210 36 -267 36 l-38 0 0 -129z"/>
<path d="M6450 5590 c-12 -7 -15 -39 -15 -172 l0 -163 288 -3 287 -2 0 175 0
175 -272 0 c-154 0 -280 -4 -288 -10z"/>
<path d="M9922 5069 c-115 -24 -170 -224 -97 -356 30 -56 60 -77 110 -77 72 0
108 42 139 162 15 56 15 68 1 128 -28 120 -71 161 -153 143z"/>
<path d="M8982 4834 c-26 -18 -47 -56 -73 -132 -19 -55 -19 -56 2 -134 29
-106 56 -138 116 -138 39 0 51 5 83 38 84 83 94 273 20 352 -24 25 -36 30 -77
30 -28 0 -58 -7 -71 -16z"/>
<path d="M8130 4592 c-75 -40 -110 -170 -76 -284 28 -96 107 -137 169 -88 26
21 87 160 87 199 0 36 -49 156 -71 174 -27 22 -65 22 -109 -1z"/>
<path d="M7430 4379 c-82 -33 -125 -145 -100 -264 24 -117 115 -162 185 -92
89 89 82 308 -10 351 -38 18 -41 18 -75 5z"/>
<path d="M6725 4186 c-85 -91 -82 -282 7 -336 44 -27 52 -26 93 13 40 37 71
135 60 190 -22 108 -60 167 -108 167 -11 0 -34 -15 -52 -34z"/>
<path d="M11433 4841 c-35 -22 -84 -89 -108 -147 -27 -70 -45 -175 -33 -198
35 -69 70 -73 125 -13 47 50 86 129 108 212 25 97 20 127 -26 150 -34 18 -28
19 -66 -4z"/>
<path d="M11630 4554 c-48 -52 -75 -109 -101 -208 -13 -52 -15 -74 -7 -92 44
-96 186 46 223 224 12 56 12 69 -1 94 -23 44 -62 38 -114 -18z"/>
</g>
</svg>
