<?xml version="1.0" standalone="no"?>
<!DOCTYPE svg PUBLIC "-//W3C//DTD SVG 20010904//EN"
 "http://www.w3.org/TR/2001/REC-SVG-20010904/DTD/svg10.dtd">
<svg version="1.0" xmlns="http://www.w3.org/2000/svg"
 width="1500.000000pt" height="1500.000000pt" viewBox="0 0 1500.000000 1500.000000"
 preserveAspectRatio="xMidYMid meet">
<metadata>
Created by potrace 1.16, written by Peter Selinger 2001-2019
</metadata>
<g transform="translate(0.000000,1500.000000) scale(0.100000,-0.100000)"
fill="none" stroke="#000000">
<path d="M9230 11735 c-117 -33 -217 -118 -271 -231 l-30 -64 -282 0 c-167 0
-297 -4 -320 -11 -82 -22 -103 -137 -38 -202 l31 -32 309 -3 309 -3 41 -68
c67 -113 137 -168 277 -215 6 -2 27 -69 48 -148 62 -236 164 -604 438 -1573
142 -506 280 -994 304 -1085 25 -91 59 -212 75 -269 17 -57 26 -107 22 -111
-4 -4 -25 -13 -45 -20 -21 -6 -41 -17 -45 -23 -4 -7 -8 -210 -8 -452 l0 -440
-37 -85 c-116 -269 -260 -616 -415 -995 -229 -565 -309 -748 -338 -775 -13
-12 -39 -25 -58 -30 -20 -4 -620 -6 -1334 -4 -1429 3 -1347 -1 -1446 65 -26
17 -56 44 -68 60 l-20 29 24 0 c46 0 128 31 163 62 78 68 105 190 64 286 -25
58 -92 125 -148 149 -87 37 -200 13 -266 -56 -34 -36 -42 -38 -49 -13 -3 9
-28 80 -57 157 -28 77 -87 244 -130 370 -66 194 -250 705 -383 1066 l-35 96
54 7 c30 3 201 3 379 0 290 -6 328 -5 368 10 54 20 70 49 56 100 -20 71 34 67
-977 67 -499 1 -978 0 -1065 0 l-158 -1 -15 -37 c-10 -22 -14 -51 -10 -72 11
-70 -21 -66 570 -69 l534 -3 -76 -147 c-42 -81 -145 -268 -228 -417 -84 -148
-159 -282 -167 -296 l-15 -27 -91 34 c-442 166 -903 151 -1297 -42 -330 -161
-605 -439 -773 -779 -106 -213 -159 -400 -148 -512 11 -101 63 -144 189 -151
l78 -5 -5 -66 c-3 -36 -8 -91 -11 -121 -6 -70 11 -269 31 -352 63 -270 224
-531 432 -698 94 -76 130 -99 241 -154 412 -205 875 -175 1261 81 107 71 250
213 319 317 62 92 121 213 152 309 18 55 25 67 39 62 9 -4 54 -15 101 -25 79
-16 206 -18 1825 -21 1650 -3 1743 -2 1805 15 144 39 269 139 365 289 46 73
51 77 104 93 138 40 259 132 312 236 16 32 67 151 113 265 46 115 127 307 180
428 53 121 161 368 238 548 81 187 145 322 149 315 3 -7 12 -36 19 -65 14 -63
46 -99 94 -108 33 -7 37 -12 51 -58 19 -66 19 -77 -4 -77 -45 0 -45 -48 -1
-161 12 -28 19 -52 18 -53 -51 -23 -207 -144 -279 -216 -213 -211 -331 -462
-384 -817 -18 -124 -20 -254 -3 -271 34 -34 46 3 63 185 32 366 164 664 391
885 70 67 207 168 230 168 11 0 24 -21 24 -40 0 -4 -37 -35 -82 -68 -161 -116
-294 -270 -380 -438 -84 -163 -139 -365 -141 -519 -2 -90 -2 -90 23 -90 23 0
25 -4 27 -50 12 -237 77 -479 176 -647 126 -215 334 -403 562 -508 245 -113
576 -132 857 -51 88 25 285 128 373 194 256 192 424 452 496 767 28 123 35
339 15 462 -86 521 -449 929 -939 1053 -108 27 -244 45 -343 45 -76 0 -84 5
-84 52 0 21 3 21 163 15 212 -7 338 -38 518 -126 133 -65 156 -71 166 -44 18
46 -165 136 -392 193 -118 30 -328 54 -421 48 l-57 -3 -13 61 c-19 94 -38 124
-78 124 -32 0 -33 1 -54 77 l-21 77 30 26 30 25 -34 115 c-19 63 -91 295 -160
515 -69 220 -142 456 -162 525 -57 190 -94 288 -114 295 -18 5 -55 -4 -113
-29 l-36 -16 -25 78 c-28 86 -162 558 -232 817 -88 325 -252 899 -321 1118
l-24 79 138 161 c294 345 519 614 550 657 105 149 106 310 1 424 -87 96 -213
143 -408 154 l-114 7 -13 44 c-7 24 -23 54 -35 67 -28 30 -89 47 -138 39 -36
-6 -36 -6 -54 44 -35 98 -127 189 -236 231 -73 29 -188 35 -261 15z m226 -145
c106 -46 168 -144 167 -265 0 -119 -52 -203 -155 -254 -116 -59 -253 -36 -340
55 -55 58 -78 116 -78 199 0 83 23 141 78 198 88 92 214 117 328 67z m684
-345 c221 -33 339 -106 376 -233 28 -95 2 -195 -78 -302 -23 -30 -130 -158
-236 -285 -107 -126 -243 -288 -303 -358 l-108 -128 -20 68 c-41 138 -226 831
-245 915 -5 21 -2 28 14 33 32 10 138 113 166 160 l24 42 69 -5 c67 -4 69 -4
109 33 23 20 44 45 47 56 8 24 51 25 185 4z m87 -4095 c97 -208 118 -268 133
-377 23 -168 -14 -304 -182 -688 -217 -492 -381 -873 -445 -1030 -107 -265
-137 -312 -236 -376 -123 -80 17 -74 -1636 -70 -1598 3 -1526 1 -1611 57 -65
43 -107 117 -163 284 -249 749 -520 1524 -674 1929 l-36 95 26 50 c52 99 68
121 77 105 10 -18 477 -1349 587 -1674 107 -317 152 -415 220 -476 58 -51 165
-111 233 -129 34 -9 370 -12 1370 -12 1310 0 1326 0 1365 20 49 24 66 43 98
107 36 72 151 345 278 663 174 432 342 835 404 971 79 172 85 207 85 511 0
212 2 251 13 235 7 -11 49 -99 94 -195z m-4797 16 c0 -3 -24 -46 -54 -98 -29
-51 -100 -178 -156 -283 -90 -165 -460 -824 -976 -1740 l-153 -270 -36 1 c-66
2 -66 12 14 167 70 134 128 239 556 997 245 433 352 628 490 885 64 121 133
248 152 283 l34 62 64 0 c36 0 65 -2 65 -4z m-6 -432 c104 -277 310 -870 542
-1557 136 -405 155 -448 230 -516 l56 -51 -178 2 -179 3 -3 35 c-26 338 -153
714 -328 971 -153 226 -320 383 -563 531 l-62 38 22 42 c12 24 63 115 114 203
50 88 131 233 180 323 49 89 92 159 97 154 4 -4 37 -84 72 -178z m-1223 -364
c162 -16 357 -63 474 -115 l57 -25 -60 -112 c-33 -62 -96 -174 -139 -248 -60
-103 -153 -272 -169 -308 0 -1 -31 9 -68 23 -238 90 -515 77 -754 -36 -152
-70 -244 -151 -458 -400 -176 -204 -339 -288 -481 -250 -71 19 -88 40 -87 108
3 170 114 458 256 665 82 119 247 291 369 383 251 189 513 286 859 319 69 6
106 5 201 -4z m6843 -262 c23 -55 30 -117 14 -122 -321 -104 -441 -137 -453
-125 -21 21 -46 129 -32 134 7 2 76 22 154 44 78 22 175 54 215 70 40 16 77
29 81 30 4 1 14 -14 21 -31z m-6065 -9 c85 -48 227 -158 316 -245 183 -179
327 -402 421 -653 58 -153 114 -420 114 -541 l0 -50 -237 -2 c-413 -5 -432 -2
-507 63 -57 50 -85 100 -131 229 -85 242 -179 388 -323 501 -42 34 -81 65 -85
69 -5 4 64 138 154 296 178 317 206 364 216 364 3 0 31 -14 62 -31z m6109
-221 c3 -43 1 -48 -25 -61 -51 -27 -243 -87 -315 -99 l-70 -12 -25 28 c-13 16
-23 35 -21 44 2 11 68 36 213 83 116 38 217 67 225 66 10 -2 16 -17 18 -49z
m-124 -205 c27 -54 276 -835 284 -891 4 -30 2 -33 -18 -30 -29 4 -60 64 -139
265 -48 121 -231 644 -231 659 0 4 59 22 77 23 7 1 19 -11 27 -26z m-4541
-251 c30 -18 67 -85 67 -121 0 -69 -66 -131 -140 -131 -75 0 -130 59 -130 140
0 55 25 95 75 120 44 22 79 20 128 -8z m5016 -62 c481 -99 755 -620 576 -1095
-39 -105 -91 -183 -185 -275 -101 -100 -181 -150 -307 -190 -276 -89 -592 -19
-804 178 -81 74 -133 145 -179 246 -62 132 -75 191 -74 351 0 132 2 145 33
237 60 175 173 329 313 425 115 79 115 79 133 42 9 -17 15 -32 13 -34 -2 -2
-37 -26 -78 -53 -187 -123 -310 -318 -342 -542 -35 -249 91 -530 304 -680 271
-190 635 -183 883 17 248 201 341 558 222 853 -42 103 -88 171 -177 261 -69
69 -103 94 -170 127 -119 59 -184 73 -334 77 -132 4 -145 8 -146 47 0 13 11
18 48 21 114 9 183 5 271 -13z m-7298 -25 c35 -9 67 -19 71 -21 4 -3 -2 -20
-14 -40 -14 -23 -26 -33 -37 -30 -44 14 -155 26 -232 26 -186 0 -332 -63 -474
-205 -114 -113 -173 -222 -204 -373 -16 -76 -13 -226 5 -302 20 -86 91 -232
148 -302 88 -110 242 -208 386 -245 86 -22 253 -21 339 1 198 53 379 204 464
389 32 68 32 69 66 63 18 -3 35 -7 38 -9 7 -7 -52 -131 -87 -184 -46 -68 -145
-168 -214 -215 -253 -174 -585 -181 -855 -19 -328 197 -465 608 -325 978 65
175 215 338 389 426 160 80 372 104 536 62z m352 -187 c81 -80 119 -132 168
-228 53 -104 70 -173 76 -307 l6 -123 -36 0 c-41 0 -43 3 -50 145 -11 181
-111 371 -261 492 l-39 31 22 31 c12 17 27 31 32 31 5 0 42 -33 82 -72z m6921
32 c127 -32 201 -74 292 -165 129 -127 187 -272 187 -460 -1 -175 -61 -315
-192 -446 -119 -119 -244 -169 -424 -169 -117 0 -193 17 -297 68 -104 51 -222
168 -272 272 -65 136 -83 270 -53 416 28 131 86 235 187 330 52 50 129 104
146 104 5 0 24 -42 42 -92 18 -51 43 -117 56 -146 l23 -53 -40 -42 c-23 -23
-53 -64 -67 -92 -23 -44 -27 -62 -27 -145 0 -114 21 -165 97 -236 69 -65 126
-88 218 -88 63 -1 84 4 132 27 64 32 115 87 150 163 33 72 32 189 -3 264 -14
30 -38 70 -54 88 -38 45 -118 89 -187 103 l-56 11 -49 144 c-41 124 -46 146
-33 154 25 16 143 11 224 -10z m-7363 -26 c78 -10 78 -9 4 -149 -76 -142 -94
-165 -130 -165 -41 0 -129 -38 -173 -75 -97 -83 -127 -239 -69 -357 45 -92
136 -153 245 -164 80 -9 127 7 212 71 59 44 81 55 112 55 44 0 249 -39 261
-50 11 -10 -31 -92 -81 -159 -72 -95 -169 -162 -302 -207 -86 -29 -262 -26
-359 5 -195 64 -351 233 -407 441 -28 102 -23 245 10 344 77 227 261 379 501
415 58 9 81 8 176 -5z m342 -174 c67 -72 118 -160 146 -254 24 -77 38 -200 25
-209 -12 -7 -284 41 -299 53 -6 5 -17 31 -23 58 -7 26 -28 74 -47 106 -19 31
-35 61 -35 66 0 10 60 123 107 202 41 69 43 68 126 -22z m-394 -354 c10 -12 6
-15 -21 -21 -41 -9 -78 -42 -78 -69 0 -12 9 -36 20 -54 11 -18 20 -37 20 -43
0 -20 -54 1 -84 33 -24 26 -27 37 -22 67 8 52 63 101 115 101 21 0 44 -6 50
-14z m221 -96 c80 -16 229 -43 331 -59 298 -49 1135 -224 1153 -242 6 -5 -61
-9 -172 -9 -186 0 -287 11 -477 50 -55 12 -273 50 -485 86 -411 69 -574 101
-602 115 -24 13 -32 52 -18 79 11 20 17 21 68 15 32 -3 122 -19 202 -35z"/>
<path d="M9262 11565 c-88 -27 -162 -116 -177 -211 -15 -101 49 -212 147 -254
170 -73 351 43 350 223 0 105 -54 190 -147 233 -56 27 -109 29 -173 9z m127
-35 c54 -15 99 -51 127 -103 22 -42 26 -58 22 -112 -5 -79 -38 -131 -107 -169
-96 -52 -203 -27 -266 62 -27 39 -30 52 -30 117 0 65 3 78 30 117 20 28 49 52
84 71 59 29 87 33 140 17z"/>
<path d="M4429 7945 c-53 -27 -109 -88 -139 -149 -37 -78 -50 -154 -50 -293
l0 -133 986 0 986 0 -6 48 c-20 144 -137 266 -291 306 -57 14 -228 45 -810
147 -126 22 -297 53 -380 69 -183 36 -234 37 -296 5z"/>
</g>
</svg>
