<?xml version="1.0" standalone="no"?>
<!DOCTYPE svg PUBLIC "-//W3C//DTD SVG 20010904//EN"
 "http://www.w3.org/TR/2001/REC-SVG-20010904/DTD/svg10.dtd">
<svg version="1.0" xmlns="http://www.w3.org/2000/svg"
 width="1500.000000pt" height="1500.000000pt" viewBox="0 0 1500.000000 1500.000000"
 preserveAspectRatio="xMidYMid meet">
<metadata>
Created by potrace 1.16, written by Peter Selinger 2001-2019
</metadata>
<g transform="translate(0.000000,1500.000000) scale(0.100000,-0.100000)"
fill="none" stroke="#000000">
<path d="M6916 11670 c-108 -19 -214 -96 -261 -191 -30 -59 -37 -90 -75 -334
-17 -110 -33 -210 -36 -222 -4 -23 -6 -23 -182 -23 -187 -1 -222 -7 -288 -51
-41 -29 -97 -107 -120 -169 -10 -27 -18 -90 -21 -157 l-6 -113 -2226 -2 -2226
-3 -80 -23 c-304 -86 -524 -300 -617 -602 l-23 -75 -3 -2310 c-2 -1603 1
-2331 8 -2380 26 -170 105 -328 228 -457 92 -96 193 -165 303 -208 126 -49
206 -60 419 -60 l189 0 7 -37 c10 -55 62 -198 96 -268 124 -248 346 -459 594
-564 155 -65 300 -94 473 -93 321 2 597 118 827 346 168 168 257 330 330 603
3 10 643 13 3161 13 l3158 0 14 -57 c31 -137 109 -301 204 -433 91 -125 273
-277 422 -352 271 -137 620 -159 913 -57 351 123 631 412 742 769 17 52 30
102 30 111 0 16 27 18 338 21 313 4 342 6 411 27 306 91 520 310 608 621 17
61 18 118 18 840 0 727 -1 778 -18 830 -33 96 -87 196 -140 259 -29 33 -205
199 -393 368 -2208 1997 -2649 2397 -2849 2586 -203 192 -347 315 -459 391
-98 67 -250 141 -343 168 -77 22 -86 22 -818 26 l-740 3 3 49 c9 127 -41 283
-114 354 -77 75 -96 80 -314 86 l-195 5 -17 120 c-46 318 -57 375 -82 430 -36
79 -125 165 -201 195 -57 23 -73 24 -330 26 -148 2 -292 -1 -319 -6z m552
-261 c53 -18 70 -60 98 -246 14 -92 28 -189 31 -215 l6 -48 -397 0 -396 0 0
22 c0 48 62 405 76 436 24 56 50 61 315 62 145 0 248 -4 267 -11z m738 -801
c9 -18 19 -67 22 -115 l5 -83 -1022 0 -1021 0 0 80 c0 48 6 95 14 115 l15 35
985 0 985 0 17 -32z m1749 -473 c125 -27 285 -122 470 -280 96 -82 247 -226
243 -231 -2 -1 -27 -12 -57 -24 -163 -64 -290 -208 -336 -380 -12 -46 -15
-192 -15 -888 l0 -833 25 -76 c46 -137 143 -253 265 -317 131 -69 47 -66 1585
-66 l1390 -1 38 -34 39 -34 -40 -35 c-55 -50 -99 -138 -113 -227 -17 -106 -6
-436 16 -509 31 -100 83 -186 155 -253 97 -92 176 -128 333 -152 l37 -6 0
-114 0 -115 -839 0 -838 0 -94 44 c-335 159 -714 153 -1051 -15 l-57 -29
-3724 0 -3724 0 -94 44 c-329 156 -695 154 -1026 -5 l-82 -39 -726 0 -726 0 3
123 3 122 5760 5 c5593 5 5761 6 5795 24 49 26 98 74 123 121 21 39 22 50 22
380 0 330 -1 341 -22 381 -27 50 -75 97 -122 121 -34 17 -277 18 -5798 21
l-5763 2 0 1383 c0 1520 -3 1445 61 1571 90 177 265 304 454 329 17 2 1904 5
4195 5 3640 1 4174 0 4235 -13z m1166 -923 c102 -92 322 -291 489 -442 168
-151 377 -340 465 -420 88 -80 275 -248 415 -375 140 -126 353 -319 475 -428
121 -110 231 -210 245 -223 l25 -24 -1255 2 -1255 3 -53 30 c-64 35 -96 71
-131 145 l-26 55 -3 760 c-3 772 0 851 34 917 24 47 84 108 128 130 57 29 89
36 181 37 l80 1 186 -168z m2745 -2487 c34 -34 67 -80 87 -122 l32 -68 3 -243
3 -243 -38 7 c-94 16 -178 78 -218 159 -18 36 -20 65 -23 266 -3 219 -2 226
19 253 19 25 49 44 72 45 5 1 33 -24 63 -54z m-1407 -382 c-1 -142 -4 -264 -6
-270 -4 -10 -1158 -13 -5724 -13 l-5719 0 0 270 0 270 5726 0 5725 0 -2 -257z
m-9234 -898 c459 -80 790 -505 761 -975 -18 -280 -147 -527 -366 -695 -459
-353 -1126 -195 -1387 330 -66 131 -95 263 -95 420 1 251 87 466 261 648 216
226 517 326 826 272z m8645 1 c291 -52 539 -241 670 -511 70 -144 94 -249 94
-410 0 -268 -91 -485 -278 -670 -180 -179 -395 -268 -646 -267 -255 0 -468 89
-650 272 -186 185 -273 396 -273 665 -1 163 23 269 93 410 184 376 586 583
990 511z m-9710 -140 c0 -3 -25 -37 -55 -77 -127 -169 -225 -442 -225 -626 l0
-55 -197 4 c-170 4 -208 8 -265 26 -92 31 -208 110 -268 185 -102 126 -140
242 -140 430 l0 117 575 0 c316 0 575 -2 575 -4z m8640 -4 c0 -4 -23 -39 -51
-77 -57 -79 -137 -237 -169 -335 -22 -70 -46 -190 -56 -282 l-5 -58 -3133 0
-3133 0 -7 73 c-22 218 -87 400 -209 580 -37 54 -67 100 -67 103 0 2 1537 4
3415 4 1878 0 3415 -3 3415 -8z m3188 -134 c-4 -115 -9 -156 -27 -208 -62
-179 -207 -325 -380 -382 -61 -21 -89 -22 -373 -26 -170 -2 -308 0 -308 5 0 4
-5 49 -11 98 -25 211 -87 376 -210 556 -33 47 -59 89 -59 92 0 4 309 7 686 7
l686 0 -4 -142z"/>
<path d="M4159 9829 c-287 -42 -548 -175 -760 -388 -192 -193 -315 -416 -374
-681 -26 -116 -31 -384 -10 -512 136 -832 1000 -1346 1792 -1067 778 275 1135
1183 755 1923 -133 258 -341 465 -600 595 -112 56 -266 107 -382 126 -101 16
-325 18 -421 4z m398 -264 c219 -42 412 -144 573 -305 332 -331 420 -832 220
-1256 -59 -125 -112 -204 -198 -295 -424 -450 -1130 -460 -1567 -24 -483 483
-427 1272 119 1680 133 99 269 161 428 194 117 25 313 27 425 6z"/>
<path d="M4120 9429 c-55 -25 -114 -80 -143 -134 -20 -36 -23 -60 -27 -220
l-5 -180 -175 -5 c-157 -4 -180 -7 -222 -28 -60 -30 -122 -99 -142 -159 -22
-65 -23 -391 -1 -453 23 -65 77 -125 143 -157 55 -27 64 -28 230 -31 l172 -4
0 -171 c0 -159 2 -176 24 -222 29 -63 102 -129 167 -150 40 -14 83 -16 236
-13 211 3 234 10 309 85 67 67 78 106 82 300 l4 171 166 4 c159 3 170 4 224
31 64 32 112 81 140 145 18 39 19 63 16 250 -3 205 -3 207 -30 254 -16 25 -46
62 -69 82 -66 56 -110 66 -290 66 l-157 0 -4 173 c-4 199 -15 236 -92 311 -70
67 -107 76 -325 76 -165 0 -191 -3 -231 -21z m384 -255 c3 -9 6 -113 6 -232 0
-234 3 -249 53 -286 26 -20 45 -21 260 -26 l232 -5 0 -150 0 -150 -237 -5
-238 -5 -32 -33 -33 -32 -5 -243 -5 -242 -139 -3 c-93 -2 -143 1 -152 9 -11 9
-14 57 -14 236 0 189 -3 229 -16 252 -32 54 -41 56 -294 61 l-235 5 0 150 0
150 230 5 c243 5 256 8 294 56 20 25 21 39 21 253 0 163 3 230 12 239 8 8 56
12 149 12 116 0 138 -2 143 -16z"/>
<path d="M8306 9624 c-182 -40 -331 -170 -403 -350 l-28 -69 -3 -840 c-2 -568
1 -856 8 -891 20 -94 74 -191 153 -269 80 -80 154 -123 258 -149 93 -23 1109
-24 1207 -1 191 45 356 208 407 401 22 85 22 1680 0 1764 -48 180 -180 324
-359 389 l-71 26 -550 2 c-459 2 -561 -1 -619 -13z m1190 -276 c28 -15 70 -48
92 -73 74 -84 71 -46 74 -941 l2 -801 -32 -66 c-37 -74 -86 -119 -162 -148
-47 -18 -84 -19 -575 -19 -503 0 -526 1 -579 20 -62 24 -125 80 -158 142 l-23
43 0 830 0 830 24 45 c28 54 75 106 116 128 77 40 91 41 640 39 l530 -2 51
-27z"/>
<path d="M2945 5130 c-161 -33 -319 -146 -408 -292 -157 -260 -92 -612 148
-795 252 -192 586 -172 806 49 196 195 234 506 92 747 -108 184 -317 303 -524
300 -41 -1 -92 -5 -114 -9z m268 -285 c70 -35 130 -97 165 -173 22 -48 27 -71
27 -147 0 -82 -3 -96 -33 -157 -38 -77 -92 -130 -171 -167 -47 -22 -70 -26
-141 -26 -71 0 -94 4 -142 27 -73 34 -142 103 -176 176 -23 49 -27 70 -27 147
0 99 18 153 74 224 98 124 282 166 424 96z"/>
<path d="M11615 5134 c-215 -45 -363 -156 -454 -341 -88 -177 -80 -411 20
-579 56 -95 153 -185 250 -233 187 -92 370 -93 554 -2 141 70 247 188 303 339
33 90 41 246 18 346 -66 281 -317 479 -601 475 -38 -1 -79 -3 -90 -5z m249
-293 c72 -35 131 -94 167 -169 20 -40 24 -63 24 -147 0 -91 -3 -105 -29 -158
-36 -71 -99 -130 -174 -165 -48 -23 -71 -27 -142 -27 -71 0 -94 4 -142 27 -75
35 -138 95 -174 165 -26 53 -29 67 -29 158 0 90 3 105 27 152 97 183 294 252
472 164z"/>
</g>
</svg>
