<?xml version="1.0" standalone="no"?>
<!DOCTYPE svg PUBLIC "-//W3C//DTD SVG 20010904//EN"
 "http://www.w3.org/TR/2001/REC-SVG-20010904/DTD/svg10.dtd">
<svg version="1.0" xmlns="http://www.w3.org/2000/svg"
 width="1004.000000pt" height="725.000000pt" viewBox="0 0 1004.000000 725.000000"
 preserveAspectRatio="xMidYMid meet">
<metadata>
Created by potrace 1.16, written by Peter Selinger 2001-2019
</metadata>
<g transform="translate(0.000000,725.000000) scale(0.100000,-0.100000)"
fill="none" stroke="#000000">
<path d="M7470 5900 c-41 -16 -74 -32 -73 -37 9 -52 25 -48 -187 -48 l-195 0
-3 28 -3 27 -84 0 -84 0 -3 -27 -3 -28 -487 -3 -488 -2 0 30 0 30 -84 0 -85 0
-3 -27 -3 -28 -487 -3 -488 -2 0 30 0 30 -84 0 -85 0 -3 -27 -3 -28 -487 -3
-488 -2 0 30 0 30 -84 0 -85 0 -3 -27 -3 -28 -485 0 -485 0 -3 28 -3 27 -85 0
-84 0 0 -1255 0 -1255 -95 0 -94 0 5 253 c21 1091 23 1371 11 1385 -42 51
-351 112 -569 112 -71 0 -91 9 -108 50 -7 16 -18 30 -25 30 -9 0 -14 23 -17
76 -3 69 -6 79 -31 100 -23 20 -39 24 -88 24 -54 0 -64 -3 -90 -29 -27 -27
-29 -35 -29 -100 0 -58 -3 -71 -16 -71 -8 0 -21 -15 -29 -34 -16 -38 -39 -46
-139 -46 -33 0 -106 -7 -161 -15 -173 -25 -220 -47 -212 -98 2 -17 -3 -48 -11
-69 l-15 -38 -77 0 c-119 0 -115 13 -117 -304 -2 -237 -5 -268 -25 -334 -14
-46 -29 -77 -41 -84 -35 -18 -55 -87 -69 -238 -24 -263 -13 -878 19 -1008 3
-12 15 -25 27 -28 19 -5 28 -28 71 -207 59 -237 62 -242 156 -251 239 -23 402
-36 433 -36 l36 0 0 113 0 113 39 -4 38 -4 7 69 c4 37 17 97 29 133 l22 65 58
3 c31 2 57 0 57 -3 0 -4 -15 -25 -34 -46 -117 -137 -164 -356 -116 -543 29
-112 73 -190 160 -277 165 -167 396 -226 618 -157 86 26 123 45 199 103 208
155 291 448 199 700 -14 38 -23 72 -21 76 3 3 16 4 29 2 19 -4 30 -18 49 -67
24 -59 26 -61 65 -64 l40 -3 -12 65 -13 64 30 6 c16 3 60 6 98 6 78 0 81 -4
76 -90 l-2 -45 258 -3 257 -2 0 -73 c0 -86 20 -132 71 -159 27 -14 56 -18 146
-18 l113 0 0 -35 0 -35 80 0 80 0 0 35 0 35 368 -2 367 -3 -1 -27 0 -28 83 0
83 0 0 30 0 30 105 0 c175 0 215 31 215 169 l0 81 260 0 260 0 0 64 c0 58 2
64 23 68 45 9 47 4 47 -142 l0 -139 73 -3 72 -3 7 -63 c28 -259 210 -473 454
-537 338 -89 683 114 759 446 8 35 17 86 20 112 l6 48 137 -3 137 -3 7 -70
c12 -132 65 -250 158 -349 131 -139 266 -199 455 -199 95 0 122 4 194 28 231
79 396 283 419 523 l7 67 153 3 152 3 0 139 c0 104 3 140 13 142 6 1 48 2 92
4 44 1 85 3 91 3 6 1 11 9 11 19 -1 9 0 45 1 80 l2 62 289 0 290 0 59 108 c33
59 130 234 216 390 l156 284 -276 421 c-404 618 -527 804 -749 1139 l-200 302
-275 125 -275 126 -219 5 -219 5 -21 56 -21 57 -75 -28z m82 -57 c15 -45 189
-523 280 -768 22 -60 57 -157 78 -215 20 -58 157 -435 304 -838 147 -403 265
-736 262 -741 -7 -10 -97 -43 -103 -37 -2 2 -81 214 -174 472 -285 784 -767
2108 -774 2124 -4 11 6 20 37 32 66 26 73 23 90 -29z m-5172 -1288 l0 -1295
-60 0 -60 0 0 1288 c0 709 3 1292 7 1295 3 4 30 7 60 7 l53 0 0 -1295z m1150
-5 l0 -1300 -29 0 c-16 0 -43 3 -60 6 l-31 7 0 1287 c0 707 3 1290 7 1293 3 4
30 7 60 7 l53 0 0 -1300z m1150 985 l0 -315 -60 0 -60 0 0 308 c0 170 3 312 7
315 3 4 30 7 60 7 l53 0 0 -315z m1150 0 l0 -315 -60 0 -60 0 0 308 c0 170 3
312 7 315 3 4 30 7 60 7 l53 0 0 -315z m1148 -982 l-3 -1298 -55 0 -55 0 -3
1285 c-1 707 0 1291 3 1298 3 7 25 12 60 12 l55 0 -2 -1297z m-3588 952 l0
-285 -490 0 -490 0 0 285 0 285 490 0 490 0 0 -285z m1150 0 l0 -285 -490 0
-490 0 0 285 0 285 490 0 490 0 0 -285z m1150 0 l0 -285 -490 0 -490 0 0 285
0 285 490 0 490 0 0 -285z m1150 0 l0 -285 -490 0 -490 0 0 285 0 285 490 0
490 0 0 -285z m585 268 c29 -74 195 -537 195 -544 0 -5 -137 -9 -305 -9 l-305
0 0 285 0 285 204 0 c185 0 205 -2 211 -17z m854 -114 l289 -130 63 -97 c35
-53 119 -182 187 -287 69 -104 249 -379 400 -610 151 -231 338 -516 414 -633
l139 -212 -202 -368 c-111 -202 -209 -373 -218 -380 -12 -10 -94 -12 -361 -11
-190 1 -365 4 -389 8 -39 5 -45 10 -57 41 -6 19 -30 86 -53 148 l-41 113 30
11 c17 5 30 14 30 19 0 5 -127 357 -281 781 -155 425 -290 798 -301 828 -30
83 -241 660 -287 785 -22 61 -41 113 -41 118 0 4 88 7 195 7 l195 0 289 -131z
m-6978 -308 c19 -16 24 -30 27 -90 l4 -71 -101 0 -101 0 0 65 c0 57 3 69 25
90 31 32 110 35 146 6z m2089 -311 l0 -160 -490 0 -490 0 0 160 0 160 490 0
490 0 0 -160z m3450 -465 l0 -625 -1640 0 -1640 0 0 625 0 625 1640 0 1640 0
0 -625z m847 480 c28 -77 52 -148 52 -157 1 -17 -23 -18 -364 -18 l-365 0 0
160 0 160 313 -2 312 -3 52 -140z m-6302 58 c14 -31 24 -58 22 -59 -9 -10
-117 -24 -177 -24 -62 0 -168 15 -178 24 -2 3 7 30 21 60 l26 56 131 0 130 0
25 -57z m-360 -52 c-6 -29 -6 -29 58 -40 115 -20 323 -9 350 18 5 5 4 18 -2
30 -11 20 -10 21 41 21 81 -1 325 -27 413 -45 81 -17 165 -51 165 -66 0 -6
-293 -8 -720 -7 l-719 3 -22 22 -22 21 31 16 c49 25 219 51 360 54 l74 2 -7
-29z m1025 -306 c0 -104 -5 -419 -10 -700 -5 -280 -10 -557 -10 -614 l0 -104
-162 8 c-208 10 -262 8 -378 -11 -99 -17 -188 -43 -252 -76 -21 -10 -38 -16
-38 -13 0 2 31 21 70 40 86 43 219 82 308 91 37 3 77 13 90 20 l22 14 0 730
c0 657 -2 730 -16 745 -15 14 -66 16 -509 13 -434 -3 -492 -1 -487 12 2 8 10
20 17 25 8 6 251 10 684 10 l673 0 -2 -190z m-399 115 c19 -10 19 -29 19 -730
0 -414 -4 -721 -9 -724 -5 -3 -44 -11 -87 -17 -226 -31 -399 -113 -530 -251
-38 -40 -84 -102 -102 -136 -19 -35 -41 -66 -49 -69 -14 -5 -433 23 -480 33
l-23 4 0 558 c0 538 1 559 20 597 11 22 20 44 20 51 0 9 134 365 219 579 27
69 28 70 67 73 39 2 39 2 17 -15 -22 -19 -273 -674 -276 -723 -2 -22 3 -25 53
-33 84 -13 1078 -1 1096 14 12 9 14 71 14 361 0 222 -4 356 -10 369 -10 18
-26 19 -414 19 l-403 0 -11 25 -12 25 431 0 c277 0 437 -4 450 -10z m1739
-295 l0 -285 -490 0 -490 0 0 285 0 285 490 0 490 0 0 -285z m4469 6 c55 -153
101 -281 101 -285 0 -3 -214 -6 -475 -6 l-475 0 0 285 0 285 374 0 373 0 102
-279z m-7239 252 c0 -5 -41 -120 -92 -258 l-93 -250 -3 100 c-3 97 -1 104 48
249 28 82 53 153 56 157 6 11 84 12 84 2z m969 -45 c4 -13 6 -169 4 -348 -2
-179 -3 -331 -3 -337 0 -10 -118 -13 -555 -13 -440 0 -555 3 -555 13 0 7 22
71 49 142 26 72 81 218 121 325 39 107 78 205 86 218 l14 22 415 0 415 0 9
-22z m-1179 -333 c0 -151 -4 -275 -8 -275 -5 0 -17 9 -28 21 -17 19 -19 41
-22 230 -3 191 -1 212 17 254 11 25 25 45 30 45 8 0 11 -89 11 -275z m2959
-190 c20 -6 21 -12 21 -161 l0 -154 -490 0 -490 0 0 154 c0 97 4 156 10 158
21 6 928 10 949 3z m4604 -5 c7 -8 107 -286 107 -298 0 -9 -137 -12 -535 -12
l-535 0 0 155 0 155 403 2 c536 4 555 4 560 -2z m-7675 -149 c15 -10 36 -20
47 -22 20 -4 20 -13 22 -574 2 -314 -1 -575 -5 -582 -4 -6 -31 -14 -60 -18
-66 -7 -66 -7 -81 180 -33 426 -7 1035 45 1035 3 0 18 -8 32 -19z m3092 -464
l0 -284 -197 -6 c-244 -9 -730 -9 -760 -1 l-23 6 0 284 0 284 490 0 490 0 0
-283z m1150 -2 l0 -285 -490 0 -490 0 0 285 0 285 490 0 490 0 0 -285z m138
-52 l-3 -338 -45 2 c-25 1 -51 2 -57 2 -10 1 -13 75 -13 336 l0 335 60 0 60 0
-2 -337z m1012 52 c0 -221 -3 -285 -12 -285 -7 -1 -222 -1 -478 0 -256 0 -471
0 -477 0 -10 0 -13 64 -13 285 l0 285 490 0 490 0 0 -285z m140 -32 l0 -318
-55 -21 c-30 -12 -57 -19 -60 -16 -8 8 -6 658 2 665 3 4 30 7 60 7 l53 0 0
-317z m1010 32 l0 -285 -442 -1 c-492 -2 -520 -2 -530 0 -5 1 -8 129 -8 286
l0 285 490 0 490 0 0 -285z m1358 3 c56 -154 100 -283 98 -285 -2 -2 -292 -5
-645 -6 l-641 -2 0 288 0 287 543 0 543 0 102 -282z m-6355 -327 c62 -15 145
-71 237 -161 120 -117 189 -231 238 -390 31 -105 36 -140 17 -140 -10 0 -24
20 -38 53 -93 230 -237 407 -392 483 -165 81 -463 70 -631 -23 -68 -38 -163
-137 -202 -210 -35 -67 -72 -196 -72 -255 0 -40 -2 -41 -37 -32 -21 6 -23 12
-23 78 0 84 19 170 54 246 87 191 250 301 511 345 93 15 283 19 338 6z m397
-41 l0 -50 85 0 85 0 0 50 0 50 365 0 365 0 0 -95 0 -95 -292 -2 -293 -3 1
-90 1 -90 259 -3 259 -2 -3 -80 -4 -80 -259 0 c-171 0 -258 -3 -254 -10 4 -6
-33 -10 -102 -10 l-109 0 -19 53 c-41 118 -102 220 -192 324 -49 57 -53 65
-53 112 0 39 -4 51 -15 51 -8 0 -15 5 -15 10 0 6 38 10 95 10 l95 0 0 -50z
m1000 -45 l0 -95 -40 0 -40 0 0 95 0 95 40 0 40 0 0 -95z m150 45 l0 -50 85 0
85 0 0 50 0 50 490 0 490 0 0 -50 c0 -47 2 -50 25 -50 23 0 25 -4 25 -45 l0
-45 -665 0 -665 0 0 95 0 95 65 0 65 0 0 -50z m2300 2 c0 -46 -2 -49 -50 -85
-132 -99 -211 -261 -226 -468 l-7 -88 27 -11 c15 -5 40 -10 55 -10 27 0 28 2
35 67 21 199 133 373 291 448 102 48 163 60 305 59 209 -1 299 -37 429 -168
86 -89 145 -176 207 -311 l48 -105 37 0 37 0 -13 68 c-52 269 -205 492 -441
639 -15 9 26 12 199 12 l217 1 0 -50 0 -50 85 0 85 0 0 50 0 50 228 -1 227 0
-71 -19 c-274 -72 -442 -279 -461 -569 -7 -108 0 -121 69 -121 l38 0 0 43 c0
24 9 79 20 121 76 298 328 449 680 407 142 -17 221 -58 330 -170 90 -92 153
-189 212 -326 34 -77 36 -80 72 -83 44 -4 45 0 12 130 -56 222 -204 431 -385
547 l-64 41 200 0 199 0 18 -55 c9 -30 21 -57 26 -60 4 -3 21 0 36 5 18 7 29
7 33 1 4 -5 31 -78 61 -160 l54 -151 108 0 108 0 0 -70 0 -70 -100 0 -100 0 0
-145 0 -145 -145 0 -145 0 0 27 c0 46 -31 156 -62 217 -66 131 -166 228 -296
288 -304 139 -662 12 -810 -287 -33 -67 -62 -166 -62 -214 l0 -31 -144 0 -143
0 -6 59 c-14 129 -94 281 -196 372 -104 94 -273 158 -413 159 -84 0 -192 -26
-278 -67 -57 -27 -94 -55 -156 -117 -98 -98 -147 -189 -172 -319 l-17 -87 -62
0 -63 0 0 145 0 145 -45 0 c-25 0 -45 4 -45 10 0 6 -97 11 -257 12 l-258 3 -3
78 -3 77 261 0 260 0 0 95 0 95 -290 0 -290 0 0 95 0 95 485 0 485 0 0 -48z
m653 39 c134 -31 343 -239 427 -424 27 -60 61 -167 75 -234 10 -48 -21 -44
-41 5 -94 232 -245 422 -395 496 -84 41 -165 56 -304 56 -303 0 -517 -156
-585 -427 -11 -43 -20 -95 -20 -115 0 -39 -9 -45 -44 -32 -13 5 -16 22 -16 78
1 249 147 456 385 545 128 48 412 76 518 52z m1588 -29 c209 -119 381 -368
428 -617 7 -38 6 -45 -8 -45 -11 0 -27 27 -49 80 -93 220 -241 394 -398 466
-112 52 -362 58 -506 11 -43 -14 -100 -39 -128 -57 -135 -87 -233 -254 -247
-422 -6 -72 -13 -79 -55 -57 -19 10 -20 17 -14 88 9 101 22 152 61 236 44 97
101 164 187 222 135 90 317 134 539 129 131 -2 137 -3 190 -34z m-6113 -116
c64 -17 150 -68 198 -115 30 -31 34 -40 34 -88 0 -41 -3 -52 -12 -46 -7 4 -39
25 -70 45 -117 78 -292 113 -432 89 -96 -17 -166 -45 -251 -102 -71 -48 -75
-49 -132 -45 -32 2 -59 5 -60 5 -9 3 50 84 92 125 77 77 185 128 320 150 53 8
258 -4 313 -18z m-735 -28 c-52 -54 -108 -147 -130 -215 -17 -53 -17 -53 -57
-53 -23 0 -140 9 -261 20 -121 11 -226 20 -232 20 -7 0 -13 7 -13 15 0 19 19
19 225 0 88 -8 190 -15 227 -15 75 0 66 -7 139 108 37 59 124 162 137 162 4 0
-12 -19 -35 -42z m4197 -103 l0 -65 -1350 0 -1350 0 0 65 0 65 1350 0 1350 0
0 -65z m-3535 -10 c179 -32 345 -159 425 -326 45 -95 60 -160 60 -263 -1 -267
-189 -505 -452 -572 -85 -22 -260 -14 -337 15 -147 56 -265 160 -330 292 -67
136 -84 255 -57 386 44 206 186 371 381 442 112 41 190 47 310 26z m4535 -7
c184 -43 348 -194 420 -384 31 -81 38 -234 16 -328 -45 -190 -191 -353 -381
-426 -85 -32 -250 -40 -343 -15 -225 60 -389 232 -437 460 -19 90 -19 138 1
233 68 331 395 539 724 460z m1565 -17 c372 -126 520 -570 299 -894 -81 -118
-206 -207 -340 -242 -75 -19 -223 -19 -298 0 -148 39 -304 161 -374 292 -119
225 -85 500 86 684 164 177 400 237 627 160z m-4445 -141 l0 -81 -67 3 -68 3
-3 78 -3 77 71 0 70 0 0 -80z m140 0 l0 -80 -60 0 -60 0 0 80 0 80 60 0 60 0
0 -80z m752 64 c2 -9 1 -45 0 -80 l-4 -64 -364 0 -364 0 0 80 0 80 364 0 c327
0 365 -2 368 -16z m138 -64 l0 -80 -55 0 -55 0 0 80 0 80 55 0 55 0 0 -80z
m160 0 l0 -80 -65 0 -65 0 0 80 0 80 65 0 65 0 0 -80z m-3925 5 c110 -9 210
-18 223 -21 22 -4 22 -4 22 -220 l0 -216 -42 5 c-24 3 -134 14 -246 23 -112
10 -210 22 -218 28 -11 9 -51 153 -108 388 -6 25 -4 27 31 31 42 5 47 5 338
-18z m4610 -175 l0 -65 -1347 -3 -1348 -2 0 70 0 70 1348 -2 1347 -3 0 -65z
m-1875 -200 l0 -110 -118 0 c-132 0 -154 8 -178 66 -8 18 -14 61 -14 94 l0 60
155 0 155 0 0 -110z m140 -35 l0 -145 -60 0 -60 0 0 145 0 145 60 0 60 0 0
-145z m752 35 l2 -105 -367 -3 -367 -2 0 110 0 110 365 -2 366 -3 1 -105z
m138 -35 l0 -145 -55 0 -55 0 0 145 0 145 55 0 55 0 0 -145z m330 74 c0 -130
-23 -148 -182 -149 l-118 0 0 110 0 110 150 0 150 0 0 -71z"/>
<path d="M4940 4939 c-34 -61 -60 -112 -58 -113 14 -12 210 -117 212 -114 2 1
27 47 57 100 30 54 57 98 60 98 7 0 71 -105 103 -168 16 -31 16 -35 1 -45 -12
-10 2 -12 67 -9 46 2 89 5 95 7 11 4 103 137 103 149 0 2 -8 2 -18 0 -13 -4
-31 19 -78 98 l-61 103 -210 3 -211 2 -62 -111z"/>
<path d="M4792 4729 c16 -13 13 -22 -42 -119 -33 -58 -60 -110 -60 -117 0 -7
44 -89 98 -183 l97 -170 133 0 132 0 0 120 0 120 -120 0 c-66 0 -120 3 -120 7
0 4 25 51 56 105 47 83 59 98 75 93 15 -5 9 10 -27 67 -26 40 -48 74 -48 75
-1 0 -44 4 -96 8 -81 6 -92 5 -78 -6z"/>
<path d="M5500 4663 c-52 -31 -97 -57 -99 -59 -2 -2 24 -50 57 -108 l61 -106
-125 0 c-111 0 -124 2 -124 18 -1 9 -19 -19 -42 -62 l-40 -80 38 -78 c28 -57
40 -74 44 -62 6 16 21 17 126 16 65 -2 125 1 132 6 7 5 58 86 112 181 l99 172
-62 109 c-34 61 -66 110 -72 109 -5 0 -53 -25 -105 -56z"/>
<path d="M643 3795 l-32 -54 52 -30 52 -30 22 37 c12 20 26 43 31 51 6 11 15
3 35 -33 15 -27 24 -52 21 -57 -3 -5 14 -9 38 -9 38 0 46 4 66 35 21 33 21 36
5 53 -10 9 -27 34 -38 55 l-20 37 -100 0 -101 0 -31 -55z"/>
<path d="M1430 3794 c-8 -4 -21 -13 -27 -22 -14 -17 -18 -120 -5 -138 15 -23
49 -31 122 -28 91 3 110 19 110 94 0 74 -19 91 -110 96 -41 2 -82 1 -90 -2z
m165 -94 l0 -65 -80 -3 c-90 -3 -105 6 -105 66 0 66 11 73 103 70 l82 -3 0
-65z"/>
<path d="M572 3695 c4 -4 -6 -33 -23 -64 l-31 -57 51 -87 52 -87 59 0 60 0 0
60 0 60 -55 0 c-30 0 -55 3 -55 6 0 12 52 94 61 94 4 0 -1 16 -12 35 -14 23
-29 35 -42 35 -12 0 -33 3 -47 7 -14 3 -22 2 -18 -2z"/>
<path d="M920 3663 c-25 -14 -47 -28 -50 -30 -2 -2 8 -26 23 -54 l28 -49 -64
0 c-62 0 -64 -1 -79 -34 -16 -32 -15 -35 7 -72 14 -22 25 -34 25 -27 0 8 22
13 62 15 l62 3 48 82 49 82 -32 56 c-17 30 -32 55 -32 55 -1 0 -22 -12 -47
-27z"/>
<path d="M1528 2801 c-108 -35 -179 -98 -227 -200 -22 -48 -26 -69 -25 -151 0
-80 4 -104 25 -150 35 -76 105 -145 185 -182 57 -27 77 -31 148 -31 148 1 268
73 331 200 41 81 47 210 15 296 -66 175 -276 277 -452 218z m239 -33 c70 -26
145 -98 180 -173 24 -51 28 -73 28 -145 0 -71 -4 -94 -26 -141 -98 -208 -369
-265 -538 -113 -96 86 -137 215 -107 333 18 71 34 100 90 159 97 103 232 132
373 80z"/>
<path d="M1567 2540 c-85 -67 -36 -200 75 -200 108 0 148 165 51 209 -38 18
-98 13 -126 -9z m126 -20 c49 -39 42 -116 -14 -145 -42 -22 -67 -18 -100 14
-41 41 -40 90 2 125 37 31 77 33 112 6z"/>
<path d="M6042 2805 c-29 -8 -66 -22 -84 -31 -51 -26 -127 -110 -156 -172 -23
-49 -27 -70 -27 -152 1 -84 4 -102 29 -154 145 -297 572 -274 682 38 22 62 19
181 -6 249 -63 168 -265 271 -438 222z m222 -35 c76 -29 139 -88 178 -168 30
-60 33 -76 33 -152 0 -71 -4 -94 -27 -141 -32 -70 -90 -130 -160 -165 -75 -39
-190 -45 -270 -14 -158 59 -255 240 -214 399 27 105 97 189 196 235 72 34 183
36 264 6z"/>
<path d="M6065 2538 c-53 -47 -49 -144 8 -178 78 -48 164 -6 174 83 5 43 3 49
-30 82 -30 30 -42 35 -80 35 -33 0 -53 -6 -72 -22z m128 -18 c68 -54 25 -160
-64 -160 -29 0 -79 53 -79 84 0 80 82 124 143 76z"/>
<path d="M7579 2811 c-105 -22 -210 -106 -260 -208 -21 -41 -24 -63 -24 -153
0 -96 2 -110 28 -158 145 -275 525 -277 659 -4 30 61 33 74 33 162 0 82 -4
103 -27 152 -58 124 -171 203 -304 212 -38 3 -85 1 -105 -3z m208 -46 c111
-49 181 -136 204 -252 24 -119 -15 -230 -111 -316 -71 -64 -144 -90 -240 -85
-132 6 -239 77 -298 197 -23 48 -27 68 -27 141 0 71 5 95 27 142 49 107 154
184 267 198 74 8 115 3 178 -25z"/>
<path d="M7581 2534 c-79 -66 -31 -194 74 -194 52 0 89 27 105 75 35 107 -92
192 -179 119z m118 -9 c33 -16 41 -33 41 -80 0 -25 -8 -40 -31 -59 -35 -30
-58 -32 -98 -11 -78 40 -47 161 42 164 10 1 31 -6 46 -14z"/>
</g>
</svg>
