<?xml version="1.0" standalone="no"?>
<!DOCTYPE svg PUBLIC "-//W3C//DTD SVG 20010904//EN"
 "http://www.w3.org/TR/2001/REC-SVG-20010904/DTD/svg10.dtd">
<svg version="1.0" xmlns="http://www.w3.org/2000/svg"
 width="1500.000000pt" height="1500.000000pt" viewBox="0 0 1500.000000 1500.000000"
 preserveAspectRatio="xMidYMid meet">
<metadata>
Created by potrace 1.16, written by Peter Selinger 2001-2019
</metadata>
<g transform="translate(0.000000,1500.000000) scale(0.100000,-0.100000)"
fill="none" stroke="#000000">
<path d="M6905 9906 c-107 -27 -192 -92 -233 -177 -12 -24 -33 -107 -47 -184
-14 -77 -28 -148 -31 -157 -5 -16 -60 -17 -747 -21 -803 -4 -762 -2 -1007 -63
-554 -139 -1301 -536 -1740 -925 l-65 -57 -585 -126 c-1189 -255 -1284 -276
-1335 -301 -248 -120 -320 -481 -249 -1260 l6 -71 -40 -26 c-23 -16 -48 -44
-61 -70 -19 -41 -21 -60 -21 -264 0 -191 3 -224 19 -259 22 -50 69 -91 119
-105 22 -6 187 -10 420 -10 418 0 425 1 487 59 l30 28 370 -53 c204 -29 416
-58 472 -64 l101 -12 17 -47 c105 -284 347 -520 625 -609 112 -36 181 -46 310
-46 310 1 591 143 780 393 49 64 125 202 148 269 l11 32 3064 0 3065 0 32 -80
c62 -155 206 -336 345 -436 102 -73 250 -136 390 -165 97 -21 295 -16 398 9
298 73 537 265 670 538 24 50 46 101 50 113 5 21 7 21 340 21 l335 0 11 -29
c16 -36 68 -87 104 -100 18 -7 141 -11 328 -11 321 0 343 3 398 53 54 50 61
84 61 315 0 237 -5 261 -63 316 -32 30 -34 37 -40 117 -14 175 -68 392 -129
514 -74 147 -191 271 -313 330 -129 63 -509 170 -890 250 -363 76 -828 150
-1614 255 -167 22 -309 44 -315 47 -6 4 -61 46 -121 94 -810 634 -1621 1091
-2394 1348 -257 85 -291 91 -544 91 l-214 0 -27 153 c-34 187 -53 233 -122
296 -87 79 -137 94 -339 97 -116 2 -186 -1 -220 -10z m370 -225 c22 -10 46
-25 54 -34 10 -12 59 -235 61 -274 0 -2 -128 -3 -285 -3 -201 0 -285 3 -285
11 0 6 10 63 22 126 24 128 45 166 101 182 18 5 91 10 162 10 105 0 138 -3
170 -18z m-1615 -538 c0 -22 -193 -969 -198 -974 -4 -3 -216 7 -472 22 -256
15 -724 41 -1040 59 -316 18 -583 35 -594 39 -15 6 2 22 90 88 508 378 1203
694 1669 758 97 14 545 20 545 8z m2216 -415 c92 -233 193 -488 224 -568 32
-80 57 -146 55 -148 -2 -2 -1065 57 -1575 88 -91 5 -327 19 -525 31 -198 11
-361 22 -363 24 -3 3 184 956 193 983 3 9 195 12 914 12 l910 0 167 -422z
m404 349 c676 -224 1331 -574 2044 -1091 113 -82 134 -102 115 -104 -13 -2
-181 6 -374 17 -192 11 -640 37 -995 56 -355 20 -651 39 -658 43 -7 4 -60 124
-116 267 -270 683 -346 876 -346 882 0 3 30 3 68 0 44 -3 135 -28 262 -70z
m-5055 -939 c5 -17 21 -40 35 -50 29 -21 -81 -13 1400 -98 481 -28 952 -55
1045 -60 94 -5 287 -17 430 -25 143 -8 535 -31 870 -50 336 -19 844 -48 1130
-65 1840 -106 2263 -130 2325 -130 63 0 71 2 99 31 21 20 31 40 31 60 0 16 2
29 6 29 3 0 35 -24 72 -53 149 -118 90 -100 553 -162 891 -120 1239 -177 1751
-287 l46 -10 4 -122 c3 -107 7 -128 32 -184 37 -80 122 -161 203 -193 55 -22
74 -23 335 -27 l278 -4 11 -41 c22 -84 39 -174 45 -244 l7 -73 -221 0 c-234 0
-258 -4 -306 -48 -52 -49 -66 -94 -66 -219 l0 -113 -304 0 -303 0 -6 128 c-11
265 -106 483 -291 667 -133 132 -279 217 -464 267 -114 31 -352 31 -476 0
-347 -87 -618 -353 -722 -707 -20 -69 -27 -121 -31 -222 l-6 -133 -3012 0
-3012 0 -6 123 c-7 149 -34 260 -92 383 -58 124 -114 205 -204 294 -128 128
-277 212 -459 262 -112 31 -364 31 -474 0 -189 -52 -334 -135 -464 -266 -180
-182 -278 -403 -291 -663 -6 -106 -7 -113 -27 -113 -33 0 -388 47 -624 83
l-213 32 -2 150 c-3 163 -9 185 -64 237 -15 15 -41 32 -56 37 -18 7 -142 11
-332 11 -171 0 -306 4 -309 9 -6 10 -36 379 -36 444 l0 37 230 0 c248 0 282 6
314 51 32 47 21 85 -104 359 -66 145 -118 265 -116 267 4 5 715 160 1360 297
379 81 401 87 430 115 33 34 36 33 51 -11z m-1966 -671 c45 -98 81 -180 81
-183 0 -7 -269 -4 -274 4 -8 14 14 177 34 242 23 75 57 137 70 124 5 -5 45
-89 89 -187z m12279 -351 c40 -14 87 -35 105 -47 42 -29 107 -91 107 -102 0
-5 -92 -7 -204 -5 -188 3 -207 5 -232 24 -54 40 -68 70 -72 149 l-4 74 113
-34 c63 -19 147 -45 187 -59z m-9588 -285 c148 -50 261 -126 355 -239 180
-217 230 -497 136 -770 -41 -118 -84 -184 -186 -287 -100 -100 -169 -145 -285
-186 -309 -110 -630 -19 -853 241 -55 64 -129 208 -154 300 -24 89 -24 300 0
390 41 156 155 332 274 422 161 123 305 170 503 164 97 -3 130 -8 210 -35z
m8020 0 c257 -87 436 -276 517 -546 25 -82 25 -303 0 -395 -23 -90 -98 -234
-154 -300 -244 -285 -611 -365 -938 -205 -195 95 -337 263 -405 480 -33 106
-39 283 -12 396 39 162 116 295 232 401 163 149 330 211 550 204 97 -3 130 -8
210 -35z m-10332 -628 l-3 -148 -332 -3 -333 -2 0 150 0 150 335 0 336 0 -3
-147z m12392 -193 l0 -150 -235 0 -235 0 0 150 0 150 235 0 235 0 0 -150z"/>
<path d="M6063 7650 c-55 -12 -91 -31 -130 -72 -60 -62 -67 -91 -71 -319 -3
-132 0 -226 7 -261 16 -76 59 -140 118 -175 44 -25 57 -28 143 -28 133 0 186
30 241 135 23 44 24 52 24 290 0 228 -1 248 -21 290 -41 87 -111 134 -214 143
-30 3 -74 2 -97 -3z m117 -175 c17 -9 33 -27 37 -43 5 -15 8 -113 8 -219 0
-178 -1 -194 -21 -219 -25 -35 -60 -45 -104 -30 -55 18 -60 37 -60 264 l0 204
29 29 c33 33 67 37 111 14z"/>
<path d="M7507 7650 c-79 -14 -131 -51 -164 -117 -28 -58 -28 -60 -31 -281 -2
-141 1 -242 8 -277 14 -67 60 -130 115 -159 48 -25 161 -33 221 -17 94 25 158
104 171 210 l6 52 -83 -3 -84 -3 -8 -31 c-14 -55 -66 -80 -126 -60 -39 13 -46
43 -50 204 -7 267 8 322 86 322 49 0 69 -16 86 -65 l14 -40 81 -3 81 -3 0 29
c0 51 -30 131 -63 169 -55 63 -156 91 -260 73z"/>
<path d="M5270 7221 l0 -421 80 0 80 0 0 135 0 135 58 0 c172 0 276 92 289
253 11 132 -35 235 -127 287 -42 23 -56 25 -212 28 l-168 4 0 -421z m293 238
c35 -27 50 -85 38 -141 -14 -60 -40 -78 -112 -78 l-59 0 0 120 0 120 54 0 c39
0 60 -6 79 -21z"/>
<path d="M6522 7223 l3 -418 208 -3 207 -2 0 80 0 80 -125 0 -125 0 0 340 0
340 -85 0 -85 0 2 -417z"/>
<path d="M7020 7220 l0 -421 83 3 82 3 3 418 2 417 -85 0 -85 0 0 -420z"/>
<path d="M7932 7223 l3 -418 218 -3 217 -2 0 80 0 80 -135 0 -135 0 0 95 0 94
118 3 117 3 3 54 c6 100 10 96 -123 93 l-115 -3 0 90 0 91 130 0 130 0 0 80 0
80 -215 0 -215 0 2 -417z"/>
<path d="M1949 6641 c-58 -58 -31 -158 49 -181 41 -11 497 -13 576 -1 76 11
106 41 106 107 0 37 -6 51 -29 75 l-29 29 -322 0 -322 0 -29 -29z"/>
<path d="M4779 6641 c-55 -55 -33 -154 41 -179 42 -15 5749 -16 5803 -1 84 22
104 134 33 191 -20 17 -189 18 -2934 18 l-2914 0 -29 -29z"/>
<path d="M12811 6654 c-49 -35 -60 -113 -22 -158 37 -44 60 -46 466 -46 414 0
434 2 469 51 27 39 21 102 -13 138 l-29 31 -424 0 c-375 0 -426 -2 -447 -16z"/>
<path d="M3603 6605 c-170 -37 -325 -174 -384 -340 -29 -83 -36 -221 -15 -302
48 -191 193 -339 377 -388 62 -17 194 -19 257 -5 180 42 343 207 387 391 57
243 -58 491 -279 599 -118 58 -222 71 -343 45z m232 -234 c188 -83 244 -332
110 -489 -20 -22 -63 -54 -97 -71 -151 -76 -327 -15 -410 142 -19 35 -23 58
-23 132 0 78 4 97 27 141 28 53 87 112 137 139 75 38 178 41 256 6z"/>
<path d="M11623 6606 c-277 -63 -460 -349 -402 -628 39 -190 206 -365 389
-407 75 -17 201 -13 271 9 166 52 287 166 345 324 120 332 -111 688 -463 711
-49 3 -101 -1 -140 -9z m244 -242 c60 -29 117 -88 147 -153 16 -35 21 -65 21
-126 -1 -72 -4 -87 -34 -143 -56 -104 -134 -153 -254 -160 -72 -4 -82 -2 -143
28 -71 35 -132 101 -155 167 -21 61 -17 180 8 234 74 162 253 229 410 153z"/>
</g>
</svg>
