<?xml version="1.0" standalone="no"?>
<!DOCTYPE svg PUBLIC "-//W3C//DTD SVG 20010904//EN"
 "http://www.w3.org/TR/2001/REC-SVG-20010904/DTD/svg10.dtd">
<svg version="1.0" xmlns="http://www.w3.org/2000/svg"
 width="1500.000000pt" height="1500.000000pt" viewBox="0 0 1500.000000 1500.000000"
 preserveAspectRatio="xMidYMid meet">
<metadata>
Created by potrace 1.16, written by Peter Selinger 2001-2019
</metadata>
<g transform="translate(0.000000,1500.000000) scale(0.100000,-0.100000)"
fill="none" stroke="#000000">
<path d="M5825 12004 c-16 -3 -78 -11 -136 -19 -422 -60 -1082 -337 -1489
-627 -95 -69 1 -30 -1220 -485 -421 -157 -855 -318 -966 -359 -110 -42 -215
-84 -232 -95 -39 -23 -70 -71 -78 -121 l-6 -36 -196 -66 c-107 -36 -196 -67
-198 -68 -4 -5 -19 -324 -89 -1908 -19 -432 -42 -933 -50 -1115 -8 -181 -20
-433 -25 -560 -6 -126 -19 -426 -30 -665 -11 -239 -22 -500 -25 -580 l-6 -145
195 -215 c159 -175 201 -216 228 -222 18 -3 159 -23 313 -42 370 -48 335 -39
335 -92 l0 -44 105 0 104 0 10 -37 c5 -21 17 -67 26 -103 9 -36 27 -91 40
-122 13 -32 21 -58 18 -58 -3 0 -122 -9 -264 -20 -250 -20 -309 -29 -309 -49
0 -22 133 -65 325 -105 222 -46 404 -74 2100 -331 930 -141 1749 -265 1820
-276 72 -11 263 -40 425 -64 162 -25 549 -83 860 -130 311 -47 741 -112 956
-145 234 -35 473 -65 595 -74 980 -74 2353 -33 4029 119 463 42 683 105 640
184 -31 59 -292 130 -740 201 -107 17 -205 33 -218 36 -22 4 -19 8 31 49 133
110 278 329 336 506 l12 36 93 7 c337 25 564 149 675 369 67 133 95 289 95
547 1 204 1 205 -27 262 -28 58 -62 90 -133 126 l-41 21 5 128 c6 162 -14 658
-34 821 -20 174 -61 243 -155 265 -20 5 -29 17 -42 60 -52 164 -200 322 -382
407 -138 65 -588 162 -985 213 l-95 13 -7 134 c-3 74 -11 157 -18 185 -16 70
-67 161 -113 200 -139 119 -395 137 -482 33 -21 -25 -25 -40 -25 -96 0 -37 -3
-97 -6 -134 l-7 -67 -66 63 c-142 136 -636 576 -765 681 -59 48 -60 47 119 70
258 32 536 101 830 206 220 79 303 129 387 233 109 136 167 374 154 641 -10
228 -43 381 -115 532 -188 392 -455 616 -1080 907 -260 120 -422 179 -836 301
-816 240 -1348 362 -2235 510 -179 30 -389 66 -468 79 -194 34 -451 64 -662
76 -96 6 -233 20 -305 32 -124 19 -425 33 -500 22z m495 -259 c45 -12 137 -20
300 -25 296 -11 489 -35 710 -90 41 -11 172 -35 290 -55 928 -154 1680 -336
2565 -617 607 -193 1009 -406 1258 -667 145 -153 220 -295 262 -499 82 -398
34 -699 -130 -812 -68 -47 -235 -124 -355 -163 -210 -70 -492 -128 -809 -167
-239 -29 -259 -28 -393 24 -347 134 -765 229 -1257 286 -375 43 -578 53 -1061
54 -427 1 -468 0 -497 -17 -18 -9 -35 -28 -39 -41 -4 -18 55 -143 247 -522
462 -912 458 -905 549 -951 44 -22 50 -23 445 -25 769 -3 1489 -37 2245 -103
289 -26 794 -81 994 -110 60 -8 116 -15 124 -15 8 0 -50 67 -128 150 l-141
149 3 151 3 152 29 25 c27 23 36 25 85 20 80 -9 156 -63 196 -141 l30 -59 3
-227 3 -226 167 -23 c188 -25 601 -99 767 -137 128 -29 244 -73 317 -121 l53
-34 -40 5 c-654 94 -1101 125 -2006 141 -378 7 -388 6 -429 -59 -30 -50 -22
-93 28 -159 45 -59 56 -93 46 -144 l-7 -36 -251 6 c-727 19 -894 20 -926 7
-57 -24 -60 -44 -60 -393 l0 -314 116 -269 c64 -148 118 -275 121 -281 4 -10
-55 -13 -274 -13 l-279 0 -23 48 c-67 139 -205 303 -319 381 -78 52 -123 74
-222 107 -80 26 -98 28 -298 32 -244 5 -316 -6 -430 -63 -115 -59 -200 -148
-280 -295 l-29 -55 -56 3 c-45 3 -57 1 -66 -15 -6 -10 -11 -14 -11 -9 -1 26
81 1153 85 1163 3 10 203 12 930 11 509 0 928 1 930 4 12 11 -45 37 -91 42
-27 3 -425 8 -885 11 l-837 6 -20 -26 c-11 -14 -22 -25 -24 -25 -2 0 13 143
33 318 37 313 59 649 39 587 -24 -74 -101 -590 -116 -777 l-7 -88 -945 0 -944
0 -39 -22 c-22 -12 -39 -24 -39 -27 0 -3 438 -5 974 -3 536 1 977 -1 979 -5 4
-6 -62 -1013 -73 -1122 0 -2 -62 -1 -137 3 -76 3 -212 8 -303 11 -277 9 -1015
34 -1185 40 -160 6 -160 6 -187 -19 -16 -14 -28 -27 -28 -29 0 -2 96 -7 213
-11 116 -4 250 -9 297 -11 67 -4 852 -34 1255 -48 l70 -2 0 -102 c0 -56 1
-100 2 -99 1 1 9 36 18 77 27 132 18 119 85 119 33 0 60 -3 60 -7 0 -5 -11
-42 -24 -83 -14 -41 -30 -94 -36 -117 -10 -39 -13 -43 -64 -57 -50 -15 -106
-60 -106 -86 0 -5 -16 -147 -35 -316 -19 -169 -35 -313 -35 -320 0 -9 -12 -14
-32 -14 -40 0 -1494 129 -1525 135 -41 9 -116 227 -152 446 -72 434 -79 1306
-17 1964 5 47 4 46 -13 -20 -59 -231 -91 -391 -101 -520 -27 -337 -16 -883 25
-1249 41 -356 129 -643 225 -730 l40 -36 -444 0 c-441 0 -448 0 -763 35 -175
19 -330 35 -345 35 -23 0 -33 -11 -78 -96 l-52 -95 -37 5 c-20 3 -263 29 -541
56 -277 28 -505 52 -507 54 -1 1 -7 155 -13 342 -18 642 -18 634 -41 704 -31
94 -71 169 -122 226 -164 182 -436 145 -547 -76 -48 -95 -68 -202 -86 -455
-30 -437 -26 -410 -49 -408 -11 1 -143 19 -294 38 l-275 36 -96 102 c-175 185
-171 180 -166 224 3 21 8 119 11 218 3 99 12 340 20 535 8 195 19 474 25 620
16 414 39 982 45 1125 8 191 62 1540 76 1905 8 201 16 319 23 327 6 6 88 35
181 63 94 29 176 55 183 57 9 4 12 -27 12 -133 0 -141 28 -404 43 -404 4 0 7
6 6 13 -5 44 3 548 9 545 4 -1 26 -23 48 -48 l40 -45 -8 -245 c-4 -135 -14
-483 -23 -775 -8 -291 -17 -604 -20 -695 -6 -196 -22 -729 -30 -990 -14 -466
-26 -830 -35 -1005 -5 -104 -9 -274 -10 -377 l0 -188 44 0 43 0 7 213 c3 116
9 295 11 397 3 102 10 343 15 535 13 460 18 665 30 1105 5 201 12 439 15 530
2 91 10 354 16 585 6 231 14 526 17 655 l7 235 35 6 c19 3 197 65 395 137 198
71 617 223 930 337 314 113 693 251 844 306 150 54 277 99 282 99 5 0 9 -102
9 -232 0 -214 20 -515 38 -561 4 -10 6 164 4 386 -3 342 -1 407 11 419 8 8 29
27 47 42 32 27 33 27 12 42 -34 24 -56 95 -48 162 10 92 -16 142 -76 142 -54
1 282 165 606 295 254 103 437 155 661 190 121 19 415 13 505 -10z m-1845
-591 c-14 -26 -25 -63 -25 -83 1 -47 31 -112 65 -139 21 -17 24 -22 10 -22 -9
0 -33 16 -53 36 -20 20 -42 34 -51 31 -9 -3 -207 -80 -441 -172 -643 -253
-711 -280 -1170 -460 -234 -92 -494 -194 -579 -227 -139 -55 -158 -60 -207
-55 -68 7 -114 33 -114 65 0 33 25 77 57 100 16 11 136 60 268 110 229 86
1873 712 2135 812 69 27 126 49 127 49 1 1 -9 -20 -22 -45z m5599 -2828 c31
-21 90 -74 131 -118 l74 -79 -5 -47 c-9 -75 18 -111 200 -264 l160 -133 -85
-3 c-99 -4 -584 15 -814 31 l-160 12 -12 36 c-37 115 -123 563 -109 576 16 17
201 32 372 30 l192 -2 56 -39z m471 -381 c75 -66 146 -128 157 -138 26 -22 12
-41 -24 -32 -32 8 -284 228 -293 255 -7 21 2 43 15 38 5 -2 70 -57 145 -123z
m1500 -964 c478 -34 1064 -109 1133 -145 85 -44 149 -137 170 -246 6 -30 16
-165 22 -300 5 -135 12 -292 15 -350 3 -58 6 -202 7 -320 l2 -215 -1292 -3
-1292 -2 6 672 c6 531 5 681 -5 711 -7 21 -33 61 -57 88 -47 53 -55 87 -27
110 33 28 931 27 1318 0z m-1810 -381 c215 -5 414 -10 444 -10 l54 0 -7 -432
c-3 -238 -9 -508 -12 -601 l-7 -167 -424 2 -425 3 -134 278 -134 278 0 292 c0
385 -5 374 168 370 48 -2 263 -7 477 -13z m3272 -133 c12 -17 27 -45 32 -60 7
-19 11 -198 11 -518 l0 -489 -60 0 -60 0 -1 388 c-1 213 -3 398 -4 412 -1 14
-5 87 -9 163 l-7 137 38 0 c32 0 42 -6 60 -33z m142 -1140 c25 -9 41 -24 58
-56 22 -42 23 -55 23 -227 0 -147 -11 -275 -24 -291 -1 -1 -157 -18 -347 -38
-189 -19 -360 -37 -380 -40 -36 -5 -36 -5 -42 37 -3 24 -15 51 -29 65 l-24 24
-275 -11 c-151 -6 -288 -13 -305 -15 -49 -8 -83 -41 -90 -86 -5 -29 -12 -40
-28 -43 -33 -7 -949 -58 -1181 -66 -243 -8 -1281 -9 -1465 -1 l-125 6 -92 275
c-96 287 -109 353 -78 397 l14 21 1243 6 c684 4 1295 8 1358 11 141 6 872 23
1340 31 190 4 347 8 349 10 9 8 67 2 100 -9z m-10790 -138 c25 -9 31 -16 31
-40 0 -27 -2 -28 -27 -18 -56 21 -116 -19 -162 -109 -35 -70 -36 -91 -2 -45
16 23 39 47 50 53 20 10 20 9 4 -27 -16 -38 -34 -103 -28 -103 2 0 17 24 33
53 51 91 132 141 132 83 0 -16 -11 -32 -28 -45 -33 -23 -83 -113 -103 -186 -9
-32 -14 -101 -14 -195 0 -142 1 -147 32 -212 31 -67 68 -102 100 -96 10 2 34
36 58 80 22 43 46 78 53 78 17 0 10 -25 -29 -106 -46 -98 -122 -155 -183 -140
-63 16 -127 112 -162 241 -22 82 -30 296 -14 393 24 151 96 294 167 331 45 24
50 24 92 10z m5629 -219 c86 -46 160 -130 216 -244 70 -143 81 -201 80 -411 0
-166 -3 -187 -28 -270 -38 -125 -97 -233 -172 -314 -75 -81 -129 -115 -215
-137 -144 -37 -292 27 -394 171 -115 161 -165 369 -144 600 21 222 105 414
236 536 89 83 158 110 273 106 74 -3 93 -7 148 -37z m-1905 -475 c357 -34 650
-65 653 -67 2 -3 -3 -53 -11 -111 -18 -117 -12 -163 27 -212 l22 -28 -30 6
c-40 9 -1106 138 -1679 204 l-70 8 0 77 c0 42 2 78 5 81 3 2 106 -1 230 -8
124 -6 227 -10 229 -9 2 2 -17 8 -43 15 -54 13 -54 14 -62 73 l-7 46 44 -6
c24 -3 336 -34 692 -69z m3667 -415 c168 -5 382 -12 475 -15 94 -3 236 -8 317
-11 l146 -6 18 -47 c35 -94 84 -179 134 -235 50 -54 51 -56 26 -56 -42 0 -91
25 -140 70 -41 38 -52 43 -103 46 -32 3 -312 18 -623 34 -311 17 -617 33 -681
36 l-116 7 -42 -62 c-45 -66 -56 -76 -41 -35 14 36 40 200 40 252 l0 44 143
-6 c78 -4 279 -11 447 -16z"/>
<path d="M5515 11215 c-54 -19 -108 -79 -134 -151 -25 -65 -24 -49 -41 -699
-9 -367 -8 -379 43 -434 44 -47 128 -64 207 -41 19 6 231 47 470 90 239 44
455 88 480 97 66 24 135 94 161 162 28 76 24 194 -11 265 -47 97 -232 267
-436 401 -167 110 -571 305 -661 319 -22 3 -54 0 -78 -9z"/>
<path d="M4820 11023 c0 -10 -3 -70 -5 -133 -3 -63 -9 -302 -15 -530 -5 -228
-12 -500 -15 -605 -6 -227 -22 -844 -30 -1150 -19 -761 -25 -943 -80 -2240 -8
-192 -17 -439 -21 -547 l-7 -198 46 0 45 0 6 83 c3 45 8 154 11 242 6 178 18
507 40 1085 8 212 17 473 20 580 3 107 12 247 20 310 8 64 19 312 25 560 6
245 12 499 15 565 16 425 16 620 0 679 -10 40 -14 82 -10 130 2 39 7 215 10
391 9 539 16 727 31 763 l13 32 -50 0 c-40 0 -49 -3 -49 -17z"/>
<path d="M4464 9756 c-147 -43 -202 -84 -233 -176 -11 -32 -22 -381 -46 -1450
-6 -274 -6 -275 17 -320 33 -65 59 -74 202 -71 66 1 121 3 122 4 2 1 8 160 14
352 6 193 17 548 25 790 26 799 28 905 19 904 -5 -1 -59 -16 -120 -33z"/>
<path d="M7585 9574 c-702 -34 -1354 -117 -2085 -264 -341 -69 -373 -77 -367
-93 2 -7 22 -65 43 -129 21 -65 42 -118 45 -118 4 0 10 42 15 92 l9 93 55 12
c472 105 1452 253 2040 308 983 91 2272 -17 3584 -300 92 -20 170 -34 172 -32
11 11 -594 144 -981 216 -896 168 -1303 211 -2015 215 -245 2 -476 1 -515 0z"/>
<path d="M3585 9511 c-132 -32 -254 -65 -272 -74 -77 -41 -124 -145 -108 -243
l8 -49 9 53 c10 69 40 125 81 156 49 37 482 150 550 143 82 -7 133 -75 157
-206 10 -55 -3 -977 -25 -1841 -2 -113 -7 -344 -10 -515 -3 -170 -7 -409 -10
-530 -6 -260 -11 -531 -26 -1295 -6 -311 -13 -567 -15 -569 -1 -2 -171 20
-376 48 -205 29 -380 53 -388 54 -11 1 -14 -6 -13 -27 5 -62 6 -62 430 -116
216 -28 399 -50 407 -50 13 0 14 5 4 28 -15 37 -16 -53 27 1957 8 380 17 812
20 960 3 149 10 459 15 690 5 231 12 587 15 790 3 204 8 392 11 419 11 108
-65 241 -153 265 -58 17 -80 13 -338 -48z"/>
<path d="M6800 9118 c-295 -35 -752 -95 -799 -104 -49 -10 -77 -55 -119 -186
-42 -129 -76 -311 -70 -370 2 -24 13 5 40 112 53 213 93 316 143 368 l41 44
469 59 c486 61 547 66 604 49 25 -7 32 -7 24 1 -33 33 -182 45 -333 27z"/>
<path d="M3537 9055 c-122 -25 -143 -39 -177 -117 -27 -64 -28 -78 -41 -755
-10 -555 -9 -574 9 -616 14 -31 30 -48 55 -61 34 -16 44 -16 187 3 84 10 158
25 167 32 31 26 54 97 59 182 2 45 9 338 15 650 9 518 9 572 -6 617 -32 96
-74 106 -268 65z"/>
<path d="M3201 8889 c-19 -134 -38 -848 -40 -1513 -1 -313 1 -568 3 -565 2 2
11 285 20 629 9 344 21 826 27 1071 6 245 10 452 7 459 -2 7 -10 -29 -17 -81z"/>
<path d="M6609 8876 c-213 -21 -230 -24 -292 -54 -101 -50 -166 -132 -201
-253 -17 -56 -17 -56 -61 -63 -145 -19 -182 -104 -170 -391 10 -244 16 -244
42 -5 38 341 36 340 344 337 191 -2 196 -3 232 -27 72 -49 72 -49 72 -476 0
-362 -1 -383 -19 -403 -17 -19 -30 -21 -138 -21 -133 0 -143 -7 -89 -61 l29
-29 351 0 351 0 0 640 0 641 -24 48 c-49 95 -105 142 -168 140 -18 -1 -135
-11 -259 -23z"/>
<path d="M7140 8031 l0 -472 21 12 c46 24 186 170 222 230 62 106 66 89 -92
408 -77 156 -143 286 -146 289 -3 3 -5 -207 -5 -467z"/>
<path d="M5700 8069 c-6 -24 -24 -89 -40 -144 -16 -55 -48 -196 -70 -313 -35
-184 -40 -230 -39 -340 1 -70 3 -116 5 -102 3 14 11 77 20 140 8 63 28 183 45
265 43 216 98 529 94 534 -2 1 -9 -17 -15 -40z"/>
<path d="M5950 7651 c0 -11 12 -34 28 -50 l27 -29 237 -6 236 -6 -19 38 c-10
20 -20 44 -22 52 -4 13 -42 16 -246 18 -238 4 -241 3 -241 -17z"/>
<path d="M5910 7423 l0 -183 588 0 c568 0 589 -1 627 -20 47 -24 130 -26 180
-6 28 12 35 21 40 53 3 21 8 47 10 58 3 14 -6 9 -32 -20 -19 -22 -32 -31 -28
-20 14 38 17 133 5 169 l-12 36 -69 0 -69 0 29 -52 c37 -67 46 -108 28 -132
-13 -18 -26 -18 -513 7 -274 14 -507 28 -516 32 -24 9 -46 63 -54 128 l-7 57
-66 0 c-72 1 -107 14 -127 51 -11 21 -13 -2 -14 -158z"/>
<path d="M9015 7401 c-58 -6 -56 -7 80 -24 386 -51 830 -136 1214 -233 118
-29 216 -52 219 -50 46 46 -451 189 -908 261 -289 45 -469 59 -605 46z"/>
<path d="M3259 7129 c-39 -15 -49 -48 -49 -173 0 -133 8 -150 65 -148 59 2 67
17 76 139 10 117 1 166 -31 183 -22 12 -26 12 -61 -1z"/>
<path d="M5690 6561 c-6 -12 -10 -101 -10 -220 0 -168 2 -202 16 -215 28 -29
68 -18 89 25 11 20 15 64 15 164 l0 135 25 0 c23 0 25 4 25 45 0 64 -24 85
-95 85 -43 0 -56 -4 -65 -19z"/>
<path d="M3146 6095 c-4 -104 -10 -197 -11 -206 -2 -8 -6 -218 -10 -465 -5
-364 -3 -459 8 -504 12 -49 14 12 21 580 9 704 6 895 -8 595z"/>
<path d="M11060 6120 l0 -510 95 0 95 0 0 510 0 510 -95 0 -95 0 0 -510z"/>
<path d="M11510 6522 l0 -99 238 -7 c320 -8 538 -15 912 -26 173 -6 330 -10
348 -10 l32 0 0 89 0 89 -117 6 c-65 4 -242 11 -393 16 -458 17 -789 29 -907
36 l-113 5 0 -99z"/>
<path d="M13120 6096 l0 -456 87 0 86 0 -6 242 c-4 133 -7 332 -7 443 l0 202
-51 7 c-29 4 -65 10 -80 13 l-29 6 0 -457z"/>
<path d="M11510 6100 l0 -120 259 0 c143 0 267 -3 277 -7 14 -5 16 -3 10 18
-17 53 -18 125 -2 169 8 24 14 45 13 46 -1 1 -127 4 -279 7 l-278 6 0 -119z"/>
<path d="M12580 6181 c0 -5 7 -14 15 -21 36 -30 40 -99 10 -172 -7 -17 7 -18
214 -18 l221 0 0 110 0 110 -230 0 c-126 0 -230 -4 -230 -9z"/>
<path d="M11510 5680 l0 -100 765 0 765 0 0 100 0 100 -765 0 -765 0 0 -100z"/>
<path d="M9991 6283 l-1 -232 313 -3 c171 -2 314 -2 316 0 3 1 -8 29 -24 62
l-28 60 -215 2 -215 3 -64 150 c-34 83 -67 159 -72 170 -6 13 -10 -59 -10
-212z"/>
<path d="M10003 5710 l2 -225 313 -3 c173 -1 312 1 310 5 -1 5 -18 41 -37 81
l-34 72 -222 0 -222 0 -43 118 c-75 201 -70 205 -67 -48z"/>
<path d="M12955 5179 c-110 -4 -263 -10 -340 -13 -77 -3 -286 -11 -465 -17
-179 -5 -337 -15 -351 -20 -40 -15 -49 -49 -49 -174 0 -123 8 -158 40 -175 15
-8 183 -1 678 30 361 23 676 46 700 52 64 16 74 38 74 160 0 139 0 136 -19
146 -33 17 -68 18 -268 11z"/>
<path d="M8180 4711 c-53 -17 -89 -42 -133 -91 -83 -92 -127 -220 -127 -370 0
-347 268 -545 475 -349 93 87 145 228 145 389 0 243 -113 413 -283 426 -29 2
-63 0 -77 -5z m159 -149 c37 -27 88 -115 100 -174 15 -67 14 -183 -3 -243 -34
-128 -115 -215 -200 -215 -48 0 -107 67 -130 148 -22 80 -20 107 4 58 31 -62
77 -105 130 -121 22 -7 20 -4 -11 26 -48 45 -75 102 -90 183 -12 73 -6 149 16
203 21 50 -5 44 -51 -12 -21 -24 -40 -43 -42 -41 -7 8 51 119 82 153 17 20 44
42 61 50 38 17 100 10 134 -15z"/>
<path d="M8278 4475 c40 -34 71 -103 79 -175 l6 -60 -87 0 -86 0 6 -27 c22
-95 72 -163 119 -163 59 0 112 127 101 238 -11 107 -47 170 -113 198 -49 21
-58 17 -25 -11z"/>
</g>
</svg>
