<?xml version="1.0" standalone="no"?>
<!DOCTYPE svg PUBLIC "-//W3C//DTD SVG 20010904//EN"
 "http://www.w3.org/TR/2001/REC-SVG-20010904/DTD/svg10.dtd">
<svg version="1.0" xmlns="http://www.w3.org/2000/svg"
 width="664.000000pt" height="693.000000pt" viewBox="0 0 664.000000 693.000000"
 preserveAspectRatio="xMidYMid meet">
<metadata>
Created by potrace 1.16, written by Peter Selinger 2001-2019
</metadata>
<g transform="translate(0.000000,693.000000) scale(0.100000,-0.100000)"
fill="none" stroke="#000000">
<path d="M6340 6821 c-646 -133 -1269 -431 -1846 -882 -307 -241 -558 -474
-1104 -1026 l-447 -453 -46 0 c-73 0 -431 -66 -652 -120 -195 -48 -574 -164
-638 -196 -18 -8 -339 -324 -713 -702 l-681 -687 111 -7 c190 -12 944 -85 953
-93 2 -1 -64 -71 -147 -156 -82 -85 -150 -158 -150 -163 0 -5 72 -79 161 -164
l161 -156 -60 -58 c-54 -52 -64 -58 -102 -58 -80 0 -233 -62 -360 -146 -346
-228 -559 -619 -659 -1210 -25 -146 -25 -154 -5 -154 43 0 466 106 599 151
417 138 670 340 820 654 39 81 75 204 75 255 0 30 9 44 55 90 l55 55 174 -174
174 -173 142 140 c78 77 143 135 145 129 3 -11 72 -638 98 -890 l12 -118 679
678 c373 373 685 687 692 699 25 37 174 504 220 689 51 202 80 382 90 550 l7
114 101 92 c379 345 1014 981 1228 1229 357 415 649 899 832 1380 122 323 216
720 204 865 -4 51 -7 51 -178 16z m120 -68 c0 -68 -72 -362 -137 -558 -82
-251 -257 -655 -284 -655 -22 0 -183 73 -257 117 -211 124 -384 308 -497 529
-71 140 -73 135 75 210 232 118 455 205 730 284 230 66 370 94 370 73z m-1236
-540 c132 -306 446 -597 754 -697 l52 -18 -32 -59 c-36 -69 -29 -69 -162 -16
-322 127 -615 422 -751 756 l-23 56 56 32 c32 18 60 33 63 33 3 0 23 -39 43
-87z m-60 -288 c162 -250 425 -462 689 -556 l87 -32 -27 -46 c-232 -399 -621
-857 -1218 -1431 -83 -80 -206 -199 -275 -265 -69 -66 -244 -235 -390 -376
-821 -792 -1061 -983 -1529 -1219 l-143 -73 -59 59 -59 59 733 723 c402 397
763 757 801 800 92 103 194 260 267 410 62 125 162 409 174 493 11 78 -15 80
-191 18 -263 -92 -485 -211 -664 -356 -41 -34 -190 -177 -330 -320 -493 -500
-1273 -1283 -1280 -1283 -3 0 -35 29 -70 65 l-65 66 63 122 c166 325 429 677
808 1082 505 539 1419 1462 1654 1671 285 252 518 436 760 599 l115 77 55
-114 c30 -62 73 -140 94 -173z m-998 -1462 c-106 -372 -218 -606 -393 -823
-62 -77 -1555 -1560 -1570 -1560 -4 0 -100 92 -212 204 l-205 205 261 268
c144 147 508 514 810 814 503 502 557 552 658 618 137 90 314 178 487 241 147
54 172 59 164 33z m-1306 -89 c0 -4 -78 -88 -173 -188 -503 -526 -816 -935
-1043 -1359 l-68 -129 -51 6 c-27 4 -131 15 -230 25 -516 54 -714 75 -712 78
1 1 310 311 687 688 l685 687 80 23 c224 66 623 151 813 174 6 0 12 -2 12 -5z
m-1677 -896 c-365 -365 -667 -664 -671 -665 -4 -2 -33 0 -65 5 l-58 7 602 607
c331 335 618 618 638 630 38 24 175 76 201 77 9 1 -282 -297 -647 -661z m2867
-531 c-24 -163 -65 -345 -132 -577 l-42 -145 -235 -230 c-130 -126 -438 -429
-686 -673 -366 -361 -451 -440 -457 -425 -7 19 -17 108 -68 613 -17 162 -33
316 -36 341 l-6 46 204 105 c465 239 768 468 1328 1002 122 117 146 135 148
117 2 -12 -6 -90 -18 -174z m-2590 -324 c-5 -10 -82 -90 -170 -178 l-160 -160
-27 28 -28 27 150 150 150 150 48 0 c43 0 47 -2 37 -17z m199 -67 l73 -74
-192 -196 c-106 -108 -198 -196 -204 -196 -6 0 -48 37 -93 82 l-83 82 183 187
c221 227 209 222 316 115z m96 -491 l-194 -199 -28 24 c-15 14 -58 56 -95 95
l-66 70 196 198 197 197 92 -92 93 -93 -195 -200z m343 62 c34 -35 62 -68 62
-72 0 -12 -208 -230 -302 -316 l-90 -82 -89 89 -89 89 197 197 197 197 25 -19
c14 -10 54 -47 89 -83z m1701 -120 l-31 -86 -621 -621 c-674 -671 -633 -637
-636 -535 l-1 40 657 653 c362 359 659 648 661 644 1 -5 -11 -48 -29 -95z
m-1537 -44 c54 -56 56 -61 62 -123 l7 -65 -171 -170 -170 -170 -90 90 c-49 49
-90 94 -90 100 0 10 380 395 390 395 3 0 31 -26 62 -57z m-748 -162 l149 -149
-107 -120 c-58 -65 -123 -131 -144 -145 -20 -15 -116 -53 -212 -86 -96 -32
-199 -69 -229 -80 -29 -12 -56 -19 -59 -16 -3 3 9 38 26 78 17 39 57 139 87
221 31 82 65 167 76 190 20 40 233 254 254 255 6 1 77 -66 159 -148z m-425
-18 c-53 -56 -73 -94 -134 -257 -52 -139 -144 -355 -186 -439 l-19 -37 57 30
c32 16 169 68 304 114 287 98 313 110 375 174 l46 47 -7 -34 c-26 -127 -148
-327 -274 -451 -190 -188 -419 -294 -869 -403 -100 -24 -185 -40 -188 -36 -7
12 21 159 61 319 126 504 388 835 780 986 85 33 95 30 54 -13z m1251 -121 l0
-48 -133 -132 -133 -132 -27 28 -27 27 152 152 c84 84 156 153 160 153 5 0 8
-21 8 -48z"/>
<path d="M4680 5529 c-98 -19 -216 -101 -279 -193 -77 -113 -98 -275 -52 -409
56 -165 191 -278 367 -308 232 -40 469 123 524 360 53 229 -104 485 -335 545
-64 17 -153 19 -225 5z m263 -79 c160 -61 270 -264 238 -438 -58 -316 -430
-450 -659 -237 -173 160 -186 412 -32 579 52 56 94 83 168 107 77 26 204 21
285 -11z"/>
<path d="M4699 5437 c-119 -34 -217 -122 -259 -234 -30 -81 -26 -194 12 -275
90 -193 313 -271 501 -176 108 54 187 176 195 301 6 94 -14 164 -67 239 -41
57 -119 116 -179 136 -55 19 -153 23 -203 9z m243 -109 c66 -44 114 -115 130
-192 31 -145 -62 -299 -206 -341 -110 -33 -203 -8 -286 75 -41 40 -60 69 -73
109 -48 150 16 301 156 367 46 22 63 25 139 21 80 -3 91 -6 140 -39z"/>
</g>
</svg>
