<?xml version="1.0" standalone="no"?>
<!DOCTYPE svg PUBLIC "-//W3C//DTD SVG 20010904//EN"
 "http://www.w3.org/TR/2001/REC-SVG-20010904/DTD/svg10.dtd">
<svg version="1.0" xmlns="http://www.w3.org/2000/svg"
 width="1312.000000pt" height="2000.000000pt" viewBox="0 0 1312.000000 2000.000000"
 preserveAspectRatio="xMidYMid meet">
<metadata>
Created by potrace 1.16, written by Peter Selinger 2001-2019
</metadata>
<g transform="translate(0.000000,2000.000000) scale(0.100000,-0.100000)"
fill="#000000" stroke="none">
<path d="M6515 19293 c-352 -21 -657 -130 -901 -324 l-61 -48 -48 49 c-26 27
-88 70 -139 98 -220 121 -514 179 -776 152 -343 -34 -612 -144 -861 -351 l-44
-36 -108 10 c-242 24 -527 -31 -827 -160 -197 -85 -367 -186 -471 -281 l-54
-50 -65 14 c-102 22 -231 28 -302 15 -89 -18 -349 -104 -465 -155 -259 -114
-471 -282 -645 -514 -153 -202 -287 -483 -288 -599 0 -17 -4 -34 -9 -38 -6 -3
10 -61 35 -133 25 -70 97 -275 159 -457 181 -530 241 -690 407 -1080 140 -329
201 -485 299 -768 101 -291 206 -576 329 -892 200 -514 258 -666 345 -905 175
-481 278 -736 442 -1100 47 -104 47 -135 -2 -315 -101 -371 -212 -839 -325
-1370 -34 -159 -99 -450 -145 -645 -46 -195 -95 -407 -109 -470 -83 -379 -100
-462 -128 -624 l-30 -180 -48 -42 c-113 -102 -179 -328 -180 -611 0 -110 2
-125 20 -143 11 -11 31 -20 45 -20 14 0 29 -8 35 -20 16 -30 46 -43 70 -30 11
6 20 16 20 22 0 7 -5 6 -15 -2 -25 -20 -52 -2 -75 53 -31 70 -35 115 -17 160
21 50 37 47 37 -6 0 -98 50 -197 100 -197 27 0 62 30 73 63 3 9 7 9 19 -1 19
-16 62 -1 72 24 6 15 11 13 37 -14 43 -43 55 -41 14 3 -44 46 -59 113 -52 224
7 112 43 214 91 259 44 39 56 40 83 4 54 -73 79 -149 59 -178 -21 -28 -46 -2
-47 50 l-2 41 -6 -35 c-6 -35 -7 -35 -21 -12 -21 31 -58 29 -66 -4 -13 -49 2
-112 37 -159 19 -24 41 -45 50 -45 27 0 41 -24 30 -53 -17 -44 -31 -42 -32 5
-2 40 -2 39 -9 -15 -5 -40 -15 -66 -31 -83 -13 -14 -17 -23 -9 -19 12 4 15 -4
15 -38 0 -40 39 -116 52 -103 3 3 -4 18 -15 34 -43 60 -36 108 27 186 43 53
40 71 -17 105 -26 17 -54 42 -63 58 -30 51 -34 123 -7 123 6 0 34 -22 63 -49
29 -26 75 -58 102 -71 91 -42 108 -70 124 -203 13 -114 -3 -191 -47 -226 -15
-12 -21 -21 -13 -21 8 0 22 -21 33 -46 18 -44 18 -46 0 -87 -34 -76 -103 -137
-153 -137 -16 0 -30 19 -61 80 -44 87 -47 100 -26 100 8 0 28 12 43 26 22 20
23 24 8 19 -76 -27 -112 -34 -146 -29 -62 10 -125 57 -167 123 -61 96 -63 99
-48 59 45 -117 154 -208 247 -208 l41 0 -6 -33 c-4 -17 -9 -59 -12 -92 -11
-110 44 -229 224 -495 145 -214 202 -283 254 -309 69 -33 138 -42 225 -30 151
21 284 77 530 225 120 71 363 204 375 204 4 0 21 -44 38 -97 37 -114 132 -317
185 -397 20 -30 87 -112 148 -183 62 -70 128 -154 147 -186 19 -32 58 -89 85
-125 l51 -67 -37 -36 c-24 -24 -41 -34 -50 -29 -49 31 -189 -145 -189 -238 0
-37 -10 -49 -191 -238 -436 -454 -632 -694 -803 -982 -89 -149 -147 -274 -184
-399 -51 -169 -56 -256 -46 -723 19 -895 6 -1107 -85 -1351 -21 -57 -42 -125
-45 -150 -6 -42 -10 -47 -54 -67 -26 -12 -63 -31 -82 -42 -28 -17 -47 -20 -95
-17 -61 4 -97 17 -365 142 -63 30 -139 61 -169 69 -173 50 -358 -22 -376 -147
-5 -30 -3 -58 5 -77 28 -67 218 -210 442 -332 380 -206 692 -318 898 -321 88
-1 117 11 177 76 51 55 80 132 94 250 10 80 9 97 -5 132 -16 38 -16 40 5 55
26 20 65 136 120 355 22 88 71 272 109 409 79 284 122 473 144 631 22 165 37
412 34 570 -3 131 -2 142 19 175 23 35 28 78 14 115 -7 17 0 25 38 47 25 14
75 52 109 83 35 30 90 73 123 95 179 122 516 434 639 593 29 37 54 67 55 65 2
-2 -5 -43 -15 -93 -11 -49 -33 -202 -51 -340 -42 -331 -43 -516 -5 -685 14
-63 35 -160 46 -214 33 -161 62 -209 150 -249 126 -57 249 -68 455 -41 179 23
245 46 416 147 206 121 405 209 876 386 177 66 347 132 379 146 31 14 58 24
59 23 1 -2 11 -20 24 -40 12 -20 44 -53 71 -72 27 -20 62 -55 77 -78 45 -72
110 -217 148 -333 20 -60 48 -132 63 -158 33 -62 100 -123 148 -136 122 -34
215 16 255 136 18 54 20 77 14 141 -16 183 -78 403 -157 554 -76 146 -321 487
-435 606 -50 52 -55 54 -90 49 -47 -8 -184 -78 -240 -123 -25 -21 -52 -34 -70
-34 -29 0 -82 -27 -119 -62 -38 -34 -178 -62 -504 -98 -351 -40 -547 -78 -620
-123 -19 -12 -54 -39 -77 -61 -24 -21 -43 -36 -43 -34 0 3 25 56 55 117 30 61
55 114 55 116 0 3 65 139 144 302 199 412 280 608 316 763 7 30 23 66 36 80
37 40 56 99 62 192 4 83 3 88 -22 118 -23 27 -26 41 -26 101 0 66 1 69 30 84
88 46 182 187 214 325 60 254 -40 665 -308 1261 -36 81 -66 150 -66 153 0 3
33 6 73 6 110 0 349 18 477 35 217 30 261 67 350 292 71 181 83 224 109 398
20 129 29 166 70 277 23 63 27 114 11 150 -9 19 -4 36 30 99 l40 77 68 4 c150
8 185 92 129 313 -15 55 -37 153 -51 219 -14 65 -37 141 -51 168 l-26 50 107
181 c252 426 409 682 566 923 147 224 244 402 307 561 l33 82 79 41 c119 61
171 93 309 190 69 49 161 110 205 137 103 64 566 323 1050 588 357 195 571
313 1510 832 908 502 1363 743 1419 749 89 11 204 98 254 192 46 86 58 147 72
352 45 659 -100 1568 -360 2260 -32 85 -83 229 -114 320 -152 455 -448 1135
-613 1408 -148 244 -431 626 -585 788 -164 172 -414 305 -678 361 -104 21
-364 24 -455 5 -181 -40 -367 -122 -500 -222 l-80 -60 -50 49 c-155 149 -366
260 -595 312 -123 28 -346 35 -478 15 -169 -26 -345 -93 -527 -201 l-30 -18
-70 46 c-286 184 -571 276 -949 307 -123 10 -169 10 -281 3z m505 -82 c274
-44 488 -123 695 -256 53 -34 57 -40 41 -49 -64 -38 -141 -103 -185 -158 -61
-74 -150 -246 -158 -304 l-5 -41 -87 65 c-234 175 -651 372 -925 437 -139 33
-246 45 -412 45 -150 0 -252 -14 -344 -49 l-55 -20 35 30 c187 161 493 286
785 319 130 14 472 4 615 -19z m-2080 -56 c193 -31 394 -117 588 -251 2 -1
-24 -35 -57 -74 -33 -39 -80 -111 -105 -159 -53 -102 -106 -254 -106 -302 l0
-33 -37 36 c-70 66 -208 161 -293 201 -47 22 -117 54 -156 73 -186 87 -363
126 -579 126 -292 1 -523 -81 -661 -235 -24 -27 -44 -45 -44 -40 0 5 26 49 58
98 188 288 526 493 922 560 106 18 355 18 470 0z m3805 -45 c244 -35 416 -108
625 -267 l100 -75 -53 -62 c-125 -143 -212 -318 -226 -456 l-6 -65 -74 130
c-230 407 -453 614 -720 671 -78 16 -294 18 -375 3 -32 -6 -60 -8 -62 -6 -8 8
167 73 245 92 172 42 397 56 546 35z m1799 -124 c96 -24 121 -39 197 -117 116
-119 192 -313 219 -559 21 -189 11 -224 -194 -643 -69 -142 -126 -260 -126
-262 0 -3 -64 -134 -141 -292 -78 -159 -166 -340 -195 -403 -30 -63 -57 -113
-62 -111 -4 2 -43 84 -88 180 -155 341 -315 629 -452 816 -128 175 -257 331
-369 447 -129 132 -128 130 -92 258 42 152 121 290 225 392 83 81 113 102 249
170 249 126 345 149 590 144 116 -2 192 -9 239 -20z m-2163 -62 c46 -8 109
-26 140 -39 157 -63 328 -217 439 -393 36 -57 88 -138 116 -181 29 -42 66
-106 84 -142 23 -46 62 -95 140 -174 261 -267 400 -466 591 -847 80 -159 102
-208 234 -510 l73 -167 -145 -358 c-128 -318 -280 -668 -349 -805 l-24 -48
-53 0 c-125 0 -332 -52 -452 -113 -114 -57 -223 -159 -293 -272 -35 -57 -31
-66 -57 110 -70 459 -254 1129 -477 1730 -227 613 -427 1018 -649 1316 -31 42
-82 115 -113 162 -31 48 -79 111 -106 140 -31 33 -50 64 -50 78 0 30 49 134
91 195 51 75 160 184 223 225 69 45 146 76 236 94 93 19 301 18 401 -1z m2502
-67 c217 -118 346 -252 679 -702 199 -269 307 -461 501 -890 188 -417 237
-541 327 -825 34 -107 91 -282 126 -388 143 -433 235 -853 296 -1347 19 -156
22 -230 23 -550 0 -324 -2 -378 -18 -435 -20 -74 -69 -165 -127 -239 -46 -59
-70 -73 -123 -76 l-39 -2 9 86 c12 125 6 418 -12 636 -50 597 -196 1280 -409
1920 -132 395 -265 688 -488 1080 -148 258 -190 327 -317 519 -145 218 -157
239 -237 396 l-58 115 -7 160 c-4 97 -13 186 -24 225 -23 91 -116 278 -159
323 -21 20 -33 37 -29 37 4 0 43 -19 86 -43z m-4558 4 c113 -24 189 -51 389
-135 339 -143 544 -262 656 -382 324 -346 554 -769 852 -1573 145 -391 287
-837 387 -1216 131 -492 157 -595 155 -595 -2 0 -21 27 -43 59 -72 106 -210
232 -323 295 -188 104 -531 177 -763 161 -225 -16 -399 -87 -529 -216 -43 -44
-80 -79 -81 -79 -2 0 -16 37 -31 83 -154 466 -393 1047 -619 1502 -321 648
-575 1027 -934 1398 -113 116 -114 118 -119 172 -6 70 21 187 60 266 40 80
133 178 205 217 111 58 206 72 463 67 134 -3 210 -10 275 -24z m-2708 -67 c21
-6 20 -10 -33 -77 -91 -116 -164 -291 -164 -392 0 -27 -4 -36 -14 -32 -232 89
-604 86 -879 -7 -223 -76 -424 -249 -518 -448 l-20 -43 5 71 c9 137 103 303
251 443 108 101 182 154 315 225 270 142 526 229 757 255 84 10 270 13 300 5z
m708 -74 c331 -38 577 -162 925 -467 209 -182 489 -538 722 -918 224 -364 433
-797 746 -1547 77 -183 168 -396 202 -473 33 -77 64 -147 68 -155 3 -9 -5 -6
-24 8 -140 109 -303 189 -484 239 -101 27 -377 24 -485 -5 -189 -52 -361 -171
-435 -300 -35 -61 -50 -75 -50 -47 0 32 -95 319 -157 475 -74 184 -209 475
-315 680 -39 74 -102 196 -141 270 -293 563 -560 972 -815 1249 -155 168 -383
358 -543 452 -87 50 -104 81 -89 158 30 159 225 310 470 365 118 27 259 32
405 16z m-2198 -379 c29 -4 56 -10 59 -14 4 -4 -9 -24 -28 -45 -118 -131 -197
-323 -185 -453 l5 -62 -51 7 c-29 3 -71 13 -95 21 -64 22 -234 38 -337 31
-186 -14 -387 -70 -515 -146 -255 -150 -454 -401 -485 -612 -10 -66 -29 -51
-21 16 21 180 184 484 370 691 195 217 399 351 696 458 304 110 423 131 587
108z m1097 -47 c141 -24 171 -40 371 -195 232 -178 430 -381 610 -623 271
-364 617 -979 912 -1616 99 -212 296 -659 307 -696 4 -14 -9 -6 -43 26 -91 89
-245 167 -416 211 -127 32 -363 33 -515 0 -203 -43 -388 -119 -479 -198 -23
-19 -57 -58 -76 -85 l-33 -50 -22 69 c-36 107 -106 287 -162 413 -55 124 -316
642 -367 728 -17 29 -31 55 -31 57 0 24 -264 441 -368 582 -212 285 -535 600
-787 767 -55 36 -108 72 -117 79 -16 11 -13 19 36 93 127 192 310 337 501 397
191 61 472 78 679 41z m7856 -414 c42 -64 109 -179 150 -256 40 -76 99 -177
130 -224 198 -296 406 -699 560 -1085 233 -584 422 -1354 509 -2075 18 -141
41 -411 41 -475 0 -11 -19 14 -43 55 -138 242 -386 473 -642 600 -131 65 -236
95 -360 106 -196 16 -439 -56 -531 -158 -18 -21 -36 -38 -38 -38 -1 0 -6 46
-10 103 -29 454 -267 1346 -525 1964 l-30 72 53 123 c30 68 91 202 136 298 45
96 113 241 151 321 77 166 242 579 289 723 l31 96 26 -17 c15 -10 61 -70 103
-133z m-9326 -100 c188 -27 298 -88 530 -291 351 -306 655 -693 913 -1159 116
-208 363 -679 448 -856 65 -132 155 -331 155 -341 0 -2 -18 6 -41 18 -131 66
-345 64 -555 -6 -184 -61 -331 -150 -454 -274 -90 -91 -147 -184 -181 -291
-10 -31 -19 -49 -22 -40 -3 8 -22 74 -41 145 -300 1103 -918 1999 -1573 2280
-137 59 -297 79 -401 49 -21 -6 -22 -4 -16 22 60 254 283 506 567 639 204 96
458 135 671 105z m-1039 -795 c298 -62 686 -363 992 -770 283 -378 472 -762
749 -1523 74 -203 74 -204 74 -305 0 -56 -7 -183 -14 -282 -8 -99 -17 -306
-20 -460 -7 -303 -8 -338 -32 -795 -19 -350 -14 -751 11 -919 8 -57 14 -106
12 -107 -4 -4 -288 726 -347 891 -27 77 -84 239 -125 360 -62 178 -292 791
-336 895 -6 14 -75 205 -154 425 -179 499 -249 684 -360 950 -112 269 -132
319 -380 935 -113 283 -226 556 -250 606 -25 49 -45 93 -45 96 0 7 46 13 113
16 21 1 71 -5 112 -13z m9589 -780 c123 -318 245 -700 336 -1060 62 -245 134
-575 126 -582 -3 -3 -19 24 -36 58 -81 162 -187 313 -279 397 -135 124 -331
205 -568 234 -57 7 -103 16 -103 20 0 8 55 131 145 323 58 124 192 443 312
743 3 7 7 11 9 10 2 -2 28 -67 58 -143z m-2337 -814 c265 -49 432 -126 613
-282 98 -84 216 -247 234 -322 l7 -28 41 53 c151 192 326 300 564 347 112 22
214 31 214 20 0 -4 -29 -79 -64 -166 -35 -87 -91 -232 -126 -322 -82 -219
-230 -593 -325 -821 -182 -439 -693 -1723 -808 -2030 -69 -184 -144 -380 -167
-435 -22 -55 -65 -178 -95 -274 -30 -95 -58 -178 -63 -185 -5 -6 -12 -25 -15
-42 -4 -23 -64 -88 -248 -270 -339 -335 -609 -610 -944 -964 -337 -356 -1010
-1038 -1507 -1531 l-350 -345 -80 -12 c-65 -9 -226 -58 -321 -97 -16 -7 -16
-5 -7 17 8 16 34 34 78 53 77 33 167 116 198 182 15 33 27 43 59 53 55 17 188
150 205 205 8 26 23 47 43 60 59 38 96 150 75 226 -7 23 -5 25 29 26 19 1 47
10 62 21 29 21 92 123 84 135 -3 5 -22 6 -42 2 -28 -5 -43 -2 -59 12 l-21 18
19 55 c25 70 25 168 1 237 -17 49 -17 51 0 42 27 -14 29 -12 29 36 0 91 -62
204 -134 243 l-31 17 53 5 54 5 -31 42 c-36 50 -67 72 -104 75 -20 2 -26 6
-21 18 16 38 16 122 -1 165 -9 25 -20 45 -24 45 -4 0 -23 -16 -42 -36 -38 -39
-58 -52 -101 -65 l-29 -8 35 40 c57 63 43 91 -47 91 l-54 1 61 58 c33 32 73
64 89 71 15 7 27 18 27 24 0 12 -117 41 -211 52 l-64 8 42 22 c23 12 49 22 58
22 32 0 13 18 -47 46 -56 26 -74 29 -161 29 l-97 0 0 31 c0 33 -19 144 -27
157 -2 4 -20 -6 -40 -23 -19 -17 -59 -43 -89 -58 -49 -24 -57 -25 -87 -13 -85
35 -114 42 -146 37 -31 -5 -32 -4 -17 13 24 27 20 49 -12 56 -25 5 -119 -10
-187 -30 -19 -6 -20 -2 -17 49 4 62 -5 70 -30 27 -22 -39 -82 -68 -279 -136
-90 -31 -186 -69 -213 -86 l-48 -29 19 32 c10 18 33 42 51 53 72 46 18 66 -94
35 -43 -11 -105 -35 -137 -52 -61 -33 -142 -107 -152 -139 -19 -60 -57 28
-119 277 -31 126 -77 304 -101 395 -24 91 -65 275 -89 410 -25 134 -52 277
-61 318 -33 159 -86 555 -96 721 -13 202 -5 593 17 910 11 161 14 375 13 850
l-1 636 25 62 c84 208 246 372 482 488 238 116 503 145 650 72 22 -11 63 -37
91 -59 l52 -38 16 44 c34 89 167 185 331 239 83 28 308 70 430 81 80 7 229 -8
325 -32 184 -45 463 -206 520 -299 13 -19 26 -32 29 -27 131 156 201 215 326
274 221 104 477 116 730 34 101 -33 293 -124 354 -169 71 -52 85 -53 105 -11
20 41 116 123 207 178 70 41 190 82 284 97 92 14 325 4 452 -19z m2060 -246
c200 -51 318 -119 468 -269 164 -164 282 -366 311 -532 9 -49 16 -90 18 -91 1
-1 20 22 42 50 77 99 261 167 455 167 159 0 279 -29 428 -104 229 -116 523
-361 634 -528 79 -120 94 -169 102 -318 l6 -136 -58 -18 c-214 -68 -833 -384
-1983 -1014 -146 -80 -393 -215 -550 -300 -1057 -573 -1426 -789 -1607 -941
-83 -70 -193 -145 -200 -137 -7 6 81 266 139 411 22 55 90 235 153 400 62 165
229 590 370 945 141 355 268 674 282 710 14 36 79 193 143 350 168 409 291
715 359 897 86 229 191 487 202 493 16 11 191 -11 286 -35z m-7419 -4032 c17
-54 36 -129 42 -168 17 -96 88 -429 159 -740 42 -186 56 -266 50 -283 -5 -14
-28 -31 -56 -43 -96 -41 -137 -65 -187 -109 -27 -25 -47 -37 -43 -27 14 37
-23 15 -81 -48 -78 -85 -123 -170 -129 -245 -5 -48 -1 -67 20 -114 23 -49 24
-58 11 -63 -17 -6 -42 5 -93 42 -19 14 -39 24 -45 22 -14 -5 -19 -51 -11 -94
8 -43 72 -111 113 -119 l32 -7 -39 -42 c-47 -51 -65 -102 -65 -180 1 -74 35
-160 72 -179 l26 -14 -42 -21 c-62 -32 -113 -81 -134 -129 -33 -73 -59 -456
-38 -555 14 -71 61 -141 114 -172 41 -24 42 -26 54 -102 7 -50 25 -105 49
-153 89 -183 397 -407 683 -498 96 -31 280 -58 316 -47 22 8 -107 -118 -182
-176 -62 -48 -284 -159 -385 -193 -41 -13 -101 -28 -134 -31 l-61 -7 -18 58
c-37 119 -241 485 -286 513 -21 13 -25 21 -19 41 34 121 -49 505 -138 633 -78
113 -268 269 -341 282 l-38 6 23 146 c28 185 107 549 256 1188 36 154 111 498
167 765 92 443 262 1217 277 1265 4 12 19 -44 38 -142 18 -89 46 -206 63 -260z
m5266 -435 c-41 -81 -194 -332 -303 -496 -133 -200 -266 -412 -390 -620 -109
-184 -241 -422 -241 -435 0 -4 -13 -1 -30 8 -41 21 -136 19 -205 -5 -114 -39
-277 -145 -397 -258 -102 -96 -116 -142 -59 -197 l28 -26 -19 -57 c-10 -31
-22 -84 -25 -118 -7 -74 15 -131 76 -197 l41 -45 -25 -16 c-50 -33 -59 -59
-60 -190 -1 -124 -21 -230 -77 -413 l-23 -73 -57 0 c-31 0 -177 11 -324 25
-147 14 -291 25 -320 25 -50 0 -57 3 -116 56 -67 60 -145 104 -218 124 -25 7
-51 14 -58 16 -8 2 220 237 521 536 650 649 904 908 1332 1363 182 193 386
409 456 480 293 303 393 411 451 486 34 43 63 79 65 79 2 0 -9 -24 -23 -52z
m-4043 -504 c-28 -46 -27 -47 14 -19 40 27 114 45 182 45 l46 0 -33 -22 c-64
-43 -45 -59 46 -38 29 7 55 5 94 -5 59 -15 88 -35 53 -35 -12 0 -25 -5 -29
-11 -4 -8 3 -9 22 -6 16 3 47 9 69 12 42 7 109 38 138 63 24 21 31 10 35 -63
4 -64 4 -66 -30 -98 -35 -31 -58 -66 -58 -85 0 -5 17 7 38 28 42 43 92 60 172
60 48 0 154 -21 166 -33 6 -6 -94 -66 -121 -73 -13 -3 -30 -13 -37 -22 -11
-13 -10 -14 9 -4 32 17 157 15 241 -5 39 -9 72 -20 72 -23 0 -16 -100 -97
-156 -127 l-59 -32 92 -1 c50 0 95 -5 98 -10 12 -19 -6 -49 -42 -71 -35 -22
-36 -23 -13 -31 42 -16 121 11 171 59 l27 24 11 -32 c24 -69 0 -153 -48 -170
-60 -21 -60 -24 -7 -25 57 -2 185 -52 156 -61 -8 -3 -31 -12 -50 -20 l-35 -14
52 -30 c29 -17 66 -47 83 -67 31 -38 60 -110 60 -150 l0 -24 -31 26 c-17 14
-34 26 -39 26 -5 0 -17 3 -27 6 -15 6 -16 4 -5 -7 6 -7 12 -17 12 -21 0 -4 -6
-8 -12 -8 -7 0 -65 -37 -128 -81 -144 -102 -239 -149 -405 -200 -71 -22 -151
-47 -178 -56 -39 -12 -53 -13 -77 -3 -25 11 -30 18 -30 49 0 35 -24 138 -34
148 -3 3 -2 -26 1 -65 8 -103 8 -104 -71 -84 -59 16 -68 21 -96 64 -17 25 -46
58 -65 72 -37 28 -152 86 -172 86 -6 0 -14 24 -18 53 -10 69 -21 96 -53 130
-37 39 -46 34 -22 -13 48 -95 60 -215 28 -285 -10 -23 -12 -22 -38 33 -36 76
-106 144 -176 171 -31 11 -65 21 -77 21 l-20 0 21 23 c35 37 24 57 -33 57 -12
0 -46 16 -74 35 -28 20 -51 33 -51 30 0 -21 42 -62 85 -81 l50 -22 -50 -22
c-74 -32 -150 -31 -211 5 -27 15 -59 37 -71 48 -23 20 -33 11 -12 -10 9 -9 9
-23 0 -57 -21 -85 -7 -148 46 -207 l35 -39 -70 0 c-85 0 -172 25 -235 69 -55
37 -132 135 -159 199 l-19 47 6 -50 c11 -104 93 -217 189 -261 28 -12 44 -23
36 -24 -8 0 -64 -9 -125 -20 l-110 -19 -30 30 c-29 28 -30 33 -30 113 0 47 -4
78 -8 70 -14 -25 -19 -109 -9 -147 6 -20 7 -37 2 -37 -18 0 -81 86 -101 139
-17 46 -20 69 -15 126 3 39 9 81 12 95 l6 25 -16 -22 c-9 -13 -22 -37 -27 -55
-6 -18 -37 -87 -70 -153 -53 -107 -87 -207 -92 -265 -3 -41 -45 -12 -67 45 -6
17 -12 63 -12 104 1 97 31 160 115 237 47 42 54 52 30 40 -18 -9 -45 -16 -60
-16 -65 0 -143 72 -143 131 0 35 7 36 50 4 35 -26 78 -33 96 -15 8 8 15 6 24
-5 23 -27 32 -16 10 14 -75 107 -63 225 38 360 l47 63 8 -38 c4 -22 12 -52 16
-69 9 -29 9 -28 10 13 2 67 33 115 114 176 70 52 157 102 157 91 0 -4 -11 -21
-24 -38 -51 -69 -46 -78 10 -18 32 34 69 84 80 109 l21 47 22 -35 c11 -19 21
-42 21 -49 0 -8 13 5 29 30 50 80 179 164 309 203 52 15 66 10 36 -14 -21 -18
-36 -49 -44 -90 -4 -19 -11 -43 -15 -53 -4 -10 5 -6 24 12 49 46 107 75 241
120 69 23 166 63 215 89 97 51 112 48 76 -14z m-519 -1098 c53 -11 91 -7 155
16 61 21 64 21 118 4 69 -21 154 -97 189 -168 14 -28 24 -53 22 -55 -2 -2 -75
1 -162 8 -88 6 -199 9 -247 6 -78 -4 -91 -2 -120 17 -55 37 -77 81 -77 152 0
95 5 100 51 60 22 -18 54 -36 71 -40z m3587 -17 c34 -22 69 -105 86 -209 9
-52 27 -140 41 -195 24 -98 31 -189 16 -211 -12 -18 -49 -34 -77 -34 -22 0
-26 3 -20 18 4 9 9 33 11 52 3 30 2 28 -8 -10 -15 -53 -27 -57 -103 -35 -54
15 -55 16 -55 53 1 26 9 47 30 71 16 19 27 37 25 40 -3 2 -6 2 -8 0 -1 -2 -17
-21 -34 -41 -29 -34 -31 -41 -26 -95 4 -48 2 -62 -14 -82 -26 -32 -70 -23 -79
16 -15 59 38 227 88 280 24 25 66 30 90 11 26 -22 67 -83 82 -124 9 -25 15
-32 15 -18 2 53 -85 174 -125 174 -8 0 -23 9 -35 21 -15 15 -31 20 -59 18 -29
-2 -48 3 -71 20 -28 21 -36 22 -67 13 -48 -15 -75 0 -67 36 3 16 0 35 -8 46
-19 26 -51 14 -77 -29 -11 -19 -46 -57 -77 -85 -51 -47 -57 -50 -72 -35 -14
14 -14 18 -1 42 19 33 116 114 231 192 179 121 286 150 368 100z m-4325 -123
c26 -44 76 -84 136 -109 l35 -14 -60 -13 c-33 -7 -104 -28 -157 -46 -53 -19
-99 -34 -101 -34 -6 0 20 135 34 179 7 20 25 65 42 101 l30 65 8 -44 c5 -23
19 -62 33 -85z m2614 98 c16 -11 22 -25 22 -53 0 -50 -29 -81 -111 -117 -35
-15 -145 -69 -244 -120 -152 -78 -368 -164 -412 -164 -9 0 -33 91 -33 125 0 6
36 16 85 23 159 23 318 95 526 237 68 47 128 85 134 85 6 0 21 -7 33 -16z
m-1240 -57 c78 -41 190 -146 164 -155 -10 -3 -253 36 -259 41 -2 2 4 20 12 40
8 20 15 47 15 60 0 43 9 45 68 14z m1272 -214 l-12 -55 -29 28 c-31 30 -38 20
-15 -25 21 -39 102 -111 126 -111 18 0 19 -3 10 -21 -25 -45 -130 -80 -143
-46 -3 6 -6 -23 -6 -66 -1 -77 -15 -122 -48 -155 -17 -18 -19 -16 -30 28 -10
35 -10 35 -17 -25 -14 -116 -72 -202 -173 -261 -32 -19 -48 -24 -51 -16 -2 7
-15 -11 -30 -40 -29 -59 -138 -171 -201 -206 l-40 -23 28 78 c16 43 34 110 40
148 l12 71 33 -4 c47 -6 89 20 141 86 61 78 86 147 92 257 8 137 -22 211 -99
251 -28 15 -29 16 -12 28 27 18 180 95 307 156 59 28 111 58 115 68 12 30 14
-86 2 -145z m-1505 76 c109 -9 385 -51 428 -65 9 -3 17 -12 17 -20 0 -8 8 -14
18 -14 14 0 15 2 2 10 -28 18 25 11 74 -10 52 -22 55 -33 30 -107 -15 -44 -63
-115 -65 -96 -8 93 -27 187 -36 191 -7 2 -13 -1 -13 -8 0 -6 4 -9 8 -6 5 3 9
-9 9 -27 1 -72 11 -149 20 -158 18 -18 46 -6 70 30 15 22 21 42 17 54 -4 14
-3 17 7 12 9 -6 11 -4 6 8 -3 8 1 21 9 27 16 14 19 35 4 25 -5 -3 -10 -2 -10
3 0 16 29 22 54 11 24 -11 37 -58 36 -128 -1 -25 -1 -26 -16 -6 -9 11 -22 34
-30 50 -7 17 -13 23 -14 14 0 -8 14 -36 30 -62 36 -57 39 -122 14 -245 -42
-204 -159 -332 -355 -388 -157 -46 -283 -59 -574 -59 -315 0 -346 6 -435 81
-128 108 -171 106 -295 -16 -101 -98 -148 -121 -248 -122 -73 0 -127 13 -127
31 0 6 -6 8 -14 5 -35 -13 -108 119 -127 230 -21 125 4 439 39 494 15 24 80
65 121 77 l23 7 -6 -103 c-3 -57 -2 -165 3 -239 7 -127 8 -130 10 -50 2 47 5
155 7 240 4 131 7 157 21 168 30 22 254 90 368 111 284 53 659 73 920 50z
m2845 -64 c0 -2 -11 -21 -25 -41 -22 -33 -50 -111 -72 -204 l-9 -34 -17 36
c-31 66 -17 179 28 224 16 16 36 24 60 24 19 0 35 -2 35 -5z m104 -18 c17 -13
17 -14 -6 -29 -13 -9 -39 -44 -58 -79 -27 -52 -34 -74 -34 -124 0 -33 2 -67 5
-75 3 -10 -5 -16 -23 -18 -74 -9 -78 131 -7 269 12 24 29 49 38 56 21 16 63
16 85 0z m120 -20 c17 -13 17 -14 -7 -30 -14 -9 -43 -51 -63 -92 -31 -63 -38
-89 -42 -155 -2 -44 -6 -80 -8 -80 -14 0 -52 25 -62 41 -20 31 -25 101 -13
161 23 108 136 198 195 155z m-1977 -113 c43 -27 57 -71 56 -181 -1 -126 -24
-228 -68 -291 -37 -55 -90 -88 -126 -79 -24 6 -25 9 -25 94 0 145 -18 144 -32
-2 -16 -160 -51 -297 -102 -399 -93 -188 -336 -404 -608 -540 -88 -44 -93 -46
-116 -31 -20 13 -32 14 -65 5 -40 -11 -58 -24 -85 -62 -29 -41 -233 -68 -374
-48 -245 34 -544 189 -738 384 -108 109 -149 174 -163 263 l-8 51 101 5 c146
7 164 15 270 117 51 49 104 94 119 99 37 14 75 -5 111 -58 34 -48 76 -82 132
-103 146 -58 624 -43 893 27 123 33 239 94 294 155 81 90 136 226 152 374 4
36 9 66 10 66 2 0 22 -9 46 -20 48 -21 103 -25 143 -10 34 12 33 27 -5 66 -34
35 -32 49 14 92 51 48 122 58 174 26z m1519 -7 c40 -23 82 -64 98 -95 9 -18
21 -32 26 -32 5 0 17 -16 26 -35 9 -19 20 -35 24 -35 12 0 50 -95 50 -124 0
-14 5 -26 10 -26 14 0 3 64 -17 103 -8 16 -13 30 -11 31 33 22 52 20 78 -6 16
-15 38 -28 49 -28 11 0 23 -4 26 -10 16 -25 43 -30 67 -11 21 17 29 18 75 8
28 -7 52 -16 52 -22 2 -23 -76 -140 -102 -154 -16 -9 -36 -22 -45 -29 -16 -13
-16 -13 1 -8 64 20 65 20 78 -24 12 -39 10 -50 -24 -153 -20 -62 -52 -192 -72
-290 -26 -131 -48 -211 -85 -305 -99 -252 -111 -264 -281 -292 -145 -23 -330
-37 -589 -45 -113 -3 -258 -10 -324 -16 -148 -14 -300 2 -328 33 -10 11 -18
17 -18 14 0 -14 155 -367 249 -565 56 -118 101 -216 101 -218 0 -2 -28 17 -62
43 -163 124 -318 318 -426 534 -87 173 -189 520 -180 613 7 70 119 90 503 90
224 0 312 -4 517 -26 136 -15 267 -27 291 -27 l44 0 -4 -72 c-3 -40 0 -91 5
-113 9 -37 10 -33 11 42 1 45 6 94 12 110 11 28 12 28 23 -22 13 -53 39 -110
56 -120 5 -3 1 14 -10 37 -34 74 -27 159 31 390 44 178 50 212 46 278 -5 83 3
108 51 153 30 28 30 29 63 12 26 -14 18 -3 -34 45 -85 79 -118 139 -118 220
-1 59 3 81 23 133 12 30 14 31 44 14z m-4450 -585 c63 -41 150 -125 134 -130
-7 -3 -30 -20 -50 -38 -44 -40 -74 -124 -90 -250 -9 -73 -1 -176 15 -192 9 -9
-27 -42 -45 -42 -21 0 -55 36 -69 73 -18 46 -13 195 8 252 10 28 21 59 25 70
4 11 -3 3 -16 -17 -17 -28 -30 -38 -50 -38 -34 0 -91 -65 -108 -123 -7 -24
-24 -52 -41 -65 l-29 -24 0 39 c0 54 26 205 50 291 58 208 147 272 266 194z
m2934 -362 c-40 -44 -79 -80 -86 -80 -7 0 -50 -12 -96 -26 -99 -31 -159 -83
-177 -152 -13 -47 -23 -50 -76 -25 -41 19 -44 37 -15 94 48 94 161 190 258
219 79 24 179 45 229 48 l35 3 -72 -81z m289 56 c26 -7 40 -16 33 -20 -7 -4
-17 -27 -23 -51 l-11 -43 -76 -6 c-43 -4 -97 -9 -122 -13 l-45 -5 75 76 c81
82 90 86 169 62z m-3346 -43 c-15 -55 -8 -225 11 -265 16 -33 16 -39 1 -67
-40 -79 -115 -4 -131 132 -12 101 45 227 102 227 22 0 24 -3 17 -27z m3027
-117 c0 -2 -7 -20 -15 -39 -21 -52 -18 -126 10 -250 81 -359 249 -673 469
-880 66 -62 244 -197 260 -197 7 0 18 -11 26 -24 59 -111 -174 -48 -377 102
-345 256 -569 574 -663 941 -23 90 -25 129 -9 186 12 42 65 100 108 117 63 25
191 55 191 44z m-381 -220 l38 6 7 -63 c9 -77 62 -241 116 -357 22 -47 40 -88
40 -92 0 -11 -125 -64 -235 -100 -176 -56 -418 -98 -498 -86 -40 6 -45 10 -51
39 -16 77 -19 269 -6 356 l14 90 56 30 57 30 59 -47 c32 -26 69 -63 81 -82 46
-72 55 -82 65 -72 15 15 -29 108 -65 138 -17 14 -56 37 -86 50 l-54 24 84 43
c88 44 177 106 225 155 l29 30 43 -49 c41 -46 46 -49 81 -43z m-2034 -255 c47
-71 210 -403 224 -456 15 -54 14 -103 -3 -158 -8 -26 -10 -47 -6 -47 10 0 40
85 40 112 0 10 4 18 9 18 15 0 43 -82 51 -150 l7 -65 1 80 c1 47 -5 97 -13
120 -8 22 -15 41 -15 42 0 1 24 6 53 13 219 46 429 157 632 332 71 61 141 113
172 126 80 34 83 32 59 -35 -27 -77 -29 -306 -3 -399 9 -34 17 -66 17 -71 0
-5 -17 -17 -37 -27 -21 -10 -121 -64 -223 -121 -350 -194 -484 -252 -636 -274
-187 -27 -250 17 -459 312 -115 164 -186 288 -213 374 -22 68 -29 167 -14 177
11 6 54 -82 47 -94 -8 -12 28 -30 60 -30 48 0 96 32 141 92 43 58 63 116 49
138 -6 9 -10 9 -16 -1 -6 -10 -11 -6 -18 14 -35 92 29 76 94 -22z m1405 64
c11 -13 11 -35 0 -116 -11 -83 -11 -130 -1 -263 23 -303 69 -506 176 -777 32
-79 60 -151 63 -159 7 -21 -61 57 -130 149 -118 155 -237 452 -284 706 -25
138 -9 375 27 375 5 0 16 14 24 31 9 16 25 39 36 50 23 23 72 25 89 4z m1471
-156 l46 -10 181 -367 c237 -481 326 -698 397 -967 42 -161 58 -338 33 -363
-25 -25 -34 -9 -56 101 -13 61 -37 157 -54 212 -32 106 -134 367 -175 449 -14
27 -32 71 -39 97 -8 27 -19 51 -25 54 -5 4 -46 79 -90 167 -44 88 -132 255
-195 370 -63 115 -121 225 -129 245 l-15 35 38 -7 c20 -3 58 -11 83 -16z m533
-196 c220 -464 308 -742 322 -1018 10 -191 -34 -340 -124 -428 l-39 -38 -12
115 c-17 174 -37 273 -80 403 -80 244 -174 459 -382 874 l-139 279 32 1 c18 1
83 5 143 9 61 3 126 7 145 8 l35 2 99 -207z m-1086 -97 l70 -104 -27 -25
c-128 -121 -443 -226 -690 -230 -94 -2 -176 21 -185 51 -9 29 -38 243 -34 247
2 3 26 -3 53 -11 88 -28 249 -5 509 72 125 37 184 62 205 88 8 9 17 16 21 16
4 0 39 -47 78 -104z m139 -181 c107 -129 371 -334 520 -402 36 -17 81 -29 121
-31 l62 -4 21 -47 c83 -184 172 -425 208 -562 18 -72 45 -225 54 -315 l5 -41
-97 -6 c-255 -16 -583 -139 -797 -300 -54 -41 -173 -157 -238 -232 l-26 -30
25 60 c76 177 219 311 480 447 60 32 106 58 101 58 -19 0 -257 -120 -326 -166
-83 -55 -195 -155 -231 -209 -13 -19 -26 -35 -29 -35 -3 0 -29 33 -57 74 -55
76 -77 121 -99 196 -11 39 -12 41 -13 15 -1 -44 26 -149 50 -198 12 -23 39
-61 61 -83 l40 -42 -35 -93 -35 -93 -7 39 c-19 113 -60 277 -82 335 -41 106
-202 413 -249 476 -24 32 -44 62 -44 66 0 5 10 18 22 30 l21 21 17 -21 c48
-58 101 -115 105 -111 2 3 -20 42 -50 87 -148 221 -270 442 -348 632 -43 104
-111 310 -105 316 3 2 22 -3 43 -12 93 -38 277 -23 495 42 98 29 272 121 322
169 18 18 35 33 38 33 3 0 28 -28 57 -63z m-606 -1184 c36 -38 176 -309 240
-464 37 -89 86 -287 101 -402 l11 -91 -37 -81 c-20 -44 -36 -86 -36 -92 0 -7
-8 -11 -17 -9 -13 2 -24 28 -41 92 -31 119 -109 330 -170 457 -64 136 -128
235 -208 320 -72 76 -77 95 -43 162 42 83 106 147 148 147 8 0 31 -18 52 -39z
m-93 -379 c103 -149 236 -451 292 -662 15 -58 30 -112 34 -120 14 -32 -379
-394 -639 -590 -93 -70 -201 -153 -240 -183 -38 -31 -73 -53 -76 -49 -4 4 -19
30 -34 57 -34 64 -51 81 -31 33 26 -62 22 -75 -16 -46 -18 13 -40 28 -48 33
-18 10 -17 9 63 -89 63 -77 71 -111 40 -169 -16 -28 -18 -63 -19 -262 -2 -428
-32 -601 -223 -1293 -35 -123 -75 -281 -91 -353 -39 -171 -50 -196 -97 -216
-87 -36 -234 11 -247 80 -9 47 -59 103 -111 122 -71 27 -69 46 15 275 17 47
42 136 55 198 42 199 50 320 45 677 -2 182 -4 494 -4 695 l-1 365 28 90 c36
113 96 238 185 385 175 290 314 461 754 927 l219 232 53 -40 c30 -22 72 -66
94 -97z m1726 114 c41 -26 50 -74 32 -163 -30 -144 -60 -166 -172 -127 -89 32
-182 39 -285 25 -278 -40 -592 -228 -808 -483 -36 -42 -67 -75 -69 -73 -2 1 6
23 17 48 12 25 21 56 21 69 0 29 100 185 164 255 181 200 566 410 841 458 98
17 226 13 259 -9z m-152 -318 c43 -13 78 -27 78 -33 0 -5 -11 -50 -24 -100
-41 -150 -140 -403 -251 -640 -26 -55 -74 -158 -107 -230 -120 -261 -167 -354
-205 -411 -77 -113 -86 -139 -90 -249 -4 -116 6 -112 38 13 11 43 29 100 40
127 l20 50 -6 -75 c-2 -41 -8 -92 -11 -112 -9 -52 12 -50 26 2 6 23 10 83 9
134 -2 106 4 121 63 169 95 77 143 91 403 121 522 61 552 66 674 113 237 91
226 88 270 74 55 -16 145 -105 177 -175 31 -69 41 -145 24 -187 -11 -26 -31
-40 -119 -81 -105 -49 -367 -160 -676 -285 -321 -130 -473 -196 -636 -274
-174 -84 -197 -90 -432 -122 -86 -11 -107 -11 -181 4 -108 22 -163 47 -204 93
-42 49 -54 79 -85 222 -15 65 -34 144 -44 174 -21 69 -24 366 -4 510 7 52 21
163 32 245 11 83 30 199 41 259 l22 109 75 90 c166 198 402 366 611 436 170
56 339 67 472 29z m1320 -917 c18 -25 84 -116 149 -201 203 -270 284 -411 343
-600 53 -166 75 -415 43 -477 -19 -36 -46 -59 -32 -27 15 36 18 187 5 273 -32
222 -142 444 -422 852 -105 154 -172 228 -206 230 -11 1 -8 4 8 8 40 12 78 -8
112 -58z m-74 -4 c38 -36 281 -385 364 -523 55 -90 123 -223 116 -229 -1 -1
-28 -10 -58 -18 -59 -17 -133 -60 -170 -98 -29 -31 -70 -117 -70 -149 0 -35
-13 -17 -59 85 -62 140 -121 242 -173 301 -71 81 -65 129 24 216 40 38 46 47
23 34 -16 -9 -39 -23 -51 -31 -21 -15 -21 -14 -27 34 -13 108 -119 279 -183
295 -25 7 -26 8 -9 26 16 18 19 18 49 3 46 -24 141 -21 195 6 50 26 50 38 0
17 -56 -23 -129 -29 -173 -13 l-40 14 55 31 c103 59 125 59 187 -1z m515 -832
c59 -157 80 -330 53 -435 -20 -81 -41 -100 -108 -100 -108 0 -191 80 -257 248
-19 46 -19 53 -5 108 30 114 80 171 190 214 27 11 62 19 79 17 26 -2 32 -9 48
-52z m-5583 -1624 c30 -10 120 -50 200 -89 189 -90 271 -122 313 -122 20 0 60
13 93 31 139 75 260 22 305 -134 11 -40 18 -53 18 -35 l1 27 36 -15 c20 -9 69
-18 108 -21 39 -3 79 -10 88 -15 24 -12 41 -82 33 -139 -7 -47 -7 -47 -40 -42
-18 3 -59 -2 -91 -12 -48 -14 -69 -28 -119 -79 l-62 -63 -69 35 c-93 47 -321
197 -474 313 -160 121 -311 228 -378 269 -68 41 -176 80 -226 80 -48 0 -41 9
21 26 61 18 170 11 243 -15z m-212 -46 c34 -8 82 -25 105 -36 50 -26 314 -204
446 -301 306 -227 581 -376 699 -379 l27 0 -25 -10 c-80 -32 -310 62 -494 201
-517 391 -541 408 -684 467 -54 22 -83 27 -149 28 -46 0 -83 3 -83 7 0 11 52
37 75 37 11 1 48 -6 83 -14z m25 -66 c104 -35 204 -95 385 -232 95 -73 237
-181 315 -240 202 -154 357 -226 492 -228 l50 -1 -35 -15 c-70 -31 -256 2
-480 83 -58 21 -199 86 -315 144 -423 213 -643 378 -621 467 12 47 106 57 209
22z m1366 -465 c8 -8 -20 -97 -40 -131 -12 -18 -32 -36 -46 -39 -28 -7 -119 7
-167 25 l-28 11 38 44 c43 47 100 85 148 97 29 7 85 2 95 -7z"/>
<path d="M3434 8758 c-23 -13 -52 -31 -65 -40 -22 -16 -22 -19 -8 -30 9 -7 14
-20 11 -28 -4 -13 -3 -13 10 -2 11 9 18 9 23 3 4 -7 21 -1 46 15 30 19 56 26
99 27 32 1 56 -2 53 -7 -3 -4 4 -5 16 -1 15 5 21 2 21 -9 0 -9 5 -16 10 -16
13 0 13 6 -1 31 -5 11 -14 17 -19 14 -6 -3 -7 1 -4 9 6 16 -10 23 -19 9 -2 -5
-2 -2 0 5 4 17 -56 42 -99 42 -18 0 -52 -10 -74 -22z"/>
<path d="M2577 8579 c-9 -6 -15 -15 -11 -20 3 -5 0 -8 -7 -7 -15 4 -46 -46
-54 -87 -5 -26 -4 -27 4 -7 6 12 10 25 10 28 0 4 11 14 25 24 15 9 23 20 19
23 -3 4 9 4 28 1 39 -7 96 -43 129 -81 l23 -27 11 23 c8 19 6 31 -11 60 -38
67 -115 99 -166 70z"/>
<path d="M2787 7903 c-40 -42 -86 -151 -93 -219 -8 -77 11 -123 62 -147 43
-21 128 -22 185 -2 55 20 163 84 209 126 l35 31 -35 -22 c-103 -64 -163 -85
-250 -88 -99 -3 -127 7 -153 58 -13 26 -16 47 -12 83 7 56 37 138 66 179 26
36 20 36 -14 1z"/>
<path d="M3727 7722 c8 -32 -44 -80 -170 -154 -157 -93 -231 -123 -376 -153
-127 -27 -229 -32 -263 -14 -11 6 -22 8 -25 5 -4 -3 10 -13 30 -21 50 -21 161
-19 266 4 47 10 133 26 191 36 254 40 360 104 376 228 6 44 9 48 33 47 44 -3
61 0 61 9 0 11 -18 17 -82 26 -42 5 -46 4 -41 -13z m2 -94 c-11 -40 -53 -84
-104 -110 -32 -17 -296 -98 -315 -98 -3 0 40 22 95 48 103 50 211 116 279 171
45 36 58 33 45 -11z"/>
<path d="M4341 6340 c-1 -20 50 -185 87 -285 88 -234 156 -382 225 -488 109
-170 121 -144 15 33 -112 186 -225 436 -293 650 -15 47 -28 90 -30 95 -2 6 -4
3 -4 -5z"/>
</g>
</svg>
