<?xml version="1.0" standalone="no"?>
<!DOCTYPE svg PUBLIC "-//W3C//DTD SVG 20010904//EN"
 "http://www.w3.org/TR/2001/REC-SVG-20010904/DTD/svg10.dtd">
<svg version="1.0" xmlns="http://www.w3.org/2000/svg"
 width="1500.000000pt" height="1500.000000pt" viewBox="0 0 1500.000000 1500.000000"
 preserveAspectRatio="xMidYMid meet">
<metadata>
Created by potrace 1.16, written by Peter Selinger 2001-2019
</metadata>
<g transform="translate(0.000000,1500.000000) scale(0.100000,-0.100000)"
fill="none" stroke="#000000">
<path d="M5055 13332 c-55 -22 -118 -48 -140 -59 -22 -11 -116 -51 -210 -88
-93 -37 -186 -79 -205 -93 -19 -14 -71 -62 -115 -107 -96 -97 -227 -214 -355
-320 -134 -110 -159 -133 -210 -195 -181 -222 -295 -338 -426 -435 -98 -73
-115 -90 -140 -140 -32 -67 -41 -143 -24 -213 6 -28 38 -99 71 -157 l60 -108
-25 -76 c-14 -42 -37 -132 -50 -201 -14 -69 -80 -312 -146 -540 -340 -1165
-436 -1491 -490 -1665 -33 -104 -66 -218 -74 -252 -14 -61 -14 -62 10 -84 13
-12 24 -32 24 -43 0 -22 -96 -366 -175 -626 -24 -80 -69 -234 -99 -342 -78
-275 -90 -304 -136 -333 -21 -13 -43 -32 -48 -41 -9 -16 -13 -16 -57 0 -133
45 -256 -14 -300 -143 -31 -90 -13 -184 48 -257 l26 -31 10 -409 c7 -292 6
-413 -2 -422 -6 -7 -35 -29 -65 -49 -91 -61 -205 -182 -242 -257 -30 -59 -32
-72 -28 -130 4 -45 14 -81 35 -119 l30 -55 -74 -98 c-174 -231 -282 -443 -333
-649 -81 -330 -61 -594 62 -838 63 -127 140 -238 205 -298 78 -72 143 -96 400
-149 448 -93 778 -168 1397 -316 l229 -55 37 25 c64 42 202 160 667 572 598
529 842 753 906 833 105 130 218 306 346 541 67 123 84 171 71 206 -9 24 -14
26 -47 21 -20 -4 -86 -34 -146 -68 -130 -73 -203 -90 -293 -71 -70 14 -78 21
-115 94 -16 33 -36 61 -44 64 -8 4 -44 -15 -82 -44 -118 -86 -188 -109 -275
-91 -53 12 -85 43 -131 128 -15 29 -34 54 -43 58 -11 4 -38 -16 -82 -59 -82
-80 -96 -88 -164 -88 -70 0 -132 42 -224 153 -37 45 -123 136 -189 202 -100
99 -133 139 -186 229 -58 98 -116 166 -163 193 -16 9 -13 22 44 169 53 135
320 853 645 1734 195 527 290 785 413 1110 72 190 186 500 255 690 159 440
381 1027 392 1038 5 5 911 -621 1480 -1023 731 -516 1092 -790 1125 -855 24
-47 62 -219 105 -480 32 -191 118 -647 131 -692 4 -12 0 -18 -10 -18 -35 0
-56 -37 -56 -97 0 -97 36 -292 58 -317 24 -25 33 -69 72 -341 16 -115 32 -222
35 -236 l6 -26 -128 -6 c-164 -7 -244 -31 -303 -88 -51 -50 -74 -100 -135
-299 -26 -85 -62 -195 -80 -245 -18 -49 -43 -124 -55 -165 -12 -41 -50 -163
-85 -271 -70 -213 -88 -299 -83 -405 l3 -69 392 -5 c215 -3 395 -8 399 -13 4
-4 18 -39 30 -78 l23 -71 -227 7 c-489 15 -633 22 -645 34 -8 8 -12 66 -12
184 0 189 -6 160 88 402 27 72 58 161 68 199 l19 69 -23 41 c-22 39 -48 75
-242 330 -41 54 -75 103 -75 108 0 5 9 21 19 36 24 34 52 213 52 336 0 100
-17 138 -63 144 -63 8 -99 -91 -120 -328 l-11 -136 38 -59 c40 -64 59 -88 201
-260 123 -150 144 -182 144 -226 0 -51 -31 -147 -90 -280 -77 -171 -84 -206
-76 -389 8 -186 17 -227 54 -241 15 -6 88 -12 162 -15 272 -10 1167 -34 1242
-34 l78 0 49 -97 c77 -155 87 -138 -96 -152 -87 -6 -315 -16 -508 -21 -192 -6
-386 -15 -430 -20 -144 -19 -1601 -325 -1690 -355 -97 -33 -162 -90 -227 -201
-95 -161 -122 -277 -123 -509 0 -209 14 -292 74 -420 41 -88 80 -138 156 -198
38 -31 44 -39 25 -34 -48 12 -203 37 -226 37 -35 0 -38 -17 -7 -33 48 -25 162
-45 393 -71 124 -14 290 -35 370 -47 80 -11 199 -22 265 -22 109 -2 144 3 388
53 l267 54 123 -42 c152 -51 241 -77 337 -97 41 -8 122 -33 180 -54 58 -22
128 -42 155 -46 28 -4 75 -20 105 -36 30 -16 109 -46 175 -68 66 -22 149 -51
185 -66 76 -32 139 -34 270 -10 118 21 237 19 515 -10 378 -39 418 -36 743 56
187 53 565 146 1712 424 168 41 368 90 445 109 355 88 767 178 838 183 54 4
103 1 160 -11 45 -10 100 -16 122 -14 l40 3 -30 16 c-16 9 -60 24 -97 33 -38
10 -68 22 -68 27 0 15 100 10 211 -10 140 -26 219 -30 219 -13 0 20 -87 43
-225 58 -107 12 -16 26 115 18 125 -8 150 -7 164 7 15 14 -58 39 -132 46 l-67
7 39 11 c74 21 126 100 153 233 24 115 24 453 0 547 -49 197 -157 317 -322
358 -85 22 -129 26 -494 42 -177 9 -369 22 -425 31 -55 9 -138 22 -184 29 -58
9 -87 18 -96 31 -13 17 -43 18 -612 17 -531 0 -603 -2 -636 -17 -21 -9 -49
-16 -64 -16 l-27 0 6 80 c7 91 18 118 50 125 27 6 1226 60 1796 80 458 17 597
27 639 49 71 36 92 92 92 238 0 355 -65 1079 -105 1176 -18 42 -59 59 -179 75
l-91 13 -31 85 c-55 155 -110 223 -204 254 -25 8 -133 28 -240 46 -193 31
-197 31 -462 26 l-267 -6 -5 42 c-3 23 -10 110 -16 192 -36 505 -65 745 -95
791 -24 38 -73 57 -377 147 -445 133 -488 141 -758 141 -158 0 -262 -5 -350
-17 -108 -15 -605 -97 -682 -113 -31 -6 -28 -18 -52 191 -48 398 -60 481 -97
624 -75 297 -210 581 -415 878 -62 91 -64 95 -64 157 0 137 -36 351 -85 499
-130 399 -455 657 -829 657 l-84 0 -93 70 c-51 38 -137 93 -191 121 -125 66
-242 170 -634 565 -278 279 -293 293 -346 309 -45 13 -65 14 -103 5 l-49 -11
-60 59 c-34 32 -108 101 -166 153 -58 52 -195 177 -305 279 -110 102 -248 227
-307 278 -58 50 -121 110 -139 133 l-32 40 24 47 c34 68 38 177 9 254 -42 113
-149 189 -275 195 -62 3 -82 -1 -170 -35z m258 -56 c92 -33 148 -109 149 -201
0 -39 -8 -72 -36 -133 -57 -126 -61 -160 -60 -517 0 -244 4 -349 17 -441 16
-113 51 -243 83 -306 29 -57 23 -54 -156 62 -214 140 -294 158 -391 88 -88
-64 -134 -178 -133 -333 1 -84 5 -111 27 -169 39 -99 108 -196 226 -319 l104
-107 -40 -83 c-23 -45 -73 -170 -111 -277 -39 -107 -117 -321 -175 -475 -58
-154 -150 -401 -205 -550 -56 -148 -194 -519 -307 -824 -113 -304 -242 -655
-286 -780 -99 -279 -324 -878 -355 -946 l-22 -50 -1 40 c-3 129 -95 235 -204
235 -26 0 -76 -11 -113 -25 -76 -29 -104 -31 -104 -10 0 8 11 61 24 118 38
159 452 2139 681 3252 120 583 322 1573 367 1800 23 116 49 219 58 229 8 11
80 73 160 139 80 67 231 196 335 287 105 92 230 199 280 238 97 78 116 83 188
58z m-243 -20 c0 -4 -408 -354 -550 -472 -170 -141 -206 -169 -259 -201 -74
-45 -269 -126 -287 -119 -42 16 -18 42 346 371 251 227 244 222 450 304 100
40 205 84 234 96 51 24 66 28 66 21z m815 -876 c171 -157 361 -330 423 -385
61 -55 112 -104 112 -110 0 -5 -9 -21 -19 -34 -18 -24 -19 -24 -46 -7 -14 9
-74 63 -133 120 -59 56 -215 201 -347 321 -362 330 -435 403 -435 436 0 62 9
62 74 2 34 -32 201 -186 371 -343z m-245 32 c80 -76 269 -251 421 -389 l275
-253 -10 -59 c-12 -76 1 -124 52 -185 20 -25 153 -146 294 -271 142 -124 324
-287 405 -363 82 -75 173 -158 202 -184 29 -27 49 -48 43 -48 -14 0 -269 133
-1052 548 -550 291 -635 339 -670 374 -69 68 -129 238 -155 435 -15 114 -22
553 -9 566 9 9 40 -16 204 -171z m-1510 -1 c-49 -63 -288 -288 -373 -352 -47
-35 -88 -59 -103 -59 -30 0 -30 -2 48 102 79 104 142 157 309 260 78 49 144
88 146 88 3 0 -9 -18 -27 -39z m110 -15 c0 -20 -54 -295 -150 -766 -44 -217
-80 -399 -80 -405 0 -5 -13 13 -29 40 -16 28 -56 82 -90 120 -224 256 -255
322 -219 463 13 53 45 87 288 309 80 73 172 159 205 193 61 62 75 70 75 46z
m-600 -455 c0 -5 -9 -28 -20 -52 -13 -29 -20 -66 -20 -109 0 -38 -5 -71 -12
-78 -17 -17 -65 -15 -72 4 -13 35 -5 111 17 154 26 53 107 114 107 81z m-144
-26 c3 -8 1 -30 -6 -50 -6 -19 -15 -66 -18 -102 l-7 -67 -39 -8 c-48 -10 -56
-1 -56 62 0 58 29 120 71 153 39 31 47 33 55 12z m3184 -105 c30 -30 35 -65
16 -115 -18 -46 -75 -105 -102 -105 -9 0 -29 13 -45 29 -52 52 -31 141 45 186
50 30 60 31 86 5z m-1547 -36 c29 -15 91 -53 138 -85 164 -110 331 -200 1404
-762 385 -201 757 -403 1021 -553 138 -78 336 -187 440 -242 228 -119 343
-190 449 -275 306 -246 570 -667 700 -1113 52 -179 114 -542 97 -569 -3 -5
-12 41 -19 102 -34 304 -175 731 -334 1009 -106 185 -311 418 -490 557 -101
78 -254 172 -474 290 -488 261 -1975 1063 -2060 1111 -179 100 -242 108 -279
33 -19 -40 -24 -68 -59 -369 l-22 -187 -120 106 c-291 256 -423 393 -476 496
-21 40 -17 44 21 22 59 -34 129 -2 162 72 44 99 7 237 -74 279 -116 60 -233
-40 -231 -196 2 -125 60 -234 212 -393 l92 -96 -18 -36 -19 -36 -96 98 c-103
104 -148 160 -191 233 -78 137 -80 344 -3 449 63 85 135 102 229 55z m1822
-229 c77 -77 248 -239 379 -360 132 -121 310 -285 395 -364 213 -197 397 -342
484 -382 33 -15 34 -25 3 -33 -30 -7 -61 -71 -71 -143 -5 -40 -11 -53 -23 -53
-44 0 -138 74 -312 244 -102 100 -322 310 -490 467 -168 157 -377 355 -464
440 l-159 155 28 42 c20 31 29 58 33 107 l5 66 26 -23 c14 -12 89 -85 166
-163z m-3280 13 c54 -78 57 -84 51 -127 -5 -39 -64 -261 -71 -269 -1 -1 -30
12 -63 30 -50 25 -77 32 -142 36 -44 2 -80 5 -80 6 0 11 115 278 134 310 27
46 79 96 100 96 7 0 39 -37 71 -82z m1502 20 c25 -28 23 -109 -3 -145 -34 -45
-50 -50 -81 -27 -61 45 -65 108 -12 168 32 37 64 39 96 4z m729 -356 c43 -22
140 -73 214 -114 74 -42 335 -182 580 -313 245 -131 569 -305 720 -388 151
-82 363 -195 470 -250 437 -225 626 -351 805 -538 292 -305 475 -688 589
-1235 34 -164 86 -480 86 -521 0 -15 -17 -28 -64 -52 -63 -31 -65 -33 -81 -89
-10 -31 -32 -124 -51 -207 -43 -190 -50 -207 -51 -122 -1 85 -14 117 -61 142
-47 26 -56 52 -88 265 -49 329 -136 849 -169 1019 l-34 173 29 37 c32 40 60
109 60 150 0 117 -110 212 -211 182 -82 -25 -129 -94 -137 -201 -5 -75 9 -117
56 -171 22 -25 31 -49 37 -89 4 -30 22 -140 42 -245 51 -279 112 -640 108
-643 -1 -2 -20 28 -40 65 -56 99 -208 324 -296 433 -172 216 -354 399 -589
591 -263 215 -1114 840 -1905 1398 -49 35 -116 86 -147 113 l-58 50 0 71 c1
124 35 438 56 510 8 26 42 21 130 -21z m-2338 -88 c64 -31 67 6 -33 -349 -75
-264 -473 -1702 -550 -1985 -56 -208 -59 -213 -93 -207 -55 9 -247 50 -250 52
-4 4 30 126 60 220 44 138 285 958 383 1305 134 472 172 601 243 824 l56 178
65 -6 c39 -3 86 -16 119 -32z m398 -83 c-4 -36 -22 -136 -40 -221 -18 -85 -99
-468 -180 -850 -81 -382 -182 -864 -226 -1070 -155 -732 -370 -1758 -370
-1764 0 -8 -273 5 -281 13 -4 3 13 101 37 216 45 216 202 1014 280 1420 24
127 75 412 113 635 94 543 127 698 227 1075 52 192 156 539 166 549 34 39 -57
-593 -256 -1789 -74 -445 -142 -860 -150 -921 -22 -156 -31 -334 -19 -334 6 0
13 15 16 33 3 17 62 311 132 652 69 341 170 841 225 1110 127 632 212 1008
281 1250 30 106 29 103 41 81 6 -11 8 -44 4 -85z m4226 -278 c48 -17 120 -50
158 -73 147 -89 294 -258 357 -412 68 -167 145 -533 116 -551 -5 -3 -37 31
-71 77 -69 94 -168 197 -225 234 -27 18 -36 30 -31 41 4 9 9 50 11 91 4 68 2
80 -24 130 -35 66 -84 105 -225 181 -56 29 -143 85 -193 123 -94 71 -205 174
-205 190 0 5 51 7 123 4 102 -4 136 -10 209 -35z m169 -502 c33 -33 38 -75 15
-120 -24 -45 -37 -51 -73 -36 -63 27 -79 111 -31 162 29 31 54 29 89 -6z
m-5196 -1218 c-24 -142 -104 -548 -214 -1083 -22 -107 -65 -330 -97 -495 -31
-165 -60 -304 -64 -308 -4 -4 -70 -4 -146 0 l-139 8 2 39 c2 21 34 143 72 270
71 235 189 650 257 899 l37 137 37 0 c37 0 65 21 88 66 6 12 41 133 77 270
112 426 137 480 90 197z m5569 -183 c47 -220 206 -1203 206 -1271 0 -42 -21
-67 -38 -46 -13 16 -48 205 -96 527 -20 129 -54 328 -76 441 -22 114 -47 253
-54 310 -12 93 -12 106 2 122 23 26 37 6 56 -83z m-912 -267 c33 -35 39 -49
67 -178 16 -77 57 -282 90 -455 34 -173 67 -342 75 -375 8 -33 14 -60 13 -61
-1 -1 -19 -4 -39 -8 -33 -6 -38 -4 -42 16 -3 13 -24 127 -46 253 -52 290 -119
622 -165 823 -8 32 6 27 47 -15z m-5011 -84 c-2 -8 -19 -63 -38 -124 -19 -60
-104 -353 -189 -650 -86 -297 -158 -543 -160 -547 -3 -4 -25 8 -49 26 -24 19
-49 36 -55 38 -8 2 5 59 39 168 27 91 107 363 176 605 69 242 133 461 141 487
l15 46 62 -17 c44 -12 61 -21 58 -32z m5245 -296 c177 -272 279 -478 376 -758
93 -267 217 -601 284 -767 35 -86 64 -163 64 -171 0 -12 -36 -15 -207 -19
-115 -3 -209 -4 -211 -3 -14 12 -64 466 -72 645 -15 331 -29 377 -123 389
l-42 6 -17 65 c-17 66 -121 595 -133 683 -4 26 -5 47 -1 47 3 0 40 -53 82
-117z m2766 -308 c146 -26 615 -161 753 -216 51 -20 60 -28 63 -51 2 -19 -1
-28 -11 -28 -13 0 -294 80 -580 165 -172 51 -307 76 -437 82 -112 5 -388 -21
-1035 -97 -93 -11 -192 -22 -218 -25 -77 -9 -47 11 51 34 99 22 663 112 852
135 69 9 139 18 155 20 60 9 322 -3 407 -19z m-97 -125 c104 -15 275 -58 500
-125 99 -30 236 -69 305 -88 145 -40 131 -20 155 -221 16 -136 67 -824 85
-1146 13 -237 30 -772 30 -962 l0 -148 -598 0 c-330 0 -633 3 -674 6 l-75 7
-21 161 c-30 225 -71 622 -82 790 -15 241 -4 333 115 966 40 217 86 471 100
565 31 196 37 215 62 210 10 -2 54 -9 98 -15z m-195 -19 c0 -35 -43 -272 -120
-666 -142 -726 -149 -906 -65 -1600 13 -115 25 -226 24 -245 -1 -34 -1 -33
-15 15 -26 95 -63 341 -83 560 -36 378 -39 399 -58 413 -20 16 -162 12 -653
-14 -342 -18 -533 -33 -543 -43 -5 -5 -3 -62 3 -127 10 -112 83 -652 95 -703
l6 -23 579 4 c513 3 580 2 580 -12 0 -8 14 -60 30 -115 16 -54 27 -101 25
-103 -2 -2 -273 0 -603 4 l-600 7 -11 24 c-20 44 -50 178 -65 293 -45 330 -57
414 -71 510 -12 74 -15 146 -12 245 5 159 29 280 200 1015 53 223 98 420 102
438 4 17 13 32 20 32 8 0 202 20 432 45 230 25 477 51 548 59 72 8 158 14 193
15 62 1 62 1 62 -28z m-1488 -298 c33 -29 49 -163 24 -198 -38 -55 -48 -117
-47 -278 1 -86 -3 -188 -9 -225 -14 -88 -70 -325 -80 -335 -12 -13 -18 25 -34
213 -9 96 -33 281 -55 410 -21 129 -42 269 -46 312 -7 74 -7 77 18 93 28 18
146 36 187 28 14 -2 33 -11 42 -20z m-848 -45 c8 -18 17 -58 20 -88 4 -30 9
-67 12 -82 5 -26 4 -26 -63 -33 -37 -4 -97 -13 -131 -21 -35 -8 -68 -12 -72
-9 -17 11 -30 80 -30 162 0 78 1 83 23 88 46 10 74 12 150 14 l78 1 13 -32z
m-5871 -256 c38 -35 45 -51 57 -114 22 -112 -13 -188 -85 -188 -45 0 -94 44
-97 87 -4 85 10 116 51 111 25 -3 26 -5 23 -70 -1 -38 2 -68 7 -68 5 0 23 12
40 26 23 19 31 34 31 57 0 57 -65 127 -117 127 -27 0 -29 17 -7 49 20 28 56
22 97 -17z m5885 -35 c11 -13 32 -146 57 -357 23 -200 73 -553 121 -860 25
-157 54 -351 64 -431 11 -80 24 -169 30 -197 l9 -52 -43 -40 c-24 -22 -57 -65
-72 -95 -16 -30 -32 -55 -36 -55 -13 0 -46 106 -53 170 -9 89 -96 657 -150
980 -41 246 -135 883 -135 914 0 30 186 50 208 23z m-6103 -21 c41 -17 39 -13
20 -59 -21 -51 -19 -90 10 -147 32 -63 32 -87 0 -102 -51 -23 -147 28 -182 95
-22 43 -21 129 2 164 42 63 83 76 150 49z m1368 0 c79 -32 130 -141 107 -226
-13 -50 -59 -100 -90 -100 -34 0 -77 27 -98 62 -34 56 -56 212 -34 244 22 33
66 41 115 20z m-718 -21 c121 -8 291 -15 377 -15 126 0 160 -3 172 -15 17 -17
31 -113 22 -150 -6 -24 -9 -25 -94 -25 -135 0 -639 -19 -714 -26 l-68 -7 0
127 0 126 43 0 c23 0 141 -7 262 -15z m302 -297 c-11 -51 -145 -519 -149 -524
-12 -11 -39 11 -73 63 l-37 56 27 171 c15 94 32 187 39 206 13 40 32 48 130
49 66 1 68 0 63 -21z m239 -24 c82 -43 93 -46 149 -42 34 2 79 13 103 25 23
11 42 17 42 12 0 -8 -219 -599 -227 -612 -3 -5 -14 15 -23 45 -24 71 -90 132
-159 147 -38 8 -62 7 -106 -5 -32 -8 -62 -17 -68 -21 -6 -4 -7 7 -3 30 8 43
109 400 125 440 16 41 61 36 167 -19z m-532 4 c-31 -244 -39 -288 -53 -288 -9
0 -115 138 -135 177 -32 64 -15 116 42 129 15 3 32 7 37 9 6 2 33 4 62 4 l52
1 -5 -32z m-796 -10 c6 -8 10 -109 11 -268 0 -140 3 -367 7 -504 6 -211 5
-248 -7 -244 -11 4 -15 45 -21 194 -10 267 -14 834 -7 834 4 0 11 -6 17 -12z
m380 -5 c11 -21 21 -726 13 -855 -6 -86 -14 -110 -30 -92 -5 5 -11 224 -15
487 -5 414 -4 477 9 477 8 0 18 -8 23 -17z m-104 -110 c3 -65 9 -306 12 -535
l6 -418 -28 5 c-16 3 -60 11 -99 18 l-70 12 -6 220 c-4 121 -7 346 -8 501 l-1
281 65 6 c36 4 73 11 83 16 36 22 40 13 46 -106z m254 15 c145 -197 212 -303
212 -333 -1 -17 -7 -58 -14 -92 -13 -62 -15 -65 -131 -175 -65 -62 -121 -114
-125 -116 -4 -1 -8 118 -9 265 0 147 -4 330 -7 406 -4 75 -4 137 0 137 3 0 37
-42 74 -92z m10137 -89 c28 -6 78 -20 112 -31 79 -25 125 -75 153 -166 33
-105 36 -102 -74 -81 -52 10 -195 30 -317 44 -122 13 -224 26 -226 28 -2 3 -6
63 -10 134 l-6 130 159 -23 c87 -13 182 -29 209 -35z m-3821 -148 c11 -17 -6
-40 -36 -50 -37 -13 -377 -15 -397 -2 -19 12 -7 39 21 51 30 12 405 13 412 1z
m-770 -33 c15 -58 15 -58 -107 -58 -141 0 -182 -17 -239 -100 -49 -71 -99
-200 -105 -270 -4 -46 -2 -60 16 -82 12 -15 39 -32 59 -38 20 -5 135 -10 254
-10 l217 0 6 -54 c7 -52 5 -57 -35 -116 -53 -78 -93 -176 -121 -293 -12 -51
-24 -103 -28 -117 l-8 -25 -339 -3 c-186 -1 -344 0 -350 2 -12 5 16 103 147
506 150 464 209 606 264 640 40 25 121 37 261 39 97 1 102 0 108 -21z m4077
-62 c112 -19 305 -46 429 -61 336 -39 476 -58 617 -86 l51 -10 11 -67 c40
-252 103 -973 86 -990 -4 -4 -332 -8 -730 -10 l-723 -3 -6 248 c-4 137 -14
415 -22 618 -7 204 -14 376 -14 383 0 20 84 14 301 -22z m-3476 -32 c-64 -33
-127 -94 -172 -166 -20 -32 -39 -58 -42 -58 -6 0 -41 196 -41 228 0 8 33 12
103 14 56 2 125 4 152 6 l50 2 -50 -26z m-576 -55 c6 -29 20 -109 31 -178 11
-69 22 -135 25 -147 5 -20 1 -21 -212 -27 -232 -7 -253 -4 -268 42 -19 62 66
278 128 325 42 31 53 33 179 35 l106 1 11 -51z m-4836 6 c86 -59 97 -168 31
-316 -25 -55 -27 -57 -72 -64 -95 -13 -147 -49 -215 -148 -8 -12 -34 -20 -86
-26 l-73 -9 -53 43 c-30 24 -62 48 -71 53 -16 9 -10 19 54 87 67 70 112 129
112 148 0 20 -30 -2 -137 -100 -296 -273 -328 -315 -326 -433 2 -63 9 -106 72
-413 32 -152 38 -221 21 -232 -11 -7 -31 60 -65 220 -14 66 -44 183 -67 260
-51 170 -55 236 -19 309 56 113 242 327 384 442 75 60 163 114 185 114 5 0 12
-35 15 -79 6 -97 33 -163 79 -191 34 -20 68 -26 68 -12 0 5 -13 21 -30 37 -16
16 -28 30 -26 32 1 2 19 -4 39 -12 76 -32 144 -13 194 52 24 32 28 45 28 106
l0 69 -48 44 c-54 49 -51 57 6 19z m5603 -37 c-4 -24 -23 -76 -43 -115 l-35
-73 -114 0 c-82 0 -114 3 -114 12 0 24 107 115 195 166 112 65 120 65 111 10z
m-5633 -28 c40 -45 38 -101 -7 -146 -26 -26 -43 -34 -69 -34 -69 0 -116 71
-96 145 22 79 115 99 172 35z m6971 -32 c3 -24 12 -119 21 -213 9 -93 18 -184
21 -201 5 -28 0 -36 -43 -75 -77 -71 -133 -129 -133 -139 0 -23 24 -5 100 72
44 45 81 80 83 77 4 -5 27 -216 27 -247 l0 -22 -544 0 -543 0 -7 73 c-4 39
-25 202 -47 361 -22 159 -37 291 -34 294 14 14 285 31 820 51 116 4 224 9 242
9 30 2 32 0 37 -40z m-1284 -301 l0 -88 -47 6 c-71 10 -83 15 -83 33 1 29 36
96 71 136 30 35 34 37 46 20 8 -11 13 -49 13 -107z m-190 109 c0 -11 -85 -153
-98 -163 -9 -7 -42 -13 -74 -13 l-58 0 0 64 c0 36 4 76 10 90 9 26 11 26 115
26 58 0 105 -2 105 -4z m-6825 -127 c-4 -8 -24 -27 -45 -44 -103 -79 -146
-175 -135 -299 7 -68 5 -75 -13 -85 -18 -9 -22 -6 -37 32 -50 118 0 234 154
358 72 58 88 66 76 38z m-21 -200 l-37 -82 12 -84 c7 -46 37 -171 67 -278 l55
-193 -23 -36 c-13 -20 -26 -36 -29 -36 -4 0 -12 39 -19 88 -13 92 -29 162 -79
356 -48 185 -42 237 43 333 55 62 59 39 10 -68z m837 78 c25 -18 55 -55 71
-86 23 -44 28 -65 27 -125 0 -39 -6 -86 -12 -104 -15 -40 -62 -90 -92 -98 -35
-9 -105 27 -148 76 -69 75 -83 140 -48 217 23 49 120 153 143 153 9 0 36 -15
59 -33z m665 15 c7 -4 65 -90 129 -192 65 -102 142 -216 173 -255 109 -136
279 -289 475 -428 163 -115 626 -414 733 -472 l107 -59 -84 -78 c-46 -43 -192
-174 -323 -291 -132 -116 -325 -289 -430 -382 -398 -354 -609 -535 -628 -535
-28 0 -160 46 -223 77 -136 68 -272 186 -354 306 -53 77 -110 210 -137 315
-98 387 2 808 280 1180 145 193 266 302 321 288 15 -4 111 -92 238 -219 117
-117 249 -241 295 -275 156 -116 558 -342 609 -342 20 0 24 4 21 23 -2 17 -33
38 -143 95 -338 176 -491 283 -655 455 -328 345 -345 358 -432 319 -165 -73
-451 -479 -553 -786 -57 -171 -70 -251 -70 -436 0 -176 12 -257 61 -406 73
-222 179 -360 383 -495 57 -38 101 -69 97 -69 -40 0 -245 58 -300 84 -169 82
-295 293 -368 617 -20 89 -23 131 -23 289 0 168 3 195 27 292 49 191 120 351
318 713 48 88 135 255 192 370 58 116 114 224 124 242 26 44 108 76 140 55z
m-1271 -76 c44 -9 97 -18 118 -21 l37 -6 0 -87 c1 -91 15 -155 97 -432 48
-162 58 -216 40 -222 -6 -3 -82 7 -167 21 l-155 26 -33 120 c-112 408 -134
522 -112 566 18 35 52 60 75 55 11 -2 56 -11 100 -20z m864 -56 c15 -41 31
-57 97 -96 17 -10 16 -15 -15 -79 -18 -38 -89 -168 -158 -289 -181 -316 -269
-505 -327 -707 -43 -151 -50 -206 -50 -389 0 -141 5 -194 22 -272 48 -220 134
-406 249 -542 18 -22 31 -41 29 -43 -3 -3 -321 68 -476 107 -41 10 -165 37
-274 60 -262 54 -315 72 -377 128 -128 115 -223 306 -254 512 -43 282 12 581
167 895 53 108 171 315 180 315 4 0 12 -26 18 -57 43 -223 78 -343 99 -343 12
0 70 67 83 96 13 27 23 31 31 10 7 -19 85 -40 237 -66 175 -28 168 -26 184
-65 18 -41 55 -55 89 -32 15 9 49 71 92 163 37 82 111 234 163 337 l95 189 -1
101 c-2 110 2 119 52 115 24 -3 31 -10 45 -48z m5232 -33 c1 -19 -14 -65 -39
-117 -47 -99 -68 -173 -81 -288 -5 -46 -12 -86 -15 -89 -3 -3 -12 0 -21 7 -11
9 -15 32 -15 87 0 116 39 263 106 396 38 75 46 83 56 58 4 -12 8 -36 9 -54z
m-5566 -316 c22 -6 48 -11 58 -11 9 0 17 -2 17 -5 0 -13 -136 -275 -142 -275
-5 0 -8 18 -8 40 0 32 -37 227 -65 349 -5 19 5 12 47 -32 36 -38 65 -59 93
-66z m-881 58 c13 -30 11 -34 -59 -138 -132 -199 -226 -409 -284 -639 -93
-373 -45 -711 141 -985 22 -32 38 -61 35 -63 -8 -9 -127 117 -168 178 -56 83
-115 209 -141 303 -31 115 -31 385 0 528 64 293 193 540 412 795 25 29 46 52
48 52 2 0 9 -14 16 -31z m7159 -55 c26 -4 37 -11 37 -24 0 -9 3 -38 6 -64 l7
-46 -66 0 c-66 0 -102 16 -50 22 41 5 43 36 3 44 -29 6 -31 9 -24 38 9 42 13
48 32 42 10 -3 34 -8 55 -12z m-719 -62 c35 -51 34 -65 -4 -57 -23 5 -32 3
-36 -10 -8 -20 8 -37 49 -51 22 -7 33 -18 35 -35 2 -13 13 -34 25 -46 27 -31
13 -42 -17 -14 -23 22 -33 22 -100 4 -18 -5 -19 -1 -13 88 7 106 16 159 27
159 4 0 19 -17 34 -38z m-277 -18 l52 -7 3 -85 c2 -55 -1 -86 -8 -89 -6 -2
-173 0 -370 4 -410 9 -371 -3 -359 109 l6 63 67 4 c125 6 557 7 609 1z m-2481
-192 c-75 -149 -198 -345 -323 -514 l-65 -88 -32 14 c-61 26 -246 135 -246
146 0 3 31 22 68 43 67 38 126 83 323 249 94 79 299 227 307 222 2 -1 -13 -34
-32 -72z m6204 63 c899 -2 1650 -4 1669 -4 l33 -1 -4 -74 c-4 -87 -24 -122
-78 -141 -33 -11 -226 -21 -1205 -60 -203 -9 -498 -23 -655 -32 -478 -29
-2050 -18 -2200 15 -34 7 -35 9 -58 97 -12 50 -25 115 -29 147 -5 53 -4 57 18
61 13 3 215 3 449 0 234 -2 1161 -6 2060 -8z m-3475 -125 c4 -7 24 -8 52 -4
59 9 86 -7 134 -78 l39 -58 -25 -6 c-14 -3 -56 -2 -92 2 -66 9 -68 10 -95 54
-31 51 -46 100 -30 100 6 0 14 -5 17 -10z m689 -77 l167 -6 14 -27 c8 -15 11
-30 8 -34 -4 -3 -115 -6 -247 -6 l-242 0 -34 32 c-32 29 -33 32 -15 39 26 10
140 11 349 2z m2894 -430 c160 -3 291 -8 289 -9 -10 -10 -236 -61 -445 -100
-277 -51 -432 -86 -637 -144 -238 -68 -217 -67 -501 -15 -137 26 -276 51 -309
57 -89 16 -98 25 -31 33 59 8 140 -1 426 -45 200 -31 253 -27 489 29 200 48
380 85 661 133 l135 23 -390 8 c-214 4 -415 4 -445 0 l-55 -6 40 -8 c22 -4
161 -8 309 -8 196 -1 267 -4 259 -12 -16 -16 -245 -25 -418 -17 -218 10 -448
29 -464 38 -18 10 67 30 168 40 102 10 560 11 919 3z m-775 -94 c152 -7 277
-16 277 -20 0 -7 -22 -13 -95 -24 -54 -8 -513 12 -595 26 -89 15 -100 19 -75
30 22 9 77 8 488 -12z m-395 -49 c70 -12 170 -25 223 -30 108 -10 138 -18 118
-31 -25 -15 -134 -20 -214 -10 -244 29 -422 54 -440 61 -19 8 -19 8 5 18 41
17 171 13 308 -8z m-3157 -4 c19 -8 56 -17 84 -22 46 -6 48 -8 25 -17 -29 -13
-318 -12 -370 1 -32 8 -27 10 70 29 128 26 148 27 191 9z m-256 -82 c60 -8
111 -17 113 -19 7 -7 -101 -25 -149 -25 -66 0 -259 30 -259 40 0 12 99 28 145
24 22 -2 89 -11 150 -20z m5185 -1 c31 -25 32 -29 28 -88 -4 -70 -34 -121 -75
-131 -21 -6 -32 -1 -55 25 -44 49 -37 144 14 199 28 29 49 28 88 -5z m-4394 2
c-22 -17 -640 -221 -791 -261 -92 -24 -663 -164 -671 -164 -15 0 2 34 36 68
89 93 161 122 505 203 455 109 760 166 900 168 37 0 39 -1 21 -14z m2337 -39
c133 -24 264 -47 292 -51 60 -8 63 -10 33 -26 -46 -26 -162 -15 -428 40 -140
30 -257 55 -260 58 -11 10 29 23 73 23 26 0 157 -20 290 -44z m2999 22 l220
-12 20 -29 c11 -15 19 -30 17 -31 -2 -2 -33 0 -69 5 -36 5 -129 11 -208 13
-141 5 -143 5 -187 37 -47 34 -57 46 -29 35 9 -3 115 -12 236 -18z m-3368 -28
c37 -10 158 -38 267 -60 216 -44 229 -48 229 -61 0 -15 -49 -22 -128 -17 -64
5 -537 110 -550 123 -4 4 83 33 103 34 6 1 41 -8 79 -19z m-2996 -17 c56 -9
102 -19 102 -23 0 -3 -43 -14 -94 -24 -94 -18 -96 -18 -156 3 -34 12 -95 24
-137 28 -82 7 -80 18 5 33 56 10 140 5 280 -17z m5880 -60 c59 -128 83 -316
63 -489 -20 -173 -26 -160 -26 54 l0 207 -38 135 c-21 74 -40 141 -42 148 -2
6 -1 12 4 12 4 0 22 -30 39 -67z m-2833 -30 c143 -30 265 -58 270 -61 14 -9
-40 -19 -112 -21 -34 0 -165 15 -290 34 -125 19 -263 37 -306 41 -116 10 -114
22 5 54 91 25 105 23 433 -47z m-3505 -9 c85 -8 166 -19 180 -23 23 -7 21 -9
-25 -27 -37 -14 -75 -19 -145 -19 -110 0 -502 27 -494 34 12 13 207 50 264 50
36 1 135 -6 220 -15z m3156 -43 c104 -17 247 -38 317 -47 139 -19 140 -22 13
-48 -107 -23 -156 -20 -397 18 -118 19 -267 40 -332 47 -64 7 -114 16 -110 20
5 4 64 20 133 36 110 27 128 29 156 17 17 -7 116 -26 220 -43z m1974 34 c0
-21 -31 -31 -162 -55 -132 -24 -168 -25 -168 -7 0 21 46 38 155 57 130 24 175
25 175 5z m1540 -1 c45 -9 56 -43 65 -189 7 -119 -5 -289 -26 -369 l-11 -39
-80 7 c-44 4 -100 9 -124 13 l-45 6 8 76 c10 100 10 316 0 413 l-9 77 84 4
c46 1 88 4 94 5 6 1 26 -1 44 -4z m433 -43 c15 -6 27 -15 27 -20 0 -10 -343
-27 -358 -17 -5 3 -12 18 -15 32 l-5 27 162 -6 c88 -3 173 -10 189 -16z
m-3037 -12 c16 -18 19 -37 19 -135 0 -126 -3 -133 -59 -126 -33 4 -35 7 -42
49 -3 24 -4 81 -2 125 4 64 9 84 23 94 26 19 39 17 61 -7z m-4326 -50 c157
-12 287 -24 289 -26 3 -2 -6 -15 -20 -29 -22 -24 -28 -25 -94 -20 -288 24
-440 37 -503 42 l-74 6 29 30 c22 23 34 28 58 24 17 -2 158 -15 315 -27z
m4195 -90 l0 -114 -30 0 c-25 0 -30 5 -37 35 -12 55 1 159 24 182 36 36 43 19
43 -103z m-1103 76 c117 -19 260 -41 318 -48 58 -8 98 -17 90 -20 -40 -16
-147 -38 -189 -39 -57 -1 -722 64 -716 70 11 11 223 71 252 72 17 0 127 -16
245 -35z m4322 -30 c4 -20 4 -40 1 -45 -7 -11 -332 -14 -359 -4 -10 4 -16 18
-16 39 0 41 0 41 211 44 l157 1 6 -35z m-990 -67 c3 -29 6 -115 6 -190 l0
-137 -42 -12 c-50 -13 -322 -69 -1433 -294 -445 -90 -848 -173 -895 -184 -47
-11 -86 -18 -88 -16 -2 1 -4 63 -6 136 -3 113 -7 148 -30 219 -44 139 -46 126
22 133 32 4 148 24 258 46 358 71 1527 260 2129 344 74 10 72 11 79 -45z
m-6464 -4 c129 -9 236 -18 237 -19 2 -1 -13 -33 -32 -71 l-35 -69 -262 22
c-145 12 -289 22 -321 22 -67 1 -67 2 -20 95 l25 48 86 -6 c48 -3 193 -13 322
-22z m2837 -19 c202 -19 376 -36 385 -38 13 -1 3 -15 -36 -49 l-53 -47 -249
29 c-137 16 -311 34 -388 40 -77 6 -141 12 -143 14 -5 5 97 86 108 86 4 0 173
-16 376 -35z m4614 -16 c5 -8 9 -17 9 -21 0 -10 -294 -11 -339 -2 -22 5 -31
12 -31 27 0 19 4 20 176 15 134 -4 178 -9 185 -19z m-5771 -60 c311 -6 566
-12 568 -14 1 -1 -5 -16 -15 -34 -18 -31 -18 -31 -103 -31 -176 0 -959 30
-1042 40 -54 6 -96 7 -111 1 -30 -11 -67 -57 -67 -82 0 -46 54 -62 270 -79
157 -12 521 -57 565 -69 18 -6 -138 -9 -385 -10 -475 -1 -449 -6 -476 86 -26
89 -6 154 58 193 24 15 45 17 102 14 39 -2 325 -9 636 -15z m5772 -52 c5 -7 7
-23 6 -37 l-3 -25 -147 4 c-198 4 -212 8 -216 50 l-4 34 178 -7 c122 -5 181
-11 186 -19z m-4942 -6 c102 -11 248 -25 325 -31 77 -6 168 -13 203 -16 l62
-6 -27 -49 -28 -49 -55 0 c-67 0 -721 57 -727 64 -6 6 45 106 55 106 4 0 90
-9 192 -19z m-2898 -30 c32 -6 162 -17 290 -27 128 -9 235 -18 237 -20 2 -2 0
-18 -6 -36 l-9 -33 -115 1 c-97 2 -508 40 -517 49 -2 2 0 19 3 39 8 41 17 43
117 27z m7736 -61 l102 0 0 -34 c0 -19 -5 -38 -11 -41 -16 -11 -236 -6 -306 6
-59 10 -63 13 -63 38 0 15 3 31 8 35 4 5 43 6 87 2 44 -3 126 -6 183 -6z
m-4733 -95 c187 -14 354 -27 370 -29 33 -3 33 -1 14 -99 l-14 -68 -60 6 c-33
3 -157 12 -275 21 -245 18 -438 38 -447 48 -6 6 13 132 23 148 3 4 15 6 27 3
12 -3 175 -16 362 -30z m-2805 -5 c162 -16 298 -30 303 -30 4 0 7 -36 7 -81 0
-68 -2 -80 -15 -75 -8 3 -133 17 -277 31 -369 35 -363 34 -362 65 1 14 2 46 3
73 1 42 3 47 24 47 12 0 155 -14 317 -30z m3731 -2 c129 -38 211 -215 181
-390 -41 -242 -242 -375 -409 -272 -143 89 -185 318 -92 504 63 125 202 194
320 158z m3757 -14 l133 -7 -3 -36 -3 -36 -115 2 c-129 3 -244 19 -258 36 -6
7 -6 21 -1 36 9 22 13 23 62 18 28 -4 112 -9 185 -13z m-828 -123 l0 -79 -42
-10 c-52 -13 -54 -11 -63 76 -7 69 -4 78 35 85 72 13 70 15 70 -72z m735 15
c83 -8 158 -18 168 -22 17 -6 17 -8 -4 -30 -28 -29 -62 -30 -271 -6 l-147 17
25 33 c21 27 31 32 53 27 14 -3 94 -12 176 -19z m-1010 -39 c4 -29 5 -70 3
-92 -4 -37 -7 -40 -46 -52 -39 -11 -45 -10 -62 7 -20 20 -34 85 -28 140 3 37
20 46 95 49 31 1 32 0 38 -52z m-315 -94 c0 -49 -4 -94 -8 -100 -5 -7 -29 -16
-54 -19 l-46 -6 -11 38 c-6 22 -11 64 -11 96 l0 56 38 10 c20 5 49 10 65 11
l27 1 0 -87z m-6015 31 c143 -14 261 -27 261 -27 1 -1 5 -17 9 -36 l7 -34 -48
6 c-27 4 -146 16 -264 27 -118 11 -242 25 -275 30 -33 5 -63 10 -66 10 -9 0
-18 48 -10 55 6 7 7 7 386 -31z m2585 11 c96 -8 241 -19 323 -26 197 -15 203
-16 199 -60 -2 -19 -6 -36 -8 -38 -8 -8 -780 61 -788 70 -2 2 -1 21 2 42 l4
37 47 -5 c25 -3 125 -12 221 -20z m4714 -17 c86 -9 104 -14 85 -21 -57 -23
-429 -2 -429 24 0 20 145 19 344 -3z m-1598 -13 c6 -14 -13 -186 -21 -193 -2
-2 -23 -8 -46 -13 -50 -12 -52 -9 -69 74 -9 46 -9 66 0 88 7 16 13 29 14 29 0
0 19 7 41 15 52 18 74 19 81 0z m-1651 -148 c0 -108 -1 -115 -36 -187 -67
-140 -107 -159 -50 -24 32 74 51 186 51 292 0 63 1 65 18 49 14 -15 17 -36 17
-130z m1330 60 c4 -19 3 -65 -2 -103 l-8 -68 -44 -9 c-30 -6 -47 -5 -55 3 -6
6 -13 51 -14 100 l-4 89 29 6 c15 4 33 8 38 10 37 12 54 4 60 -28z m-5391 -23
c143 -14 270 -29 281 -34 13 -5 28 -31 44 -74 13 -37 22 -69 20 -70 -2 -2 -42
2 -89 10 -47 8 -184 21 -305 29 -305 21 -279 13 -299 95 -9 37 -16 71 -16 75
0 4 23 5 51 2 29 -4 169 -18 313 -33z m2653 -9 c136 -14 295 -28 353 -32 l105
-8 8 -94 c4 -52 6 -95 4 -97 -2 -2 -91 8 -198 21 -106 13 -287 32 -401 41
l-208 18 0 88 0 88 44 0 c24 0 156 -11 293 -25z m2424 -26 c10 -33 11 -167 2
-172 -5 -3 -29 -7 -54 -11 l-47 -7 -6 58 c-4 32 -9 77 -12 99 l-6 41 49 10
c61 13 66 12 74 -18z m1256 -66 l76 -57 -34 -12 c-36 -13 -38 -12 -198 79
l-45 26 30 6 c16 4 34 8 39 10 34 11 64 0 132 -52z m-1562 -4 c10 -44 -4 -167
-20 -172 -7 -3 -33 -8 -57 -12 -42 -6 -46 -5 -51 17 -4 12 -7 58 -7 100 0 77
0 78 28 84 15 3 32 7 37 9 6 2 22 4 37 4 22 1 28 -4 33 -30z m-335 -101 c0
-40 -3 -89 -6 -109 -6 -33 -10 -37 -52 -47 -26 -6 -50 -8 -54 -6 -5 3 -8 51
-8 108 l0 103 48 10 c26 6 53 11 60 12 8 1 12 -19 12 -71z m-4445 2 c359 -32
424 -47 414 -91 -4 -13 -33 -12 -244 8 -305 28 -415 46 -432 69 -22 30 -16 44
15 39 15 -3 126 -14 247 -25z m2730 -61 c160 -16 318 -33 352 -36 35 -3 67
-11 72 -17 11 -14 32 -78 28 -83 -2 -2 -139 10 -303 27 -164 17 -349 36 -411
42 l-112 11 -6 31 c-4 17 -9 39 -12 49 -4 17 0 18 49 13 29 -4 184 -20 343
-37z m2431 -59 c100 -68 121 -89 104 -100 -39 -25 -105 3 -195 83 l-40 35 25
11 c38 15 44 14 106 -29z m-5101 -10 c88 -11 222 -26 298 -32 l137 -12 42 -43
43 -43 -30 5 c-17 3 -82 14 -145 25 -63 11 -178 26 -255 35 -77 8 -165 20
-195 26 -54 11 -130 46 -130 60 0 4 17 5 38 3 20 -3 109 -14 197 -24z m2241 9
c11 -19 -18 -29 -86 -29 -36 0 -71 -4 -79 -9 -15 -10 6 -17 114 -41 48 -11 85
-33 85 -53 0 -11 -6 -9 -155 33 -67 19 -146 33 -201 37 -148 9 -197 -17 -60
-32 34 -4 113 -20 176 -37 63 -16 144 -35 180 -42 56 -11 67 -16 83 -45 11
-17 17 -34 15 -37 -3 -2 -23 2 -46 10 -68 24 -153 37 -205 30 -26 -4 -45 -10
-40 -14 9 -7 136 -45 223 -66 88 -20 117 -33 100 -44 -32 -20 -129 -10 -247
26 -65 20 -145 42 -178 49 -137 31 -273 68 -311 85 -22 10 -96 30 -165 45
-172 37 -177 40 -98 54 36 6 83 11 105 12 21 0 181 17 354 38 339 42 425 47
436 30z m2609 -36 c65 -43 135 -104 130 -113 -2 -4 -18 -10 -35 -14 -39 -7
-83 14 -168 82 l-62 50 37 10 c55 14 55 14 98 -15z m-99 -62 c71 -50 101 -78
92 -87 -3 -3 -22 -7 -42 -11 -29 -5 -42 -1 -72 23 -20 16 -62 46 -93 66 -55
36 -55 37 -31 47 48 19 76 12 146 -38z m-2363 29 c38 -6 226 -26 418 -45 192
-19 354 -37 359 -40 14 -9 93 -126 88 -130 -2 -2 -46 2 -98 10 -52 7 -252 30
-445 50 -192 20 -353 40 -356 43 -11 13 -48 122 -41 122 4 0 38 -5 75 -10z
m2192 -43 c48 -33 125 -99 125 -107 0 -19 -77 -16 -115 3 -51 25 -155 97 -155
107 0 12 72 28 95 23 11 -3 34 -15 50 -26z m-139 -38 c32 -23 76 -55 98 -72
34 -27 37 -32 20 -38 -60 -24 -113 -4 -206 74 -51 42 -59 63 -30 70 41 11 62
5 118 -34z m-149 -28 c111 -91 129 -110 113 -121 -28 -18 -49 -10 -137 56 -48
36 -94 68 -100 71 -18 7 -16 21 5 26 47 12 72 6 119 -32z m-90 -62 c48 -39 89
-74 91 -78 1 -5 -14 -11 -35 -14 -33 -6 -45 -2 -88 28 -27 19 -70 52 -95 74
l-45 39 25 11 c44 18 57 12 147 -60z m-128 -31 c49 -40 90 -76 91 -80 0 -3
-16 -12 -35 -18 -34 -11 -37 -10 -103 41 -37 29 -82 66 -100 81 l-32 27 32 10
c52 15 51 15 147 -61z m-204 23 c17 -10 61 -46 98 -80 l68 -61 -26 -10 c-15
-6 -28 -10 -31 -10 -8 0 -85 51 -164 109 -71 52 -74 55 -50 62 44 12 74 9 105
-10z m-1025 -51 c410 -40 460 -48 495 -75 19 -14 19 -14 -5 -15 -29 0 -308 26
-425 40 -44 5 -167 16 -274 25 -197 16 -243 26 -249 57 -3 14 2 17 25 13 15
-3 210 -23 433 -45z m951 -31 c57 -44 104 -86 104 -92 0 -26 -66 -19 -116 11
-59 37 -179 133 -179 143 0 4 15 10 33 12 17 2 37 5 43 5 7 1 58 -34 115 -79z
m-195 23 c52 -38 164 -142 164 -152 0 -5 -10 -12 -21 -15 -17 -6 -51 13 -150
81 -166 112 -167 114 -92 114 50 0 67 -5 99 -28z m-863 -72 c105 -10 278 -26
383 -35 104 -8 214 -19 242 -25 47 -9 112 -35 112 -45 0 -2 -24 -2 -52 1 -29
2 -141 11 -248 19 -319 26 -653 60 -692 71 -10 3 -18 12 -18 20 0 19 39 18
273 -6z"/>
<path d="M5276 13239 c-121 -33 -144 -251 -37 -342 41 -34 84 -35 128 -1 94
71 108 234 28 310 -36 34 -75 44 -119 33z m99 -91 c52 -61 17 -170 -57 -176
-51 -4 -78 32 -78 105 0 46 4 59 28 83 35 35 71 31 107 -12z"/>
<path d="M3835 11944 c-45 -23 -66 -45 -86 -89 -50 -108 1 -221 108 -241 47
-9 111 29 140 85 45 86 18 202 -57 242 -42 23 -66 24 -105 3z"/>
<path d="M8255 9600 c-27 -29 -33 -30 -85 -25 -45 5 -61 2 -88 -15 -37 -23
-62 -73 -62 -122 1 -77 74 -168 134 -168 39 0 84 48 92 99 6 36 13 45 44 61
64 32 112 105 96 145 -7 18 -65 55 -87 55 -8 0 -28 -14 -44 -30z"/>
<path d="M10666 7579 c-9 -50 -34 -231 -56 -402 -41 -329 -48 -366 -104 -597
-71 -288 -78 -379 -51 -666 28 -295 55 -403 106 -429 79 -42 163 1 409 205
142 119 255 238 271 288 9 28 10 182 5 662 -7 659 -15 859 -35 884 -7 8 -47
26 -89 40 -82 27 -330 89 -398 100 l-41 6 -17 -91z m159 -5 c36 -9 65 -22 65
-28 0 -6 -13 -83 -29 -171 -16 -88 -46 -275 -66 -415 -21 -140 -43 -261 -50
-268 -13 -14 -88 -9 -115 8 -10 6 -4 73 34 341 25 184 51 382 58 442 9 77 16
107 25 107 8 0 43 -7 78 -16z m218 -55 c15 -7 27 -19 27 -29 0 -39 -128 -830
-136 -839 -4 -4 -125 17 -131 23 -3 2 2 42 11 88 8 45 36 229 61 408 59 423
47 380 98 369 23 -5 54 -14 70 -20z m117 -39 c20 -13 17 -118 -9 -310 -24
-174 -37 -300 -47 -437 l-6 -102 -52 6 c-28 3 -53 7 -55 9 -2 2 6 72 18 156
11 84 25 191 31 238 6 47 17 129 26 184 8 54 19 132 24 173 5 41 12 79 15 84
8 12 36 11 55 -1z m-374 -1096 c8 -32 -1 -512 -10 -521 -3 -4 -9 -3 -13 0 -11
12 -16 210 -8 381 7 157 16 199 31 140z"/>
<path d="M11293 7502 c-7 -31 2 -303 21 -627 8 -132 18 -334 21 -450 7 -210
18 -351 29 -362 3 -3 19 0 35 7 42 17 279 262 287 297 16 59 -29 923 -52 1021
-4 15 -13 35 -22 44 -17 21 -107 51 -225 77 l-87 19 -7 -26z m162 -83 c97 -25
91 -11 70 -160 -8 -57 -22 -194 -31 -304 -8 -110 -19 -236 -22 -280 l-7 -80
-36 -3 -37 -3 -6 123 c-23 485 -30 728 -21 728 3 0 44 -10 90 -21z m116 -394
c-6 -154 -15 -311 -19 -350 -7 -68 -8 -70 -36 -73 -27 -3 -28 -2 -23 30 13 74
50 427 62 583 3 44 9 94 12 110 7 29 7 29 11 5 3 -14 -1 -151 -7 -305z"/>
<path d="M11139 5581 c-91 -90 -104 -115 -69 -124 12 -3 20 -14 20 -26 0 -49
60 -34 138 34 l42 37 0 72 c0 68 -10 96 -33 96 -5 0 -50 -40 -98 -89z"/>
<path d="M10385 7704 c-11 -2 -180 -17 -375 -34 -324 -28 -548 -50 -656 -66
l-42 -6 -12 -76 c-6 -43 -27 -142 -46 -222 -43 -180 -224 -977 -224 -987 0 -9
345 0 630 16 102 6 267 14 368 17 100 4 184 10 186 13 2 3 21 98 41 211 20
113 52 279 70 370 69 335 126 642 132 705 l6 65 -29 -1 c-16 -1 -38 -3 -49 -5z
m-2 -71 c3 -5 1 -35 -4 -68 -17 -108 -91 -480 -99 -494 -4 -8 -41 -26 -83 -41
-203 -75 -416 -248 -501 -409 -39 -76 -44 -99 -21 -108 23 -8 53 24 87 92 43
86 103 160 178 220 59 47 180 125 193 125 4 0 -21 -40 -53 -89 -54 -80 -180
-308 -180 -325 0 -4 25 -6 56 -4 l57 3 38 118 c44 135 93 233 148 297 55 63
68 49 52 -57 -17 -118 -83 -457 -90 -465 -6 -7 -562 -41 -883 -54 -132 -6
-168 -4 -168 6 0 30 255 1148 264 1157 4 4 136 19 294 35 158 15 370 37 472
47 221 22 237 23 243 14z"/>
<path d="M12336 6508 c-11 -43 -6 -58 25 -77 43 -27 129 -46 304 -71 83 -11
160 -23 172 -25 30 -7 39 30 19 78 -17 42 -63 69 -146 86 -43 9 -289 30 -356
31 -7 0 -14 -10 -18 -22z"/>
<path d="M12543 5884 c3 -54 11 -214 17 -354 7 -163 15 -259 23 -268 8 -10 27
-13 66 -10 83 7 84 11 77 213 -7 175 -22 406 -31 462 -6 36 -13 39 -96 49
l-62 7 6 -99z"/>
<path d="M12801 5940 c-23 -10 -23 -13 -17 -83 29 -321 36 -410 36 -467 0 -36
5 -82 11 -102 l10 -38 66 0 66 0 -7 238 c-3 130 -9 283 -12 339 -7 100 -7 102
-33 107 -66 13 -98 15 -120 6z m57 -54 c3 -14 0 -17 -12 -13 -15 6 -22 -4 -10
-15 3 -3 7 -55 8 -114 2 -62 13 -146 24 -194 28 -117 37 -250 18 -250 -20 0
-25 19 -31 128 -3 53 -12 160 -20 237 -25 250 -25 246 -1 243 11 -2 22 -12 24
-22z"/>
<path d="M13027 5924 c-2 -2 1 -38 5 -81 4 -43 12 -181 17 -308 5 -126 13
-239 17 -250 11 -30 23 -35 87 -35 l59 0 -6 98 c-4 53 -11 178 -16 277 -14
252 -19 285 -39 286 -9 0 -40 4 -69 8 -29 4 -54 6 -55 5z"/>
<path d="M10077 6083 c-28 -27 -60 -58 -70 -70 -23 -29 -246 -228 -407 -364
-130 -110 -166 -146 -159 -154 6 -5 175 125 304 234 124 105 379 345 399 376
28 43 -8 31 -67 -22z"/>
<path d="M2606 5579 c-53 -62 -18 -158 57 -159 33 0 73 36 83 74 23 94 -80
157 -140 85z"/>
<path d="M12225 3729 c-36 -21 -55 -53 -55 -96 0 -79 74 -128 141 -93 25 14
49 62 49 99 0 62 -85 118 -135 90z"/>
<path d="M11620 3624 c-8 -1 -62 -10 -120 -19 -188 -30 -264 -76 -197 -119 19
-13 35 -13 137 4 156 27 208 39 253 62 44 22 46 30 11 57 -25 20 -47 23 -84
15z"/>
<path d="M10660 3433 c-19 -8 -68 -21 -110 -29 -138 -26 -193 -70 -176 -138
12 -47 43 -52 152 -26 82 20 104 22 148 13 60 -13 85 -2 116 50 60 98 -20 178
-130 130z"/>
<path d="M9544 3342 c-142 -67 -179 -312 -66 -431 68 -72 169 -66 240 14 76
86 96 235 45 335 -16 30 -40 63 -55 73 -38 28 -114 32 -164 9z m130 -40 c17
-9 41 -38 54 -62 20 -38 23 -56 19 -115 -4 -80 -28 -133 -79 -183 -69 -66
-131 -60 -188 19 -76 105 -55 283 40 347 29 19 43 23 79 18 24 -3 58 -14 75
-24z"/>
<path d="M7530 2671 c0 -5 30 -12 68 -15 37 -4 132 -24 212 -45 184 -50 199
-52 235 -36 l30 13 -28 11 c-132 52 -517 106 -517 72z"/>
<path d="M5415 2671 c-11 -19 -4 -21 91 -36 49 -7 134 -22 189 -33 148 -30
164 -32 171 -21 12 21 -15 31 -157 60 -178 35 -283 46 -294 30z"/>
<path d="M7174 2581 c29 -32 203 -77 379 -96 74 -8 76 9 2 30 -75 22 -356 85
-379 85 -18 0 -18 -1 -2 -19z"/>
<path d="M7940 2342 c0 -36 76 -72 155 -72 43 0 53 -3 49 -14 -18 -46 233
-101 331 -72 l30 8 -38 14 c-21 7 -95 25 -165 39 -116 24 -154 35 -124 35 7 0
12 6 12 14 0 8 -19 18 -47 25 -52 12 -203 30 -203 23z"/>
<path d="M2917 2313 c-14 -14 -6 -31 17 -37 13 -3 84 -14 157 -25 74 -11 242
-44 374 -75 132 -30 278 -62 325 -70 204 -37 971 -89 992 -68 6 6 8 17 5 26
-8 19 -60 25 -350 36 -130 5 -241 11 -245 13 -4 3 -68 10 -142 17 -172 14
-211 21 -465 80 -115 27 -255 58 -310 69 -172 34 -342 51 -358 34z"/>
<path d="M3762 2269 c2 -20 12 -26 53 -37 61 -15 197 -12 202 5 9 28 -47 46
-154 51 l-105 5 4 -24z"/>
<path d="M2430 2267 c0 -19 13 -24 110 -37 140 -20 474 -81 660 -121 813 -175
993 -203 1279 -197 92 2 230 -1 309 -6 107 -7 142 -6 142 3 0 30 -146 48 -495
61 -330 12 -524 42 -970 145 -126 30 -275 63 -330 74 -141 28 -502 80 -612 88
-81 5 -93 4 -93 -10z"/>
<path d="M2170 2182 c0 -27 31 -35 217 -56 77 -9 239 -37 360 -62 533 -111
819 -167 1108 -217 409 -72 465 -77 465 -41 0 19 -46 29 -302 69 -239 37 -386
66 -843 164 -416 88 -701 137 -927 157 -75 6 -78 6 -78 -14z"/>
<path d="M2220 2056 c-32 -32 0 -42 241 -76 252 -36 285 -42 621 -114 284 -62
525 -106 575 -106 26 0 33 4 33 19 0 25 -27 33 -217 66 -84 14 -266 50 -405
80 -379 82 -828 151 -848 131z"/>
<path d="M3206 1703 c-4 -9 -3 -20 2 -25 13 -13 151 -39 216 -41 129 -4 47 53
-104 72 -108 14 -107 14 -114 -6z"/>
</g>
</svg>
