<?xml version="1.0" standalone="no"?>
<!DOCTYPE svg PUBLIC "-//W3C//DTD SVG 20010904//EN"
 "http://www.w3.org/TR/2001/REC-SVG-20010904/DTD/svg10.dtd">
<svg version="1.0" xmlns="http://www.w3.org/2000/svg"
 width="1500.000000pt" height="1500.000000pt" viewBox="0 0 1500.000000 1500.000000"
 preserveAspectRatio="xMidYMid meet">
<metadata>
Created by potrace 1.16, written by Peter Selinger 2001-2019
</metadata>
<g transform="translate(0.000000,1500.000000) scale(0.100000,-0.100000)"
fill="none" stroke="#000000">
<path d="M12615 10684 c-11 -3 -47 -9 -80 -15 -33 -6 -82 -18 -110 -25 -41
-12 -63 -12 -123 -3 -180 29 -420 -35 -742 -196 -187 -94 -297 -164 -730 -466
-217 -152 -570 -396 -785 -544 -214 -148 -565 -390 -780 -539 l-390 -270 -90
-7 c-49 -5 -265 -15 -480 -24 -214 -8 -439 -18 -500 -21 l-110 -5 55 49 55 50
-1 59 c0 32 -7 73 -15 91 -14 33 -14 31 -11 -46 4 -76 3 -82 -22 -107 -29 -29
-51 -28 -96 4 -71 50 -120 157 -120 261 0 124 72 134 170 23 37 -41 40 -44 26
-16 -40 79 -121 141 -163 126 -47 -17 -443 -262 -509 -315 -41 -33 -105 -95
-142 -137 l-67 -77 -135 -7 c-207 -11 -752 -37 -779 -37 -22 0 -18 6 34 61
l58 60 -5 63 c-8 92 -23 110 -23 27 0 -112 -43 -148 -120 -101 -91 56 -159
280 -105 345 29 35 97 10 155 -57 33 -38 35 -39 22 -12 -35 68 -99 124 -143
124 -9 0 -116 -59 -237 -131 -258 -155 -326 -208 -458 -357 l-55 -63 -520 -24
c-717 -33 -1413 -61 -2109 -85 -844 -28 -792 -25 -855 -49 -30 -11 -76 -38
-102 -60 -47 -39 -229 -245 -249 -283 -15 -28 11 -64 53 -72 66 -13 871 -157
1201 -214 185 -32 340 -61 342 -64 3 -3 -20 -31 -52 -63 l-58 -58 70 62 c38
34 75 59 80 57 6 -2 60 -12 120 -21 61 -10 116 -21 123 -25 9 -4 -42 -55 -157
-154 -94 -81 -171 -149 -171 -152 0 -3 82 64 183 149 l182 154 225 -39 c124
-21 612 -103 1085 -183 473 -79 1096 -188 1385 -241 289 -53 542 -98 562 -101
39 -6 88 -47 72 -62 -5 -4 -108 -84 -229 -177 -121 -93 -445 -344 -720 -558
-275 -214 -516 -399 -535 -410 -55 -33 -189 -30 -302 8 -258 84 -588 353 -999
815 -65 73 -67 74 -121 79 -82 6 -152 -28 -240 -119 -37 -39 -68 -74 -68 -79
0 -5 26 19 58 52 92 98 176 139 254 124 31 -6 47 -21 121 -119 48 -62 127
-160 176 -218 50 -57 90 -107 91 -111 0 -3 -37 -37 -83 -74 -92 -75 -122 -102
-97 -88 9 5 57 37 107 72 51 34 96 62 100 62 5 0 30 -22 56 -48 l48 -49 -148
-118 c-81 -65 -167 -134 -190 -153 l-42 -34 -16 39 c-54 130 -289 653 -292
649 -4 -3 58 -157 210 -521 59 -141 73 -183 64 -194 -13 -16 -2 -38 -172 352
-59 136 -109 246 -112 244 -2 -2 54 -143 123 -312 l127 -308 -39 -33 c-21 -18
-42 -30 -46 -26 -10 10 -148 371 -219 572 -32 91 -58 162 -58 158 -1 -4 51
-179 115 -390 114 -380 163 -527 244 -728 23 -58 45 -111 48 -119 4 -11 -1
-12 -19 -8 -32 8 -316 42 -509 62 -85 8 -216 23 -291 32 -75 9 -147 13 -160
10 -38 -11 -222 -189 -214 -208 3 -9 78 -49 165 -90 88 -41 160 -76 160 -79 0
-3 -54 -38 -120 -79 -66 -41 -120 -76 -120 -78 0 -5 -9 -10 137 77 l123 72 65
-27 c57 -24 63 -30 52 -44 -10 -14 -10 -14 4 -3 14 11 63 -8 320 -121 167 -74
355 -156 417 -182 96 -40 112 -50 112 -69 0 -44 34 -61 134 -65 l91 -3 93
-112 c51 -61 110 -132 132 -158 l41 -46 -71 -47 c-38 -26 -70 -50 -70 -52 0
-3 10 1 23 9 12 9 46 30 75 48 l54 33 36 -37 37 -37 -25 -21 -25 -20 27 16 28
16 71 -67 c39 -38 79 -71 89 -75 27 -10 180 73 208 113 22 33 23 35 20 316 -2
156 -3 283 -2 283 1 0 64 18 140 40 421 123 897 285 1149 392 327 139 916 470
1652 930 272 169 306 188 345 188 64 -1 185 -25 253 -50 97 -37 121 -67 309
-391 l26 -46 -85 -52 c-47 -29 -85 -55 -85 -58 0 -3 10 1 23 9 95 61 150 89
157 82 10 -10 213 -363 483 -840 97 -171 184 -317 193 -325 32 -27 85 -14 225
53 75 36 154 81 175 101 80 72 87 93 174 542 35 178 118 581 126 606 3 10 20
19 43 23 89 14 214 67 352 149 79 46 160 93 179 104 51 28 65 58 51 108 -6 22
-20 51 -32 65 -20 24 -20 24 -9 2 18 -37 17 -109 -1 -127 -14 -15 -19 -15 -57
1 -53 20 -128 103 -142 155 -28 103 33 126 140 51 30 -21 29 -18 -11 22 -26
25 -58 48 -71 51 -15 4 -78 -11 -174 -43 -82 -27 -150 -48 -152 -46 -2 1 12
71 30 154 30 139 35 154 58 163 89 36 165 75 259 132 59 35 128 73 154 84 39
17 47 25 53 56 4 24 1 51 -11 80 -22 60 -35 65 -22 10 8 -33 7 -52 -2 -71 -10
-23 -16 -26 -47 -21 -72 12 -165 118 -167 191 -1 39 17 66 45 66 22 0 74 -25
102 -49 18 -15 18 -15 7 6 -14 27 -79 73 -103 73 -10 0 -52 -12 -94 -26 -42
-14 -77 -24 -79 -22 -3 4 151 718 156 722 2 1 211 150 464 331 253 181 660
473 905 649 972 699 930 666 1070 841 139 176 252 381 290 530 39 154 19 328
-48 416 -87 114 -207 159 -417 158 -66 -1 -129 -3 -140 -5z m241 -35 c90 -12
167 -39 206 -71 l27 -23 -555 -370 c-306 -203 -558 -374 -561 -379 -8 -12 -24
-22 287 179 146 94 397 256 559 360 l294 188 23 -28 c56 -70 74 -233 40 -365
-23 -90 -123 -288 -201 -395 -123 -171 -232 -285 -356 -370 -169 -116 -1354
-946 -1814 -1270 -220 -155 -555 -389 -745 -520 -190 -131 -491 -342 -670
-469 -179 -126 -397 -278 -485 -336 -1304 -868 -2279 -1469 -2759 -1700 -293
-141 -941 -376 -1453 -526 -353 -103 -714 -176 -793 -161 -64 13 -67 21 -24
59 122 105 292 256 398 353 67 60 144 130 171 154 74 66 47 47 -212 -149
l-237 -178 -60 22 c-34 12 -215 78 -403 146 -297 109 -340 127 -325 138 9 7
83 51 164 98 l148 84 332 -35 c183 -19 393 -42 467 -50 148 -16 184 -14 69 5
-214 34 -250 42 -236 55 7 7 210 157 450 334 562 413 1384 1025 1752 1305 99
75 183 136 186 136 14 0 55 -90 44 -98 -39 -26 -1070 -774 -1416 -1026 l-216
-158 14 -47 c8 -25 19 -63 24 -84 7 -25 15 -35 23 -30 7 4 68 48 137 98 181
132 1162 834 1318 944 73 51 136 91 139 88 9 -10 -28 -109 -72 -193 -51 -98
-105 -173 -194 -268 -36 -39 -77 -84 -91 -101 l-25 -29 25 16 c227 140 2322
1511 2585 1691 716 490 874 632 875 788 0 75 -42 121 -147 162 l-33 12 303
217 c166 119 386 277 488 351 l187 135 53 -54 c29 -30 61 -57 71 -60 37 -11
211 104 239 159 10 19 8 19 -17 -5 -35 -32 -197 -128 -216 -128 -8 0 -38 21
-67 48 l-53 47 115 83 116 84 33 -22 33 -22 -29 25 -28 25 53 39 c30 22 150
108 267 192 116 84 212 155 212 157 0 3 -35 -19 -77 -49 -43 -30 -165 -116
-272 -191 l-193 -135 -54 37 c-29 20 -53 39 -53 42 0 3 18 18 42 35 23 16 178
130 345 252 l302 223 58 -5 c51 -4 53 -3 17 5 -22 5 -50 9 -61 9 -12 1 -176
-107 -380 -249 l-359 -250 -51 6 c-61 7 -113 -12 -162 -59 -49 -47 -56 -64
-39 -91 15 -22 8 -27 -372 -293 -212 -150 -479 -338 -593 -418 l-207 -146 -78
3 -78 3 340 244 c187 135 477 344 645 465 690 498 1222 874 1330 941 150 94
340 194 340 180 0 -4 -176 -130 -252 -180 -46 -30 -56 -41 -49 -54 50 -93 218
-84 458 25 126 57 362 203 471 292 45 37 69 48 150 68 88 22 207 39 289 43 17
0 66 -4 109 -10z m-2139 -1121 c10 -8 -17 -31 -100 -89 l-112 -79 -45 46 c-37
37 -42 47 -30 54 8 5 51 35 95 68 l80 59 50 -24 c28 -14 56 -30 62 -35z m-239
-184 c-7 -7 -236 -168 -508 -358 l-495 -346 -84 0 c-46 0 -82 2 -80 4 2 2 249
182 549 400 l545 396 42 -42 c34 -33 40 -45 31 -54z m-2970 -359 c-24 -75 45
-240 132 -319 l39 -35 -47 -38 c-26 -21 -128 -106 -227 -188 -194 -163 -250
-203 -391 -283 -164 -93 -312 -150 -354 -137 -71 23 -37 148 94 340 67 98 282
325 410 434 102 86 333 261 345 261 5 0 4 -15 -1 -35z m-1773 -113 c1 -67 5
-85 34 -141 18 -35 55 -88 82 -116 l49 -52 -201 -169 c-249 -209 -338 -273
-493 -357 -206 -112 -321 -144 -347 -96 -27 52 24 181 132 334 82 115 329 364
484 487 118 93 245 187 255 188 3 0 5 -35 5 -78z m3828 -326 c103 -46 103
-112 1 -233 -24 -28 -67 -70 -95 -94 l-51 -43 6 41 c7 36 4 43 -23 65 -101 85
-583 134 -1525 154 l-320 7 37 31 38 32 642 23 c353 13 716 27 807 31 256 12
438 6 483 -14z m-2768 -96 c-17 -19 -32 -20 -249 -21 -127 -1 -338 -4 -469 -8
-156 -4 -236 -3 -234 4 2 6 37 13 78 17 83 9 517 24 743 26 149 2 149 2 131
-18z m-1759 -49 c-7 -11 -98 -17 -601 -36 -696 -28 -2250 -110 -2835 -151 -93
-6 -94 0 -10 38 35 15 79 22 195 29 314 18 1506 70 2145 94 234 9 515 20 625
24 292 12 487 12 481 2z m3604 -21 c384 -17 600 -42 708 -82 61 -23 74 -41 65
-93 -7 -44 -22 -56 -293 -250 -427 -304 -1501 -1024 -2089 -1401 -146 -93
-315 -201 -375 -240 -61 -39 -112 -70 -114 -69 -1 1 13 29 32 61 109 184 130
380 57 529 -27 54 -122 163 -164 186 -8 5 -288 54 -623 109 -335 56 -744 126
-909 156 -497 91 -1413 254 -1424 254 -17 0 -13 17 12 56 19 30 26 34 52 29
17 -3 154 -25 305 -50 930 -153 1195 -195 1203 -192 6 2 -113 24 -264 49
-1044 176 -1485 252 -1491 257 -5 5 592 512 674 573 18 12 53 17 148 21 l124
5 -99 -97 c-55 -53 -156 -150 -225 -216 -135 -128 -106 -105 184 148 l190 165
100 6 c170 10 541 23 545 20 2 -2 -10 -30 -28 -61 -67 -120 -103 -208 -108
-263 -5 -50 -3 -57 21 -79 23 -21 32 -23 88 -19 174 15 483 174 702 363 49 42
97 80 105 84 9 5 223 14 476 20 253 7 472 13 488 15 15 1 27 -1 27 -4 0 -4
-21 -44 -46 -88 -48 -84 -93 -201 -94 -239 0 -39 22 -72 56 -83 125 -42 546
165 794 389 l45 40 460 0 c253 1 561 -4 685 -9z m-4757 -178 c-43 -37 -193
-167 -334 -289 l-257 -222 -118 20 c-66 11 -127 23 -137 27 -14 6 20 41 180
182 109 96 239 212 289 257 l92 82 83 4 c46 1 128 4 182 5 l97 2 -77 -68z
m-345 50 c-3 -7 -131 -128 -423 -399 l-120 -111 -405 69 c-223 38 -589 101
-814 139 -225 39 -412 72 -414 75 -9 9 100 125 122 129 11 3 217 14 456 25
239 12 622 30 850 41 451 22 730 36 743 39 5 0 7 -2 5 -7z m-1789 -328 c223
-37 408 -68 410 -70 6 -6 -40 -64 -52 -64 -28 -1 -813 133 -820 139 -9 9 30
61 45 61 6 0 193 -30 417 -66z m844 -139 c186 -30 347 -55 358 -55 27 0 23
-10 -21 -48 l-38 -32 -348 60 c-192 33 -359 63 -372 65 l-22 5 27 35 c22 28
33 34 53 30 14 -2 177 -29 363 -60z m7747 -410 c-39 -192 -74 -353 -78 -357
-7 -7 -152 -59 -152 -55 1 28 112 643 117 648 22 22 178 125 181 119 1 -3 -29
-163 -68 -355z m-7213 324 c81 -13 132 -26 130 -32 -2 -6 -19 -24 -39 -39
l-35 -29 -129 22 c-71 13 -131 24 -133 26 -5 3 60 73 67 73 3 0 65 -10 139
-21z m276 -46 c53 -9 97 -20 97 -25 0 -5 -10 -24 -22 -43 -17 -26 -28 -34 -42
-31 -11 3 -66 13 -123 22 -57 9 -103 20 -103 23 1 6 82 70 90 71 3 0 49 -7
103 -17z m6718 -230 c-11 -60 -36 -195 -56 -302 -19 -107 -36 -195 -37 -196
-2 -1 -39 -21 -83 -43 -163 -84 -345 -247 -345 -308 0 -52 65 -83 175 -85 122
-1 124 1 -251 -233 -192 -120 -353 -223 -359 -229 -11 -12 -12 -12 255 146
567 334 542 322 523 247 -8 -29 -59 -63 -563 -380 -305 -191 -558 -346 -562
-343 -5 2 -8 0 -8 -5 0 -8 -94 -72 -105 -72 -2 0 -46 70 -97 156 -51 86 -110
176 -132 201 -68 78 -182 119 -359 131 l-99 7 68 49 c208 151 478 336 794 544
429 283 959 638 1130 755 69 47 126 82 128 77 2 -5 -6 -58 -17 -117z m324
-445 c17 -79 92 -185 159 -223 15 -8 0 -18 -81 -52 -137 -58 -286 -108 -438
-149 -269 -73 -496 -53 -446 39 38 67 268 208 473 288 84 33 189 75 233 93 44
19 83 34 87 35 3 1 10 -14 13 -31z m-3825 -327 l0 -47 -102 -74 c-285 -205
-1486 -1050 -1493 -1050 -5 0 -25 70 -25 86 0 5 57 50 128 99 163 114 1361
960 1427 1007 27 20 53 34 57 32 5 -3 8 -27 8 -53z m3550 -143 c-1 -28 -60
-302 -66 -308 -10 -9 -136 -61 -140 -57 -5 5 58 332 65 340 10 10 141 33 141
25z m-244 -185 c-3 -10 -8 -38 -11 -63 l-7 -46 -264 -173 c-145 -96 -264 -176
-264 -178 0 -3 15 4 33 15 274 167 482 291 484 288 2 -1 0 -17 -3 -34 -5 -25
-22 -41 -87 -84 -153 -100 -257 -205 -257 -258 0 -53 49 -76 180 -86 49 -4 90
-10 90 -15 0 -4 -14 -92 -31 -196 -16 -103 -57 -359 -89 -567 -32 -208 -62
-382 -67 -386 -18 -17 -149 -68 -155 -61 -23 22 -646 1197 -639 1204 13 13
1075 656 1084 656 5 1 6 -7 3 -16z m474 -114 c0 -28 46 -120 81 -163 16 -19
47 -43 69 -52 40 -18 40 -18 18 -31 -54 -29 -332 -134 -444 -167 -175 -50
-267 -67 -369 -69 -99 -1 -160 14 -175 44 -21 39 105 142 303 249 40 22 153
70 252 109 99 38 196 76 215 85 46 20 50 20 50 -5z m-6259 -165 c20 -25 147
-126 214 -171 163 -110 351 -183 470 -183 26 0 45 -4 43 -9 -1 -5 -172 -141
-377 -303 l-375 -295 -60 11 -61 11 -58 140 c-32 77 -95 225 -138 329 -44 103
-79 189 -77 191 30 26 393 295 398 295 4 0 14 -7 21 -16z m-375 -459 c36 -83
96 -221 135 -308 38 -86 69 -160 69 -163 0 -3 -10 -4 -22 -2 -28 4 -37 21
-174 354 -96 232 -111 281 -82 272 5 -2 38 -71 74 -153z m19 -176 c99 -228
120 -284 106 -286 -9 -2 -43 3 -75 10 l-60 12 -68 175 c-37 96 -80 208 -95
249 l-27 74 40 33 c21 18 43 29 47 25 5 -5 64 -136 132 -292z m6225 289 c0
-17 -114 -559 -165 -783 -24 -109 -54 -217 -66 -241 -19 -41 -101 -124 -121
-124 -5 0 -7 8 -4 18 5 15 193 972 213 1082 8 41 11 46 43 51 60 11 100 10
100 -3z m-1082 -227 c56 -110 102 -203 102 -208 0 -10 -90 -56 -97 -49 -16 16
-222 390 -217 395 13 13 90 60 99 60 6 0 56 -89 113 -198z m-6015 -256 c227
-35 339 -53 342 -57 2 -2 -54 -40 -123 -84 l-127 -81 -119 44 c-65 24 -120 42
-123 40 -2 -2 46 -24 107 -48 60 -24 110 -46 110 -49 0 -4 -69 -48 -92 -58 -7
-3 -346 125 -358 135 -2 2 36 44 86 94 59 58 99 89 113 89 12 0 95 -11 184
-25z m6245 -194 c62 -120 112 -222 112 -228 0 -9 -70 -47 -74 -41 -22 32 -246
431 -246 439 0 8 73 48 91 49 3 0 56 -98 117 -219z m-5721 110 c25 -7 15 -15
-113 -96 -76 -48 -146 -90 -154 -92 -22 -6 -134 37 -123 47 4 5 67 43 138 85
126 73 132 76 178 69 27 -3 60 -9 74 -13z m113 -385 c206 -87 376 -159 378
-161 2 -1 -17 -19 -41 -39 l-45 -37 -143 64 c-79 35 -255 110 -391 168 -137
57 -248 106 -248 109 0 9 95 60 105 56 6 -2 179 -74 385 -160z m5817 -131 c66
-131 76 -157 63 -165 -8 -6 -26 -9 -40 -8 -20 3 -37 27 -102 143 -43 77 -78
143 -78 146 0 5 59 37 72 38 4 1 42 -69 85 -154z m-4652 -202 c6 -68 4 -88 -6
-94 -8 -4 -70 -46 -139 -93 -118 -81 -126 -84 -142 -68 -41 41 -177 227 -170
233 4 3 45 14 92 24 47 9 141 32 210 50 69 18 130 34 136 34 7 1 14 -31 19
-86z m-426 -159 c67 -70 121 -130 121 -133 0 -4 -14 -15 -30 -25 l-31 -17
-149 141 c-83 77 -144 143 -137 145 6 2 28 6 47 8 19 2 40 5 47 5 6 1 66 -55
132 -124z m441 -9 l0 -44 -107 -77 -108 -76 -28 32 c-15 17 -27 36 -25 41 3 9
248 167 261 168 4 1 7 -19 7 -44z m13 -107 c3 -13 9 -55 12 -94 10 -101 -5
-126 -100 -170 -41 -19 -78 -34 -83 -34 -5 0 -37 31 -71 69 l-61 70 29 20 c39
28 44 27 80 -14 37 -42 42 -36 6 7 -14 16 -25 33 -25 38 0 8 188 129 201 130
4 0 9 -10 12 -22z"/>
</g>
</svg>
