<?xml version="1.0" standalone="no"?>
<!DOCTYPE svg PUBLIC "-//W3C//DTD SVG 20010904//EN"
 "http://www.w3.org/TR/2001/REC-SVG-20010904/DTD/svg10.dtd">
<svg version="1.0" xmlns="http://www.w3.org/2000/svg"
 width="1500.000000pt" height="1500.000000pt" viewBox="0 0 1500.000000 1500.000000"
 preserveAspectRatio="xMidYMid meet">
<metadata>
Created by potrace 1.16, written by Peter Selinger 2001-2019
</metadata>
<g transform="translate(0.000000,1500.000000) scale(0.100000,-0.100000)"
fill="none" stroke="#000000">
<path d="M3442 10880 c-227 -33 -377 -282 -297 -492 5 -12 -3 -17 -31 -23
-155 -29 -310 -208 -488 -565 -131 -264 -282 -670 -389 -1045 -182 -640 -204
-733 -231 -960 -8 -66 -46 -292 -85 -501 -39 -210 -71 -384 -71 -388 0 -3 -49
-6 -109 -6 -86 0 -113 -3 -125 -16 -24 -23 -24 -365 0 -388 12 -13 38 -16 120
-16 l105 0 -3 -42 -3 -43 -152 -3 -153 -3 0 -114 0 -114 153 -3 152 -3 7 -130
c13 -258 80 -423 240 -584 106 -108 257 -193 409 -231 24 -6 130 -14 235 -17
l191 -6 32 29 c26 24 35 43 47 104 23 112 86 264 152 365 340 526 1038 661
1565 303 80 -54 213 -186 264 -263 80 -119 146 -272 173 -400 16 -75 28 -100
59 -118 27 -16 169 -17 2031 -17 l2002 0 34 34 c19 19 34 43 34 54 0 43 53
202 100 298 57 118 144 238 231 318 540 500 1427 338 1744 -318 45 -92 95
-248 95 -293 0 -15 14 -39 34 -59 l34 -34 434 0 c246 0 461 5 498 10 202 32
400 146 529 305 127 156 191 353 191 587 l0 68 105 0 105 0 0 115 0 115 -104
0 c-77 0 -105 3 -109 13 -3 7 -4 45 -3 83 l1 69 99 3 c55 1 106 8 113 14 18
15 19 428 1 446 -8 8 -48 12 -115 12 l-104 0 3 73 3 72 55 6 c65 7 104 26 146
71 49 51 67 96 68 163 0 67 -23 122 -71 166 -55 52 -90 63 -212 69 l-114 5
-17 65 c-30 116 -94 216 -173 272 -16 12 -59 33 -94 48 l-65 26 -43 164 c-23
91 -68 262 -99 380 -140 536 -319 953 -544 1270 -26 36 -67 97 -93 135 -55 84
-162 187 -246 236 -34 20 -100 49 -148 65 -66 22 -84 32 -79 44 61 139 32 290
-77 405 -60 64 -130 100 -220 114 -76 12 -7643 13 -7727 1z m7754 -231 c101
-48 109 -193 15 -256 l-34 -23 -3866 0 c-3840 0 -3866 0 -3899 20 -112 68 -89
232 37 270 14 5 1754 9 3865 9 l3840 1 42 -21z m199 -514 c130 -28 268 -109
328 -192 274 -376 399 -615 537 -1031 89 -265 146 -499 200 -818 17 -96 36
-183 42 -194 15 -23 74 -54 92 -47 25 10 116 -13 155 -38 28 -19 50 -46 71
-87 16 -33 27 -64 24 -69 -3 -5 -38 -9 -78 -9 -58 0 -82 -5 -124 -26 -127 -63
-168 -232 -85 -343 59 -78 109 -100 224 -101 l87 0 7 -192 c4 -106 5 -283 4
-393 l-4 -200 -62 -3 -63 -3 0 -114 0 -115 41 0 c37 0 40 -2 34 -22 -28 -93
-154 -234 -261 -290 -134 -70 -154 -73 -577 -73 l-378 0 -34 102 c-56 167
-130 300 -239 428 -89 105 -173 180 -284 252 -510 335 -1185 264 -1617 -171
-151 -152 -255 -323 -321 -528 l-28 -88 -1841 0 -1841 0 -28 89 c-81 263 -262
511 -491 674 -100 71 -293 162 -406 191 -134 34 -283 50 -404 42 -544 -37
-989 -378 -1160 -889 l-34 -102 -91 -3 c-110 -3 -185 13 -290 65 -96 46 -213
160 -259 250 -17 34 -31 65 -31 68 0 3 16 5 35 5 l35 0 0 115 0 114 -57 3 -58
3 0 430 1 430 46 235 c47 238 84 446 113 645 113 760 546 1851 796 2004 24 15
386 16 4115 14 3641 -2 4097 -4 4159 -18z m1955 -3340 l0 -155 -75 0 -75 0 0
155 0 155 75 0 75 0 0 -155z m-11512 -102 l-4 -138 -77 -3 -77 -3 0 141 0 140
81 0 81 0 -4 -137z"/>
<path d="M8663 9965 c-29 -8 -70 -23 -91 -34 -38 -19 -101 -81 -121 -119 -9
-17 -15 -14 -70 39 -49 48 -71 61 -128 79 -68 20 -76 20 -1423 18 -1268 -3
-1358 -4 -1399 -21 -62 -24 -125 -74 -157 -125 l-28 -44 -20 29 c-35 47 -68
75 -126 102 l-55 26 -895 0 c-725 0 -902 -3 -933 -13 -117 -42 -256 -174 -315
-299 l-27 -58 0 -950 c0 -891 1 -954 18 -1015 55 -194 198 -338 385 -385 44
-12 115 -14 317 -12 282 2 343 -4 530 -53 414 -109 766 -362 1019 -733 31 -45
45 -57 65 -57 14 0 48 -11 75 -25 27 -14 57 -25 65 -25 9 0 41 -10 71 -23 l55
-22 1375 0 1375 0 55 26 c64 30 121 76 149 123 l20 32 58 -56 c87 -84 120 -92
385 -98 l217 -4 26 28 c15 16 54 67 87 114 162 228 422 416 697 504 216 69
211 69 1070 72 852 4 822 2 945 67 121 64 222 199 261 347 16 58 17 133 17
723 l-1 657 -59 128 c-210 445 -437 910 -463 947 -32 45 -62 70 -119 101 -34
18 -79 19 -1445 21 -1192 2 -1418 0 -1462 -12z m2854 -70 c71 -21 123 -81 186
-214 27 -58 134 -283 238 -498 184 -385 216 -460 205 -490 -3 -8 -6 -288 -6
-623 -1 -660 0 -651 -57 -764 -53 -105 -178 -205 -293 -236 -33 -9 -225 -12
-745 -11 -760 2 -856 -2 -1040 -49 -349 -88 -660 -298 -862 -583 l-61 -87
-199 3 c-116 2 -213 8 -234 15 -51 17 -123 84 -145 134 -18 41 -19 106 -22
1607 -3 1752 -7 1633 69 1716 44 48 87 72 152 84 23 5 654 9 1403 10 1183 1
1367 -1 1411 -14z m-3262 -43 c66 -30 102 -66 131 -127 l24 -50 0 -1570 c0
-1051 -4 -1582 -10 -1607 -17 -60 -69 -120 -130 -151 l-56 -27 -1366 -1
c-1541 0 -1412 -7 -1491 81 -24 26 -48 65 -54 86 -8 28 -12 480 -13 1589 -1
853 -2 1564 -1 1581 3 105 92 192 220 214 25 4 642 7 1371 6 l1325 -1 50 -23z
m-3180 -29 c22 -12 54 -36 72 -55 67 -70 62 58 63 -1704 1 -878 -3 -1601 -8
-1606 -4 -4 -23 14 -43 41 -108 155 -303 342 -477 458 -196 129 -440 229 -675
275 -99 19 -146 22 -412 22 l-301 1 -79 39 c-132 65 -225 179 -255 312 -8 34
-11 339 -11 988 l0 939 27 54 c49 101 201 230 298 254 17 4 420 6 896 6 l865
-2 40 -22z"/>
<path d="M8852 9799 c-110 -21 -224 -114 -279 -227 l-28 -57 -6 -455 c-3 -250
-2 -491 2 -535 19 -177 129 -305 304 -351 41 -11 313 -14 1450 -14 1524 0
1451 -3 1566 56 71 36 134 97 165 160 22 46 26 64 22 121 -4 76 6 54 -297 683
-94 195 -184 380 -201 412 -44 82 -112 153 -178 185 l-57 28 -1210 2 c-665 0
-1229 -3 -1253 -8z m2472 -252 c27 -29 56 -78 85 -146 24 -57 127 -275 228
-485 102 -209 190 -394 196 -409 18 -43 -7 -77 -78 -107 l-60 -25 -1355 -3
c-745 -2 -1378 0 -1406 3 -65 8 -125 46 -156 99 l-23 41 -3 433 c-2 295 0 451
8 488 14 64 48 110 105 135 38 18 97 19 1229 19 l1189 0 41 -43z"/>
<path d="M8715 7805 c-17 -16 -25 -35 -25 -60 0 -25 8 -44 25 -60 24 -25 26
-25 204 -25 172 0 181 1 205 23 40 34 43 77 11 115 l-27 32 -184 0 c-183 0
-185 0 -209 -25z"/>
<path d="M5690 9767 c-160 -44 -272 -164 -301 -321 -14 -80 -7 -955 10 -1014
41 -152 135 -246 287 -287 53 -15 175 -17 1172 -15 1205 1 1172 0 1267 55 61
36 132 116 162 183 35 78 40 182 33 693 l-5 415 -38 76 c-45 93 -121 166 -205
200 l-57 23 -1140 2 c-879 1 -1150 -1 -1185 -10z m2320 -227 c45 -23 73 -60
89 -115 7 -26 11 -190 11 -483 0 -376 -2 -448 -15 -479 -20 -48 -41 -71 -87
-94 -36 -18 -80 -19 -1146 -20 -1208 0 -1149 -3 -1211 54 -54 50 -55 53 -52
552 2 416 4 464 20 500 20 44 41 66 86 89 27 14 154 16 1148 16 1094 0 1119 0
1157 -20z"/>
<path d="M7714 7806 c-21 -18 -28 -32 -28 -61 0 -29 7 -43 28 -61 26 -23 32
-24 207 -24 178 0 180 0 204 25 17 16 25 35 25 60 0 25 -8 44 -25 60 -24 25
-26 25 -204 25 -175 0 -181 -1 -207 -24z"/>
<path d="M3320 9766 c-121 -34 -213 -109 -264 -216 l-31 -65 -3 -495 c-2 -356
0 -510 9 -550 31 -148 136 -256 284 -294 51 -14 158 -16 755 -16 597 0 704 2
755 16 156 40 268 164 294 325 14 84 14 873 0 959 -28 178 -150 308 -318 340
-83 16 -1423 12 -1481 -4z m1485 -225 c22 -10 48 -28 58 -39 44 -49 46 -74 46
-552 1 -423 -1 -458 -18 -496 -19 -42 -68 -86 -109 -99 -12 -3 -332 -7 -710
-7 -619 0 -691 1 -727 16 -52 22 -74 43 -96 91 -17 37 -19 74 -19 480 0 262 5
458 11 484 13 57 42 97 87 121 36 18 64 19 737 19 658 1 702 -1 740 -18z"/>
<path d="M3886 6005 c-104 -22 -162 -43 -267 -97 -236 -122 -405 -337 -475
-603 -22 -84 -26 -122 -27 -235 0 -273 85 -483 273 -671 186 -187 414 -281
680 -281 372 -1 686 197 850 537 73 149 94 240 94 410 1 148 -13 226 -60 348
-110 280 -356 502 -643 579 -100 27 -326 34 -425 13z m374 -226 c256 -71 455
-277 521 -540 28 -109 23 -289 -11 -389 -138 -408 -552 -615 -953 -475 -277
96 -468 353 -484 651 -14 261 94 489 304 640 182 132 409 173 623 113z"/>
<path d="M3958 5511 c-316 -104 -412 -499 -177 -730 169 -166 434 -171 604
-10 67 63 108 132 130 219 53 204 -66 434 -265 512 -78 30 -215 35 -292 9z
m264 -178 c95 -54 158 -171 144 -269 -12 -93 -90 -196 -175 -231 -20 -9 -65
-16 -101 -16 -82 -1 -141 25 -203 92 -142 152 -74 384 133 452 50 17 146 3
202 -28z"/>
<path d="M10170 6000 c-103 -22 -144 -36 -244 -86 -230 -114 -413 -345 -482
-609 -33 -125 -38 -325 -11 -444 79 -344 346 -622 683 -711 171 -45 346 -45
511 0 317 86 574 353 664 690 31 115 33 329 5 440 -86 336 -322 593 -642 699
-136 45 -334 54 -484 21z m388 -220 c239 -67 427 -246 508 -485 39 -114 45
-277 15 -396 -108 -435 -543 -671 -964 -524 -168 59 -320 189 -400 344 -55
105 -78 192 -84 316 -8 172 35 325 131 459 180 253 500 368 794 286z"/>
<path d="M10258 5511 c-314 -101 -411 -497 -178 -730 95 -95 261 -148 385
-123 187 38 329 186 358 373 25 160 -52 333 -187 425 -105 71 -257 93 -378 55z
m243 -165 c102 -48 164 -146 163 -256 0 -82 -28 -142 -90 -200 -59 -54 -105
-73 -184 -73 -82 -1 -141 25 -203 92 -142 152 -73 385 133 452 37 13 142 4
181 -15z"/>
</g>
</svg>
