<?xml version="1.0" standalone="no"?>
<!DOCTYPE svg PUBLIC "-//W3C//DTD SVG 20010904//EN"
 "http://www.w3.org/TR/2001/REC-SVG-20010904/DTD/svg10.dtd">
<svg version="1.0" xmlns="http://www.w3.org/2000/svg"
 width="1500.000000pt" height="1500.000000pt" viewBox="0 0 1500.000000 1500.000000"
 preserveAspectRatio="xMidYMid meet">
<metadata>
Created by potrace 1.16, written by Peter Selinger 2001-2019
</metadata>
<g transform="translate(0.000000,1500.000000) scale(0.100000,-0.100000)"
fill="#000000" stroke="none">
<path d="M4230 14003 c-206 -12 -525 -61 -738 -113 -282 -69 -570 -191 -727
-307 -162 -121 -277 -279 -305 -420 -6 -32 -15 -77 -20 -99 -10 -45 -3 -100
31 -239 39 -159 122 -296 358 -590 186 -232 202 -256 563 -885 2151 -3740
3256 -5565 4457 -7360 343 -512 507 -784 647 -1070 143 -290 229 -441 393
-687 156 -234 290 -395 448 -540 414 -379 836 -610 1260 -688 122 -23 359 -30
480 -16 366 45 685 207 948 482 278 291 452 664 532 1136 23 135 25 611 4 763
-86 619 -343 1216 -772 1790 -49 67 -94 132 -99 145 -14 36 11 59 107 100 162
69 308 146 347 183 149 142 152 480 7 777 -85 174 -191 287 -305 327 -73 25
-93 23 -287 -27 -202 -52 -298 -95 -370 -162 -57 -54 -85 -101 -109 -187 -9
-33 -21 -61 -26 -63 -10 -3 -155 216 -544 817 -519 801 -974 1522 -1975 3125
-606 970 -916 1465 -1125 1794 -107 169 -170 278 -170 295 0 23 7 27 73 47 39
11 110 32 157 46 47 14 107 37 133 51 100 54 183 180 214 325 19 89 13 294
-12 382 -41 152 -135 282 -240 335 -66 32 -153 37 -299 16 -319 -46 -453 -136
-535 -358 -6 -16 -14 -28 -18 -28 -5 0 -60 41 -123 91 -473 371 -973 618
-1488 734 -275 62 -620 93 -872 78z m485 -88 c592 -69 1183 -291 1602 -601 90
-66 313 -285 313 -306 0 -16 -40 -38 -68 -38 -9 0 -140 -25 -292 -54 -1108
-220 -1512 -296 -1569 -296 -42 0 -48 4 -111 70 -73 76 -140 114 -226 125 -55
7 -320 -25 -420 -51 -128 -32 -205 -89 -245 -179 -31 -69 -45 -246 -31 -383
25 -246 101 -410 220 -475 69 -37 127 -42 252 -22 58 9 162 25 231 35 75 11
142 26 166 39 75 38 122 112 152 240 23 96 47 148 74 163 25 13 17 24 160
-216 440 -740 495 -827 538 -859 36 -26 93 -24 214 7 55 14 173 41 261 60 325
69 384 92 384 147 0 31 -109 318 -155 409 -30 60 -39 108 -26 143 6 15 42 64
80 110 39 45 128 152 199 237 135 161 291 318 344 346 17 9 40 13 54 10 49
-13 616 -793 1072 -1477 426 -640 696 -1070 1523 -2426 678 -1112 1001 -1628
1338 -2136 217 -326 241 -366 241 -403 0 -28 -6 -36 -32 -50 -60 -31 -922
-314 -956 -314 -34 0 -64 24 -117 95 -39 51 -70 47 -390 -55 -160 -51 -319
-101 -355 -112 -164 -50 -184 -70 -162 -155 12 -42 16 -103 8 -103 -2 0 -11
-2 -18 -5 -8 -3 -50 30 -103 83 -146 143 -211 162 -400 118 -235 -54 -335 -96
-421 -177 -30 -29 -62 -72 -75 -102 -53 -116 -15 -399 80 -602 74 -159 161
-256 267 -302 52 -21 167 -21 219 1 22 9 91 30 155 46 328 83 409 150 410 338
0 132 41 179 119 136 31 -17 55 -57 206 -343 95 -178 184 -338 199 -357 22
-28 34 -34 65 -34 62 0 789 217 831 248 45 34 40 63 -64 357 -59 165 -60 204
-9 306 63 129 249 294 430 383 89 43 286 108 333 110 33 0 44 -7 132 -99 545
-568 962 -1278 1134 -1934 112 -422 122 -794 33 -1140 -79 -306 -243 -576
-514 -846 -154 -154 -276 -244 -440 -325 -145 -71 -257 -105 -424 -127 -194
-25 -397 -1 -621 73 -591 196 -1249 787 -1746 1569 -28 44 -380 631 -781 1305
-971 1630 -1211 2032 -1528 2560 -1227 2040 -2079 3410 -3037 4880 -123 190
-371 565 -601 911 -200 301 -218 332 -242 413 -30 106 -34 241 -9 327 91 310
467 526 1119 643 394 71 758 93 1030 61z m2791 -510 c109 -31 168 -106 219
-280 102 -349 -38 -653 -319 -691 -65 -9 -69 2 -55 140 29 295 -44 558 -203
733 -21 24 -38 47 -38 52 0 21 39 37 129 52 105 17 189 15 267 -6z m-444 -124
c107 -68 205 -288 223 -501 12 -148 -20 -307 -72 -353 -54 -48 -153 -22 -218
57 -71 87 -63 123 31 153 95 30 122 86 112 233 -6 81 -41 151 -85 169 -16 6
-66 10 -114 9 -109 -4 -123 6 -117 74 9 91 93 188 163 188 17 0 51 -13 77 -29z
m-49 -322 c14 -6 30 -23 37 -37 15 -35 14 -145 -2 -171 -26 -42 17 -33 -1233
-277 -126 -25 -261 -51 -300 -59 -243 -48 -717 -135 -739 -135 -32 0 -52 35
-65 121 -15 88 -14 95 10 118 25 23 82 37 384 96 127 24 460 89 740 144 281
55 623 121 760 146 138 25 268 50 290 54 58 13 91 12 118 0z m-2566 -252 c120
-62 177 -192 189 -432 12 -216 -26 -350 -113 -405 -45 -29 -105 -45 -271 -75
-137 -25 -135 -30 -102 240 24 190 -17 378 -120 557 -46 80 -50 105 -17 113
104 26 175 34 272 32 97 -3 116 -6 162 -30z m-518 -112 c79 -72 131 -223 149
-434 18 -210 -39 -383 -125 -383 -59 0 -140 122 -189 287 -24 79 -27 108 -28
240 -1 169 13 230 66 291 40 46 75 45 127 -1z m2611 -80 c10 -12 3 -26 -42
-82 -30 -38 -100 -129 -155 -203 -211 -284 -326 -363 -528 -364 -92 -1 -105 2
-165 30 -36 17 -96 58 -135 90 -38 33 -104 85 -145 116 -41 31 -97 79 -124
106 l-48 50 23 15 c13 8 256 61 539 116 283 56 556 110 605 120 113 24 159 25
175 6z m-1455 -419 c17 -26 77 -120 135 -209 174 -267 235 -367 290 -476 52
-103 52 -104 36 -138 -9 -18 -27 -39 -41 -45 -23 -10 -29 -9 -49 13 -39 39
-507 801 -520 846 -9 28 9 62 37 72 36 14 79 -10 112 -63z m159 12 c33 -23
117 -87 186 -143 69 -55 153 -118 186 -139 45 -27 66 -48 79 -76 17 -38 17
-42 -4 -127 -42 -166 -71 -203 -118 -150 -17 19 -93 138 -286 447 -26 41 -61
93 -77 115 -29 38 -52 115 -35 115 4 0 35 -19 69 -42z m761 -338 c10 -20 15
-59 15 -127 0 -121 19 -199 67 -277 32 -53 34 -60 20 -71 -9 -6 -114 -33 -234
-60 -120 -26 -223 -50 -230 -52 -6 -3 -16 4 -22 15 -8 16 -2 36 30 103 49 100
113 284 130 369 17 85 39 108 114 119 92 13 93 13 110 -19z m-1855 -1510 c329
-538 518 -847 1517 -2490 750 -1233 1063 -1746 1283 -2105 84 -137 213 -347
285 -465 367 -600 809 -1313 1267 -2045 492 -787 604 -963 666 -1045 60 -81
566 -591 724 -730 53 -47 94 -87 93 -89 -5 -5 -181 96 -262 150 -138 93 -279
213 -433 368 -282 284 -446 531 -747 1126 -185 367 -103 232 -1128 1860 -1919
3047 -2591 4163 -3435 5700 -171 311 -155 282 -143 270 6 -5 147 -233 313
-505z m7705 -3651 c86 -40 183 -172 258 -349 109 -257 101 -487 -21 -613 -48
-50 -160 -117 -195 -117 -21 0 -27 5 -27 23 -2 261 -8 324 -34 412 -55 180
-155 355 -287 499 -38 42 -69 80 -69 85 0 18 34 35 113 57 108 30 203 31 262
3z m-452 -128 c44 -17 156 -132 216 -221 89 -133 156 -312 181 -487 28 -190
-61 -329 -210 -328 -91 1 -164 55 -219 162 -28 56 -17 83 43 112 25 11 49 21
54 21 4 0 24 14 44 30 104 86 87 302 -31 385 -38 27 -50 30 -114 29 -40 -1
-97 -5 -128 -9 -45 -6 -58 -4 -72 10 -38 38 -7 177 56 249 50 58 110 73 180
47z m10 -375 c47 -20 74 -55 87 -110 12 -53 5 -109 -16 -143 -20 -32 -66 -53
-251 -116 -418 -143 -2078 -667 -2114 -667 -35 0 -48 18 -88 128 -36 96 -38
123 -13 144 26 23 502 185 1657 564 733 240 679 225 738 200z m-1589 -299 c31
-25 39 -69 15 -92 -8 -7 -135 -52 -283 -100 l-268 -87 -24 23 c-32 30 -32 73
0 94 23 15 499 183 521 184 6 1 23 -9 39 -22z m-1127 -253 c119 -57 228 -228
282 -445 34 -134 55 -287 47 -333 -15 -80 -121 -151 -290 -195 -145 -38 -166
-26 -166 94 0 96 -17 225 -40 313 -37 137 -104 248 -231 389 -96 105 -85 121
113 172 179 46 196 47 285 5z m1859 -129 c4 -10 -12 -35 -43 -68 -51 -54 -138
-179 -211 -303 -23 -39 -56 -84 -73 -100 -27 -26 -37 -29 -93 -29 -70 0 -107
16 -259 113 -49 30 -112 63 -140 73 -98 33 -90 37 320 172 551 180 491 163
499 142z m-2339 -70 c60 -40 147 -157 194 -263 62 -137 107 -356 88 -426 -24
-89 -76 -156 -122 -156 -119 0 -320 330 -356 583 -11 80 2 198 27 241 32 54
104 63 169 21z m1212 -322 c36 -34 279 -456 310 -541 25 -67 21 -89 -25 -118
-48 -32 -61 -14 -210 268 -199 377 -188 353 -174 378 10 18 40 37 62 39 4 1
21 -11 37 -26z m265 7 c122 -31 233 -100 282 -176 34 -51 -84 -324 -141 -324
-22 0 -51 36 -114 145 -103 178 -171 312 -171 338 0 42 32 46 144 17z m698
-255 c48 -119 59 -175 34 -175 -28 0 -55 19 -71 51 -24 46 -53 194 -43 214 19
33 41 9 80 -90z m-172 39 c9 -11 24 -50 33 -87 9 -37 33 -101 54 -142 45 -90
43 -93 -67 -125 -41 -12 -138 -41 -216 -66 -77 -24 -148 -44 -157 -44 -28 0
-20 27 32 103 58 87 110 189 141 277 30 87 60 114 118 107 25 -3 52 -13 62
-23z"/>
</g>
</svg>
