<?xml version="1.0" standalone="no"?>
<!DOCTYPE svg PUBLIC "-//W3C//DTD SVG 20010904//EN"
 "http://www.w3.org/TR/2001/REC-SVG-20010904/DTD/svg10.dtd">
<svg version="1.0" xmlns="http://www.w3.org/2000/svg"
 width="1500.000000pt" height="1500.000000pt" viewBox="0 0 1500.000000 1500.000000"
 preserveAspectRatio="xMidYMid meet">
<metadata>
Created by potrace 1.16, written by Peter Selinger 2001-2019
</metadata>
<g transform="translate(0.000000,1500.000000) scale(0.100000,-0.100000)"
fill="#000000" stroke="none">
<path d="M1398 14993 c739 -2 1945 -2 2680 0 735 1 131 2 -1343 2 -1474 0
-2076 -1 -1337 -2z"/>
<path d="M6972 14993 c753 -2 1983 -2 2735 0 753 1 137 2 -1367 2 -1504 0
-2120 -1 -1368 -2z"/>
<path d="M11638 14993 c243 -2 641 -2 885 0 243 1 44 2 -443 2 -487 0 -686 -1
-442 -2z"/>
<path d="M13618 14993 c248 -2 656 -2 905 0 248 1 45 2 -453 2 -498 0 -701 -1
-452 -2z"/>
<path d="M5 12290 c0 -1482 1 -2089 2 -1347 2 741 2 1953 0 2695 -1 741 -2
134 -2 -1348z"/>
<path d="M14995 14110 c0 -481 1 -678 2 -437 2 240 2 634 0 875 -1 240 -2 43
-2 -438z"/>
<path d="M7445 14564 c-16 -2 -70 -9 -120 -15 -203 -26 -423 -93 -630 -194
-480 -233 -833 -586 -1071 -1070 -386 -787 -271 -1610 350 -2490 151 -215 319
-418 766 -930 385 -440 392 -450 455 -694 64 -247 105 -446 93 -450 -22 -7
-58 -50 -58 -69 0 -10 9 -58 19 -107 11 -50 36 -189 57 -310 32 -184 42 -224
61 -242 22 -23 26 -23 280 -23 275 0 287 2 313 51 6 11 27 111 46 222 19 111
41 237 49 281 23 119 20 150 -13 178 l-29 24 39 169 c21 94 52 229 68 300 17
72 40 150 53 175 32 61 185 250 527 650 642 751 723 860 916 1234 139 271 220
494 266 734 31 159 33 532 4 687 -66 360 -226 727 -435 1000 -290 379 -745
688 -1206 820 -179 51 -302 67 -545 70 -124 2 -238 1 -255 -1z m-22 -171
c-123 -193 -222 -487 -308 -918 -73 -366 -107 -865 -87 -1272 28 -553 144
-1293 317 -2018 44 -187 105 -467 105 -487 0 -14 -8 -18 -40 -18 l-39 0 -121
240 c-422 841 -679 1524 -765 2038 -40 244 -48 349 -42 582 6 222 23 384 58
566 98 510 360 960 699 1203 58 42 234 140 252 141 4 0 -9 -26 -29 -57z m567
-10 c430 -235 742 -752 842 -1395 19 -128 22 -182 22 -513 1 -308 -2 -388 -17
-479 -76 -469 -277 -1034 -635 -1781 -220 -460 -253 -525 -271 -535 -28 -15
-83 -2 -77 19 9 26 103 439 151 656 82 371 221 1176 249 1435 69 642 40 1220
-90 1829 -64 297 -125 472 -241 688 -37 71 -70 132 -72 136 -4 11 61 -17 139
-60z m-410 17 c11 -21 13 -4434 1 -4600 l-7 -95 -31 100 c-37 113 -57 199
-147 627 -189 888 -258 1380 -272 1938 -17 640 85 1256 291 1750 47 113 138
300 146 300 5 0 13 -9 19 -20z m291 -235 c133 -270 205 -522 248 -875 123
-1000 57 -1731 -296 -3260 -63 -273 -80 -331 -104 -345 -9 -6 -10 2467 -1
4204 l3 534 35 -49 c20 -27 71 -121 115 -209z m-898 88 c-166 -163 -270 -311
-378 -536 -157 -327 -236 -695 -251 -1167 -15 -469 76 -928 308 -1545 127
-337 315 -758 499 -1113 54 -106 99 -197 99 -202 0 -6 -9 -10 -19 -10 -23 0
-38 21 -286 390 -339 505 -694 1090 -810 1335 -254 538 -302 1112 -139 1658
140 471 465 913 869 1184 81 54 187 113 204 113 8 0 -35 -48 -96 -107z m1468
-4 c513 -344 869 -921 953 -1542 86 -629 -73 -1148 -612 -2002 -192 -303 -674
-1023 -689 -1029 -9 -4 -20 -3 -25 2 -5 5 61 149 151 331 255 515 416 894 540
1271 139 425 181 633 203 998 25 427 -23 828 -143 1187 -108 323 -260 574
-498 818 l-76 79 55 -27 c30 -16 94 -54 141 -86z m-1975 -199 c-202 -211 -315
-369 -426 -592 -215 -433 -294 -1007 -204 -1473 54 -278 190 -625 377 -960
105 -190 160 -276 510 -803 198 -298 357 -545 354 -548 -10 -10 -21 1 -184
183 -652 727 -891 1038 -1096 1423 -246 464 -342 965 -267 1395 48 274 172
572 345 830 106 157 238 307 388 439 72 62 284 216 299 216 6 0 -37 -50 -96
-110z m2499 -44 c102 -77 279 -248 362 -351 227 -281 399 -654 457 -992 50
-285 18 -649 -83 -951 -132 -395 -388 -810 -808 -1312 -273 -326 -655 -749
-661 -732 -1 5 65 110 149 233 467 691 697 1064 848 1381 294 613 355 1065
225 1647 -94 420 -295 793 -595 1105 -60 63 -109 117 -109 120 0 8 91 -55 215
-148z m-1365 -5001 l0 -285 -100 0 c-95 0 -100 1 -105 23 -3 12 -30 132 -60
267 -31 135 -58 253 -61 263 -5 16 7 17 160 17 l166 0 0 -285z m435 263 c-3
-13 -30 -132 -60 -265 -30 -134 -59 -252 -65 -263 -14 -26 -40 -32 -130 -28
l-75 3 -3 288 -2 287 170 0 170 0 -5 -22z m-285 -833 c0 -5 -21 -31 -47 -57
l-47 -48 -54 52 -53 53 58 52 58 52 42 -47 c23 -26 42 -51 43 -57z m-211 -109
c36 -37 42 -49 37 -70 -8 -34 -18 -33 -55 5 -62 62 -112 7 -55 -60 l27 -32
-29 -30 c-16 -16 -32 -25 -37 -20 -4 4 -11 42 -13 82 -6 74 -6 74 33 121 21
26 40 47 43 48 3 0 25 -20 49 -44z m319 13 c17 -17 34 -46 38 -65 7 -39 -4
-164 -15 -164 -4 0 -21 15 -39 33 l-32 33 30 29 c19 19 30 39 30 57 0 24 -4
28 -30 28 -27 0 -70 -32 -70 -52 0 -13 -40 11 -47 28 -6 16 72 104 92 104 6 0
25 -14 43 -31z"/>
<path d="M14995 12210 c0 -481 1 -678 2 -437 2 240 2 634 0 875 -1 240 -2 43
-2 -438z"/>
<path d="M14995 9425 c0 -1017 1 -1432 2 -922 2 511 2 1343 0 1850 -1 507 -2
90 -2 -928z"/>
<path d="M5 8480 c0 -509 1 -717 2 -462 2 254 2 670 0 925 -1 254 -2 46 -2
-463z"/>
<path d="M11600 8323 c-539 -55 -1129 -304 -1525 -645 -255 -219 -464 -483
-624 -789 -201 -383 -291 -747 -291 -1179 0 -698 225 -1282 725 -1885 167
-203 461 -494 665 -660 192 -157 202 -167 272 -274 82 -127 190 -342 252 -504
55 -142 126 -369 126 -403 0 -22 -4 -24 -48 -24 -147 0 -254 -109 -254 -257
-1 -78 25 -131 93 -194 l49 -46 0 -330 c0 -182 5 -354 10 -384 31 -162 154
-270 347 -304 113 -21 860 -21 955 0 141 30 233 97 284 208 l29 62 5 370 c5
338 9 405 29 405 15 0 84 76 103 114 50 98 11 249 -80 307 -52 33 -101 49
-152 49 -73 1 -73 2 -14 185 116 358 316 755 444 883 23 23 96 85 160 137 366
295 695 652 937 1015 234 351 371 710 439 1150 26 162 26 578 1 735 -62 393
-202 755 -414 1068 -102 151 -177 242 -323 388 -455 458 -1009 720 -1680 794
-121 13 -424 18 -520 8z m160 -2203 l0 -2021 -174 1 -175 2 -5 36 c-21 136
-51 506 -66 801 -13 259 -13 1040 0 1276 27 489 106 1118 174 1389 40 156 132
395 181 469 25 37 50 67 55 67 7 0 10 -691 10 -2020z m253 1972 c118 -155 197
-426 277 -957 73 -485 91 -725 97 -1341 6 -564 -3 -861 -42 -1349 -14 -170
-25 -318 -25 -327 0 -17 -15 -18 -180 -18 l-180 0 0 2020 c0 1111 4 2020 8
2020 4 0 25 -22 45 -48z m496 -257 c307 -373 526 -985 596 -1665 44 -428 24
-1082 -46 -1495 -29 -176 -130 -585 -149 -607 -5 -7 -389 18 -396 25 -2 1 2
36 7 77 5 41 21 230 35 420 21 277 27 441 31 836 12 1095 -67 1860 -253 2473
-24 79 -44 149 -44 155 0 15 150 -135 219 -219z m-1137 24 c-105 -365 -200
-984 -234 -1519 -15 -243 -14 -1172 1 -1400 19 -275 51 -683 61 -766 4 -44 7
-80 6 -82 -2 -1 -86 -8 -187 -16 -167 -12 -186 -12 -201 3 -24 23 -141 503
-172 702 -44 286 -51 400 -51 819 1 425 10 563 61 867 78 475 238 909 455
1237 70 106 290 348 304 334 4 -3 -16 -84 -43 -179z m-425 -35 c-272 -398
-467 -1002 -537 -1659 -18 -170 -23 -556 -11 -852 18 -474 53 -713 157 -1098
25 -92 43 -169 41 -171 -5 -5 -217 -34 -252 -34 -18 0 -38 8 -47 18 -16 19
-177 384 -232 529 -71 184 -120 385 -153 628 -13 100 -17 202 -18 440 0 325 5
382 52 610 126 615 464 1180 957 1599 49 42 91 74 93 72 2 -2 -21 -39 -50 -82z
m1913 -28 c579 -519 916 -1204 971 -1975 34 -480 -75 -1067 -288 -1549 -66
-151 -121 -252 -140 -259 -18 -7 -247 17 -264 28 -10 6 -2 57 39 236 121 527
159 892 149 1453 -6 339 -13 442 -48 675 -76 522 -274 1079 -509 1433 -27 40
-45 72 -40 70 5 -2 63 -52 130 -112z m-2369 -83 c-470 -525 -714 -1070 -793
-1768 -16 -143 -16 -540 0 -680 49 -427 173 -849 358 -1216 49 -99 51 -104 28
-113 -22 -8 -32 1 -122 113 -186 231 -357 530 -450 786 -50 136 -106 362 -129
520 -24 168 -24 535 1 695 94 603 410 1145 896 1534 99 80 247 186 258 186 3
0 -19 -26 -47 -57z m2796 -24 c622 -436 973 -1012 1058 -1739 66 -556 -87
-1166 -414 -1656 -178 -267 -291 -395 -314 -356 -3 4 24 68 60 142 360 754
455 1563 268 2300 -129 509 -384 981 -713 1323 -26 26 -43 47 -40 47 4 0 47
-28 95 -61z m-1527 -4199 l0 -430 -64 0 c-42 0 -67 5 -75 14 -19 23 -154 610
-187 814 l-5 32 166 0 165 0 0 -430z m520 411 c0 -82 -158 -798 -182 -828 -6
-8 -35 -13 -74 -13 l-64 0 0 430 0 430 160 0 c151 0 160 -1 160 -19z m405 -6
c66 -3 132 -8 146 -11 l27 -5 -58 -137 c-65 -155 -94 -215 -227 -465 -52 -97
-106 -186 -120 -197 -19 -15 -39 -20 -79 -19 -49 2 -53 3 -49 23 3 11 41 197
86 411 44 215 82 396 85 404 3 9 14 11 37 8 17 -3 86 -9 152 -12z m-1461 -17
c8 -13 26 -86 41 -163 14 -77 51 -252 81 -388 30 -137 54 -253 54 -258 0 -12
-107 -11 -130 1 -27 15 -116 169 -215 373 -85 175 -185 409 -185 433 0 14 47
18 237 22 97 2 103 1 117 -20z m-505 -175 c80 -198 183 -415 256 -538 32 -53
54 -99 51 -103 -19 -19 -82 50 -309 338 -222 282 -326 425 -316 434 5 4 170
23 219 25 l36 1 63 -157z m2478 146 c62 -7 113 -15 113 -19 0 -16 -119 -195
-210 -315 -165 -219 -378 -455 -410 -455 -5 0 18 45 50 100 120 201 223 427
315 688 5 15 2 15 142 1z m-617 -975 c41 -9 53 -39 39 -104 -6 -27 -16 -53
-22 -59 -14 -11 -230 -13 -1003 -12 l-491 1 -6 60 c-4 33 -9 71 -13 85 -6 23
-4 24 58 28 117 6 1405 7 1438 1z m-105 -371 c-43 -109 -99 -273 -130 -382
-22 -73 -45 -140 -53 -147 -19 -19 -838 -20 -863 -1 -9 7 -53 126 -98 264 -45
139 -84 259 -87 268 -5 13 63 15 616 15 588 0 622 -1 615 -17z m129 -746 c32
-22 36 -71 7 -87 -13 -7 -269 -10 -760 -10 -669 0 -741 2 -756 16 -26 27 -15
66 24 86 31 15 94 17 746 14 655 -2 715 -3 739 -19z m-1204 -357 l0 -80 -80 0
-80 0 0 80 0 80 80 0 80 0 0 -80z m360 0 l0 -80 -80 0 -80 0 0 80 0 80 80 0
80 0 0 -80z m350 0 l0 -80 -80 0 -80 0 0 80 0 80 80 0 80 0 0 -80z m365 0 l0
-75 -77 -3 c-87 -3 -81 -10 -81 83 0 81 -5 76 81 73 l77 -3 0 -75z m-1075
-350 l0 -80 -80 0 -80 0 0 80 0 80 80 0 80 0 0 -80z m360 12 c0 -40 -5 -73
-12 -80 -7 -7 -40 -12 -80 -12 l-68 0 0 80 0 80 80 0 80 0 0 -68z m350 -12 l0
-80 -80 0 -80 0 0 80 0 80 80 0 80 0 0 -80z m360 0 l0 -81 -77 3 -78 3 -3 78
-3 77 81 0 80 0 0 -80z m-1070 -341 l0 -82 -36 6 c-67 11 -124 70 -124 130 l0
27 80 0 80 0 0 -81z m360 -4 l0 -85 -80 0 -80 0 0 85 0 85 80 0 80 0 0 -85z
m350 0 l0 -85 -80 0 -80 0 0 85 0 85 80 0 80 0 0 -85z m365 48 c-12 -67 -67
-118 -135 -125 -22 -3 -23 -1 -22 77 1 44 1 81 2 83 0 1 37 2 81 2 l81 0 -7
-37z"/>
<path d="M2670 8166 c-314 -40 -572 -122 -891 -281 -401 -201 -655 -405 -882
-707 -308 -411 -457 -845 -457 -1331 1 -400 113 -792 355 -1239 200 -370 425
-669 825 -1099 173 -186 271 -306 372 -454 142 -208 247 -408 331 -635 79
-212 82 -252 28 -405 -41 -120 -46 -128 -97 -163 -55 -39 -84 -95 -84 -162 0
-60 17 -96 72 -157 l41 -44 68 -362 c37 -199 75 -378 83 -398 23 -56 65 -100
121 -125 50 -24 52 -24 433 -24 422 0 425 0 490 63 64 61 76 101 142 463 33
186 66 353 71 371 6 17 28 50 50 73 23 23 47 57 55 76 34 80 3 173 -76 230
-27 19 -51 42 -55 52 -26 64 -85 250 -85 269 0 40 69 263 111 358 49 110 161
317 242 445 99 159 217 307 372 470 456 479 722 842 948 1295 192 384 271 679
284 1050 8 246 -11 409 -73 622 -153 528 -475 971 -925 1274 -363 244 -722
390 -1130 460 -159 27 -576 35 -739 15z m244 -3239 c-1 -1181 -5 -1882 -11
-1888 -6 -6 -15 -3 -25 8 -20 24 -242 792 -328 1133 -129 513 -214 1011 -256
1500 -23 270 -15 542 25 893 43 372 92 586 188 830 87 221 230 462 340 572
l58 58 5 -614 c3 -338 5 -1459 4 -2492z m216 3046 c235 -257 409 -672 495
-1177 102 -601 91 -1094 -40 -1855 -81 -468 -179 -863 -407 -1636 -70 -241
-89 -285 -108 -255 -13 20 -13 4980 -1 4980 5 0 33 -26 61 -57z m-484 -5 c-51
-64 -140 -215 -197 -333 -108 -226 -204 -549 -248 -830 -78 -499 -89 -895 -37
-1320 93 -762 202 -1244 536 -2382 19 -64 15 -82 -12 -60 -25 19 -530 1006
-619 1210 -205 464 -301 725 -374 1017 -79 315 -100 504 -92 838 5 247 17 358
57 547 108 517 380 957 747 1206 70 47 238 138 257 139 5 0 -3 -15 -18 -32z
m790 -26 c120 -61 218 -135 340 -256 156 -155 257 -296 354 -491 144 -289 207
-534 240 -920 47 -561 -83 -1171 -406 -1902 -54 -123 -261 -543 -329 -668
-104 -192 -200 -378 -262 -505 -69 -143 -95 -182 -113 -164 -5 5 19 100 56
224 153 510 223 766 293 1070 259 1130 292 1995 105 2758 -81 330 -189 582
-355 829 -27 40 -49 74 -49 77 0 8 39 -8 126 -52z m-1323 -134 c-178 -174
-291 -332 -403 -563 -187 -385 -272 -816 -256 -1305 10 -349 78 -689 220
-1106 138 -405 304 -765 685 -1484 83 -157 151 -290 151 -296 0 -18 -50 -27
-66 -13 -9 7 -34 44 -56 83 -66 113 -170 266 -333 486 -486 659 -692 1006
-867 1463 -114 300 -158 519 -165 834 -6 248 4 382 43 568 115 541 463 1072
854 1301 65 38 255 123 276 124 6 0 -31 -42 -83 -92z m1862 7 c153 -75 272
-163 380 -276 321 -342 527 -783 590 -1262 17 -129 20 -416 4 -555 -33 -312
-134 -636 -307 -987 -163 -330 -307 -559 -647 -1025 -213 -292 -288 -401 -390
-572 l-57 -98 -44 0 c-24 0 -44 4 -44 8 0 10 32 73 287 560 286 545 391 772
513 1107 100 274 192 622 232 880 26 169 35 549 18 748 -49 587 -269 1093
-633 1461 -104 106 -96 106 98 11z m-2688 -462 c-179 -251 -329 -636 -394
-1008 -21 -124 -24 -540 -5 -682 47 -347 152 -664 347 -1048 189 -372 338
-603 733 -1133 111 -149 302 -424 302 -435 0 -11 -52 -17 -69 -7 -11 5 -48 54
-84 108 -78 120 -131 183 -352 422 -472 511 -680 792 -886 1195 -144 281 -224
509 -270 770 -32 182 -33 476 -1 645 63 336 211 662 420 925 59 75 283 307
290 301 2 -2 -12 -26 -31 -53z m3657 -248 c309 -379 473 -860 453 -1325 -21
-479 -229 -993 -621 -1539 -151 -208 -246 -323 -583 -697 -178 -199 -224 -255
-357 -436 -51 -72 -59 -78 -91 -78 -19 0 -35 4 -35 8 0 14 57 98 213 314 396
548 497 694 636 926 292 484 483 980 536 1387 18 139 21 416 5 555 -24 213
-71 423 -135 597 -50 134 -161 359 -234 471 -34 51 -61 96 -61 100 0 14 204
-197 274 -283z m-2493 -4309 c22 -49 39 -93 39 -98 0 -4 -25 -8 -55 -8 l-55 0
-33 53 c-18 28 -46 74 -61 100 l-27 48 77 -3 77 -3 38 -89z m289 90 c0 -5 27
-139 35 -173 5 -22 2 -23 -53 -23 -45 0 -63 4 -76 19 -13 15 -76 160 -76 177
0 2 38 4 85 4 47 0 85 -2 85 -4z m340 -13 c0 -10 -5 -55 -12 -100 l-11 -83
-63 0 c-38 0 -66 5 -70 12 -8 12 -33 139 -33 171 -1 15 10 17 94 17 84 0 95
-2 95 -17z m320 10 c0 -16 -53 -168 -63 -180 -6 -8 -34 -13 -73 -13 -74 0 -70
-8 -52 118 l11 82 89 0 c48 0 88 -3 88 -7z m310 2 c0 -7 -72 -138 -92 -167
-17 -25 -26 -28 -74 -28 -64 0 -65 3 -28 95 34 85 60 105 135 105 33 0 59 -2
59 -5z m-800 -675 l0 -330 -129 0 c-75 0 -132 4 -136 10 -4 7 -149 463 -201
633 -5 16 11 17 230 17 l236 0 0 -330z m620 325 c0 -25 -192 -640 -202 -646
-7 -5 -70 -9 -140 -9 l-128 0 0 330 0 330 235 0 c129 0 235 -2 235 -5z m105
-797 c36 -16 43 -54 16 -81 l-22 -22 -628 -3 -629 -2 -31 26 c-38 32 -39 46
-5 73 26 21 35 21 650 21 455 0 630 -3 649 -12z m-182 -248 c88 0 97 -2 97
-19 0 -23 -19 -31 -75 -31 -34 0 -47 -5 -59 -22 -36 -51 -9 -98 55 -98 38 0
39 -1 39 -34 0 -62 -14 -83 -60 -89 -55 -7 -70 -22 -70 -68 0 -41 7 -49 54
-59 28 -6 31 -9 28 -41 -6 -81 -4 -79 -90 -80 -139 -1 -242 -13 -252 -29 -15
-23 -12 -67 6 -84 12 -13 41 -16 150 -16 l134 0 0 -24 c0 -13 -9 -34 -19 -47
l-19 -24 -364 -3 c-199 -2 -373 0 -386 3 -22 5 -62 58 -62 83 0 9 35 12 143
12 113 0 147 3 165 16 28 20 29 65 1 90 -18 17 -41 19 -178 22 -86 2 -159 7
-162 10 -4 4 -10 31 -14 60 -7 51 -6 52 19 52 14 0 35 9 46 20 16 16 18 24 9
47 -16 42 -39 63 -70 63 -32 0 -43 16 -53 78 l-6 42 36 0 c54 0 74 15 74 55 0
42 -24 60 -92 70 -38 5 -48 10 -48 26 0 18 13 19 428 22 235 2 443 2 462 0 19
-1 79 -3 133 -3z"/>
<path d="M2636 1418 c-19 -27 -21 -62 -3 -76 7 -6 43 -14 80 -18 53 -5 71 -3
91 9 33 22 41 52 22 82 -15 23 -23 25 -96 25 -70 0 -81 -2 -94 -22z"/>
<path d="M3080 1420 c-29 -29 -25 -57 12 -79 25 -16 47 -19 114 -17 50 1 89 8
98 15 23 19 20 54 -7 79 -20 19 -35 22 -110 22 -74 0 -90 -3 -107 -20z"/>
<path d="M2882 1191 c-132 -6 -142 -11 -142 -63 0 -56 11 -58 255 -58 220 0
224 0 239 22 21 30 20 51 -3 79 -18 22 -26 24 -123 25 -56 0 -158 -2 -226 -5z"/>
<path d="M5 5720 c0 -993 1 -1399 2 -902 2 496 2 1308 0 1805 -1 496 -2 90 -2
-903z"/>
<path d="M14995 6600 c0 -503 1 -709 2 -458 2 252 2 664 0 915 -1 252 -2 46
-2 -457z"/>
<path d="M14995 2755 c0 -1507 1 -2122 2 -1367 2 756 2 1989 0 2740 -1 752 -2
134 -2 -1373z"/>
<path d="M5 2875 c0 -467 1 -657 2 -422 2 236 2 618 0 850 -1 232 -2 40 -2
-428z"/>
<path d="M5 960 c0 -520 1 -732 2 -472 2 259 2 685 0 945 -1 259 -2 47 -2
-473z"/>
<path d="M438 3 c243 -2 641 -2 885 0 243 1 44 2 -443 2 -487 0 -686 -1 -442
-2z"/>
<path d="M2358 3 c237 -2 627 -2 865 0 237 1 43 2 -433 2 -476 0 -670 -1 -432
-2z"/>
<path d="M4688 3 c501 -2 1323 -2 1825 0 501 1 91 2 -913 2 -1004 0 -1414 -1
-912 -2z"/>
<path d="M7983 3 c247 -2 647 -2 890 0 243 1 42 2 -448 2 -489 0 -688 -1 -442
-2z"/>
<path d="M10872 3 c753 -2 1983 -2 2735 0 753 1 137 2 -1367 2 -1504 0 -2120
-1 -1368 -2z"/>
</g>
</svg>
