<?xml version="1.0" standalone="no"?>
<!DOCTYPE svg PUBLIC "-//W3C//DTD SVG 20010904//EN"
 "http://www.w3.org/TR/2001/REC-SVG-20010904/DTD/svg10.dtd">
<svg version="1.0" xmlns="http://www.w3.org/2000/svg"
 width="1500.000000pt" height="1500.000000pt" viewBox="0 0 1500.000000 1500.000000"
 preserveAspectRatio="xMidYMid meet">
<metadata>
Created by potrace 1.16, written by Peter Selinger 2001-2019
</metadata>
<g transform="translate(0.000000,1500.000000) scale(0.100000,-0.100000)"
fill="#000000" stroke="none">
<path d="M5845 13606 c-207 -35 -442 -108 -693 -215 -202 -86 -505 -240 -611
-310 -114 -75 -161 -92 -341 -125 -80 -15 -316 -59 -525 -97 -548 -100 -701
-137 -832 -199 -204 -95 -352 -284 -448 -574 -70 -210 -98 -406 -98 -691 0
-220 11 -346 45 -530 36 -198 35 -252 -5 -391 -47 -160 -98 -392 -142 -644
-60 -338 -90 -482 -194 -908 -172 -706 -240 -997 -267 -1139 -32 -171 -42
-397 -24 -538 14 -115 65 -308 109 -414 l31 -74 -50 -127 c-53 -135 -100 -312
-126 -475 -21 -135 -30 -482 -15 -615 60 -538 275 -910 622 -1075 128 -61 342
-105 511 -105 l68 0 -45 -73 -44 -73 -88 13 c-48 8 -153 14 -233 14 -389 1
-695 -127 -975 -406 -213 -214 -339 -448 -397 -737 -30 -149 -32 -427 -5 -558
41 -195 115 -374 225 -539 70 -106 221 -264 332 -347 164 -124 396 -223 604
-259 115 -20 327 -19 447 1 249 42 515 169 717 343 139 121 295 332 367 496
18 42 36 76 40 76 3 0 34 -40 67 -88 122 -176 336 -361 531 -459 85 -43 244
-97 357 -121 119 -25 391 -25 510 0 314 67 601 227 788 439 102 117 263 384
293 486 7 23 15 42 19 42 4 0 31 -32 60 -71 191 -257 471 -436 790 -505 124
-27 389 -25 522 4 274 60 499 178 695 365 205 197 346 446 397 704 9 43 19 89
22 103 5 21 12 11 54 -69 156 -294 409 -521 720 -643 162 -63 303 -89 490 -90
175 -1 292 19 447 73 413 146 753 499 874 906 l12 43 51 -78 c106 -160 304
-331 493 -426 287 -143 669 -169 978 -65 195 65 427 209 578 357 70 69 79 82
164 217 103 163 172 332 208 510 52 254 17 576 -89 809 -122 268 -376 525
-643 652 -196 93 -351 128 -563 129 -221 0 -379 -37 -559 -130 l-86 -45 -18
23 c-28 34 -87 159 -87 183 0 15 8 24 28 29 15 3 106 36 202 72 577 215 912
464 1070 794 66 139 83 220 83 394 0 123 -4 164 -22 230 -43 160 -133 307
-230 375 -47 34 -50 38 -66 110 -56 245 -159 434 -323 592 -266 256 -629 390
-1187 438 -66 6 -340 15 -610 20 -525 10 -662 18 -877 51 -133 21 -137 22
-148 50 -17 39 -73 87 -138 117 -42 19 -65 23 -106 20 -66 -6 -138 -46 -174
-98 -15 -22 -30 -39 -34 -40 -3 0 -14 21 -22 48 -22 66 -88 163 -144 213 -94
83 -212 119 -320 99 -54 -10 -58 -9 -75 12 -63 78 -136 154 -181 188 -111 84
-257 134 -374 129 l-54 -3 -17 50 c-78 220 -222 375 -403 433 -25 8 -38 19
-42 37 -4 14 -35 55 -70 92 -177 186 -330 430 -381 604 -16 56 -16 59 3 85 36
52 72 132 87 195 30 127 14 411 -40 708 -60 337 -141 507 -264 556 l-38 15 -6
232 c-7 310 -38 490 -118 697 -92 241 -284 409 -545 481 -100 27 -375 35 -499
15z m449 -211 c70 -20 171 -63 164 -71 -3 -3 -41 -13 -85 -24 -377 -90 -634
-297 -729 -589 -26 -76 -27 -85 -13 -110 11 -19 24 -27 50 -29 44 -4 60 14 84
88 33 104 76 172 170 266 80 81 102 97 205 147 123 61 245 100 377 121 79 13
83 12 101 -8 62 -67 127 -241 164 -434 19 -102 22 -153 23 -398 0 -222 3 -285
14 -298 17 -20 18 -20 -50 -33 -30 -6 -97 -27 -149 -46 l-94 -36 -80 73 c-326
293 -710 460 -1162 507 -166 17 -521 7 -693 -20 -498 -77 -915 -296 -1335
-701 -257 -248 -546 -627 -664 -869 l-46 -96 -18 105 c-9 58 -22 184 -29 282
-39 557 113 1062 369 1227 100 64 292 109 1102 261 518 97 514 96 675 200 118
76 394 216 600 303 231 98 443 165 611 192 116 19 356 13 438 -10z m-1058
-1006 c264 -25 514 -96 723 -205 175 -91 426 -274 404 -295 -11 -10 -267 -89
-434 -133 -384 -102 -726 -156 -1219 -191 -358 -26 -487 -53 -627 -130 -85
-48 -197 -160 -240 -240 -71 -136 -97 -317 -64 -455 46 -195 223 -408 423
-509 184 -94 353 -99 983 -30 448 49 996 169 1425 311 173 57 248 89 344 148
46 27 87 50 90 50 3 0 6 -11 6 -23 0 -53 44 -188 95 -295 59 -123 151 -269
234 -372 l52 -65 -163 -7 c-736 -32 -1813 -298 -2390 -589 -284 -144 -515
-322 -707 -546 -181 -209 -209 -266 -218 -433 -4 -77 -1 -107 15 -158 17 -52
18 -63 6 -58 -8 3 -69 47 -134 97 -399 304 -841 774 -1208 1287 -80 110 -104
126 -147 98 -47 -31 -43 -59 19 -150 66 -97 258 -345 378 -489 367 -441 784
-818 1172 -1059 224 -140 357 -204 816 -398 342 -145 545 -261 775 -445 131
-104 440 -413 591 -590 213 -250 530 -653 520 -662 -5 -6 -286 48 -566 108
-437 93 -731 190 -1320 436 -322 135 -478 195 -653 252 -298 97 -664 175
-1019 216 l-57 7 6 77 c10 141 -38 267 -162 416 -236 285 -253 324 -316 730
-63 408 -93 479 -320 766 -36 46 -77 104 -91 129 l-26 45 43 180 c24 99 58
259 75 355 18 96 47 263 67 370 39 217 64 330 91 411 11 30 27 87 37 127 14
58 22 76 41 84 16 8 28 25 34 52 31 119 57 189 107 285 119 229 342 520 583
762 456 458 895 678 1454 728 136 12 348 12 472 0z m1788 -905 c35 -35 37
-101 4 -131 -93 -85 -555 -299 -853 -396 -558 -182 -1156 -278 -1760 -281
-266 -1 -276 1 -301 61 -12 28 -13 42 -4 69 20 59 28 61 320 67 912 20 1760
226 2395 581 117 65 157 71 199 30z m621 -1704 c131 -19 229 -86 308 -211 l36
-56 -147 5 c-240 7 -474 -27 -846 -122 -163 -42 -286 -59 -304 -42 -13 14 -5
90 13 126 27 52 113 131 183 168 197 105 533 163 757 132z m-878 -53 c-43 -29
-85 -48 -123 -55 -85 -18 -158 -55 -212 -109 -137 -137 -116 -349 45 -468 170
-124 386 -74 475 110 12 25 29 47 37 50 89 27 346 88 421 99 156 25 367 38
488 31 61 -4 112 -10 112 -14 0 -4 -24 -15 -53 -24 -67 -21 -215 -93 -288
-140 -79 -50 -195 -145 -250 -203 -43 -47 -46 -48 -72 -36 -53 26 -160 -20
-230 -98 -119 -132 -118 -331 3 -463 113 -124 285 -165 397 -96 59 37 143 169
158 250 5 28 20 45 88 95 287 214 481 297 730 311 59 3 107 4 107 1 0 -3 -42
-37 -92 -76 -112 -84 -225 -194 -284 -275 -34 -45 -58 -66 -102 -87 -65 -32
-130 -94 -164 -160 -17 -34 -24 -66 -26 -127 -4 -71 -1 -88 23 -142 52 -114
168 -191 290 -191 159 0 309 136 320 291 3 52 5 56 72 117 88 82 203 171 273
210 60 34 155 62 208 62 41 0 152 -32 152 -44 0 -5 -28 -59 -62 -121 -53 -96
-67 -114 -96 -125 -50 -18 -112 -78 -138 -135 -48 -102 -26 -259 50 -358 34
-45 106 -94 160 -108 247 -68 472 142 436 404 -8 58 -8 59 37 130 25 40 49 76
54 81 9 11 217 -112 324 -191 258 -191 358 -447 257 -653 -18 -36 -42 -77 -55
-92 -22 -26 -23 -26 -102 -17 -1544 184 -2499 474 -3290 1002 -397 265 -685
539 -1057 1007 -54 67 -93 78 -127 34 -11 -15 -21 -33 -21 -40 0 -16 116 -170
231 -309 110 -131 388 -410 514 -514 844 -700 1878 -1077 3518 -1282 103 -13
187 -26 187 -29 0 -3 -44 -36 -97 -75 -217 -158 -277 -205 -394 -310 -201
-181 -340 -347 -398 -477 -40 -89 -54 -160 -53 -259 l1 -85 -167 -32 c-350
-66 -1299 -206 -1503 -222 -137 -10 -299 -1 -449 25 -102 18 -113 22 -105 35
9 15 -10 45 -173 260 -536 707 -905 1075 -1357 1350 -119 73 -330 174 -560
269 -287 120 -576 263 -622 309 -49 48 -110 181 -123 267 -22 140 5 229 112
360 216 266 428 437 738 595 400 203 1020 385 1755 514 140 25 146 22 72 -27z
m-208 -277 c-19 -81 3 -171 51 -215 18 -16 36 -20 105 -20 68 0 81 -2 72 -13
-56 -68 -196 -50 -265 34 -65 78 -65 163 0 228 21 21 40 37 43 35 2 -3 -1 -25
-6 -49z m1763 -181 c72 -15 162 -61 228 -118 l54 -46 -129 -7 c-261 -13 -462
-96 -758 -312 -65 -47 -125 -86 -132 -86 -8 0 -22 -12 -31 -26 -22 -32 -104
-74 -146 -74 -43 0 -78 25 -78 54 0 62 226 314 372 414 108 74 288 158 399
187 106 27 145 30 221 14z m706 -345 c56 -28 112 -87 150 -157 l22 -42 -102
-6 c-182 -11 -285 -67 -544 -295 -127 -113 -196 -160 -253 -173 -62 -13 -76 2
-67 72 17 151 132 297 376 479 202 151 302 180 418 122z m-6778 -156 c215
-275 232 -316 290 -718 39 -269 86 -425 163 -541 20 -30 76 -103 125 -161 149
-178 183 -244 184 -359 1 -99 -4 -105 -99 -99 -252 16 -788 0 -874 -26 -13 -4
-24 13 -48 77 -73 192 -95 326 -88 536 6 190 29 319 128 723 38 157 88 365
112 462 23 98 44 178 47 177 3 0 30 -32 60 -71z m4975 -13 c-49 -92 -25 -198
57 -252 37 -25 51 -28 125 -28 46 0 83 -3 83 -7 0 -3 -14 -18 -31 -32 -53 -45
-141 -29 -219 41 -73 66 -98 159 -64 241 14 35 63 96 71 88 2 -2 -8 -25 -22
-51z m2406 -51 c43 -21 52 -40 46 -89 -9 -65 -44 -161 -85 -235 -80 -142 -255
-348 -299 -351 -53 -4 -73 16 -73 74 0 51 39 145 111 274 33 57 71 133 86 171
36 91 72 144 113 164 35 18 53 17 101 -8z m594 -264 c77 -6 363 -15 635 -20
604 -11 773 -26 1035 -92 407 -102 702 -337 810 -647 14 -38 34 -112 45 -163
11 -51 25 -103 30 -116 9 -20 2 -28 -73 -88 -511 -405 -1008 -630 -1907 -860
-471 -121 -724 -188 -935 -249 -399 -114 -569 -158 -580 -147 -11 11 -4 132
11 183 35 121 116 233 296 411 146 144 267 244 449 371 142 98 283 235 341
332 126 208 106 441 -57 671 -81 114 -207 215 -430 346 -66 39 -122 72 -124
74 -2 2 1 14 6 27 l11 24 148 -23 c82 -12 212 -28 289 -34z m-2101 -252 c44
-68 136 -92 229 -61 31 11 57 16 57 12 0 -4 -16 -23 -35 -42 -91 -88 -240 -65
-294 46 -26 53 -27 117 -3 165 l17 37 6 -65 c3 -37 13 -77 23 -92z m1035 -251
c28 -23 86 -47 117 -47 38 0 117 35 158 71 26 23 49 40 51 37 2 -2 -6 -26 -19
-54 -40 -87 -114 -131 -207 -122 -97 10 -164 83 -175 191 l-6 52 25 -50 c13
-28 38 -63 56 -78z m3804 -714 c22 -25 65 -113 83 -170 21 -68 29 -235 15
-318 -50 -287 -275 -532 -673 -731 -148 -74 -254 -118 -498 -204 -106 -37
-185 -71 -200 -85 -41 -39 -233 -77 -785 -155 -159 -23 -436 -68 -615 -101
-736 -135 -1307 -233 -2005 -344 -302 -48 -455 -76 -640 -119 -231 -54 -398
-25 -730 127 -141 65 -243 99 -380 129 -85 19 -131 22 -305 22 -176 0 -220 -3
-310 -22 -171 -37 -343 -100 -520 -189 -292 -148 -419 -196 -675 -258 -247
-59 -408 -84 -970 -150 -209 -25 -444 -54 -521 -65 -188 -26 -482 -36 -599
-21 -445 59 -702 380 -770 957 -8 71 -15 155 -15 188 0 51 2 58 18 53 9 -3 96
-33 192 -66 375 -129 766 -206 1177 -232 233 -15 263 -8 265 62 2 58 -18 65
-214 72 -437 16 -915 114 -1337 275 l-93 36 7 100 c8 117 27 239 55 348 24 92
96 282 113 296 7 6 86 18 177 27 131 14 227 16 470 12 323 -5 443 -16 755 -67
489 -81 767 -167 1380 -425 447 -189 761 -299 1083 -380 187 -47 1001 -212
1187 -241 169 -26 407 -23 630 9 1348 194 1527 226 2075 381 441 124 541 151
850 231 601 155 857 232 1128 339 379 150 725 350 1052 605 63 50 118 91 121
91 3 0 13 -8 22 -17z m-1263 -1740 c12 -38 38 -98 57 -135 36 -68 145 -198
166 -198 7 0 24 -15 39 -33 47 -60 209 -173 413 -290 268 -152 336 -198 427
-288 57 -56 86 -93 110 -145 30 -64 33 -77 33 -169 0 -88 -3 -107 -27 -157
-33 -70 -106 -145 -173 -178 -41 -20 -66 -24 -135 -25 -108 0 -143 16 -299
141 -186 150 -347 217 -584 245 -331 39 -852 -67 -1036 -211 -36 -27 -70 -50
-77 -50 -7 0 -138 62 -291 138 -472 234 -593 279 -878 327 -88 15 -161 28
-163 29 -1 2 11 29 28 62 38 76 55 144 81 328 11 83 23 153 25 155 3 3 18 -3
34 -12 50 -30 160 -68 255 -87 449 -92 1122 1 1561 216 152 74 246 174 309
331 17 41 31 60 47 65 51 14 55 10 78 -59z m-286 -33 c-15 -28 -53 -75 -84
-104 -305 -282 -1401 -419 -1790 -223 -35 18 -65 37 -67 43 -2 6 58 21 156 38
87 15 341 60 562 102 222 41 575 99 785 129 209 30 398 58 420 63 21 5 41 8
42 6 2 -1 -9 -26 -24 -54z m1406 -124 c205 -37 399 -139 563 -295 107 -101
187 -211 252 -345 75 -153 106 -276 112 -443 7 -161 -7 -263 -53 -403 -205
-617 -842 -974 -1432 -804 -362 105 -656 409 -756 782 -29 108 -29 108 -68
128 -43 22 -90 11 -124 -28 -22 -28 -26 -39 -21 -78 8 -67 -9 -246 -33 -346
-105 -444 -474 -778 -960 -870 -198 -38 -541 21 -740 128 -247 132 -456 378
-548 643 -37 107 -74 237 -69 241 10 11 136 24 225 24 89 0 93 -1 87 -20 -8
-25 36 -171 80 -267 182 -394 642 -585 1069 -442 265 89 456 292 551 589 40
121 46 292 16 410 -12 46 -18 87 -13 92 14 14 233 66 347 83 130 20 377 21
480 2 l69 -12 12 -75 c38 -244 181 -468 374 -585 403 -245 957 -70 1170 370
185 382 87 807 -241 1055 -93 69 -175 110 -284 141 -110 32 -278 31 -380 0
-38 -12 -80 -25 -91 -28 -37 -9 -333 184 -318 208 8 13 115 67 194 96 154 59
366 78 530 49z m-6425 -186 c173 -20 325 -68 545 -173 91 -43 110 -56 93 -61
-22 -7 -38 -39 -47 -97 -10 -58 -25 -71 -66 -58 -53 16 -281 13 -395 -5 -301
-50 -614 -169 -855 -327 -52 -34 -100 -64 -107 -66 -23 -9 -303 425 -303 469
0 22 21 34 188 116 103 50 225 104 272 120 230 79 456 107 675 82z m2884 -52
c-1 -63 -13 -165 -20 -173 -3 -2 -41 3 -85 12 -111 22 -362 22 -469 -1 -116
-25 -245 -70 -364 -127 -57 -27 -109 -49 -116 -49 -14 0 -60 91 -70 140 -4 19
-12 41 -18 48 -5 7 -8 14 -6 16 2 2 128 22 279 45 151 24 399 64 550 91 151
26 285 48 298 49 20 1 22 -3 21 -51z m-1273 -197 c-33 -65 -70 -107 -120 -136
-128 -75 -377 -73 -565 5 -73 30 -165 86 -194 118 -16 17 -9 17 70 -6 78 -23
106 -25 253 -25 160 0 171 1 365 46 110 25 203 46 208 46 4 1 -4 -21 -17 -48z
m4893 -34 c106 -37 176 -82 266 -172 135 -134 205 -301 205 -487 0 -321 -205
-606 -510 -708 -91 -31 -280 -39 -370 -16 -177 44 -329 167 -411 331 -44 87
-88 220 -77 231 13 12 130 -59 245 -149 67 -52 146 -107 175 -121 198 -97 439
-24 572 172 81 121 109 252 82 382 -40 190 -169 344 -411 493 l-100 62 40 7
c79 13 218 1 294 -25z m-3746 -63 l88 -16 -7 -42 c-10 -63 -41 -136 -78 -187
l-34 -46 -93 -8 c-118 -10 -187 -8 -314 11 -163 24 -303 70 -364 121 l-24 20
69 32 c100 47 224 89 327 110 118 25 309 27 430 5z m-4019 -36 c9 -37 225
-376 318 -500 106 -140 180 -210 292 -275 l85 -50 -127 -58 c-288 -133 -564
-296 -732 -432 -77 -62 -200 -186 -236 -236 l-20 -28 -169 50 c-509 151 -694
144 -1098 -39 -160 -73 -250 -126 -305 -181 -24 -24 -90 -115 -148 -201 -169
-257 -218 -299 -361 -306 -246 -13 -397 90 -436 300 -25 135 34 314 155 473
30 39 150 196 268 350 208 272 297 397 448 634 40 63 77 110 81 105 5 -5 16
-30 26 -57 23 -62 86 -132 144 -161 147 -74 455 -73 878 4 120 22 263 44 318
50 185 21 304 66 369 142 27 31 123 259 170 401 5 16 37 35 62 36 7 1 14 -9
18 -21z m3011 -132 c109 -136 315 -222 628 -262 107 -13 145 -14 217 -5 75 10
111 8 246 -9 395 -50 522 -90 899 -280 249 -126 272 -139 292 -175 40 -71 26
-185 -33 -262 -62 -81 -165 -114 -295 -94 -94 15 -181 45 -349 119 -228 101
-367 132 -590 132 -223 0 -412 -43 -605 -138 -150 -75 -234 -139 -410 -318
-214 -216 -294 -267 -422 -266 -56 0 -75 8 -255 109 -231 129 -561 237 -912
298 -147 25 -336 15 -686 -36 -383 -56 -554 -124 -769 -304 -57 -48 -135 -107
-174 -131 -71 -44 -163 -81 -174 -70 -11 11 18 89 53 144 50 78 195 224 304
306 239 180 531 329 1110 566 394 162 439 187 585 334 99 101 191 227 254 354
23 45 43 82 46 82 2 0 26 -13 52 -28 142 -83 303 -126 473 -126 171 0 298 42
397 130 l38 33 20 -26 c11 -15 38 -49 60 -77z m-3248 72 c-3 -7 -26 -67 -52
-133 -69 -180 -104 -203 -338 -231 -70 -8 -203 -28 -295 -45 -262 -48 -364
-59 -547 -59 -282 0 -333 23 -385 174 l-18 55 26 5 c15 3 205 26 422 51 573
67 871 114 1095 174 85 23 99 25 92 9z m1990 -76 c25 -16 -142 -225 -254 -317
-84 -69 -168 -112 -421 -215 l-202 -82 -82 33 c-91 37 -205 109 -257 163 l-34
35 94 61 c223 145 511 256 799 310 96 18 334 26 357 12z m-4247 -593 c47 -7
88 -15 93 -19 7 -6 -15 -37 -156 -222 l-57 -75 -103 -5 c-363 -19 -699 -302
-798 -673 -28 -104 -31 -297 -6 -398 83 -337 340 -585 676 -652 125 -26 325
-17 446 19 265 79 461 270 551 534 42 123 58 240 50 358 l-7 90 138 66 c148
71 288 120 397 138 66 12 279 11 291 -2 4 -3 1 -34 -6 -67 -17 -89 -7 -268 21
-356 79 -249 243 -438 472 -544 111 -52 191 -71 320 -78 407 -22 742 220 864
622 24 80 27 106 27 235 0 119 -3 158 -21 215 -14 47 -17 72 -10 76 14 9 46
14 238 38 257 33 332 35 457 16 l112 -17 -15 -22 c-12 -20 -12 -33 1 -109 31
-176 107 -323 240 -465 124 -131 260 -215 432 -264 66 -19 102 -23 233 -22
186 0 237 11 395 89 296 146 478 431 491 770 l4 100 49 36 c27 20 81 52 120
73 l70 36 8 -57 c12 -91 8 -220 -11 -313 -33 -163 -128 -364 -239 -509 -252
-329 -671 -505 -1074 -450 -385 51 -668 262 -887 658 -54 97 -68 110 -118 111
-63 0 -86 -29 -109 -145 -37 -183 -103 -349 -189 -475 -39 -56 -233 -252 -325
-327 -100 -81 -314 -170 -495 -204 -94 -19 -338 -16 -429 4 -396 88 -675 317
-877 719 -59 117 -89 145 -144 133 -47 -10 -74 -47 -94 -127 -69 -268 -180
-463 -367 -644 -228 -221 -531 -344 -844 -344 -314 0 -605 120 -833 343 -257
251 -383 570 -369 931 8 207 43 351 128 517 179 350 519 607 874 659 80 12
292 11 385 -1z m8199 -109 c21 -59 25 -216 8 -296 -21 -98 -61 -196 -113 -274
-144 -220 -350 -330 -614 -330 -132 0 -233 24 -350 82 -106 53 -228 169 -284
270 -49 89 -111 268 -92 268 21 0 194 -58 281 -95 301 -126 387 -150 523 -143
166 9 270 76 339 216 33 66 38 87 42 159 l3 83 42 0 c43 0 92 26 161 83 33 28
37 27 54 -23z m-8429 -345 c0 -2 -35 -48 -77 -102 -200 -256 -273 -415 -273
-599 0 -135 46 -261 128 -354 95 -108 312 -175 489 -150 164 22 267 107 413
338 112 178 115 180 107 67 -8 -110 -28 -188 -74 -281 -113 -234 -337 -376
-613 -391 -235 -13 -433 66 -589 233 -246 263 -257 669 -27 954 104 130 261
230 421 269 90 22 95 23 95 16z m4456 -306 c205 -53 428 -143 589 -239 108
-63 169 -88 238 -96 67 -8 171 16 247 57 73 39 197 138 274 218 l58 62 -7 -48
c-12 -84 -65 -225 -112 -302 -139 -223 -364 -346 -633 -345 -123 1 -196 15
-304 61 -214 90 -414 318 -460 524 -20 93 -26 139 -16 139 4 0 61 -14 126 -31z
m-1176 -41 c54 -122 48 -324 -13 -487 -132 -350 -492 -539 -852 -446 -345 88
-598 445 -547 772 7 42 16 80 20 84 4 4 72 -12 152 -35 203 -59 193 -54 185
-79 -3 -12 -8 -49 -11 -82 -6 -71 17 -118 68 -139 18 -8 46 -35 67 -67 29 -43
49 -61 105 -89 67 -34 72 -35 185 -35 111 0 119 1 183 33 85 41 172 127 217
212 29 53 35 78 38 140 3 47 -1 96 -11 130 -8 30 -12 58 -10 62 4 6 136 52
179 61 11 3 21 5 23 6 2 0 12 -18 22 -41z m-341 -125 c25 -88 3 -164 -69 -246
-77 -87 -184 -122 -300 -97 -56 12 -110 41 -110 59 0 4 17 15 39 24 58 26 156
91 256 171 125 101 159 126 167 126 4 0 12 -17 17 -37z"/>
<path d="M5417 8658 c-19 -19 -27 -43 -37 -114 -38 -264 78 -573 333 -889 79
-97 280 -298 397 -395 245 -204 560 -369 875 -457 l93 -26 5 -52 c6 -61 50
-153 102 -213 120 -139 370 -262 602 -297 128 -19 130 -19 158 10 31 30 32 59
2 89 -19 19 -37 24 -107 29 -187 13 -434 127 -549 253 -46 51 -83 126 -68 140
3 3 48 -1 99 -9 192 -33 318 -42 583 -41 271 0 395 8 665 45 206 28 521 89
548 106 32 20 27 78 -8 104 -24 17 -29 17 -165 -11 -426 -89 -883 -129 -1239
-110 -440 24 -780 109 -1108 277 -388 198 -799 591 -976 933 -95 183 -118 283
-109 480 7 148 6 152 -45 165 -21 5 -32 1 -51 -17z"/>
<path d="M12546 4465 c-163 -58 -211 -257 -94 -390 73 -83 190 -105 280 -52
79 46 128 134 128 228 0 104 -61 184 -164 214 -61 18 -99 18 -150 0z"/>
<path d="M2511 3233 c-26 -9 -67 -37 -97 -67 -84 -82 -103 -182 -55 -291 54
-122 223 -188 346 -135 59 25 118 79 148 135 31 57 30 173 0 231 -29 54 -101
117 -151 132 -53 16 -138 14 -191 -5z"/>
<path d="M9985 4009 c-54 -28 -74 -47 -95 -89 -29 -57 -34 -102 -16 -162 16
-58 69 -119 119 -137 148 -56 321 101 272 248 -43 129 -175 196 -280 140z"/>
<path d="M7638 3846 c-129 -35 -220 -153 -221 -286 -3 -244 304 -357 474 -173
56 61 80 120 81 197 1 112 -56 203 -152 245 -62 27 -126 33 -182 17z"/>
</g>
</svg>
