<?xml version="1.0" standalone="no"?>
<!DOCTYPE svg PUBLIC "-//W3C//DTD SVG 20010904//EN"
 "http://www.w3.org/TR/2001/REC-SVG-20010904/DTD/svg10.dtd">
<svg version="1.0" xmlns="http://www.w3.org/2000/svg"
 width="672.000000pt" height="513.000000pt" viewBox="0 0 672.000000 513.000000"
 preserveAspectRatio="xMidYMid meet">
<metadata>
Created by potrace 1.16, written by Peter Selinger 2001-2019
</metadata>
<g transform="translate(0.000000,513.000000) scale(0.100000,-0.100000)"
fill="none" stroke="#000000">
<path d="M4310 3583 c-238 -7 -562 -51 -662 -89 -24 -9 -60 -30 -80 -45 l-37
-29 -1418 0 c-1330 0 -1420 -1 -1452 -18 -46 -23 -67 -55 -86 -127 -13 -50
-15 -167 -15 -786 l0 -726 22 -28 c12 -15 40 -36 62 -46 37 -17 71 -19 339
-19 229 0 298 -3 301 -12 2 -7 10 -35 17 -61 15 -62 70 -136 129 -176 189
-128 447 -27 505 199 l11 45 1229 0 1228 0 13 -53 c37 -142 168 -242 318 -242
148 0 264 85 313 230 l22 65 118 2 c224 4 718 24 818 34 118 12 162 24 175 49
14 27 12 270 -5 610 -18 344 -27 437 -55 544 -39 149 -136 305 -243 394 -61
50 -131 74 -296 103 -63 10 -122 25 -130 33 -95 83 -451 143 -881 149 -102 1
-219 1 -260 0z m460 -53 c274 -18 530 -60 576 -95 16 -12 -101 -14 -860 -15
-527 0 -876 4 -870 9 5 5 39 18 77 30 214 65 678 96 1077 71z m603 -158 l37
-2 0 -560 0 -560 -100 0 c-94 0 -103 -2 -125 -25 l-25 -24 0 -241 0 -240 -49
0 -48 0 -7 41 c-15 94 -99 199 -191 240 -174 77 -400 -25 -445 -201 -7 -25
-14 -53 -17 -62 -4 -17 -27 -18 -309 -18 l-304 0 0 264 0 265 -24 28 -24 28
-517 3 c-560 3 -546 4 -577 -50 -9 -17 -14 -98 -18 -283 l-5 -260 -339 0 -339
0 -12 50 c-22 98 -84 179 -169 223 -40 20 -70 27 -137 30 -78 4 -92 2 -148
-23 -96 -43 -190 -159 -191 -235 -1 -52 5 -52 -306 -48 -254 3 -293 5 -321 21
-51 27 -64 56 -61 129 3 60 4 63 29 66 50 6 64 34 67 138 4 89 3 94 -22 119
-14 14 -37 25 -51 25 l-27 0 4 513 c4 446 7 519 21 563 9 29 24 58 34 65 13
12 374 15 2222 19 2340 5 2435 5 2494 2z m207 -17 c52 -8 118 -21 147 -30 l52
-15 29 -78 c45 -116 61 -188 87 -391 23 -180 41 -526 47 -931 l3 -165 -110 -6
c-61 -4 -170 -9 -242 -12 l-133 -6 0 825 c0 653 3 824 13 824 6 0 55 -7 107
-15z m447 -372 c49 -33 78 -193 89 -496 l7 -188 -74 3 -74 3 -6 182 c-7 201
-14 284 -33 423 -7 52 -12 98 -10 102 6 9 72 -10 101 -29z m-2819 -995 l-3
-273 -260 0 -260 0 -3 249 c-2 211 0 253 13 272 l15 24 250 0 250 0 -2 -272z
m522 252 c19 -19 20 -31 18 -273 l-3 -252 -241 -3 -241 -2 -7 31 c-8 40 -8
467 0 497 6 22 6 22 230 22 211 0 225 -1 244 -20z m2400 -9 c0 -16 -6 -17 -50
-13 -45 4 -50 2 -59 -20 -21 -56 12 -107 77 -117 31 -5 37 -10 37 -31 0 -22
-5 -26 -40 -30 -57 -7 -55 -34 3 -38 28 -2 42 -8 42 -18 0 -10 -12 -14 -40
-14 -33 0 -40 -3 -40 -20 0 -16 7 -20 34 -20 48 0 55 -18 9 -22 -30 -2 -38 -7
-38 -23 0 -16 8 -21 38 -23 35 -3 37 -5 37 -37 0 -38 -9 -43 -90 -52 l-57 -6
-6 153 c-4 84 -7 197 -7 252 l0 98 75 0 c66 0 75 -2 75 -19z m-722 -267 l2
-241 -61 -7 c-34 -3 -79 -6 -101 -6 l-38 0 2 168 3 167 63 0 c75 0 82 7 82 91
0 65 5 76 30 72 13 -3 15 -36 18 -244z m-3671 -12 c126 -65 187 -204 149 -336
-25 -84 -108 -168 -190 -191 -74 -22 -140 -15 -212 20 -123 60 -184 211 -139
346 23 67 101 149 165 172 62 23 171 17 227 -11z m3095 12 c107 -36 183 -147
183 -264 -1 -196 -183 -326 -375 -269 -52 16 -134 88 -162 142 -26 52 -34 143
-18 202 23 83 97 162 177 191 51 18 140 17 195 -2z"/>
<path d="M5115 3263 c-45 -11 -45 -9 -45 -348 l0 -323 128 -101 c70 -55 135
-101 144 -101 10 0 20 10 23 23 3 12 4 201 3 420 l-3 399 -24 19 c-19 16 -38
19 -115 18 -50 -1 -100 -4 -111 -6z m203 -420 c1 -221 -1 -373 -7 -373 -5 0
-50 32 -100 70 l-91 71 0 305 0 305 98 -3 97 -3 3 -372z"/>
<path d="M852 3246 c-60 -28 -66 -57 -58 -333 3 -133 11 -254 16 -268 5 -14
21 -30 36 -35 17 -7 724 -9 2042 -8 1860 3 2020 4 2054 20 64 29 68 46 68 319
l0 241 -34 34 -34 34 -1804 0 c-993 0 -1906 2 -2029 5 -187 5 -229 3 -257 -9z
m488 -316 l0 -280 -239 0 c-181 0 -242 3 -248 13 -4 6 -9 125 -11 263 l-4 251
23 17 c20 14 56 16 251 16 l228 0 0 -280z m635 0 l0 -275 -292 -3 -293 -2 0
273 c0 151 3 277 7 280 4 4 135 6 292 5 l286 -3 0 -275z m703 -2 l2 -278 -330
0 -330 0 0 273 c0 151 3 277 7 280 4 4 151 6 327 5 l321 -3 3 -277z m770 0 l2
-278 -360 0 -360 0 0 280 0 280 358 -2 357 -3 3 -277z m832 2 l0 -280 -390 0
-390 0 0 280 0 280 390 0 390 0 0 -280z m661 251 c18 -22 19 -40 17 -260 l-3
-236 -35 -17 c-31 -16 -68 -18 -312 -18 l-278 0 0 274 c0 253 1 275 18 280 9
2 142 4 296 3 l278 -2 19 -24z"/>
<path d="M760 2434 c-12 -31 -13 -94 -2 -112 7 -9 64 -12 253 -10 l244 3 3 49
c2 27 1 60 -3 73 l-5 23 -240 0 -240 0 -10 -26z m448 -51 l-3 -28 -200 0 -200
0 -3 28 -3 27 206 0 206 0 -3 -27z"/>
<path d="M773 2252 c-19 -12 -21 -131 -3 -142 23 -15 463 -13 478 2 16 16 16
120 0 136 -14 14 -454 17 -475 4z m437 -72 l0 -30 -202 2 -203 3 -3 28 -3 27
205 0 206 0 0 -30z"/>
<path d="M773 2054 c-17 -7 -27 -66 -19 -109 l7 -35 247 2 247 3 0 70 0 70
-235 2 c-129 1 -240 -1 -247 -3z m435 -71 l-3 -28 -200 0 -200 0 -3 28 -3 27
206 0 206 0 -3 -27z"/>
<path d="M5554 3272 c-32 -21 -34 -52 -34 -545 l0 -495 26 -6 c33 -9 267 3
316 15 32 8 38 14 44 45 9 51 -13 475 -31 578 -31 176 -116 336 -208 390 -43
25 -91 33 -113 18z m92 -63 c62 -38 117 -125 155 -242 32 -102 49 -240 56
-463 6 -203 5 -212 -13 -217 -10 -3 -79 -8 -151 -12 l-133 -7 0 465 c0 256 3
472 6 481 8 22 40 20 80 -5z"/>
<path d="M5605 2133 c-44 -4 -65 -24 -65 -60 0 -40 34 -63 93 -63 68 0 97 19
97 64 0 52 -35 69 -125 59z"/>
<path d="M1538 1814 c-16 -8 -37 -33 -49 -56 -62 -122 62 -251 186 -192 51 24
75 66 75 133 0 49 -3 57 -39 92 -35 36 -43 39 -92 39 -30 -1 -66 -8 -81 -16z
m121 -39 c16 -8 34 -27 41 -44 40 -96 -77 -175 -151 -102 -78 79 11 198 110
146z"/>
<path d="M4672 1820 c-33 -15 -47 -29 -62 -62 -24 -54 -24 -72 0 -126 24 -53
90 -88 146 -77 79 14 138 107 114 179 -18 54 -86 106 -138 106 -9 0 -36 -9
-60 -20z m130 -60 c27 -27 30 -36 25 -72 -7 -52 -33 -78 -85 -85 -36 -5 -45
-2 -72 25 -41 42 -42 92 -1 133 41 41 91 40 133 -1z"/>
</g>
</svg>
