<?xml version="1.0" standalone="no"?>
<!DOCTYPE svg PUBLIC "-//W3C//DTD SVG 20010904//EN"
 "http://www.w3.org/TR/2001/REC-SVG-20010904/DTD/svg10.dtd">
<svg version="1.0" xmlns="http://www.w3.org/2000/svg"
 width="1500.000000pt" height="1500.000000pt" viewBox="0 0 1500.000000 1500.000000"
 preserveAspectRatio="xMidYMid meet">
<metadata>
Created by potrace 1.16, written by Peter Selinger 2001-2019
</metadata>
<g transform="translate(0.000000,1500.000000) scale(0.100000,-0.100000)"
fill="#000000" stroke="none">
<path d="M7085 11600 c-49 -5 -169 -14 -265 -20 -644 -41 -1376 -139 -1671
-224 -282 -81 -412 -137 -589 -254 -100 -67 -310 -271 -396 -386 -32 -44 -75
-92 -94 -107 -25 -20 -142 -64 -405 -153 -830 -279 -1089 -387 -1325 -554
-110 -78 -298 -256 -361 -342 -170 -232 -271 -489 -316 -803 -16 -110 -18
-226 -18 -1212 0 -1286 3 -1347 101 -1965 24 -157 45 -294 47 -305 2 -18 -6
-21 -95 -26 -125 -8 -197 -31 -254 -82 -138 -122 -167 -416 -58 -604 33 -57
106 -119 165 -138 97 -33 366 -43 634 -26 148 10 209 29 290 90 28 21 60 43
72 49 16 9 178 12 593 12 620 0 609 -1 662 56 14 16 46 81 71 145 56 143 75
181 143 286 137 212 362 369 596 417 44 9 126 16 190 16 264 0 470 -84 646
-263 128 -129 199 -244 283 -457 58 -149 89 -191 155 -209 70 -19 339 -31 889
-42 297 -6 662 -15 810 -19 884 -24 1209 -29 2020 -32 l900 -3 47 23 c72 36
109 87 163 225 96 244 166 357 303 489 103 99 154 136 264 188 132 63 220 82
383 84 292 2 485 -74 674 -266 125 -126 208 -266 281 -473 51 -144 69 -181
107 -217 56 -54 81 -58 342 -58 133 0 262 5 290 11 109 23 170 101 171 217 0
133 -75 217 -212 237 -27 4 -48 9 -48 11 0 3 40 98 89 212 186 433 255 677
300 1049 23 193 28 472 11 644 -12 118 -61 369 -91 474 -31 104 -177 440 -512
1182 -80 177 -286 649 -457 1050 -172 400 -333 768 -358 817 -206 401 -581
625 -1272 761 -47 9 -191 43 -321 75 -429 106 -675 155 -1129 225 -91 14 -307
48 -480 75 -690 107 -844 121 -1415 125 -253 2 -500 0 -550 -5z m515 -402 c0
-20 -55 -426 -93 -688 l-12 -85 -409 2 c-225 1 -416 5 -423 8 -11 3 12 56 88
202 198 385 291 553 312 568 18 12 66 15 279 15 l258 0 0 -22z m845 -29 c138
-18 250 -38 263 -46 16 -10 82 -134 203 -380 98 -200 179 -370 179 -375 0 -8
-46 -9 -147 -3 -82 4 -263 10 -403 14 l-255 6 -77 385 c-42 212 -79 398 -82
414 -6 28 -6 28 37 23 23 -4 150 -20 282 -38z m-1995 2 c0 -17 -110 -154 -335
-416 -128 -148 -241 -278 -251 -287 -18 -15 -59 -16 -552 -8 -294 4 -536 10
-538 13 -5 5 181 130 341 228 106 65 329 212 555 367 l75 51 310 29 c344 33
395 36 395 23z m3170 -165 c378 -67 471 -86 493 -103 12 -9 72 -72 132 -141
271 -305 395 -448 395 -454 0 -10 -161 -10 -510 -1 l-265 6 -28 31 c-21 24
-432 621 -471 684 -12 20 42 15 254 -22z m1516 -371 c253 -73 454 -179 597
-315 l62 -60 -197 2 c-162 1 -202 4 -223 17 -28 18 -345 360 -345 373 0 12 10
10 106 -17z m-6254 -342 l217 -6 -5 -31 c-17 -103 -75 -183 -159 -222 -67 -32
-179 -33 -245 -3 -87 39 -161 136 -176 228 l-7 41 79 0 c44 0 177 -3 296 -7z
m925 -27 c12 -12 -17 -97 -48 -142 -86 -126 -232 -137 -329 -27 -42 48 -77
140 -66 170 6 14 31 15 221 11 119 -3 219 -8 222 -12z m718 -17 c7 -8 -32
-109 -58 -148 -61 -92 -183 -121 -276 -64 -56 34 -106 106 -119 170 -6 26 -9
50 -7 53 3 6 454 -5 460 -11z m803 1 c79 0 82 -1 82 -23 0 -42 -30 -114 -66
-155 -20 -24 -62 -55 -101 -74 -58 -28 -75 -32 -147 -32 -67 0 -91 5 -138 28
-91 43 -157 131 -171 230 l-6 39 232 -6 c128 -4 269 -7 315 -7z m-3078 -15 c0
-16 -34 -83 -56 -112 -65 -85 -202 -106 -283 -44 l-25 19 55 28 c47 24 281
112 302 113 4 1 7 -1 7 -4z m3808 -15 l82 0 0 -32 c0 -47 -41 -129 -81 -162
-70 -59 -158 -81 -225 -56 -74 29 -146 122 -160 208 l-6 41 73 4 c41 2 110 3
154 1 44 -2 117 -4 163 -4z m821 -7 l113 -6 -6 -46 c-21 -154 -151 -259 -308
-248 -137 9 -238 111 -255 257 l-6 50 174 0 c96 0 225 -3 288 -7z m1635 -70
l59 -6 -6 -71 c-9 -107 -33 -163 -91 -222 -61 -60 -121 -84 -216 -84 -98 0
-155 23 -220 89 -65 66 -90 131 -90 234 l0 66 48 4 c59 6 437 -2 516 -10z
m1376 -57 c21 -9 26 -19 28 -59 5 -73 -23 -143 -78 -198 -79 -79 -154 -76
-240 10 -33 33 -50 60 -58 93 -13 52 -16 161 -5 172 11 11 324 -5 353 -18z
m-7430 -119 c116 -114 223 -155 375 -144 141 10 245 58 334 152 l53 56 73 -71
c40 -38 93 -79 118 -90 71 -32 171 -42 249 -25 90 19 142 47 210 116 l59 58
72 -73 c97 -98 151 -120 297 -121 93 0 111 3 162 27 63 29 137 93 169 144 l21
35 40 -57 c51 -71 139 -136 225 -166 94 -32 269 -32 358 1 74 27 146 74 206
135 l46 46 52 -66 c28 -37 48 -71 44 -75 -4 -4 -44 -17 -88 -29 -228 -61 -423
-203 -552 -402 -61 -93 -97 -180 -131 -318 l-26 -105 -6 -1230 -5 -1230 -1385
2 c-762 1 -1836 5 -2388 9 l-1003 6 3 117 3 116 136 5 c150 6 171 13 203 72
27 49 16 99 -30 137 -35 28 -39 29 -169 33 -73 1 -137 7 -142 11 -4 5 -8 309
-8 675 1 695 9 897 45 1082 84 435 363 753 840 955 94 40 731 265 750 265 9 0
36 -21 60 -46 59 -60 142 -101 233 -116 137 -21 276 30 382 141 21 22 39 41
40 41 0 0 34 -33 75 -73z m4681 -97 c42 -79 131 -162 206 -191 80 -31 198 -31
268 0 72 32 123 69 160 119 l33 43 31 -44 c43 -63 132 -142 195 -171 73 -35
126 -45 227 -46 146 0 252 43 358 146 l66 65 14 -23 c8 -13 43 -51 77 -85 53
-53 71 -65 133 -83 55 -17 89 -21 149 -18 105 6 158 33 253 128 l76 76 52 -57
c35 -40 73 -68 119 -91 61 -30 74 -33 162 -33 87 0 101 3 161 32 36 18 89 55
118 83 30 28 57 48 61 43 5 -4 42 -91 83 -193 153 -378 475 -1115 680 -1557
50 -107 72 -165 65 -170 -16 -9 -357 -17 -411 -9 -41 6 -46 10 -51 39 -8 40
-50 142 -258 622 -185 425 -222 504 -280 590 -66 100 -173 171 -300 200 -100
23 -1235 22 -1323 -1 -81 -21 -139 -56 -210 -128 -72 -74 -121 -162 -140 -253
-22 -101 -21 -954 0 -1036 44 -169 178 -304 350 -355 71 -20 638 -30 1820 -31
534 -1 975 -5 982 -9 7 -4 19 -23 27 -42 26 -63 146 -422 146 -437 0 -14 -207
-15 -1887 -10 -1039 3 -1898 8 -1910 12 l-22 7 -4 1012 c-4 1129 0 1067 -76
1252 -81 198 -219 356 -407 467 l-48 29 56 30 c30 16 79 54 109 84 29 30 54
54 56 54 1 0 16 -27 34 -60z m-518 -416 c150 -39 274 -139 340 -274 71 -144
67 -2 67 -2187 0 -1102 -4 -1974 -9 -1977 -4 -3 -210 -1 -457 4 -247 5 -650
13 -896 16 -442 7 -447 7 -452 28 -3 12 -6 885 -6 1941 1 2052 -1 1995 49
2126 46 122 162 251 266 295 92 40 128 42 589 43 377 1 458 -1 509 -15z m2137
-488 c0 -6 -276 -238 -375 -315 -119 -93 -125 -104 -125 -228 0 -85 3 -103 15
-103 14 0 563 435 725 574 37 32 82 61 104 67 23 6 111 9 221 7 177 -3 183 -4
221 -29 46 -30 77 -86 169 -294 85 -194 82 -172 33 -217 -24 -22 -137 -117
-252 -211 -130 -107 -213 -182 -221 -200 -16 -39 -8 -72 27 -107 61 -62 103
-42 383 178 105 82 194 147 199 144 22 -12 166 -346 166 -383 0 -5 -15 -11
-32 -14 -18 -3 -393 -2 -833 2 l-800 8 -45 27 c-28 16 -55 43 -70 70 l-25 43
0 395 c0 217 3 411 8 431 10 47 71 117 121 140 35 16 68 19 214 19 94 0 172
-2 172 -4z m425 -2236 c583 -5 1291 -13 1573 -16 l512 -6 7 -27 c12 -44 8
-264 -5 -295 l-13 -29 -202 7 c-296 10 -1138 29 -1312 31 -473 2 -2288 43
-2309 51 -14 5 -16 27 -16 143 0 76 3 141 7 144 9 10 531 9 1758 -3z m-4807
-526 l432 -6 0 -143 c0 -120 -3 -144 -15 -149 -9 -3 -1066 -3 -2350 1 l-2334
6 -10 51 c-5 28 -12 91 -16 139 -3 49 -9 95 -12 102 -4 13 268 14 1934 10
1066 -3 2133 -8 2371 -11z m4052 -94 c289 -5 588 -12 665 -15 77 -3 370 -10
650 -15 962 -19 1390 -29 1438 -36 31 -4 47 -11 47 -21 0 -23 -39 -169 -61
-227 l-19 -53 -63 -7 c-35 -3 -87 -2 -117 4 -29 5 -154 10 -279 10 -124 0
-269 4 -321 10 -206 21 -643 30 -1772 37 l-1178 6 0 157 c0 86 3 160 8 164 4
5 113 6 242 2 129 -3 471 -10 760 -16z m-7137 -530 c442 0 717 -4 717 -9 0 -6
-57 -62 -126 -126 l-126 -116 -783 3 c-431 2 -786 5 -789 8 -3 3 -14 62 -24
130 l-19 123 216 -6 c119 -4 539 -7 934 -7z m3518 -90 c4 -36 4 -92 0 -125
l-6 -60 -460 -3 -460 -2 -122 127 c-66 70 -120 130 -118 133 2 3 263 3 582 0
l578 -5 6 -65z m3987 -25 c2 -2 -45 -58 -104 -124 l-108 -121 -583 0 -583 0 0
124 c0 122 1 125 23 128 28 4 1351 -3 1355 -7z m2227 -57 c12 -11 -104 -237
-130 -254 -36 -23 -56 -7 -134 109 -38 56 -78 110 -89 121 -12 10 -19 23 -16
28 7 11 358 7 369 -4z m-10799 -512 c37 -37 44 -74 22 -121 -23 -50 -48 -55
-287 -55 -149 0 -228 4 -246 12 -30 13 -55 55 -55 90 0 32 35 87 63 98 12 5
123 9 246 9 l223 1 34 -34z"/>
<path d="M3237 9650 l-129 -5 -29 -32 c-53 -60 -48 -110 13 -156 20 -15 51
-22 125 -28 54 -4 683 -9 1398 -11 1296 -3 1300 -3 1335 18 68 39 77 115 19
170 l-30 29 -437 7 c-590 9 -2106 14 -2265 8z"/>
<path d="M2703 9130 c-73 -23 -100 -96 -90 -238 26 -360 47 -614 52 -622 4 -6
53 -10 109 -10 78 0 107 4 116 14 9 11 10 89 4 320 l-7 306 77 0 c42 0 76 -2
76 -5 0 -20 -42 -187 -54 -217 -9 -21 -16 -48 -16 -60 1 -20 7 -17 47 27 25
28 82 96 125 153 l80 102 88 0 c48 0 102 -3 119 -6 l31 -7 -40 -75 c-103 -191
-271 -389 -413 -486 -41 -28 -54 -43 -47 -50 8 -8 170 -12 500 -14 270 -1 490
-6 489 -10 0 -4 -12 -32 -27 -62 l-28 -55 -616 4 -616 4 -6 -109 c-10 -178
-35 -373 -61 -474 -14 -52 -25 -113 -25 -135 0 -54 28 -104 80 -140 l42 -30
199 3 200 3 -15 -29 c-27 -52 -29 -96 -8 -145 36 -82 129 -132 273 -147 118
-12 2050 -13 2209 -1 138 11 212 36 269 91 52 50 60 92 34 165 l-20 53 171 -1
c198 -2 251 8 302 60 41 40 51 89 35 163 -7 30 -18 84 -26 120 -8 36 -21 164
-30 285 -12 154 -21 224 -30 234 -12 12 -116 15 -613 19 l-599 5 -22 44 c-11
24 -21 53 -21 65 l0 21 468 -7 c257 -4 480 -5 495 -1 38 10 30 24 -34 62 -79
48 -216 178 -282 271 -74 104 -157 251 -157 280 0 21 3 22 105 22 l104 0 25
-32 c14 -18 59 -79 101 -135 79 -107 118 -144 123 -120 1 7 -9 60 -23 117 -14
58 -25 117 -25 133 l0 27 76 0 77 0 -9 -192 c-11 -242 -11 -424 -1 -435 12
-12 204 -10 215 2 5 6 19 138 31 295 12 157 26 303 31 325 29 125 -15 217
-118 244 -52 14 -3456 24 -3499 11z m1827 -499 c173 -459 349 -814 567 -1146
85 -128 175 -252 240 -330 30 -35 32 -40 16 -47 -33 -12 -288 -9 -305 5 -30
22 -168 250 -233 382 -102 209 -178 409 -275 725 -76 246 -68 226 -82 212 -26
-26 106 -802 196 -1144 24 -92 41 -170 38 -173 -10 -10 -472 -5 -472 5 0 5 22
98 49 207 63 251 95 416 121 618 12 88 25 192 30 230 12 91 12 155 1 155 -5 0
-41 -100 -81 -222 -121 -373 -219 -603 -359 -833 -109 -179 -84 -165 -283
-165 -92 0 -168 3 -168 6 0 3 29 40 63 83 329 396 500 701 782 1396 80 197 85
208 90 203 2 -2 31 -77 65 -167z m-1437 -663 c16 -40 137 -393 137 -401 0 -14
-197 -63 -322 -81 l-38 -5 0 57 c0 100 20 443 25 453 4 5 46 9 95 9 l90 0 13
-32z m2938 -63 c4 -38 10 -153 14 -254 l7 -184 -72 6 c-39 3 -123 20 -186 38
-113 31 -114 32 -107 58 14 60 143 395 155 403 7 4 51 7 98 6 l85 -3 6 -70z"/>
<path d="M7804 9301 l-201 -6 -48 -30 c-60 -37 -105 -95 -137 -172 l-23 -58
-3 -630 -3 -630 38 -62 c20 -35 40 -63 45 -63 4 0 56 42 116 93 140 121 278
232 727 582 204 159 399 313 435 342 36 30 73 61 83 69 17 14 18 30 15 172 -3
144 -5 161 -28 206 -37 72 -94 132 -153 160 -51 24 -57 25 -357 29 -168 2
-395 2 -506 -2z"/>
<path d="M8628 8318 c-107 -84 -365 -285 -572 -446 -207 -161 -376 -300 -376
-308 0 -21 813 -20 914 1 127 27 217 102 246 203 6 22 10 174 10 370 0 276 -2
332 -14 332 -8 0 -101 -69 -208 -152z"/>
<path d="M4683 5305 c-160 -29 -289 -98 -414 -224 -117 -117 -195 -246 -273
-454 -32 -85 -70 -139 -119 -169 -46 -28 -52 -48 -43 -152 18 -235 108 -426
281 -602 150 -152 289 -233 483 -281 92 -23 348 -23 449 0 290 66 552 274 686
542 63 126 97 260 97 380 l0 64 -61 32 c-84 45 -121 93 -170 218 -59 152 -109
247 -178 338 -185 246 -457 359 -738 308z m311 -251 c232 -57 404 -232 467
-474 63 -243 -36 -535 -231 -685 -117 -90 -240 -130 -395 -129 -315 3 -565
196 -641 494 -23 89 -15 291 14 371 38 107 77 172 143 243 165 175 397 240
643 180z"/>
<path d="M4721 4899 c-110 -21 -237 -109 -300 -207 -160 -250 -58 -589 216
-720 75 -36 82 -37 183 -36 89 0 115 5 174 28 187 72 303 232 314 432 4 75 1
105 -16 160 -74 242 -324 392 -571 343z m165 -244 c204 -61 237 -351 51 -447
-120 -61 -264 -13 -323 107 -68 140 11 309 161 346 46 11 57 10 111 -6z"/>
<path d="M11585 5300 c-166 -24 -312 -99 -449 -229 -115 -110 -190 -233 -270
-439 -42 -109 -83 -172 -130 -201 -19 -12 -36 -28 -40 -36 -12 -31 13 -232 39
-310 165 -503 704 -794 1223 -659 226 59 409 179 542 356 113 150 189 344 192
491 1 74 -8 90 -68 127 -47 30 -99 113 -135 220 -69 205 -147 340 -261 451
-191 187 -407 264 -643 229z m270 -245 c110 -28 219 -89 298 -168 115 -115
176 -240 198 -406 38 -284 -154 -590 -431 -688 -100 -35 -254 -43 -364 -18
-376 83 -598 473 -480 845 68 214 234 374 446 430 91 24 250 26 333 5z"/>
<path d="M11605 4898 c-92 -17 -186 -71 -257 -146 -35 -38 -75 -90 -87 -116
-140 -288 27 -630 340 -697 73 -16 201 -6 272 21 168 64 299 238 314 420 12
138 -44 275 -154 382 -79 75 -148 114 -242 134 -74 15 -114 16 -186 2z m188
-251 c48 -20 95 -64 120 -111 17 -31 22 -58 22 -117 0 -67 -3 -81 -30 -125
-19 -30 -49 -60 -79 -79 -45 -27 -58 -30 -132 -30 -75 0 -86 3 -125 30 -129
91 -147 287 -36 381 72 60 184 82 260 51z"/>
</g>
</svg>
