<?xml version="1.0" standalone="no"?>
<!DOCTYPE svg PUBLIC "-//W3C//DTD SVG 20010904//EN"
 "http://www.w3.org/TR/2001/REC-SVG-20010904/DTD/svg10.dtd">
<svg version="1.0" xmlns="http://www.w3.org/2000/svg"
 width="1500.000000pt" height="1500.000000pt" viewBox="0 0 1500.000000 1500.000000"
 preserveAspectRatio="xMidYMid meet">
<metadata>
Created by potrace 1.16, written by Peter Selinger 2001-2019
</metadata>
<g transform="translate(0.000000,1500.000000) scale(0.100000,-0.100000)"
fill="#000000" stroke="none">
<path d="M4940 10163 c-210 -33 -547 -122 -1010 -268 -336 -106 -419 -143
-489 -222 -58 -64 -131 -207 -181 -348 -17 -49 -32 -90 -33 -92 -2 -1 -57 -18
-122 -38 -202 -61 -275 -115 -275 -201 0 -86 43 -139 140 -172 l48 -17 -104
-245 c-57 -135 -112 -261 -121 -280 l-18 -35 -140 -27 c-203 -39 -1205 -213
-1370 -237 -173 -26 -281 -49 -318 -68 -60 -30 -53 -103 13 -135 19 -9 130
-37 245 -61 309 -66 375 -85 375 -109 0 -12 -29 -140 -65 -287 l-66 -266 -155
-53 c-220 -74 -312 -121 -401 -205 -205 -195 -608 -844 -667 -1073 -19 -72
-21 -162 -5 -219 16 -58 80 -183 140 -272 66 -98 177 -233 192 -233 7 0 86 -7
177 -14 91 -8 221 -17 290 -21 318 -15 542 -30 1325 -85 1371 -97 2545 -173
3620 -235 242 -14 582 -34 755 -45 622 -39 761 -44 1185 -44 626 -1 923 26
1450 130 1017 201 1833 538 2684 1108 874 585 1690 1366 2502 2396 303 383
312 404 199 452 -347 149 -1708 301 -3120 348 -378 13 -1165 13 -1340 0 -197
-14 -270 -3 -442 65 -452 181 -871 440 -1257 777 -75 65 -155 128 -178 139
-70 34 -184 48 -466 59 -583 21 -1262 -27 -2019 -145 l-158 -24 -201 99 c-202
100 -371 171 -464 196 -48 13 -102 16 -155 7z m157 -147 c38 -13 130 -52 204
-86 74 -34 155 -72 181 -83 26 -12 48 -24 48 -27 0 -3 -57 -16 -128 -28 -518
-96 -1024 -223 -1807 -453 -93 -28 -178 -53 -188 -55 -15 -5 -14 3 9 68 33 90
67 160 108 216 45 64 142 105 491 210 421 126 610 177 905 245 89 21 97 20
177 -7z m3215 -205 c51 -8 68 -18 158 -92 55 -46 100 -86 100 -89 0 -3 -125
-4 -277 -2 -1060 12 -2318 -176 -3663 -548 -270 -75 -661 -204 -742 -246 -16
-8 -35 -31 -44 -52 -9 -20 -89 -212 -178 -427 -170 -407 -231 -564 -218 -566
25 -3 113 4 212 17 164 21 780 130 874 155 43 11 80 18 83 15 7 -7 26 -1 -267
-76 -548 -140 -1239 -329 -1490 -409 -159 -50 -280 -80 -280 -70 0 20 136 343
357 849 124 283 236 543 249 577 l23 61 -78 21 c-42 12 -85 21 -94 21 -96 0
153 87 708 245 913 261 1574 406 2326 509 390 54 665 80 1269 120 109 7 916
-3 972 -13z m569 -402 c305 -214 448 -298 704 -410 l100 -44 -215 -17 c-310
-25 -807 -75 -1010 -103 l-175 -23 -80 77 c-44 42 -170 158 -280 256 -110 99
-245 225 -299 280 l-100 100 49 3 c247 15 402 19 727 21 l378 1 201 -141z
m-1425 80 c82 -65 724 -683 717 -690 -5 -4 -145 -28 -313 -54 -346 -53 -684
-113 -1004 -180 -120 -25 -220 -44 -221 -43 -17 26 -204 252 -327 396 -88 103
-198 234 -245 292 -72 90 -81 105 -65 111 87 32 984 164 1282 188 58 4 112 9
121 10 9 0 34 -13 55 -30z m-1494 -271 c135 -152 591 -708 585 -715 -2 -2
-134 -32 -293 -68 -159 -35 -530 -123 -824 -195 -758 -186 -919 -224 -1230
-290 -151 -33 -344 -75 -429 -94 -194 -44 -241 -52 -241 -37 0 17 41 121 145
366 53 127 131 310 172 408 l76 179 45 19 c57 25 461 152 716 225 350 101
1043 265 1193 283 6 0 44 -36 85 -81z m6303 -448 c757 -22 1186 -52 1705 -121
240 -31 390 -58 390 -68 0 -4 -35 -8 -77 -9 -43 -1 -96 -5 -118 -7 -22 -3
-188 -17 -370 -30 -1277 -98 -3142 -307 -4550 -511 -1327 -192 -2670 -429
-3705 -655 -1936 -423 -4080 -1027 -5054 -1425 -44 -18 159 322 314 525 220
289 242 301 890 504 821 257 1116 339 2165 601 1360 339 2233 531 3300 725
1620 295 2651 418 3875 461 589 21 796 22 1235 10z m2255 -349 c0 -29 -363
-454 -732 -858 -188 -206 -177 -200 -758 -367 -575 -165 -1406 -362 -2345
-556 -1380 -285 -2889 -540 -5170 -875 -628 -92 -1030 -151 -1630 -240 -593
-88 -1151 -166 -1680 -235 -170 -22 -465 -61 -654 -86 -403 -53 -675 -82 -821
-86 l-105 -3 -97 130 c-54 72 -115 163 -135 204 -36 70 -38 80 -38 165 0 88 2
95 46 187 l47 96 153 51 c344 114 1504 447 2129 611 63 16 160 42 214 56 143
37 797 194 1128 269 3236 741 6277 1202 9923 1505 198 17 378 32 400 34 82 7
125 7 125 -2z m-11824 -382 c-3 -18 -21 -62 -40 -98 -39 -78 -16 -70 -356
-125 -118 -20 -276 -48 -350 -62 -196 -39 -304 -38 -440 3 -58 17 -125 37
-150 44 l-45 12 115 18 c63 11 243 44 400 74 691 135 836 163 854 164 16 1 18
-4 12 -30z m-126 -328 c0 -31 -54 -55 -320 -146 -157 -54 -356 -124 -443 -157
-88 -33 -162 -57 -165 -53 -3 3 7 61 24 128 l30 122 74 13 c107 18 718 99 763
101 20 0 37 -3 37 -8z m-81 -193 c0 -7 -15 -44 -32 -82 l-32 -68 -125 -38
c-69 -21 -243 -76 -386 -123 -144 -47 -278 -89 -298 -92 -33 -7 -36 -5 -36 16
1 13 11 53 23 89 l22 64 75 24 c145 46 755 220 773 221 9 1 17 -5 16 -11z
m10932 -327 c-67 -85 -544 -520 -616 -562 -66 -38 -114 -56 -362 -133 -1155
-358 -2329 -602 -3923 -815 -925 -124 -2519 -292 -4050 -426 -223 -19 -517
-46 -655 -60 -687 -67 -1161 -98 -1760 -115 -439 -12 -922 -13 -909 -1 5 5
115 16 244 26 491 34 931 80 1695 176 1475 184 2959 394 4385 619 2544 402
3920 690 5310 1110 204 62 604 195 630 211 35 20 40 7 11 -30z m-881 -784 c-9
-7 -61 -48 -115 -93 -793 -641 -1749 -1112 -2736 -1348 -690 -165 -1340 -229
-2098 -206 -320 10 -535 21 -2516 135 -621 36 -1206 70 -1300 75 -323 18 -377
23 -364 30 14 8 153 21 429 41 80 5 258 21 395 34 138 13 437 40 665 60 1207
103 1889 171 2880 286 1997 230 3154 461 4383 874 199 67 369 123 377 123 13
1 13 0 0 -11z"/>
</g>
</svg>
