<svg xmlns="http://www.w3.org/2000/svg" shape-rendering="geometricPrecision" text-rendering="geometricPrecision" image-rendering="optimizeQuality" fill-rule="evenodd" clip-rule="evenodd" viewBox="0 0 410 511.42"><path fill-rule="nonzero" d="M408.81 114.62L258.59 503.8c-1.82 4.7-6.31 7.58-11.07 7.58v.04H71.2c-6.58 0-11.91-5.33-11.91-11.9 0-1.95.47-3.78 1.29-5.4L193.3 159.73l-169.56 2.12c-6.27.08-11.46-4.73-11.96-10.88h-.04L.04 12.88C-.5 6.33 4.38.59 10.92.05c.33-.03.66-.04.98-.04L398.1 0c6.57 0 11.9 5.33 11.9 11.91v97.51c0 1.87-.43 3.63-1.19 5.2zM239.39 487.61l146.8-380.3v-83.5H24.85L34.53 138l176.18-2.21c1.51-.01 3.03.26 4.52.84 6.08 2.42 9.06 9.31 6.65 15.4L88.68 487.61h150.71z"/></svg>
