<svg xmlns="http://www.w3.org/2000/svg" shape-rendering="geometricPrecision" text-rendering="geometricPrecision" image-rendering="optimizeQuality" fill-rule="evenodd" clip-rule="evenodd" viewBox="0 0 471 511.58"><path fill-rule="nonzero" d="M240.37 499.68v-66.14H11.91C5.33 433.54 0 428.21 0 421.63v-97.55c0-1.92.46-3.74 1.27-5.35L121.02 7.68c1.81-4.72 6.31-7.62 11.08-7.63V0h276.27c6.57 0 11.91 5.33 11.91 11.91v263.58h38.81c6.58 0 11.91 5.33 11.91 11.9v134.24c0 6.58-5.33 11.91-11.91 11.91h-38.81v66.14c0 6.57-5.34 11.9-11.91 11.9H252.28c-6.58 0-11.91-5.33-11.91-11.9zm23.81-78.05v66.14h132.28v-66.14c0-6.58 5.33-11.91 11.91-11.91h38.81V299.3h-38.81c-6.58 0-11.91-5.33-11.91-11.91V23.82H140.21L23.82 326.14v83.58h228.46c6.57 0 11.9 5.33 11.9 11.91zm-23.81-253.71L193.2 275.49h47.17V167.92zm-76.24 114.73l69.1-157.59c1.61-4.65 6.04-8 11.25-8h7.8c6.57 0 11.9 5.34 11.9 11.91v158.42c0 6.58-5.33 11.91-11.9 11.91h-77.27v-.03c-1.58 0-3.19-.32-4.74-.99-6.01-2.62-8.76-9.62-6.14-15.63z"/></svg>