<svg xmlns="http://www.w3.org/2000/svg" shape-rendering="geometricPrecision" text-rendering="geometricPrecision" image-rendering="optimizeQuality" fill-rule="evenodd" clip-rule="evenodd" viewBox="0 0 409 511.83"><path fill-rule="nonzero" d="M224.99 176.4v-27.41c-5.21-.55-11.19-.99-17.93-1.34-11.44-.59-25.58-.89-42.43-.89-16.43 0-34.64 1.26-54.64 3.78-20.21 2.54-42.66 6.4-67.35 11.59-6.43 1.34-12.72-2.79-14.06-9.21l-.07-.38h-.02L9.11 42.28c-1.07-6.15 2.78-12.02 8.72-13.57 30.57-9.5 60.76-16.64 90.55-21.44C138.46 2.42 167.89 0 196.67 0c24.61 0 45.92.76 63.92 2.28 18.22 1.54 33.22 3.92 44.99 7.13 11.56 3.15 21.64 6.64 30.22 10.48 9.03 4.02 16.55 8.48 22.58 13.36l.18.15.01-.01c12.94 10.97 22.65 24.74 29.1 41.3 6.27 16.08 9.41 34.65 9.41 55.69 0 26.89-5.7 50.21-17.09 69.98-8.61 14.93-20.36 27.64-35.27 38.13 18.62 10.27 33.23 23.39 43.84 39.36C402.19 298.36 409 323.21 409 352.4c0 13.7-1.1 26.6-3.31 38.69-2.23 12.26-5.57 23.44-10.01 33.52-4.4 10.01-9.43 18.97-15.09 26.87-5.75 8.05-12.15 14.96-19.18 20.72-6.95 5.7-14.92 10.76-23.88 15.18-8.78 4.32-18.62 8.08-29.53 11.27l-.14.04c-15.79 4.41-34.68 7.7-56.67 9.88-21.92 2.17-46.68 3.26-74.27 3.26-27.8 0-55.73-1.65-83.76-4.94-27.98-3.28-55.97-8.21-83.96-14.76-6.31-1.47-10.27-7.71-8.94-14.02l20.78-122.46c1.07-6.47 7.2-10.85 13.68-9.77.48.08.95.19 1.41.32 22.89 5.53 44.11 9.69 63.67 12.49 19.34 2.76 36.98 4.14 52.92 4.14 16.56 0 31.56-.35 44.99-1.07 9.73-.51 18.82-1.2 27.28-2.06v-26.35l-117.4-11.6c-6.14-.6-10.72-5.78-10.71-11.82h-.04V201.9c0-6.32 4.93-11.5 11.16-11.89l116.99-13.61zm23.83-37.83v48.42h-.02c.01 5.98-4.47 11.13-10.55 11.83l-117.58 13.67v86.68l116.48 11.51c6.47.14 11.67 5.42 11.67 11.91v47.69h-.05c.01 5.89-4.38 11.01-10.38 11.77-12.1 1.54-25.26 2.69-39.47 3.45-14.62.77-30.02 1.16-46.2 1.16-16.86 0-35.61-1.47-56.27-4.42-16.72-2.39-34.75-5.78-54.08-10.18l-16.86 99.36c23.49 5.14 46.94 9.08 70.35 11.83a695.99 695.99 0 0081.06 4.75c27.3 0 51.28-1.03 71.94-3.07 20.62-2.05 38.17-5.09 52.68-9.13 9.39-2.76 17.89-6 25.47-9.74 7.42-3.65 13.86-7.72 19.32-12.2 5.39-4.41 10.36-9.8 14.9-16.15 4.66-6.51 8.88-14.07 12.67-22.68 3.76-8.54 6.57-17.92 8.43-28.13 1.89-10.39 2.84-21.89 2.84-34.5 0-24.46-5.48-44.93-16.44-61.43-10.81-16.28-27.17-29.03-49.06-38.24-4.79-1.55-8.26-6.04-8.26-11.34v-3.73h.03c0-4.27 2.31-8.39 6.35-10.52 18.6-9.86 32.48-22.73 41.63-38.6 9.22-16 13.83-35.38 13.83-58.16 0-18.2-2.58-33.91-7.73-47.13-4.97-12.75-12.41-23.32-22.31-31.71-4.37-3.51-10.07-6.83-17.09-9.97-7.55-3.37-16.47-6.46-26.77-9.27-10.09-2.74-23.66-4.84-40.71-6.28-17.26-1.46-37.91-2.19-61.97-2.19-27.84 0-56.03 2.3-84.56 6.89-25.43 4.1-51.34 10.04-77.72 17.83l15.44 87.86c20.39-4.05 39.48-7.18 57.28-9.42 21.49-2.7 40.66-4.05 57.52-4.05 16.43 0 30.98.32 43.64.97 12.11.63 22.04 1.56 29.78 2.8 6.04.58 10.77 5.67 10.77 11.86z"/></svg>
