<svg xmlns="http://www.w3.org/2000/svg" shape-rendering="geometricPrecision" text-rendering="geometricPrecision" image-rendering="optimizeQuality" fill-rule="evenodd" clip-rule="evenodd" viewBox="0 0 419 512.2"><path fill-rule="nonzero" d="M184.14 148.36v55.94h18.65c7.68 0 13.99-.41 18.94-1.22 4.34-.7 7.49-1.62 9.44-2.75.73-.42 1.42-1.47 2.05-3.13 1.08-2.88 1.63-6.98 1.63-12.29v-55.94h-18.64c-7.67 0-13.99.41-18.94 1.22-4.34.7-7.5 1.62-9.44 2.74-.74.43-1.43 1.48-2.05 3.14-1.09 2.89-1.64 6.99-1.64 12.29zm-23.85 67.86v-67.86c0-8.08 1.08-14.99 3.22-20.68 2.62-6.92 6.78-12.04 12.49-15.33 4.5-2.59 10.33-4.48 17.45-5.64 6.48-1.05 14.07-1.59 22.76-1.59h30.57c6.58 0 11.92 5.34 11.92 11.93v67.86c0 8.1-1.08 14.99-3.22 20.68-2.61 6.92-6.78 12.04-12.48 15.33-4.5 2.59-10.32 4.47-17.45 5.63-6.47 1.06-14.06 1.59-22.76 1.59h-30.57c-6.59 0-11.93-5.34-11.93-11.92zm74.56 122.73l-25.66-.52c-40.69-.77-74.77-4.74-102.21-11.92-28.59-7.48-50.35-18.53-65.28-33.13-14.06-13.51-24.58-30.59-31.54-51.21C3.39 222.12 0 198.81 0 172.23c0-34.44 5.27-63.45 15.79-87.05 10.88-24.37 27.26-42.79 49.16-55.26l.69-.36c10.14-5.67 20.49-10.43 31.05-14.27 10.85-3.95 22.02-6.98 33.5-9.09 11.36-2.09 23.62-3.64 36.77-4.66C180.22.52 194.41 0 209.5 0c38.88 0 71.95 5.11 99.2 15.33 28.1 10.54 49.92 26.45 65.47 47.72 15.14 20.71 26.43 47.37 33.88 79.96 7.3 31.96 10.95 69.66 10.95 113.09 0 43.44-3.65 81.14-10.95 113.1-7.45 32.58-18.74 59.24-33.88 79.96-15.53 21.25-36.79 37.14-63.79 47.66-26.29 10.26-57.93 15.38-94.92 15.38-35.74 0-69.69-1.65-101.86-4.94-32.15-3.29-62.22-8.21-90.22-14.77-6.31-1.47-10.28-7.72-8.95-14.03l20.79-122.55c1.08-6.48 7.22-10.86 13.7-9.78.48.08.96.19 1.41.33 22.9 5.53 43.96 9.7 63.16 12.49 19 2.77 36.09 4.15 51.28 4.15 15.81 0 30.26-.36 43.34-1.07 9.46-.52 18.37-1.21 26.74-2.06v-21.02zm-25.12-24.27l36.25.73.8-.03c6.58 0 11.92 5.34 11.92 11.92v43.25h-.05c.01 5.9-4.38 11.02-10.38 11.78-12.11 1.54-25.09 2.7-38.95 3.45-14.23.78-29.09 1.17-44.55 1.17-16.14 0-34.35-1.48-54.63-4.43-16.43-2.39-34.29-5.79-53.57-10.18L39.7 471.75c24.02 5.15 49.46 9.1 76.32 11.85 30.95 3.17 64.1 4.75 99.44 4.75 34.09 0 62.84-4.56 86.26-13.69 22.7-8.86 40.46-22.05 53.27-39.57 13.19-18.05 23.15-41.79 29.86-71.2 6.87-30.05 10.3-65.98 10.3-107.79 0-41.8-3.43-77.73-10.29-107.78-6.72-29.41-16.68-53.15-29.87-71.2C342.2 59.62 324 46.45 300.41 37.6c-24.44-9.17-54.74-13.75-90.91-13.75-14.73 0-28.32.48-40.77 1.44-12.58.98-24 2.41-34.25 4.29a184.698 184.698 0 00-29.69 8.06c-9.5 3.46-18.67 7.66-27.53 12.61l-.58.35C59.32 60.49 46.25 75.25 37.5 94.87c-9.1 20.39-13.65 46.18-13.65 77.36 0 24.12 2.95 44.92 8.85 62.39 5.71 16.9 14.21 30.78 25.49 41.62l.09.09c11.92 11.7 30.14 20.75 54.66 27.17 25.71 6.73 57.95 10.46 96.72 11.18h.07z"/></svg>
