<svg xmlns="http://www.w3.org/2000/svg" shape-rendering="geometricPrecision" text-rendering="geometricPrecision" image-rendering="optimizeQuality" fill-rule="evenodd" clip-rule="evenodd" viewBox="0 0 419 512.2"><path fill-rule="nonzero" d="M234.86 348.92v-46.98h-18.65c-7.67 0-14 .41-18.96 1.22-4.32.7-7.47 1.62-9.42 2.75-.74.42-1.42 1.47-2.05 3.12-1.08 2.89-1.63 7-1.63 12.3v46.98h18.64c7.69 0 14.01-.4 18.96-1.21 4.32-.7 7.47-1.62 9.42-2.75.75-.43 1.44-1.47 2.06-3.12 1.09-2.89 1.63-6.99 1.63-12.31zm23.85-58.9v58.9c0 8.11-1.08 15.01-3.22 20.69-2.61 6.93-6.77 12.03-12.49 15.33-4.5 2.59-10.32 4.47-17.43 5.63-6.48 1.06-14.07 1.59-22.78 1.59h-30.57c-6.58 0-11.92-5.34-11.92-11.92v-58.91c0-8.09 1.08-14.99 3.22-20.68 2.61-6.92 6.77-12.04 12.48-15.33 4.5-2.59 10.31-4.47 17.43-5.63 6.49-1.06 14.09-1.59 22.78-1.59h30.57c6.59 0 11.93 5.34 11.93 11.92zm144.31-37.27c5.35 11.9 9.36 25.21 12.02 39.93 2.64 14.58 3.96 30.35 3.96 47.3 0 16.94-1.32 32.71-3.96 47.29-2.66 14.72-6.67 28.03-12.02 39.94-5.47 12.17-12.27 22.84-20.41 32.01-8.2 9.24-17.74 16.93-28.6 23.07l-.02.01.02.03a211.968 211.968 0 01-31.69 14.59 209.38 209.38 0 01-33.5 9.09c-11.38 2.08-23.64 3.64-36.79 4.65-13.26 1.03-27.44 1.54-42.53 1.54-38.88 0-71.95-5.11-99.2-15.33-28.1-10.53-49.93-26.44-65.47-47.71-15.14-20.72-26.43-47.34-33.88-79.88C3.65 337.39 0 299.79 0 256.48c0-21.65.84-41.77 2.52-60.35 1.66-18.46 4.17-35 7.5-49.63 3.42-14.99 8.24-29.09 14.45-42.3 6.2-13.21 13.8-25.51 22.79-36.9l-.01-.01c17.66-22.82 43.41-39.83 77.26-51.02C157.29 5.42 197.8 0 246.04 0c9.72 0 21.01.54 33.87 1.63 12.34 1.05 26.56 2.66 42.64 4.85 15.81 2.15 29.53 4.33 41.15 6.53 12 2.27 21.88 4.57 29.63 6.89 5.93 1.77 9.46 7.75 8.29 13.7l-22.36 114.07c-1.26 6.45-7.52 10.66-13.98 9.4l-.05-.01c-19.94-3.43-39.18-5.99-57.73-7.67a609.486 609.486 0 00-55.12-2.52c-18 0-33.48.55-46.46 1.63-8.33.7-15.59 1.61-21.77 2.72v16.54h25.35c15.09 0 29.27.51 42.53 1.54 13.15 1.01 25.42 2.57 36.79 4.65a209.38 209.38 0 0133.5 9.09c10.78 3.92 21.34 8.8 31.69 14.63 10.86 6.13 20.4 13.82 28.6 23.07 8.14 9.17 14.94 19.84 20.41 32.01zm-11.36 44.12c-2.31-12.74-5.75-24.22-10.34-34.43-4.47-9.95-9.97-18.6-16.5-25.96a86.92 86.92 0 00-22.46-18.13c-9.04-5.1-18.43-9.42-28.15-12.95-9.65-3.51-19.55-6.2-29.68-8.07-10.26-1.88-21.68-3.31-34.26-4.28-12.45-.96-26.05-1.44-40.77-1.44h-37.28c-6.58 0-11.92-5.34-11.92-11.93v-38.02h.03c-.01-5.28 3.53-10.1 8.87-11.5 9.19-2.44 20.78-4.24 34.76-5.41 13.73-1.15 29.87-1.72 48.42-1.72 18.29 0 37.38.9 57.26 2.7 16 1.45 32.16 3.46 48.46 6.02l18-91.81c-4.98-1.19-10.57-2.38-16.78-3.55-11.37-2.15-24.68-4.27-39.94-6.35-14.99-2.03-28.8-3.59-41.42-4.66-12.12-1.02-22.76-1.53-31.92-1.53-45.71 0-83.74 5.01-114.08 15.05-29.28 9.68-51.25 23.99-65.9 42.92l-.01-.01-.08.11c-7.87 9.95-14.54 20.74-19.99 32.34-5.47 11.63-9.72 24.12-12.76 37.46-3.13 13.71-5.48 29.23-7.04 46.56-1.56 17.2-2.33 36.6-2.33 58.2 0 41.67 3.43 77.51 10.29 107.5 6.72 29.35 16.68 53.05 29.87 71.11 12.79 17.5 30.99 30.67 54.58 39.52 24.43 9.16 54.74 13.74 90.91 13.74 14.72 0 28.31-.48 40.76-1.44 12.58-.97 24.01-2.4 34.27-4.29a183.83 183.83 0 0029.68-8.06c9.57-3.48 18.95-7.81 28.15-13l.02.04c8.5-4.8 15.98-10.84 22.44-18.12 6.53-7.36 12.03-16.01 16.5-25.96 4.59-10.21 8.03-21.69 10.34-34.44 2.33-12.87 3.49-27.24 3.49-43.1 0-15.87-1.16-30.24-3.49-43.11z"/></svg>