<svg xmlns="http://www.w3.org/2000/svg" shape-rendering="geometricPrecision" text-rendering="geometricPrecision" image-rendering="optimizeQuality" fill-rule="evenodd" clip-rule="evenodd" viewBox="0 0 423 512.53"><path fill-rule="nonzero" d="M39.64 444.83c-7.52-11.47-13.89-23.86-19.12-37.16-5.18-13.16-9.21-27.2-12.08-42.1-2.83-14.65-4.94-31.11-6.34-49.38C.7 297.93 0 277.96 0 256.27c0-21.69.7-41.66 2.1-59.92 1.4-18.27 3.51-34.73 6.34-49.38 2.87-14.9 6.9-28.94 12.08-42.1 5.23-13.3 11.6-25.69 19.12-37.16 7.78-11.9 17.33-22.22 28.62-30.96 11.12-8.61 23.92-15.62 38.38-21.03 14.17-5.3 30.06-9.25 47.65-11.85C171.78 1.29 190.97 0 211.87 0c20.91 0 40.08 1.29 57.49 3.87 17.61 2.61 33.42 6.56 47.43 11.85 14.28 5.39 27 12.4 38.14 21.03 11.22 8.69 20.8 18.98 28.72 30.86l.04.06.01-.01c7.67 11.52 14.13 23.93 19.35 37.22 5.17 13.14 9.13 27.2 11.88 42.18 2.72 14.72 4.74 31.2 6.07 49.43 1.33 18.34 2 38.39 2 60.16 0 21.76-.67 41.78-2 60.05-1.33 18.18-3.35 34.56-6.07 49.14-2.77 14.94-6.73 28.93-11.88 41.97-5.18 13.1-11.63 25.46-19.36 37.06l.01.01c-7.93 11.9-17.53 22.21-28.77 30.91-11.14 8.63-23.86 15.65-38.14 21.04-14.01 5.28-29.82 9.23-47.42 11.84-17.42 2.57-36.58 3.86-57.5 3.86-20.9 0-40.1-1.29-57.59-3.86-17.59-2.6-33.47-6.55-47.64-11.84-14.46-5.41-27.26-12.42-38.38-21.04-11.29-8.74-20.84-19.07-28.62-30.96zm3.06-45.82c4.6 11.68 10.22 22.61 16.88 32.77 6.38 9.74 14.12 18.14 23.22 25.18 9.27 7.18 19.98 13.05 32.14 17.59 12.43 4.65 26.69 8.16 42.79 10.53 16.21 2.4 34.27 3.59 54.14 3.59 19.88 0 37.9-1.19 54.05-3.58 15.97-2.37 30.13-5.88 42.48-10.54 12.08-4.56 22.74-10.42 31.99-17.58 9.14-7.08 16.96-15.5 23.45-25.23h.02l.03-.05c6.68-10.01 12.34-20.89 16.98-32.64 4.67-11.82 8.23-24.32 10.67-37.49 2.51-13.52 4.41-29.03 5.69-46.54 1.27-17.41 1.91-36.87 1.91-58.37 0-21.51-.64-41.01-1.91-58.48-1.28-17.58-3.18-33.19-5.69-46.82-2.46-13.36-6.02-25.96-10.67-37.8-4.6-11.71-10.28-22.62-17.03-32.75l.02-.01c-6.5-9.72-14.32-18.13-23.47-25.21-9.25-7.16-19.91-13.03-31.99-17.58-12.35-4.66-26.51-8.18-42.49-10.55-16.14-2.39-34.16-3.59-54.04-3.59-19.87 0-37.91 1.2-54.13 3.59-16.1 2.38-30.37 5.9-42.8 10.55-12.16 4.54-22.87 10.4-32.14 17.58-9.1 7.04-16.84 15.44-23.22 25.17-6.66 10.17-12.29 21.1-16.88 32.79-4.65 11.82-8.27 24.46-10.87 37.9-2.64 13.71-4.63 29.27-5.96 46.68-1.34 17.43-2.01 36.82-2.01 58.15s.67 40.72 2.01 58.15c1.33 17.41 3.32 32.97 5.96 46.67 2.6 13.45 6.22 26.09 10.87 37.92zm134.86-227.42v196.96h19.4c20.45 0 34.27-1.89 41.45-5.68 1.95-1.03 3.49-2.91 4.62-5.65 1.62-3.9 2.43-9.33 2.43-16.27V143.98h-23.14c-10.42 0-19.05.52-25.88 1.54-5.99.9-10.35 2.11-13.06 3.64-1.42.79-2.61 2.54-3.59 5.22-1.49 4.11-2.23 9.84-2.23 17.21zm-23.87 208.9v-208.9c0-10.04 1.24-18.48 3.73-25.31 3-8.26 7.77-14.23 14.31-17.91 5.24-2.94 12.33-5.09 21.26-6.43 8.09-1.21 17.86-1.82 29.33-1.82h35.07c6.59 0 11.93 5.34 11.93 11.93v208.9c0 9.96-1.43 18.4-4.29 25.31-3.35 8.09-8.52 13.98-15.53 17.67-10.71 5.66-28.23 8.49-52.54 8.49h-31.34c-6.59 0-11.93-5.35-11.93-11.93z"/></svg>