<svg xmlns="http://www.w3.org/2000/svg" shape-rendering="geometricPrecision" text-rendering="geometricPrecision" image-rendering="optimizeQuality" fill-rule="evenodd" clip-rule="evenodd" viewBox="0 0 423 512.29"><path fill-rule="nonzero" d="M30.72 156.69L10.88 42.98c-1.08-6.15 2.78-12.02 8.71-13.57 32.48-9.78 64.9-17.12 97.23-22.02 32.54-4.92 65-7.39 97.35-7.39 12.11 0 23.92.21 35.4.62 10.73.38 20.52.97 29.35 1.76 9.24.83 18.43 2.23 27.56 4.21 9.1 1.96 18.52 4.57 28.23 7.81l.58.21c9.77 3.29 18.51 7.17 26.22 11.64 8.21 4.75 15.33 10.14 21.36 16.18C396.4 55.96 406.53 73 413.24 93.54c6.5 19.93 9.76 43.1 9.76 69.5 0 26.64-3.83 49.93-11.48 69.87-7.86 20.5-19.72 37.39-35.55 50.68-15.01 12.6-38.05 26.01-69.1 40.22-28.7 13.13-64.27 26.99-106.72 41.58v.94h203.29c6.59 0 11.92 5.34 11.92 11.92v122.11c0 6.59-5.33 11.93-11.92 11.93H11.93C5.34 512.29 0 506.95 0 500.36v-95.39c0-14.98 1.42-29.67 4.24-44.07 2.81-14.29 7.05-28.33 12.72-42.11l.14-.33c3.84-8.56 10.17-17.74 18.98-27.54 8.34-9.26 19.14-19.33 32.41-30.21l.36-.29c7.26-6.13 15.66-12.09 25.19-17.87 9.74-5.91 20.52-11.6 32.34-17.05l33.82-15.55 31.86-14.6c6.97-3.18 16.28-7.49 27.82-12.86l15.18-7.1V152.4c-7.5-.72-14.76-1.29-21.78-1.71-10.03-.6-19.91-.91-29.63-.91-23 0-46 1.37-69.01 4.11-23.1 2.74-46.26 6.86-69.48 12.35-6.41 1.49-12.81-2.49-14.3-8.9l-.14-.65zm5.46-107.33l15.86 90.9a640.09 640.09 0 0159.81-10.04c24.05-2.86 47.99-4.29 71.8-4.29 9.61 0 19.95.34 31.03 1 10.61.64 21.58 1.59 32.9 2.83 6.31.31 11.33 5.52 11.33 11.91v41.21h-.04c-.01 4.43-2.5 8.68-6.76 10.72-8.65 4.15-16.07 7.66-22.17 10.5-5.11 2.38-14.4 6.65-28.01 12.86l-31.86 14.6-33.72 15.55c-11.31 5.22-21.32 10.47-30.02 15.75-8.49 5.16-15.88 10.38-22.15 15.66l-.6.54c-12.17 9.98-22.11 19.25-29.79 27.79-7.16 7.95-12.14 15.01-14.92 21.17a199.378 199.378 0 00-11.24 37.45c-2.52 12.81-3.78 25.99-3.78 39.5v83.47h367.66v-98.26H188.23c-6.59 0-11.93-5.34-11.93-11.93v-21.37h.02c0-4.96 3.13-9.59 8.09-11.27 45.53-15.43 83.07-29.91 112.59-43.42 28.98-13.26 50.21-25.55 63.69-36.86 12.66-10.62 22.18-24.25 28.56-40.9 6.6-17.19 9.9-37.65 9.9-61.39 0-23.97-2.85-44.68-8.55-62.14-5.51-16.85-13.7-30.73-24.59-41.61-4.66-4.66-10.13-8.81-16.42-12.45-6.48-3.75-13.77-6.99-21.86-9.72l-.56-.18c-8.59-2.86-17.16-5.22-25.72-7.06-8.57-1.85-16.76-3.13-24.58-3.83-8.22-.74-17.61-1.3-28.14-1.67-9.73-.35-21.25-.53-34.56-.53-31.24 0-62.51 2.37-93.81 7.11-28.02 4.24-56.08 10.38-84.18 18.4z"/></svg>
