<svg xmlns="http://www.w3.org/2000/svg" shape-rendering="geometricPrecision" text-rendering="geometricPrecision" image-rendering="optimizeQuality" fill-rule="evenodd" clip-rule="evenodd" viewBox="0 0 426 512.24"><path fill-rule="nonzero" d="M.26 478.04L21.54 352.6c1.08-6.48 7.22-10.86 13.7-9.78.49.08.97.19 1.44.33 23.47 5.67 45.55 9.93 66.23 12.79 20.51 2.83 39.65 4.25 57.43 4.25 18.38 0 34.75-.37 49.09-1.1 10.4-.53 19.95-1.25 28.65-2.14v-16.88l-46.89-5.01c-32.03-3.37-58.95-7.8-80.77-13.3-22.73-5.74-40.34-12.74-52.8-21-13.3-8.81-23.25-21.04-29.85-36.69-6.31-14.96-9.47-32.88-9.47-53.74 0-2.29.66-20.48 1.97-54.58 1.3-33.76 3.2-81.87 5.71-144.29C26.23 5.06 31.51.03 37.86.04V0h347.22c6.59 0 11.93 5.34 11.93 11.92 0 .44-.03.86-.07 1.28l-11.43 131c-.56 6.56-6.34 11.42-12.9 10.85l-.41-.04-167.51-9.89v15.71l34.55 4.1c34.15 4.16 63.16 10.5 87.03 19.01 24.65 8.78 43.97 19.95 57.95 33.51 14.01 13.6 24.52 29.86 31.5 48.78 6.85 18.58 10.28 39.63 10.28 63.14 0 16.49-1.14 31.9-3.43 46.22-2.3 14.45-5.76 27.58-10.38 39.4-4.57 11.69-9.62 22.05-15.15 31.05-5.69 9.27-11.89 17.13-18.59 23.55-6.83 6.53-14.98 12.25-24.46 17.17-9.15 4.74-19.61 8.76-31.38 12.05-11.34 3.16-21.92 5.69-31.73 7.57-10.09 1.93-19.47 3.24-28.16 3.9-8.05.62-17.88 1.1-29.5 1.44-12.05.34-24.52.52-37.4.52-33.32 0-65.6-1.68-96.83-5.05-31.21-3.37-61.14-8.41-89.78-15.11-6.32-1.47-10.28-7.72-8.95-14.04zM42.9 369.02L25.53 471.34c24.47 5.3 49.8 9.36 75.98 12.19 30.07 3.24 61.51 4.86 94.31 4.86 14.58 0 26.82-.14 36.75-.43 10.42-.3 19.88-.78 28.38-1.43 7.85-.6 16.33-1.78 25.45-3.53 9.39-1.8 19.35-4.18 29.88-7.11 10.1-2.82 19.05-6.25 26.81-10.28 7.44-3.86 13.73-8.24 18.87-13.16 5.24-5.02 10.17-11.29 14.78-18.8 4.77-7.79 9.2-16.9 13.28-27.33 4.03-10.32 7.06-21.81 9.08-34.46 2.03-12.77 3.05-26.93 3.05-42.49 0-20.74-2.93-39.06-8.79-54.94-5.74-15.55-14.31-28.86-25.73-39.93-11.46-11.12-27.89-20.49-49.28-28.11-22.17-7.9-49.5-13.84-82-17.8l-44.47-5.29c-6.17-.45-11.04-5.6-11.04-11.89v-38.92h.03l.02-.7c.39-6.56 6.02-11.56 12.58-11.18l169.29 10 9.31-106.76H49.28c-2.33 58.12-4.09 102.37-5.25 132.74-1.25 32.49-1.88 50.41-1.88 53.74 0 17.8 2.51 32.65 7.51 44.52 4.72 11.19 11.76 19.88 21.1 26.07 10.17 6.75 25.33 12.66 45.44 17.73 20.89 5.27 46.73 9.53 77.49 12.76l56.79 6.05c6.36.25 11.45 5.49 11.45 11.91v38.17h-.04c0 5.88-4.36 11-10.35 11.78-12.09 1.57-25.72 2.75-40.9 3.52-15.54.8-32.31 1.2-50.3 1.2-18.6 0-38.83-1.51-60.69-4.53-17.83-2.46-36.75-5.96-56.75-10.49z"/></svg>