<svg xmlns="http://www.w3.org/2000/svg" shape-rendering="geometricPrecision" text-rendering="geometricPrecision" image-rendering="optimizeQuality" fill-rule="evenodd" clip-rule="evenodd" viewBox="0 0 419 512.2"><path fill-rule="nonzero" d="M116.63 12.08c13.42-4 27.98-7.02 43.67-9.05C175.94 1.01 192.34 0 209.5 0c17.17 0 33.57 1.01 49.21 3.03 15.69 2.03 30.25 5.05 43.67 9.05 14.03 4.18 27 10.16 38.9 17.94 11.84 7.73 22.62 17.27 32.33 28.6 9.93 11.59 17.39 24.85 22.37 39.8 4.91 14.72 7.36 30.88 7.36 48.45 0 25.34-4.53 47.75-13.6 67.25-7.36 15.82-17.64 29.59-30.83 41.33 5.79 3.6 11.25 7.69 16.39 12.26 8.53 7.59 16.22 16.58 23.06 26.98 6.85 10.42 12 21.18 15.42 32.29 3.48 11.28 5.22 22.82 5.22 34.62 0 50.34-18.16 88.26-54.47 113.74-35.01 24.57-86.69 36.86-155.03 36.86S89.48 499.91 54.47 475.34C18.16 449.86 0 411.94 0 361.6c0-11.8 1.74-23.34 5.22-34.62 3.43-11.11 8.58-21.87 15.43-32.29 6.84-10.4 14.53-19.39 23.06-26.98 5.08-4.52 10.48-8.57 16.2-12.15-13.1-11.37-23.31-24.94-30.64-40.7-9.08-19.49-13.61-42.16-13.61-67.99 0-17.57 2.45-33.73 7.36-48.45C28 83.47 35.46 70.21 45.39 58.62c9.71-11.33 20.5-20.87 32.34-28.6 11.89-7.78 24.87-13.76 38.9-17.94zm46.65 14.52c-14.13 1.82-27.42 4.59-39.85 8.3-11.8 3.52-22.69 8.54-32.66 15.05-10.03 6.55-19.14 14.6-27.31 24.14-7.97 9.29-13.93 19.88-17.9 31.78-4.04 12.11-6.06 25.78-6.06 41 0 22.39 3.79 41.74 11.37 58.03 7.32 15.72 18.29 28.79 32.91 39.19 3.41 2.1 5.68 5.86 5.68 10.15v5.22h-.03c0 4.45-2.52 8.73-6.82 10.75-8.38 3.97-16.07 9.07-23.06 15.29-7.12 6.33-13.48 13.74-19.06 22.23-5.58 8.48-9.76 17.22-12.54 26.24-2.73 8.86-4.1 18.07-4.1 27.63 0 42.12 14.77 73.54 44.31 94.28 30.85 21.65 77.97 32.47 141.34 32.47 63.38 0 110.49-10.82 141.34-32.47 29.54-20.74 44.31-52.16 44.31-94.28 0-9.56-1.36-18.77-4.1-27.63-2.78-9.02-6.95-17.77-12.53-26.24-5.58-8.49-11.94-15.9-19.06-22.23-6.8-6.04-14.25-11.03-22.35-14.95-4.43-1.74-7.56-6.05-7.56-11.09v-5.22h.03c0-3.65 1.68-7.26 4.86-9.59 15-10.98 26.23-24.48 33.69-40.5 7.58-16.29 11.37-35.38 11.37-57.28 0-15.22-2.02-28.89-6.06-41-3.97-11.9-9.93-22.49-17.9-31.78-8.17-9.54-17.28-17.59-27.3-24.14-9.97-6.51-20.86-11.53-32.66-15.05-12.44-3.71-25.72-6.48-39.85-8.3-14.18-1.83-29.6-2.75-46.23-2.75-16.63 0-32.04.92-46.22 2.75zm71.58 295.05c-4.6-.08-9.45-.32-14.38-.56-5.7-.28-11.53-.57-17.88-.57-10.09 0-18.45.4-18.45 2.31v52.94h18.64c7.69 0 14.01-.4 18.96-1.21 4.32-.7 7.47-1.62 9.42-2.75.75-.43 1.44-1.47 2.06-3.12 1.09-2.89 1.63-6.99 1.63-12.31v-34.73zm-13.26-24.31c8.65.43 17.02.84 23.15.33.66-.11 1.34-.17 2.03-.17 6.59 0 11.93 5.34 11.93 11.92v46.96c0 8.11-1.08 15-3.22 20.69-2.61 6.92-6.77 12.03-12.49 15.33-4.5 2.59-10.32 4.48-17.43 5.63-6.48 1.06-14.07 1.59-22.78 1.59h-30.56c-6.59 0-11.93-5.34-11.93-11.93v-64.86c0-21.69 19.16-26.15 42.3-26.15 5.54 0 12.34.33 19 .66zm-37.45-106.07l4.34-.03c18.7-.1 46.37-.24 46.37-2.61v-48.47h-18.65c-7.69 0-14.01.41-18.96 1.22-4.32.7-7.46 1.62-9.42 2.75-.74.42-1.42 1.47-2.05 3.13-1.09 2.89-1.63 6.99-1.63 12.29v31.72zm4.43 23.72c-5.85.03-10.97.06-14.35.3-.66.1-1.32.16-2 .16-6.59 0-11.93-5.33-11.93-11.92v-43.98c0-8.09 1.08-14.99 3.22-20.68 2.61-6.92 6.77-12.03 12.48-15.33 4.5-2.6 10.32-4.48 17.43-5.64 6.48-1.05 14.07-1.58 22.78-1.58h30.57c6.59 0 11.93 5.34 11.93 11.92v60.39c0 26-41.84 26.22-70.13 26.36z"/></svg>