<svg xmlns="http://www.w3.org/2000/svg" shape-rendering="geometricPrecision" text-rendering="geometricPrecision" image-rendering="optimizeQuality" fill-rule="evenodd" clip-rule="evenodd" viewBox="0 0 414 511.54"><path fill-rule="nonzero" d="M402.09 511.54H11.91C5.33 511.54 0 506.21 0 499.63V374.77c0-6.57 5.33-11.9 11.91-11.9h127V180.7L12.7 189.2c-6.55.44-12.22-4.52-12.65-11.07l-.03-.79H0V52.48c0-6 4.43-10.96 10.2-11.78L188.79.33c.87-.2 1.75-.29 2.61-.3V0h123.29c6.58 0 11.91 5.33 11.91 11.91v350.96h75.49c6.58 0 11.91 5.33 11.91 11.9v124.86c0 6.58-5.33 11.91-11.91 11.91zM23.82 487.73h366.36V386.68h-75.49c-6.58 0-11.91-5.33-11.91-11.91V23.82H192.56L23.82 61.96v102.66l125.49-8.46c.49-.06.99-.09 1.5-.09 6.58 0 11.91 5.33 11.91 11.91v206.79c0 6.58-5.33 11.91-11.91 11.91H23.82v101.05z"/></svg>
