<svg viewBox="0 0 200 200" xmlns="http://www.w3.org/2000/svg"><!-- Body --><ellipse cx="100" cy="110" rx="35" ry="45" fill="none" stroke="black" stroke-width="2"/><!-- Head --><circle cx="100" cy="55" r="30" fill="none" stroke="black" stroke-width="2"/><!-- Ears --><path d="M80 30 Q70 15 75 25 Q80 35 85 35" fill="none" stroke="black" stroke-width="2" stroke-linecap="round"/><path d="M120 30 Q130 15 125 25 Q120 35 115 35" fill="none" stroke="black" stroke-width="2" stroke-linecap="round"/><!-- Snout --><ellipse cx="100" cy="65" rx="15" ry="12" fill="none" stroke="black" stroke-width="2"/><!-- Nose --><circle cx="100" cy="65" r="3" fill="black"/><!-- Eyes --><circle cx="88" cy="48" r="4" fill="black"/><circle cx="112" cy="48" r="4" fill="black"/><!-- Front legs --><path d="M85 150 L80 180" stroke="black" stroke-width="2" stroke-linecap="round"/><path d="M115 150 L120 180" stroke="black" stroke-width="2" stroke-linecap="round"/><!-- Back legs --><path d="M70 130 L65 165" stroke="black" stroke-width="2" stroke-linecap="round"/><path d="M130 130 L135 165" stroke="black" stroke-width="2" stroke-linecap="round"/><!-- Tail --><path d="M70 100 Q40 80 45 50" fill="none" stroke="black" stroke-width="2" stroke-linecap="round"/></svg>