<svg viewBox="0 0 200 200" xmlns="http://www.w3.org/2000/svg"><!-- Body --><ellipse cx="100" cy="115" rx="30" ry="40" fill="none" stroke="black" stroke-width="2"/><!-- Head --><circle cx="100" cy="58" r="26" fill="none" stroke="black" stroke-width="2"/><!-- Pointed ears --><path d="M78 32 L70 10 L75 30" fill="none" stroke="black" stroke-width="2" stroke-linejoin="round"/><path d="M122 32 L130 10 L125 30" fill="none" stroke="black" stroke-width="2" stroke-linejoin="round"/><!-- Snout --><ellipse cx="100" cy="68" rx="10" ry="8" fill="none" stroke="black" stroke-width="1.5"/><!-- Nose --><circle cx="100" cy="68" r="2" fill="black"/><!-- Eyes (intense) --><circle cx="88" cy="50" r="3" fill="black"/><circle cx="112" cy="50" r="3" fill="black"/><!-- Whiskers --><path d="M72 60 L55 58" stroke="black" stroke-width="1.5"/><path d="M128 60 L145 58" stroke="black" stroke-width="1.5"/><!-- Front legs --><rect x="80" y="150" width="10" height="38" fill="none" stroke="black" stroke-width="2" rx="3"/><rect x="110" y="150" width="10" height="38" fill="none" stroke="black" stroke-width="2" rx="3"/><!-- Back legs --><rect x="68" y="145" width="10" height="40" fill="none" stroke="black" stroke-width="2" rx="3"/><rect x="122" y="145" width="10" height="40" fill="none" stroke="black" stroke-width="2" rx="3"/><!-- Tail (upright) --><path d="M68 105 Q50 85 55 55" fill="none" stroke="black" stroke-width="2" stroke-linecap="round"/></svg>