<svg viewBox="0 0 200 200" xmlns="http://www.w3.org/2000/svg"><!-- Body --><ellipse cx="100" cy="100" rx="28" ry="35" fill="none" stroke="black" stroke-width="2"/><!-- Neck --><rect x="92" y="65" width="16" height="20" fill="none" stroke="black" stroke-width="2"/><!-- Head --><circle cx="100" cy="55" r="22" fill="none" stroke="black" stroke-width="2"/><!-- Wings --><path d="M72 90 Q40 70 50 50" fill="none" stroke="black" stroke-width="2" stroke-linecap="round"/><path d="M128 90 Q160 70 150 50" fill="none" stroke="black" stroke-width="2" stroke-linecap="round"/><path d="M70 95 Q35 95 45 75" fill="none" stroke="black" stroke-width="2" stroke-linecap="round"/><path d="M130 95 Q165 95 155 75" fill="none" stroke="black" stroke-width="2" stroke-linecap="round"/><!-- Beak --><path d="M115 55 L135 50 L115 60 Z" fill="none" stroke="black" stroke-width="2"/><!-- Eye --><circle cx="105" cy="50" r="3" fill="black"/><!-- Legs --><path d="M95 130 L92 160" stroke="black" stroke-width="1.5" stroke-linecap="round"/><path d="M105 130 L108 160" stroke="black" stroke-width="1.5" stroke-linecap="round"/><!-- Feet --><path d="M92 160 L88 165 M92 160 L96 165" stroke="black" stroke-width="1.5" stroke-linecap="round"/><path d="M108 160 L104 165 M108 160 L112 165" stroke="black" stroke-width="1.5" stroke-linecap="round"/><!-- Tail feathers --><path d="M75 110 Q60 130 70 155" fill="none" stroke="black" stroke-width="2" stroke-linecap="round"/><path d="M125 110 Q140 130 130 155" fill="none" stroke="black" stroke-width="2" stroke-linecap="round"/></svg>