<svg viewBox="0 0 200 200" xmlns="http://www.w3.org/2000/svg"><!-- Body --><ellipse cx="100" cy="115" rx="31" ry="39" fill="none" stroke="black" stroke-width="2"/><!-- Stripe pattern guide --><path d="M70 100 Q90 95 100 100" stroke="black" stroke-width="1" stroke-dasharray="3,3" opacity="0.7"/><path d="M70 120 Q90 115 100 120" stroke="black" stroke-width="1" stroke-dasharray="3,3" opacity="0.7"/><!-- Head --><circle cx="100" cy="58" r="25" fill="none" stroke="black" stroke-width="2"/><!-- Ears --><ellipse cx="80" cy="38" rx="9" ry="16" fill="none" stroke="black" stroke-width="2"/><ellipse cx="120" cy="38" rx="9" ry="16" fill="none" stroke="black" stroke-width="2"/><!-- Snout --><ellipse cx="100" cy="68" rx="11" ry="9" fill="none" stroke="black" stroke-width="1.5"/><!-- Nose --><circle cx="100" cy="68" r="2.5" fill="black"/><!-- Eyes --><circle cx="88" cy="50" r="3" fill="black"/><circle cx="112" cy="50" r="3" fill="black"/><!-- Mane (stripe on neck) --><path d="M95 40 Q95 55 100 75" stroke="black" stroke-width="2" stroke-linecap="round" opacity="0.8"/><!-- Front legs --><rect x="81" y="150" width="10" height="38" fill="none" stroke="black" stroke-width="2" rx="3"/><rect x="109" y="150" width="10" height="38" fill="none" stroke="black" stroke-width="2" rx="3"/><!-- Back legs --><rect x="68" y="145" width="10" height="40" fill="none" stroke="black" stroke-width="2" rx="3"/><rect x="122" y="145" width="10" height="40" fill="none" stroke="black" stroke-width="2" rx="3"/><!-- Tail --><path d="M128 115 Q145 105 150 75" fill="none" stroke="black" stroke-width="2" stroke-linecap="round"/></svg>