<svg xmlns="http://www.w3.org/2000/svg" shape-rendering="geometricPrecision" text-rendering="geometricPrecision" image-rendering="optimizeQuality" fill-rule="evenodd" clip-rule="evenodd" viewBox="0 0 451 512.555"><path fill-rule="nonzero" d="M274.217 264.374l2.816 5.375a405.47 405.47 0 019.9 20.786 381.704 381.704 0 0111.447 29.153c3.47 10.002 6.418 19.797 8.84 29.365 2.47 9.786 4.358 19.421 5.626 28.866 1.291 9.591 1.941 18.705 1.941 27.336 0 16.986-2.692 32.124-8.071 45.392-5.511 13.582-13.803 25.095-24.857 34.518-10.789 9.193-23.199 16.088-37.201 20.654-13.768 4.486-28.998 6.736-45.683 6.736-13.755 0-26.395-1.839-37.896-5.507-11.712-3.739-22.081-9.37-31.097-16.88-9.569-7.964-16.672-18.845-21.295-32.591-4.358-12.941-6.537-28.424-6.537-46.43 0-11.363.712-22.753 2.139-34.156 1.419-11.337 3.563-22.74 6.418-34.161a401.366 401.366 0 019.6-32.578 360.503 360.503 0 0112.039-30.563c2.776-6.196 5.578-11.973 8.385-17.295l1.122-2.099-2.629-.76c-21.29-6.139-40-11.54-62.152-23.01-12.702-6.576-23.796-13.652-33.258-21.197-9.737-7.77-17.821-16.075-24.221-24.883-6.435-8.862-11.306-18.241-14.599-28.124C1.662 152.377 0 142.101 0 131.529c0-25.104 5.202-46.969 15.593-65.577 5.189-9.299 11.2-17.542 18.02-24.728a109.43 109.43 0 0123.173-18.572c8.534-5.123 17.471-8.977 26.779-11.545 9.401-2.599 19.063-3.898 28.972-3.898 16.773 0 31.973 4.203 45.572 12.592 13.255 8.177 24.747 20.278 34.448 36.295 9.273 15.297 16.844 33.038 22.683 53.201 2.139 7.386 4.053 15.107 5.741 23.155a50.04 50.04 0 011.091-3.562c7.938-22.735 16.292-46.624 20.23-53.347 7.527-12.866 15.451-23.973 23.743-33.303 8.539-9.604 17.595-17.502 27.146-23.668 9.45-6.099 18.952-10.709 28.477-13.799C331.458 1.596 341.203 0 350.901 0c15.593 0 29.626 2.855 42.085 8.552 12.583 5.75 23.336 14.356 32.251 25.772 8.645 11.081 15.116 23.487 19.399 37.184C448.874 85.063 451 99.843 451 115.817c0 13.732-2.201 26.788-6.585 39.159-4.376 12.331-10.917 23.871-19.602 34.611v.049c-8.446 10.444-18.767 20.044-30.93 28.781-11.973 8.606-25.621 16.279-40.905 23.01-15.429 6.789-31.169 11.982-47.283 16.128-10.515 2.7-20.976 4.919-31.478 6.819zM126.99 183.7c4.309 2.175 6.046 7.439 3.871 11.748-2.174 4.309-7.438 6.046-11.748 3.872l-2.559-1.291c-4.309-2.174-6.046-7.439-3.871-11.748 2.174-4.309 7.438-6.046 11.747-3.872l2.56 1.291zm-26.276-17.838c3.518 3.31 3.686 8.853.376 12.371-3.311 3.518-8.853 3.686-12.371.375-11.81-11.098-19.611-23.473-24.274-35.919-5.489-14.634-6.607-29.339-4.848-42.16.641-4.787 5.047-8.142 9.834-7.501 4.786.641 8.141 5.047 7.5 9.834-1.401 10.241-.504 22.002 3.894 33.727 3.765 10.047 10.148 20.119 19.889 29.273zm155.581 114.486c-3.129-6.113-6.506-12.173-10.068-17.87a11.627 11.627 0 01-2.104-5.135c-.959-6.378 3.439-12.332 9.816-13.291 15.964-2.43 31.332-5.286 46.001-9.056 14.656-3.77 29.162-8.574 43.632-14.943 13.949-6.144 26.192-12.994 36.698-20.543 10.312-7.408 19.107-15.607 26.369-24.583 7.031-8.654 12.282-17.9 15.765-27.712 3.465-9.772 5.206-20.252 5.206-31.398 0-13.706-1.759-26.166-5.259-37.37-3.461-11.067-8.623-21.007-15.474-29.785-6.581-8.433-14.448-14.753-23.571-18.921-9.25-4.23-20.061-6.351-32.405-6.351-7.337 0-14.679 1.197-22.02 3.58-7.598 2.466-15.306 6.223-23.084 11.244-7.686 4.963-15.129 11.491-22.303 19.557-7.416 8.341-14.457 18.201-21.1 29.555-2.745 4.69-10.722 27.514-18.311 49.237-5.551 15.893-10.948 31.305-16.428 41.276-.226 5.724-4.65 10.559-10.51 11.134l-1.141.093c-5.927-.031-11.01-4.535-11.602-10.555-2.334-23.305-6.183-44.224-11.544-62.725-5.287-18.25-12.031-34.13-20.216-47.633-7.748-12.795-16.681-22.306-26.775-28.534-9.746-6.011-20.858-9.02-33.33-9.02-7.987 0-15.576.994-22.758 2.978-7.279 2.007-14.298 5.043-21.025 9.079a86.162 86.162 0 00-18.24 14.647C45.007 63.106 40.15 69.767 35.96 77.276c-8.376 15-12.57 33.091-12.57 54.253 0 8.203 1.233 16.008 3.699 23.398 2.48 7.496 6.289 14.762 11.412 21.816 5.167 7.116 11.787 13.892 19.836 20.314 8.322 6.634 18.139 12.888 29.423 18.731 20.393 10.559 37.917 15.615 57.855 21.365 5.52 1.591 11.217 3.235 16.636 4.875 1.162.292 2.298.769 3.368 1.441 5.445 3.425 7.08 10.629 3.655 16.075-2.648 4.181-5.286 8.764-7.903 13.723a275.865 275.865 0 00-7.739 15.925c-4.066 9.078-7.814 18.603-11.217 28.547-3.373 9.861-6.396 20.128-9.052 30.757a264.217 264.217 0 00-5.87 31.324 252.888 252.888 0 00-1.953 31.327c0 15.611 1.755 28.627 5.255 39.031 3.227 9.595 7.925 16.972 14.073 22.09 6.696 5.578 14.452 9.777 23.248 12.584 9.007 2.872 19.305 4.313 30.859 4.313 14.315 0 27.142-1.852 38.47-5.542 11.084-3.615 20.848-9.017 29.254-16.181 8.146-6.944 14.276-15.469 18.369-25.564 4.216-10.405 6.329-22.621 6.329-36.623 0-7.96-.557-16.039-1.658-24.233-1.118-8.327-2.855-17.109-5.175-26.302a331.903 331.903 0 00-8.194-27.447c-3.068-8.844-6.674-17.962-10.811-27.333-2.97-6.717-6.108-13.436-9.264-19.592z"/></svg>
