<svg xmlns="http://www.w3.org/2000/svg" shape-rendering="geometricPrecision" text-rendering="geometricPrecision" image-rendering="optimizeQuality" fill-rule="evenodd" clip-rule="evenodd" viewBox="0 0 421 511.854"><path fill-rule="nonzero" d="M259.535 231.283c17.505-9.464 36.644-20.582 54.917-32.936 18.025-12.191 35.098-25.499 48.67-39.424 11.666-11.97 20.392-24.227 26.152-36.754l.269-.547c5.394-11.939 8.1-24.232 8.1-36.873 0-9.163-1.205-17.474-3.602-24.916a62.27 62.27 0 00-10.628-19.835c-4.388-5.505-9.697-9.636-15.903-12.377-6.435-2.838-14.01-4.263-22.705-4.263-7.309 0-14.909 1.072-22.792 3.209-8.245 2.237-16.663 5.557-25.243 9.948-8.545 4.37-17.311 10.483-26.266 18.317-9.062 7.932-18.379 17.744-27.926 29.405-6.449 7.888-36.061 58.046-51.43 84.078-7.653 12.964-12.42 21.597-19.487 21.597-6.448 0-11.679-5.231-11.679-11.679 0-.711.062-1.404.186-2.079.357-3.517.671-7.155.927-10.875.286-4.158.485-7.866.573-11.061l.248-10.682.035-10.068c0-13.559-.667-25.502-1.999-35.817-1.316-10.227-3.28-19.094-5.871-26.558-2.463-7.115-5.508-13.211-9.11-18.265-3.359-4.718-7.234-8.492-11.586-11.308-4.467-2.891-9.649-5.098-15.537-6.603-6.122-1.562-12.99-2.348-20.581-2.348-9.393 0-17.474 1.245-24.214 3.717-6.317 2.317-11.512 5.72-15.559 10.182v.049c-4.493 4.952-8.435 11.383-11.807 19.266-3.557 8.32-6.475 18.251-8.735 29.762l-.083.389c-2.534 13.162-4.683 27.413-6.449 42.729-1.792 15.621-3.182 32.217-4.149 49.761a1939.125 1939.125 0 00-2.216 54.03c-.463 17.284-.697 35.822-.697 55.605 0 34.78 1.302 67.036 3.902 96.763 1.302 14.835 2.758 27.52 4.356 38.034 1.567 10.293 3.258 18.463 5.063 24.479 1.65 5.499 3.8 10.205 6.435 14.093 2.538 3.747 5.588 6.863 9.128 9.335 3.548 2.476 7.742 4.37 12.561 5.672 5.076 1.373 10.854 2.061 17.32 2.061 26.284 0 44.407-10.399 54.352-31.197 5.499-11.493 9.679-27.136 12.535-46.905 2.921-20.268 4.387-44.774 4.387-73.494l.084-1.412c.207-2.772.335-5.266.375-7.46v-.053a152.2 152.2 0 00-.084-8.112l-.41-8.572-.579-8.417c-.476-6.422 4.348-12.023 10.77-12.5l1.165-.026c5.924.146 10.889 4.767 11.335 10.796 8.068 13.436 16.631 37.327 24.757 60.041 7.843 21.914 15.25 42.58 17.938 47.466 7.353 13.338 14.984 24.712 22.867 34.083 7.693 9.141 15.709 16.499 24.025 22.06 8.333 5.535 16.882 9.675 25.639 12.394l.044.013c8.704 2.693 17.762 4.047 27.154 4.047 11.048 0 20.718-1.407 29.008-4.215 7.935-2.688 14.689-6.682 20.237-11.961 5.53-5.261 9.692-11.431 12.478-18.485 2.851-7.225 4.285-15.488 4.285-24.761 0-15.135-2.617-29.873-7.834-44.173-5.292-14.504-13.277-28.681-23.941-42.527-21.843-28.363-44.698-45.807-70.311-65.355-7.897-6.03-16.058-12.262-24.642-19.143-5.015-4.03-5.809-11.365-1.779-16.379a11.699 11.699 0 013.557-2.966zM65.748 272.759c0 4.815-3.911 8.726-8.726 8.726-4.816 0-8.726-3.911-8.726-8.726l.022-5.659c0-4.815 3.91-8.726 8.726-8.726 4.815 0 8.726 3.911 8.726 8.726l-.022 5.659zm.724-43.609c-.15 4.816-4.185 8.603-9 8.453-4.816-.15-8.602-4.184-8.452-9 .767-24.254 2.538-51.045 5.693-77.069 2.693-22.263 6.423-44.182 11.401-63.819 1.17-4.683 5.924-7.53 10.607-6.36 4.683 1.169 7.53 5.923 6.36 10.606-4.776 18.834-8.373 40.02-10.986 61.63-3.134 25.847-4.877 52.052-5.623 75.559zm261.027-11.462c-13.634 9.216-27.772 17.792-41.424 25.547l10.466 8.016c26.875 20.515 50.86 38.819 74.601 69.645 12.151 15.774 21.293 32.057 27.41 48.821 6.188 16.966 9.291 34.339 9.291 52.109 0 12.226-1.982 23.344-5.928 33.341-4.012 10.166-10.063 19.099-18.136 26.784-8.046 7.653-17.659 13.382-28.809 17.16-10.8 3.659-22.969 5.495-36.493 5.495-11.675 0-23.044-1.721-34.088-5.155-10.959-3.425-21.508-8.505-31.602-15.232l-.049-.049c-10.09-6.731-19.734-15.563-28.919-26.473-8.995-10.695-17.51-23.314-25.508-37.827-3.68-6.682-11.356-28.116-19.491-50.838a125.817 125.817 0 01-2.449-7.6c-.64 19.478-2.066 36.899-4.277 52.246-3.178 22.025-8.064 39.922-14.636 53.658-14.186 29.674-39.31 44.518-75.335 44.518-8.457 0-16.243-.967-23.34-2.882-7.353-1.987-13.979-5.037-19.862-9.141-5.888-4.11-10.911-9.23-15.06-15.356-4.052-5.981-7.234-12.809-9.534-20.476-2.136-7.128-4.074-16.366-5.795-27.674-1.69-11.096-3.209-24.276-4.542-39.499C1.333 366.428 0 333.501 0 298.059c0-17.96.265-36.683.786-56.153a1938.06 1938.06 0 012.216-54.761c1.006-18.216 2.423-35.271 4.245-51.13 1.824-15.858 4.07-30.693 6.732-44.499l.075-.438c2.564-13.056 5.967-24.545 10.191-34.423 4.418-10.324 9.759-18.948 16.009-25.834 6.718-7.349 14.976-12.839 24.766-16.436 9.383-3.443 20.144-5.174 32.247-5.174 9.516 0 18.295 1.029 26.328 3.081 8.258 2.11 15.762 5.354 22.475 9.702 6.828 4.414 12.8 10.2 17.88 17.328 4.838 6.784 8.89 14.862 12.12 24.197 3.117 8.977 5.443 19.39 6.966 31.21 1.474 11.427 2.233 23.989 2.273 37.671 15.421-25.948 33.633-56.134 39.198-62.94 10.205-12.469 20.436-23.195 30.672-32.15 10.354-9.057 20.696-16.234 31.007-21.504 10.279-5.261 20.193-9.19 29.709-11.776 9.9-2.688 19.54-4.03 28.91-4.03 11.935 0 22.648 2.096 32.106 6.267 9.693 4.282 17.947 10.695 24.748 19.227 6.458 8.104 11.317 17.183 14.557 27.224C419.403 62.605 421 73.286 421 84.749c0 15.916-3.433 31.431-10.288 46.548l-.269.635c-6.855 14.902-17.068 29.321-30.628 43.233-14.892 15.281-33.187 29.591-52.316 42.523z"/></svg>