<svg xmlns="http://www.w3.org/2000/svg" shape-rendering="geometricPrecision" text-rendering="geometricPrecision" image-rendering="optimizeQuality" fill-rule="evenodd" clip-rule="evenodd" viewBox="0 0 381 512.076"><path fill-rule="nonzero" d="M143.166 363.275c2.892-6.526 4.636-16.837 5.192-27.558.614-11.817-.243-23.567-2.596-30.963l-.031-.097c-2.495-8.063.261-12.267 7.706-14.647l.556-.164a11.617 11.617 0 014.804-.256c7.644.146 20.94 1.784 30.831 3.007l10.156 1.246c9.074.839 18.02 1.488 26.829 1.929a495.14 495.14 0 0024.808.618c34.796 0 58.72-4.826 71.768-14.47 6.2-4.579 10.788-9.569 13.755-14.938 2.804-5.091 4.217-10.721 4.217-16.868 0-5.573-1.206-10.62-3.607-15.115-2.508-4.689-6.456-9.07-11.826-13.114-5.316-4.01-12.995-7.106-23.01-9.269l-.402-.097c-10.761-2.27-23.999-3.414-39.701-3.414-11.954 0-25.236.645-39.826 1.93a837.899 837.899 0 00-21.588 2.168 778.737 778.737 0 00-20.913 2.676c-4.04.574-8.712 1.404-13.388 2.23l-8.748 1.484c-3.691.6-7.264-.605-9.807-2.972l-1.497-1.448c-7.939-8.377-11.286-23.673-11.194-38.223.093-14.638 3.767-29.638 9.795-36.637l.741-.83a11.63 11.63 0 019.401-3.736l11.985.861c12.395.91 24.714 1.824 36.177 2.261 8.699.331 16.767.579 24.176.733 6.315.133 13.468.203 21.518.203 19.747 0 36.739-1.474 50.948-4.415 13.636-2.822 24.75-6.99 33.317-12.475 8.73-5.594 15.238-9.966 18.917-14.916 3.334-4.486 5.003-10.584 5.003-20.573 0-20.793-6.823-36.504-20.458-47.084h-.049c-7.012-5.445-16.885-9.591-29.594-12.435-13.538-3.02-30.269-4.539-50.18-4.539-14.956 0-29.382.428-43.283 1.276-14.311.874-28.172 2.168-41.538 3.859-13.212 1.678-25.779 4.023-37.657 7.017-11.627 2.932-22.45 6.487-32.442 10.65-9.684 4.032-18.202 8.783-25.527 14.228-7.189 5.343-13.305 11.405-18.321 18.162-3.277 4.437-6.42 9.75-9.397 15.909-3.126 6.46-6.027 13.685-8.676 21.642-2.654 8.001-5.048 17.371-7.167 28.141-2.146 10.902-3.974 23.019-5.458 36.332-1.519 13.574-2.658 28.883-3.409 45.91-.737 16.731-1.108 35.807-1.108 57.21 0 22.26.481 41.857 1.439 58.782.967 17.181 2.411 31.912 4.306 44.157 1.881 12.143 4.384 23.098 7.493 32.84 2.967 9.295 6.526 17.539 10.664 24.697 4.288 6.893 9.948 13.008 16.97 18.329l.711.583c7.096 5.259 15.631 9.781 25.593 13.548 10.492 3.974 22.507 6.976 36.023 8.994 13.711 2.049 28.989 3.073 45.817 3.073 9.627 0 18.961-.234 28-.697a576.177 576.177 0 0028.49-2.173 480.585 480.585 0 0027.788-3.616 412.546 412.546 0 0026.123-5.051c8.293-1.891 15.853-3.984 22.653-6.267 6.531-2.19 12.488-4.631 17.844-7.307l.437-.208c6.107-3.193 11.34-6.654 15.667-10.382l.587-.472c3.864-3.404 6.902-6.986 9.092-10.721 2.34-3.988 4.129-8.611 5.343-13.839 1.267-5.497 1.908-11.649 1.908-18.475 0-9.264-1.241-14.581-3.714-18.211-2.623-3.855-7.599-7.299-14.227-11.842-6.482-4.443-14.815-7.821-24.967-10.121-10.694-2.42-23.46-3.639-38.275-3.639-6.884 0-13.591.15-20.082.451-6.47.3-13.738.799-21.774 1.483a579.762 579.762 0 00-22.22 2.336 530.101 530.101 0 00-21.606 3.126c-5.961.994-11.671 2.371-17.287 3.727-5.869 1.418-11.671 2.817-16.833 3.723-6.35 1.108-12.404-3.144-13.512-9.494a11.589 11.589 0 011.347-7.763zM112.269 72.519c4.327-2.133 9.573-.358 11.706 3.969 2.133 4.328.358 9.574-3.97 11.707-15.331 7.55-25.549 17.358-32.19 28.786-6.743 11.613-9.997 25.209-11.278 40.019l-2.287 26.481c-.415 4.817-4.668 8.39-9.485 7.975-4.818-.415-8.39-4.668-7.975-9.485l2.287-26.481c1.48-17.137 5.392-33.122 13.609-47.27 8.324-14.325 20.905-26.503 39.583-35.701zM54.203 211.932c.415-4.818 4.667-8.39 9.485-7.975 4.817.415 8.389 4.667 7.974 9.485l-.309 3.576c-.415 4.818-4.667 8.39-9.485 7.975-4.817-.415-8.39-4.667-7.975-9.485l.31-3.576zM171.638 336.9c-.291 5.595-.892 11.203-1.801 16.515 5.241-1.25 10.531-2.464 15.781-3.338a547.049 547.049 0 0122.613-3.303 597.536 597.536 0 0123.129-2.433 575.572 575.572 0 0122.684-1.484c7.767-.358 14.801-.539 21.089-.539 16.356 0 30.822 1.431 43.389 4.275 13.106 2.967 24.114 7.502 32.994 13.591 8.73 5.988 15.296 10.545 20.348 17.963 5.215 7.644 7.82 16.912 7.82 31.352 0 8.535-.853 16.448-2.544 23.721-1.749 7.475-4.42 14.28-7.992 20.365-3.489 5.948-8.116 11.463-13.865 16.519l-.654.609c-5.582 4.805-12.306 9.26-20.149 13.354l-.795.432c-6.058 3.025-13.022 5.865-20.855 8.492-7.569 2.543-15.892 4.848-24.931 6.91a437.14 437.14 0 01-27.59 5.326 505.975 505.975 0 01-29.156 3.793 601.283 601.283 0 01-29.585 2.269c-10.179.522-19.911.787-29.184.787-17.848 0-34.257-1.118-49.191-3.348-15.123-2.261-28.755-5.687-40.862-10.275-11.949-4.517-22.401-10.112-31.343-16.758l-.808-.561c-9.326-7.069-16.908-15.291-22.715-24.635l-.18-.318c-4.999-8.575-9.291-18.47-12.864-29.669-3.475-10.889-6.252-23.001-8.314-36.31-2.049-13.225-3.582-28.711-4.579-46.435C.512 325.804 0 305.778 0 283.704c0-20.74.402-40.152 1.196-58.216.782-17.773 1.957-33.6 3.506-47.456 1.577-14.126 3.493-26.878 5.732-38.249 2.266-11.516 4.937-21.866 7.988-31.02 3.06-9.145 6.319-17.292 9.772-24.423 3.595-7.441 7.498-13.998 11.675-19.654 6.385-8.602 14.117-16.277 23.161-23.002 8.902-6.619 19.062-12.311 30.455-17.053 11.07-4.615 22.992-8.536 35.727-11.746 12.474-3.144 25.951-5.643 40.395-7.476A664.088 664.088 0 01212.7 1.364 734.415 734.415 0 01257.351 0c21.359 0 39.764 1.731 55.196 5.175 16.255 3.634 29.237 9.211 38.912 16.727C371.144 37.233 381 59.077 381 87.426c0 15.477-3.219 25.784-9.658 34.447-6.085 8.191-14.24 13.751-25.037 20.666-10.951 7.012-24.714 12.244-41.256 15.671-15.975 3.307-34.517 4.963-55.602 4.963-5.555 0-12.916-.101-21.977-.291a1470.17 1470.17 0 01-24.538-.733c-13.185-.504-25.054-1.382-36.999-2.261l-4.817-.349c-1.347 4.226-2.138 10.673-2.182 17.5-.044 7.003.724 13.843 2.513 18.32l1.435-.256c4.433-.781 8.893-1.572 14.121-2.318a789.565 789.565 0 0121.549-2.764 870.549 870.549 0 0122.233-2.266c15.256-1.342 29.21-2.018 41.83-2.018 17.256 0 32.119 1.325 44.567 3.97l.464.088c13.353 2.884 24.074 7.379 32.142 13.464 8.019 6.045 14.13 12.982 18.307 20.789 4.288 8.019 6.434 16.714 6.434 26.066 0 10.094-2.384 19.464-7.14 28.093-4.606 8.337-11.384 15.821-20.326 22.427-17.243 12.744-45.79 19.124-85.642 19.124-7.904 0-16.541-.238-25.903-.706-8.747-.437-18.038-1.122-27.836-2.027-3.334-.313-6.672-.728-10.88-1.245-5.048-.623-10.859-1.462-15.743-2.168.795 7.33.99 15.388.579 23.288z"/></svg>