<svg xmlns="http://www.w3.org/2000/svg" shape-rendering="geometricPrecision" text-rendering="geometricPrecision" image-rendering="optimizeQuality" fill-rule="evenodd" clip-rule="evenodd" viewBox="0 0 398 511.65"><path fill-rule="nonzero" d="M175.541 511.65c-9.944 0-19.964-.432-30.028-1.288a360.795 360.795 0 01-30.073-3.856c-10.174-1.734-19.942-4.064-29.269-6.976-9.345-2.912-18.252-6.433-26.702-10.536-17.603-8.564-31.828-20.233-42.651-35-5.642-7.695-9.878-16.334-12.68-25.895C1.385 418.702 0 408.51 0 397.559c0-12.958 1.703-24.381 5.1-34.259 3.583-10.43 9.071-19.131 16.439-26.088 7.267-6.87 16.607-11.979 27.99-15.319 10.717-3.155 23.216-4.73 37.467-4.73 7.911 0 16.263.349 25.034 1.042 8.564.674 17.534 1.703 26.869 3.066 9.147 1.332 17.093 2.316 23.817 2.929 6.582.596 12.627.9 18.106.9 4.276 0 7.893-.326 10.836-.962 2.387-.52 4.258-1.217 5.582-2.082l.525-.326c.794-.565 1.354-1.103 1.667-1.602.075-.123.119-.309.119-.538 0-.53-.039-.878-.114-1.02-.057-.105-.261-.282-.591-.502-1.297-.865-3.111-1.761-5.419-2.661-2.695-1.059-5.907-2.082-9.617-3.057-3.786-.997-8.525-2.114-14.194-3.336a687.783 687.783 0 00-18.681-3.75l-.419-.088c-15.786-2.943-30.028-6.42-42.695-10.395-13.016-4.085-24.624-8.798-34.789-14.114-10.448-5.467-19.483-11.736-27.085-18.795-7.801-7.241-14.158-15.323-19.047-24.223-4.796-8.744-8.409-18.437-10.805-29.07-2.356-10.475-3.543-21.712-3.543-33.691 0-13.086 1.324-25.475 3.958-37.158 2.651-11.767 6.644-22.673 11.952-32.693 5.246-9.896 11.352-19.011 18.301-27.328 6.913-8.273 14.758-15.839 23.503-22.669a217.004 217.004 0 0126.975-17.966 231.415 231.415 0 0129.834-14.109c20.609-8.008 41.627-13.846 63.03-17.49l.402-.062a401.012 401.012 0 0130.805-3.997C231.786.476 241.647 0 250.868 0c21.447 0 40.89 1.955 58.301 5.859l.489.124c17.56 3.984 32.905 9.935 46.013 17.846 13.96 8.423 24.518 19.043 31.652 31.837C394.435 68.417 398 83.057 398 99.557c0 12.87-2.095 24.668-6.278 35.38-4.231 10.832-10.585 20.428-19.043 28.754-8.559 8.436-19.373 14.74-32.401 18.888-12.469 3.97-26.865 5.96-43.155 5.96-4.478 0-10.076-.128-16.765-.379a683.178 683.178 0 01-18.99-.989l-.048-.004a1451.773 1451.773 0 01-37.93-3.018 472.796 472.796 0 00-15.658-1.191l-.173-.013c-4.09-.23-7.937-.349-11.533-.349-4.893 0-8.908.243-12.014.724-2.872.485-5.025 1.05-6.428 1.72l-.935.521.097.309c.247.547.706 1.187 1.368 1.893l.308.348c.741.675 1.893 1.456 3.442 2.339 2.259 1.284 5.166 2.603 8.687 3.935 3.662 1.381 8.29 2.877 13.88 4.474 5.661 1.615 12.12 3.283 19.347 4.981 19.183 4.509 36.439 9.579 51.749 15.195 15.508 5.683 29.097 11.966 40.736 18.835 11.758 6.931 21.923 14.507 30.47 22.7 8.735 8.365 15.759 17.366 21.062 26.98 5.211 9.446 9.133 19.611 11.75 30.46 2.611 10.805 3.918 22.131 3.918 33.955 0 15.849-2.268 30.876-6.791 45.056-4.535 14.202-11.317 27.386-20.321 39.519-8.913 12.005-19.59 22.682-32.018 32.013-12.328 9.261-26.309 17.163-41.911 23.679-15.446 6.455-32.172 11.313-50.155 14.56-17.909 3.234-36.823 4.858-56.726 4.858zM80.184 150.865c-1.641 4.531-6.649 6.874-11.18 5.233a8.731 8.731 0 01-5.233-11.18 35.995 35.995 0 012.722-5.851l.331-.525a37.853 37.853 0 013.124-4.46c3.04-3.737 8.542-4.307 12.279-1.267 3.737 3.04 4.306 8.542 1.266 12.279a21.943 21.943 0 00-1.663 2.321l-.221.406a19.005 19.005 0 00-1.425 3.044zm23.529-31.533c-3.19 3.605-8.709 3.944-12.314.754-3.604-3.189-3.944-8.709-.754-12.314 11.546-13.081 26.724-24.301 43.366-33.244 17.97-9.662 37.798-16.752 56.694-20.75 4.721-.979 9.35 2.052 10.329 6.772.979 4.722-2.052 9.35-6.773 10.329-17.295 3.658-35.468 10.166-51.973 19.038-14.966 8.043-28.484 17.983-38.575 29.415zm43.715 367.778c9.305.79 18.685 1.191 28.113 1.191 18.857 0 36.404-1.469 52.623-4.398 16.148-2.917 31.263-7.315 45.32-13.192 13.911-5.811 26.221-12.742 36.898-20.759 10.589-7.95 19.69-17.052 27.279-27.275 7.505-10.112 13.126-21.01 16.854-32.68 3.729-11.692 5.599-24.376 5.599-38.032 0-10.196-1.063-19.699-3.185-28.484-2.109-8.744-5.299-16.99-9.561-24.716-4.17-7.558-9.769-14.71-16.775-21.42-7.187-6.887-15.923-13.369-26.181-19.418-10.377-6.124-22.686-11.798-36.907-17.008-14.409-5.286-30.751-10.082-49.013-14.375-7.743-1.817-14.564-3.578-20.441-5.254-5.982-1.708-11.228-3.42-15.707-5.109-4.623-1.752-8.62-3.587-11.969-5.489-3.38-1.924-6.212-4.015-8.476-6.252l-.833-.812c-2.414-2.585-4.276-5.325-5.568-8.184-1.47-3.256-2.207-6.592-2.207-9.989 0-4.853 1.342-9.194 4.002-13.015 2.414-3.468 5.842-6.261 10.258-8.374 3.649-1.747 7.959-3.005 12.905-3.768l.009.044c4.699-.733 9.892-1.094 15.561-1.094 3.354 0 7.642.15 12.853.45l.22.009c4.522.264 9.993.692 16.391 1.279 11.224 1.037 23.692 2.021 37.383 2.934 6.865.454 12.984.79 18.305.989 4.977.185 10.303.282 15.945.282 14.101 0 26.155-1.593 36.131-4.769 9.428-3.001 17.136-7.453 23.101-13.329 6.071-5.979 10.633-12.866 13.668-20.636 3.085-7.893 4.629-16.867 4.629-26.9 0-12.569-2.559-23.436-7.66-32.587-5.082-9.115-12.874-16.845-23.357-23.172-11.1-6.697-24.156-11.754-39.121-15.142l-.455-.092c-15.495-3.477-33.236-5.216-53.191-5.216-9.261 0-18.451.415-27.553 1.231-9.155.821-18.804 2.096-28.917 3.804l-.375.07c-20 3.406-39.532 8.82-58.556 16.21-9.442 3.671-18.398 7.897-26.825 12.654a193.322 193.322 0 00-24.064 16.051 130.965 130.965 0 00-19.946 19.298c-5.93 7.094-11.123 14.846-15.566 23.225-4.377 8.259-7.668 17.251-9.852 26.948-2.206 9.782-3.313 20.468-3.313 32.049 0 10.479.97 20.013 2.898 28.582 1.897 8.413 4.748 16.068 8.529 22.964 3.692 6.724 8.528 12.861 14.484 18.389 6.151 5.71 13.484 10.797 21.976 15.24 8.768 4.584 19.091 8.749 30.96 12.473 11.979 3.763 25.338 7.024 40.039 9.768l.437.071c7.509 1.402 13.955 2.691 19.316 3.847a345.507 345.507 0 0115.199 3.609c4.646 1.217 8.71 2.515 12.168 3.878 3.865 1.509 7.139 3.168 9.795 4.937 3.636 2.413 6.42 5.449 8.339 9.071 1.906 3.6 2.859 7.562 2.859 11.873 0 4.606-1.231 8.899-3.684 12.848-2.012 3.229-4.836 6.102-8.449 8.59l-.759.538c-3.737 2.44-8.219 4.231-13.426 5.365-4.646 1.006-9.909 1.518-15.76 1.518-5.519 0-12.265-.366-20.207-1.085-7.809-.715-16.179-1.73-25.087-3.027-8.713-1.271-17.162-2.237-25.324-2.881-7.955-.626-15.698-.944-23.208-.944-12.164 0-22.47 1.239-30.906 3.71-7.796 2.268-13.986 5.59-18.597 9.949-4.518 4.267-7.968 9.844-10.324 16.7-2.546 7.399-3.821 16.302-3.821 26.688 0 8.86 1.05 16.863 3.133 23.975 2.034 6.945 5.083 13.184 9.124 18.694 8.546 11.661 19.885 20.935 33.986 27.791 7.399 3.592 15.239 6.689 23.507 9.266 8.295 2.59 17.061 4.672 26.261 6.243a334.756 334.756 0 0028.069 3.582z"/></svg>
