<svg xmlns="http://www.w3.org/2000/svg" shape-rendering="geometricPrecision" text-rendering="geometricPrecision" image-rendering="optimizeQuality" fill-rule="evenodd" clip-rule="evenodd" viewBox="0 0 512 499.231"><path fill-rule="nonzero" d="M0 153.811c0-23.35 1.847-43.484 5.536-60.368 3.853-17.629 9.777-31.9 17.762-42.787 8.227-11.227 18.705-19.652 31.4-25.253 12.33-5.441 26.644-8.162 42.912-8.162 10.478 0 19.966 1.365 28.451 4.09 8.856 2.841 16.497 7.146 22.903 12.898 6.078 5.454 11.27 11.894 15.554 19.277 4.193 7.228 7.486 15.317 9.867 24.241l.159.693c4.003 16.225 3.689 60.683 2.294 105.11l2.885-9.024c4.701-14.219 9.557-26.471 14.55-36.746 5.171-10.642 10.543-19.175 16.092-25.572 12.088-13.918 25.817-20.879 41.16-20.879 16.143 0 30.375 6.931 42.67 20.789 5.648 6.371 11.133 14.71 16.449 24.994 5.08 9.837 10.122 21.688 15.111 35.546a584.494 584.494 0 016.349 18.701l-.068-1.563c-1.296-29.734-2.488-57.083-2.488-66.003 0-15.339.753-28.998 2.247-40.975 1.537-12.295 3.887-22.898 7.043-31.787 3.25-9.14 7.245-16.975 11.972-23.479 4.989-6.871 10.835-12.321 17.512-16.329 6.242-3.745 12.992-6.561 20.225-8.429C395.744.934 403.296 0 411.191 0c15.889 0 30.177 3.388 42.86 10.16 12.635 6.741 23.427 16.759 32.356 30.039 8.666 12.876 15.132 28.628 19.376 47.213 4.142 18.141 6.217 39.007 6.217 62.572 0 27.913-1.189 56.636-3.556 86.155a1219.74 1219.74 0 01-4.275 43.484 1140.58 1140.58 0 01-5.756 42.296 926.016 926.016 0 01-7.116 40.161c-2.695 13.418-5.497 25.847-8.39 37.229l-.121.43c-3.754 14.908-8.42 28.297-13.969 40.135-5.726 12.205-12.394 22.696-19.975 31.444-8.038 9.272-17.181 16.246-27.418 20.9l-.668.28c-10.112 4.486-21.184 6.733-33.195 6.733-13.793 0-27.427-3.672-40.867-11.008-6.776-3.694-13.427-8.683-19.936-14.951-6.268-6.04-12.497-13.35-18.662-21.916-6.191-8.606-12.127-18.718-17.779-30.303-5.511-11.292-10.931-24.379-16.26-39.239-5.201-14.4-10.242-30.901-15.158-49.473a909.331 909.331 0 01-4.232-16.673 845.537 845.537 0 01-4.042 15.679c-4.826 17.96-9.811 33.862-14.921 47.681-5.14 13.897-10.53 26.286-16.148 37.135-5.729 11.055-11.696 20.491-17.887 28.292-6.203 7.805-12.682 14.499-19.415 20.052-6.871 5.661-14.008 10.108-21.396 13.307-7.24 3.138-14.658 5.467-22.226 6.978-7.663 1.528-15.597 2.295-23.776 2.295-12.618 0-24.048-2.205-34.276-6.604-10.367-4.456-19.39-11.154-27.048-20.07-7.288-8.476-13.707-19.695-19.243-33.617-5.295-13.332-9.828-29.295-13.587-47.862-1.45-7.022-2.88-15.205-4.322-24.521a822.49 822.49 0 01-3.84-27.784c-1.067-8.877-2.2-18.877-3.37-29.945-.995-9.437-2.007-19.67-3.018-30.721-1.059-11.597-1.929-21.907-2.596-30.956a1553.489 1553.489 0 01-1.92-29.799l-.009-.211c-.512-9.376-.912-18.464-1.184-27.276C.15 168.353 0 160.376 0 153.811zm64.277-67.312c1.619-4.421 6.522-6.69 10.943-5.071 4.421 1.618 6.69 6.522 5.071 10.943-4.089 11.146-7.245 24.366-9.389 39.726-2.139 15.356-3.284 32.761-3.349 52.262 0 4.697-3.814 8.511-8.511 8.511-4.697 0-8.511-3.814-8.511-8.511.069-20.427 1.258-38.607 3.487-54.595 2.321-16.626 5.769-31.03 10.259-43.265zM50.988 210.21c-.237-4.697 3.379-8.709 8.076-8.945 4.697-.237 8.709 3.379 8.946 8.076l.249 4.597c.237 4.697-3.379 8.709-8.076 8.946-4.697.237-8.709-3.379-8.946-8.076l-.249-4.598zM27.784 98.247c-3.332 15.257-5.002 33.79-5.002 55.564 0 7.908.12 15.648.357 23.195v.047c.245 7.982.646 16.902 1.18 26.717l.012.189c.508 9.217 1.154 19.05 1.92 29.446a1783.925 1783.925 0 002.502 30.509 2213.97 2213.97 0 003.017 30.453c.969 9.144 2.097 19.011 3.371 29.593 1.223 10.133 2.45 19.144 3.668 26.983a549.923 549.923 0 004.184 23.539l-.042.009c3.478 17.185 7.628 31.835 12.432 43.936 4.576 11.512 9.716 20.586 15.412 27.212 5.316 6.19 11.58 10.839 18.774 13.93 7.331 3.156 15.764 4.736 25.287 4.736 6.707 0 13.16-.616 19.325-1.847 6.259-1.248 12.161-3.078 17.689-5.472 5.381-2.329 10.71-5.673 15.971-10.009 5.39-4.442 10.737-10.008 16.032-16.668 5.295-6.673 10.465-14.865 15.484-24.556 5.128-9.901 10.13-21.434 14.986-34.56 4.886-13.212 9.664-28.46 14.301-45.718 4.68-17.414 9.178-36.566 13.492-57.445.684-5.64 5.484-10.014 11.309-10.014h2.557c5.286.031 10.026 3.741 11.124 9.123 4.395 21.576 8.989 41.391 13.754 59.416 4.662 17.608 9.523 33.484 14.581 47.604 4.856 13.664 9.974 25.972 15.321 36.924 5.196 10.646 10.453 19.665 15.739 27.013 5.325 7.401 10.659 13.669 15.984 18.8 5.089 4.899 10.113 8.705 15.046 11.395 9.962 5.437 19.975 8.158 30.01 8.158 8.795 0 16.768-1.571 23.896-4.705l.53-.259c7.319-3.327 13.888-8.347 19.678-15.028 6.247-7.207 11.787-15.95 16.591-26.191 4.869-10.384 9.032-22.412 12.472-36.071l.112-.491a730.146 730.146 0 008.209-36.076c2.51-12.505 4.826-25.571 6.936-39.179 2.031-13.13 3.895-26.945 5.583-41.409a1200.964 1200.964 0 004.18-42.683c2.312-28.809 3.47-56.933 3.47-84.373 0-21.994-1.868-41.168-5.597-57.501-3.629-15.894-8.993-29.119-16.078-39.644-6.82-10.143-14.879-17.698-24.169-22.653-9.242-4.933-19.974-7.404-32.183-7.404-6.156 0-11.809.667-16.944 1.993-5.106 1.321-9.872 3.306-14.267 5.941-3.956 2.372-7.542 5.773-10.745 10.181-3.461 4.765-6.453 10.68-8.95 17.702-2.587 7.292-4.555 16.29-5.889 26.974-1.374 11.012-2.067 23.755-2.067 38.22 0 9.905 1.154 36.316 2.402 65.021 1.537 35.323 3.229 74.054 3.229 89.526 0 2.656-.172 5.067-.529 7.211a11.424 11.424 0 01-4.663 9.669c-1.752 1.437-3.977 2.191-6.715 2.191-5.162 0-9.841-3.526-11.081-8.765-5.566-23.32-10.874-43.91-15.92-61.75-5.144-18.205-10.039-33.742-14.658-46.584-4.589-12.742-9.243-23.681-13.948-32.79-4.473-8.658-8.894-15.451-13.247-20.363-7.714-8.696-16.277-13.048-25.674-13.048-8.481 0-16.479 4.322-23.983 12.958-4.236 4.886-8.511 11.752-12.803 20.586-4.473 9.2-8.941 20.539-13.388 33.992-4.529 13.685-9.174 29.984-13.918 48.87-4.822 19.187-9.712 40.711-14.654 64.552-.685 5.635-5.485 10.005-11.305 10.005-7.964 0-11.611-5.02-11.611-14.362 0-5.449.663-20.173 1.52-39.291 2.441-54.414 6.552-145.941 1.102-167.505l-.081-.297c-1.878-7.039-4.4-13.289-7.551-18.722-3.052-5.265-6.759-9.863-11.103-13.759-4.02-3.612-8.903-6.341-14.628-8.179-6.087-1.955-13.264-2.936-21.512-2.936-13.109 0-24.366 2.071-33.742 6.208-9.006 3.973-16.428 9.931-22.239 17.865-6.062 8.257-10.677 19.652-13.845 34.151z"/></svg>
