<svg xmlns="http://www.w3.org/2000/svg" shape-rendering="geometricPrecision" text-rendering="geometricPrecision" image-rendering="optimizeQuality" fill-rule="evenodd" clip-rule="evenodd" viewBox="0 0 382 512.467"><path fill-rule="nonzero" d="M149.393 326.011a516.441 516.441 0 0011.883-35.122 594.31 594.31 0 009.982-37.928c3.792-16.571 6.646-33.134 8.551-49.661a428.156 428.156 0 002.833-49.099c0-12.859-.641-24.99-1.914-36.364-1.272-11.366-3.195-22.175-5.745-32.387-2.452-9.823-5.7-18.622-9.721-26.382-3.986-7.626-8.688-14.264-14.11-19.885-5.016-5.197-11.048-9.108-18.078-11.719-7.296-2.709-15.873-4.07-25.71-4.07-9.152 0-17.367 1.361-24.618 4.075-7.119 2.66-13.523 6.698-19.188 12.081-5.718 5.435-10.755 12.842-15.091 22.192-4.573 9.868-8.333 21.781-11.259 35.732-1.688 8.896-3.35 19.93-4.963 33.068-1.599 13.053-3.124 27.958-4.551 44.689a1165.784 1165.784 0 00-3.261 51.512c-.69 16.929-1.039 34.91-1.039 53.907 0 44.659 1.949 79.525 5.833 104.598 3.783 24.367 10.005 43.987 18.657 58.826l.239.433c4.419 7.388 9.757 13.831 15.988 19.302 6.39 5.608 13.783 10.248 22.157 13.893 8.59 3.735 18.78 6.563 30.552 8.463 11.989 1.931 25.799 2.907 41.393 2.907 8.476 0 16.717-.265 24.694-.791a379.66 379.66 0 0024.644-2.412 335.937 335.937 0 0024.022-4.048 303.13 303.13 0 0022.749-5.63c7.38-2.139 14.26-4.472 20.615-6.995 6.407-2.581 12.276-5.29 17.578-8.144l.146-.076c9.961-5.21 18.931-11.25 26.868-18.122 7.936-6.867 14.994-14.68 21.149-23.403 6.028-8.546 10.539-17.455 13.505-26.704 2.942-9.182 4.423-18.9 4.423-29.139 0-21.215-5.921-37.473-17.751-48.746-5.895-5.616-13.133-9.858-21.693-12.696-9.068-2.956-19.678-4.463-31.821-4.463-8.75 0-17.367.597-25.834 1.781-8.586 1.198-17.216 3.018-25.877 5.449-8.772 2.461-17.19 5.439-25.233 8.913-7.967 3.442-15.891 7.539-23.739 12.267-2.276 1.37-5.395 3.685-8.484 5.984-4.764 3.543-9.519 7.07-12.983 8.669-5.851 2.696-12.789.142-15.484-5.709a11.695 11.695 0 01-.314-9.046zM71.42 251.993c-.035 4.821-3.986 8.701-8.807 8.666-4.821-.035-8.701-3.986-8.666-8.807l.12-12.736c.035-4.821 3.985-8.701 8.806-8.665 4.822.035 8.702 3.985 8.666 8.807l-.119 12.735zm1.493-43.54c-.242 4.821-4.361 8.533-9.182 8.29-4.821-.243-8.533-4.362-8.29-9.183 1.18-21.79 2.996-43.938 5.85-66.307 2.846-22.294 6.739-44.711 12.087-67.058 1.113-4.689 5.824-7.587 10.512-6.474 4.689 1.114 7.588 5.824 6.474 10.513-5.184 21.657-8.966 43.47-11.741 65.211-2.762 21.671-4.543 43.426-5.71 65.008zm110.749 89.109l-1.224 4.039a223.765 223.765 0 0118.733-9.134 222.41 222.41 0 0128.157-10.009 219.246 219.246 0 0128.98-6.085c9.81-1.374 19.492-2.064 29.033-2.064 14.614 0 27.658 1.905 39.117 5.696 11.94 4.004 22.108 9.978 30.473 17.95C373.639 313.877 382 335.773 382 363.608c0 12.506-1.878 24.596-5.617 36.263-3.716 11.591-9.262 22.603-16.606 33.014a152.996 152.996 0 01-24.994 27.601c-9.448 8.18-19.912 15.259-31.348 21.216-6.24 3.331-12.882 6.407-19.908 9.191-7.137 2.789-14.715 5.365-22.718 7.685a324.812 324.812 0 01-24.578 6.08 359.339 359.339 0 01-25.666 4.322 405.322 405.322 0 01-26.2 2.599c-8.957.592-17.68.888-26.152.888-16.496 0-31.529-1.101-45.051-3.279-13.77-2.223-25.843-5.599-36.21-10.107-10.574-4.604-19.982-10.521-28.193-17.728-8.064-7.08-14.962-15.401-20.663-24.937l-.407-.65c-10.071-17.278-17.238-39.607-21.485-66.956C2.073 362.145 0 326.087 0 280.65c0-18.016.38-36.297 1.136-54.817.746-18.37 1.842-35.887 3.261-52.52 1.467-17.146 3.018-32.356 4.64-45.6 1.617-13.182 3.372-24.706 5.237-34.534l.048-.23c3.31-15.833 7.632-29.501 12.952-40.982 5.586-12.055 12.329-21.838 20.208-29.324C55.41 15.108 64.46 9.426 74.615 5.63 84.641 1.878 95.565 0 107.364 0c12.466 0 23.752 1.878 33.841 5.625 10.367 3.854 19.288 9.651 26.757 17.385 7.057 7.313 13.071 15.749 18.025 25.285 4.883 9.448 8.771 19.934 11.657 31.49 2.793 11.18 4.892 23.018 6.293 35.498 1.396 12.479 2.099 25.462 2.099 38.918 0 17.066-1.008 34.326-3.019 51.751-1.988 17.26-4.993 34.667-9.01 52.215-3.04 13.292-6.482 26.483-10.345 39.395z"/></svg>
