<svg xmlns="http://www.w3.org/2000/svg" shape-rendering="geometricPrecision" text-rendering="geometricPrecision" image-rendering="optimizeQuality" fill-rule="evenodd" clip-rule="evenodd" viewBox="0 0 433 512.022"><path fill-rule="nonzero" d="M372.9 169.012a284.678 284.678 0 014.8 10.451c3.885 8.932 7.417 18.372 10.578 28.284 5.131 16.075 8.968 32.332 11.484 48.734 2.543 16.553 3.819 33.388 3.819 50.479 0 17.744-1.907 35.012-5.713 51.794-3.784 16.685-9.484 32.814-17.078 48.351-7.607 15.665-17.431 29.904-29.405 42.699-11.872 12.689-25.784 23.837-41.705 33.414-16.094 9.669-34.306 16.914-54.616 21.7-20.071 4.733-42.196 7.104-66.347 7.104-30.659 0-57.644-3.439-80.934-10.305-23.851-7.033-43.777-17.656-59.759-31.864-16.072-14.292-28.138-31.683-36.178-52.165C3.951 397.563 0 374.587 0 348.771c0-31.338 9.369-69.181 29.228-96.705 16.637-23.069 40.417-39.101 71.994-39.101 22.314 0 40.624 6.275 53.525 18.632 12.605 12.063 19.568 29.423 19.568 51.848 0 6.861-.998 14.601-2.026 22.605-2.177 16.915-4.539 35.308 4.984 46.112 1.634 1.855 3.634 3.325 5.864 4.42 5.849 2.879 13.364 3.488 20.808 2.26 7.585-1.249 14.853-4.401 20.058-8.993 2.283-2.009 4.093-4.208 5.228-6.517 3.227-6.592 5.673-14.469 7.32-23.639 1.7-9.439 2.548-20.437 2.548-32.981 0-11.016-.49-21.63-1.462-31.811a317.129 317.129 0 00-4.517-30.95c-1.602-8.187-3.607-16.483-5.995-24.863a348.907 348.907 0 00-4.707-15.187c-2.742.83-5.607 1.571-10.062 2.273-6.857 1.078-13.086 1.859-18.663 2.34l-.305.022c-5.995.508-11.704.764-17.108.764-28.628 0-49.825-7.81-64.051-20.177-11.232-9.767-18.027-22.213-20.681-35.887-2.552-13.192-1.165-27.493 3.881-41.515 8.433-23.423 27.238-46.232 54.978-61.517 8.495-4.68 16.548-8.782 25.732-12.469 9.081-3.642 19.139-6.799 31.63-9.576 12.26-2.724 25.193-4.764 38.769-6.11C260.331.689 274.606 0 289.33 0c10.208 0 20.243.441 30.08 1.316 9.572.852 18.606 2.141 27.07 3.858 8.786 1.78 16.8 4.049 24.036 6.786 7.201 2.729 13.806 5.983 19.798 9.754a77.032 77.032 0 0117.307 13.029c12.861 12.861 21.198 30.014 24.164 47.794 2.985 17.934.548 36.642-8.163 52.43-3.126 5.669-7.025 10.941-11.714 15.63l-.715.658c-6.362 6.141-14.309 10.856-23.798 14.111-4.45 1.527-9.285 2.741-14.495 3.646zM52.523 333.274c.525-4.799 4.852-8.261 9.651-7.735 4.799.525 8.261 4.852 7.736 9.651-1.904 17.166.494 37.542 8.463 56.038 6.61 15.347 17.047 29.321 32.01 38.884 4.062 2.588 5.259 7.987 2.671 12.049-2.587 4.062-7.987 5.259-12.049 2.671-18.247-11.665-30.853-28.416-38.721-46.69-9.205-21.365-11.969-44.96-9.761-64.868zm77.614 124.376c-4.667-1.206-7.47-5.979-6.265-10.645 1.205-4.667 5.978-7.471 10.645-6.266l3.126.76 3.196.64c4.742.887 7.873 5.457 6.985 10.199-.887 4.742-5.457 7.872-10.199 6.985l-3.779-.782-3.709-.891zm226.202-268.88a242.06 242.06 0 00-11.93-23.78 11.912 11.912 0 01-1.505-5.342c-.248-6.424 4.759-11.846 11.183-12.093 9.979-.393 18.562-1.824 25.732-4.283 6.234-2.141 11.267-5.033 15.069-8.667l.499-.53a46.175 46.175 0 007.784-10.34c6.102-11.056 7.77-24.407 5.611-37.366-2.185-13.104-8.291-25.714-17.683-35.105-3.575-3.576-7.602-6.667-12.013-9.104l-.636-.41c-4.72-3.02-10.111-5.683-16.146-7.97-6.256-2.366-13.056-4.304-20.389-5.788-7.63-1.545-15.807-2.711-24.509-3.488-8.451-.751-17.82-1.13-28.076-1.13-14.455 0-27.965.627-40.514 1.863-12.755 1.263-24.773 3.152-36.023 5.651-11.016 2.446-19.917 5.245-27.983 8.482-7.965 3.197-15.294 6.949-23.171 11.285-22.553 12.429-37.683 30.535-44.302 48.916-3.616 10.049-4.644 20.146-2.874 29.286 1.678 8.658 5.956 16.517 13.007 22.649 10.164 8.835 26.226 14.42 48.81 14.42 4.865 0 9.92-.225 15.148-.662l.261-.026a246.949 246.949 0 0017.108-2.067c3.625-.569 6.133-1.36 9.038-2.274 2.217-.697 4.672-1.47 8.822-2.477 5.748-1.58 11.859 1.475 13.978 7.166 3.488 9.378 6.473 18.425 8.945 27.109 2.566 9.003 4.724 17.939 6.455 26.778 2.102 10.738 3.705 21.829 4.791 33.238 1.095 11.475 1.647 22.813 1.647 34.001 0 13.577-1.003 25.948-3.007 37.087-2.049 11.396-5.162 21.343-9.334 29.803-2.622 5.276-6.3 9.899-10.702 13.775-8.455 7.457-19.943 12.526-31.741 14.469-11.934 1.964-24.469.754-34.866-4.362-4.937-2.429-9.391-5.714-13.078-9.895-16.442-18.65-13.374-42.514-10.548-64.461.883-6.888 1.744-13.551 1.744-19.683 0-15.727-4.397-27.436-12.354-35.052-8.344-7.992-21.139-12.054-37.365-12.054-23.034 0-40.62 12.023-53.097 29.326-16.817 23.312-24.751 55.882-24.751 83.106 0 22.964 3.399 43.11 10.194 60.431 6.659 16.963 16.654 31.374 29.971 43.211 13.413 11.921 30.354 20.906 50.814 26.937 21.011 6.195 45.807 9.298 74.364 9.298 22.447 0 42.801-2.154 61.049-6.459 18.005-4.243 33.997-10.574 47.957-18.963 14.12-8.495 26.355-18.27 36.681-29.308 10.226-10.932 18.712-23.281 25.428-37.021h.048a197.758 197.758 0 0015.259-43.255c3.377-14.893 5.069-30.456 5.069-46.682 0-16.005-1.184-31.679-3.537-47.008-2.38-15.489-5.908-30.558-10.575-45.176a273.31 273.31 0 00-9.757-26.006z"/></svg>