<svg xmlns="http://www.w3.org/2000/svg" shape-rendering="geometricPrecision" text-rendering="geometricPrecision" image-rendering="optimizeQuality" fill-rule="evenodd" clip-rule="evenodd" viewBox="0 0 409 512.14"><path fill-rule="nonzero" d="M0 397.311c0-13.134 2.146-26.44 6.425-39.896 4.205-13.192 10.449-26.387 18.725-39.561 8.21-13.063 18.928-26.413 32.141-40.028 12.97-13.359 28.454-27.071 46.428-41.11 9.719-7.6 19.961-15.134 30.705-22.597 10.749-7.464 22.598-15.276 35.528-23.42l4.302-2.698-2.659.552a617.683 617.683 0 01-28.003 5.114c-9.172 1.453-17.7 2.557-25.565 3.295-8.21.768-15.421 1.161-21.595 1.161-32.349 0-56.333-7.168-71.94-21.494-8.037-7.379-14.057-16.309-18.044-26.771C2.592 139.745.662 128.277.662 115.483c0-9.464.791-18.239 2.363-26.298l.102-.464c1.603-8.037 4.045-15.395 7.304-22.032 3.387-6.903 7.662-13.103 12.807-18.566 5.136-5.458 11.142-10.228 17.991-14.282l.054-.031c11.234-6.576 23.94-12.109 38.089-16.587 13.845-4.39 29.173-7.79 45.968-10.184 16.375-2.34 33.466-4.098 51.259-5.264C194.55.592 212.944 0 231.761 0c19.418 0 37.202.618 53.33 1.855 16.216 1.241 30.613 3.113 43.181 5.6 13.187 2.609 24.81 6.553 34.848 11.817 10.422 5.467 19.025 12.29 25.782 20.451 6.832 8.25 11.932 18.411 15.289 30.45C407.397 81.668 409 94.811 409 109.574c0 17.033-4.094 34.336-12.268 51.899-4.01 8.612-9.588 17.682-16.711 27.186-6.907 9.208-15.244 18.751-24.982 28.612-9.72 9.835-21.388 20.288-34.972 31.351-13.584 11.054-28.957 22.637-46.118 34.729-6.046 4.266-32.583 21.07-60.321 38.597a526.574 526.574 0 0128.692-4.835c10.537-1.475 20.739-2.575 30.587-3.295 10.122-.746 19.85-1.117 29.155-1.117 16.87 0 31.514 1.479 43.906 4.429 13.098 3.118 23.856 7.963 32.238 14.507 8.704 6.801 15.2 15.678 19.462 26.612 4.05 10.387 6.081 22.54 6.081 36.438 0 14.883-2.548 28.418-7.649 40.607-5.171 12.352-12.904 23.176-23.171 32.446-9.985 9.013-22.086 16.415-36.275 22.182-13.752 5.595-29.553 9.672-47.355 12.216a708.11 708.11 0 01-23.904 3.1 955.882 955.882 0 01-26.104 2.583c-8.484.724-17.484 1.387-26.952 1.974-8.532.526-17.36.972-26.475 1.312-8.457.322-16.733.569-24.784.737-9.406.199-16.896.296-22.602.296-45.756 0-80.153-9.813-103.162-29.434-11.844-10.104-20.734-22.412-26.643-36.915C2.893 431.615 0 415.452 0 397.311zm67.395-289.548c-1.775 4.478-6.853 6.669-11.332 4.894-4.478-1.776-6.668-6.854-4.893-11.332 6.333-15.991 17.775-26.586 31.731-33.515 13.195-6.562 28.607-9.728 43.896-11.106 4.801-.433 9.049 3.109 9.482 7.909.433 4.8-3.109 9.049-7.91 9.481-13.363 1.206-26.673 3.896-37.731 9.394-10.303 5.118-18.703 12.811-23.243 24.275zm96.401-35.422c-4.818.151-8.854-3.639-9.004-8.457-.151-4.818 3.638-8.854 8.456-9.004l3.141-.142c.088-.004.061.018.004.045 4.646-1.051 9.327 1.784 10.488 6.43 1.171 4.685-1.678 9.442-6.363 10.612-.698.172-1.776.296-3.167.375l-3.555.141zm2.597-17.541c-.124.036-.376.111-.124.049l.124-.049zM28.612 364.445c-3.488 10.961-5.233 21.922-5.233 32.866 0 15.143 2.314 28.387 6.934 39.718 4.482 11.001 11.212 20.328 20.159 27.96 18.584 15.845 47.929 23.772 88.006 23.772 8.382 0 15.823-.066 22.143-.199a1388.08 1388.08 0 0024.421-.737c8.179-.305 16.831-.751 25.928-1.312 8.143-.504 16.949-1.166 26.404-1.974a929.864 929.864 0 0025.468-2.495 699.52 699.52 0 0023.075-2.994h.048c15.877-2.266 29.867-5.861 41.928-10.767 11.645-4.734 21.458-10.701 29.42-17.89 7.68-6.929 13.43-14.958 17.236-24.046 3.878-9.27 5.821-19.829 5.821-31.66 0-11.062-1.48-20.385-4.429-27.95-2.734-7.013-6.766-12.604-12.07-16.746-5.617-4.385-13.394-7.772-23.291-10.126-10.59-2.522-23.437-3.785-38.518-3.785-9.088 0-18.27.34-27.513 1.02a444.32 444.32 0 00-29.031 3.109c-10.175 1.422-19.949 3.078-29.293 4.955a464.022 464.022 0 00-28.091 6.598 360.803 360.803 0 00-15.024 4.345 296.775 296.775 0 00-13.884 4.717 254.127 254.127 0 00-8.957 3.462l-.547.243a222.882 222.882 0 00-7.994 3.48 11.661 11.661 0 01-5.873 1.581c-6.452 0-11.69-5.238-11.69-11.69 0-4.615 3.754-8.911 10.365-13.266l13.606-8.779c14.322-9.146 29.765-18.906 45.346-28.745 29.866-18.871 60.435-38.187 67.042-42.846 16.984-11.968 31.938-23.22 44.846-33.722 12.913-10.515 23.944-20.389 33.055-29.61 9.075-9.19 16.746-17.952 22.969-26.246 6.005-8.011 10.731-15.708 14.158-23.07 6.708-14.41 10.069-28.427 10.069-42.042 0-12.825-1.299-23.896-3.891-33.192-2.442-8.753-6.05-16.017-10.82-21.776-4.84-5.847-11.036-10.749-18.565-14.701-7.909-4.147-17.435-7.331-28.551-9.53-11.734-2.324-25.22-4.073-40.434-5.238-15.28-1.171-32.49-1.758-51.599-1.758-18.83 0-36.743.561-53.705 1.678-17.135 1.126-33.62 2.822-49.43 5.079-15.395 2.195-29.474 5.322-42.224 9.362-12.453 3.94-23.573 8.775-33.346 14.476-4.955 2.92-9.239 6.307-12.833 10.127a52.094 52.094 0 00-8.886 12.816c-2.314 4.712-4.094 10.166-5.317 16.322l-.075.424c-1.267 6.496-1.903 13.774-1.903 21.82 0 9.972 1.413 18.672 4.231 26.064 2.685 7.053 6.699 13.033 12.012 17.913 11.097 10.187 29.818 15.284 56.147 15.284 6.085 0 12.59-.332 19.493-.976 7.229-.68 15.244-1.723 24.011-3.109a593.604 593.604 0 0027.005-4.929c8.717-1.793 17.995-3.921 27.83-6.385l11.036-3.083c11.469-3.255 28.241-8.028 37.206-10.064 2.058-.451 3.692-.778 4.792-.932h.049c8.633-.976 13.884 2.367 14.648 11.61-.022 4.116-2.208 8.108-6.072 10.228l-9.707 5.37a1470.554 1470.554 0 00-33.594 19.228c-10.983 6.478-21.25 12.727-30.759 18.72a922.63 922.63 0 00-34.618 22.872c-11.001 7.64-20.915 14.904-29.699 21.776-17.046 13.314-31.739 26.324-44.051 39.008-12.074 12.44-21.789 24.514-29.129 36.195-7.265 11.562-12.688 22.96-16.261 34.172z"/></svg>
