<svg xmlns="http://www.w3.org/2000/svg" shape-rendering="geometricPrecision" text-rendering="geometricPrecision" image-rendering="optimizeQuality" fill-rule="evenodd" clip-rule="evenodd" viewBox="0 0 450 511.609"><path fill-rule="nonzero" d="M114.571 17.695c9.344 0 18.424 1.081 27.225 3.234a105.953 105.953 0 0125.151 9.644c8.011 4.314 15.864 10.16 23.523 17.519 7.407 7.116 14.66 15.67 21.732 25.645 6.917 9.749 13.936 21.405 21.034 34.923 6.931 13.151 13.977 28.26 21.155 45.307 1.694 4.019 5.311 13.756 9.869 26.206l-.472-4.985c-1.858-20.188-2.948-39.569-2.948-56.686 0-19.548 1.642-36.604 4.906-51.136 3.41-15.189 8.643-27.626 15.679-37.301 7.244-9.957 16.138-17.479 26.673-22.552C318.466 2.497 330.21 0 343.294 0c9.499 0 18.243 1.111 26.21 3.322 8.197 2.276 15.512 5.757 21.922 10.425 6.229 4.548 11.823 10.151 16.764 16.799 4.769 6.419 8.969 13.84 12.578 22.222 10.99 24.264 18.631 57.039 22.919 98.296 2.091 20.184 3.67 41.911 4.716 65.156 1.063 23.643 1.597 48.308 1.597 73.993 0 22.853-.565 43.936-1.681 63.224-1.121 19.248-2.797 36.321-5.012 51.189-2.289 15.374-5.545 28.865-9.758 40.455-4.381 12.039-9.829 22.067-16.337 30.078-6.895 8.484-15.326 14.859-25.279 19.107-9.679 4.13-20.66 6.199-32.902 6.199-7.328 0-14.519-.539-21.555-1.611a133.332 133.332 0 01-20.669-4.875c-7.054-2.267-14.003-5.549-20.836-9.837l-.658-.446c-6.503-4.147-12.833-9.132-18.983-14.934-6.415-6.061-12.873-13.38-19.345-21.939-6.287-8.312-12.75-18.008-19.359-29.06-6.613-11.055-13.336-23.584-20.166-37.569-6.665-13.663-13.742-29.382-21.202-47.13-1.249-2.877-4.548-11.634-8.876-23.237 2.113 22.791 3.26 46.208 2.872 68.324-.724 41.28-6.936 78.471-22.293 100.022-7.989 11.214-18.189 19.645-30.581 25.256-12.027 5.449-25.976 8.18-41.814 8.18-16.751 0-31.297-2.859-43.632-8.55-12.785-5.908-23.02-14.784-30.687-26.607-7.227-11.148-12.609-25.054-16.129-41.69C1.703 418.663 0 399.967 0 378.689c0-8.823.154-19.376.455-31.649a1778.08 1778.08 0 011.226-35.373 2450.005 2450.005 0 011.968-37.87 2736.78 2736.78 0 012.616-39.131l.004-.045c.935-12.621 2.069-25.6 3.397-38.946a1412.568 1412.568 0 014.222-37.291c2.647-21.944 6.379-41.347 11.14-58.186 4.87-17.215 10.844-31.777 17.902-43.662 7.654-12.896 17.581-22.624 29.744-29.157 12.022-6.455 25.989-9.684 41.897-9.684zM88.494 82.454c2.643-4.019 8.051-5.139 12.07-2.497 4.019 2.643 5.14 8.052 2.497 12.07-6.595 10.037-12.326 23.104-16.896 39.485-4.394 15.745-7.703 34.578-9.657 56.743-.415 4.813-4.664 8.382-9.477 7.967-4.813-.414-8.382-4.663-7.967-9.476 2.038-23.091 5.558-42.983 10.274-59.884 5.065-18.15 11.568-32.858 19.156-44.408zM59.439 214.213c-.243-4.813 3.463-8.925 8.276-9.167 4.813-.243 8.925 3.463 9.168 8.276l.26 4.774c.242 4.812-3.463 8.924-8.276 9.167-4.814.242-8.925-3.463-9.168-8.277l-.26-4.773zm76.886-170.67c-6.807-1.663-14.06-2.501-21.754-2.501-12.052 0-22.345 2.289-30.859 6.86-8.361 4.491-15.278 11.329-20.718 20.492-6.043 10.173-11.227 22.884-15.528 38.095-4.412 15.6-7.897 33.846-10.452 54.713l-.044.049a1367.038 1367.038 0 00-4.143 36.701c-1.173 11.832-2.28 24.648-3.304 38.399a2681.987 2681.987 0 00-2.616 38.814c-.781 13.12-1.443 25.64-1.968 37.508-.551 12.538-.962 24.171-1.226 34.914-.243 9.891-.366 20.263-.366 31.102 0 19.782 1.522 36.868 4.562 51.237v.049c2.916 13.808 7.208 25.085 12.855 33.798 5.215 8.047 12.203 14.095 20.929 18.128 9.176 4.235 20.47 6.361 33.873 6.361 12.547 0 23.302-2.029 32.24-6.079 8.572-3.883 15.64-9.728 21.185-17.51 12.322-17.289 17.356-49.883 18.004-86.884.9-51.33-6.886-110.331-15.582-150.539-.997-4.619-1.91-8.59-2.713-11.872a299.717 299.717 0 00-2.554-9.79 11.575 11.575 0 01-.653-3.851c0-6.446 5.228-11.674 11.673-11.674 5.493 0 9.904 4.112 13.314 11.387 1.655 3.543 3.547 7.963 5.568 12.94 7.279 17.933 19.054 49.543 28.372 74.561 6.118 16.443 11.13 29.881 13.314 35.086 6.913 16.549 13.831 31.862 20.7 45.939 6.719 13.756 13.111 25.711 19.168 35.841 6.053 10.12 12.053 19.111 17.991 26.959 5.748 7.597 11.32 13.95 16.698 19.028 5.215 4.923 10.377 9.022 15.45 12.264l.635.371c5.175 3.247 10.368 5.713 15.542 7.376 5.414 1.738 11.096 3.062 17.025 3.966 5.837.892 11.877 1.337 18.088 1.337 9.159 0 17.091-1.429 23.779-4.284 6.424-2.744 11.881-6.869 16.341-12.357 4.848-5.969 9.022-13.751 12.507-23.329 3.644-10.027 6.507-21.996 8.576-35.893 2.149-14.404 3.763-30.78 4.827-49.097 1.059-18.278 1.592-38.933 1.592-61.945 0-26.316-.503-50.65-1.509-72.987-1.023-22.733-2.567-44.006-4.619-63.788-4.018-38.686-11.025-69.06-20.999-91.097l-.093-.225c-2.92-6.816-6.238-12.723-9.939-17.708-3.578-4.813-7.5-8.78-11.744-11.876-4.072-2.965-8.899-5.233-14.448-6.772-5.788-1.606-12.463-2.414-20.008-2.414-9.626 0-17.994 1.708-25.084 5.122-6.962 3.327-12.922 8.422-17.903 15.274-5.197 7.147-9.154 16.729-11.849 28.733-2.841 12.653-4.271 28.001-4.271 46.027 0 17.06 1.024 35.668 2.762 54.585 1.937 21.071 4.786 42.939 8.13 63.824a976.766 976.766 0 004.072 23.554 788.286 788.286 0 004.271 21.361c.278 1.002.428 2.052.428 3.142 0 6.445-5.228 11.673-11.673 11.673-5.449 0-9.689-3.794-12.834-10.592-1.196-2.577-2.903-6.684-4.972-11.899-7.133-17.924-17.748-46.997-26.593-71.24-7.015-19.23-12.94-35.456-14.819-39.916-6.803-16.16-13.575-30.666-20.316-43.491-6.538-12.503-13.019-23.249-19.411-32.267-6.243-8.801-12.547-16.261-18.9-22.362-6.088-5.85-12.238-10.447-18.423-13.778-6.269-3.371-12.803-5.899-19.584-7.553z"/></svg>