<svg xmlns="http://www.w3.org/2000/svg" shape-rendering="geometricPrecision" text-rendering="geometricPrecision" image-rendering="optimizeQuality" fill-rule="evenodd" clip-rule="evenodd" viewBox="0 0 486 512.214"><path fill-rule="nonzero" d="M382.574 512.214c-8.622 0-16.802-.83-24.536-2.487-7.884-1.683-15.207-4.223-21.948-7.588l-.958-.534c-6.864-3.583-12.964-8.393-18.286-14.413-5.433-6.135-10.026-13.458-13.759-21.93-3.648-8.264-6.382-18.157-8.193-29.628-1.758-11.135-2.641-23.586-2.641-37.332 0-11.89.455-24.306 1.351-37.225.875-12.54 2.222-25.645 4.028-39.306a1240.77 1240.77 0 014.669-32.116l-.994 1.586c-8.701 13.529-18.127 23.803-28.263 30.808-10.866 7.513-22.411 11.272-34.629 11.272-7.592 0-14.845-1.369-21.74-4.095l-1.007-.455c-6.457-2.694-12.504-6.541-18.104-11.523-7.523-6.688-13.114-15.19-18.061-23.873 1.449 10.746 2.813 21.497 3.997 32.274.998 9.156 1.753 17.809 2.253 25.936.516 8.445.781 16.161.781 23.126 0 10.354-.649 20.451-1.938 30.256-1.286 9.757-3.212 19.019-5.769 27.752-2.699 9.204-6.44 17.539-11.197 24.999-4.841 7.575-10.693 14.161-17.539 19.744-7.111 5.795-15.517 10.114-25.199 12.955-9.324 2.733-19.766 4.107-31.293 4.107-31.665 0-55.353-9.894-71.033-29.677-7.734-9.713-13.467-22.407-17.204-38.047C1.789 411.858 0 394.27 0 374.054c0-7.279.155-16.153.455-26.608.279-9.805.694-20.009 1.223-30.618a1878.693 1878.693 0 011.97-33.237 2110.193 2110.193 0 012.615-34.337c.884-10.406 1.966-21.868 3.247-34.421l.004-.048a1860.717 1860.717 0 013.684-33.432 1699.33 1699.33 0 013.975-30.821c1.334-9.717 2.668-18.63 3.98-26.695l.008-.045c3.185-19.174 7.664-35.719 13.415-49.61 6.007-14.501 13.445-26.193 22.301-35.044 8.9-8.891 19.054-15.587 30.432-20.048 11.272-4.422 23.643-6.639 37.089-6.639 8.842 0 17.636 1.219 26.364 3.649 8.653 2.407 17.098 5.98 25.3 10.684 8.529 4.894 16.665 11.797 24.395 20.702 7.349 8.471 14.354 18.829 20.984 31.046 6.665 12.279 12.588 26.965 17.747 44.037l2.514 8.705a459.475 459.475 0 012.716-10.949c4.69-17.986 9.964-33.511 15.795-46.55 5.927-13.25 12.247-24.518 18.957-33.794l.49-.626c6.926-9.462 14.32-16.953 22.155-22.465 7.951-5.583 16.259-9.797 24.894-12.61C335.45 1.427 344.465 0 353.74 0c14.17 0 26.996 2.341 38.449 7.009 11.648 4.749 21.802 11.904 30.459 21.449 8.229 9.077 15.322 19.889 21.254 32.398 5.818 12.279 10.575 26.249 14.258 41.894 2.902 12.275 5.601 25.433 8.079 39.443 2.394 13.538 4.682 28.524 6.841 44.915a1445.634 1445.634 0 015.53 48.118 1559.578 1559.578 0 014.068 49.31 1573.677 1573.677 0 012.456 48.268c.574 16.272.866 31.342.866 45.185 0 23.396-2.218 43.546-6.634 60.423-4.629 17.663-11.749 31.806-21.33 42.398-9.487 10.481-20.618 18.361-33.356 23.608-12.615 5.19-26.656 7.796-42.106 7.796zM89.31 82.379c2.738-3.971 8.184-4.964 12.155-2.226 3.971 2.739 4.965 8.185 2.226 12.156-7.124 10.269-13.193 23.409-17.773 39.822-4.36 15.636-7.386 34.227-8.71 56.104-.283 4.818-4.426 8.502-9.245 8.22-4.819-.283-8.502-4.426-8.22-9.245 1.4-23.122 4.642-42.928 9.329-59.734 5.136-18.405 12.053-33.299 20.238-45.097zM58.992 212.916c-.243-4.819 3.467-8.935 8.286-9.178 4.819-.243 8.935 3.467 9.179 8.286l.26 4.779c.243 4.819-3.467 8.935-8.286 9.179-4.819.242-8.935-3.468-9.178-8.287l-.261-4.779zm303.887 273.985c6.025 1.289 12.597 1.939 19.695 1.939 12.504 0 23.591-1.997 33.246-5.967 9.531-3.927 17.862-9.824 24.964-17.672 7.01-7.748 12.359-18.635 16.029-32.637 3.869-14.788 5.813-32.985 5.813-54.575 0-14.96-.261-29.752-.778-44.363-.521-14.983-1.347-30.866-2.456-47.632a1525.897 1525.897 0 00-3.97-48.489 1428.612 1428.612 0 00-5.442-47.384 1011.452 1011.452 0 00-6.753-43.909c-2.425-13.71-5.031-26.444-7.805-38.17-3.308-14.055-7.518-26.475-12.615-37.231-4.991-10.529-10.803-19.456-17.411-26.744-6.188-6.824-13.516-11.97-21.97-15.415-8.622-3.516-18.524-5.278-29.686-5.278-6.877 0-13.493 1.034-19.814 3.096-6.427 2.094-12.667 5.27-18.692 9.501-5.804 4.077-11.387 9.779-16.745 17.085l-.415.618c-5.852 8.092-11.382 17.959-16.59 29.598-5.304 11.859-10.15 26.17-14.514 42.901-4.381 16.788-8.272 35.918-11.66 57.358-.42 6.078-5.481 10.878-11.661 10.878h-2.614c-5.588-.008-10.535-4.032-11.507-9.725-3.617-20.853-7.857-39.315-12.707-55.357-4.775-15.795-10.057-29.02-15.83-39.655-5.808-10.702-11.864-19.691-18.158-26.939-5.918-6.82-12.045-12.049-18.37-15.676-6.647-3.811-13.295-6.651-19.911-8.493a74.806 74.806 0 00-20.154-2.739c-10.579 0-20.119 1.67-28.6 4.996-8.379 3.286-15.883 8.242-22.491 14.845-6.647 6.647-12.385 15.781-17.186 27.376-5.048 12.195-9.041 27.066-11.956 44.584a1045.271 1045.271 0 00-3.892 26.007c-1.196 8.692-2.495 18.833-3.886 30.458a1871.41 1871.41 0 00-3.688 33.07c-1.016 9.929-2.067 21.285-3.15 34.01a2109.929 2109.929 0 00-2.615 33.975 1910.597 1910.597 0 00-1.97 32.777c-.552 11.003-.967 21.074-1.223 30.159a901.614 901.614 0 00-.367 25.972c0 18.665 1.546 34.456 4.629 47.358 2.915 12.208 7.191 21.858 12.8 28.939 10.959 13.878 28.564 20.799 52.796 20.799 9.434 0 17.685-1.038 24.721-3.101 6.696-1.961 12.394-4.858 17.071-8.67a59.507 59.507 0 0012.611-14.169c3.528-5.535 6.355-11.895 8.458-19.064 2.239-7.645 3.922-15.715 5.035-24.191 1.109-8.423 1.665-17.509 1.665-27.244 0-7.005-.234-14.266-.693-21.757-.477-7.809-1.206-16.1-2.156-24.841a1226.03 1226.03 0 00-3.317-27.331c-1.091-8.198-2.464-17.672-4.116-28.436l-4.691-30.057-4.832-29.479c-3.609-21.629-5.181-37.124-5.013-47.685a11.596 11.596 0 01-2.328-5.313c-1.011-6.206 3.083-12.067 9.196-13.299l.393-.08c11.449-1.859 16.899 18.723 23.586 44.257 5.981 22.849 13.33 50.901 18.538 64.54 4.382 11.48 8.781 21.024 13.18 28.613 4.103 7.076 8.171 12.407 12.177 15.967 3.675 3.273 7.483 5.746 11.392 7.407l.786.278c4.125 1.63 8.52 2.452 13.153 2.452 7.434 0 14.567-2.359 21.387-7.076 7.553-5.217 14.854-13.304 21.877-24.227 14.43-22.451 29.129-68.661 36.996-93.413 5.207-16.391 8.582-26.974 19.239-24.88 11.334 2.252 8.048 24.284-3.842 84.23a1309.299 1309.299 0 00-7.407 40.512 1212.21 1212.21 0 00-5.932 39.69 616.364 616.364 0 00-3.843 37.848 514.765 514.765 0 00-1.263 35.671c0 12.898.764 24.161 2.279 33.772 1.462 9.267 3.648 17.208 6.55 23.78 2.809 6.374 6.091 11.679 9.828 15.906 3.396 3.838 7.226 6.89 11.479 9.134l.734.335c5.048 2.522 10.516 4.417 16.382 5.672z"/></svg>
