<svg xmlns="http://www.w3.org/2000/svg" shape-rendering="geometricPrecision" text-rendering="geometricPrecision" image-rendering="optimizeQuality" fill-rule="evenodd" clip-rule="evenodd" viewBox="0 0 417 511.787"><path fill-rule="nonzero" d="M257.568 183.245c4.912 1.28 9.749 2.507 14.657 3.624a253.13 253.13 0 0014.554 2.886 237.558 237.558 0 0018.341 2.33c5.914.521 11.674.781 17.261.781 12.392 0 23.081-1.761 32.049-5.265 8.539-3.345 15.64-8.332 21.258-14.939l.609-.666c5.6-6.752 9.864-14.555 12.759-23.39 3.058-9.325 4.589-19.868 4.589-31.607 0-8.933-.856-17.234-2.559-24.896-1.691-7.59-4.255-14.779-7.68-21.532-3.102-6.121-7.736-11.712-13.857-16.748-6.465-5.317-14.608-10.057-24.405-14.197-6.673-2.608-14.259-4.943-22.737-6.964l-1.006-.287c-8.226-1.924-17.295-3.557-27.185-4.881-10.274-1.372-21.907-2.418-34.878-3.116-12.67-.679-26.991-1.023-42.936-1.023-17.079 0-32.588.45-46.502 1.354-14.096.914-26.74 2.264-37.905 4.056-11.13 1.783-21.369 4.109-30.707 6.96-9.206 2.811-17.574 6.148-25.076 10v.049c-9.427 4.81-17.525 10.234-24.277 16.249-6.603 5.879-11.951 12.335-16.02 19.339a90.028 90.028 0 00-9.427 23.032c-2.07 8.266-3.133 17.08-3.133 26.427 0 10.883 1.35 20.38 4.051 28.474l.155.503c2.572 7.525 6.381 13.99 11.412 19.374 4.828 5.168 11.62 9.127 20.362 11.863 9.524 2.978 21.294 4.47 35.289 4.47 3.618 0 7.489-.181 11.589-.534 4.603-.397 9.038-.931 13.292-1.588a328.72 328.72 0 0014.321-2.547c5.301-1.099 10.084-2.158 14.339-3.2l3.747-1.019c3.08-.887 6.324-1.827 8.923-2.194 6.373-.904 12.278 3.527 13.182 9.899a11.643 11.643 0 01-1.103 6.837 345.326 345.326 0 00-6.642 14.201 546.127 546.127 0 00-6.249 14.674l-.256.574a585.337 585.337 0 00-10.702 28.452 627.515 627.515 0 00-9.696 30.354 611.532 611.532 0 00-8.045 30.504 528.527 528.527 0 00-6.112 29.485c-1.753 9.846-3.045 18.95-3.866 27.269-.812 8.257-1.223 16.276-1.223 24.039 0 15.481 1.792 28.88 5.375 40.178 3.407 10.75 8.425 19.577 15.036 26.465 6.616 6.885 14.882 12.093 24.781 15.592 10.335 3.654 22.542 5.486 36.603 5.486 30.976 0 52.751-7.851 65.307-23.549 6.443-8.049 11.328-17.966 14.642-29.714 3.425-12.145 5.142-26.272 5.142-42.354 0-6.165-.287-12.939-.861-20.296-.609-7.824-1.487-16.033-2.621-24.608a587.301 587.301 0 00-4.356-27.6c-1.686-9.263-3.689-19.034-6.002-29.277a594.383 594.383 0 00-7.595-29.94 617.719 617.719 0 00-9.193-29.815c-1.09-3.24-3.261-8.412-5.45-13.65-3.12-7.446-6.302-15.041-7.595-20.429-1.483-6.245 2.374-12.52 8.619-14.003a11.708 11.708 0 015.613.048zm-80.859 249.903c.905 4.74-2.206 9.325-6.946 10.23-4.74.904-9.325-2.207-10.23-6.947l-1.619-8.756c-.848-4.739 2.308-9.281 7.047-10.128 4.74-.847 9.281 2.308 10.129 7.048l1.619 8.553zm-4.823-37.005c.264 4.815-3.429 8.941-8.244 9.206-4.815.265-8.941-3.429-9.206-8.244-.675-11.977-.658-23.717.053-35.182.715-11.567 2.131-22.874 4.232-33.885.905-4.74 5.49-7.851 10.23-6.946 4.74.905 7.851 5.49 6.946 10.23a251.768 251.768 0 00-3.958 31.625c-.671 10.834-.689 21.911-.053 33.196zm111.063-183.395a248.447 248.447 0 01-9.542-1.792c1.916 4.599 3.743 9.069 5.049 12.935a646.765 646.765 0 019.564 30.91 620.79 620.79 0 017.868 31.122 732.754 732.754 0 016.179 30.283c1.805 9.926 3.323 19.498 4.541 28.695 1.271 9.621 2.211 18.262 2.807 25.888.631 8.116.948 15.46.948 22.026 0 18.134-2.021 34.358-6.05 48.647-4.139 14.679-10.455 27.331-18.933 37.923-17.273 21.598-45.107 32.402-83.462 32.402-16.651 0-31.445-2.286-44.362-6.854-13.35-4.722-24.626-11.876-33.809-21.435-9.18-9.568-16.025-21.435-20.509-35.584-4.312-13.601-6.469-29.343-6.469-47.203 0-8.028.472-16.806 1.407-26.316.931-9.44 2.286-19.123 4.043-29.008 1.774-10.023 3.91-20.283 6.386-30.756 2.378-10.062 5.19-20.636 8.416-31.696a652.023 652.023 0 0110.057-31.536 599.823 599.823 0 0111.179-29.591l3.65-8.849-3.518.729-.008-.045a354.307 354.307 0 01-15.319 2.732c-5.604.865-10.574 1.496-14.846 1.863-4.779.41-9.316.622-13.592.622-16.29 0-30.368-1.858-42.226-5.565-12.648-3.959-22.821-10.049-30.487-18.253-7.228-7.737-12.692-17.013-16.373-27.786l-.207-.573C1.778 156.029 0 144.069 0 130.821c0-11.272 1.306-22 3.906-32.164 2.683-10.313 6.624-19.978 11.849-28.973 5.358-9.219 12.26-17.591 20.672-25.084 8.27-7.37 18.01-13.92 29.202-19.63 8.751-4.44 18.385-8.297 28.906-11.505 10.411-3.182 21.691-5.751 33.815-7.693 12.083-1.937 25.455-3.385 40.093-4.329C183.263.481 199.256 0 216.402 0c15.644 0 30.354.375 44.119 1.112 13.465.728 25.707 1.831 36.704 3.301 10.588 1.417 20.442 3.2 29.542 5.336l1.024.194c9.405 2.242 18.015 4.907 25.826 7.988l.274.137c12.008 5.044 22.159 10.98 30.433 17.785 8.681 7.136 15.319 15.217 19.886 24.224 4.25 8.381 7.454 17.397 9.595 27.013 2.127 9.559 3.195 19.533 3.195 29.909 0 14.139-1.924 27.092-5.773 38.818-3.808 11.611-9.532 21.991-17.158 31.14l-.587.754c-8.182 9.621-18.386 16.832-30.57 21.603-11.762 4.599-25.279 6.907-40.531 6.907-6.254 0-12.675-.292-19.264-.87-6.381-.556-13.116-1.425-20.168-2.603z"/></svg>