<svg xmlns="http://www.w3.org/2000/svg" shape-rendering="geometricPrecision" text-rendering="geometricPrecision" image-rendering="optimizeQuality" fill-rule="evenodd" clip-rule="evenodd" viewBox="0 0 471 512.396"><path fill-rule="nonzero" d="M426.886 332.436c-2.634-2.783-5.722-5.403-9.235-7.838a11.675 11.675 0 01-4.613-6.53c-1.688-6.204 1.971-12.611 8.175-14.299 6.19-1.7 12.526-7.241 17.532-14.187 5.364-7.441 8.872-16.092 8.872-23.162 0-5.284-1.471-10.008-4.409-14.157-3.31-4.67-8.594-8.96-15.827-12.849-7.87-4.228-15.377-7.405-25.075-9.499-10.092-2.183-22.782-3.279-40.849-3.279-12.654 0-21.465.442-29.263 1.313-7.79.87-15.103 2.244-24.461 4.069-9.252 1.794-17.652 3.826-25.158 6.133-7.433 2.284-14.034 4.834-19.72 7.675-9.045 4.524-18.492 10.44-25.486 17.846-6.168 6.53-10.392 14.298-10.322 23.303v.048c.217 28.243 50.49 27.974 77.341 27.828l5.4-.066c5.624 0 9.468-.128 13.352-.252l6.327-.186a11.72 11.72 0 013.257.111c6.354 1.109 10.609 7.167 9.5 13.52-1.737 9.752-4.892 18.416-10.017 25.932-5.236 7.67-12.407 13.927-22.061 18.659-6.447 3.16-14.215 5.492-23.29 6.99-8.7 1.441-18.597 2.161-29.675 2.161-10.423 0-20.435-.875-30.019-2.62-9.725-1.772-18.716-4.397-26.966-7.856-8.713-3.712-16.52-8.448-23.386-14.25-6.924-5.846-12.902-12.734-17.922-20.634-5.055-7.962-8.85-17.077-11.36-27.315-2.443-9.959-3.667-20.868-3.667-32.723 0-35.781 11.422-66.503 32.396-88.219 20.4-21.125 49.496-33.492 85.542-33.492 10.14 0 22.132.738 34.813 1.52 39.677 2.443 86.783 5.351 109.679-14.48 4.211-3.645 7.662-7.555 10.379-11.611 7.26-10.839 9.509-23.149 7.847-35.194v-.048c-1.718-12.487-7.617-24.77-16.507-35.043a77.427 77.427 0 00-15.429-13.64c-11.095-7.431-24.836-13.056-41.198-16.865-16.79-3.91-36.32-5.868-58.562-5.868-27.602 0-53.291 2.704-77.045 8.095-23.679 5.382-45.563 13.432-65.632 24.147-20.037 10.701-37.866 23.462-53.455 38.259-15.566 14.785-28.901 31.593-39.978 50.406-11.059 18.779-19.383 39.068-24.951 60.829-5.581 21.81-8.377 45.113-8.377 69.883 0 21.853 2.054 42.267 6.159 61.213 4.083 18.858 10.189 36.307 18.297 52.324 8.028 15.844 18.111 29.921 30.235 42.2 12.125 12.279 26.383 22.831 42.753 31.637 16.402 8.819 35.008 15.455 55.801 19.9 21.028 4.49 44.366 6.739 69.998 6.739 23.727 0 45.046-1.512 63.913-4.52 18.672-2.983 35.153-7.445 49.407-13.375 14.219-5.916 26.48-12.642 36.762-20.166 10.052-7.352 18.239-15.469 24.54-24.328 12.615-17.74 18.924-36.17 18.924-55.275 0-6.164-.614-11.828-1.829-16.976-1.136-4.807-2.771-9.159-4.887-13.043l-.313-.521c-1.658-2.935-3.752-5.736-6.257-8.374zM71.213 289.741c.017 4.82-3.88 8.753-8.7 8.77-4.821.018-8.753-3.879-8.771-8.7l-.084-12.968a8.772 8.772 0 018.771-8.77 8.772 8.772 0 018.77 8.77l.014 12.898zm4.917-47.486c-.658 4.786-5.077 8.126-9.862 7.468-4.785-.659-8.125-5.077-7.467-9.862 4.008-28.248 12.721-54.727 25.822-78.649 13.038-23.824 30.407-45.086 51.775-63.007 3.703-3.098 9.231-2.607 12.328 1.095 3.097 3.703 2.607 9.231-1.096 12.328-19.715 16.534-35.701 36.085-47.667 57.944-12.08 22.057-20.121 46.531-23.833 72.683zm368.377 74.88c3.508 3.814 6.486 7.87 8.916 12.169l.371.707c3.252 5.907 5.691 12.27 7.295 19.07 1.64 6.941 2.466 14.369 2.466 22.269 0 24.005-7.773 46.942-23.308 68.795-7.767 10.927-17.691 20.807-29.745 29.622-11.81 8.642-25.684 16.277-41.604 22.905-15.871 6.601-34.12 11.555-54.709 14.842-20.383 3.252-42.913 4.882-67.563 4.882-27.147 0-52.107-2.43-74.84-7.286-22.976-4.909-43.655-12.31-62.014-22.181-18.38-9.888-34.494-21.84-48.32-35.842-13.834-14.007-25.317-30.028-34.442-48.042-9.04-17.855-15.814-37.16-20.303-57.9C2.236 320.511 0 298.459 0 275.001c0-26.701 3.04-51.917 9.111-75.636 6.08-23.753 15.257-46.053 27.505-66.855 12.235-20.776 26.908-39.294 43.999-55.523 17.073-16.211 36.607-30.187 58.571-41.918 21.947-11.718 45.78-20.501 71.474-26.338C236.278 2.916 263.677 0 292.821 0c23.952 0 45.241 2.165 63.856 6.504 19.043 4.431 35.343 11.187 48.876 20.25a100.876 100.876 0 0120.087 17.749c11.779 13.609 19.622 30.12 21.977 47.145 2.422 17.47-.91 35.427-11.585 51.364-3.857 5.758-8.669 11.236-14.488 16.269-30.107 26.069-82.32 22.852-126.302 20.144-11.943-.734-23.245-1.432-33.443-1.432-29.383 0-52.735 9.703-68.734 26.273-16.715 17.307-25.822 42.399-25.822 72.056 0 10.136.982 19.189 2.934 27.156 1.883 7.684 4.706 14.484 8.444 20.369 3.773 5.943 8.201 11.064 13.256 15.332 5.112 4.317 10.904 7.838 17.342 10.547 6.946 2.872 14.294 5.037 22.053 6.451 7.9 1.44 16.542 2.16 25.909 2.16 10.039 0 18.691-.6 25.928-1.798 6.866-1.131 12.478-2.766 16.804-4.887 5.783-2.832 10.012-6.482 13.021-10.891a31.864 31.864 0 001.626-2.66l-4.772.066-5.311-.022c-34.919.185-100.282.544-100.723-50.985-.129-15.911 6.676-28.936 16.631-39.474 9.128-9.663 20.917-17.117 32.06-22.689 6.977-3.486 14.758-6.513 23.281-9.133 8.439-2.589 17.638-4.834 27.535-6.76 9.774-1.918 17.476-3.354 26.379-4.352 8.903-.995 18.513-1.498 31.817-1.498 19.76 0 34.005 1.277 45.78 3.826 12.164 2.629 21.482 6.557 31.199 11.78 10.352 5.563 18.283 12.23 23.771 19.98 5.859 8.271 8.793 17.471 8.793 27.58 0 11.895-5.276 25.583-13.344 36.771-3.778 5.24-8.245 10.03-13.149 13.944z"/></svg>