<svg xmlns="http://www.w3.org/2000/svg" shape-rendering="geometricPrecision" text-rendering="geometricPrecision" image-rendering="optimizeQuality" fill-rule="evenodd" clip-rule="evenodd" viewBox="0 0 410 511.543"><path fill-rule="nonzero" d="M364.42 44.349c15.226 14.861 26.651 32.043 34.256 51.513 7.547 19.33 11.324 40.812 11.324 64.425 0 32.69-7.671 61.213-22.996 85.553-7.64 12.117-16.612 22.876-26.899 32.258-10.264 9.356-21.87 17.367-34.781 24.001l-.64.305c-12.713 6.471-26.241 11.332-40.556 14.57-14.547 3.29-29.845 4.94-45.844 4.94-5.346 0-11.222-.282-17.636-.851l-.004.048c-5.775-.507-11.959-1.31-18.523-2.4l-.044-.008c-2.81-.459-5.646-.993-8.504-1.588a717.07 717.07 0 015.527 42.086c.807 8.033 1.42 15.638 1.813 22.775.419 7.64.635 14.676.635 21.067 0 16.833-2.065 31.835-6.18 44.985-4.252 13.573-10.728 25.169-19.409 34.759-8.827 9.749-19.757 17.023-32.761 21.809-12.576 4.627-27.067 6.947-43.436 6.947-12.528 0-23.842-1.557-33.931-4.662-10.463-3.225-19.501-8.108-27.097-14.636-7.592-6.524-13.988-15.02-19.18-25.461-4.905-9.881-8.76-21.623-11.544-35.192-2.704-13.15-4.719-28.275-6.034-45.338C.662 369.179 0 350.11 0 329.073c0-28.367.887-54.808 2.651-79.303 1.764-24.508 4.42-46.925 7.953-67.238 3.56-20.45 7.918-38.889 13.057-55.289 5.188-16.582 11.248-31.187 18.143-43.802 14.226-25.986 37.291-46.476 69.18-61.452 15.699-7.371 33.167-12.893 52.377-16.546C182.426 1.817 203.145 0 225.509 0c30.732 0 57.587 3.604 80.542 10.803 23.56 7.388 43.027 18.575 58.369 33.546zM93.93 100.538a8.718 8.718 0 0113.948 10.463c-7.481 9.956-14.019 22.845-19.219 39.096-4.945 15.447-8.659 33.882-10.803 55.655-.472 4.795-4.746 8.301-9.541 7.83-4.795-.472-8.302-4.747-7.83-9.542 2.272-23.048 6.246-42.695 11.553-59.281 5.805-18.138 13.26-32.73 21.892-44.221zM59.841 231.292c-.075-4.812 3.771-8.782 8.584-8.857 4.812-.075 8.783 3.771 8.857 8.583l.08 4.778c.075 4.812-3.772 8.782-8.584 8.857-4.813.076-8.782-3.771-8.858-8.584l-.079-4.777zM376.973 104.34c-6.4-16.382-16.003-30.829-28.786-43.308-12.669-12.364-29.039-21.698-49.07-27.98-20.63-6.466-45.174-9.709-73.608-9.709-21.107 0-40.401 1.663-57.86 4.985-17.318 3.295-32.934 8.209-46.82 14.729-27.278 12.814-46.824 29.991-58.602 51.508-6.091 11.152-11.543 24.359-16.316 39.612-4.831 15.412-8.946 32.845-12.325 52.272-3.405 19.599-5.972 41.252-7.68 64.962-1.707 23.679-2.563 49.568-2.563 77.662 0 20.649.631 39.136 1.889 55.452 1.257 16.33 3.122 30.477 5.575 42.417 2.364 11.522 5.58 21.377 9.63 29.538 3.775 7.591 8.257 13.625 13.436 18.076 5.174 4.446 11.447 7.812 18.795 10.075 7.724 2.378 16.758 3.569 27.094 3.569 13.656 0 25.465-1.835 35.407-5.492 9.507-3.498 17.371-8.677 23.56-15.509 6.326-6.988 11.13-15.704 14.389-26.105 3.388-10.821 5.086-23.512 5.086-38.051 0-6.608-.185-13.207-.547-19.788a481.76 481.76 0 00-1.716-21.778 679.23 679.23 0 00-2.633-22.298 664.098 664.098 0 00-3.335-21.976c-.238-1.434-.644-3.299-1.045-5.17-.662-3.105-1.346-6.255-1.685-9.32a12.294 12.294 0 01.41-4.469c1.76-6.167 8.196-9.735 14.363-7.975 3.754 1.08 7.794 2.13 12.139 3.123 3.952.908 7.878 1.694 11.751 2.338a217.053 217.053 0 0016.74 2.126l-.004.048c5.02.441 10.238.667 15.642.667 14.473 0 28.059-1.438 40.736-4.306 12.457-2.819 24.156-7.009 35.077-12.554l.561-.309c11.054-5.681 20.983-12.532 29.761-20.533 8.761-7.993 16.401-17.142 22.886-27.433 12.897-20.485 19.351-44.874 19.351-73.149 0-20.764-3.229-39.418-9.683-55.947zm-170.295 97.402c9.894 0 18.818-1.226 26.758-3.657 7.794-2.391 14.786-5.959 20.944-10.697 5.783-4.451 10.114-9.669 12.964-15.642l.424-.807c2.598-5.778 3.903-12.479 3.903-20.066 0-4.914-.727-9.294-2.166-13.127-1.407-3.745-3.555-7.146-6.404-10.164l-.049-.052c-2.536-2.638-6.18-4.689-10.913-6.136-5.589-1.708-12.677-2.563-21.248-2.563-6.577 0-12.696.657-18.328 1.954-5.554 1.279-10.759 3.207-15.585 5.761-4.918 2.602-9.263 5.576-13.017 8.91-3.719 3.3-6.93 6.983-9.599 11.037-2.62 3.983-4.592 8.103-5.897 12.342-1.258 4.08-1.888 8.381-1.888 12.881 0 4.477.763 8.451 2.276 11.914 1.495 3.41 3.816 6.533 6.956 9.352l.477.454c3.017 2.558 6.801 4.535 11.327 5.911 5.245 1.597 11.606 2.395 19.065 2.395zm33.595 18.593c-10.318 3.163-21.522 4.751-33.595 4.751-9.563 0-18.174-1.165-25.814-3.489-7.754-2.361-14.393-5.924-19.898-10.671l-.746-.617c-5.597-5.025-9.841-10.83-12.708-17.38-2.85-6.511-4.279-13.591-4.279-21.213 0-6.688.997-13.269 2.982-19.718 1.941-6.295 4.852-12.386 8.721-18.271a79.157 79.157 0 0113.612-15.686c5.205-4.618 11.072-8.659 17.579-12.104 6.594-3.489 13.683-6.118 21.239-7.86 7.468-1.721 15.32-2.59 23.525-2.59 10.692 0 20.026 1.222 27.997 3.657 8.699 2.664 15.699 6.762 20.988 12.289l.181.19c4.976 5.267 8.729 11.244 11.24 17.918 2.47 6.582 3.718 13.697 3.718 21.332 0 10.918-2.065 20.887-6.18 29.89l-.423 1.014c-4.425 9.264-11.042 17.288-19.811 24.032-8.407 6.471-17.865 11.319-28.328 14.526z"/></svg>