<svg xmlns="http://www.w3.org/2000/svg" shape-rendering="geometricPrecision" text-rendering="geometricPrecision" image-rendering="optimizeQuality" fill-rule="evenodd" clip-rule="evenodd" viewBox="0 0 512 478.923"><path fill-rule="nonzero" d="M247.732 478.923c-24.651 0-47.848-2.238-69.567-6.706-21.81-4.485-41.988-11.229-60.514-20.203-18.642-9.032-35.224-20.051-49.736-33.043C53.399 405.97 40.993 391 30.726 374.08c-10.254-16.904-17.952-35.344-23.065-55.286C2.556 298.896 0 277.623 0 255c0-25.014 2.552-48.591 7.657-70.727 5.112-22.185 12.815-42.872 23.098-62.051 10.308-19.241 22.768-36.359 37.35-51.346C82.704 55.868 99.459 42.967 118.332 32.2c18.816-10.733 39.25-18.794 61.27-24.167C201.536 2.68 224.915 0 249.718 0c52.924 0 98.939 10.349 138.032 31.04 19.629 10.386 37.09 22.858 52.37 37.387 15.334 14.579 28.438 31.176 39.296 49.773 10.869 18.613 19.03 38.787 24.469 60.485 5.41 21.578 8.115 44.598 8.115 69.043 0 23.589-2.722 45.663-8.157 66.197-5.467 20.64-13.686 39.654-24.638 57.02-10.94 17.333-24.16 32.704-39.634 46.089-15.442 13.343-33.084 24.692-52.911 34.034-19.811 9.329-41.332 16.317-64.533 20.942-23.09 4.605-47.898 6.913-74.395 6.913zM67.738 283.632c.177 4.506-3.337 8.309-7.843 8.487-4.506.178-8.309-3.337-8.487-7.842l-.276-8.334c-.12-4.506 3.436-8.268 7.941-8.388 4.506-.12 8.268 3.436 8.388 7.942l.277 8.135zm.978-43.892c-.421 4.49-4.41 7.785-8.899 7.364-4.49-.421-7.785-4.411-7.364-8.9 1.503-15.776 4.196-30.841 8.062-45.172a241.208 241.208 0 0115.346-41.451c5.485-11.44 11.749-22.21 18.778-32.283 7.066-10.122 14.88-19.53 23.429-28.194 3.163-3.217 8.342-3.258 11.559-.095a8.176 8.176 0 01.095 11.559 200.94 200.94 0 00-21.702 26.08c-6.517 9.334-12.332 19.336-17.432 29.979-5.836 12.183-10.597 25.068-14.256 38.634-3.672 13.608-6.215 27.778-7.616 42.479zm113.802 211.134c20.063 4.125 41.802 6.194 65.214 6.194 25.089 0 48.472-2.163 70.124-6.483 21.554-4.3 41.394-10.717 59.495-19.241 18.084-8.52 34.079-18.791 47.964-30.788 13.835-11.964 25.658-25.716 35.446-41.224 9.763-15.474 17.102-32.473 21.995-50.958 4.923-18.601 7.389-38.82 7.389-60.646 0-22.739-2.478-43.995-7.43-63.748-4.923-19.629-12.315-37.9-22.165-54.77-9.866-16.903-21.689-31.907-35.454-44.99-13.814-13.133-29.661-24.441-47.506-33.886-35.867-18.98-78.495-28.479-127.872-28.479-23.263 0-44.936 2.453-64.995 7.347-19.98 4.873-38.531 12.196-55.637 21.954-17.06 9.734-32.192 21.38-45.362 34.918-13.195 13.558-24.452 29.028-33.757 46.39-9.337 17.412-16.358 36.314-21.05 56.674-4.703 20.414-7.062 42.372-7.062 65.862 0 21.038 2.301 40.514 6.893 58.417 4.58 17.861 11.448 34.335 20.587 49.397 9.127 15.036 20.166 28.359 33.092 39.935 12.935 11.58 27.839 21.467 44.698 29.632 16.961 8.218 35.433 14.388 55.393 18.493zm75.795-175.047c7.4 0 14.244-.69 20.521-2.061 6.133-1.342 11.749-3.337 16.821-5.963 5.087-2.635 9.626-5.736 13.608-9.288l.557-.463a56.257 56.257 0 009.433-11.212c2.696-4.225 4.736-8.809 6.116-13.72 1.367-4.881 2.052-10.159 2.052-15.825 0-5.658-.689-10.94-2.057-15.821a50.815 50.815 0 00-6.111-13.711 56.093 56.093 0 00-9.99-11.717c-3.903-3.485-8.45-6.579-13.608-9.247-5.072-2.63-10.688-4.625-16.821-5.967-6.277-1.371-13.121-2.061-20.521-2.061-7.269 0-13.963.674-20.063 2.02-6.001 1.321-11.667 3.345-16.986 6.054-5.319 2.705-9.949 5.794-13.864 9.247-3.932 3.469-7.281 7.363-10.023 11.671a50.812 50.812 0 00-6.112 13.715c-1.367 4.881-2.057 10.159-2.057 15.817 0 5.662.69 10.944 2.057 15.825a50.802 50.802 0 006.112 13.72c2.742 4.303 6.088 8.197 10.023 11.667 3.915 3.452 8.549 6.545 13.864 9.25 5.315 2.705 10.985 4.729 16.986 6.051 6.1 1.346 12.794 2.019 20.063 2.019zm25.13 19.282c-7.834 1.714-16.214 2.573-25.13 2.573-8.603 0-16.858-.876-24.754-2.614-7.996-1.764-15.397-4.382-22.198-7.843-6.802-3.461-12.943-7.607-18.391-12.414a76.261 76.261 0 01-13.946-16.276c-3.915-6.137-6.839-12.654-8.763-19.525-1.937-6.906-2.908-14.153-2.908-21.715 0-7.562.971-14.801 2.908-21.707 1.924-6.876 4.852-13.388 8.763-19.521a76.21 76.21 0 0113.946-16.28c5.452-4.807 11.593-8.953 18.391-12.41 6.797-3.461 14.202-6.083 22.198-7.847 7.896-1.738 16.151-2.614 24.754-2.614 8.916 0 17.296.859 25.13 2.573 7.966 1.743 15.375 4.394 22.198 7.933 6.735 3.486 12.79 7.628 18.134 12.402a77.899 77.899 0 0113.831 16.243c3.91 6.128 6.838 12.641 8.763 19.517 1.937 6.906 2.907 14.149 2.907 21.711 0 7.562-.97 14.809-2.903 21.715-1.929 6.871-4.857 13.393-8.767 19.525a77.945 77.945 0 01-13.179 15.657l-.652.627c-5.274 4.704-11.329 8.834-18.134 12.361-6.827 3.535-14.232 6.186-22.198 7.929z"/></svg>
