<svg xmlns="http://www.w3.org/2000/svg" shape-rendering="geometricPrecision" text-rendering="geometricPrecision" image-rendering="optimizeQuality" fill-rule="evenodd" clip-rule="evenodd" viewBox="0 0 466 512.457"><path fill-rule="nonzero" d="M76.784 356.776l-.799-6.943a597.15 597.15 0 01-1.741-18.546c-.84-10.787-1.436-22.197-1.777-34.199a770.188 770.188 0 01-.159-35.232c.217-12.21.627-23.876 1.207-34.985a914.79 914.79 0 012.386-33.593c.623-7 1.666-13.646 2.686-20.209l.827-5.373c-9.024-.787-17.247-2.139-24.658-4.052-11.304-2.921-20.853-7.208-28.604-12.842-8.666-6.248-15.197-13.871-19.599-22.811C2.183 119.123 0 109.162 0 98.145 0 82.75 3.646 68.843 10.919 56.443c7.133-12.16 17.712-22.633 31.707-31.396C56.196 16.554 73.227 10.23 93.691 6.08 113.674 2.028 136.891 0 163.317 0c32.055 0 61.685 2.399 88.87 7.194 27.296 4.817 52.228 12.108 74.787 21.874 22.616 9.788 42.52 21.498 59.665 35.104 17.323 13.739 31.923 29.471 43.797 47.164C454.144 146.67 466 187.661 466 234.286c0 20.075-1.975 39.452-5.922 58.105-3.955 18.705-9.88 36.567-17.76 53.567a252.745 252.745 0 01-28.82 47.676c-11.326 14.764-24.362 28.397-39.082 40.871-14.684 12.44-30.791 23.483-48.29 33.094-17.384 9.55-36.236 17.738-56.523 24.539-20.319 6.805-41.627 11.896-63.908 15.263-22.316 3.367-45.701 5.056-70.12 5.056-15.343 0-29.108-.681-41.269-2.029-12.435-1.379-23.09-3.473-31.932-6.262-9.107-2.876-16.969-6.455-23.562-10.729-6.964-4.512-12.479-9.832-16.5-15.935-3.743-5.625-6.607-11.75-8.622-18.365-1.966-6.469-3.08-13.345-3.327-20.597l-.005-.402c-.212-11.56 1.653-22.294 5.586-32.161 4.004-10.036 10.084-19.073 18.219-27.089 7.495-7.384 16.395-12.616 25.842-16.514 5.542-2.289 11.18-4.092 16.779-5.598zm209.637-264.07c-4.613-1.401-7.22-6.28-5.82-10.893 1.401-4.614 6.28-7.221 10.893-5.82 15.148 4.6 33.982 14.649 51.791 29.585 14.741 12.365 28.948 28.184 39.991 47.151 2.418 4.18.995 9.536-3.186 11.953-4.18 2.417-9.536.995-11.953-3.186-9.921-17.04-22.744-31.304-36.086-42.493-15.987-13.411-32.536-22.32-45.63-26.297zm94.465 97.487c-1.454-4.614 1.105-9.54 5.718-10.995 4.613-1.453 9.541 1.105 10.994 5.719l1.445 4.861 1.304 4.993c1.131 4.689-1.75 9.417-6.438 10.548-4.689 1.131-9.417-1.75-10.549-6.438l-1.17-4.375-1.304-4.313zM99.184 347.368a485.853 485.853 0 002.038 16.164c1.148 6.187-2.829 12.21-9.02 13.545-7.963 1.745-16.058 3.853-23.332 6.853-6.863 2.833-13.226 6.527-18.356 11.583-5.833 5.748-10.146 12.107-12.917 19.054-2.775 6.969-4.092 14.693-3.942 23.142l.004.097c.178 5.215.959 10.08 2.321 14.57a47.08 47.08 0 005.771 12.263c2.201 3.389 5.466 6.465 9.761 9.249 4.684 3.035 10.659 5.704 17.897 7.989 7.499 2.364 16.66 4.154 27.451 5.351 11.048 1.225 23.96 1.843 38.715 1.843 23.314 0 45.537-1.595 66.647-4.781 21.167-3.195 41.167-7.954 59.983-14.256 18.847-6.319 36.417-13.955 52.688-22.894 16.142-8.869 30.968-19.024 44.455-30.452 13.447-11.396 25.325-23.809 35.608-37.212 10.278-13.403 19.006-27.84 26.169-43.293 7.167-15.471 12.546-31.653 16.116-48.538 3.579-16.929 5.374-34.72 5.374-53.359 0-41.972-10.518-78.636-31.543-109.975-10.486-15.631-23.474-29.594-38.954-41.871-15.634-12.403-33.769-23.075-54.371-31.993-20.672-8.948-43.867-15.692-69.581-20.23-25.811-4.552-54.102-6.832-84.849-6.832-25.184 0-46.876 1.847-65.056 5.533-17.703 3.588-32.148 8.877-43.306 15.864-10.73 6.717-18.715 14.538-23.938 23.443-5.086 8.67-7.632 18.648-7.632 29.92 0 7.478 1.366 13.991 4.088 19.524 2.691 5.466 6.814 10.225 12.356 14.251v.049c5.316 3.866 12.253 6.906 20.778 9.112 9.08 2.346 19.845 3.694 32.258 4.039l.734.048c6.403.579 11.127 6.249 10.548 12.651-.592 6.338-1.565 12.551-2.537 18.812-.976 6.28-1.975 12.643-2.51 18.653a889.692 889.692 0 00-2.289 32.771 1004.863 1004.863 0 00-1.206 34.163 740.49 740.49 0 00.159 34.234 677.416 677.416 0 001.776 33.103 588.86 588.86 0 001.644 17.813zm137.042-25.414c4.618 0 8.992-.649 13.098-1.949 4.149-1.308 8.091-3.283 11.807-5.903 3.81-2.683 7.261-5.966 10.323-9.815 3.195-4.021 5.997-8.648 8.374-13.871 2.382-5.224 4.189-11.043 5.422-17.433 1.242-6.461 1.865-13.558 1.865-21.273 0-6.381-.411-12.391-1.233-18.003-.818-5.59-2.042-10.866-3.659-15.807-1.653-5.069-3.575-9.7-5.753-13.867-2.197-4.202-4.685-8.069-7.442-11.564a65.662 65.662 0 00-8.851-9.245 55.672 55.672 0 00-9.801-6.725c-3.337-1.795-6.77-3.151-10.288-4.035-3.491-.884-7.154-1.33-10.964-1.33-1.369 0-2.523.208-3.433.61l-.34.141c-.641.354-1.26.871-1.834 1.538-.809.963-1.604 2.656-2.36 5.06-1.021 3.239-1.816 7.331-2.369 12.24-.627 5.546-1.095 12.144-1.4 19.745-.292 7.269-.438 16.297-.438 27.043 0 16.439.526 30.602 1.569 42.463 1.012 11.538 2.492 20.756 4.423 27.618 1.56 5.537 3.588 9.475 6.063 11.786 1.834 1.714 4.251 2.576 7.221 2.576zm20.133 20.341c-6.421 2.028-13.142 3.044-20.133 3.044-9.072 0-16.779-2.965-23.112-8.878-5.682-5.311-9.907-12.841-12.647-22.567-2.359-8.396-4.114-19.046-5.245-31.914-1.1-12.533-1.657-27.358-1.657-44.469 0-9.894.177-19.218.526-27.954.336-8.414.839-15.555 1.498-21.388.729-6.478 1.829-12.028 3.279-16.633 1.71-5.435 3.994-9.836 6.836-13.177l.049-.049c2.726-3.208 5.93-5.705 9.589-7.481l.936-.464c3.92-1.737 8.211-2.616 12.846-2.616 5.657 0 11.207.689 16.629 2.063 5.405 1.361 10.637 3.416 15.679 6.13a78.7 78.7 0 0113.911 9.562c4.22 3.61 8.215 7.795 11.953 12.532 3.69 4.676 6.969 9.753 9.819 15.215a113.89 113.89 0 017.309 17.428c2.037 6.223 3.562 12.78 4.569 19.652 1.003 6.862 1.507 13.995 1.507 21.379 0 9.045-.778 17.605-2.324 25.657-1.565 8.121-3.955 15.709-7.155 22.735-3.203 7.031-6.982 13.27-11.299 18.706-4.459 5.603-9.527 10.411-15.166 14.384-5.74 4.047-11.807 7.083-18.197 9.103z"/></svg>