<svg xmlns="http://www.w3.org/2000/svg" shape-rendering="geometricPrecision" text-rendering="geometricPrecision" image-rendering="optimizeQuality" fill-rule="evenodd" clip-rule="evenodd" viewBox="0 0 498 512.441"><path fill-rule="nonzero" d="M99.004 512.441c-14.754 0-28.174-2.4-40.238-7.185-12.205-4.843-22.854-12.126-31.935-21.838-8.966-9.589-15.687-20.309-20.145-32.147C2.236 439.455 0 426.618 0 412.787c0-21.321 6.102-42.62 18.294-63.906 5.974-10.428 13.358-20.538 22.138-30.313 8.657-9.642 18.67-18.939 30.017-27.878 11.278-8.878 23.929-17.075 37.941-24.569a314.55 314.55 0 0121.007-10.23c-11.317-4.989-21.648-10.256-30.998-15.797-15.983-9.47-29.235-19.819-39.726-31.02-10.693-11.415-18.744-23.478-24.149-36.169-5.506-12.925-8.263-26.412-8.263-40.428 0-10.839 1.291-21.038 3.858-30.583 2.589-9.624 6.526-18.59 11.798-26.875 5.126-8.056 10.95-15.192 17.454-21.392 6.51-6.204 13.805-11.551 21.874-16.014 8.002-4.427 16.129-7.751 24.357-9.947a98.332 98.332 0 0125.567-3.38c18.736 0 35.815 4.07 51.223 12.2 15.289 8.078 28.731 20.075 40.291 35.97 11.233 15.448 20.172 33.702 26.796 54.745a256.672 256.672 0 014.852 17.631 409.239 409.239 0 013.261-10.336c6.085-18.426 13.058-34.864 20.897-49.279 7.786-14.321 16.102-26.8 24.909-37.401 9.01-10.848 18.546-19.752 28.585-26.681 10.093-6.973 20.305-12.227 30.61-15.735C373.136 1.803 383.746 0 394.404 0c9.947 0 19.443 1.251 28.466 3.738 9.099 2.506 17.57 6.253 25.386 11.215a100.112 100.112 0 0120.879 17.649c6.068 6.739 11.313 14.405 15.723 22.983 4.379 8.528 7.68 17.617 9.867 27.242 2.179 9.571 3.275 19.558 3.275 29.955 0 16.359-3.571 31.988-10.708 46.875-6.999 14.609-17.374 28.316-31.108 41.1-13.447 12.514-29.558 23.729-48.298 33.619-11.131 5.872-23.243 11.294-36.332 16.265 14.021 6.063 26.756 12.594 38.201 19.585 18.608 11.356 33.844 23.972 45.696 37.816 11.895 13.898 20.843 28.206 26.835 42.921 6.098 14.979 9.152 30.353 9.152 46.07 0 10.95-1.459 21.255-4.362 30.902a92.22 92.22 0 01-13.256 27.06c-5.714 8.021-12.232 15.144-19.527 21.348-7.274 6.177-15.347 11.467-24.198 15.828-8.846 4.357-17.803 7.623-26.845 9.775a119.952 119.952 0 01-27.882 3.274c-19.041 0-36.633-4.498-52.766-13.486-15.859-8.842-30.097-21.949-42.686-39.284-12.302-16.942-22.152-36.972-29.544-60.065l-.168-.574a297.258 297.258 0 01-6.514-24.053 383.894 383.894 0 01-3.163 9.828c-6.297 18.661-13.553 35.183-21.754 49.536-8.211 14.365-16.973 26.901-26.275 37.595-9.434 10.853-19.438 19.774-29.991 26.725-21.236 13.995-42.407 20.999-63.503 20.999zm48.903-324.768c4.181 2.417 5.604 7.773 3.186 11.953-2.416 4.18-7.772 5.603-11.953 3.186l-4.109-2.413c-4.14-2.492-5.475-7.883-2.983-12.024 2.493-4.14 7.883-5.475 12.024-2.982l3.835 2.28zm-25.315-19.447c3.385 3.442 3.341 8.983-.102 12.368-3.442 3.385-8.983 3.341-12.368-.102-10.137-10.291-16.946-21.391-21.131-32.501-4.83-12.845-6.147-25.713-5.055-37.423.433-4.803 4.684-8.347 9.487-7.914 4.803.433 8.347 4.684 7.914 9.487-.861 9.258.186 19.465 4.03 29.682 3.376 8.961 8.922 17.976 17.225 26.403zM67.356 483.603c9.156 3.632 19.708 5.453 31.648 5.453 16.535 0 33.446-5.696 50.715-17.074 8.697-5.732 17.092-13.248 25.148-22.519 8.201-9.43 16.08-20.751 23.623-33.945 7.547-13.213 14.198-28.33 19.933-45.329 5.763-17.092 10.667-36.177 14.698-57.229.671-5.815 5.616-10.335 11.612-10.335h2.625c6.005-.004 11.127 4.595 11.648 10.689 2.324 26.827 6.796 50.653 13.398 71.466l.168.482c6.611 20.653 15.369 38.492 26.257 53.49 10.601 14.6 22.311 25.479 35.103 32.611 12.528 6.978 26.341 10.473 41.436 10.473 7.622 0 15.125-.884 22.492-2.638 7.472-1.777 14.785-4.433 21.912-7.945 7.111-3.505 13.602-7.755 19.452-12.727 5.82-4.949 11.03-10.64 15.594-17.052a68.85 68.85 0 009.881-20.212c2.232-7.415 3.354-15.501 3.354-24.229 0-12.717-2.474-25.16-7.419-37.303-5.056-12.417-12.7-24.6-22.903-36.522-10.239-11.962-23.623-22.996-40.128-33.071-16.685-10.185-36.561-19.394-59.61-27.604-4.878-1.406-8.453-5.904-8.453-11.238v-2.624c.044-4.998 3.288-9.62 8.311-11.145 22.188-6.761 41.918-14.701 59.165-23.795 16.906-8.922 31.343-18.948 43.278-30.057 11.63-10.831 20.305-22.192 25.992-34.065 5.55-11.578 8.329-23.862 8.329-36.827 0-8.842-.884-17.127-2.638-24.838-1.741-7.654-4.366-14.887-7.853-21.675-3.464-6.738-7.587-12.761-12.346-18.051-4.679-5.201-10.035-9.721-16.036-13.53a70.286 70.286 0 00-19.085-8.476c-6.827-1.882-14.251-2.828-22.253-2.828-8.162 0-16.275 1.375-24.317 4.119-8.29 2.824-16.579 7.101-24.856 12.819-8.334 5.753-16.319 13.221-23.928 22.386-7.812 9.403-15.276 20.632-22.355 33.654-7.039 12.938-13.429 28.095-19.155 45.443-5.718 17.326-10.708 36.672-14.954 58.024-.826 5.647-5.691 9.987-11.569 9.987h-2.629c-6.058-.009-11.193-4.689-11.648-10.827-1.9-24.268-5.837-45.889-11.803-64.842-5.841-18.554-13.649-34.564-23.42-47.993-9.438-12.978-20.198-22.655-32.248-29.023-11.944-6.301-25.4-9.46-40.353-9.46-6.668 0-13.191.852-19.545 2.545-6.571 1.741-12.943 4.335-19.146 7.768-6.156 3.407-11.843 7.596-17.031 12.541-5.196 4.953-9.832 10.627-13.892 17.008-3.911 6.146-6.872 12.943-8.874 20.389-2.019 7.511-3.035 15.7-3.035 24.555 0 10.928 2.116 21.361 6.345 31.29 4.331 10.163 10.888 19.946 19.668 29.319 8.975 9.58 20.522 18.555 34.618 26.911 14.273 8.458 31.051 16.243 50.326 23.327 4.914 1.383 8.515 5.899 8.515 11.254v2.63c-.049 4.781-3.009 9.262-7.764 10.963-15.192 5.479-29.2 11.657-42.005 18.506-12.581 6.726-24.074 14.198-34.468 22.377-10.304 8.118-19.345 16.5-27.091 25.13-7.627 8.489-14.039 17.265-19.214 26.301-10.123 17.676-15.192 35.103-15.192 52.302 0 11.104 1.715 21.197 5.131 30.264 3.411 9.055 8.519 17.221 15.302 24.476 6.673 7.137 14.525 12.501 23.539 16.076z"/></svg>