<svg xmlns="http://www.w3.org/2000/svg" shape-rendering="geometricPrecision" text-rendering="geometricPrecision" image-rendering="optimizeQuality" fill-rule="evenodd" clip-rule="evenodd" viewBox="0 0 426 511.763"><path fill-rule="nonzero" d="M341.002 0c14.977 0 28.049 2.983 39.187 8.94 11.368 6.077 20.455 15.133 27.246 27.149 6.319 11.187 11.015 24.925 14.082 41.2 2.987 15.865 4.483 34.157 4.483 54.845 0 18.036-2.369 39.805-7.1 65.282-2.343 12.625-5.247 25.622-8.694 38.962l-.141.494c-3.446 13.323-7.4 26.853-11.827 40.569a638.682 638.682 0 01-15.154 41.919 653.743 653.743 0 01-18.173 41.094c-6.646 13.746-13.693 26.791-21.125 39.095a424.588 424.588 0 01-23.927 35.493c-8.566 11.426-17.537 21.717-26.88 30.834-9.492 9.258-19.359 17.343-29.584 24.232-10.64 7.171-21.73 12.577-33.257 16.196-11.575 3.636-23.517 5.459-35.794 5.459-12.18 0-23.892-1.713-35.127-5.128-11.222-3.416-21.787-8.509-31.672-15.252-9.612-6.562-18.645-14.28-27.078-23.124-8.323-8.738-16.086-18.609-23.257-29.593A338.673 338.673 0 0157.7 404.54l-.287-.618c-5.79-11.699-11.142-24.13-16.041-37.263a585.96 585.96 0 01-13.288-39.898 592.93 592.93 0 01-10.454-40.922 846.435 846.435 0 01-7.784-40.366c-2.216-13.248-4.052-26.275-5.495-39.064-1.434-12.727-2.524-24.673-3.243-35.816C.375 159.177 0 148.753 0 139.341c0-21.072 2.273-39.484 6.809-55.207l.168-.525c4.727-16.13 11.853-29.342 21.381-39.607 9.603-10.348 21.121-18.124 34.536-23.301 13.138-5.075 27.935-7.617 44.369-7.617 13.358 0 25.114 2.22 35.264 6.651 10.582 4.62 19.223 11.553 25.904 20.78 6.236 8.597 11.456 19.824 15.644 33.659 4.003 13.226 7.145 29.028 9.413 47.386 2.736 32.838 8.928 68.87 13.195 101.87l5.132 41.884a697.633 697.633 0 011.929 18.032l6.5-31.849 6.889-33.062 6.708-31.324c6.178-28.009 11.787-57.254 18.671-84.972 3.791-16.399 8.063-30.75 12.815-43.022 4.965-12.829 10.464-23.407 16.47-31.699 6.655-9.188 15.084-16.099 25.273-20.724C316.911 2.233 328.222 0 341.002 0zM64.849 80.608c1.527-4.572 6.478-7.035 11.05-5.508 4.572 1.527 7.035 6.479 5.508 11.051-3.72 11.089-6.333 26.089-7.052 44.191-.645 16.311.269 35.115 3.305 55.816.697 4.779-2.608 9.223-7.387 9.92-4.78.698-9.223-2.608-9.921-7.387-3.181-21.708-4.13-41.623-3.446-59.037.785-19.819 3.729-36.496 7.943-49.046zm1.108 134.861c-1.359-4.625 1.293-9.484 5.918-10.842 4.625-1.36 9.483 1.292 10.842 5.917l1.351 4.59c1.359 4.624-1.293 9.483-5.918 10.843-4.625 1.359-9.484-1.293-10.843-5.918l-1.35-4.59zM369.245 29.47c-7.617-4.073-17.043-6.117-28.243-6.117-9.484 0-17.608 1.532-24.356 4.595-6.385 2.899-11.716 7.29-15.962 13.15-4.894 6.757-9.452 15.569-13.645 26.412-4.311 11.134-8.252 24.439-11.818 39.871l-5.82 26.73-6.086 27.378-6.668 30.547-6.708 31.235-6.888 32.877c-4.457 22.074-8.906 44.144-13.495 66.191l-2.763 12.436a313.876 313.876 0 01-2.33 9.488c-1.24 4.708-2.361 8.128-3.376 10.388-4.832 9.254-11.204 10.851-19.051 6.756l-.516-.366c-2.895-2.185-4.691-5.627-5.596-10.19-.392-2.153-.75-4.867-1.059-8.08l-.64-7.361-.794-11.924c-.971-14.876-2.247-34.333-4.784-55.436l-5.132-41.796-4.969-38.927c-2.705-20.657-4.837-42.51-8.226-62.942-2.096-16.986-4.965-31.483-8.592-43.459-3.442-11.364-7.511-20.287-12.184-26.73-4.219-5.83-9.669-10.207-16.32-13.111-7.091-3.093-15.75-4.647-25.961-4.647-13.672 0-25.671 1.995-35.975 5.975-10.044 3.875-18.672 9.704-25.869 17.458-7.083 7.634-12.462 17.727-16.134 30.256l-.128.485c-3.866 13.398-5.803 29.647-5.803 48.729 0 9.355.344 19.289 1.019 29.796.697 10.772 1.752 22.352 3.147 34.722a719.688 719.688 0 005.317 37.784c2.123 12.674 4.656 25.772 7.6 39.271a567.047 567.047 0 009.995 39.28 564.024 564.024 0 0012.74 38.345c4.537 12.162 9.572 23.839 15.11 35.021l.309.583c5.649 11.35 11.703 21.968 18.142 31.84 6.35 9.726 13.23 18.477 20.609 26.222 7.268 7.625 15.053 14.276 23.336 19.929 8.005 5.463 16.443 9.545 25.291 12.241 8.835 2.688 18.296 4.034 28.375 4.034 9.978 0 19.607-1.461 28.857-4.365 9.307-2.921 18.367-7.352 27.149-13.274 9.192-6.191 17.992-13.393 26.389-21.584 8.54-8.336 16.717-17.709 24.506-28.097 7.82-10.428 15.348-21.62 22.559-33.579a456.286 456.286 0 0020.128-37.18 633.517 633.517 0 0017.528-39.637 616.108 616.108 0 0014.607-40.366c4.404-13.645 8.244-26.747 11.487-39.28l.12-.512c3.318-12.837 6.098-25.282 8.331-37.312 4.427-23.83 6.642-44.2 6.642-61.089 0-19.457-1.342-36.315-4.025-50.555-2.604-13.831-6.425-25.203-11.443-34.086-4.549-8.054-10.538-14.069-17.934-18.023z"/></svg>