<svg xmlns="http://www.w3.org/2000/svg" shape-rendering="geometricPrecision" text-rendering="geometricPrecision" image-rendering="optimizeQuality" fill-rule="evenodd" clip-rule="evenodd" viewBox="0 0 426 511.77"><path fill-rule="nonzero" d="M372.755 114.716c4.758 11.785 9.298 24.213 13.618 37.281 4.208 12.731 8.427 26.811 12.655 42.238a748.112 748.112 0 0111.067 46.146 842.223 842.223 0 018.567 48.52 694.015 694.015 0 015.492 49.967A682.799 682.799 0 01426 388.793c0 20.274-2.171 37.98-6.513 53.116-4.535 15.813-11.443 28.861-20.723 39.142-9.3 10.306-20.486 18.036-33.558 23.188-12.736 5.021-27.135 7.531-43.195 7.531-13.423 0-25.622-1.849-36.596-5.548-11.292-3.805-21.132-9.521-29.523-17.149-8.509-7.737-15.281-17.898-20.313-30.478-4.768-11.924-7.973-26.082-9.612-42.473a11.924 11.924 0 01-.045-.649c-.882-10-1.538-19.981-1.966-29.941a763.123 763.123 0 01-.584-18.879l-22.023 1.641a777.853 777.853 0 01-3.041 20.212c-1.543 9.37-3.189 18.22-4.936 26.551-1.403 10.122-3.427 19.408-6.07 27.855-2.741 8.76-6.201 16.767-10.379 24.019-4.255 7.382-9.332 13.897-15.231 19.541a83.589 83.589 0 01-20.006 14.202c-.221.113-.445.217-.67.314-7.173 3.57-15.167 6.255-23.983 8.053-8.913 1.818-18.5 2.729-28.757 2.729-13.785 0-26.135-2.101-37.05-6.303-11.262-4.335-20.788-10.852-28.575-19.551-7.848-8.763-13.64-20.65-17.377-35.661C1.758 436.129 0 419.134 0 399.268c0-8.173.494-17.407 1.482-27.7.961-10.011 2.383-20.715 4.265-32.113a752.415 752.415 0 016.72-35.327c2.541-11.842 5.505-24.312 8.89-37.41a1146.275 1146.275 0 0110.651-38.421c3.683-12.435 7.739-25.298 12.166-38.587 4.446-13.335 8.954-25.836 13.523-37.5a654.188 654.188 0 0114.759-34.721l.018-.037-.018-.008c6.953-15.028 14.125-28.427 21.516-40.195 7.496-11.935 15.194-22.143 23.092-30.622 7.892-8.474 16.139-15.757 24.74-21.849 8.754-6.2 17.681-11.036 26.78-14.507 8.848-3.378 18.059-5.934 27.631-7.67A161.717 161.717 0 01225.113 0c15.233 0 29.916 2.147 44.047 6.44 14.064 4.274 27.403 10.654 40.013 19.139 12.897 8.678 24.691 20.579 35.381 35.7 10.374 14.673 19.774 32.486 28.201 53.437zM153.126 88.72a8.725 8.725 0 0113.751 10.741c-6.506 8.316-13.414 18.875-20.159 30.929-6.471 11.566-12.692 24.334-18.155 37.631a8.729 8.729 0 01-16.145-6.636c5.805-14.131 12.326-27.539 19.044-39.546 7.092-12.675 14.52-23.986 21.664-33.119zm-50.483 101.306a8.745 8.745 0 1116.898 4.515 222.837 222.837 0 00-2.046 8.152 8.738 8.738 0 11-17.035-3.9c.388-1.689.737-3.157 1.048-4.401.377-1.51.756-2.965 1.135-4.366zm261.563-30.732c-4.303-13.02-8.661-24.991-13.07-35.912-7.723-19.203-16.273-35.435-25.647-48.694-9.058-12.812-18.814-22.736-29.269-29.771-10.742-7.228-22.012-12.635-33.81-16.219-11.73-3.564-24.162-5.346-37.297-5.346-8.637 0-16.901.715-24.792 2.145-7.886 1.429-15.698 3.621-23.436 6.576-7.488 2.856-14.712 6.749-21.672 11.678-7.112 5.037-14.142 11.287-21.09 18.748-6.941 7.451-13.758 16.503-20.448 27.156-6.793 10.817-13.48 23.335-20.056 37.549l-.017-.008c-4.827 10.496-9.559 21.663-14.195 33.497a748.332 748.332 0 00-13.158 36.315 1177.09 1177.09 0 00-11.892 37.857 1121.198 1121.198 0 00-10.468 37.691 900.629 900.629 0 00-8.618 36.407c-2.561 11.935-4.74 23.347-6.537 34.232-1.828 11.075-3.189 21.262-4.082 30.562-.867 9.026-1.3 17.531-1.3 25.511 0 18.11 1.514 33.251 4.544 45.422 2.809 11.286 6.838 19.859 12.086 25.719 5.305 5.925 11.82 10.375 19.545 13.348 8.071 3.107 17.655 4.661 28.749 4.661 8.944 0 16.979-.728 24.104-2.181 6.721-1.371 12.781-3.393 18.178-6.063.179-.103.361-.202.547-.297 5.528-2.812 10.373-6.208 14.533-10.189 4.25-4.068 7.959-8.849 11.126-14.342 3.241-5.626 6.002-12.082 8.281-19.366 2.311-7.388 4.073-15.482 5.283-24.278.04-.351.096-.703.169-1.055 1.721-8.177 3.33-16.805 4.824-25.881a802.073 802.073 0 004.096-28.013c.297-5.782 4.856-10.577 10.781-11.018l43.3-3.228c.469-.057.948-.087 1.433-.087 6.448 0 11.676 5.227 11.676 11.676 0 10.844.203 20.988.61 30.432a648.177 648.177 0 001.871 28.905l.049.408c1.415 14.16 4.103 26.19 8.061 36.088 3.698 9.246 8.493 16.548 14.384 21.904 6.016 5.469 13.091 9.574 21.222 12.314 8.448 2.847 18.184 4.271 29.207 4.271 13.182 0 24.752-1.963 34.712-5.888 9.623-3.794 17.86-9.486 24.71-17.078 6.87-7.612 12.075-17.588 15.615-29.928 3.733-13.016 5.6-28.594 5.6-46.731 0-16.233-.585-32.328-1.755-48.283a669.426 669.426 0 00-5.31-48.234c-2.408-16.423-5.173-32.171-8.293-47.243-3.182-15.373-6.75-30.27-10.702-44.686a828.326 828.326 0 00-12.382-41.053zM201.28 264.792h17.832c16.936 0 22.436-9.053 22.436-21.435 0-19.538-10.223-46.543-18.21-67.641a1643.086 1643.086 0 01-3.731-9.911c-.827-1.826-2.082-3.754-3.539-5.225-.136.272-.277.572-.425.902-1.416 4.539-3.149 9.396-5.168 15.056-7.399 20.737-18.65 52.27-18.65 73.212 0 8.79 2.416 15.042 9.455 15.042zm17.832 23.351H201.28c-24.424 0-32.807-15.956-32.807-38.393 0-24.953 12.076-58.799 20.018-81.057 2.239-6.278 4.151-11.635 5.058-14.577l.011.004c.114-.369.246-.735.399-1.098 2.394-5.657 5.351-9.661 8.629-12.349 4.998-4.097 10.388-5.261 15.769-4.396 4.498.724 8.584 2.908 12.086 5.894 4.51 3.845 8.301 9.341 10.516 14.317.176.359.334.73.474 1.113 1.541 4.184 2.598 6.977 3.706 9.905 8.667 22.894 19.761 52.198 19.761 75.851 0 25.873-11.225 44.786-45.788 44.786z"/></svg>