<svg xmlns="http://www.w3.org/2000/svg" shape-rendering="geometricPrecision" text-rendering="geometricPrecision" image-rendering="optimizeQuality" fill-rule="evenodd" clip-rule="evenodd" viewBox="0 0 512 484.063"><path fill-rule="nonzero" d="M441.341 484.063c-8.511 0-17.08-1.578-25.687-4.729-8.231-3.014-16.521-7.535-24.827-13.537-7.426-5.36-14.305-11.679-20.616-18.934-3.761-4.324-7.371-9.037-10.828-14.125a152.602 152.602 0 01-17.122 10.252c-9.913 5.113-20.757 9.438-32.503 12.96a296.06 296.06 0 01-42.734 9.425 309.49 309.49 0 01-44.241 3.16c-22.444 0-43.515-2.225-63.196-6.67-19.735-4.454-37.971-11.17-54.684-20.123-16.78-8.995-31.656-19.839-44.612-32.52-12.949-12.677-23.993-27.207-33.101-43.557-9.066-16.274-15.874-33.906-20.403-52.864C2.262 293.88 0 273.802 0 252.581c0-24.389 2.538-47.455 7.601-69.177 5.08-21.776 12.727-42.17 22.924-61.158s22.536-35.964 37.003-50.923c14.488-14.981 31.085-27.908 49.759-38.765 18.696-10.865 38.965-19.021 60.791-24.448C199.805 2.705 222.983 0 247.614 0c17.924 0 35.15 1.524 51.663 4.562 16.483 3.035 32.123 7.605 46.904 13.691 14.697 6.044 28.4 13.199 41.077 21.43 12.731 8.269 24.439 17.64 35.108 28.091 10.619 10.398 20.035 21.651 28.233 33.735a216.278 216.278 0 0120.795 38.498c5.673 13.632 9.926 27.615 12.757 41.928 2.829 14.338 4.249 28.998 4.249 43.949 0 15.069-1.315 29.59-3.941 43.552-2.629 13.979-6.574 27.274-11.825 39.85-3.903 9.358-8.423 18.157-13.536 26.347a170.477 170.477 0 01-6.887 10.193 164.41 164.41 0 0111.941 5.046c8.403 3.961 15.87 8.436 22.374 13.408C503.506 377.265 512 394.266 512 415.266c0 8.753-1.557 17.151-4.663 25.161-3.055 7.885-7.6 15.277-13.624 22.139-6.345 7.23-14.008 12.652-22.97 16.25-8.711 3.494-18.512 5.247-29.402 5.247zM66.259 266.828a8.256 8.256 0 01-8.252 8.252 8.256 8.256 0 01-8.252-8.252l.021-8.399c.033-4.553 3.765-8.218 8.319-8.185 4.554.033 8.219 3.765 8.185 8.319l-.021 8.265zm2.113-37.985c-.48 4.538-4.554 7.827-9.092 7.347-4.537-.48-7.826-4.554-7.346-9.091 2.425-22.573 7.501-44.375 15.552-64.765 7.656-19.389 18.057-37.588 31.477-54.05 2.876-3.536 8.081-4.074 11.617-1.198 3.535 2.876 4.073 8.081 1.198 11.616-12.26 15.039-21.81 31.782-28.889 49.718-7.522 19.038-12.255 39.382-14.517 60.423zm354.879 229.779c6.081 2.224 12.117 3.343 18.09 3.343 8.152 0 15.227-1.202 21.204-3.602 5.719-2.296 10.594-5.735 14.597-10.297 4.324-4.926 7.547-10.123 9.659-15.578 2.066-5.33 3.101-11.078 3.101-17.222 0-13.766-5.585-24.924-16.75-33.464-5.268-4.028-11.412-7.697-18.408-10.994-7.05-3.327-14.91-6.266-23.537-8.799a10.988 10.988 0 01-4.967-2.567c-4.525-4.074-4.893-11.053-.819-15.578a141.84 141.84 0 0014.952-19.885c4.487-7.192 8.461-14.918 11.892-23.15 4.683-11.22 8.197-23.049 10.531-35.45 2.338-12.422 3.506-25.591 3.506-39.495 0-13.599-1.273-26.843-3.815-39.716a197.908 197.908 0 00-11.462-37.705c-5.126-12.33-11.345-23.875-18.633-34.615-7.313-10.773-15.807-20.908-25.47-30.371-9.613-9.421-20.174-17.869-31.661-25.328-11.524-7.48-24.013-14-37.454-19.526-13.361-5.502-27.54-9.642-42.504-12.397-14.939-2.751-30.842-4.128-47.689-4.128-22.974 0-44.403 2.475-64.268 7.417-19.764 4.913-38.109 12.293-55.014 22.119-16.909 9.829-31.894 21.492-44.925 34.965-13.053 13.495-24.214 28.864-33.464 46.091-9.254 17.23-16.212 35.813-20.854 55.723-4.658 19.977-6.991 41.378-6.991 64.168 0 19.756 2.032 38.139 6.094 55.127 4.049 16.939 10.135 32.7 18.241 47.255 8.064 14.476 17.835 27.336 29.301 38.556 11.467 11.22 24.648 20.828 39.529 28.805 14.943 8.006 31.339 14.033 49.158 18.053 17.878 4.041 37.341 6.061 58.362 6.061 14.067 0 27.787-.969 41.135-2.893a273.739 273.739 0 0039.537-8.741c10.493-3.147 20.069-6.954 28.705-11.407 8.544-4.4 16.237-9.471 23.062-15.19.48-.396.997-.759 1.553-1.081 5.263-3.047 12.012-1.248 15.059 4.016 4.605 7.918 9.622 15.001 15.031 21.221 5.339 6.14 10.953 11.336 16.818 15.569 6.587 4.763 13.119 8.327 19.568 10.69zM263.513 276.574c5.068 3.456 10.987 6.916 17.744 10.372a11.01 11.01 0 016.136 7.835c1.19 5.982-2.692 11.8-8.674 12.99l-3.823.714-3.865.609a136.292 136.292 0 01-11.308 1.294c-4.086.284-8.118.43-12.109.43-9.817 0-19.109-.877-27.845-2.621-8.82-1.762-17.122-4.446-24.886-8.04-7.826-3.619-14.809-7.993-20.933-13.11-6.198-5.189-11.52-11.137-15.932-17.819-4.471-6.762-7.822-14.121-10.039-22.048-2.204-7.864-3.306-16.208-3.306-25.023 0-16.897 4.066-32.045 12.197-45.431 4.095-6.745 9.016-12.756 14.751-18.019 5.681-5.214 12.247-9.776 19.681-13.67 7.375-3.866 15.289-6.762 23.705-8.674 8.393-1.908 17.201-2.868 26.405-2.868 14.98 0 28.584 1.937 40.805 5.802 12.493 3.953 23.509 9.926 33.013 17.907 9.671 8.118 16.955 17.673 21.843 28.647 4.85 10.902 7.279 23.007 7.279 36.306 0 4.257-.241 8.46-.709 12.588a91.45 91.45 0 01-2.121 11.78c-.333.935-.58 2.216-.864 3.214a11.008 11.008 0 01-5.743 7.342c-5.43 2.763-12.08.597-14.843-4.834-3.256-6.39-6.608-12.084-10.026-17.063-3.348-4.888-6.812-9.145-10.36-12.756-4.667-4.75-9.734-8.294-15.173-10.619-5.355-2.287-11.245-3.435-17.648-3.435-4.571 0-8.657.639-12.242 1.912-3.428 1.214-6.533 3.063-9.3 5.53-2.526 2.254-4.429 5.005-5.681 8.223-1.39 3.577-2.091 7.922-2.091 13.027 0 5.322 1.043 10.319 3.122 14.989 2.162 4.859 5.535 9.58 10.097 14.142 3.523 3.523 7.772 6.988 12.743 10.377zm-20.732 12.063a95.512 95.512 0 01-7.63-6.821c-6.399-6.398-11.271-13.34-14.589-20.786-3.402-7.639-5.109-15.632-5.109-23.964 0-7.721 1.223-14.717 3.652-20.966 2.572-6.607 6.433-12.205 11.55-16.771a49.716 49.716 0 0116.629-9.839c6.032-2.141 12.573-3.214 19.581-3.214 9.317 0 18.082 1.753 26.28 5.256 8.11 3.464 15.532 8.623 22.244 15.452a106.26 106.26 0 016.499 7.271c-.689-7.117-2.33-13.595-4.926-19.43-3.494-7.847-8.794-14.756-15.882-20.708-7.255-6.09-15.766-10.685-25.508-13.766-10.018-3.168-21.408-4.758-34.16-4.758-7.768 0-14.964.755-21.572 2.258-6.578 1.494-12.706 3.727-18.353 6.687-5.606 2.938-10.594 6.407-14.939 10.397-4.3 3.945-7.923 8.344-10.861 13.186-5.94 9.784-8.916 21.133-8.916 34.036 0 6.916.814 13.273 2.438 19.071 1.598 5.719 4.002 10.999 7.192 15.828a60.45 60.45 0 0011.699 13.078c4.638 3.877 9.985 7.216 16.016 10.005 6.09 2.817 12.752 4.954 19.969 6.394 5.873 1.173 12.109 1.875 18.696 2.104z"/></svg>
