<svg xmlns="http://www.w3.org/2000/svg" shape-rendering="geometricPrecision" text-rendering="geometricPrecision" image-rendering="optimizeQuality" fill-rule="evenodd" clip-rule="evenodd" viewBox="0 0 425 512.344"><path fill-rule="nonzero" d="M203.564 512.344c-35.145 0-65.55-4.073-91.183-12.211l-.985-.363c-25.925-8.376-46.964-20.946-63.111-37.681-16.316-16.921-28.497-39.059-36.533-66.411C3.923 369.01 0 337.391 0 300.836c0-10.573.181-22.294.548-35.198.335-12.154.839-24.136 1.489-35.91a1023.785 1023.785 0 012.606-35.813 923.822 923.822 0 013.769-34.478c1.489-11.584 3.026-22.174 4.59-31.761 1.626-9.932 3.344-19.178 5.143-27.71l.048-.229c3.084-13.299 7.361-25.28 12.826-35.906 5.593-10.877 12.392-20.322 20.38-28.31 8.138-8.138 16.395-14.328 26.539-18.591 10.047-4.224 21.419-6.336 35.751-6.336 12.834 0 24.396 1.626 34.655 4.851 10.709 3.371 19.934 8.474 27.648 15.273 7.948 7.003 13.894 15.662 17.84 25.952 3.773 9.839 5.659 21.1 5.659 33.762 0 28.881-7.36 60.571-14.836 92.792-7.404 31.916-14.942 64.388-14.942 93.794 0 9.915 4.101 18.097 10.396 24.22 4.52 4.396 10.237 7.851 16.471 10.219 6.295 2.399 13.077 3.654 19.682 3.654 10.1 0 19.532-2.93 25.598-9.163 22.395-23.049 12.383-92.368 4.104-149.678-3.777-26.16-7.223-49.986-7.223-67.159 0-28.536 5.425-50.334 17.972-65.506C269.724 7.868 289.385 0 317.373 0c13.148 0 24.962 1.833 35.428 5.487 10.877 3.799 20.137 9.516 27.749 17.129 7.325 7.325 13.51 16.47 18.538 27.409 4.803 10.449 8.514 22.501 11.103 36.14 1.551 7.612 3.017 16.399 4.418 26.322 1.325 9.406 2.562 19.771 3.684 31.059a1244.532 1244.532 0 012.943 33.979 1390.43 1390.43 0 012.067 35.141c.539 11.614.955 23.194 1.237 34.716.305 12.512.46 23.5.46 32.946 0 26.605-1.882 50.838-5.642 72.671-3.795 22.042-9.543 41.64-17.239 58.782-7.838 17.452-17.867 32.587-30.065 45.387-12.238 12.83-26.671 23.322-43.283 31.447-32.34 15.816-74.077 23.729-125.207 23.729zM89.385 66.513a8.733 8.733 0 0113.97 10.48c-7.493 9.971-14.04 22.88-19.249 39.157-4.953 15.472-8.673 33.934-10.82 55.742-.473 4.802-4.754 8.314-9.556 7.842-4.802-.473-8.315-4.754-7.842-9.556 2.275-23.085 6.256-42.762 11.57-59.374 5.815-18.167 13.281-32.782 21.927-44.291zM55.243 197.472c-.075-4.82 3.777-8.796 8.597-8.871 4.82-.076 8.796 3.777 8.872 8.597l.079 4.785c.075 4.82-3.777 8.796-8.597 8.871-4.82.075-8.797-3.777-8.872-8.597l-.079-4.785zm64.172 280.385c23.313 7.4 51.377 11.107 84.149 11.107 47.68 0 86.015-7.087 114.984-21.255 14.036-6.866 26.247-15.746 36.612-26.614 10.395-10.908 18.967-23.853 25.682-38.813 6.861-15.282 12.035-33.024 15.507-53.206 3.512-20.393 5.271-43.319 5.271-68.748 0-11.73-.124-22.532-.362-32.398a1618.99 1618.99 0 00-1.237-34.257 1358.443 1358.443 0 00-2.068-34.505 1214.658 1214.658 0 00-2.854-33.343c-1.074-10.758-2.275-20.817-3.588-30.139-1.246-8.823-2.651-17.151-4.214-24.958v-.137c-2.249-11.884-5.386-22.182-9.389-30.89-3.786-8.236-8.42-15.101-13.881-20.562-5.169-5.169-11.478-9.061-18.896-11.65-7.833-2.735-17.093-4.109-27.758-4.109-20.531 0-34.346 5.041-42.67 15.105-8.782 10.621-12.582 27.542-12.582 50.626 0 15.843 3.309 38.738 6.941 63.872 9.017 62.417 19.92 137.908-10.493 169.214-10.793 11.094-26.296 16.294-42.307 16.294-9.366 0-19.011-1.79-27.988-5.209-9.04-3.437-17.495-8.607-24.414-15.335-10.617-10.33-17.527-24.145-17.527-40.929 0-31.827 7.86-65.704 15.587-98.999 7.153-30.82 14.191-61.136 14.191-87.587 0-9.83-1.37-18.321-4.104-25.456-2.563-6.68-6.38-12.265-11.443-16.727-5.279-4.657-11.677-8.173-19.157-10.528-7.925-2.492-17.168-3.747-27.718-3.747-11.244 0-19.727 1.472-26.712 4.409-6.883 2.894-12.869 7.476-19.054 13.661-6.336 6.336-11.735 13.837-16.175 22.47-4.568 8.889-8.182 19.042-10.824 30.427-1.719 8.156-3.357 16.992-4.913 26.482a916.837 916.837 0 00-4.502 30.939 896.45 896.45 0 00-3.671 33.657 1002.985 1002.985 0 00-2.519 34.99c-.671 12.212-1.175 23.981-1.488 35.265-.301 10.621-.451 22.165-.451 34.562 0 34.456 3.588 63.889 10.745 88.268 6.963 23.706 17.287 42.647 30.957 56.824 13.461 13.952 31.275 24.515 53.431 31.682l.902.247z"/></svg>