<svg xmlns="http://www.w3.org/2000/svg" shape-rendering="geometricPrecision" text-rendering="geometricPrecision" image-rendering="optimizeQuality" fill-rule="evenodd" clip-rule="evenodd" viewBox="0 0 439 511.653"><path fill-rule="nonzero" d="M100.692 511.653c-25.961 0-46.582-6.494-61.853-19.47-7.765-6.605-14.282-15.195-19.527-25.754-4.99-10.05-8.847-21.91-11.556-35.565-2.594-13.086-4.54-28.343-5.832-45.762C.644 367.802 0 348.486 0 327.172c0-27.611 1.055-53.285 3.15-77.017 2.105-23.772 5.299-45.722 9.557-65.806 4.27-20.15 9.591-38.297 15.927-54.427 6.411-16.32 13.938-30.673 22.564-43.031 10.91-15.813 23.586-29.349 37.996-40.613 14.406-11.259 30.532-20.216 48.348-26.856 17.467-6.504 35.499-11.37 54.061-14.582C210.243 1.615 229.471 0 249.281 0c31.595 0 59.21 3.499 82.815 10.483 24.169 7.152 44.147 18.019 59.894 32.565 15.671 14.437 27.434 31.211 35.296 50.267C435.091 112.247 439 133.253 439 156.328c0 29.804-7.095 55.411-21.27 76.796-7.064 10.655-15.456 20.062-25.149 28.202-9.583 8.048-20.512 14.878-32.755 20.459-11.454 5.228-23.667 9.305-36.612 12.235 9.949 3.926 19.148 7.977 27.593 12.146 19.934 9.852 35.901 20.485 47.889 31.877 24.685 23.481 37.03 49.097 37.03 76.841 0 13.302-2.272 25.382-6.807 36.218-4.62 11.035-11.521 20.644-20.684 28.784-9.058 8.057-19.727 14.093-31.966 18.085-11.89 3.883-25.21 5.829-39.933 5.829-23.64 0-45.052-6.191-64.218-18.562-9.547-6.163-18.848-14.485-27.875-24.937-8.829-10.222-17.388-22.431-25.656-36.589-7.205-12.336-14.776-26.984-22.7-43.931l.467 8.498c.3 6.459.455 12.279.455 17.441 0 16.267-1.725 30.747-5.158 43.423-3.569 13.179-9.018 24.443-16.329 33.774-7.704 9.835-18.045 17.159-31.008 21.955-12.217 4.518-26.763 6.781-43.622 6.781zm-32.054-235.71c0 4.814-3.909 8.723-8.722 8.723-4.814 0-8.723-3.909-8.723-8.723l.022-8.877c.035-4.813 3.98-8.687 8.793-8.652 4.814.036 8.688 3.98 8.652 8.794l-.022 8.735zm2.749-46.86c-.622 4.778-5.003 8.145-9.781 7.523-4.778-.623-8.145-5.004-7.523-9.782 2.21-16.722 5.669-32.707 10.377-47.933 4.721-15.274 10.717-29.83 17.962-43.639a250.744 250.744 0 019.966-17.335 242.417 242.417 0 0111.167-16.201 8.721 8.721 0 0113.951 10.465 224.692 224.692 0 00-10.346 15.036 233.203 233.203 0 00-9.278 16.109c-6.733 12.834-12.319 26.41-16.735 40.692-4.43 14.326-7.686 29.353-9.76 45.065zM53.884 474.394c10.907 9.269 26.517 13.911 46.808 13.911 14.127 0 26-1.778 35.592-5.326 8.855-3.273 15.76-8.074 20.702-14.383 5.329-6.804 9.384-15.305 12.137-25.471 2.885-10.655 4.337-23.137 4.337-37.405 0-5.749-.123-11.229-.366-16.435-.238-5.131-.649-10.986-1.226-17.582-.609-6.932-1.192-12.985-1.744-18.076a823.927 823.927 0 00-2.091-17.799 295.062 295.062 0 00-2.444-15.716 182.86 182.86 0 00-2.647-12.124 11.585 11.585 0 01-.609-3.728c0-6.446 5.228-11.675 11.674-11.675h2.616c4.668.04 9.072 2.868 10.854 7.479 9.31 24.028 18.253 45.4 26.812 64.085 8.405 18.354 16.563 34.291 24.452 47.8 7.651 13.1 15.358 24.152 23.106 33.122 7.549 8.74 15.177 15.605 22.854 20.56 15.301 9.874 32.517 14.82 51.635 14.82 12.331 0 23.247-1.553 32.724-4.646 9.129-2.978 17.026-7.43 23.671-13.338 6.543-5.81 11.436-12.592 14.666-20.304 3.317-7.924 4.981-17.026 4.981-27.279 0-21.121-9.914-41.116-29.733-59.969-10.271-9.76-24.324-19.056-42.144-27.862-18.125-8.952-39.951-17.331-65.44-25.101-5.312-1.098-9.309-5.801-9.309-11.436v-2.62c.039-6.279 5.043-11.463 11.356-11.63 13.814-.411 26.901-1.951 39.224-4.598 12.137-2.612 23.423-6.301 33.822-11.043 10.236-4.668 19.4-10.399 27.47-17.176 7.972-6.694 14.873-14.428 20.675-23.182 11.564-17.44 17.353-38.764 17.353-63.939 0-20.123-3.301-38.182-9.888-54.163-6.534-15.843-16.387-29.847-29.53-41.993-13.038-12.094-29.945-21.205-50.703-27.346-21.337-6.314-46.764-9.478-76.25-9.478-18.588 0-36.514 1.496-53.761 4.479-17.317 2.996-33.946 7.465-49.86 13.39-15.557 5.798-29.61 13.598-42.144 23.397-12.522 9.787-23.583 21.619-33.175 35.496l-.048.043c-7.501 10.744-14.158 23.499-19.951 38.249-5.873 14.948-10.828 31.886-14.834 50.783-4.024 18.967-7.059 39.964-9.098 62.973-2.038 23.066-3.062 48.078-3.062 75.014 0 21.015.614 39.783 1.836 56.289 1.218 16.399 3.04 30.717 5.462 42.938 2.308 11.648 5.498 21.562 9.552 29.724 3.803 7.655 8.374 13.753 13.686 18.271zm175.759-281.3c9.376 0 17.34-1.417 23.87-4.24 3.088-1.333 5.863-2.952 8.29-4.836a29.63 29.63 0 005.854-6.053c1.549-2.14 2.714-4.434 3.468-6.857.782-2.488 1.174-5.241 1.174-8.237 0-12.089-3.146-21.959-9.42-29.592-2.709-3.291-6.353-5.815-10.911-7.535-5.122-1.937-11.475-2.908-19.051-2.908-10.103 0-18.844 1.712-26.212 5.127-3.627 1.677-6.795 3.591-9.495 5.736-2.581 2.047-4.765 4.328-6.521 6.799-1.698 2.391-2.965 4.866-3.799 7.403-.803 2.453-1.209 5.052-1.209 7.774 0 5.683.927 10.743 2.767 15.169 1.809 4.337 4.553 8.228 8.219 11.652 3.698 3.45 8.154 6.058 13.351 7.8 5.542 1.862 12.094 2.798 19.625 2.798zm33.082 17.105c-9.614 4.161-20.653 6.243-33.082 6.243-9.918 0-18.927-1.363-27.01-4.076-8.441-2.833-15.716-7.108-21.831-12.813-6.146-5.74-10.779-12.34-13.876-19.77-3.058-7.355-4.593-15.394-4.593-24.108 0-5.127.798-10.13 2.391-14.983 1.562-4.761 3.896-9.336 6.993-13.695 3.049-4.289 6.716-8.141 10.995-11.538 4.165-3.305 8.917-6.199 14.233-8.657 10.519-4.875 22.511-7.314 35.972-7.314 10.307 0 19.4 1.486 27.258 4.46 8.418 3.181 15.314 8.043 20.67 14.56 9.866 11.996 14.803 26.79 14.803 44.363 0 5.295-.759 10.36-2.268 15.173-1.522 4.875-3.812 9.416-6.839 13.598-2.912 4.024-6.428 7.633-10.514 10.801-3.891 3.018-8.334 5.612-13.302 7.756z"/></svg>