<svg xmlns="http://www.w3.org/2000/svg" shape-rendering="geometricPrecision" text-rendering="geometricPrecision" image-rendering="optimizeQuality" fill-rule="evenodd" clip-rule="evenodd" viewBox="0 0 214 512.281"><path fill-rule="nonzero" d="M109.739 0c11.94 0 22.953 1.701 33.011 5.098 10.271 3.467 19.411 8.676 27.416 15.611 8.128 7.042 15.001 16.716 20.62 29.001 5.332 11.649 9.568 25.683 12.696 42.072l.075.433c1.635 8.702 3.092 18.792 4.356 30.224 1.267 11.498 2.372 24.517 3.3 39.033a1330.298 1330.298 0 012.054 43.87c.486 15.721.733 30.727.733 44.974 0 13.08-.216 26.734-.645 40.945-.415 13.651-1.016 26.545-1.802 38.636-.813 12.651-1.891 24.795-3.212 36.404l-.044.349c-1.338 11.684-2.933 22.94-4.771 33.736l-.119.61c-3.101 19.083-7.408 35.507-12.904 49.25-5.817 14.551-13.049 26.28-21.667 35.159-8.654 8.919-18.488 15.633-29.469 20.135l-.636.238c-10.806 4.329-22.529 6.503-35.159 6.503-11.755 0-22.785-1.807-33.065-5.403-10.35-3.622-19.79-9.047-28.294-16.238-8.746-7.4-16.026-17.397-21.831-29.986-5.517-11.967-9.74-26.355-12.656-43.124l-.128-1.025c-.888-6.533-1.763-14.387-2.62-23.545a1305.12 1305.12 0 01-2.531-31.474c-.782-11.415-1.387-23.735-1.802-36.921A1279.52 1279.52 0 010 284.604c0-17.882.331-36.055.99-54.498.644-18.116 1.594-35.331 2.827-51.627 1.241-16.375 2.792-31.7 4.638-45.942 1.838-14.189 3.918-26.712 6.22-37.553l.102-.437c3.374-16.005 7.756-29.836 13.15-41.458 5.708-12.32 12.594-22.312 20.643-29.959 8.093-7.704 17.334-13.5 27.706-17.379C86.512 1.917 97.679 0 109.739 0zM68.175 271.776c-.093 4.819-4.086 8.654-8.906 8.561-4.819-.093-8.654-4.086-8.561-8.905l.119-5.664c.093-4.819 4.087-8.654 8.906-8.561 4.82.093 8.654 4.086 8.561 8.906l-.119 5.663zm1.493-43.662c-.225 4.819-4.325 8.548-9.144 8.322-4.82-.225-8.548-4.324-8.323-9.144 1.122-22.728 2.721-51.349 6.458-79.563 3.795-28.625 9.812-56.751 19.777-77.854 2.059-4.369 7.276-6.237 11.645-4.178 4.369 2.058 6.237 7.275 4.179 11.644-9.109 19.291-14.697 45.637-18.275 72.65-3.636 27.428-5.208 55.669-6.317 78.123zm65.688-200.92c-7.532-2.545-16.075-3.817-25.617-3.817-9.414 0-17.864 1.4-25.334 4.197-7.338 2.743-13.933 6.9-19.764 12.448-5.898 5.601-11.079 13.222-15.537 22.838-4.682 10.09-8.521 22.265-11.52 36.493l-.089.473c-2.261 10.637-4.245 22.52-5.945 35.635-1.692 13.067-3.181 27.99-4.453 44.75a1278.338 1278.338 0 00-2.827 50.717c-.592 16.631-.893 34.527-.893 53.676 0 14.498.186 27.583.548 39.227.384 12.171.99 24.213 1.802 36.1.835 12.148 1.653 22.476 2.443 30.927.8 8.543 1.639 16.044 2.514 22.489l.048.261c2.567 14.758 6.181 27.189 10.827 37.274 4.365 9.462 9.609 16.787 15.718 21.955 6.344 5.368 13.323 9.392 20.899 12.042 7.655 2.677 16.128 4.024 25.396 4.024 9.767 0 18.584-1.568 26.447-4.695l.495-.217c7.983-3.269 15.196-8.221 21.615-14.834 6.463-6.657 12.051-15.863 16.738-27.587 4.881-12.196 8.729-26.968 11.543-44.298l.11-.809a594.354 594.354 0 004.594-32.472l.035-.341a720.472 720.472 0 003.124-35.211 1099.279 1099.279 0 001.802-37.814c.362-12.064.548-25.511.548-40.309 0-15.921-.217-30.701-.637-44.338a1314.13 1314.13 0 00-2.053-43.049c-.897-14.047-1.975-26.699-3.212-37.937-1.206-10.933-2.571-20.422-4.077-28.444l-.08-.384c-2.805-14.684-6.458-26.951-10.955-36.78-4.201-9.189-9.105-16.212-14.693-21.058-5.698-4.939-12.227-8.658-19.56-11.132z"/></svg>