<svg xmlns="http://www.w3.org/2000/svg" shape-rendering="geometricPrecision" text-rendering="geometricPrecision" image-rendering="optimizeQuality" fill-rule="evenodd" clip-rule="evenodd" viewBox="0 0 456 512.279"><path fill-rule="nonzero" d="M270.039 512.279c-29.668 0-56.941-2.483-81.772-7.439-24.989-4.988-47.616-12.546-67.865-22.667-20.272-10.138-37.968-22.338-53.049-36.585-15.227-14.379-27.834-30.834-37.8-49.325-9.869-18.315-17.277-38.167-22.198-59.543C2.456 315.459 0 292.771 0 268.678c0-53.499 11.114-100.466 33.334-140.89 11.163-20.312 24.84-38.383 41.007-54.193 16.142-15.784 34.695-29.244 55.625-40.354 20.948-11.123 44.011-19.463 69.164-24.998C224.084 2.748 251.119 0 280.212 0c55.426 0 98.319 11.287 128.663 33.855 15.624 11.627 27.401 25.511 35.3 41.626C452.051 91.56 456 109.632 456 129.674c0 14.569-2.072 27.812-6.193 39.686-4.219 12.135-10.576 22.711-19.048 31.705-8.605 9.131-19.132 15.977-31.558 20.514-12.003 4.378-25.688 6.573-41.012 6.573-8.243 0-16-.556-23.262-1.66-7.294-1.109-14.198-2.837-20.669-5.169l-16.933-5.999-16.79-5.778c-4.952-1.683-10.377-2.96-16.248-3.821-5.928-.866-12.378-1.303-19.33-1.303-11.446 0-22.061 1.696-31.819 5.08-4.361 1.511-8.292 3.569-11.764 6.153-3.384 2.514-6.366 5.593-8.928 9.215-2.487 3.516-4.373 7.762-5.637 12.696-1.36 5.31-2.045 11.622-2.045 18.907 0 9.073 1.294 16.662 3.87 22.723 2.346 5.522 5.849 9.922 10.478 13.168 5.301 3.72 11.548 6.538 18.721 8.433 7.492 1.984 16.084 2.982 25.758 2.982 5.403 0 10.938-.185 16.593-.547 5.817-.376 12.059-.959 18.703-1.732l20.351-2.293 20.183-2.116c6.998-.711 13.35-1.241 19.018-1.577 6.193-.366 11.648-.552 16.362-.552 13.226 0 25.277 1.895 36.13 5.685 11.11 3.879 20.837 9.723 29.159 17.52l.654.667c8.186 7.872 14.317 17.528 18.381 28.943 4.016 11.278 6.026 24.247 6.026 38.887 0 19.088-3.702 36.395-11.106 51.896-7.425 15.55-18.46 29.018-33.086 40.398-14.485 11.264-32.879 19.684-55.157 25.237-21.605 5.389-46.864 8.084-75.763 8.084zM144.34 86.958c4.347-2.094 9.582-.27 11.676 4.077 2.094 4.346.269 9.581-4.078 11.675-11.794 5.725-28.581 20.541-43.834 42.845-12.011 17.568-22.887 39.633-29.385 65.352-1.17 4.687-5.928 7.536-10.615 6.365-4.687-1.17-7.536-5.928-6.365-10.615 7.054-27.927 18.866-51.883 31.911-70.962 17.069-24.954 36.603-41.899 50.69-48.737zM54.953 238.189a8.75 8.75 0 0117.326 2.465l-.946 6.701c-.623 4.784-5.009 8.155-9.793 7.532-4.784-.623-8.155-5.009-7.532-9.793l.945-6.905zm137.882 243.733c23.293 4.651 49.043 6.979 77.204 6.979 27.154 0 50.557-2.451 70.197-7.35 18.965-4.727 34.434-11.746 46.384-21.041 11.816-9.192 20.629-19.865 26.425-31.995 5.818-12.183 8.729-26.138 8.729-41.851 0-12.024-1.555-22.406-4.656-31.121-2.841-7.983-6.98-14.609-12.4-19.861l-.61-.535c-5.915-5.539-12.868-9.705-20.846-12.492-8.238-2.876-17.731-4.316-28.461-4.316-4.784 0-9.794.155-14.993.464-5.738.34-11.786.835-18.107 1.48l-19.998 2.116-20.166 2.292c-6.895.804-13.539 1.418-19.896 1.829-6.564.42-12.59.637-18.05.637-11.564 0-22.135-1.273-31.695-3.804-9.891-2.615-18.632-6.591-26.204-11.905-8.252-5.791-14.432-13.504-18.518-23.117-3.856-9.069-5.787-19.701-5.787-31.858 0-8.985.959-17.211 2.867-24.659 2.006-7.818 5.049-14.621 9.109-20.364 3.989-5.637 8.707-10.483 14.131-14.516 5.323-3.962 11.353-7.116 18.063-9.44 12.391-4.298 25.529-6.449 39.4-6.449 7.955 0 15.531.53 22.705 1.577 7.223 1.06 14.017 2.672 20.365 4.828l16.967 5.866 17.118 6.088c4.819 1.736 10.257 3.065 16.287 3.984 6.065.923 12.665 1.387 19.79 1.387 12.695 0 23.726-1.709 33.069-5.115 8.923-3.256 16.437-8.124 22.52-14.578 6.215-6.6 10.898-14.401 14.021-23.39 3.212-9.25 4.824-19.932 4.824-32.018 0-16.574-3.128-31.236-9.361-43.962-6.219-12.696-15.651-23.748-28.267-33.136-26.169-19.463-64.433-29.199-114.783-29.199-27.406 0-52.766 2.567-76.064 7.695-23.09 5.08-44.175 12.692-63.227 22.808C121.855 64 105.069 76.148 90.598 90.302c-14.459 14.135-26.735 30.383-36.811 48.715-20.267 36.872-30.41 80.102-30.41 129.661 0 22.467 2.244 43.419 6.719 62.838 4.444 19.3 11.123 37.204 20.007 53.695 8.782 16.3 19.87 30.776 33.232 43.397 13.5 12.753 29.332 23.673 47.475 32.742 18.186 9.091 38.869 15.951 62.025 20.572z"/></svg>