<svg xmlns="http://www.w3.org/2000/svg" shape-rendering="geometricPrecision" text-rendering="geometricPrecision" image-rendering="optimizeQuality" fill-rule="evenodd" clip-rule="evenodd" viewBox="0 0 358 512.134"><path fill-rule="nonzero" d="M175.747 310.344c13.266 5.958 31.373 10.776 50.588 13.015 17.347 2.018 35.374 1.908 51.228-1.396 19.427-4.054 33.241-12.59 40.774-22.867 4.037-5.502 6.21-11.464 6.382-17.369.168-5.864-1.634-11.906-5.529-17.607-7.238-10.586-21.485-19.966-43.575-25.618l-.932-.279c-29.557-7.383-65.858-7.569-93.513-7.715-10.241-.048-19.374-.097-26.417-.459-6.426-.327-11.376-5.807-11.05-12.233l.142-1.32c.476-4.063 1.338-16.932 1.726-28.158.252-7.309.331-13.553.005-15.05-1.361-6.302 2.645-12.516 8.947-13.876a11.68 11.68 0 013.378-.23c23.384 1.877 51.387 3.184 78.269 1.148 26.099-1.969 51.082-7.039 69.343-17.722 9.777-5.723 17.068-12.966 21.847-21.715 4.844-8.858 7.269-19.585 7.269-32.14 0-10.299-1.74-19.357-5.207-27.16-3.4-7.649-8.603-14.38-15.585-20.165-6.995-5.803-16.591-10.223-28.767-13.239-12.952-3.211-28.771-4.819-47.443-4.819-32.274 0-77.018 3.423-115.418 15.638-26.554 8.448-49.995 21.048-63.571 39.512-4.853 6.589-9.331 15.625-13.434 27.071-4.279 12.083-8.143 26.652-11.526 43.695-3.427 17.236-6.002 37.546-7.72 60.917-1.722 23.472-2.588 50.185-2.588 80.123 0 22.819.345 42.806 1.029 59.954.694 17.555 1.758 32.958 3.162 46.18 2.893 27.182 6.951 51.295 17.904 67.705 10.188 15.263 27.499 24.599 57.781 24.599 23.331 0 40.152-6.73 51.087-18.654 11.95-13.028 17.59-32.808 17.59-57.265 0-7.322-.261-14.547-.777-21.657a307.561 307.561 0 00-2.381-21.825c-1.113-7.685-2.455-15.369-4.076-22.991a276.59 276.59 0 00-5.759-22.421c-1.863-6.174 1.63-12.697 7.804-14.561a11.642 11.642 0 019.013.954zM112.489 75.362c4.421-1.943 9.592.067 11.535 4.487 1.944 4.421-.066 9.592-4.486 11.536-15.325 6.747-24.201 15.403-29.624 25.746-5.697 10.864-8.029 24.139-9.976 39.158l-1.687 13.05c-.601 4.783-4.973 8.166-9.756 7.565-4.783-.6-8.165-4.972-7.565-9.755l1.687-13.05c2.173-16.786 4.867-31.788 11.823-45.05 7.229-13.787 18.671-25.154 38.049-33.687zM55.927 205.746c.6-4.782 4.972-8.165 9.755-7.564 4.783.6 8.166 4.972 7.565 9.755l-1.051 8.099c-.601 4.783-4.973 8.166-9.755 7.565-4.783-.6-8.166-4.972-7.565-9.755l1.051-8.1zm167.758 140.798c-12.869-1.497-25.402-4.08-36.69-7.397l.517 2.385c1.727 8.112 3.162 16.322 4.35 24.545 1.139 7.874 2 15.704 2.566 23.468.574 7.922.865 15.691.865 23.3 0 30.251-7.627 55.427-23.799 73.057-15.381 16.768-37.908 26.232-68.248 26.232-39.366 0-62.635-13.284-77.133-35.003-13.734-20.579-18.504-47.858-21.737-78.206-1.444-13.576-2.535-29.496-3.259-47.735C.375 332.567 0 312.274 0 290.326c0-30.229.896-57.49 2.676-81.766 1.793-24.391 4.491-45.642 8.091-63.744 3.634-18.305 7.799-34 12.475-47.064 4.942-13.676 10.462-24.69 16.592-33.019 16.852-22.92 44.48-38.09 75.345-47.912C156.484 3.683 203.742 0 237.627 0c20.403 0 38.085 1.85 53.008 5.551 15.704 3.895 28.405 9.866 38.085 17.895 9.698 8.032 17.029 17.62 21.971 28.74C355.557 63.143 358 75.34 358 88.753c0 16.419-3.401 30.855-10.193 43.278-6.85 12.547-17.029 22.77-30.521 30.662-21.829 12.767-50.225 18.716-79.385 20.92-23.499 1.775-47.541 1.161-68.897-.212l-.151 5.67a619.359 619.359 0 01-.909 18.049l13.314.106c28.878.15 66.783.345 99.105 8.431l1.002.207c28.047 7.176 46.829 20.111 57.088 35.113 6.748 9.875 9.853 20.651 9.548 31.387-.309 10.7-4.01 21.18-10.859 30.52-10.74 14.644-29.395 26.59-54.836 31.902-18.487 3.856-39.07 4.037-58.621 1.758z"/></svg>
