<svg xmlns="http://www.w3.org/2000/svg" shape-rendering="geometricPrecision" text-rendering="geometricPrecision" image-rendering="optimizeQuality" fill-rule="evenodd" clip-rule="evenodd" viewBox="0 0 417 512.285"><path fill-rule="nonzero" d="M160.201 512.285c-18.037 0-34.523-1.338-49.45-4.011-15.148-2.708-28.479-6.798-39.969-12.245-11.95-5.668-22.304-13.147-31.033-22.436-8.654-9.202-15.674-20.171-21.05-32.876l-.035-.092c-3.322-8.054-6.171-16.787-8.526-26.166-2.324-9.237-4.236-19.335-5.729-30.268-1.476-10.766-2.576-22.313-3.296-34.629C.371 336.963 0 323.781 0 310.025c0-20.356.455-39.709 1.361-58.037.892-18.161 2.226-34.748 3.988-49.741 1.79-15.245 3.976-29.354 6.543-42.298 2.593-13.102 5.61-25.14 9.025-36.078 3.397-10.871 7.258-21.027 11.556-30.445 4.334-9.493 9.065-18.086 14.171-25.75l.455-.636c7.077-10.562 16.116-19.958 27.097-28.162 10.929-8.163 23.93-15.253 38.998-21.257 14.914-5.946 32.747-10.381 53.457-13.296C187.125 1.445 210.384 0 236.429 0c20.343 0 38.874 1.17 55.568 3.503 16.919 2.363 31.837 5.937 44.723 10.695 13.041 4.81 24.403 10.562 34.059 17.224 9.935 6.847 18.05 14.67 24.319 23.448 6.202 8.685 10.862 18.005 13.963 27.927 3.101 9.926 4.656 20.4 4.656 31.404 0 15.881-2.58 30.419-7.722 43.588-5.194 13.292-13 25.087-23.395 35.362-9.807 9.692-21.182 18.395-34.103 26.09a212.357 212.357 0 01-11.008 6.114 139.74 139.74 0 0112.276 4.276c14.035 5.65 26.147 13.314 36.312 22.993 10.412 9.904 18.209 22.004 23.378 36.263 5.026 13.876 7.545 29.695 7.545 47.427 0 13.151-1.953 25.851-5.849 38.096-3.883 12.197-9.661 23.758-17.326 34.656-7.479 10.637-16.221 20.576-26.2 29.796-9.798 9.051-20.93 17.484-33.366 25.268-12.227 7.66-25.175 14.454-38.829 20.369-13.699 5.937-28.065 10.995-43.08 15.174a344.124 344.124 0 01-92.149 12.612zM104.293 79.842c3.366-3.459 8.906-3.538 12.364-.172 3.459 3.366 3.539 8.905.173 12.364-8.186 8.424-15.418 20.259-21.399 35.844-5.875 15.311-10.491 34.068-13.553 56.54-.64 4.784-5.044 8.137-9.828 7.496-4.785-.64-8.138-5.045-7.497-9.829 3.269-23.965 8.208-44.016 14.507-60.436 6.852-17.855 15.39-31.678 25.233-41.807zM62.384 209.125c.19-4.82 4.259-8.579 9.078-8.389 4.82.19 8.579 4.258 8.389 9.078l-.19 4.784c-.19 4.82-4.259 8.579-9.078 8.389-4.82-.19-8.579-4.258-8.389-9.078l.19-4.784zm52.476 276.231c13.217 2.368 28.333 3.552 45.341 3.552 14.745 0 29.213-.972 43.38-2.903a321.093 321.093 0 0042.558-8.799c14.114-3.927 27.477-8.623 40.067-14.079 12.621-5.469 24.535-11.715 35.729-18.726 10.991-6.882 20.965-14.458 29.893-22.706 8.738-8.075 16.384-16.764 22.914-26.05 6.348-9.033 11.096-18.46 14.215-28.267 3.106-9.763 4.665-20.126 4.665-31.064 0-15.121-2.032-28.29-6.087-39.484-3.919-10.818-9.768-19.927-17.529-27.313-8.009-7.625-17.657-13.708-28.917-18.24-11.388-4.586-24.438-7.616-39.108-9.074-6.379-.088-11.525-5.288-11.525-11.689v-2.628c.022-4.811 3.017-9.317 7.805-11.004 14.286-5.041 27.08-10.929 38.362-17.644 11.163-6.648 21.054-14.224 29.632-22.706 7.992-7.903 14-16.989 18.006-27.233 4.047-10.369 6.079-22.075 6.079-35.098 0-8.707-1.188-16.866-3.561-24.459-2.372-7.585-5.937-14.715-10.677-21.355-4.678-6.546-10.871-12.483-18.567-17.785-7.955-5.486-17.586-10.323-28.855-14.485-11.419-4.214-24.72-7.39-39.881-9.511-15.386-2.151-32.853-3.229-52.37-3.229-25.21 0-47.404 1.352-66.58 4.051-18.925 2.664-34.96 6.613-48.067 11.839C108.812 44.436 97.6 50.549 88.165 57.6c-8.95 6.688-16.186 14.145-21.695 22.348l-.371.601c-4.523 6.789-8.676 14.317-12.44 22.56-3.794 8.314-7.289 17.555-10.46 27.707-3.15 10.089-5.951 21.296-8.389 33.604-2.465 12.448-4.563 25.948-6.268 40.477-1.741 14.79-3.04 30.861-3.893 48.187-.848 17.144-1.272 36.135-1.272 56.941 0 13.836.341 26.571 1.025 38.167.698 11.879 1.736 22.852 3.11 32.898 1.348 9.864 3.11 19.106 5.27 27.706 2.125 8.464 4.608 16.129 7.422 22.971 4.249 10.033 9.767 18.651 16.525 25.843 6.706 7.138 14.72 12.917 24.01 17.321 9.745 4.616 21.124 8.102 34.121 10.425zm89.37-113.419c5.999 0 11.556-.438 16.645-1.299 4.988-.844 9.644-2.116 13.938-3.795 4.209-1.648 7.96-3.596 11.225-5.831 3.171-2.173 5.875-4.581 8.097-7.218 2.071-2.496 3.609-5.089 4.603-7.819.989-2.717 1.488-5.725 1.488-9.008 0-3.838-.79-7.293-2.372-10.345-1.652-3.199-4.294-6.211-7.894-9.016-3.649-2.836-8.486-5.019-14.476-6.525-6.635-1.67-14.653-2.509-24.027-2.509-7.046 0-13.429.848-19.136 2.535-5.522 1.631-10.558 4.1-15.086 7.387-3.963 2.871-6.927 6.361-8.866 10.438-2.032 4.263-3.053 9.356-3.053 15.267 0 5.266.742 9.661 2.209 13.182 1.272 3.053 3.172 5.544 5.668 7.448 6.206 4.735 16.557 7.108 31.037 7.108zm20.48 21.716c-6.512 1.105-13.345 1.661-20.48 1.661-19.689 0-34.757-3.984-45.191-11.949-5.818-4.44-10.178-10.125-13.063-17.034-2.685-6.437-4.037-13.818-4.037-22.132 0-9.423 1.776-17.864 5.332-25.312 3.635-7.634 9.06-14.074 16.27-19.3 6.63-4.815 14.043-8.438 22.206-10.85 7.974-2.359 16.548-3.543 25.71-3.543 11.207 0 21.112 1.082 29.69 3.243 9.219 2.319 16.946 5.897 23.153 10.721 6.246 4.859 11.012 10.465 14.281 16.782 3.349 6.467 5.023 13.483 5.023 21.027 0 5.916-.985 11.574-2.947 16.95-1.961 5.377-4.868 10.346-8.711 14.896a64.95 64.95 0 01-12.762 11.468c-4.722 3.238-10.028 6.008-15.881 8.296-5.774 2.258-11.98 3.954-18.593 5.076zm-20.48-209.001c8.725 0 16.553-.866 23.453-2.589 6.652-1.661 12.515-4.126 17.559-7.364 4.528-2.911 7.859-6.22 9.962-9.9 2.027-3.551 3.048-7.717 3.048-12.483 0-2.92-.672-5.509-2.01-7.74-1.515-2.526-3.985-4.899-7.386-7.09-3.786-2.439-8.5-4.307-14.127-5.592l-.389-.098c-5.924-1.303-12.904-1.965-20.913-1.965-7.156 0-13.539.742-19.123 2.217-5.323 1.409-10.019 3.494-14.057 6.242-3.503 2.386-6.091 5.244-7.743 8.548-1.719 3.441-2.585 7.682-2.585 12.705 0 8.349 2.572 14.419 7.691 18.195 6.255 4.608 15.135 6.914 26.62 6.914zm29.116 20.055c-8.861 2.213-18.576 3.322-29.116 3.322-16.548 0-30.026-3.83-40.411-11.481-11.517-8.49-17.277-20.828-17.277-37.005 0-8.553 1.714-16.266 5.137-23.113 3.49-6.979 8.641-12.793 15.422-17.409 6.246-4.25 13.345-7.435 21.266-9.529 7.655-2.023 16.018-3.039 25.06-3.039 9.573 0 18.249.87 26.011 2.598l.495.101c8.278 1.891 15.461 4.798 21.522 8.703 6.449 4.152 11.383 9.078 14.79 14.759 3.586 5.976 5.384 12.554 5.384 19.702 0 8.808-2.054 16.813-6.149 23.987-4.024 7.046-9.917 13.067-17.639 18.028-7.218 4.634-15.386 8.101-24.495 10.376z"/></svg>